<svg xmlns="http://www.w3.org/2000/svg">

  <symbol id="back" viewBox="0 0 30 14">
     <g> <rect y="10" class="st0" width="6" height="4"/> <rect x="12" y="10" class="st0" width="18" height="4"/> <rect width="6" height="4"/> <rect x="12" class="st0" width="18" height="4"/> </g> 
  </symbol>

  <symbol id="close" viewBox="0 0 30 30">
     <path d="M29,30c-0.3,0-0.5-0.1-0.7-0.3L15,16.4L1.7,29.7c-0.4,0.4-1,0.4-1.4,0s-0.4-1,0-1.4L13.6,15L0.3,1.7c-0.4-0.4-0.4-1,0-1.4
	s1-0.4,1.4,0L15,13.6L28.3,0.3c0.4-0.4,1-0.4,1.4,0s0.4,1,0,1.4L16.4,15l13.3,13.3c0.4,0.4,0.4,1,0,1.4C29.5,29.9,29.3,30,29,30z"/> 
  </symbol>

  <symbol id="facebook" viewBox="0 0 9.6 17.8">
     <path d="M9.3,0L7,0C4.4,0,2.7,1.7,2.7,4.4v2H0.4C0.2,6.4,0,6.6,0,6.8v2.9c0,0.2,0.2,0.4,0.4,0.4h2.3v7.4
	c0,0.2,0.2,0.4,0.4,0.4h3c0.2,0,0.4-0.2,0.4-0.4v-7.4h2.7c0.2,0,0.4-0.2,0.4-0.4l0-2.9c0-0.1,0-0.2-0.1-0.3C9.3,6.4,9.2,6.4,9.2,6.4
	H6.4V4.7c0-0.8,0.2-1.2,1.3-1.2l1.6,0c0.2,0,0.4-0.2,0.4-0.4V0.4C9.6,0.2,9.5,0,9.3,0z"/> 
  </symbol>

  <symbol id="hexagon" viewBox="0 0 230 260">
     <path d="M218.1,56.2l-91.1-53c-7.4-4.3-16.5-4.3-23.9,0l-91.1,53C4.6,60.5,0,68.4,0,77v106c0,8.6,4.6,16.5,11.9,20.8l91.1,53c7.4,4.3,16.5,4.3,23.9,0l91.1-53c7.4-4.3,11.9-12.2,11.9-20.8V77C230,68.4,225.4,60.5,218.1,56.2z"/> 
  </symbol>

  <symbol id="honeycomb" viewBox="0 0 600 535.5">
     <path d="M423.4,1L178.8,0c-19.8-0.1-38.1,10.4-48.1,27.5L7.5,238.8c-10,17.1-10.1,38.3-0.2,55.5
	l121.4,212.3c9.8,17.2,28.1,27.8,47.9,27.9l244.5,1c19.8,0.1,38.2-10.4,48.2-27.5l123.2-211.3c10-17.1,10.1-38.3,0.2-55.5L471.3,29
	C461.5,11.8,443.2,1.1,423.4,1"/> 
  </symbol>

  <symbol id="linkedin" viewBox="0 0 18 18">
     <g> <path d="M4.2,5.6H0.8c-0.2,0-0.3,0.1-0.3,0.3v11.8c0,0.2,0.1,0.3,0.3,0.3h3.4c0.2,0,0.3-0.1,0.3-0.3V5.9
		C4.5,5.8,4.4,5.6,4.2,5.6z"/> <circle cx="2.3" cy="2.2" r="2.2"/> <path d="M13.4,5.6c-1.4,0-2.5,0.6-3.2,1.3V6.2c0-0.2-0.1-0.3-0.3-0.3H6.5C6.3,5.9,6.2,6,6.2,6.2v11.5
		c0,0.2,0.1,0.3,0.3,0.3h3.6c0.2,0,0.3-0.1,0.3-0.3V12c0-1.9,0.5-2.7,1.9-2.7c1.5,0,1.6,1.2,1.6,2.8v5.6c0,0.2,0.1,0.3,0.3,0.3h3.6
		c0.2,0,0.3-0.1,0.3-0.3v-6.3C18,8.5,17.5,5.6,13.4,5.6z"/> </g> 
  </symbol>

  <symbol id="logo" viewBox="0 0 219.7 44.4">
     <path fill="none" d="M174.6,19.6c-1.8-1.7-4.1-2.5-6.9-2.5c-2.7,0-5,0.8-6.9,2.5c-1.8,1.7-2.9,3.8-3.2,6.5h20.2
	C177.5,23.5,176.5,21.3,174.6,19.6z"/> <path fill="none" d="M211,19.6c-1.8-1.7-4.1-2.5-6.9-2.5c-2.7,0-5,0.8-6.9,2.5c-1.8,1.7-2.9,3.8-3.2,6.5h20.2
	C213.9,23.5,212.8,21.3,211,19.6z"/> <path fill="none" d="M136,18.6c-1.6-0.9-3.4-1.4-5.4-1.4c-2,0-3.8,0.5-5.4,1.4c-1.6,0.9-2.9,2.2-3.8,3.9c-0.9,1.7-1.4,3.6-1.4,5.8
	s0.5,4.1,1.4,5.8c0.9,1.7,2.2,3,3.8,3.9c1.6,0.9,3.4,1.4,5.4,1.4c2,0,3.8-0.5,5.4-1.4s2.9-2.2,3.8-3.9s1.4-3.6,1.4-5.8
	s-0.5-4.1-1.4-5.8C138.9,20.9,137.6,19.6,136,18.6z M140,29.1l-3.9,6.8c-0.3,0.5-0.9,0.9-1.5,0.9l-7.8,0c-0.6,0-1.2-0.3-1.5-0.9
	l-3.9-6.8c-0.3-0.6-0.3-1.2,0-1.8l3.9-6.8c0.3-0.5,0.9-0.9,1.5-0.9l7.8,0c0.6,0,1.2,0.3,1.5,0.9l3.9,6.8
	C140.4,27.9,140.4,28.6,140,29.1z"/> <path d="M20.9,27.6c-1.6-0.5-3.6-1-6.1-1.4c-1.9-0.4-3.4-0.7-4.4-1c-1-0.3-1.9-0.7-2.6-1.3c-0.7-0.6-1.1-1.4-1.1-2.4
	c0-1.3,0.6-2.4,1.9-3.1c1.3-0.8,3.1-1.2,5.5-1.2c3.5,0,6.5,0.8,9.1,2.5l2.4-4.5c-1.3-0.9-3.1-1.6-5.2-2.1c-2.1-0.5-4.2-0.8-6.3-0.8
	c-4,0-7.2,0.9-9.6,2.6c-2.4,1.7-3.6,4-3.6,6.9c0,2.2,0.6,3.9,1.7,5.2s2.5,2.1,4.1,2.6c1.6,0.5,3.7,1,6.2,1.4
	c1.9,0.3,3.3,0.6,4.3,0.9c1,0.3,1.9,0.7,2.5,1.2c0.7,0.6,1,1.3,1,2.3c0,2.9-2.5,4.3-7.5,4.3c-2,0-4-0.3-6-0.9c-2-0.6-3.7-1.4-5-2.4
	L0,40.7c1.3,1.1,3.2,2,5.6,2.6c2.4,0.7,4.8,1,7.4,1c4.2,0,7.5-0.8,9.9-2.5s3.7-3.9,3.7-6.8c0-2.1-0.6-3.8-1.7-5
	C23.8,28.9,22.5,28.1,20.9,27.6z"/> <path d="M57.4,28.9c0,3.3-0.9,5.9-2.6,7.7c-1.7,1.8-4.1,2.7-7.1,2.7c-2.7,0-4.8-0.8-6.3-2.3
	c-1.5-1.6-2.2-3.9-2.2-6.9V12.6h-5.7v18.1c0,4.5,1.2,7.9,3.6,10.2c2.4,2.3,5.7,3.5,9.9,3.5c2.2,0,4.3-0.4,6.1-1.3
	c1.9-0.9,3.4-2.1,4.5-3.8v4.8h5.4V12.6h-5.7V28.9z"/> <path d="M90.7,12.3c-2.5,0-4.7,0.4-6.7,1.3c-2,0.9-3.5,2.1-4.7,3.7v-4.8h-5.5v31.5h5.7V27.9c0-3.4,0.9-5.9,2.7-7.7
	c1.8-1.8,4.2-2.7,7.3-2.7c2.7,0,4.8,0.8,6.3,2.3c1.5,1.5,2.2,3.8,2.2,6.9v17.5h5.7V25.9c0-4.5-1.2-7.9-3.5-10.2
	C97.9,13.4,94.7,12.3,90.7,12.3z"/> <path d="M139.3,14.3c-2.4-1.3-5.1-2-8.2-2c-2.3,0-4.3,0.4-6.2,1.3c-1.9,0.9-3.5,2.1-4.8,3.8V0h-5.7v44.1h5.5v-5
	c1.3,1.7,2.9,3.1,4.8,4c1.9,0.9,4.1,1.4,6.4,1.4c3,0,5.8-0.7,8.2-2c2.4-1.3,4.3-3.2,5.7-5.7c1.4-2.4,2-5.2,2-8.4s-0.7-6-2-8.4
	C143.6,17.5,141.7,15.7,139.3,14.3z M139.8,34.1c-0.9,1.7-2.2,3-3.8,3.9s-3.4,1.4-5.4,1.4c-2,0-3.8-0.5-5.4-1.4
	c-1.6-0.9-2.9-2.2-3.8-3.9c-0.9-1.7-1.4-3.6-1.4-5.8s0.5-4.1,1.4-5.8c0.9-1.7,2.2-3,3.8-3.9c1.6-0.9,3.4-1.4,5.4-1.4
	c2,0,3.8,0.5,5.4,1.4c1.6,0.9,2.9,2.2,3.8,3.9c0.9,1.7,1.4,3.6,1.4,5.8S140.7,32.4,139.8,34.1z"/> <path d="M175.8,14.3c-2.4-1.4-5-2-8-2c-3,0-5.7,0.7-8.1,2c-2.4,1.4-4.3,3.3-5.6,5.7c-1.4,2.5-2,5.2-2,8.3
	c0,3.1,0.7,5.9,2.1,8.3c1.4,2.5,3.4,4.4,6,5.7c2.6,1.4,5.5,2,8.8,2c2.6,0,5-0.4,7.1-1.3c2.1-0.9,3.9-2.1,5.3-3.8l-3.1-3.7
	c-2.3,2.5-5.3,3.8-9.1,3.8c-3.1,0-5.7-0.8-7.7-2.5c-2.1-1.7-3.3-3.9-3.7-6.7h25.5c0.1-0.7,0.1-1.3,0.1-1.7c0-3.2-0.7-6-2-8.4
	C180,17.6,178.2,15.7,175.8,14.3z M157.7,26.1c0.3-2.7,1.4-4.9,3.2-6.5c1.8-1.7,4.1-2.5,6.9-2.5c2.7,0,5,0.8,6.9,2.5
	c1.8,1.7,2.9,3.9,3.2,6.5H157.7z"/> <path d="M219.7,28.5c0-3.2-0.7-6-2-8.4c-1.3-2.5-3.2-4.4-5.5-5.7c-2.4-1.4-5-2-8-2c-3,0-5.7,0.7-8.1,2
	c-2.4,1.4-4.3,3.3-5.6,5.7c-1.4,2.5-2,5.2-2,8.3c0,3.1,0.7,5.9,2.1,8.3c1.4,2.5,3.4,4.4,6,5.7c2.6,1.4,5.5,2,8.8,2
	c2.6,0,5-0.4,7.1-1.3c2.1-0.9,3.9-2.1,5.3-3.8l-3.1-3.7c-2.3,2.5-5.3,3.8-9.1,3.8c-3.1,0-5.7-0.8-7.7-2.5c-2.1-1.7-3.3-3.9-3.7-6.7
	h25.5C219.6,29.5,219.7,28.9,219.7,28.5z M194,26.1c0.3-2.7,1.4-4.9,3.2-6.5c1.8-1.7,4.1-2.5,6.9-2.5c2.7,0,5,0.8,6.9,2.5
	c1.8,1.7,2.9,3.9,3.2,6.5H194z"/> <path fill="currentColor" d="M134.6,19.7l-7.8,0c-0.6,0-1.2,0.3-1.5,0.9l-3.9,6.8c-0.3,0.5-0.3,1.2,0,1.8l3.9,6.8
	c0.3,0.6,0.9,0.9,1.5,0.9l7.8,0c0.6,0,1.2-0.3,1.5-0.9l3.9-6.8c0.3-0.5,0.3-1.2,0-1.8l-3.9-6.8C135.9,20,135.3,19.7,134.6,19.7z"/> 
  </symbol>

  <symbol id="menu" viewBox="0 0 512 512">
     <path d="M501.333,96H10.667C4.779,96,0,100.779,0,106.667s4.779,10.667,10.667,10.667h490.667c5.888,0,10.667-4.779,10.667-10.667
		S507.221,96,501.333,96z"/> <path d="M501.333,245.333H10.667C4.779,245.333,0,250.112,0,256s4.779,10.667,10.667,10.667h490.667
		c5.888,0,10.667-4.779,10.667-10.667S507.221,245.333,501.333,245.333z"/> <path d="M501.333,394.667H10.667C4.779,394.667,0,399.445,0,405.333C0,411.221,4.779,416,10.667,416h490.667
		c5.888,0,10.667-4.779,10.667-10.667C512,399.445,507.221,394.667,501.333,394.667z"/> 
  </symbol>

  <symbol id="next" viewBox="0 0 12 21.7">
     <path d="M11.6,10.1L1.9,0.3c-0.4-0.4-1.1-0.4-1.6,0c-0.4,0.4-0.4,1.1,0,1.6l9,9l-9,9c-0.4,0.4-0.4,1.1,0,1.5c0.4,0.4,1.1,0.4,1.6,0
	l9.8-9.8C12.1,11.2,12.1,10.5,11.6,10.1z"/> 
  </symbol>

  <symbol id="pattern-left" viewBox="0 0 1010 649.9">
     <path d="M0,0v594c304.7,74.5,520.4,74.5,647,0S894.6,321.5,1010,0H0z"/> 
  </symbol>

  <symbol id="pattern-right" viewBox="0 0 1010 649.9">
     <path d="M1010,649.9v-594c-304.7-74.5-520.4-74.5-647,0S115.4,328.3,0,649.9L1010,649.9z"/> 
  </symbol>

  <symbol id="pointer" viewBox="0 0 20 14.4">
     <path d="M19.8,5.8l-6.2-5.6C13.4,0,13.1,0,12.9,0.1c-0.2,0.1-0.4,0.3-0.4,0.6v3.1h-1.9C4.6,3.7,0,8,0,13.7
	c0,0.3,0.2,0.5,0.5,0.6c0.1,0,0.1,0,0.2,0c0.2,0,0.4-0.1,0.5-0.3l0.2-0.3c1.9-3.1,5-5,7.9-5h3.2v3.1c0,0.2,0.1,0.5,0.4,0.6
	c0.2,0.1,0.5,0.1,0.7-0.1l6.2-5.6C19.9,6.6,20,6.4,20,6.2C20,6.1,19.9,5.9,19.8,5.8z"/> 
  </symbol>

  <symbol id="polygon" viewBox="0 0 777.3 738.4">
     <path d="M772.1,388.1L653.7,91.4c-9.6-24-31.3-41.1-56.9-44.8L280.6,0.8C255-3,229.3,7.3,213.3,27.6L15.6,278.5
	c-16,20.3-20,47.7-10.4,71.7l118.4,296.7c9.6,24.1,31.3,41.2,56.9,44.8l316.2,45.8c25.6,3.7,51.3-6.5,67.3-26.9l197.8-250.9
	C777.7,439.5,781.7,412.2,772.1,388.1z"/> 
  </symbol>

  <symbol id="prev" viewBox="0 0 12 21.7">
     <path d="M11.6,19.9l-9-9l9-9c0.4-0.4,0.4-1.1,0-1.6c-0.4-0.4-1.1-0.4-1.6,0l-9.8,9.8c-0.4,0.4-0.4,1.1,0,1.6l9.8,9.8
	c0.4,0.4,1.1,0.4,1.6,0C12.1,21,12.1,20.3,11.6,19.9z"/> 
  </symbol>

  <symbol id="view" viewBox="0 0 75.8 79">
     <g> <path d="M74.9,23.9L63.1,3.3c-1.1-2-3.2-3.2-5.5-3.2L33.9,0c0,0,0,0,0,0c-2.3,0-4.4,1.2-5.5,3.2l-12,20.5c-0.4,0.7-0.7,1.5-0.8,2.3
		H17v2h-1.4c0.1,0.7,0.4,1.4,0.7,2.1l11.8,20.6c1.1,2,3.2,3.2,5.5,3.2l11.5,0v-2l-11.5,0c-1.6,0-3-0.9-3.8-2.2L18.1,29.1
		c-0.8-1.4-0.8-3,0-4.4l12-20.5C30.8,2.8,32.3,2,33.8,2c0,0,0,0,0,0l23.7,0.1c1.6,0,3,0.9,3.8,2.2l11.8,20.6c0.8,1.4,0.8,3,0,4.4
		l-12,20.5C60.4,51.2,59,52,57.4,52c0,0,0,0,0,0l-10.2,0v2l10.2,0c0,0,0,0,0,0c2.3,0,4.4-1.2,5.5-3.2l12-20.5
		C76,28.4,76,25.9,74.9,23.9z"/> <polygon points="17,26 15.6,26 0,26 0,28 15.6,28 17,28 	"/> <path d="M47.2,33.9c3.4-0.5,6-3.4,6-6.9c0-3.9-3.1-7-7-7c-3.9,0-7,3.1-7,7c0,3.5,2.6,6.4,6,6.9v18v2V65h-6l7,14l7-14h-6V54v-2V33.9
		z"/> </g> 
  </symbol>

</svg>