<?xml version="1.0" standalone="no"?>
<!DOCTYPE svg PUBLIC "-//W3C//DTD SVG 1.1//EN" "http://www.w3.org/Graphics/SVG/1.1/DTD/svg11.dtd" >
<svg xmlns="http://www.w3.org/2000/svg" xmlns:xlink="http://www.w3.org/1999/xlink" version="1.1">
<metadata>
Created by FontForge 20170731 at Fri Mar 13 16:23:27 2015
 By Aleksey,,,
Copyright (c) 2015 by Fontfabric LLC. All rights reserved.
</metadata>
<defs>
<font id="MullerHairline" horiz-adv-x="570" >
  <font-face 
    font-family="Muller Hairline"
    font-weight="250"
    font-stretch="normal"
    units-per-em="1000"
    panose-1="0 0 0 0 0 0 0 0 0 0"
    ascent="780"
    descent="-220"
    x-height="480"
    cap-height="700"
    bbox="-156 -230 1209 920"
    underline-thickness="50"
    underline-position="-275"
    unicode-range="U+0020-25CA"
  />
<missing-glyph horiz-adv-x="272" 
 />
    <glyph glyph-name="f_f" unicode="ff" horiz-adv-x="650" 
d="M675 686q-41 24 -112 24q-60 0 -99 -32t-39 -99v-99h221v-10h-221v-470h-10v470h-300v-470h-10v470h-80v10h80v59q0 73 45 112t112 39q89 0 162 -53q30 83 139 83q69 0 112 -24v-10zM115 480h300v99q0 27 6 48q-75 53 -159 53q-67 0 -107 -37.5t-40 -103.5v-59z" />
    <glyph glyph-name="f_f_i" unicode="ffi" horiz-adv-x="825" 
d="M115 0h-10v470h-80v10h80v59q0 74 46.5 112.5t120.5 38.5q83 0 158 -55q19 36 57 55.5t85 19.5q84 0 159 -48v-11q-75 49 -159 49q-66 0 -106.5 -36t-40.5 -95v-89h310v-480h-10v470h-300v-470h-10v470h-300v-470zM115 539v-59h300v89q0 31 11 58q-75 53 -154 53
q-74 0 -115.5 -37t-41.5 -104z" />
    <glyph glyph-name="f_f_l" unicode="ffl" horiz-adv-x="835" 
d="M735 666v34l10 5v-705h-10v655q-73 45 -163 45q-67 0 -107 -37.5t-40 -103.5v-79h206v-10h-206v-470h-10v470h-300v-470h-10v470h-80v10h80v59q0 74 46.5 112.5t120.5 38.5q82 0 160 -56q38 76 140 76q88 0 163 -44zM415 480v79q0 36 13 67q-75 54 -156 54
q-74 0 -115.5 -37t-41.5 -104v-59h300z" />
    <glyph glyph-name=".notdef" horiz-adv-x="272" 
 />
    <glyph glyph-name=".null" horiz-adv-x="0" 
 />
    <glyph glyph-name="nonmarkingreturn" horiz-adv-x="333" 
 />
    <glyph glyph-name="space" unicode=" " horiz-adv-x="272" 
 />
    <glyph glyph-name="exclam" unicode="!" horiz-adv-x="186" 
d="M98 160h-10v540h10v-540zM108 10q0 -15 -15 -15q-6 0 -10.5 4.5t-4.5 10.5t4.5 10.5t10.5 4.5q15 0 15 -15z" />
    <glyph glyph-name="quotedbl" unicode="&#x22;" horiz-adv-x="229" 
d="M158 580h-8v120h12zM78 580h-8v120h12z" />
    <glyph glyph-name="numbersign" unicode="#" horiz-adv-x="644" 
d="M108 0h-11l46 195h-101v10h103l65 271h-118v10h120l46 195h11l-46 -195h268l46 195h11l-46 -195h100v-10h-102l-65 -271h117v-10h-119l-46 -195h-11l46 195h-268zM221 476l-65 -271h268l65 271h-268z" />
    <glyph glyph-name="dollar" unicode="$" horiz-adv-x="573" 
d="M302 -130h-10v120q-129 3 -226 58v10q108 -58 235 -58q61 0 108 14.5t78 50t31 89.5q0 49 -25 84t-64.5 54t-87 33.5t-95.5 28.5t-87.5 33t-64.5 53.5t-25 83.5q0 82 64 124t158 42v120h10v-120q107 -3 185 -47v-10q-84 47 -195 47q-90 0 -151 -39t-61 -117
q0 -54 33.5 -90.5t83 -52.5t108 -34t108 -36t83 -58t33.5 -99q0 -84 -64 -124.5t-162 -39.5v-120z" />
    <glyph glyph-name="percent" unicode="%" horiz-adv-x="866" 
d="M234 -60h-11l409 820h11zM324 570q0 -66 -42 -103t-101 -37q-60 0 -102 37t-42 103t42 103t102 37q59 0 101 -37t42 -103zM47 570q0 -61 39 -95.5t95 -34.5q55 0 94 34.5t39 95.5t-39 95.5t-94 34.5q-56 0 -95 -34.5t-39 -95.5zM829 130q0 -66 -42 -103t-101 -37
q-60 0 -102 37t-42 103t42 103t102 37q59 0 101 -37t42 -103zM552 130q0 -61 39 -95.5t95 -34.5q55 0 94 34.5t39 95.5t-39 95.5t-94 34.5q-56 0 -95 -34.5t-39 -95.5z" />
    <glyph glyph-name="ampersand" unicode="&#x26;" horiz-adv-x="677" 
d="M536 110l124 -110h-13l-116 103q-94 -113 -253 -113q-101 0 -160 48.5t-59 120.5q0 66 44.5 116t124.5 97q-104 98 -104 177q0 66 52 113.5t142 47.5q72 0 118 -36.5t46 -94.5q0 -19 -6 -36t-21.5 -33.5t-28.5 -28.5t-39.5 -29t-42 -26t-48.5 -27t-47 -26q-4 -2 -5 -3
q18 -18 46 -42l239 -212q67 87 67 194h10q0 -112 -70 -200zM318 700q-86 0 -135 -44.5t-49 -106.5q0 -76 102 -172q2 0 4.5 1.5t3.5 2.5q11 6 46.5 25.5t48.5 27.5t40.5 25t39 28t27 27t21 32t5.5 33q0 53 -43 87t-111 34zM69 159q0 -68 56 -113.5t153 -45.5q155 0 245 109
l-239 212q-6 5 -22.5 20t-26.5 24q-79 -47 -122.5 -95t-43.5 -111z" />
    <glyph glyph-name="quotesingle" unicode="'" horiz-adv-x="149" 
d="M78 580h-8v120h12z" />
    <glyph glyph-name="parenleft" unicode="(" horiz-adv-x="236" 
d="M203 808h12q-70 -96 -111 -217.5t-41 -240.5t41 -240.5t111 -217.5h-12q-69 97 -109.5 218.5t-40.5 239.5t40.5 239.5t109.5 218.5z" />
    <glyph glyph-name="parenright" unicode=")" horiz-adv-x="236" 
d="M21 808h12q69 -97 109.5 -218.5t40.5 -239.5t-40.5 -239.5t-109.5 -218.5h-12q70 96 111 217.5t41 240.5t-41 240.5t-111 217.5z" />
    <glyph glyph-name="asterisk" unicode="*" horiz-adv-x="420" 
d="M210 546l-87 -117l-8 6l87 118l-138 46l4 10l137 -47v138h10v-138l137 47l4 -10l-138 -46l87 -118l-8 -6z" />
    <glyph glyph-name="plus" unicode="+" horiz-adv-x="542" 
d="M276 355h205v-10h-205v-205h-10v205h-205v10h205v205h10v-205z" />
    <glyph glyph-name="comma" unicode="," horiz-adv-x="147" 
d="M41 -140h-10l49 210h10z" />
    <glyph glyph-name="hyphen" unicode="-" horiz-adv-x="486" 
d="M73 246h340v-10h-340v10z" />
    <glyph glyph-name="period" unicode="." horiz-adv-x="144" 
d="M87 10q0 -15 -15 -15q-6 0 -10.5 4.5t-4.5 10.5t4.5 10.5t10.5 4.5q15 0 15 -15z" />
    <glyph glyph-name="slash" unicode="/" horiz-adv-x="396" 
d="M54 -57h-10l297 814h10z" />
    <glyph glyph-name="zero" unicode="0" horiz-adv-x="704" 
d="M62 340q0 160 74 255t216 95t216 -95t74 -255q0 -159 -74 -254.5t-216 -95.5t-216 95.5t-74 254.5zM632 340q0 156 -71.5 248t-208.5 92t-208.5 -92t-71.5 -248t71.5 -248t208.5 -92t208.5 92t71.5 248z" />
    <glyph glyph-name="one" unicode="1" horiz-adv-x="394" 
d="M221 680h5v-670h146v-10h-316v10h160v657l-160 -60v10z" />
    <glyph glyph-name="two" unicode="2" horiz-adv-x="556" 
d="M76 630q90 60 200 60q94 0 153 -44t59 -117q0 -28 -6.5 -53t-23.5 -47t-31 -37.5t-43 -35.5t-45 -29.5t-51 -30.5q-101 -59 -135 -88q-90 -79 -92 -198h437v-10h-447v10q0 57 16 101t56 81t64.5 53.5t83.5 51.5q9 5 13 8q41 24 60 36t50.5 36t45.5 43t26 48t12 61
q0 68 -56 109.5t-146 41.5q-104 0 -200 -60v10z" />
    <glyph glyph-name="three" unicode="3" horiz-adv-x="591" 
d="M502 512q0 -57 -36.5 -101.5t-108.5 -57.5q78 -11 126 -55t48 -121q0 -88 -61.5 -137.5t-161.5 -49.5q-147 0 -237 44v10q96 -44 237 -44q96 0 154.5 47t58.5 130q0 85 -62 127.5t-158 42.5h-96v10h96q95 0 143 45.5t48 109.5q0 70 -54.5 119t-147.5 49q-109 0 -207 -43
v10q92 43 207 43q97 0 154.5 -52t57.5 -126z" />
    <glyph glyph-name="four" unicode="4" horiz-adv-x="636" 
d="M438 680h11v-495h151v-10h-151v-175h-10v175h-409v8zM439 185v480l-394 -480h394z" />
    <glyph glyph-name="five" unicode="5" horiz-adv-x="572" 
d="M104 680h380v-10h-370l-21 -318q89 29 179 29q107 0 177 -49t70 -145q0 -88 -63 -142.5t-173 -54.5q-127 0 -217 46v10q97 -46 217 -46q105 0 165.5 51.5t60.5 135.5q0 92 -67 138t-170 46q-95 0 -189 -33z" />
    <glyph glyph-name="six" unicode="6" horiz-adv-x="599" 
d="M74 279q49 59 117.5 93t139.5 34q93 0 156.5 -53t63.5 -153q0 -97 -63.5 -153.5t-160.5 -56.5q-127 0 -195.5 87.5t-68.5 238.5q0 374 294 374q77 0 138 -36v-10q-63 36 -138 36q-284 0 -284 -364q0 -25 1 -37zM75 264q11 -124 75.5 -194t176.5 -70q93 0 153.5 53.5
t60.5 146.5q0 95 -60.5 145.5t-149.5 50.5q-72 0 -140.5 -35.5t-115.5 -96.5z" />
    <glyph glyph-name="seven" unicode="7" horiz-adv-x="511" 
d="M44 680h450v-6l-331 -674h-11l329 670h-437v10z" />
    <glyph glyph-name="eight" unicode="8" horiz-adv-x="639" 
d="M85 530q0 67 60 113.5t175 46.5q109 0 172 -52t63 -118t-33.5 -116.5t-91.5 -79.5q71 -26 110.5 -63.5t39.5 -100.5q0 -70 -68.5 -120t-191.5 -50q-125 0 -192.5 53.5t-67.5 136.5q0 67 37.5 120.5t105.5 82.5q-118 48 -118 147zM319 346q-72 20 -105 32
q-67 -26 -105.5 -79t-38.5 -119q0 -79 64 -129.5t186 -50.5q119 0 184.5 47.5t65.5 112.5q0 92 -102 138q-40 19 -149 48zM545 520q0 62 -60.5 111t-164.5 49q-111 0 -168 -43.5t-57 -106.5q0 -52 38.5 -89t70 -49t98.5 -31q11 -3 16 -5q42 -12 99 -28q59 28 93.5 78
t34.5 114z" />
    <glyph glyph-name="nine" unicode="9" horiz-adv-x="599" 
d="M48 480q0 97 63.5 153.5t160.5 56.5q127 0 195.5 -87.5t68.5 -238.5q0 -374 -294 -374q-77 0 -138 36v10q63 -36 138 -36q284 0 284 364q0 25 -1 37q-49 -59 -117.5 -93t-139.5 -34q-93 0 -156.5 53t-63.5 153zM58 480q0 -95 60.5 -145.5t149.5 -50.5q72 0 140.5 35.5
t115.5 96.5q-11 124 -75.5 194t-176.5 70q-93 0 -153.5 -53.5t-60.5 -146.5z" />
    <glyph glyph-name="colon" unicode=":" horiz-adv-x="176" 
d="M103 410q0 -15 -15 -15q-6 0 -10.5 4.5t-4.5 10.5t4.5 10.5t10.5 4.5q15 0 15 -15zM103 10q0 -15 -15 -15q-6 0 -10.5 4.5t-4.5 10.5t4.5 10.5t10.5 4.5q15 0 15 -15z" />
    <glyph glyph-name="semicolon" unicode=";" horiz-adv-x="97" 
d="M14 -140h-10l49 210h10zM62 455q0 -15 -15 -15q-6 0 -10.5 4.5t-4.5 10.5t4.5 10.5t10.5 4.5q15 0 15 -15z" />
    <glyph glyph-name="less" unicode="&#x3c;" horiz-adv-x="488" 
d="M403 192v-11l-351 163v12l351 163v-11l-340 -158z" />
    <glyph glyph-name="equal" unicode="=" horiz-adv-x="532" 
d="M456 435h-380v10h380v-10zM456 255h-380v10h380v-10z" />
    <glyph glyph-name="greater" unicode="&#x3e;" horiz-adv-x="488" 
d="M436 344l-351 -163v11l340 158l-340 158v11l351 -163v-12z" />
    <glyph glyph-name="question" unicode="?" horiz-adv-x="491" 
d="M241 182h-10q0 37 21 76t51 72.5t60 67.5t51 74t21 80q0 68 -54 108t-147 40q-98 0 -192 -57v10q87 57 192 57q96 0 153.5 -42.5t57.5 -115.5q0 -41 -21 -82t-51 -75.5t-60 -68t-51 -71t-21 -73.5zM251 10q0 -15 -15 -15q-6 0 -10.5 4.5t-4.5 10.5t4.5 10.5t10.5 4.5
q15 0 15 -15z" />
    <glyph glyph-name="at" unicode="@" horiz-adv-x="1059" 
d="M54 240q0 91 32 175t91.5 150t153 105.5t206.5 39.5q108 0 198.5 -40t146.5 -104t87 -138.5t31 -148.5q0 -130 -47.5 -199.5t-123.5 -69.5q-63 0 -97.5 35.5t-34.5 103.5q-24 -51 -72.5 -83t-109.5 -32q-84 0 -139 55.5t-55 148.5t55 148.5t139 55.5q61 0 109.5 -32
t72.5 -83v106h10v-292q0 -57 32 -89t90 -32q72 0 116.5 66.5t44.5 192.5q0 72 -30.5 145.5t-85.5 135.5t-143.5 101t-193.5 39q-110 0 -201.5 -38.5t-149.5 -103t-90 -146.5t-32 -172q0 -107 40.5 -195.5t109 -145.5t156.5 -88t185 -31q126 0 224 36v-10q-97 -36 -224 -36
q-99 0 -189 31.5t-159.5 89.5t-111 148.5t-41.5 200.5zM697 301q-19 57 -68.5 94t-113.5 37q-80 0 -132 -52.5t-52 -141.5t52 -141.5t132 -52.5q64 0 113.5 37t68.5 94v126z" />
    <glyph glyph-name="A" unicode="A" horiz-adv-x="702" 
d="M29 0h-11l326 700h14l326 -700h-11l-106 227h-432zM345 678l-206 -441h423l-205 441q-1 2 -3 6.5t-3 6.5q-1 -2 -3 -6.5t-3 -6.5z" />
    <glyph glyph-name="B" unicode="B" horiz-adv-x="669" 
d="M108 700h243q107 0 170 -43t63 -131q0 -71 -43 -110t-110 -48q34 -5 62.5 -15t56.5 -30t45 -54.5t17 -81.5q0 -48 -18.5 -83.5t-45 -55t-65.5 -31t-71.5 -14.5t-72.5 -3h-231v700zM602 187q0 54 -23.5 91.5t-61 54.5t-70.5 23.5t-68 6.5h-261v-353h221q40 0 71.5 3
t69 13.5t62.5 29t42.5 52t17.5 79.5zM574 526q0 84 -59.5 124t-163.5 40h-233v-317h273q77 0 130 38t53 115z" />
    <glyph glyph-name="C" unicode="C" horiz-adv-x="660" 
d="M55 340q0 89 31 161t82.5 116.5t114.5 68.5t129 24q111 0 195 -49v-10q-87 49 -195 49q-51 0 -101 -14t-94.5 -44t-78 -72t-53.5 -101.5t-20 -128.5q0 -84 30.5 -151t80.5 -107t111 -61t126 -21q113 0 204 50v-10q-84 -50 -204 -50q-67 0 -129.5 21.5t-114 63t-83 110.5
t-31.5 155z" />
    <glyph glyph-name="D" unicode="D" horiz-adv-x="728" 
d="M108 700h191q183 0 278 -96t95 -254t-95 -254t-278 -96h-191v700zM662 350q0 154 -92 247t-271 93h-181v-680h181q179 0 271 93t92 247z" />
    <glyph glyph-name="E" unicode="E" horiz-adv-x="634" 
d="M108 700h451v-10h-441v-333h411v-10h-411v-337h451v-10h-461v700z" />
    <glyph glyph-name="F" unicode="F" horiz-adv-x="592" 
d="M108 700h452v-10h-442v-339h413v-10h-413v-341h-10v700z" />
    <glyph glyph-name="G" unicode="G" horiz-adv-x="709" 
d="M55 350q0 92 31.5 163.5t85 113t117 62.5t133.5 21q110 0 200 -46v-10q-89 46 -200 46q-69 0 -130.5 -20.5t-113.5 -60.5t-82.5 -109.5t-30.5 -159.5q0 -89 31 -158.5t83.5 -110t116 -61t133.5 -20.5q109 0 202 44v319h10v-325q-96 -48 -212 -48q-72 0 -137 21t-119 63
t-86 113t-32 163z" />
    <glyph glyph-name="H" unicode="H" horiz-adv-x="766" 
d="M648 700h10v-700h-10v347h-530v-347h-10v700h10v-343h530v343z" />
    <glyph glyph-name="I" unicode="I" horiz-adv-x="226" 
d="M108 700h10v-700h-10v700z" />
    <glyph glyph-name="J" unicode="J" horiz-adv-x="522" 
d="M175 700h247v-520q0 -93 -57 -141.5t-151 -48.5q-112 0 -179 43v10q68 -43 179 -43q90 0 144 46t54 134v510h-237v10z" />
    <glyph glyph-name="K" unicode="K" horiz-adv-x="651" 
d="M118 0h-10v700h10v-335h231l254 335h13l-259 -341l288 -359h-13l-285 355h-229v-355z" />
    <glyph glyph-name="L" unicode="L" horiz-adv-x="575" 
d="M108 700h10v-690h438v-10h-448v700z" />
    <glyph glyph-name="M" unicode="M" horiz-adv-x="894" 
d="M780 700h6v-700h-10v677l-326 -473h-6l-326 473v-677h-10v700h6l333 -483z" />
    <glyph glyph-name="N" unicode="N" horiz-adv-x="766" 
d="M118 0h-10v700h7l533 -680v60v620h10v-700h-7l-533 681v-60v-621z" />
    <glyph glyph-name="O" unicode="O" horiz-adv-x="826" 
d="M53 350q0 66 23 129t66 115t113.5 84t157.5 32t157.5 -32t113.5 -84t66 -115t23 -129t-23 -129t-66 -115t-113.5 -84t-157.5 -32t-157.5 32t-113.5 84t-66 115t-23 129zM763 350q0 65 -22.5 126t-64.5 111.5t-110.5 81.5t-152.5 31t-152.5 -31t-110.5 -81.5t-64.5 -111.5
t-22.5 -126t22.5 -126t64.5 -111.5t110.5 -81.5t152.5 -31t152.5 31t110.5 81.5t64.5 111.5t22.5 126z" />
    <glyph glyph-name="P" unicode="P" horiz-adv-x="648" 
d="M108 700h212q290 0 290 -215t-290 -215h-202v-270h-10v700zM600 485q0 205 -280 205h-202v-410h202q280 0 280 205z" />
    <glyph glyph-name="Q" unicode="Q" horiz-adv-x="826" 
d="M775 -50l-7 -7l-124 124q-95 -77 -231 -77q-87 0 -157.5 32t-113.5 84t-66 115t-23 129t23 129t66 115t113.5 84t157.5 32t157.5 -32t113.5 -84t66 -115t23 -129q0 -78 -31 -151t-91 -125zM63 350q0 -65 22.5 -126t64.5 -111.5t110.5 -81.5t152.5 -31q132 0 224 74
l-172 172l7 7l172 -172q58 49 88.5 121t30.5 148q0 65 -22.5 126t-64.5 111.5t-110.5 81.5t-152.5 31t-152.5 -31t-110.5 -81.5t-64.5 -111.5t-22.5 -126z" />
    <glyph glyph-name="R" unicode="R" horiz-adv-x="678" 
d="M118 0h-10v700h260q61 0 113.5 -18.5t90.5 -65.5t38 -117q0 -68 -36 -114.5t-86 -65.5t-110 -21l275 -298h-13l-275 298h-247v-298zM118 690v-382h250q59 0 109 17t86.5 62t36.5 112t-36.5 112t-86.5 62t-109 17h-250z" />
    <glyph glyph-name="S" unicode="S" horiz-adv-x="555" 
d="M61 544q0 82 62.5 124t149.5 42q111 0 195 -47v-10q-84 47 -195 47q-83 0 -142.5 -39.5t-59.5 -116.5q0 -47 24.5 -81t63.5 -54t86.5 -36t95 -33t86.5 -38.5t63.5 -59t24.5 -88.5q0 -84 -64 -124t-163 -40q-134 0 -237 58v10q108 -58 237 -58q61 0 108 14.5t78 50
t31 89.5q0 49 -24.5 85t-63.5 57t-86.5 37.5t-95 32.5t-86.5 37t-63.5 56.5t-24.5 84.5z" />
    <glyph glyph-name="T" unicode="T" horiz-adv-x="594" 
d="M17 700h560v-10h-275v-690h-10v690h-275v10z" />
    <glyph glyph-name="U" unicode="U" horiz-adv-x="748" 
d="M639 700h10v-463q0 -130 -74 -188.5t-201 -58.5t-201 58.5t-74 188.5v463h10v-463q0 -237 265 -237t265 237v463z" />
    <glyph glyph-name="V" unicode="V" horiz-adv-x="674" 
d="M342 0h-10l-310 700h11l304 -688l304 688h11z" />
    <glyph glyph-name="W" unicode="W" horiz-adv-x="978" 
d="M937 700h11l-225 -700h-10l-224 674l-224 -674h-10l-225 700h11l219 -683l224 673h10l224 -673z" />
    <glyph glyph-name="X" unicode="X" horiz-adv-x="594" 
d="M24 0h-12l279 360l-264 340h12l258 -333l258 333h12l-264 -340l279 -360h-12l-273 352z" />
    <glyph glyph-name="Y" unicode="Y" horiz-adv-x="616" 
d="M313 0h-10v289l-276 411h12l269 -400l269 400h12l-276 -411v-289z" />
    <glyph glyph-name="Z" unicode="Z" horiz-adv-x="563" 
d="M534 0h-514v8l495 682h-473v10h487v-8l-495 -682h500v-10z" />
    <glyph glyph-name="bracketleft" unicode="[" horiz-adv-x="223" 
d="M206 -110h-126v920h126v-10h-116v-900h116v-10z" />
    <glyph glyph-name="backslash" unicode="\" horiz-adv-x="396" 
d="M352 -57h-10l-297 814h10z" />
    <glyph glyph-name="bracketright" unicode="]" horiz-adv-x="223" 
d="M143 -110h-126v10h116v900h-116v10h126v-920z" />
    <glyph glyph-name="asciicircum" unicode="^" horiz-adv-x="478" 
d="M74 410h-11l171 290h10l171 -290h-11l-165 280z" />
    <glyph glyph-name="underscore" unicode="_" horiz-adv-x="420" 
d="M420 -121h-420v10h420v-10z" />
    <glyph glyph-name="grave" unicode="`" horiz-adv-x="160" 
d="M130 780h-13l-87 130h13z" />
    <glyph glyph-name="a" unicode="a" horiz-adv-x="537" 
d="M439 62q0 -52 55 -52q20 0 37 7v-10q-19 -7 -37 -7q-27 0 -46 15t-19 47v59q-32 -62 -93.5 -96.5t-132.5 -34.5q-66 0 -114 35t-48 100q0 75 58.5 111.5t144.5 36.5q91 0 185 -33v61q0 83 -47 131t-136 48q-88 0 -168 -28v10q78 28 168 28q93 0 143 -51t50 -138v-239z
M51 125q0 -60 44.5 -92.5t107.5 -32.5q72 0 133 36t93 104v89q-95 34 -185 34q-82 0 -137.5 -33.5t-55.5 -104.5z" />
    <glyph glyph-name="b" unicode="b" horiz-adv-x="611" 
d="M86 700h10v-356q29 64 90 105t136 41q104 0 171 -67.5t67 -182.5t-67 -182.5t-171 -67.5q-75 0 -136 41t-90 105v-136h-10v700zM550 240q0 111 -64 175.5t-164 64.5q-79 0 -140.5 -46.5t-85.5 -117.5v-152q24 -71 85.5 -117.5t140.5 -46.5q100 0 164 65t64 175z" />
    <glyph glyph-name="c" unicode="c" horiz-adv-x="495" 
d="M51 235q0 65 22.5 115.5t60 80t82 44.5t92.5 15q82 0 139 -39v-10q-58 39 -139 39q-101 0 -174 -62.5t-73 -182.5q0 -114 68 -174.5t165 -60.5q89 0 158 38v-10q-68 -38 -158 -38q-100 0 -171.5 63t-71.5 182z" />
    <glyph glyph-name="d" unicode="d" horiz-adv-x="611" 
d="M515 700h10v-700h-10v136q-29 -64 -90 -105t-136 -41q-104 0 -171 67.5t-67 182.5t67 182.5t171 67.5q75 0 136 -41t90 -105v356zM515 316q-24 71 -85.5 117.5t-140.5 46.5q-100 0 -164 -64.5t-64 -175.5q0 -110 64 -175t164 -65q79 0 140.5 46.5t85.5 117.5v152z" />
    <glyph glyph-name="e" unicode="e" horiz-adv-x="545" 
d="M51 240q0 114 68.5 182t164.5 68q62 0 108.5 -25t69 -64.5t31 -83.5t2.5 -86h-434q2 -116 73.5 -173.5t176.5 -57.5q92 0 155 37v-10q-63 -37 -155 -37q-111 0 -185.5 62.5t-74.5 187.5zM487 241q4 41 -5 81.5t-31.5 76.5t-65.5 58.5t-101 22.5q-92 0 -157 -64t-66 -175
h426z" />
    <glyph glyph-name="f" unicode="f" horiz-adv-x="340" 
d="M115 0h-10v470h-80v10h80v89q0 72 42.5 106.5t105.5 34.5q69 0 112 -24v-10q-41 24 -112 24q-60 0 -99 -32t-39 -99v-89h221v-10h-221v-470z" />
    <glyph glyph-name="g" unicode="g" horiz-adv-x="611" 
d="M51 240q0 115 67 182.5t171 67.5q75 0 136 -41t90 -105v136h10v-480q0 -114 -72 -172t-177 -58q-99 0 -186 46v10q92 -46 186 -46q101 0 170 55.5t69 164.5v136q-29 -64 -90 -105t-136 -41q-104 0 -171 67.5t-67 182.5zM515 316q-24 71 -85.5 117.5t-140.5 46.5
q-100 0 -164 -64.5t-64 -175.5q0 -110 64 -175t164 -65q79 0 140.5 46.5t85.5 117.5v152z" />
    <glyph glyph-name="h" unicode="h" 
d="M86 700h10v-337q31 50 85 88.5t127 38.5q79 0 131 -52.5t52 -142.5v-295h-10v295q0 86 -49 135.5t-124 49.5q-74 0 -128.5 -41t-83.5 -96v-343h-10v700z" />
    <glyph glyph-name="i" unicode="i" horiz-adv-x="190" 
d="M100 0h-10v480h10v-480zM107 611q0 -12 -12 -12t-12 12t12 12t12 -12z" />
    <glyph glyph-name="j" unicode="j" horiz-adv-x="190" 
d="M100 -123q0 -57 -32 -82t-79 -25q-36 0 -67 11v10q31 -11 67 -11q44 0 72.5 22.5t28.5 74.5v603h10v-603zM107 611q0 -12 -12 -12t-12 12t12 12t12 -12z" />
    <glyph glyph-name="k" unicode="k" horiz-adv-x="482" 
d="M478 0h-13l-231 245h-138v-245h-10v700h10v-445h140l199 225h13l-204 -231z" />
    <glyph glyph-name="l" unicode="l" horiz-adv-x="190" 
d="M90 730h10v-730h-10v730z" />
    <glyph glyph-name="m" unicode="m" horiz-adv-x="894" 
d="M96 0h-10v480h10v-111q30 48 81 84.5t116 36.5q59 0 101.5 -32t57.5 -85q31 47 81 82t114 35q73 0 120 -48.5t47 -124.5v-317h-10v315q0 71 -43 118t-114 47q-62 0 -111.5 -35.5t-79.5 -85.5q4 -17 4 -42v-317h-10v315q0 71 -43 118t-114 47q-65 0 -116.5 -39.5
t-80.5 -91.5v-349z" />
    <glyph glyph-name="n" unicode="n" 
d="M96 363q31 50 85 88.5t127 38.5q79 0 131 -52.5t52 -142.5v-295h-10v295q0 86 -49 135.5t-124 49.5q-74 0 -128.5 -41t-83.5 -96v-343h-10v480h10v-117z" />
    <glyph glyph-name="o" unicode="o" horiz-adv-x="592" 
d="M51 240q0 115 71.5 182.5t173.5 67.5t173.5 -67.5t71.5 -182.5t-71.5 -182.5t-173.5 -67.5t-173.5 67.5t-71.5 182.5zM531 240q0 110 -68.5 175t-166.5 65t-166.5 -65t-68.5 -175t68.5 -175t166.5 -65t166.5 65t68.5 175z" />
    <glyph glyph-name="p" unicode="p" horiz-adv-x="611" 
d="M96 344q29 64 90 105t136 41q104 0 171 -67.5t67 -182.5t-67 -182.5t-171 -67.5q-75 0 -136 41t-90 105v-356h-10v700h10v-136zM550 240q0 110 -64 175t-164 65q-79 0 -140.5 -46.5t-85.5 -117.5v-152q24 -71 85.5 -117.5t140.5 -46.5q100 0 164 64.5t64 175.5z" />
    <glyph glyph-name="q" unicode="q" horiz-adv-x="611" 
d="M51 240q0 115 67 182.5t171 67.5q75 0 136 -41t90 -105v136h10v-700h-10v356q-29 -64 -90 -105t-136 -41q-104 0 -171 67.5t-67 182.5zM515 316q-24 71 -85.5 117.5t-140.5 46.5q-100 0 -164 -65t-64 -175q0 -111 64 -175.5t164 -64.5q79 0 140.5 46.5t85.5 117.5v152z
" />
    <glyph glyph-name="r" unicode="r" horiz-adv-x="329" 
d="M96 318q24 72 81.5 122t140.5 50v-10q-89 0 -147.5 -59.5t-74.5 -139.5v-281h-10v480h10v-162z" />
    <glyph glyph-name="s" unicode="s" horiz-adv-x="449" 
d="M55 372q0 59 48.5 88.5t115.5 29.5q94 0 161 -42v-10q-68 42 -161 42q-64 0 -109 -27t-45 -81q0 -40 25.5 -66.5t63 -38t82 -24t82 -24.5t63 -39.5t25.5 -69.5q0 -59 -50.5 -89.5t-124.5 -30.5q-48 0 -99.5 13.5t-82.5 35.5v10q34 -22 84.5 -35.5t97.5 -13.5
q70 0 117.5 28t47.5 82q0 39 -25.5 65.5t-63 37.5t-82 23.5t-82 24.5t-63 40.5t-25.5 70.5z" />
    <glyph glyph-name="t" unicode="t" horiz-adv-x="349" 
d="M102 640l10 5v-165h220v-10h-220v-340q0 -62 32.5 -95t95.5 -33q60 0 102 24v-10q-37 -24 -102 -24q-67 0 -102.5 35.5t-35.5 102.5v340h-90v10h90v160z" />
    <glyph glyph-name="u" unicode="u" 
d="M474 480h10v-480h-10v117q-31 -50 -85 -88.5t-127 -38.5q-79 0 -131 52.5t-52 142.5v295h10v-295q0 -86 49 -135.5t124 -49.5q74 0 128.5 41t83.5 96v343z" />
    <glyph glyph-name="v" unicode="v" horiz-adv-x="518" 
d="M483 480h11l-229 -480h-12l-229 480h11l224 -469z" />
    <glyph glyph-name="w" unicode="w" horiz-adv-x="798" 
d="M758 480h11l-190 -480h-8l-172 458l-172 -458h-8l-190 480h11l183 -463l170 453h12l170 -453z" />
    <glyph glyph-name="x" unicode="x" horiz-adv-x="481" 
d="M438 480h13l-204 -234l215 -246h-13l-209 239l-209 -239h-13l216 246l-205 234h13l198 -226z" />
    <glyph glyph-name="y" unicode="y" horiz-adv-x="528" 
d="M278 9l214 471h11l-259 -572q-34 -76 -70 -107t-84 -31q-22 0 -48 6v11q30 -7 48 -7q46 0 80 32t66 103l37 83l-254 482h11z" />
    <glyph glyph-name="z" unicode="z" horiz-adv-x="437" 
d="M42 480h354v-7l-353 -463h363v-10h-378v7l353 463h-339v10z" />
    <glyph glyph-name="braceleft" unicode="{" horiz-adv-x="244" 
d="M207 -100v-10q-86 -15 -86 85v265q0 50 -29 77.5t-66 27.5v10q37 0 66 27.5t29 77.5v265q0 101 86 85v-10q-43 7 -59.5 -11.5t-16.5 -63.5v-265q0 -45 -22 -73.5t-55 -36.5q33 -8 55 -36.5t22 -73.5v-265q0 -45 16.5 -63.5t59.5 -11.5z" />
    <glyph glyph-name="bar" unicode="|" horiz-adv-x="170" 
d="M90 -100h-10v910h10v-910z" />
    <glyph glyph-name="braceright" unicode="}" horiz-adv-x="243" 
d="M123 -25q0 -100 -86 -85v10q43 -7 59.5 11.5t16.5 63.5v265q0 45 22 73.5t55 36.5q-33 8 -55 36.5t-22 73.5v265q0 45 -16.5 63.5t-59.5 11.5v10q86 16 86 -85v-265q0 -50 29 -77.5t66 -27.5v-10q-37 0 -66 -27.5t-29 -77.5v-265z" />
    <glyph glyph-name="asciitilde" unicode="~" horiz-adv-x="574" 
d="M498 361q0 -32 -20.5 -53t-56.5 -21q-37 0 -132 37t-131 37q-32 0 -49.5 -18t-17.5 -46h-10q0 32 20.5 53t56.5 21q38 0 132.5 -37t130.5 -37q31 0 49 18t18 46h10z" />
    <glyph glyph-name="exclamdown" unicode="&#xa1;" horiz-adv-x="170" 
d="M90 -215h-10v540h10v-540zM100 475q0 -15 -15 -15q-6 0 -10.5 4.5t-4.5 10.5t4.5 10.5t10.5 4.5q15 0 15 -15z" />
    <glyph glyph-name="cent" unicode="&#xa2;" horiz-adv-x="513" 
d="M308 0q84 3 148 38v-10q-65 -36 -148 -38v-110h-10v110q-100 0 -171.5 63t-71.5 182q0 121 71.5 185.5t171.5 69.5v110h10v-110h4q82 0 139 -39v-10q-58 39 -139 39h-4v-480zM298 480q-97 -5 -165 -67t-68 -178q0 -114 68 -174.5t165 -60.5v480z" />
    <glyph glyph-name="sterling" unicode="&#xa3;" horiz-adv-x="613" 
d="M557 0h-520v10h30q39 0 62 26t23 75v224h-80v10h80v121q0 112 62.5 167.5t151.5 55.5q82 0 137 -39v-10q-61 39 -137 39q-87 0 -145.5 -52.5t-58.5 -160.5v-121h265v-10h-265v-224q0 -78 -52 -101h447v-10z" />
    <glyph glyph-name="currency" unicode="&#xa4;" horiz-adv-x="572" 
d="M158 211l-65 -65l-7 7l65 65q-56 53 -56 132t56 132l-65 65l7 7l65 -65q54 46 128 46t128 -46l65 65l7 -7l-65 -65q56 -53 56 -132t-56 -132l65 -65l-7 -7l-65 65q-54 -46 -128 -46t-128 46zM105 350q0 -77 54 -126t127 -49t127 49t54 126t-53.5 126t-127.5 49
t-127.5 -48.5t-53.5 -126.5z" />
    <glyph glyph-name="yen" unicode="&#xa5;" horiz-adv-x="610" 
d="M561 680h12l-257 -382h189v-10h-195v-108h195v-10h-195v-170h-10v170h-195v10h195v108h-195v10h189l-257 382h12l256 -380z" />
    <glyph glyph-name="brokenbar" unicode="&#xa6;" horiz-adv-x="190" 
d="M100 470h-10v340h10v-340zM100 -100h-10v340h10v-340z" />
    <glyph glyph-name="section" unicode="&#xa7;" horiz-adv-x="480" 
d="M413 80q0 -52 -48.5 -83t-118.5 -31q-104 0 -167 44v10q65 -44 167 -44q67 0 112 29t45 75q0 25 -9.5 44.5t-22.5 31.5t-37.5 23t-43 17t-49.5 14q-38 10 -53.5 14.5t-45.5 17t-43.5 24.5t-25 33t-11.5 48q0 50 34 84t77 49q-101 35 -101 114q0 53 45.5 84.5t111.5 31.5
q96 0 154 -39v-10q-64 39 -154 39q-63 0 -105 -29t-42 -77q0 -24 10.5 -43t22 -30t40.5 -22.5t42.5 -15.5t51.5 -14q7 -2 11 -3q38 -10 61 -18t49.5 -23t39.5 -38.5t13 -54.5q0 -91 -121 -129q53 -18 82 -46t29 -77zM243 220l42 -12q128 37 128 124q0 23 -9 41.5t-21.5 30.5
t-35.5 22.5t-41 16t-48 13.5q-52 13 -69 19q-42 -12 -79.5 -44.5t-37.5 -83.5q0 -20 5.5 -36.5t20.5 -29t26 -20.5t37 -17t38 -12.5t44 -11.5z" />
    <glyph glyph-name="dieresis" unicode="&#xa8;" horiz-adv-x="270" 
d="M250 835q0 -15 -15 -15q-6 0 -10.5 4.5t-4.5 10.5t4.5 10.5t10.5 4.5q15 0 15 -15zM50 835q0 -15 -15 -15q-6 0 -10.5 4.5t-4.5 10.5t4.5 10.5t10.5 4.5q15 0 15 -15z" />
    <glyph glyph-name="copyright" unicode="&#xa9;" horiz-adv-x="856" 
d="M798 350q0 -69 -22 -129t-58.5 -101.5t-84.5 -71.5t-100 -44t-105 -14t-105 14t-100 44t-84.5 71.5t-58.5 101.5t-22 129t22 129t58.5 101.5t84.5 71.5t100 44t105 14t105 -14t100 -44t84.5 -71.5t58.5 -101.5t22 -129zM571 184q-62 -34 -130 -34q-79 0 -136.5 49.5
t-57.5 142.5q0 102 61 155t144 53q68 0 119 -35v-10q-52 35 -119 35q-79 0 -137 -50.5t-58 -147.5q0 -88 54 -135t130 -47q70 0 130 34v-10zM68 350q0 -83 32 -151.5t84.5 -111t115.5 -65t128 -22.5t128 22.5t115.5 65t84.5 111t32 151.5t-32 151.5t-84.5 111t-115.5 65
t-128 22.5t-128 -22.5t-115.5 -65t-84.5 -111t-32 -151.5z" />
    <glyph glyph-name="guillemotleft" unicode="&#xab;" horiz-adv-x="396" 
d="M323 72h-12l-117 165v6l117 165h12l-119 -168zM183 72h-12l-117 165v6l117 165h12l-119 -168z" />
    <glyph glyph-name="logicalnot" unicode="&#xac;" horiz-adv-x="581" 
d="M505 310h-10v160h-410v10h420v-170z" />
    <glyph glyph-name="registered" unicode="&#xae;" horiz-adv-x="856" 
d="M798 350q0 -69 -22 -129t-58.5 -101.5t-84.5 -71.5t-100 -44t-105 -14t-105 14t-100 44t-84.5 71.5t-58.5 101.5t-22 129t22 129t58.5 101.5t84.5 71.5t100 44t105 14t105 -14t100 -44t84.5 -71.5t58.5 -101.5t22 -129zM68 350q0 -83 32 -151.5t84.5 -111t115.5 -65
t128 -22.5t128 22.5t115.5 65t84.5 111t32 151.5t-32 151.5t-84.5 111t-115.5 65t-128 22.5t-128 -22.5t-115.5 -65t-84.5 -111t-32 -151.5zM312 148h-10v395h146q22 0 44 -5t46 -17t38.5 -37.5t14.5 -61.5q0 -90 -95 -107l118 -167h-11l-116 165q-15 -2 -39 -2h-136v-163z
M312 533v-212h136q133 0 133 101q0 43 -24.5 70t-51.5 34t-57 7h-136z" />
    <glyph glyph-name="macron" unicode="&#xaf;" horiz-adv-x="280" 
d="M20 828h240v-10h-240v10z" />
    <glyph glyph-name="degree" unicode="&#xb0;" horiz-adv-x="388" 
d="M335 581q0 -63 -42 -101t-99 -38t-99 38t-42 101t42 101t99 38t99 -38t42 -101zM63 581q0 -58 39 -93.5t92 -35.5t92 35.5t39 93.5t-39 93.5t-92 35.5t-92 -35.5t-39 -93.5z" />
    <glyph glyph-name="plusminus" unicode="&#xb1;" horiz-adv-x="590" 
d="M300 560v-205h205v-10h-205v-205h-10v205h-205v10h205v205h10zM505 0h-420v10h420v-10z" />
    <glyph glyph-name="acute" unicode="&#xb4;" horiz-adv-x="160" 
d="M43 780h-13l87 130h13z" />
    <glyph glyph-name="paragraph" unicode="&#xb6;" horiz-adv-x="578" 
d="M259 -220h-10v520q-99 0 -155.5 53t-56.5 147t56.5 147t155.5 53h240v-920h-10v910h-220v-910z" />
    <glyph glyph-name="periodcentered" unicode="&#xb7;" horiz-adv-x="176" 
d="M103 239q0 -15 -15 -15t-15 15t15 15t15 -15z" />
    <glyph glyph-name="cedilla" unicode="&#xb8;" horiz-adv-x="209" 
d="M95 0h10l-26 -105q47 13 86.5 -1.5t40.5 -51.5q1 -32 -27 -52t-81 -20q-56 0 -98 23v10q42 -23 98 -23q50 0 74.5 17.5t23.5 44.5q-1 34 -41 45t-89 -4z" />
    <glyph glyph-name="guillemotright" unicode="&#xbb;" horiz-adv-x="396" 
d="M225 72h-12l119 168l-119 168h12l117 -165v-6zM85 72h-12l119 168l-119 168h12l117 -165v-6z" />
    <glyph glyph-name="onequarter" unicode="&#xbc;" horiz-adv-x="916" 
d="M776 408h11v-295h91v-9h-91v-104h-10v104h-244v8zM777 113v280l-230 -280h230zM198 -10h-13l455 720h13zM167 680h7v-398h81v-10h-198v10h107v386l-96 -36v10z" />
    <glyph glyph-name="onehalf" unicode="&#xbd;" horiz-adv-x="867" 
d="M195 -10h-13l455 720h13zM565 378q55 36 121 36q57 0 92.5 -26.5t35.5 -71.5q0 -25 -8.5 -45.5t-29 -38.5t-36 -28t-45.5 -28q-70 -42 -91 -62q-42 -42 -43 -104h259v-10h-270v8q0 29 9.5 53.5t18.5 39t34.5 34t34.5 25.5t42 25q32 19 44.5 27.5t33.5 26t29 36t8 41.5
q0 40 -32.5 64t-85.5 24q-63 0 -121 -36v10zM164 680h7v-398h81v-10h-198v10h107v386l-96 -36v10z" />
    <glyph glyph-name="threequarters" unicode="&#xbe;" horiz-adv-x="962" 
d="M275 -10h-13l455 720h13zM823 408h11v-295h91v-9h-91v-104h-10v104h-244v8zM824 113v280l-230 -280h230zM325 583q0 -34 -21.5 -60.5t-63.5 -34.5q45 -7 73.5 -33.5t28.5 -71.5q0 -53 -37 -83t-98 -30q-87 0 -142 26v10q59 -26 142 -26q57 0 91 27t34 76q0 50 -36 74.5
t-92 24.5h-59v10h58q56 0 84 26.5t28 64.5q0 41 -32 69t-87 28q-64 0 -124 -26v10q55 26 125 26q59 0 93.5 -31t34.5 -76z" />
    <glyph glyph-name="questiondown" unicode="&#xbf;" horiz-adv-x="475" 
d="M439 -168q-87 -57 -192 -57q-96 0 -153.5 42.5t-57.5 115.5q0 41 21 82t51 75.5t60 68t51 71t21 73.5h10q0 -37 -21 -76t-51 -72.5t-60 -67.5t-51 -74t-21 -80q0 -68 54 -108t147 -40q98 0 192 57v-10zM260 475q0 -6 -4.5 -10.5t-10.5 -4.5q-15 0 -15 15t15 15
q6 0 10.5 -4.5t4.5 -10.5z" />
    <glyph glyph-name="Agrave" unicode="&#xc0;" horiz-adv-x="702" 
d="M29 0h-11l326 700h14l326 -700h-11l-106 227h-432zM345 678l-206 -441h423l-205 441q-1 2 -3 6.5t-3 6.5q-1 -2 -3 -6.5t-3 -6.5zM376 780h-13l-87 130h13z" />
    <glyph glyph-name="Aacute" unicode="&#xc1;" horiz-adv-x="702" 
d="M29 0h-11l326 700h14l326 -700h-11l-106 227h-432zM345 678l-206 -441h423l-205 441q-1 2 -3 6.5t-3 6.5q-1 -2 -3 -6.5t-3 -6.5zM334 780h-13l87 130h13z" />
    <glyph glyph-name="Acircumflex" unicode="&#xc2;" horiz-adv-x="702" 
d="M29 0h-11l326 700h14l326 -700h-11l-106 227h-432zM345 678l-206 -441h423l-205 441q-1 2 -3 6.5t-3 6.5q-1 -2 -3 -6.5t-3 -6.5zM347 900h8l125 -120h-13l-116 111l-116 -111h-13z" />
    <glyph glyph-name="Atilde" unicode="&#xc3;" horiz-adv-x="702" 
d="M29 0h-11l326 700h14l326 -700h-11l-106 227h-432zM345 678l-206 -441h423l-205 441q-1 2 -3 6.5t-3 6.5q-1 -2 -3 -6.5t-3 -6.5zM489 859q3 -28 -10 -46t-41 -18q-26 0 -87 30t-86 30q-22 0 -33 -15t-8 -40h-10q-4 27 10.5 46t40.5 19t87 -30t86 -30q46 0 41 54h10z" />
    <glyph glyph-name="Adieresis" unicode="&#xc4;" horiz-adv-x="702" 
d="M29 0h-11l326 700h14l326 -700h-11l-106 227h-432zM345 678l-206 -441h423l-205 441q-1 2 -3 6.5t-3 6.5q-1 -2 -3 -6.5t-3 -6.5zM466 835q0 -15 -15 -15q-6 0 -10.5 4.5t-4.5 10.5t4.5 10.5t10.5 4.5q15 0 15 -15zM266 835q0 -15 -15 -15q-6 0 -10.5 4.5t-4.5 10.5
t4.5 10.5t10.5 4.5q15 0 15 -15z" />
    <glyph glyph-name="Aring" unicode="&#xc5;" horiz-adv-x="702" 
d="M29 0h-11l326 700h14l326 -700h-11l-106 227h-432zM345 678l-206 -441h423l-205 441q-1 2 -3 6.5t-3 6.5q-1 -2 -3 -6.5t-3 -6.5zM428 836q0 -33 -23 -54t-54 -21t-54 21t-23 54t23 54t54 21t54 -21t23 -54zM284 836q0 -29 20 -47t47 -18t47 18t20 47t-20 47t-47 18
t-47 -18t-20 -47z" />
    <glyph glyph-name="AE" unicode="&#xc6;" horiz-adv-x="993" 
d="M511 347v-337h417v-10h-427v227h-334l-164 -227h-13l506 700h426v-10h-411v-333h381v-10h-381zM174 237h327v452z" />
    <glyph glyph-name="Ccedilla" unicode="&#xc7;" horiz-adv-x="660" 
d="M617 50v-10q-83 -49 -199 -50l-24 -95q47 13 86.5 -1.5t40.5 -51.5q1 -32 -27 -52t-81 -20q-56 0 -98 23v10q42 -23 98 -23q50 0 74.5 17.5t23.5 44.5q-1 34 -41 45t-89 -4l27 107q-67 1 -128.5 23t-112.5 63t-81.5 109.5t-30.5 154.5q0 89 31 161t82.5 116.5t114.5 68.5
t129 24q111 0 195 -49v-10q-87 49 -195 49q-51 0 -101 -14t-94.5 -44t-78 -72t-53.5 -101.5t-20 -128.5q0 -84 30.5 -151t80.5 -107t111 -61t126 -21q113 0 204 50z" />
    <glyph glyph-name="Egrave" unicode="&#xc8;" horiz-adv-x="634" 
d="M108 700h451v-10h-441v-333h411v-10h-411v-337h451v-10h-461v700zM358 780h-13l-87 130h13z" />
    <glyph glyph-name="Eacute" unicode="&#xc9;" horiz-adv-x="634" 
d="M108 700h451v-10h-441v-333h411v-10h-411v-337h451v-10h-461v700zM316 780h-13l87 130h13z" />
    <glyph glyph-name="Ecircumflex" unicode="&#xca;" horiz-adv-x="634" 
d="M108 700h451v-10h-441v-333h411v-10h-411v-337h451v-10h-461v700zM329 900h8l125 -120h-13l-116 111l-116 -111h-13z" />
    <glyph glyph-name="Edieresis" unicode="&#xcb;" horiz-adv-x="634" 
d="M108 700h451v-10h-441v-333h411v-10h-411v-337h451v-10h-461v700zM448 835q0 -15 -15 -15q-6 0 -10.5 4.5t-4.5 10.5t4.5 10.5t10.5 4.5q15 0 15 -15zM248 835q0 -15 -15 -15q-6 0 -10.5 4.5t-4.5 10.5t4.5 10.5t10.5 4.5q15 0 15 -15z" />
    <glyph glyph-name="Igrave" unicode="&#xcc;" horiz-adv-x="226" 
d="M108 700h10v-700h-10v700zM138 780h-13l-87 130h13z" />
    <glyph glyph-name="Iacute" unicode="&#xcd;" horiz-adv-x="226" 
d="M108 700h10v-700h-10v700zM96 780h-13l87 130h13z" />
    <glyph glyph-name="Icircumflex" unicode="&#xce;" horiz-adv-x="226" 
d="M108 700h10v-700h-10v700zM109 900h8l125 -120h-13l-116 111l-116 -111h-13z" />
    <glyph glyph-name="Idieresis" unicode="&#xcf;" horiz-adv-x="226" 
d="M108 700h10v-700h-10v700zM228 835q0 -15 -15 -15q-6 0 -10.5 4.5t-4.5 10.5t4.5 10.5t10.5 4.5q15 0 15 -15zM28 835q0 -15 -15 -15q-6 0 -10.5 4.5t-4.5 10.5t4.5 10.5t10.5 4.5q15 0 15 -15z" />
    <glyph glyph-name="Eth" unicode="&#xd0;" horiz-adv-x="728" 
d="M108 700h191q183 0 278 -96t95 -254t-95 -254t-278 -96h-191v345h-80v10h80v345zM118 10h181q179 0 271 93t92 247t-92 247t-271 93h-181v-335h250v-10h-250v-335z" />
    <glyph glyph-name="Ntilde" unicode="&#xd1;" horiz-adv-x="766" 
d="M118 0h-10v700h7l533 -680v60v620h10v-700h-7l-533 681v-60v-621zM521 859q3 -28 -10 -46t-41 -18q-26 0 -87 30t-86 30q-22 0 -33 -15t-8 -40h-10q-4 27 10.5 46t40.5 19t87 -30t86 -30q46 0 41 54h10z" />
    <glyph glyph-name="Ograve" unicode="&#xd2;" horiz-adv-x="826" 
d="M53 350q0 66 23 129t66 115t113.5 84t157.5 32t157.5 -32t113.5 -84t66 -115t23 -129t-23 -129t-66 -115t-113.5 -84t-157.5 -32t-157.5 32t-113.5 84t-66 115t-23 129zM763 350q0 65 -22.5 126t-64.5 111.5t-110.5 81.5t-152.5 31t-152.5 -31t-110.5 -81.5t-64.5 -111.5
t-22.5 -126t22.5 -126t64.5 -111.5t110.5 -81.5t152.5 -31t152.5 31t110.5 81.5t64.5 111.5t22.5 126zM438 780h-13l-87 130h13z" />
    <glyph glyph-name="Oacute" unicode="&#xd3;" horiz-adv-x="826" 
d="M53 350q0 66 23 129t66 115t113.5 84t157.5 32t157.5 -32t113.5 -84t66 -115t23 -129t-23 -129t-66 -115t-113.5 -84t-157.5 -32t-157.5 32t-113.5 84t-66 115t-23 129zM763 350q0 65 -22.5 126t-64.5 111.5t-110.5 81.5t-152.5 31t-152.5 -31t-110.5 -81.5t-64.5 -111.5
t-22.5 -126t22.5 -126t64.5 -111.5t110.5 -81.5t152.5 -31t152.5 31t110.5 81.5t64.5 111.5t22.5 126zM396 780h-13l87 130h13z" />
    <glyph glyph-name="Ocircumflex" unicode="&#xd4;" horiz-adv-x="826" 
d="M53 350q0 66 23 129t66 115t113.5 84t157.5 32t157.5 -32t113.5 -84t66 -115t23 -129t-23 -129t-66 -115t-113.5 -84t-157.5 -32t-157.5 32t-113.5 84t-66 115t-23 129zM763 350q0 65 -22.5 126t-64.5 111.5t-110.5 81.5t-152.5 31t-152.5 -31t-110.5 -81.5t-64.5 -111.5
t-22.5 -126t22.5 -126t64.5 -111.5t110.5 -81.5t152.5 -31t152.5 31t110.5 81.5t64.5 111.5t22.5 126zM409 900h8l125 -120h-13l-116 111l-116 -111h-13z" />
    <glyph glyph-name="Otilde" unicode="&#xd5;" horiz-adv-x="826" 
d="M53 350q0 66 23 129t66 115t113.5 84t157.5 32t157.5 -32t113.5 -84t66 -115t23 -129t-23 -129t-66 -115t-113.5 -84t-157.5 -32t-157.5 32t-113.5 84t-66 115t-23 129zM763 350q0 65 -22.5 126t-64.5 111.5t-110.5 81.5t-152.5 31t-152.5 -31t-110.5 -81.5t-64.5 -111.5
t-22.5 -126t22.5 -126t64.5 -111.5t110.5 -81.5t152.5 -31t152.5 31t110.5 81.5t64.5 111.5t22.5 126zM551 859q3 -28 -10 -46t-41 -18q-26 0 -87 30t-86 30q-22 0 -33 -15t-8 -40h-10q-4 27 10.5 46t40.5 19t87 -30t86 -30q46 0 41 54h10z" />
    <glyph glyph-name="Odieresis" unicode="&#xd6;" horiz-adv-x="826" 
d="M53 350q0 66 23 129t66 115t113.5 84t157.5 32t157.5 -32t113.5 -84t66 -115t23 -129t-23 -129t-66 -115t-113.5 -84t-157.5 -32t-157.5 32t-113.5 84t-66 115t-23 129zM763 350q0 65 -22.5 126t-64.5 111.5t-110.5 81.5t-152.5 31t-152.5 -31t-110.5 -81.5t-64.5 -111.5
t-22.5 -126t22.5 -126t64.5 -111.5t110.5 -81.5t152.5 -31t152.5 31t110.5 81.5t64.5 111.5t22.5 126zM528 835q0 -15 -15 -15q-6 0 -10.5 4.5t-4.5 10.5t4.5 10.5t10.5 4.5q15 0 15 -15zM328 835q0 -15 -15 -15q-6 0 -10.5 4.5t-4.5 10.5t4.5 10.5t10.5 4.5q15 0 15 -15z
" />
    <glyph glyph-name="multiply" unicode="&#xd7;" horiz-adv-x="435" 
d="M218 343l-137 -137l-7 8l136 136l-136 136l7 8l137 -136l136 136l7 -8l-136 -136l136 -136l-7 -8z" />
    <glyph glyph-name="Oslash" unicode="&#xd8;" horiz-adv-x="826" 
d="M715 748l-79 -109q66 -52 101.5 -129.5t35.5 -159.5q0 -66 -23 -129t-66 -115t-113.5 -84t-157.5 -32q-117 0 -206 59l-71 -97h-12l75 103q-71 51 -108.5 130.5t-37.5 164.5q0 66 23 129t66 115t113.5 84t157.5 32q124 0 215 -65l75 103h12zM413 700q-84 0 -152.5 -31
t-110.5 -81.5t-64.5 -111.5t-22.5 -126q0 -84 36.5 -161t105.5 -126l417 574q-87 63 -209 63zM213 57q85 -57 200 -57q84 0 152.5 31t110.5 81.5t64.5 111.5t22.5 126q0 81 -34 156.5t-99 124.5z" />
    <glyph glyph-name="Ugrave" unicode="&#xd9;" horiz-adv-x="748" 
d="M639 700h10v-463q0 -130 -74 -188.5t-201 -58.5t-201 58.5t-74 188.5v463h10v-463q0 -237 265 -237t265 237v463zM404 780h-13l-87 130h13z" />
    <glyph glyph-name="Uacute" unicode="&#xda;" horiz-adv-x="748" 
d="M639 700h10v-463q0 -130 -74 -188.5t-201 -58.5t-201 58.5t-74 188.5v463h10v-463q0 -237 265 -237t265 237v463zM362 780h-13l87 130h13z" />
    <glyph glyph-name="Ucircumflex" unicode="&#xdb;" horiz-adv-x="748" 
d="M639 700h10v-463q0 -130 -74 -188.5t-201 -58.5t-201 58.5t-74 188.5v463h10v-463q0 -237 265 -237t265 237v463zM375 900h8l125 -120h-13l-116 111l-116 -111h-13z" />
    <glyph glyph-name="Udieresis" unicode="&#xdc;" horiz-adv-x="748" 
d="M639 700h10v-463q0 -130 -74 -188.5t-201 -58.5t-201 58.5t-74 188.5v463h10v-463q0 -237 265 -237t265 237v463zM494 835q0 -15 -15 -15q-6 0 -10.5 4.5t-4.5 10.5t4.5 10.5t10.5 4.5q15 0 15 -15zM294 835q0 -15 -15 -15q-6 0 -10.5 4.5t-4.5 10.5t4.5 10.5t10.5 4.5
q15 0 15 -15z" />
    <glyph glyph-name="Yacute" unicode="&#xdd;" horiz-adv-x="616" 
d="M313 0h-10v289l-276 411h12l269 -400l269 400h12l-276 -411v-289zM292 780h-13l87 130h13z" />
    <glyph glyph-name="Thorn" unicode="&#xde;" horiz-adv-x="647" 
d="M118 565h202q290 0 290 -215t-290 -215h-202v-135h-10v700h10v-135zM118 145h202q280 0 280 205t-280 205h-202v-410z" />
    <glyph glyph-name="germandbls" unicode="&#xdf;" horiz-adv-x="586" 
d="M546 151q0 -80 -57.5 -120.5t-145.5 -40.5q-80 0 -132 34v10q55 -34 132 -34q84 0 138.5 38t54.5 113q0 34 -16.5 65t-40 54t-47.5 44t-40.5 43.5t-16.5 43.5q0 27 20.5 51.5t41 52.5t20.5 64q0 50 -45 90.5t-119 40.5q-87 0 -142 -51.5t-55 -142.5v-506h-10v506
q0 95 58 149.5t149 54.5q78 0 126 -43t48 -98q0 -30 -13 -55.5t-28 -39.5t-28 -33.5t-13 -39.5q0 -19 16.5 -40t40.5 -42t47.5 -45t40 -56t16.5 -67z" />
    <glyph glyph-name="agrave" unicode="&#xe0;" horiz-adv-x="537" 
d="M439 62q0 -52 55 -52q20 0 37 7v-10q-19 -7 -37 -7q-27 0 -46 15t-19 47v59q-32 -62 -93.5 -96.5t-132.5 -34.5q-66 0 -114 35t-48 100q0 75 58.5 111.5t144.5 36.5q91 0 185 -33v61q0 83 -47 131t-136 48q-88 0 -168 -28v10q78 28 168 28q93 0 143 -51t50 -138v-239z
M51 125q0 -60 44.5 -92.5t107.5 -32.5q72 0 133 36t93 104v89q-95 34 -185 34q-82 0 -137.5 -33.5t-55.5 -104.5zM277 560h-13l-87 130h13z" />
    <glyph glyph-name="aacute" unicode="&#xe1;" horiz-adv-x="537" 
d="M439 62q0 -52 55 -52q20 0 37 7v-10q-19 -7 -37 -7q-27 0 -46 15t-19 47v59q-32 -62 -93.5 -96.5t-132.5 -34.5q-66 0 -114 35t-48 100q0 75 58.5 111.5t144.5 36.5q91 0 185 -33v61q0 83 -47 131t-136 48q-88 0 -168 -28v10q78 28 168 28q93 0 143 -51t50 -138v-239z
M51 125q0 -60 44.5 -92.5t107.5 -32.5q72 0 133 36t93 104v89q-95 34 -185 34q-82 0 -137.5 -33.5t-55.5 -104.5zM235 560h-13l87 130h13z" />
    <glyph glyph-name="acircumflex" unicode="&#xe2;" horiz-adv-x="537" 
d="M439 62q0 -52 55 -52q20 0 37 7v-10q-19 -7 -37 -7q-27 0 -46 15t-19 47v59q-32 -62 -93.5 -96.5t-132.5 -34.5q-66 0 -114 35t-48 100q0 75 58.5 111.5t144.5 36.5q91 0 185 -33v61q0 83 -47 131t-136 48q-88 0 -168 -28v10q78 28 168 28q93 0 143 -51t50 -138v-239z
M51 125q0 -60 44.5 -92.5t107.5 -32.5q72 0 133 36t93 104v89q-95 34 -185 34q-82 0 -137.5 -33.5t-55.5 -104.5zM248 680h8l125 -120h-13l-116 111l-116 -111h-13z" />
    <glyph glyph-name="atilde" unicode="&#xe3;" horiz-adv-x="537" 
d="M439 62q0 -52 55 -52q20 0 37 7v-10q-19 -7 -37 -7q-27 0 -46 15t-19 47v59q-32 -62 -93.5 -96.5t-132.5 -34.5q-66 0 -114 35t-48 100q0 75 58.5 111.5t144.5 36.5q91 0 185 -33v61q0 83 -47 131t-136 48q-88 0 -168 -28v10q78 28 168 28q93 0 143 -51t50 -138v-239z
M51 125q0 -60 44.5 -92.5t107.5 -32.5q72 0 133 36t93 104v89q-95 34 -185 34q-82 0 -137.5 -33.5t-55.5 -104.5zM390 639q3 -28 -10 -46t-41 -18q-26 0 -87 30t-86 30q-22 0 -33 -15t-8 -40h-10q-4 27 10.5 46t40.5 19t87 -30t86 -30q46 0 41 54h10z" />
    <glyph glyph-name="adieresis" unicode="&#xe4;" horiz-adv-x="537" 
d="M439 62q0 -52 55 -52q20 0 37 7v-10q-19 -7 -37 -7q-27 0 -46 15t-19 47v59q-32 -62 -93.5 -96.5t-132.5 -34.5q-66 0 -114 35t-48 100q0 75 58.5 111.5t144.5 36.5q91 0 185 -33v61q0 83 -47 131t-136 48q-88 0 -168 -28v10q78 28 168 28q93 0 143 -51t50 -138v-239z
M51 125q0 -60 44.5 -92.5t107.5 -32.5q72 0 133 36t93 104v89q-95 34 -185 34q-82 0 -137.5 -33.5t-55.5 -104.5zM367 615q0 -15 -15 -15q-6 0 -10.5 4.5t-4.5 10.5t4.5 10.5t10.5 4.5q15 0 15 -15zM167 615q0 -15 -15 -15q-6 0 -10.5 4.5t-4.5 10.5t4.5 10.5t10.5 4.5
q15 0 15 -15z" />
    <glyph glyph-name="aring" unicode="&#xe5;" horiz-adv-x="537" 
d="M439 62q0 -52 55 -52q20 0 37 7v-10q-19 -7 -37 -7q-27 0 -46 15t-19 47v59q-32 -62 -93.5 -96.5t-132.5 -34.5q-66 0 -114 35t-48 100q0 75 58.5 111.5t144.5 36.5q91 0 185 -33v61q0 83 -47 131t-136 48q-88 0 -168 -28v10q78 28 168 28q93 0 143 -51t50 -138v-239z
M51 125q0 -60 44.5 -92.5t107.5 -32.5q72 0 133 36t93 104v89q-95 34 -185 34q-82 0 -137.5 -33.5t-55.5 -104.5zM329 616q0 -33 -23 -54t-54 -21t-54 21t-23 54t23 54t54 21t54 -21t23 -54zM185 616q0 -29 20 -47t47 -18t47 18t20 47t-20 47t-47 18t-47 -18t-20 -47z" />
    <glyph glyph-name="ae" unicode="&#xe6;" horiz-adv-x="904" 
d="M451 125q-41 -65 -107.5 -100t-140.5 -35q-66 0 -114 35t-48 100q0 75 58.5 111.5t144.5 36.5q94 0 186 -34v62q0 82 -46.5 130.5t-137.5 48.5q-88 0 -168 -28v10q78 28 168 28q91 0 140.5 -47.5t53.5 -128.5q19 82 80.5 129t136.5 47q76 0 125.5 -42.5t65 -101
t5.5 -120.5h-413q2 -111 72.5 -168.5t166.5 -57.5q82 0 145 37v-10q-63 -37 -145 -37q-73 0 -135.5 34t-92.5 101zM51 125q0 -60 44.5 -92.5t107.5 -32.5q72 0 137 34.5t107 100.5q-15 39 -17 94q-95 34 -186 34q-82 0 -137.5 -33.5t-55.5 -104.5zM657 480q-89 0 -152.5 -65
t-64.5 -179h405q6 61 -9.5 114.5t-62 91.5t-116.5 38z" />
    <glyph glyph-name="ccedilla" unicode="&#xe7;" horiz-adv-x="495" 
d="M452 38v-10q-66 -36 -153 -38l-24 -95q47 13 86.5 -1.5t40.5 -51.5q1 -32 -27 -52t-81 -20q-56 0 -98 23v10q42 -23 98 -23q50 0 74.5 17.5t23.5 44.5q-1 34 -41 45t-89 -4l27 107q-99 2 -168.5 65t-69.5 180q0 65 22.5 115.5t60 80t82 44.5t92.5 15q82 0 139 -39v-10
q-58 39 -139 39q-101 0 -174 -62.5t-73 -182.5q0 -114 68 -174.5t165 -60.5q89 0 158 38z" />
    <glyph glyph-name="egrave" unicode="&#xe8;" horiz-adv-x="545" 
d="M51 240q0 114 68.5 182t164.5 68q62 0 108.5 -25t69 -64.5t31 -83.5t2.5 -86h-434q2 -116 73.5 -173.5t176.5 -57.5q92 0 155 37v-10q-63 -37 -155 -37q-111 0 -185.5 62.5t-74.5 187.5zM487 241q4 41 -5 81.5t-31.5 76.5t-65.5 58.5t-101 22.5q-92 0 -157 -64t-66 -175
h426zM307 560h-13l-87 130h13z" />
    <glyph glyph-name="eacute" unicode="&#xe9;" horiz-adv-x="545" 
d="M51 240q0 114 68.5 182t164.5 68q62 0 108.5 -25t69 -64.5t31 -83.5t2.5 -86h-434q2 -116 73.5 -173.5t176.5 -57.5q92 0 155 37v-10q-63 -37 -155 -37q-111 0 -185.5 62.5t-74.5 187.5zM487 241q4 41 -5 81.5t-31.5 76.5t-65.5 58.5t-101 22.5q-92 0 -157 -64t-66 -175
h426zM265 560h-13l87 130h13z" />
    <glyph glyph-name="ecircumflex" unicode="&#xea;" horiz-adv-x="545" 
d="M51 240q0 114 68.5 182t164.5 68q62 0 108.5 -25t69 -64.5t31 -83.5t2.5 -86h-434q2 -116 73.5 -173.5t176.5 -57.5q92 0 155 37v-10q-63 -37 -155 -37q-111 0 -185.5 62.5t-74.5 187.5zM487 241q4 41 -5 81.5t-31.5 76.5t-65.5 58.5t-101 22.5q-92 0 -157 -64t-66 -175
h426zM278 680h8l125 -120h-13l-116 111l-116 -111h-13z" />
    <glyph glyph-name="edieresis" unicode="&#xeb;" horiz-adv-x="545" 
d="M51 240q0 114 68.5 182t164.5 68q62 0 108.5 -25t69 -64.5t31 -83.5t2.5 -86h-434q2 -116 73.5 -173.5t176.5 -57.5q92 0 155 37v-10q-63 -37 -155 -37q-111 0 -185.5 62.5t-74.5 187.5zM487 241q4 41 -5 81.5t-31.5 76.5t-65.5 58.5t-101 22.5q-92 0 -157 -64t-66 -175
h426zM397 615q0 -15 -15 -15q-6 0 -10.5 4.5t-4.5 10.5t4.5 10.5t10.5 4.5q15 0 15 -15zM197 615q0 -15 -15 -15q-6 0 -10.5 4.5t-4.5 10.5t4.5 10.5t10.5 4.5q15 0 15 -15z" />
    <glyph glyph-name="igrave" unicode="&#xec;" horiz-adv-x="190" 
d="M100 0h-10v480h10v-480zM132 560h-11l-87 130h11z" />
    <glyph glyph-name="iacute" unicode="&#xed;" horiz-adv-x="190" 
d="M90 480h10v-480h-10v480zM78 560h-13l87 130h13z" />
    <glyph glyph-name="icircumflex" unicode="&#xee;" horiz-adv-x="190" 
d="M91 670h8l95 -110h-12l-87 101l-87 -101h-12zM90 480h10v-480h-10v480z" />
    <glyph glyph-name="idieresis" unicode="&#xef;" horiz-adv-x="190" 
d="M180 615q0 -15 -15 -15q-6 0 -10.5 4.5t-4.5 10.5t4.5 10.5t10.5 4.5q15 0 15 -15zM40 615q0 -15 -15 -15q-6 0 -10.5 4.5t-4.5 10.5t4.5 10.5t10.5 4.5q15 0 15 -15zM90 480h10v-480h-10v480z" />
    <glyph glyph-name="eth" unicode="&#xf0;" horiz-adv-x="596" 
d="M536 265q0 -123 -67 -199t-178 -76q-106 0 -173 64t-67 171q0 98 68.5 161.5t165.5 63.5q55 0 104.5 -21.5t88 -70.5t47.5 -118q1 8 1 25q0 87 -22 157t-60.5 116t-81 75.5t-93.5 47.5l-126 -126l-7 7l122 122q-77 26 -157 26v10q84 0 165 -28l84 84l7 -7l-81 -81
q41 -15 76.5 -36.5t70.5 -55.5t59 -77t39 -103t15 -131zM61 225q0 -103 64.5 -164t165.5 -61q90 0 151 53t78 145q-1 80 -37.5 136.5t-87.5 81t-110 24.5q-93 0 -158.5 -60.5t-65.5 -154.5z" />
    <glyph glyph-name="ntilde" unicode="&#xf1;" 
d="M96 363q31 50 85 88.5t127 38.5q79 0 131 -52.5t52 -142.5v-295h-10v295q0 86 -49 135.5t-124 49.5q-74 0 -128.5 -41t-83.5 -96v-343h-10v480h10v-117zM419 639q3 -28 -10 -46t-41 -18q-26 0 -87 30t-86 30q-22 0 -33 -15t-8 -40h-10q-4 27 10.5 46t40.5 19t87 -30
t86 -30q46 0 41 54h10z" />
    <glyph glyph-name="ograve" unicode="&#xf2;" horiz-adv-x="592" 
d="M51 240q0 115 71.5 182.5t173.5 67.5t173.5 -67.5t71.5 -182.5t-71.5 -182.5t-173.5 -67.5t-173.5 67.5t-71.5 182.5zM531 240q0 110 -68.5 175t-166.5 65t-166.5 -65t-68.5 -175t68.5 -175t166.5 -65t166.5 65t68.5 175zM321 550h-13l-87 130h13z" />
    <glyph glyph-name="oacute" unicode="&#xf3;" horiz-adv-x="592" 
d="M51 240q0 115 71.5 182.5t173.5 67.5t173.5 -67.5t71.5 -182.5t-71.5 -182.5t-173.5 -67.5t-173.5 67.5t-71.5 182.5zM531 240q0 110 -68.5 175t-166.5 65t-166.5 -65t-68.5 -175t68.5 -175t166.5 -65t166.5 65t68.5 175zM279 550h-13l87 130h13z" />
    <glyph glyph-name="ocircumflex" unicode="&#xf4;" horiz-adv-x="592" 
d="M51 240q0 115 71.5 182.5t173.5 67.5t173.5 -67.5t71.5 -182.5t-71.5 -182.5t-173.5 -67.5t-173.5 67.5t-71.5 182.5zM531 240q0 110 -68.5 175t-166.5 65t-166.5 -65t-68.5 -175t68.5 -175t166.5 -65t166.5 65t68.5 175zM292 670h8l125 -120h-13l-116 111l-116 -111h-13
z" />
    <glyph glyph-name="otilde" unicode="&#xf5;" horiz-adv-x="592" 
d="M51 240q0 115 71.5 182.5t173.5 67.5t173.5 -67.5t71.5 -182.5t-71.5 -182.5t-173.5 -67.5t-173.5 67.5t-71.5 182.5zM531 240q0 110 -68.5 175t-166.5 65t-166.5 -65t-68.5 -175t68.5 -175t166.5 -65t166.5 65t68.5 175zM434 629q3 -28 -10 -46t-41 -18q-26 0 -87 30
t-86 30q-22 0 -33 -15t-8 -40h-10q-4 27 10.5 46t40.5 19t87 -30t86 -30q46 0 41 54h10z" />
    <glyph glyph-name="odieresis" unicode="&#xf6;" horiz-adv-x="592" 
d="M51 240q0 115 71.5 182.5t173.5 67.5t173.5 -67.5t71.5 -182.5t-71.5 -182.5t-173.5 -67.5t-173.5 67.5t-71.5 182.5zM531 240q0 110 -68.5 175t-166.5 65t-166.5 -65t-68.5 -175t68.5 -175t166.5 -65t166.5 65t68.5 175zM411 605q0 -15 -15 -15q-6 0 -10.5 4.5
t-4.5 10.5t4.5 10.5t10.5 4.5q15 0 15 -15zM211 605q0 -15 -15 -15q-6 0 -10.5 4.5t-4.5 10.5t4.5 10.5t10.5 4.5q15 0 15 -15z" />
    <glyph glyph-name="divide" unicode="&#xf7;" horiz-adv-x="646" 
d="M563 345h-480v10h480v-10zM338 125q0 -15 -15 -15q-6 0 -10.5 4.5t-4.5 10.5t4.5 10.5t10.5 4.5q15 0 15 -15zM338 572q0 -15 -15 -15q-6 0 -10.5 4.5t-4.5 10.5t4.5 10.5t10.5 4.5q15 0 15 -15z" />
    <glyph glyph-name="oslash" unicode="&#xf8;" horiz-adv-x="592" 
d="M491 543l-58 -92q108 -69 108 -211q0 -115 -71.5 -182.5t-173.5 -67.5q-74 0 -132 36l-52 -83h-11l55 88q-105 69 -105 209q0 115 71.5 182.5t173.5 67.5q70 0 129 -34l55 87h11zM296 480q-98 0 -166.5 -65t-68.5 -175q0 -134 101 -201l258 409q-56 32 -124 32zM170 34
q57 -34 126 -34q98 0 166.5 65t68.5 175q0 135 -103 203z" />
    <glyph glyph-name="ugrave" unicode="&#xf9;" 
d="M474 480h10v-480h-10v117q-31 -50 -85 -88.5t-127 -38.5q-79 0 -131 52.5t-52 142.5v295h10v-295q0 -86 49 -135.5t124 -49.5q74 0 128.5 41t83.5 96v343zM315 560h-13l-87 130h13z" />
    <glyph glyph-name="uacute" unicode="&#xfa;" 
d="M474 480h10v-480h-10v117q-31 -50 -85 -88.5t-127 -38.5q-79 0 -131 52.5t-52 142.5v295h10v-295q0 -86 49 -135.5t124 -49.5q74 0 128.5 41t83.5 96v343zM273 560h-13l87 130h13z" />
    <glyph glyph-name="ucircumflex" unicode="&#xfb;" 
d="M474 480h10v-480h-10v117q-31 -50 -85 -88.5t-127 -38.5q-79 0 -131 52.5t-52 142.5v295h10v-295q0 -86 49 -135.5t124 -49.5q74 0 128.5 41t83.5 96v343zM286 680h8l125 -120h-13l-116 111l-116 -111h-13z" />
    <glyph glyph-name="udieresis" unicode="&#xfc;" 
d="M474 480h10v-480h-10v117q-31 -50 -85 -88.5t-127 -38.5q-79 0 -131 52.5t-52 142.5v295h10v-295q0 -86 49 -135.5t124 -49.5q74 0 128.5 41t83.5 96v343zM405 615q0 -15 -15 -15q-6 0 -10.5 4.5t-4.5 10.5t4.5 10.5t10.5 4.5q15 0 15 -15zM205 615q0 -15 -15 -15
q-6 0 -10.5 4.5t-4.5 10.5t4.5 10.5t10.5 4.5q15 0 15 -15z" />
    <glyph glyph-name="yacute" unicode="&#xfd;" horiz-adv-x="528" 
d="M278 9l214 471h11l-259 -572q-34 -76 -70 -107t-84 -31q-22 0 -48 6v11q30 -7 48 -7q46 0 80 32t66 103l37 83l-254 482h11zM241 560h-13l87 130h13z" />
    <glyph glyph-name="thorn" unicode="&#xfe;" horiz-adv-x="611" 
d="M86 700h10v-356q29 64 90 105t136 41q104 0 171 -67.5t67 -182.5t-67 -182.5t-171 -67.5q-75 0 -136 41t-90 105v-356h-10v920zM550 240q0 110 -64 175t-164 65q-79 0 -140.5 -46.5t-85.5 -117.5v-152q24 -71 85.5 -117.5t140.5 -46.5q100 0 164 64.5t64 175.5z" />
    <glyph glyph-name="ydieresis" unicode="&#xff;" horiz-adv-x="528" 
d="M278 9l214 471h11l-259 -572q-34 -76 -70 -107t-84 -31q-22 0 -48 6v11q30 -7 48 -7q46 0 80 32t66 103l37 83l-254 482h11zM373 615q0 -15 -15 -15q-6 0 -10.5 4.5t-4.5 10.5t4.5 10.5t10.5 4.5q15 0 15 -15zM173 615q0 -15 -15 -15q-6 0 -10.5 4.5t-4.5 10.5t4.5 10.5
t10.5 4.5q15 0 15 -15z" />
    <glyph glyph-name="Amacron" unicode="&#x100;" horiz-adv-x="702" 
d="M29 0h-11l326 700h14l326 -700h-11l-106 227h-432zM345 678l-206 -441h423l-205 441q-1 2 -3 6.5t-3 6.5q-1 -2 -3 -6.5t-3 -6.5zM231 828h240v-10h-240v10z" />
    <glyph glyph-name="amacron" unicode="&#x101;" horiz-adv-x="537" 
d="M439 62q0 -52 55 -52q20 0 37 7v-10q-19 -7 -37 -7q-27 0 -46 15t-19 47v59q-32 -62 -93.5 -96.5t-132.5 -34.5q-66 0 -114 35t-48 100q0 75 58.5 111.5t144.5 36.5q91 0 185 -33v61q0 83 -47 131t-136 48q-88 0 -168 -28v10q78 28 168 28q93 0 143 -51t50 -138v-239z
M51 125q0 -60 44.5 -92.5t107.5 -32.5q72 0 133 36t93 104v89q-95 34 -185 34q-82 0 -137.5 -33.5t-55.5 -104.5zM132 608h240v-10h-240v10z" />
    <glyph glyph-name="Abreve" unicode="&#x102;" horiz-adv-x="702" 
d="M29 0h-11l326 700h14l326 -700h-11l-106 227h-432zM345 678l-206 -441h423l-205 441q-1 2 -3 6.5t-3 6.5q-1 -2 -3 -6.5t-3 -6.5zM471 826q-46 -41 -120 -41t-120 41v13q48 -44 120 -44t120 44v-13z" />
    <glyph glyph-name="abreve" unicode="&#x103;" horiz-adv-x="537" 
d="M439 62q0 -52 55 -52q20 0 37 7v-10q-19 -7 -37 -7q-27 0 -46 15t-19 47v59q-32 -62 -93.5 -96.5t-132.5 -34.5q-66 0 -114 35t-48 100q0 75 58.5 111.5t144.5 36.5q91 0 185 -33v61q0 83 -47 131t-136 48q-88 0 -168 -28v10q78 28 168 28q93 0 143 -51t50 -138v-239z
M51 125q0 -60 44.5 -92.5t107.5 -32.5q72 0 133 36t93 104v89q-95 34 -185 34q-82 0 -137.5 -33.5t-55.5 -104.5zM372 606q-46 -41 -120 -41t-120 41v13q48 -44 120 -44t120 44v-13z" />
    <glyph glyph-name="Aogonek" unicode="&#x104;" horiz-adv-x="702" 
d="M555 -155q0 -30 19.5 -47.5t54.5 -17.5q38 0 76 19v-10q-35 -19 -76 -19q-39 0 -61.5 20t-22.5 55q0 71 127 157l-105 225h-432l-106 -227h-11l326 700h14l326 -700q-129 -89 -129 -155zM345 678l-206 -441h424l-206 441q-1 2 -3 6.5t-3 6.5q-1 -2 -3 -6.5t-3 -6.5z" />
    <glyph glyph-name="aogonek" unicode="&#x105;" horiz-adv-x="537" 
d="M203 0q72 0 133 36t93 104v89q-95 34 -185 34q-82 0 -137.5 -33.5t-55.5 -104.5q0 -60 44.5 -92.5t107.5 -32.5zM529 -204v-10q-24 -9 -53 -9q-39 0 -61.5 20t-22.5 55q0 70 115 149q-4 -1 -13 -1q-27 0 -46 15t-19 47v59q-32 -62 -93.5 -96.5t-132.5 -34.5
q-66 0 -114 35t-48 100q0 75 58.5 111.5t144.5 36.5q91 0 185 -33v61q0 83 -47 131t-136 48q-88 0 -168 -28v10q78 28 168 28q93 0 143 -51t50 -138v-239q0 -52 55 -52q20 0 37 7v-10q-129 -89 -129 -155q0 -30 19.5 -47.5t54.5 -17.5q28 0 53 9z" />
    <glyph glyph-name="Cacute" unicode="&#x106;" horiz-adv-x="660" 
d="M55 340q0 89 31 161t82.5 116.5t114.5 68.5t129 24q111 0 195 -49v-10q-87 49 -195 49q-51 0 -101 -14t-94.5 -44t-78 -72t-53.5 -101.5t-20 -128.5q0 -84 30.5 -151t80.5 -107t111 -61t126 -21q113 0 204 50v-10q-84 -50 -204 -50q-67 0 -129.5 21.5t-114 63t-83 110.5
t-31.5 155zM388 780h-13l87 130h13z" />
    <glyph glyph-name="cacute" unicode="&#x107;" horiz-adv-x="495" 
d="M51 235q0 65 22.5 115.5t60 80t82 44.5t92.5 15q82 0 139 -39v-10q-58 39 -139 39q-101 0 -174 -62.5t-73 -182.5q0 -114 68 -174.5t165 -60.5q89 0 158 38v-10q-68 -38 -158 -38q-100 0 -171.5 63t-71.5 182zM275 560h-13l87 130h13z" />
    <glyph glyph-name="Cdotaccent" unicode="&#x10a;" horiz-adv-x="660" 
d="M55 340q0 89 31 161t82.5 116.5t114.5 68.5t129 24q111 0 195 -49v-10q-87 49 -195 49q-51 0 -101 -14t-94.5 -44t-78 -72t-53.5 -101.5t-20 -128.5q0 -84 30.5 -151t80.5 -107t111 -61t126 -21q113 0 204 50v-10q-84 -50 -204 -50q-67 0 -129.5 21.5t-114 63t-83 110.5
t-31.5 155zM385 815q0 8 6 14t14 6t14 -6t6 -14t-6 -14t-14 -6t-14 6t-6 14z" />
    <glyph glyph-name="cdotaccent" unicode="&#x10b;" horiz-adv-x="495" 
d="M51 235q0 65 22.5 115.5t60 80t82 44.5t92.5 15q82 0 139 -39v-10q-58 39 -139 39q-101 0 -174 -62.5t-73 -182.5q0 -114 68 -174.5t165 -60.5q89 0 158 38v-10q-68 -38 -158 -38q-100 0 -171.5 63t-71.5 182zM272 595q0 8 6 14t14 6t14 -6t6 -14t-6 -14t-14 -6t-14 6
t-6 14z" />
    <glyph glyph-name="Ccaron" unicode="&#x10c;" horiz-adv-x="660" 
d="M55 340q0 89 31 161t82.5 116.5t114.5 68.5t129 24q111 0 195 -49v-10q-87 49 -195 49q-51 0 -101 -14t-94.5 -44t-78 -72t-53.5 -101.5t-20 -128.5q0 -84 30.5 -151t80.5 -107t111 -61t126 -21q113 0 204 50v-10q-84 -50 -204 -50q-67 0 -129.5 21.5t-114 63t-83 110.5
t-31.5 155zM534 890l-125 -120h-8l-125 120h13l116 -111l116 111h13z" />
    <glyph glyph-name="ccaron" unicode="&#x10d;" horiz-adv-x="495" 
d="M51 235q0 65 22.5 115.5t60 80t82 44.5t92.5 15q82 0 139 -39v-10q-58 39 -139 39q-101 0 -174 -62.5t-73 -182.5q0 -114 68 -174.5t165 -60.5q89 0 158 38v-10q-68 -38 -158 -38q-100 0 -171.5 63t-71.5 182zM421 670l-125 -120h-8l-125 120h13l116 -111l116 111h13z
" />
    <glyph glyph-name="Dcaron" unicode="&#x10e;" horiz-adv-x="728" 
d="M108 700h191q183 0 278 -96t95 -254t-95 -254t-278 -96h-191v700zM662 350q0 154 -92 247t-271 93h-181v-680h181q179 0 271 93t92 247zM474 890l-125 -120h-8l-125 120h13l116 -111l116 111h13z" />
    <glyph glyph-name="dcaron" unicode="&#x10f;" horiz-adv-x="611" 
d="M611 700h9l-19 -149h-8zM515 700h10v-700h-10v136q-29 -64 -90 -105t-136 -41q-104 0 -171 67.5t-67 182.5t67 182.5t171 67.5q75 0 136 -41t90 -105v356zM515 316q-24 71 -85.5 117.5t-140.5 46.5q-100 0 -164 -64.5t-64 -175.5q0 -110 64 -175t164 -65q79 0 140.5 46.5
t85.5 117.5v152z" />
    <glyph glyph-name="Dcroat" unicode="&#x110;" horiz-adv-x="728" 
d="M108 700h191q183 0 278 -96t95 -254t-95 -254t-278 -96h-191v345h-80v10h80v345zM118 10h181q179 0 271 93t92 247t-92 247t-271 93h-181v-335h250v-10h-250v-335z" />
    <glyph glyph-name="dcroat" unicode="&#x111;" horiz-adv-x="611" 
d="M525 608h80v-10h-80v-598h-10v136q-29 -64 -90 -105t-136 -41q-104 0 -171 67.5t-67 182.5t67 182.5t171 67.5q75 0 136 -41t90 -105v254h-210v10h210v92h10v-92zM289 0q79 0 140.5 46.5t85.5 117.5v152q-24 71 -85.5 117.5t-140.5 46.5q-100 0 -164 -64.5t-64 -175.5
q0 -110 64 -175t164 -65z" />
    <glyph glyph-name="Emacron" unicode="&#x112;" horiz-adv-x="634" 
d="M108 700h451v-10h-441v-333h411v-10h-411v-337h451v-10h-461v700zM213 828h240v-10h-240v10z" />
    <glyph glyph-name="emacron" unicode="&#x113;" horiz-adv-x="545" 
d="M51 240q0 114 68.5 182t164.5 68q62 0 108.5 -25t69 -64.5t31 -83.5t2.5 -86h-434q2 -116 73.5 -173.5t176.5 -57.5q92 0 155 37v-10q-63 -37 -155 -37q-111 0 -185.5 62.5t-74.5 187.5zM487 241q4 41 -5 81.5t-31.5 76.5t-65.5 58.5t-101 22.5q-92 0 -157 -64t-66 -175
h426zM162 608h240v-10h-240v10z" />
    <glyph glyph-name="Edotaccent" unicode="&#x116;" horiz-adv-x="634" 
d="M108 700h451v-10h-441v-333h411v-10h-411v-337h451v-10h-461v700zM313 815q0 8 6 14t14 6t14 -6t6 -14t-6 -14t-14 -6t-14 6t-6 14z" />
    <glyph glyph-name="edotaccent" unicode="&#x117;" horiz-adv-x="545" 
d="M51 240q0 114 68.5 182t164.5 68q62 0 108.5 -25t69 -64.5t31 -83.5t2.5 -86h-434q2 -116 73.5 -173.5t176.5 -57.5q92 0 155 37v-10q-63 -37 -155 -37q-111 0 -185.5 62.5t-74.5 187.5zM487 241q4 41 -5 81.5t-31.5 76.5t-65.5 58.5t-101 22.5q-92 0 -157 -64t-66 -175
h426zM262 595q0 8 6 14t14 6t14 -6t6 -14t-6 -14t-14 -6t-14 6t-6 14z" />
    <glyph glyph-name="Eogonek" unicode="&#x118;" horiz-adv-x="634" 
d="M108 700h451v-10h-441v-333h411v-10h-411v-337h451v-10h-461v700zM569 -205v-11q-30 -14 -63 -14q-35 0 -57 18t-22 51q0 39 34.5 81.5t92.5 79.5h15q-132 -87 -132 -161q0 -29 19 -44t50 -15q32 0 63 15z" />
    <glyph glyph-name="eogonek" unicode="&#x119;" horiz-adv-x="545" 
d="M457 -211q-35 -19 -76 -19q-39 0 -61.5 20t-22.5 55q0 38 32.5 76.5t99.5 88.5q-50 -20 -118 -20q-111 0 -185.5 62.5t-74.5 187.5q0 114 68.5 182t164.5 68q62 0 108.5 -25t69 -64.5t31 -83.5t2.5 -86h-434q2 -116 73.5 -173.5t176.5 -57.5q92 0 155 37v-10
q-81 -60 -120 -101.5t-39 -80.5q0 -30 19.5 -47.5t54.5 -17.5q38 0 76 19v-10zM284 480q-92 0 -157 -64t-66 -175h426q4 41 -5 81.5t-31.5 76.5t-65.5 58.5t-101 22.5z" />
    <glyph glyph-name="Ecaron" unicode="&#x11a;" horiz-adv-x="634" 
d="M108 700h451v-10h-441v-333h411v-10h-411v-337h451v-10h-461v700zM462 890l-125 -120h-8l-125 120h13l116 -111l116 111h13z" />
    <glyph glyph-name="ecaron" unicode="&#x11b;" horiz-adv-x="545" 
d="M51 240q0 114 68.5 182t164.5 68q62 0 108.5 -25t69 -64.5t31 -83.5t2.5 -86h-434q2 -116 73.5 -173.5t176.5 -57.5q92 0 155 37v-10q-63 -37 -155 -37q-111 0 -185.5 62.5t-74.5 187.5zM487 241q4 41 -5 81.5t-31.5 76.5t-65.5 58.5t-101 22.5q-92 0 -157 -64t-66 -175
h426zM411 670l-125 -120h-8l-125 120h13l116 -111l116 111h13z" />
    <glyph glyph-name="Gbreve" unicode="&#x11e;" horiz-adv-x="709" 
d="M55 350q0 92 31.5 163.5t85 113t117 62.5t133.5 21q110 0 200 -46v-10q-89 46 -200 46q-69 0 -130.5 -20.5t-113.5 -60.5t-82.5 -109.5t-30.5 -159.5q0 -89 31 -158.5t83.5 -110t116 -61t133.5 -20.5q109 0 202 44v319h10v-325q-96 -48 -212 -48q-72 0 -137 21t-119 63
t-86 113t-32 163zM527 826q-46 -41 -120 -41t-120 41v13q48 -44 120 -44t120 44v-13z" />
    <glyph glyph-name="gbreve" unicode="&#x11f;" horiz-adv-x="611" 
d="M51 240q0 115 67 182.5t171 67.5q75 0 136 -41t90 -105v136h10v-480q0 -114 -72 -172t-177 -58q-99 0 -186 46v10q92 -46 186 -46q101 0 170 55.5t69 164.5v136q-29 -64 -90 -105t-136 -41q-104 0 -171 67.5t-67 182.5zM515 316q-24 71 -85.5 117.5t-140.5 46.5
q-100 0 -164 -64.5t-64 -175.5q0 -110 64 -175t164 -65q79 0 140.5 46.5t85.5 117.5v152zM409 606q-46 -41 -120 -41t-120 41v13q48 -44 120 -44t120 44v-13z" />
    <glyph glyph-name="Gdotaccent" unicode="&#x120;" horiz-adv-x="709" 
d="M55 350q0 92 31.5 163.5t85 113t117 62.5t133.5 21q110 0 200 -46v-10q-89 46 -200 46q-69 0 -130.5 -20.5t-113.5 -60.5t-82.5 -109.5t-30.5 -159.5q0 -89 31 -158.5t83.5 -110t116 -61t133.5 -20.5q109 0 202 44v319h10v-325q-96 -48 -212 -48q-72 0 -137 21t-119 63
t-86 113t-32 163zM387 815q0 8 6 14t14 6t14 -6t6 -14t-6 -14t-14 -6t-14 6t-6 14z" />
    <glyph glyph-name="gdotaccent" unicode="&#x121;" horiz-adv-x="611" 
d="M51 240q0 115 67 182.5t171 67.5q75 0 136 -41t90 -105v136h10v-480q0 -114 -72 -172t-177 -58q-99 0 -186 46v10q92 -46 186 -46q101 0 170 55.5t69 164.5v136q-29 -64 -90 -105t-136 -41q-104 0 -171 67.5t-67 182.5zM515 316q-24 71 -85.5 117.5t-140.5 46.5
q-100 0 -164 -64.5t-64 -175.5q0 -110 64 -175t164 -65q79 0 140.5 46.5t85.5 117.5v152zM269 595q0 8 6 14t14 6t14 -6t6 -14t-6 -14t-14 -6t-14 6t-6 14z" />
    <glyph glyph-name="Gcommaaccent" unicode="&#x122;" horiz-adv-x="709" 
d="M55 350q0 92 31.5 163.5t85 113t117 62.5t133.5 21q110 0 200 -46v-10q-89 46 -200 46q-69 0 -130.5 -20.5t-113.5 -60.5t-82.5 -109.5t-30.5 -159.5q0 -89 31 -158.5t83.5 -110t116 -61t133.5 -20.5q109 0 202 44v319h10v-325q-96 -48 -212 -48q-72 0 -137 21t-119 63
t-86 113t-32 163zM410 -220h-10l19 160h10z" />
    <glyph glyph-name="gcommaaccent" unicode="&#x123;" horiz-adv-x="611" 
d="M301 551h-9l19 149h8zM51 240q0 115 67 182.5t171 67.5q75 0 136 -41t90 -105v136h10v-480q0 -114 -72 -172t-177 -58q-99 0 -186 46v10q92 -46 186 -46q101 0 170 55.5t69 164.5v136q-29 -64 -90 -105t-136 -41q-104 0 -171 67.5t-67 182.5zM515 316q-24 71 -85.5 117.5
t-140.5 46.5q-100 0 -164 -64.5t-64 -175.5q0 -110 64 -175t164 -65q79 0 140.5 46.5t85.5 117.5v152z" />
    <glyph glyph-name="Hbar" unicode="&#x126;" horiz-adv-x="766" 
d="M118 0h-10v525h-80v10h80v165h10v-165h530v165h10v-165h80v-10h-80v-525h-10v347h-530v-347zM118 525v-168h530v168h-530z" />
    <glyph glyph-name="hbar" unicode="&#x127;" 
d="M96 363q31 50 85 88.5t127 38.5q79 0 131 -52.5t52 -142.5v-295h-10v295q0 86 -49 135.5t-124 49.5q-74 0 -128.5 -41t-83.5 -96v-343h-10v598h-80v10h80v92h10v-92h210v-10h-210v-235z" />
    <glyph glyph-name="Imacron" unicode="&#x12a;" horiz-adv-x="226" 
d="M108 700h10v-700h-10v700zM-7 828h240v-10h-240v10z" />
    <glyph glyph-name="imacron" unicode="&#x12b;" horiz-adv-x="190" 
d="M-15 608h220v-10h-220v10zM90 480h10v-480h-10v480z" />
    <glyph glyph-name="Iogonek" unicode="&#x12e;" horiz-adv-x="226" 
d="M44 -155q0 -30 18 -47.5t50 -17.5q37 0 72 19v-10q-32 -19 -72 -19q-36 0 -57 20t-21 55q0 37 18.5 72t55.5 85v698h10v-700q-1 -1 -10.5 -14t-11 -15.5t-9.5 -14.5t-10 -16t-8.5 -14.5t-8.5 -16t-6.5 -15t-5.5 -16.5t-2.5 -16t-1.5 -17z" />
    <glyph glyph-name="iogonek" unicode="&#x12f;" horiz-adv-x="190" 
d="M107 611q0 -12 -12 -12t-12 12t12 12t12 -12zM24 -155q0 -30 19 -47.5t51 -17.5q37 0 72 19v-10q-32 -19 -72 -19q-36 0 -58 20.5t-22 54.5q0 73 76 158v477h10v-480q-76 -87 -76 -155z" />
    <glyph glyph-name="Idotaccent" unicode="&#x130;" horiz-adv-x="226" 
d="M108 700h10v-700h-10v700zM93 815q0 8 6 14t14 6t14 -6t6 -14t-6 -14t-14 -6t-14 6t-6 14z" />
    <glyph glyph-name="dotlessi" unicode="&#x131;" horiz-adv-x="190" 
d="M90 480h10v-480h-10v480z" />
    <glyph glyph-name="IJ" unicode="&#x132;" horiz-adv-x="748" 
d="M108 700h10v-700h-10v700zM401 700h247v-520q0 -93 -57 -141.5t-151 -48.5q-112 0 -179 43v10q68 -43 179 -43q90 0 144 46t54 134v510h-237v10z" />
    <glyph glyph-name="ij" unicode="&#x133;" horiz-adv-x="380" 
d="M100 0h-10v480h10v-480zM107 611q0 -12 -12 -12t-12 12t12 12t12 -12zM290 -123q0 -57 -32 -82t-79 -25q-36 0 -67 11v10q31 -11 67 -11q44 0 72.5 22.5t28.5 74.5v603h10v-603zM297 611q0 -12 -12 -12t-12 12t12 12t12 -12z" />
    <glyph glyph-name="Kcommaaccent" unicode="&#x136;" horiz-adv-x="651" 
d="M118 0h-10v700h10v-335h231l254 335h13l-259 -341l288 -359h-13l-285 355h-229v-355zM344 -210h-10l19 160h10z" />
    <glyph glyph-name="kcommaaccent" unicode="&#x137;" horiz-adv-x="482" 
d="M478 0h-13l-231 245h-138v-245h-10v700h10v-445h140l199 225h13l-204 -231zM256 -210h-10l19 160h10z" />
    <glyph glyph-name="Lacute" unicode="&#x139;" horiz-adv-x="575" 
d="M108 700h10v-690h438v-10h-448v700zM101 780h-13l87 130h13z" />
    <glyph glyph-name="lacute" unicode="&#x13a;" horiz-adv-x="190" 
d="M90 730h10v-730h-10v730zM83 790h-13l87 130h13z" />
    <glyph glyph-name="Lcommaaccent" unicode="&#x13b;" horiz-adv-x="575" 
d="M108 700h10v-690h438v-10h-448v700zM316 -210h-10l19 160h10z" />
    <glyph glyph-name="lcommaaccent" unicode="&#x13c;" horiz-adv-x="190" 
d="M90 730h10v-730h-10v730zM84 -210h-10l19 160h10z" />
    <glyph glyph-name="Lcaron" unicode="&#x13d;" horiz-adv-x="575" 
d="M375 700h9l-19 -149h-8zM108 700h10v-690h438v-10h-448v700z" />
    <glyph glyph-name="lcaron" unicode="&#x13e;" horiz-adv-x="190" 
d="M187 730h9l-19 -149h-8zM90 730h10v-730h-10v730z" />
    <glyph glyph-name="Ldot" unicode="&#x13f;" horiz-adv-x="589" 
d="M356 330q0 -15 -15 -15q-6 0 -10.5 4.5t-4.5 10.5t4.5 10.5t10.5 4.5q15 0 15 -15zM108 700h10v-690h438v-10h-448v700z" />
    <glyph glyph-name="ldot" unicode="&#x140;" horiz-adv-x="218" 
d="M90 730h10v-730h-10v730zM220 350q0 -15 -15 -15t-15 15t15 15t15 -15z" />
    <glyph glyph-name="Lslash" unicode="&#x141;" horiz-adv-x="578" 
d="M559 0h-448v296l-100 -44v10l100 44v394h10v-389l250 111v-10l-250 -111v-291h438v-10z" />
    <glyph glyph-name="lslash" unicode="&#x142;" horiz-adv-x="211" 
d="M101 730h10v-350l90 40v-10l-90 -40v-370h-10v365l-90 -40v10l90 40v355z" />
    <glyph glyph-name="Nacute" unicode="&#x143;" horiz-adv-x="766" 
d="M118 0h-10v700h7l533 -680v60v620h10v-700h-7l-533 681v-60v-621zM366 780h-13l87 130h13z" />
    <glyph glyph-name="nacute" unicode="&#x144;" 
d="M96 363q31 50 85 88.5t127 38.5q79 0 131 -52.5t52 -142.5v-295h-10v295q0 86 -49 135.5t-124 49.5q-74 0 -128.5 -41t-83.5 -96v-343h-10v480h10v-117zM264 560h-13l87 130h13z" />
    <glyph glyph-name="Ncommaaccent" unicode="&#x145;" horiz-adv-x="766" 
d="M118 0h-10v700h7l533 -680v60v620h10v-700h-7l-533 681v-60v-621zM379 -210h-10l19 160h10z" />
    <glyph glyph-name="ncommaaccent" unicode="&#x146;" 
d="M96 363q31 50 85 88.5t127 38.5q79 0 131 -52.5t52 -142.5v-295h-10v295q0 86 -49 135.5t-124 49.5q-74 0 -128.5 -41t-83.5 -96v-343h-10v480h10v-117zM282 -210h-10l19 160h10z" />
    <glyph glyph-name="Ncaron" unicode="&#x147;" horiz-adv-x="766" 
d="M118 0h-10v700h7l533 -680v60v620h10v-700h-7l-533 681v-60v-621zM512 890l-125 -120h-8l-125 120h13l116 -111l116 111h13z" />
    <glyph glyph-name="ncaron" unicode="&#x148;" 
d="M96 363q31 50 85 88.5t127 38.5q79 0 131 -52.5t52 -142.5v-295h-10v295q0 86 -49 135.5t-124 49.5q-74 0 -128.5 -41t-83.5 -96v-343h-10v480h10v-117zM410 670l-125 -120h-8l-125 120h13l116 -111l116 111h13z" />
    <glyph glyph-name="Eng" unicode="&#x14a;" horiz-adv-x="766" 
d="M658 -123q0 -57 -32 -82t-79 -25q-36 0 -67 11v10q31 -11 67 -11q44 0 72.5 22.5t28.5 74.5v127l-530 677v-60v-621h-10v700h7l533 -680v60v620h10v-823z" />
    <glyph glyph-name="eng" unicode="&#x14b;" 
d="M491 -123q0 -57 -32 -82t-79 -25q-36 0 -67 11v10q31 -11 67 -11q44 0 72.5 22.5t28.5 74.5v418q0 86 -49 135.5t-124 49.5q-74 0 -128.5 -41t-83.5 -96v-343h-10v480h10v-117q31 50 85 88.5t127 38.5q79 0 131 -52.5t52 -142.5v-418z" />
    <glyph glyph-name="Omacron" unicode="&#x14c;" horiz-adv-x="826" 
d="M53 350q0 66 23 129t66 115t113.5 84t157.5 32t157.5 -32t113.5 -84t66 -115t23 -129t-23 -129t-66 -115t-113.5 -84t-157.5 -32t-157.5 32t-113.5 84t-66 115t-23 129zM763 350q0 65 -22.5 126t-64.5 111.5t-110.5 81.5t-152.5 31t-152.5 -31t-110.5 -81.5t-64.5 -111.5
t-22.5 -126t22.5 -126t64.5 -111.5t110.5 -81.5t152.5 -31t152.5 31t110.5 81.5t64.5 111.5t22.5 126zM293 828h240v-10h-240v10z" />
    <glyph glyph-name="omacron" unicode="&#x14d;" horiz-adv-x="592" 
d="M51 240q0 115 71.5 182.5t173.5 67.5t173.5 -67.5t71.5 -182.5t-71.5 -182.5t-173.5 -67.5t-173.5 67.5t-71.5 182.5zM531 240q0 110 -68.5 175t-166.5 65t-166.5 -65t-68.5 -175t68.5 -175t166.5 -65t166.5 65t68.5 175zM176 598h240v-10h-240v10z" />
    <glyph glyph-name="Ohungarumlaut" unicode="&#x150;" horiz-adv-x="826" 
d="M53 350q0 66 23 129t66 115t113.5 84t157.5 32t157.5 -32t113.5 -84t66 -115t23 -129t-23 -129t-66 -115t-113.5 -84t-157.5 -32t-157.5 32t-113.5 84t-66 115t-23 129zM763 350q0 65 -22.5 126t-64.5 111.5t-110.5 81.5t-152.5 31t-152.5 -31t-110.5 -81.5t-64.5 -111.5
t-22.5 -126t22.5 -126t64.5 -111.5t110.5 -81.5t152.5 -31t152.5 31t110.5 81.5t64.5 111.5t22.5 126zM486 778h-12l77 140h12zM335 778h-12l77 140h12z" />
    <glyph glyph-name="ohungarumlaut" unicode="&#x151;" horiz-adv-x="592" 
d="M51 240q0 115 71.5 182.5t173.5 67.5t173.5 -67.5t71.5 -182.5t-71.5 -182.5t-173.5 -67.5t-173.5 67.5t-71.5 182.5zM531 240q0 110 -68.5 175t-166.5 65t-166.5 -65t-68.5 -175t68.5 -175t166.5 -65t166.5 65t68.5 175zM369 548h-12l77 140h12zM218 548h-12l77 140h12z
" />
    <glyph glyph-name="OE" unicode="&#x152;" horiz-adv-x="1027" 
d="M535 0q-47 -10 -122 -10q-87 0 -157.5 32t-113.5 84t-66 115t-23 129t23 129t66 115t113.5 84t157.5 32q75 0 122 -10h421v-10h-411v-333h381v-10h-381v-337h417v-10h-427zM63 350q0 -65 22.5 -126t64.5 -111.5t110.5 -81.5t152.5 -31q75 0 122 10v680q-47 10 -122 10
q-84 0 -152.5 -31t-110.5 -81.5t-64.5 -111.5t-22.5 -126z" />
    <glyph glyph-name="oe" unicode="&#x153;" horiz-adv-x="998" 
d="M524 183q-18 -91 -82 -142t-152 -51q-102 0 -170.5 67.5t-68.5 182.5t68.5 182.5t170.5 67.5q88 0 152.5 -52t82.5 -144q17 90 80 143t141 53q61 0 105 -25t66 -65.5t29.5 -85t1.5 -88.5h-418q1 -75 38 -128t89 -75.5t112 -22.5q87 0 150 37v-10q-63 -37 -150 -37
t-158 49t-87 144zM61 240q0 -111 65.5 -175.5t163.5 -64.5t163.5 64.5t65.5 175.5t-65.5 175.5t-163.5 64.5t-163.5 -64.5t-65.5 -175.5zM746 480q-55 0 -102.5 -27t-80 -84t-33.5 -133h410q4 43 -4.5 84.5t-29.5 78t-62 59t-98 22.5z" />
    <glyph glyph-name="Racute" unicode="&#x154;" horiz-adv-x="678" 
d="M118 0h-10v700h260q61 0 113.5 -18.5t90.5 -65.5t38 -117q0 -68 -36 -114.5t-86 -65.5t-110 -21l275 -298h-13l-275 298h-247v-298zM118 690v-382h250q59 0 109 17t86.5 62t36.5 112t-36.5 112t-86.5 62t-109 17h-250zM326 780h-13l87 130h13z" />
    <glyph glyph-name="racute" unicode="&#x155;" horiz-adv-x="329" 
d="M96 318q24 72 81.5 122t140.5 50v-10q-89 0 -147.5 -59.5t-74.5 -139.5v-281h-10v480h10v-162zM164 560h-13l87 130h13z" />
    <glyph glyph-name="Rcommaaccent" unicode="&#x156;" horiz-adv-x="678" 
d="M118 0h-10v700h260q61 0 113.5 -18.5t90.5 -65.5t38 -117q0 -68 -36 -114.5t-86 -65.5t-110 -21l275 -298h-13l-275 298h-247v-298zM118 690v-382h250q59 0 109 17t86.5 62t36.5 112t-36.5 112t-86.5 62t-109 17h-250zM352 -210h-10l19 160h10z" />
    <glyph glyph-name="rcommaaccent" unicode="&#x157;" horiz-adv-x="329" 
d="M96 318q24 72 81.5 122t140.5 50v-10q-89 0 -147.5 -59.5t-74.5 -139.5v-281h-10v480h10v-162zM79 -210h-10l19 160h10z" />
    <glyph glyph-name="Rcaron" unicode="&#x158;" horiz-adv-x="678" 
d="M118 0h-10v700h260q61 0 113.5 -18.5t90.5 -65.5t38 -117q0 -68 -36 -114.5t-86 -65.5t-110 -21l275 -298h-13l-275 298h-247v-298zM118 690v-382h250q59 0 109 17t86.5 62t36.5 112t-36.5 112t-86.5 62t-109 17h-250zM472 890l-125 -120h-8l-125 120h13l116 -111
l116 111h13z" />
    <glyph glyph-name="rcaron" unicode="&#x159;" horiz-adv-x="329" 
d="M96 318q24 72 81.5 122t140.5 50v-10q-89 0 -147.5 -59.5t-74.5 -139.5v-281h-10v480h10v-162zM310 670l-125 -120h-8l-125 120h13l116 -111l116 111h13z" />
    <glyph glyph-name="Sacute" unicode="&#x15a;" horiz-adv-x="555" 
d="M61 544q0 82 62.5 124t149.5 42q111 0 195 -47v-10q-84 47 -195 47q-83 0 -142.5 -39.5t-59.5 -116.5q0 -47 24.5 -81t63.5 -54t86.5 -36t95 -33t86.5 -38.5t63.5 -59t24.5 -88.5q0 -84 -64 -124t-163 -40q-134 0 -237 58v10q108 -58 237 -58q61 0 108 14.5t78 50
t31 89.5q0 49 -24.5 85t-63.5 57t-86.5 37.5t-95 32.5t-86.5 37t-63.5 56.5t-24.5 84.5zM251 780h-13l87 130h13z" />
    <glyph glyph-name="sacute" unicode="&#x15b;" horiz-adv-x="449" 
d="M55 372q0 59 48.5 88.5t115.5 29.5q94 0 161 -42v-10q-68 42 -161 42q-64 0 -109 -27t-45 -81q0 -40 25.5 -66.5t63 -38t82 -24t82 -24.5t63 -39.5t25.5 -69.5q0 -59 -50.5 -89.5t-124.5 -30.5q-48 0 -99.5 13.5t-82.5 35.5v10q34 -22 84.5 -35.5t97.5 -13.5
q70 0 117.5 28t47.5 82q0 39 -25.5 65.5t-63 37.5t-82 23.5t-82 24.5t-63 40.5t-25.5 70.5zM203 560h-13l87 130h13z" />
    <glyph glyph-name="Scedilla" unicode="&#x15e;" horiz-adv-x="555" 
d="M71 544q0 -47 24.5 -81t63.5 -54t86.5 -36t95 -33t86.5 -38.5t63.5 -59t24.5 -88.5q0 -82 -61.5 -122t-157.5 -42l-24 -95q47 13 86.5 -1.5t40.5 -51.5q1 -32 -27 -52t-81 -20q-56 0 -98 23v10q42 -23 98 -23q50 0 74.5 17.5t23.5 44.5q-1 34 -41 45t-89 -4l27 107
q-134 0 -235 58v10q108 -58 237 -58q61 0 108 14.5t78 50t31 89.5q0 49 -24.5 85t-63.5 57t-86.5 37.5t-95 32.5t-86.5 37t-63.5 56.5t-24.5 84.5q0 82 62.5 124t149.5 42q111 0 195 -47v-10q-84 47 -195 47q-83 0 -142.5 -39.5t-59.5 -116.5z" />
    <glyph glyph-name="scedilla" unicode="&#x15f;" horiz-adv-x="449" 
d="M65 372q0 -40 25.5 -66.5t63 -38t82 -24t82 -24.5t63 -39.5t25.5 -69.5q0 -57 -47.5 -87.5t-118.5 -32.5l-19 -95q47 13 86.5 -1.5t40.5 -51.5q1 -32 -27 -52t-81 -20q-56 0 -98 23v10q42 -23 98 -23q50 0 74.5 17.5t23.5 44.5q-1 34 -41 45t-89 -4l22 107
q-48 0 -99 13.5t-82 35.5v10q34 -22 84.5 -35.5t97.5 -13.5q70 0 117.5 28t47.5 82q0 39 -25.5 65.5t-63 37.5t-82 23.5t-82 24.5t-63 40.5t-25.5 70.5q0 59 48.5 88.5t115.5 29.5q94 0 161 -42v-10q-68 42 -161 42q-64 0 -109 -27t-45 -81z" />
    <glyph glyph-name="Scaron" unicode="&#x160;" horiz-adv-x="555" 
d="M61 544q0 82 62.5 124t149.5 42q111 0 195 -47v-10q-84 47 -195 47q-83 0 -142.5 -39.5t-59.5 -116.5q0 -47 24.5 -81t63.5 -54t86.5 -36t95 -33t86.5 -38.5t63.5 -59t24.5 -88.5q0 -84 -64 -124t-163 -40q-134 0 -237 58v10q108 -58 237 -58q61 0 108 14.5t78 50
t31 89.5q0 49 -24.5 85t-63.5 57t-86.5 37.5t-95 32.5t-86.5 37t-63.5 56.5t-24.5 84.5zM397 890l-125 -120h-8l-125 120h13l116 -111l116 111h13z" />
    <glyph glyph-name="scaron" unicode="&#x161;" horiz-adv-x="449" 
d="M55 372q0 59 48.5 88.5t115.5 29.5q94 0 161 -42v-10q-68 42 -161 42q-64 0 -109 -27t-45 -81q0 -40 25.5 -66.5t63 -38t82 -24t82 -24.5t63 -39.5t25.5 -69.5q0 -59 -50.5 -89.5t-124.5 -30.5q-48 0 -99.5 13.5t-82.5 35.5v10q34 -22 84.5 -35.5t97.5 -13.5
q70 0 117.5 28t47.5 82q0 39 -25.5 65.5t-63 37.5t-82 23.5t-82 24.5t-63 40.5t-25.5 70.5zM349 670l-125 -120h-8l-125 120h13l116 -111l116 111h13z" />
    <glyph glyph-name="Tcommaaccent" unicode="&#x162;" horiz-adv-x="594" 
d="M17 700h560v-10h-275v-690h-10v690h-275v10zM285 -210h-10l19 160h10z" />
    <glyph glyph-name="tcommaaccent" unicode="&#x163;" horiz-adv-x="349" 
d="M102 640l10 5v-165h220v-10h-220v-340q0 -62 32.5 -95t95.5 -33q60 0 102 24v-10q-37 -24 -102 -24q-67 0 -102.5 35.5t-35.5 102.5v340h-90v10h90v160zM218 -210h-10l19 160h10z" />
    <glyph glyph-name="Tcaron" unicode="&#x164;" horiz-adv-x="594" 
d="M17 700h560v-10h-275v-690h-10v690h-275v10zM427 890l-125 -120h-8l-125 120h13l116 -111l116 111h13z" />
    <glyph glyph-name="tcaron" unicode="&#x165;" horiz-adv-x="349" 
d="M231 730h9l-19 -149h-8zM102 640l10 5v-165h220v-10h-220v-340q0 -62 32.5 -95t95.5 -33q60 0 102 24v-10q-37 -24 -102 -24q-67 0 -102.5 35.5t-35.5 102.5v340h-90v10h90v160z" />
    <glyph glyph-name="Tbar" unicode="&#x166;" horiz-adv-x="606" 
d="M308 0h-10v355h-145v10h145v325h-275v10h560v-10h-275v-325h145v-10h-145v-355z" />
    <glyph glyph-name="tbar" unicode="&#x167;" horiz-adv-x="350" 
d="M113 130q0 -62 32.5 -95t95.5 -33q60 0 102 24v-10q-37 -24 -102 -24q-67 0 -102.5 35.5t-35.5 102.5v168h-60v10h60v162h-90v10h90v160l10 5v-165h220v-10h-220v-162h170v-10h-170v-168z" />
    <glyph glyph-name="Umacron" unicode="&#x16a;" horiz-adv-x="748" 
d="M639 700h10v-463q0 -130 -74 -188.5t-201 -58.5t-201 58.5t-74 188.5v463h10v-463q0 -237 265 -237t265 237v463zM259 828h240v-10h-240v10z" />
    <glyph glyph-name="umacron" unicode="&#x16b;" 
d="M474 480h10v-480h-10v117q-31 -50 -85 -88.5t-127 -38.5q-79 0 -131 52.5t-52 142.5v295h10v-295q0 -86 49 -135.5t124 -49.5q74 0 128.5 41t83.5 96v343zM170 608h240v-10h-240v10z" />
    <glyph glyph-name="Uring" unicode="&#x16e;" horiz-adv-x="748" 
d="M639 700h10v-463q0 -130 -74 -188.5t-201 -58.5t-201 58.5t-74 188.5v463h10v-463q0 -237 265 -237t265 237v463zM456 836q0 -33 -23 -54t-54 -21t-54 21t-23 54t23 54t54 21t54 -21t23 -54zM312 836q0 -29 20 -47t47 -18t47 18t20 47t-20 47t-47 18t-47 -18t-20 -47z
" />
    <glyph glyph-name="uring" unicode="&#x16f;" 
d="M474 480h10v-480h-10v117q-31 -50 -85 -88.5t-127 -38.5q-79 0 -131 52.5t-52 142.5v295h10v-295q0 -86 49 -135.5t124 -49.5q74 0 128.5 41t83.5 96v343zM367 616q0 -33 -23 -54t-54 -21t-54 21t-23 54t23 54t54 21t54 -21t23 -54zM223 616q0 -29 20 -47t47 -18t47 18
t20 47t-20 47t-47 18t-47 -18t-20 -47z" />
    <glyph glyph-name="Uhungarumlaut" unicode="&#x170;" horiz-adv-x="748" 
d="M639 700h10v-463q0 -130 -74 -188.5t-201 -58.5t-201 58.5t-74 188.5v463h10v-463q0 -237 265 -237t265 237v463zM452 778h-12l77 140h12zM301 778h-12l77 140h12z" />
    <glyph glyph-name="uhungarumlaut" unicode="&#x171;" 
d="M474 480h10v-480h-10v117q-31 -50 -85 -88.5t-127 -38.5q-79 0 -131 52.5t-52 142.5v295h10v-295q0 -86 49 -135.5t124 -49.5q74 0 128.5 41t83.5 96v343zM363 558h-12l77 140h12zM212 558h-12l77 140h12z" />
    <glyph glyph-name="Uogonek" unicode="&#x172;" horiz-adv-x="748" 
d="M581 -211q-35 -19 -76 -19q-39 0 -61.5 20t-22.5 55t28 83.5t70 86.5q-62 -25 -145 -25q-127 0 -201 58.5t-74 188.5v463h10v-463q0 -237 265 -237t265 237v463h10v-463q0 -137 -90 -200q-53 -37 -90.5 -93.5t-37.5 -98.5q0 -30 19.5 -47.5t54.5 -17.5q38 0 76 19v-10z
" />
    <glyph glyph-name="uogonek" unicode="&#x173;" 
d="M484 480v-480q-60 -51 -89.5 -86.5t-29.5 -73.5q0 -60 64 -60q29 0 55 10v-10q-24 -10 -55 -10q-34 0 -54 18t-20 52q0 38 28.5 75.5t90.5 88.5v113q-31 -50 -85 -88.5t-127 -38.5q-79 0 -131 52.5t-52 142.5v295h10v-295q0 -86 49 -135.5t124 -49.5q74 0 128.5 41
t83.5 96v343h10z" />
    <glyph glyph-name="Wcircumflex" unicode="&#x174;" horiz-adv-x="978" 
d="M937 700h11l-225 -700h-10l-224 674l-224 -674h-10l-225 700h11l219 -683l224 673h10l224 -673zM485 900h8l125 -120h-13l-116 111l-116 -111h-13z" />
    <glyph glyph-name="wcircumflex" unicode="&#x175;" horiz-adv-x="798" 
d="M758 480h11l-190 -480h-8l-172 458l-172 -458h-8l-190 480h11l183 -463l170 453h12l170 -453zM395 680h8l125 -120h-13l-116 111l-116 -111h-13z" />
    <glyph glyph-name="Ycircumflex" unicode="&#x176;" horiz-adv-x="616" 
d="M313 0h-10v289l-276 411h12l269 -400l269 400h12l-276 -411v-289zM305 900h8l125 -120h-13l-116 111l-116 -111h-13z" />
    <glyph glyph-name="ycircumflex" unicode="&#x177;" horiz-adv-x="528" 
d="M278 9l214 471h11l-259 -572q-34 -76 -70 -107t-84 -31q-22 0 -48 6v11q30 -7 48 -7q46 0 80 32t66 103l37 83l-254 482h11zM254 680h8l125 -120h-13l-116 111l-116 -111h-13z" />
    <glyph glyph-name="Ydieresis" unicode="&#x178;" horiz-adv-x="616" 
d="M313 0h-10v289l-276 411h12l269 -400l269 400h12l-276 -411v-289zM424 835q0 -15 -15 -15q-6 0 -10.5 4.5t-4.5 10.5t4.5 10.5t10.5 4.5q15 0 15 -15zM224 835q0 -15 -15 -15q-6 0 -10.5 4.5t-4.5 10.5t4.5 10.5t10.5 4.5q15 0 15 -15z" />
    <glyph glyph-name="Zacute" unicode="&#x179;" horiz-adv-x="563" 
d="M534 0h-514v8l495 682h-473v10h487v-8l-495 -682h500v-10zM265 780h-13l87 130h13z" />
    <glyph glyph-name="zacute" unicode="&#x17a;" horiz-adv-x="437" 
d="M42 480h354v-7l-353 -463h363v-10h-378v7l353 463h-339v10zM216 560h-13l87 130h13z" />
    <glyph glyph-name="Zdotaccent" unicode="&#x17b;" horiz-adv-x="563" 
d="M534 0h-514v8l495 682h-473v10h487v-8l-495 -682h500v-10zM262 815q0 8 6 14t14 6t14 -6t6 -14t-6 -14t-14 -6t-14 6t-6 14z" />
    <glyph glyph-name="zdotaccent" unicode="&#x17c;" horiz-adv-x="437" 
d="M42 480h354v-7l-353 -463h363v-10h-378v7l353 463h-339v10zM213 595q0 8 6 14t14 6t14 -6t6 -14t-6 -14t-14 -6t-14 6t-6 14z" />
    <glyph glyph-name="Zcaron" unicode="&#x17d;" horiz-adv-x="563" 
d="M534 0h-514v8l495 682h-473v10h487v-8l-495 -682h500v-10zM411 890l-125 -120h-8l-125 120h13l116 -111l116 111h13z" />
    <glyph glyph-name="zcaron" unicode="&#x17e;" horiz-adv-x="437" 
d="M42 480h354v-7l-353 -463h363v-10h-378v7l353 463h-339v10zM362 670l-125 -120h-8l-125 120h13l116 -111l116 111h13z" />
    <glyph glyph-name="Scommaaccent" unicode="&#x218;" horiz-adv-x="555" 
d="M61 544q0 82 62.5 124t149.5 42q111 0 195 -47v-10q-84 47 -195 47q-83 0 -142.5 -39.5t-59.5 -116.5q0 -47 24.5 -81t63.5 -54t86.5 -36t95 -33t86.5 -38.5t63.5 -59t24.5 -88.5q0 -84 -64 -124t-163 -40q-134 0 -237 58v10q108 -58 237 -58q61 0 108 14.5t78 50
t31 89.5q0 49 -24.5 85t-63.5 57t-86.5 37.5t-95 32.5t-86.5 37t-63.5 56.5t-24.5 84.5zM271 -210h-10l19 160h10z" />
    <glyph glyph-name="scommaaccent" unicode="&#x219;" horiz-adv-x="449" 
d="M55 372q0 59 48.5 88.5t115.5 29.5q94 0 161 -42v-10q-68 42 -161 42q-64 0 -109 -27t-45 -81q0 -40 25.5 -66.5t63 -38t82 -24t82 -24.5t63 -39.5t25.5 -69.5q0 -59 -50.5 -89.5t-124.5 -30.5q-48 0 -99.5 13.5t-82.5 35.5v10q34 -22 84.5 -35.5t97.5 -13.5
q70 0 117.5 28t47.5 82q0 39 -25.5 65.5t-63 37.5t-82 23.5t-82 24.5t-63 40.5t-25.5 70.5zM230 -210h-10l19 160h10z" />
    <glyph glyph-name="uni021A" unicode="&#x21a;" horiz-adv-x="594" 
d="M17 700h560v-10h-275v-690h-10v690h-275v10zM285 -210h-10l19 160h10z" />
    <glyph glyph-name="uni021B" unicode="&#x21b;" horiz-adv-x="349" 
d="M102 640l10 5v-165h220v-10h-220v-340q0 -62 32.5 -95t95.5 -33q60 0 102 24v-10q-37 -24 -102 -24q-67 0 -102.5 35.5t-35.5 102.5v340h-90v10h90v160zM218 -210h-10l19 160h10z" />
    <glyph glyph-name="circumflex" unicode="&#x2c6;" horiz-adv-x="240" 
d="M116 900h8l125 -120h-13l-116 111l-116 -111h-13z" />
    <glyph glyph-name="caron" unicode="&#x2c7;" horiz-adv-x="240" 
d="M249 890l-125 -120h-8l-125 120h13l116 -111l116 111h13z" />
    <glyph glyph-name="breve" unicode="&#x2d8;" horiz-adv-x="310" 
d="M275 826q-46 -41 -120 -41t-120 41v13q48 -44 120 -44t120 44v-13z" />
    <glyph glyph-name="dotaccent" unicode="&#x2d9;" horiz-adv-x="80" 
d="M20 815q0 8 6 14t14 6t14 -6t6 -14t-6 -14t-14 -6t-14 6t-6 14z" />
    <glyph glyph-name="ring" unicode="&#x2da;" horiz-adv-x="194" 
d="M174 836q0 -33 -23 -54t-54 -21t-54 21t-23 54t23 54t54 21t54 -21t23 -54zM30 836q0 -29 20 -47t47 -18t47 18t20 47t-20 47t-47 18t-47 -18t-20 -47z" />
    <glyph glyph-name="ogonek" unicode="&#x2db;" horiz-adv-x="200" 
d="M144 0h15q-129 -89 -129 -155q0 -30 19.5 -47.5t54.5 -17.5q38 0 76 19v-10q-35 -19 -76 -19q-39 0 -61.5 20t-22.5 55q0 72 124 155z" />
    <glyph glyph-name="tilde" unicode="&#x2dc;" horiz-adv-x="297" 
d="M286 859q3 -28 -10 -46t-41 -18q-26 0 -87 30t-86 30q-22 0 -33 -15t-8 -40h-10q-4 27 10.5 46t40.5 19t87 -30t86 -30q46 0 41 54h10z" />
    <glyph glyph-name="hungarumlaut" unicode="&#x2dd;" horiz-adv-x="280" 
d="M183 778h-12l77 140h12zM32 778h-12l77 140h12z" />
    <glyph glyph-name="uni0326" unicode="&#x326;" horiz-adv-x="70" 
d="M31 -210h-10l19 160h10z" />
    <glyph glyph-name="uni0401" unicode="&#x401;" horiz-adv-x="634" 
d="M448 835q0 -15 -15 -15q-6 0 -10.5 4.5t-4.5 10.5t4.5 10.5t10.5 4.5q15 0 15 -15zM248 835q0 -15 -15 -15q-6 0 -10.5 4.5t-4.5 10.5t4.5 10.5t10.5 4.5q15 0 15 -15zM108 700h451v-10h-441v-333h411v-10h-411v-337h451v-10h-461v700z" />
    <glyph glyph-name="uni0410" unicode="&#x410;" horiz-adv-x="702" 
d="M29 0h-11l326 700h14l326 -700h-11l-106 227h-432zM345 678l-206 -441h423l-205 441q-1 2 -3 6.5t-3 6.5q-1 -2 -3 -6.5t-3 -6.5z" />
    <glyph glyph-name="uni0411" unicode="&#x411;" horiz-adv-x="653" 
d="M118 390h202q64 0 111 -7.5t90.5 -27t66 -60t22.5 -100.5t-22.5 -100.5t-66 -60t-90.5 -27t-111 -7.5h-212v700h451v-10h-441v-300zM118 10h202q63 0 108.5 7t87 25.5t63 56.5t21.5 96q0 47 -15 81t-39.5 53.5t-62.5 31t-75.5 15.5t-87.5 4h-202v-370z" />
    <glyph glyph-name="uni0412" unicode="&#x412;" horiz-adv-x="669" 
d="M108 700h243q107 0 170 -43t63 -131q0 -71 -43 -110t-110 -48q34 -5 62.5 -15t56.5 -30t45 -54.5t17 -81.5q0 -48 -18.5 -83.5t-45 -55t-65.5 -31t-71.5 -14.5t-72.5 -3h-231v700zM602 187q0 54 -23.5 91.5t-61 54.5t-70.5 23.5t-68 6.5h-261v-353h221q40 0 71.5 3
t69 13.5t62.5 29t42.5 52t17.5 79.5zM574 526q0 84 -59.5 124t-163.5 40h-233v-317h273q77 0 130 38t53 115z" />
    <glyph glyph-name="uni0413" unicode="&#x413;" horiz-adv-x="575" 
d="M118 0h-10v700h448v-10h-438v-690z" />
    <glyph glyph-name="uni0414" unicode="&#x414;" horiz-adv-x="732" 
d="M24 -180h-10v190h67q70 125 104.5 311t33.5 379h400v-690h85v-190h-10v180h-670v-180zM229 690q-1 -191 -34.5 -374t-102.5 -306h517v680h-380z" />
    <glyph glyph-name="uni0415" unicode="&#x415;" horiz-adv-x="634" 
d="M108 700h451v-10h-441v-333h411v-10h-411v-337h451v-10h-461v700z" />
    <glyph glyph-name="uni0416" unicode="&#x416;" horiz-adv-x="924" 
d="M24 0h-12l248 359l-219 341h12l215 -335h189v335h10v-335h189l215 335h12l-219 -341l248 -359h-12l-245 355h-188v-355h-10v355h-188z" />
    <glyph glyph-name="uni0417" unicode="&#x417;" horiz-adv-x="603" 
d="M548 187q0 -68 -42 -114.5t-99 -64.5t-122 -18q-141 0 -237 43v10q98 -43 237 -43q63 0 118 17t95 61t40 109q0 48 -23.5 83.5t-63 54.5t-82.5 27.5t-91 8.5h-126v10h126q105 0 168 44t63 117q0 81 -66 124.5t-166 43.5q-116 0 -217 -44v10q94 44 217 44q103 0 172.5 -46
t69.5 -132q0 -69 -51 -111.5t-138 -53.5q94 -10 156 -52.5t62 -127.5z" />
    <glyph glyph-name="uni0418" unicode="&#x418;" horiz-adv-x="766" 
d="M658 0h-10v621v60l-533 -681h-7v700h10v-620v-60l533 680h7v-700z" />
    <glyph glyph-name="uni0419" unicode="&#x419;" horiz-adv-x="766" 
d="M648 0h10v700h-7l-533 -680v60v620h-10v-700h7l533 681v-60v-621zM503 826q-46 -41 -120 -41t-120 41v13q48 -44 120 -44t120 44v-13z" />
    <glyph glyph-name="uni041A" unicode="&#x41a;" horiz-adv-x="651" 
d="M118 0h-10v700h10v-335h231l254 335h13l-259 -341l288 -359h-13l-285 355h-229v-355z" />
    <glyph glyph-name="uni041B" unicode="&#x41b;" horiz-adv-x="726" 
d="M240 700h378v-700h-10v690h-358q-6 -81 -10.5 -135.5t-12.5 -126.5t-16.5 -120t-20 -103t-26.5 -90t-34.5 -65.5t-44 -45t-53.5 -14.5q-23 0 -44 8v10q24 -8 44 -8q22 0 41.5 9t35.5 29t29 43.5t24 60t20 70.5t16.5 83.5t13 91t11 100.5t9 104t8.5 109z" />
    <glyph glyph-name="uni041C" unicode="&#x41c;" horiz-adv-x="894" 
d="M780 700h6v-700h-10v677l-326 -473h-6l-326 473v-677h-10v700h6l333 -483z" />
    <glyph glyph-name="uni041D" unicode="&#x41d;" horiz-adv-x="766" 
d="M648 700h10v-700h-10v347h-530v-347h-10v700h10v-343h530v343z" />
    <glyph glyph-name="uni041E" unicode="&#x41e;" horiz-adv-x="826" 
d="M53 350q0 66 23 129t66 115t113.5 84t157.5 32t157.5 -32t113.5 -84t66 -115t23 -129t-23 -129t-66 -115t-113.5 -84t-157.5 -32t-157.5 32t-113.5 84t-66 115t-23 129zM763 350q0 65 -22.5 126t-64.5 111.5t-110.5 81.5t-152.5 31t-152.5 -31t-110.5 -81.5t-64.5 -111.5
t-22.5 -126t22.5 -126t64.5 -111.5t110.5 -81.5t152.5 -31t152.5 31t110.5 81.5t64.5 111.5t22.5 126z" />
    <glyph glyph-name="uni041F" unicode="&#x41f;" horiz-adv-x="746" 
d="M118 0h-10v700h530v-700h-10v690h-510v-690z" />
    <glyph glyph-name="uni0420" unicode="&#x420;" horiz-adv-x="648" 
d="M108 700h212q290 0 290 -215t-290 -215h-202v-270h-10v700zM600 485q0 205 -280 205h-202v-410h202q280 0 280 205z" />
    <glyph glyph-name="uni0421" unicode="&#x421;" horiz-adv-x="665" 
d="M55 340q0 89 31 161t82.5 116.5t114.5 68.5t129 24q111 0 195 -49v-10q-87 49 -195 49q-51 0 -101 -14t-94.5 -44t-78 -72t-53.5 -101.5t-20 -128.5q0 -84 30.5 -151t80.5 -107t111 -61t126 -21q113 0 204 50v-10q-84 -50 -204 -50q-67 0 -129.5 21.5t-114 63t-83 110.5
t-31.5 155z" />
    <glyph glyph-name="uni0422" unicode="&#x422;" horiz-adv-x="594" 
d="M17 700h560v-10h-275v-690h-10v690h-275v10z" />
    <glyph glyph-name="uni0423" unicode="&#x423;" horiz-adv-x="613" 
d="M332 159q-51 -97 -97 -133t-103 -36q-39 0 -70 10v10q33 -10 70 -10q53 0 93.5 31.5t83.5 107.5l12 22l-307 539h11l302 -529l277 529h11z" />
    <glyph glyph-name="uni0424" unicode="&#x424;" horiz-adv-x="838" 
d="M424 -35h-10v95q-174 1 -277 76.5t-103 213.5t103 213.5t277 76.5v95h10v-95q174 -1 277 -76.5t103 -213.5t-103 -213.5t-277 -76.5v-95zM44 350q0 -133 99.5 -206t270.5 -74v560q-171 -1 -270.5 -74t-99.5 -206zM424 630v-560q171 1 270.5 74t99.5 206t-99.5 206
t-270.5 74z" />
    <glyph glyph-name="uni0425" unicode="&#x425;" horiz-adv-x="594" 
d="M24 0h-12l279 360l-264 340h12l258 -333l258 333h12l-264 -340l279 -360h-12l-273 352z" />
    <glyph glyph-name="uni0426" unicode="&#x426;" horiz-adv-x="751" 
d="M723 -180h-10v180h-605v700h10v-690h510v690h10v-690h85v-190z" />
    <glyph glyph-name="uni0427" unicode="&#x427;" horiz-adv-x="668" 
d="M560 0h-10v301q-119 -43 -238 -41q-126 2 -194 61t-68 173v206h10v-206q0 -111 66 -166.5t186 -57.5q118 -2 238 42v388h10v-700z" />
    <glyph glyph-name="uni0428" unicode="&#x428;" horiz-adv-x="1066" 
d="M958 0h-850v700h10v-690h410v690h10v-690h410v690h10v-700z" />
    <glyph glyph-name="uni0429" unicode="&#x429;" horiz-adv-x="1071" 
d="M1043 -180h-10v180h-925v700h10v-690h410v690h10v-690h410v690h10v-690h85v-190z" />
    <glyph glyph-name="uni042A" unicode="&#x42a;" horiz-adv-x="744" 
d="M416 0h-212v690h-190v10h200v-270h202q290 0 290 -215t-290 -215zM214 420v-410h202q280 0 280 205t-280 205h-202z" />
    <glyph glyph-name="uni042B" unicode="&#x42b;" horiz-adv-x="817" 
d="M320 0h-212v700h10v-270h202q290 0 290 -215t-290 -215zM118 420v-410h202q280 0 280 205t-280 205h-202zM709 0h-10v700h10v-700z" />
    <glyph glyph-name="uni042C" unicode="&#x42c;" horiz-adv-x="648" 
d="M320 0h-212v700h10v-270h202q290 0 290 -215t-290 -215zM118 420v-410h202q280 0 280 205t-280 205h-202z" />
    <glyph glyph-name="uni042D" unicode="&#x42d;" horiz-adv-x="661" 
d="M54 661q84 49 195 49q66 0 129 -23.5t114.5 -68t82.5 -115.5t31 -158q0 -88 -31.5 -158t-83 -112t-114 -63.5t-129.5 -21.5q-110 0 -194 50v10q91 -50 194 -50q65 0 126 21t111 61.5t80.5 108.5t30.5 154h-420v10h420q-2 108 -55 189t-129.5 118.5t-162.5 37.5
q-108 0 -195 -49v10z" />
    <glyph glyph-name="uni042E" unicode="&#x42e;" horiz-adv-x="1071" 
d="M1018 350q0 -66 -23 -129t-66 -115t-113.5 -84t-157.5 -32q-86 0 -156 31.5t-113.5 82.5t-66.5 113.5t-24 127.5h-180v-345h-10v700h10v-345h180q1 65 24 127.5t66.5 113.5t113.5 82.5t156 31.5q87 0 157.5 -32t113.5 -84t66 -115t23 -129zM308 350q0 -65 22.5 -126
t64.5 -111.5t110.5 -81.5t152.5 -31t152.5 31t110.5 81.5t64.5 111.5t22.5 126t-22.5 126t-64.5 111.5t-110.5 81.5t-152.5 31t-152.5 -31t-110.5 -81.5t-64.5 -111.5t-22.5 -126z" />
    <glyph glyph-name="uni042F" unicode="&#x42f;" horiz-adv-x="674" 
d="M53 0h-12l221 282q-90 12 -144 66t-54 141q0 100 70.5 155.5t181.5 55.5h250v-700h-10v278h-240q-29 0 -43 2zM74 489q0 -96 67.5 -148.5t174.5 -52.5h240v402h-240q-107 0 -174.5 -52.5t-67.5 -148.5z" />
    <glyph glyph-name="uni0430" unicode="&#x430;" horiz-adv-x="537" 
d="M439 62q0 -52 55 -52q20 0 37 7v-10q-19 -7 -37 -7q-27 0 -46 15t-19 47v59q-32 -62 -93.5 -96.5t-132.5 -34.5q-66 0 -114 35t-48 100q0 75 58.5 111.5t144.5 36.5q91 0 185 -33v61q0 83 -47 131t-136 48q-88 0 -168 -28v10q78 28 168 28q93 0 143 -51t50 -138v-239z
M51 125q0 -60 44.5 -92.5t107.5 -32.5q72 0 133 36t93 104v89q-95 34 -185 34q-82 0 -137.5 -33.5t-55.5 -104.5z" />
    <glyph glyph-name="uni0431" unicode="&#x431;" horiz-adv-x="592" 
d="M541 224q0 -104 -66 -169t-172 -65q-111 0 -179 77t-68 193q0 110 43 198t111 130q57 35 116 52t99 29t66 40v-12q-27 -26 -67 -38t-97 -28.5t-111 -50.5q-128 -80 -150 -286q28 79 94 122.5t147 43.5q102 0 168 -66.5t66 -169.5zM66 263q0 -114 65 -188.5t172 -74.5
q102 0 165 62t63 162q0 99 -63 162.5t-161 63.5q-82 0 -149.5 -47t-91.5 -140z" />
    <glyph glyph-name="uni0432" unicode="&#x432;" horiz-adv-x="539" 
d="M335 0h-249v480h235q70 0 107.5 -32.5t37.5 -88.5q0 -92 -89 -113q109 -18 109 -123q0 -61 -42.5 -92t-108.5 -31zM96 239v-229h238q63 0 102.5 28t39.5 85q0 61 -37.5 88.5t-99.5 27.5h-243zM96 470v-221h229q65 0 98 29.5t33 80.5t-34.5 81t-101.5 30h-224z" />
    <glyph glyph-name="uni0433" unicode="&#x433;" horiz-adv-x="438" 
d="M96 0h-10v480h334v-10h-324v-470z" />
    <glyph glyph-name="uni0434" unicode="&#x434;" horiz-adv-x="591" 
d="M31 -140h-10v150h60q50 108 73.5 214t23.5 256h315v-470h68v-150h-10v140h-520v-140zM188 470q0 -145 -23.5 -250t-73.5 -210h392v460h-295z" />
    <glyph glyph-name="uni0435" unicode="&#x435;" horiz-adv-x="543" 
d="M51 240q0 114 68.5 182t164.5 68q62 0 108.5 -25t69 -64.5t31 -83.5t2.5 -86h-434q2 -116 73.5 -173.5t176.5 -57.5q92 0 155 37v-10q-63 -37 -155 -37q-111 0 -185.5 62.5t-74.5 187.5zM487 241q4 41 -5 81.5t-31.5 76.5t-65.5 58.5t-101 22.5q-92 0 -157 -64t-66 -175
h426z" />
    <glyph glyph-name="uni0436" unicode="&#x436;" horiz-adv-x="696" 
d="M685 0h-13l-221 245h-98v-245h-10v245h-98l-221 -245h-13l224 249l-194 231h13l190 -225h99v225h10v-225h99l190 225h13l-194 -231z" />
    <glyph glyph-name="uni0437" unicode="&#x437;" horiz-adv-x="463" 
d="M409 125q0 -69 -56.5 -102t-137.5 -33q-95 0 -169 34v10q76 -34 169 -34q78 0 131 30.5t53 94.5q0 52 -40.5 83t-86.5 31h-126v10h126q57 6 87 33.5t30 74.5q0 60 -50 91.5t-125 31.5q-82 0 -162 -33v10q82 33 162 33q78 0 131.5 -34t53.5 -99q0 -45 -25.5 -74t-73.5 -37
q44 -10 76.5 -42t32.5 -79z" />
    <glyph glyph-name="uni0438" unicode="&#x438;" horiz-adv-x="582" 
d="M98 0h-12v480h10v-466l388 466h12v-480h-10v466z" />
    <glyph glyph-name="uni0439" unicode="&#x439;" horiz-adv-x="582" 
d="M411 606q-46 -41 -120 -41t-120 41v13q48 -44 120 -44t120 44v-13zM98 0h-12v480h10v-466l388 466h12v-480h-10v466z" />
    <glyph glyph-name="uni043A" unicode="&#x43a;" horiz-adv-x="488" 
d="M96 0h-10v480h10v-225h140l199 225h13l-204 -231l234 -249h-13l-231 245h-138v-245z" />
    <glyph glyph-name="uni043B" unicode="&#x43b;" horiz-adv-x="581" 
d="M197 470q-7 -235 -43.5 -355t-111.5 -120q-20 0 -37 6v10q16 -6 37 -6q69 0 103.5 119t41.5 356h308v-480h-10v470h-288z" />
    <glyph glyph-name="uni043C" unicode="&#x43c;" horiz-adv-x="658" 
d="M96 0h-10v480h11l232 -319l232 319h11v-480h-10v464l-230 -316h-6l-230 316v-464z" />
    <glyph glyph-name="uni043D" unicode="&#x43d;" horiz-adv-x="572" 
d="M96 0h-10v480h10v-235h380v235h10v-480h-10v235h-380v-235z" />
    <glyph glyph-name="uni043E" unicode="&#x43e;" horiz-adv-x="592" 
d="M51 240q0 115 71.5 182.5t173.5 67.5t173.5 -67.5t71.5 -182.5t-71.5 -182.5t-173.5 -67.5t-173.5 67.5t-71.5 182.5zM531 240q0 110 -68.5 175t-166.5 65t-166.5 -65t-68.5 -175t68.5 -175t166.5 -65t166.5 65t68.5 175z" />
    <glyph glyph-name="uni043F" unicode="&#x43f;" horiz-adv-x="572" 
d="M96 0h-10v480h400v-480h-10v470h-380v-470z" />
    <glyph glyph-name="uni0440" unicode="&#x440;" horiz-adv-x="611" 
d="M96 344q29 64 90 105t136 41q104 0 171 -67.5t67 -182.5t-67 -182.5t-171 -67.5q-75 0 -136 41t-90 105v-356h-10v700h10v-136zM550 240q0 110 -64 175t-164 65q-79 0 -140.5 -46.5t-85.5 -117.5v-152q24 -71 85.5 -117.5t140.5 -46.5q100 0 164 64.5t64 175.5z" />
    <glyph glyph-name="uni0441" unicode="&#x441;" horiz-adv-x="499" 
d="M51 235q0 65 22.5 115.5t60 80t82 44.5t92.5 15q82 0 139 -39v-10q-58 39 -139 39q-101 0 -174 -62.5t-73 -182.5q0 -114 68 -174.5t165 -60.5q89 0 158 38v-10q-68 -38 -158 -38q-100 0 -171.5 63t-71.5 182z" />
    <glyph glyph-name="uni0442" unicode="&#x442;" horiz-adv-x="450" 
d="M230 0h-10v470h-205v10h420v-10h-205v-470z" />
    <glyph glyph-name="uni0443" unicode="&#x443;" horiz-adv-x="528" 
d="M278 9l214 471h11l-259 -572q-34 -76 -70 -107t-84 -31q-22 0 -48 6v11q30 -7 48 -7q46 0 80 32t66 103l37 83l-254 482h11z" />
    <glyph glyph-name="uni0444" unicode="&#x444;" horiz-adv-x="690" 
d="M350 -220h-10v210q-128 2 -209 67.5t-81 182.5t81 182.5t209 67.5v210h10v-210q128 -2 209 -67.5t81 -182.5t-81 -182.5t-209 -67.5v-210zM60 240q0 -112 78 -175t202 -65v480q-124 -2 -202 -65t-78 -175zM350 480v-480q124 2 202 65t78 175t-78 175t-202 65z" />
    <glyph glyph-name="uni0445" unicode="&#x445;" horiz-adv-x="481" 
d="M438 480h13l-204 -234l215 -246h-13l-209 239l-209 -239h-13l216 246l-205 234h13l198 -226z" />
    <glyph glyph-name="uni0446" unicode="&#x446;" horiz-adv-x="584" 
d="M554 -140h-10v140h-458v480h10v-470h380v470h10v-470h68v-150z" />
    <glyph glyph-name="uni0447" unicode="&#x447;" horiz-adv-x="513" 
d="M427 0h-10v190q-74 -34 -173 -34q-92 0 -144.5 42.5t-52.5 128.5v153h10v-153q0 -81 49.5 -121t137.5 -40q98 0 173 34v280h10v-480z" />
    <glyph glyph-name="uni0448" unicode="&#x448;" horiz-adv-x="802" 
d="M716 0h-630v480h10v-470h300v470h10v-470h300v470h10v-480z" />
    <glyph glyph-name="uni0449" unicode="&#x449;" horiz-adv-x="814" 
d="M784 -140h-10v140h-688v480h10v-470h300v470h10v-470h300v470h10v-470h68v-150z" />
    <glyph glyph-name="uni044A" unicode="&#x44a;" 
d="M165 292h193q80 0 128.5 -41t48.5 -105t-48.5 -105t-128.5 -41h-203v470h-140v10h150v-188zM165 10h193q77 0 122 38.5t45 97.5q0 60 -45.5 98t-121.5 38h-193v-272z" />
    <glyph glyph-name="uni044B" unicode="&#x44b;" horiz-adv-x="662" 
d="M289 0h-203v480h10v-188h193q80 0 128.5 -41t48.5 -105t-48.5 -105t-128.5 -41zM96 282v-272h193q77 0 122 38.5t45 97.5q0 60 -45.5 98t-121.5 38h-193zM576 0h-10v480h10v-480z" />
    <glyph glyph-name="uni044C" unicode="&#x44c;" horiz-adv-x="501" 
d="M289 0h-203v480h10v-188h193q80 0 128.5 -41t48.5 -105t-48.5 -105t-128.5 -41zM96 282v-272h193q77 0 122 38.5t45 97.5q0 60 -45.5 98t-121.5 38h-193z" />
    <glyph glyph-name="uni044D" unicode="&#x44d;" horiz-adv-x="504" 
d="M453 235q0 -123 -70.5 -184t-172.5 -61q-87 0 -163 43v10q78 -43 163 -43q99 0 166 58.5t67 176.5h-301v10h301q-4 114 -76.5 174.5t-170.5 60.5q-79 0 -144 -44v10q64 44 144 44q103 0 180 -65.5t77 -189.5z" />
    <glyph glyph-name="uni044E" unicode="&#x44e;" horiz-adv-x="792" 
d="M741 240q0 -115 -71.5 -182.5t-173.5 -67.5q-101 0 -172.5 66t-72.5 179h-155v-235h-10v480h10v-235h155q1 113 72.5 179t172.5 66q102 0 173.5 -67.5t71.5 -182.5zM261 240q0 -110 68.5 -175t166.5 -65t166.5 65t68.5 175t-68.5 175t-166.5 65t-166.5 -65t-68.5 -175z
" />
    <glyph glyph-name="uni044F" unicode="&#x44f;" horiz-adv-x="535" 
d="M51 0h-12l150 201q-61 11 -96.5 47.5t-35.5 90.5q0 64 48.5 102.5t128.5 38.5h215v-480h-10v198h-205q-24 0 -35 2zM67 339q0 -59 45 -95t122 -36h205v262h-205q-78 0 -122.5 -36t-44.5 -95z" />
    <glyph glyph-name="uni0451" unicode="&#x451;" horiz-adv-x="543" 
d="M397 615q0 -15 -15 -15q-6 0 -10.5 4.5t-4.5 10.5t4.5 10.5t10.5 4.5q15 0 15 -15zM197 615q0 -15 -15 -15q-6 0 -10.5 4.5t-4.5 10.5t4.5 10.5t10.5 4.5q15 0 15 -15zM51 240q0 114 68.5 182t164.5 68q62 0 108.5 -25t69 -64.5t31 -83.5t2.5 -86h-434
q2 -116 73.5 -173.5t176.5 -57.5q92 0 155 37v-10q-63 -37 -155 -37q-111 0 -185.5 62.5t-74.5 187.5zM487 241q4 41 -5 81.5t-31.5 76.5t-65.5 58.5t-101 22.5q-92 0 -157 -64t-66 -175h426z" />
    <glyph glyph-name="Wgrave" unicode="&#x1e80;" horiz-adv-x="978" 
d="M937 700h11l-225 -700h-10l-224 674l-224 -674h-10l-225 700h11l219 -683l224 673h10l224 -673zM514 780h-13l-87 130h13z" />
    <glyph glyph-name="wgrave" unicode="&#x1e81;" horiz-adv-x="798" 
d="M758 480h11l-190 -480h-8l-172 458l-172 -458h-8l-190 480h11l183 -463l170 453h12l170 -453zM424 560h-13l-87 130h13z" />
    <glyph glyph-name="Wacute" unicode="&#x1e82;" horiz-adv-x="978" 
d="M937 700h11l-225 -700h-10l-224 674l-224 -674h-10l-225 700h11l219 -683l224 673h10l224 -673zM472 780h-13l87 130h13z" />
    <glyph glyph-name="wacute" unicode="&#x1e83;" horiz-adv-x="798" 
d="M758 480h11l-190 -480h-8l-172 458l-172 -458h-8l-190 480h11l183 -463l170 453h12l170 -453zM382 560h-13l87 130h13z" />
    <glyph glyph-name="Wdieresis" unicode="&#x1e84;" horiz-adv-x="978" 
d="M937 700h11l-225 -700h-10l-224 674l-224 -674h-10l-225 700h11l219 -683l224 673h10l224 -673zM604 835q0 -15 -15 -15q-6 0 -10.5 4.5t-4.5 10.5t4.5 10.5t10.5 4.5q15 0 15 -15zM404 835q0 -15 -15 -15q-6 0 -10.5 4.5t-4.5 10.5t4.5 10.5t10.5 4.5q15 0 15 -15z" />
    <glyph glyph-name="wdieresis" unicode="&#x1e85;" horiz-adv-x="798" 
d="M758 480h11l-190 -480h-8l-172 458l-172 -458h-8l-190 480h11l183 -463l170 453h12l170 -453zM514 615q0 -15 -15 -15q-6 0 -10.5 4.5t-4.5 10.5t4.5 10.5t10.5 4.5q15 0 15 -15zM314 615q0 -15 -15 -15q-6 0 -10.5 4.5t-4.5 10.5t4.5 10.5t10.5 4.5q15 0 15 -15z" />
    <glyph glyph-name="Ygrave" unicode="&#x1ef2;" horiz-adv-x="616" 
d="M313 0h-10v289l-276 411h12l269 -400l269 400h12l-276 -411v-289zM334 780h-13l-87 130h13z" />
    <glyph glyph-name="ygrave" unicode="&#x1ef3;" horiz-adv-x="528" 
d="M278 9l214 471h11l-259 -572q-34 -76 -70 -107t-84 -31q-22 0 -48 6v11q30 -7 48 -7q46 0 80 32t66 103l37 83l-254 482h11zM283 560h-13l-87 130h13z" />
    <glyph glyph-name="endash" unicode="&#x2013;" horiz-adv-x="566" 
d="M493 236h-420v10h420v-10z" />
    <glyph glyph-name="emdash" unicode="&#x2014;" horiz-adv-x="746" 
d="M673 236h-600v10h600v-10z" />
    <glyph glyph-name="quoteleft" unicode="&#x2018;" horiz-adv-x="173" 
d="M73 490h-10l49 210h10z" />
    <glyph glyph-name="quoteright" unicode="&#x2019;" horiz-adv-x="173" 
d="M73 490h-10l49 210h10z" />
    <glyph glyph-name="quotesinglbase" unicode="&#x201a;" horiz-adv-x="147" 
d="M41 -140h-10l49 210h10z" />
    <glyph glyph-name="quotedblleft" unicode="&#x201c;" horiz-adv-x="293" 
d="M193 490h-10l49 210h10zM73 490h-10l49 210h10z" />
    <glyph glyph-name="quotedblright" unicode="&#x201d;" horiz-adv-x="293" 
d="M193 490h-10l49 210h10zM73 490h-10l49 210h10z" />
    <glyph glyph-name="quotedblbase" unicode="&#x201e;" horiz-adv-x="267" 
d="M161 -140h-10l49 210h10zM41 -140h-10l49 210h10z" />
    <glyph glyph-name="dagger" unicode="&#x2020;" horiz-adv-x="472" 
d="M241 -220h-10v690h-195v10h195v220h10v-220h195v-10h-195v-690z" />
    <glyph glyph-name="daggerdbl" unicode="&#x2021;" horiz-adv-x="508" 
d="M259 -220h-10v350h-195v10h195v330h-195v10h195v220h10v-220h195v-10h-195v-330h195v-10h-195v-350z" />
    <glyph glyph-name="bullet" unicode="&#x2022;" horiz-adv-x="265" 
d="M103 350q0 13 8.5 21.5t21.5 8.5q12 0 21 -8.5t9 -21.5t-9 -21.5t-21 -8.5q-13 0 -21.5 8.5t-8.5 21.5z" />
    <glyph glyph-name="ellipsis" unicode="&#x2026;" horiz-adv-x="384" 
d="M327 10q0 -15 -15 -15q-6 0 -10.5 4.5t-4.5 10.5t4.5 10.5t10.5 4.5q15 0 15 -15zM87 10q0 -15 -15 -15q-6 0 -10.5 4.5t-4.5 10.5t4.5 10.5t10.5 4.5q15 0 15 -15zM207 10q0 -15 -15 -15q-6 0 -10.5 4.5t-4.5 10.5t4.5 10.5t10.5 4.5q15 0 15 -15z" />
    <glyph glyph-name="perthousand" unicode="&#x2030;" horiz-adv-x="1225" 
d="M234 -60h-11l409 820h11zM324 570q0 -66 -42 -103t-101 -37q-60 0 -102 37t-42 103t42 103t102 37q59 0 101 -37t42 -103zM47 570q0 -61 39 -95.5t95 -34.5q55 0 94 34.5t39 95.5t-39 95.5t-94 34.5q-56 0 -95 -34.5t-39 -95.5zM829 130q0 -66 -42 -103t-101 -37
q-60 0 -102 37t-42 103t42 103t102 37q59 0 101 -37t42 -103zM552 130q0 -61 39 -95.5t95 -34.5q55 0 94 34.5t39 95.5t-39 95.5t-94 34.5q-56 0 -95 -34.5t-39 -95.5zM1189 130q0 -66 -42 -103t-101 -37q-60 0 -102 37t-42 103t42 103t102 37q59 0 101 -37t42 -103z
M912 130q0 -61 39 -95.5t95 -34.5q55 0 94 34.5t39 95.5t-39 95.5t-94 34.5q-56 0 -95 -34.5t-39 -95.5z" />
    <glyph glyph-name="guilsinglleft" unicode="&#x2039;" horiz-adv-x="256" 
d="M183 72h-12l-117 165v6l117 165h12l-119 -168z" />
    <glyph glyph-name="guilsinglright" unicode="&#x203a;" horiz-adv-x="256" 
d="M85 72h-12l119 168l-119 168h12l117 -165v-6z" />
    <glyph glyph-name="fraction" unicode="&#x2044;" horiz-adv-x="160" 
d="M-143 -10h-13l455 720h13z" />
    <glyph glyph-name="Euro" unicode="&#x20ac;" horiz-adv-x="748" 
d="M670 40q-84 -50 -194 -50q-123 0 -220.5 70t-121.5 200h-86v10h85q-5 33 -5 65q0 41 7 75h-87v10h89q26 126 122.5 198t215.5 72q111 0 195 -49v-10q-87 49 -195 49q-115 0 -208.5 -69t-119.5 -191h411v-10h-413q-7 -34 -7 -75q0 -32 5 -65h415v-10h-413
q16 -85 67.5 -145.5t119 -87.5t144.5 -27q103 0 194 50v-10z" />
    <glyph glyph-name="trademark" unicode="&#x2122;" horiz-adv-x="652" 
d="M315 450h-10v250h11l119 -164l120 164h11v-250h-10v235l-117 -160h-8l-116 160v-235zM152 450h-10v240h-95v10h200v-10h-95v-240z" />
    <glyph glyph-name="oneeighth" unicode="&#x215b;" horiz-adv-x="897" 
d="M555 317q0 40 37.5 68.5t104.5 28.5q66 0 104 -31t38 -72q0 -78 -73 -116q88 -32 88 -98q0 -42 -41 -72.5t-116 -30.5q-76 0 -116.5 32t-40.5 82q0 39 22 71t62 50q-69 29 -69 88zM697 205q-45 13 -63 20q-39 -17 -61.5 -48t-22.5 -68q0 -46 38 -75.5t109 -29.5
q70 0 108.5 27.5t38.5 65.5q0 20 -9 36t-20.5 25.5t-34.5 19.5t-38.5 14.5t-44.5 12.5zM829 310q0 37 -35.5 65.5t-96.5 28.5q-62 0 -97 -25.5t-35 -61.5q0 -17 5 -30.5t18 -24t21 -16.5t30 -13.5t27.5 -9t29.5 -8.5q10 -3 29.5 -8.5t29.5 -7.5q34 16 54 45t20 66zM195 -10
h-13l455 720h13zM164 680h7v-398h81v-10h-198v10h107v386l-96 -36v10z" />
    <glyph glyph-name="threeeighths" unicode="&#x215c;" horiz-adv-x="955" 
d="M613 317q0 40 37.5 68.5t104.5 28.5q66 0 104 -31t38 -72q0 -78 -73 -116q88 -32 88 -98q0 -42 -41 -72.5t-116 -30.5q-76 0 -116.5 32t-40.5 82q0 39 22 71t62 50q-69 29 -69 88zM755 205q-45 13 -63 20q-39 -17 -61.5 -48t-22.5 -68q0 -46 38 -75.5t109 -29.5
q70 0 108.5 27.5t38.5 65.5q0 20 -9 36t-20.5 25.5t-34.5 19.5t-38.5 14.5t-44.5 12.5zM887 310q0 37 -35.5 65.5t-96.5 28.5q-62 0 -97 -25.5t-35 -61.5q0 -17 5 -30.5t18 -24t21 -16.5t30 -13.5t27.5 -9t29.5 -8.5q9 -3 29.5 -8.5t29.5 -7.5q34 16 54 45t20 66zM263 -10
h-13l455 720h13zM322 583q0 -34 -21.5 -60.5t-63.5 -34.5q45 -7 73.5 -33.5t28.5 -71.5q0 -53 -37 -83t-98 -30q-87 0 -142 26v10q58 -26 142 -26q57 0 91 27t34 76q0 50 -36 74.5t-92 24.5h-59v10h58q56 0 84 26.5t28 64.5q0 41 -32 69t-87 28q-64 0 -124 -26v10
q55 26 125 26q59 0 93.5 -31t34.5 -76z" />
    <glyph glyph-name="fiveeighths" unicode="&#x215d;" horiz-adv-x="943" 
d="M601 317q0 40 37.5 68.5t104.5 28.5q66 0 104 -31t38 -72q0 -78 -73 -116q88 -32 88 -98q0 -42 -41 -72.5t-116 -30.5q-76 0 -116.5 32t-40.5 82q0 39 22 71t62 50q-69 29 -69 88zM743 205q-46 13 -63 20q-39 -17 -61.5 -48t-22.5 -68q0 -46 38 -75.5t109 -29.5
q70 0 108.5 27.5t38.5 65.5q0 20 -9 36t-20.5 25.5t-34.5 19.5t-38.5 14.5t-44.5 12.5zM875 310q0 37 -35.5 65.5t-96.5 28.5q-62 0 -97 -25.5t-35 -61.5q0 -17 5 -30.5t18 -24t21 -16.5t30 -13.5t27.5 -9t29.5 -8.5q10 -3 30 -8.5t29 -7.5q34 16 54 45t20 66zM251 -10h-13
l455 720h13zM81 680h230v-10h-220l-12 -184q51 17 104 17q64 0 106 -29.5t42 -88.5q0 -53 -39 -86t-104 -33q-76 0 -130 27v10q57 -27 130 -27q60 0 96.5 30t36.5 79q0 55 -39 81.5t-101 26.5q-56 0 -113 -19z" />
    <glyph glyph-name="seveneighths" unicode="&#x215e;" horiz-adv-x="828" 
d="M136 -10h-13l455 720h13zM486 317q0 40 37.5 68.5t104.5 28.5q66 0 104 -31t38 -72q0 -78 -73 -116q88 -32 88 -98q0 -42 -41 -72.5t-116 -30.5q-76 0 -116.5 32t-40.5 82q0 39 22 71t62 50q-69 29 -69 88zM628 205q-46 13 -63 20q-39 -17 -61.5 -48t-22.5 -68
q0 -46 38 -75.5t109 -29.5q70 0 108.5 27.5t38.5 65.5q0 20 -9 36t-20.5 25.5t-34.5 19.5t-38.5 14.5t-44.5 12.5zM760 310q0 37 -35.5 65.5t-96.5 28.5q-62 0 -97 -25.5t-35 -61.5q0 -17 5 -30.5t18 -24t21 -16.5t30 -13.5t27.5 -9t29.5 -8.5q9 -3 29.5 -8.5t29.5 -7.5
q34 16 54 45t20 66zM127 272h-11l174 398h-251v10h263v-8z" />
    <glyph glyph-name="partialdiff" unicode="&#x2202;" horiz-adv-x="594" 
d="M536 265q0 -123 -67 -199t-178 -76q-106 0 -173 64t-67 171q0 98 68.5 161.5t165.5 63.5q55 0 104.5 -21.5t88 -70.5t47.5 -118q1 8 1 25q0 199 -120 312t-305 113v10q188 0 311.5 -116.5t123.5 -318.5zM61 225q0 -103 64.5 -164t165.5 -61q90 0 151 53.5t78 145.5
q-1 79 -37.5 135.5t-87.5 81t-110 24.5q-93 0 -158.5 -60.5t-65.5 -154.5z" />
    <glyph glyph-name="emptyset" unicode="&#x2205;" horiz-adv-x="824" 
d="M718 700l-69 -80q57 -51 90 -121t33 -149q0 -148 -106 -254t-254 -106q-129 0 -231 84l-63 -74h-12l69 80q-57 51 -90 121t-33 149q0 148 106 254t254 106q130 0 230 -84l64 74h12zM412 700q-145 0 -247.5 -103t-102.5 -247q0 -77 31.5 -145t87.5 -117l455 530
q-98 82 -224 82zM188 82q98 -82 224 -82q144 0 247 103t103 247q0 77 -31.5 145t-87.5 117z" />
    <glyph glyph-name="product" unicode="&#x220f;" horiz-adv-x="714" 
d="M152 -220h-10v910h-105v10h640v-10h-105v-910h-10v910h-410v-910z" />
    <glyph glyph-name="summation" unicode="&#x2211;" horiz-adv-x="562" 
d="M504 0h-464v8l297 342l-297 342v8h458v-10h-443l293 -337v-6l-293 -337h449v-10z" />
    <glyph glyph-name="minus" unicode="&#x2212;" horiz-adv-x="514" 
d="M437 345h-360v10h360v-10z" />
    <glyph glyph-name="radical" unicode="&#x221a;" horiz-adv-x="708" 
d="M336 0h-10l-199 470h-92v10h98l198 -468l360 768h11z" />
    <glyph glyph-name="infinity" unicode="&#x221e;" horiz-adv-x="820" 
d="M410 368q23 37 37.5 57.5t39 46t53 37.5t62.5 12q66 0 111.5 -44.5t45.5 -118.5t-45.5 -118.5t-111.5 -44.5q-34 0 -62.5 12t-53 37.5t-39 46t-37.5 57.5q-23 -38 -37.5 -57.5t-39 -46t-52.5 -38t-63 -11.5q-66 0 -111.5 44.5t-45.5 118.5t45.5 118.5t111.5 44.5
q35 0 63 -11.5t52.5 -38t39 -46t37.5 -57.5zM404 358q-23 38 -37 58t-37.5 46t-51 37.5t-60.5 11.5q-62 0 -104.5 -41.5t-42.5 -111.5t42.5 -111.5t104.5 -41.5q33 0 60.5 11.5t51 37.5t37.5 46t37 58zM749 358q0 70 -42.5 111.5t-104.5 41.5q-33 0 -60 -11.5t-51 -37
t-38 -46t-37 -58.5q23 -38 37 -58.5t38 -46t51 -37t60 -11.5q62 0 104.5 41.5t42.5 111.5z" />
    <glyph glyph-name="integral" unicode="&#x222b;" horiz-adv-x="380" 
d="M185 667q0 64 36 93.5t85 29.5q39 0 63 -13v-10q-31 13 -63 13q-46 0 -78.5 -27t-32.5 -86v-774q0 -64 -36 -93.5t-85 -29.5q-35 0 -63 13v10q29 -13 63 -13q46 0 78.5 27t32.5 86v774z" />
    <glyph glyph-name="approxequal" unicode="&#x2248;" horiz-adv-x="575" 
d="M499 461q0 -32 -20.5 -53t-56.5 -21q-37 0 -132 37t-131 37q-32 0 -49.5 -18t-17.5 -46h-10q0 32 20.5 53t56.5 21q38 0 132.5 -37t130.5 -37q31 0 49 18t18 46h10zM499 321q0 -32 -20.5 -53t-56.5 -21q-37 0 -132 37t-131 37q-32 0 -49.5 -18t-17.5 -46h-10
q0 32 20.5 53t56.5 21q38 0 132.5 -37t130.5 -37q31 0 49 18t18 46h10z" />
    <glyph glyph-name="notequal" unicode="&#x2260;" horiz-adv-x="532" 
d="M144 153h-12l66 102h-122v10h129l110 170h-239v10h246l66 102h12l-66 -102h122v-10h-129l-110 -170h239v-10h-246z" />
    <glyph glyph-name="lessequal" unicode="&#x2264;" horiz-adv-x="529" 
d="M436 192v-11l-351 163v12l351 163v-11l-340 -158zM436 0h-351v10h351v-10z" />
    <glyph glyph-name="greaterequal" unicode="&#x2265;" horiz-adv-x="529" 
d="M444 344l-351 -163v11l340 158l-340 158v11l351 -163v-12zM444 0h-351v10h351v-10z" />
    <glyph glyph-name="lozenge" unicode="&#x25ca;" horiz-adv-x="536" 
d="M274 0h-12l-220 350l220 350h12l220 -350zM54 350l214 -341l214 341l-214 341z" />
    <glyph glyph-name="i.loclTRK" horiz-adv-x="190" 
d="M90 480h10v-480h-10v480zM75 595q0 8 6 14t14 6t14 -6t6 -14t-6 -14t-14 -6t-14 6t-6 14z" />
    <glyph glyph-name="a.ss01" horiz-adv-x="611" 
d="M515 136q-28 -65 -87 -105.5t-134 -40.5q-105 0 -174 68t-69 182t69 182t174 68q75 0 134 -40.5t87 -105.5v136h10v-480h-10v136zM61 240q0 -110 66 -175t167 -65q79 0 138.5 46t82.5 118v152q-23 72 -82.5 118t-138.5 46q-101 0 -167 -65t-66 -175z" />
    <glyph glyph-name="aacute.ss01" horiz-adv-x="611" 
d="M515 136q-28 -65 -87 -105.5t-134 -40.5q-105 0 -174 68t-69 182t69 182t174 68q75 0 134 -40.5t87 -105.5v136h10v-480h-10v136zM61 240q0 -110 66 -175t167 -65q79 0 138.5 46t82.5 118v152q-23 72 -82.5 118t-138.5 46q-101 0 -167 -65t-66 -175zM287 560h-13l87 130
h13z" />
    <glyph glyph-name="abreve.ss01" horiz-adv-x="611" 
d="M515 136q-28 -65 -87 -105.5t-134 -40.5q-105 0 -174 68t-69 182t69 182t174 68q75 0 134 -40.5t87 -105.5v136h10v-480h-10v136zM61 240q0 -110 66 -175t167 -65q79 0 138.5 46t82.5 118v152q-23 72 -82.5 118t-138.5 46q-101 0 -167 -65t-66 -175zM424 606
q-46 -41 -120 -41t-120 41v13q48 -44 120 -44t120 44v-13z" />
    <glyph glyph-name="acircumflex.ss01" horiz-adv-x="611" 
d="M515 136q-28 -65 -87 -105.5t-134 -40.5q-105 0 -174 68t-69 182t69 182t174 68q75 0 134 -40.5t87 -105.5v136h10v-480h-10v136zM61 240q0 -110 66 -175t167 -65q79 0 138.5 46t82.5 118v152q-23 72 -82.5 118t-138.5 46q-101 0 -167 -65t-66 -175zM300 680h8l125 -120
h-13l-116 111l-116 -111h-13z" />
    <glyph glyph-name="adieresis.ss01" horiz-adv-x="611" 
d="M515 136q-28 -65 -87 -105.5t-134 -40.5q-105 0 -174 68t-69 182t69 182t174 68q75 0 134 -40.5t87 -105.5v136h10v-480h-10v136zM61 240q0 -110 66 -175t167 -65q79 0 138.5 46t82.5 118v152q-23 72 -82.5 118t-138.5 46q-101 0 -167 -65t-66 -175zM419 615
q0 -15 -15 -15q-6 0 -10.5 4.5t-4.5 10.5t4.5 10.5t10.5 4.5q15 0 15 -15zM219 615q0 -15 -15 -15q-6 0 -10.5 4.5t-4.5 10.5t4.5 10.5t10.5 4.5q15 0 15 -15z" />
    <glyph glyph-name="agrave.ss01" horiz-adv-x="611" 
d="M515 136q-28 -65 -87 -105.5t-134 -40.5q-105 0 -174 68t-69 182t69 182t174 68q75 0 134 -40.5t87 -105.5v136h10v-480h-10v136zM61 240q0 -110 66 -175t167 -65q79 0 138.5 46t82.5 118v152q-23 72 -82.5 118t-138.5 46q-101 0 -167 -65t-66 -175zM329 560h-13l-87 130
h13z" />
    <glyph glyph-name="amacron.ss01" horiz-adv-x="611" 
d="M515 136q-28 -65 -87 -105.5t-134 -40.5q-105 0 -174 68t-69 182t69 182t174 68q75 0 134 -40.5t87 -105.5v136h10v-480h-10v136zM61 240q0 -110 66 -175t167 -65q79 0 138.5 46t82.5 118v152q-23 72 -82.5 118t-138.5 46q-101 0 -167 -65t-66 -175zM184 608h240v-10
h-240v10z" />
    <glyph glyph-name="aogonek.ss01" horiz-adv-x="611" 
d="M525 480v-480q-60 -51 -89.5 -86.5t-29.5 -73.5q0 -29 17.5 -44.5t46.5 -15.5t55 10v-10q-24 -10 -55 -10q-33 0 -53.5 18.5t-20.5 51.5q0 38 28 74.5t91 89.5v132q-28 -65 -87 -105.5t-134 -40.5q-105 0 -174 68t-69 182t69 182t174 68q75 0 134 -40.5t87 -105.5v136h10
zM61 240q0 -110 66 -175t167 -65q79 0 138.5 46t82.5 118v152q-23 72 -82.5 118t-138.5 46q-101 0 -167 -65t-66 -175z" />
    <glyph glyph-name="aring.ss01" horiz-adv-x="611" 
d="M515 136q-28 -65 -87 -105.5t-134 -40.5q-105 0 -174 68t-69 182t69 182t174 68q75 0 134 -40.5t87 -105.5v136h10v-480h-10v136zM61 240q0 -110 66 -175t167 -65q79 0 138.5 46t82.5 118v152q-23 72 -82.5 118t-138.5 46q-101 0 -167 -65t-66 -175zM381 616
q0 -33 -23 -54t-54 -21t-54 21t-23 54t23 54t54 21t54 -21t23 -54zM237 616q0 -29 20 -47t47 -18t47 18t20 47t-20 47t-47 18t-47 -18t-20 -47z" />
    <glyph glyph-name="atilde.ss01" horiz-adv-x="611" 
d="M515 136q-28 -65 -87 -105.5t-134 -40.5q-105 0 -174 68t-69 182t69 182t174 68q75 0 134 -40.5t87 -105.5v136h10v-480h-10v136zM61 240q0 -110 66 -175t167 -65q79 0 138.5 46t82.5 118v152q-23 72 -82.5 118t-138.5 46q-101 0 -167 -65t-66 -175zM442 639
q3 -28 -10 -46t-41 -18q-26 0 -87 30t-86 30q-22 0 -33 -15t-8 -40h-10q-4 27 10.5 46t40.5 19t87 -30t86 -30q46 0 41 54h10z" />
    <glyph glyph-name="ae.ss01" horiz-adv-x="1009" 
d="M515 136q-28 -65 -87 -105.5t-134 -40.5q-105 0 -174 68t-69 182t69 182t174 68q75 0 134 -40.5t87 -105.5v136h10v-162q22 80 84 126t139 46q50 0 90.5 -16.5t64 -44t39.5 -62t18 -71t-1 -70.5h-434q2 -112 73.5 -169t176.5 -57q92 0 155 37v-10q-63 -37 -155 -37
q-90 0 -158.5 42t-91.5 126v-158h-10v136zM61 240q0 -110 66 -175t167 -65q79 0 138.5 46t82.5 118v152q-23 72 -82.5 118t-138.5 46q-101 0 -167 -65t-66 -175zM748 480q-92 0 -157 -64.5t-66 -179.5h426q4 43 -5 84.5t-31.5 78t-65.5 59t-101 22.5z" />
    <glyph glyph-name="y.ss01" 
d="M484 -10q0 -111 -68 -165.5t-161 -54.5q-98 0 -156 36v10q63 -36 156 -36q56 0 103.5 19.5t81.5 68.5t34 122v127q-31 -50 -85 -88.5t-127 -38.5q-79 0 -131 52.5t-52 142.5v295h10v-295q0 -86 49 -135.5t124 -49.5q74 0 128.5 41t83.5 96v343h10v-490z" />
    <glyph glyph-name="yacute.ss01" 
d="M484 -10q0 -111 -68 -165.5t-161 -54.5q-98 0 -156 36v10q63 -36 156 -36q56 0 103.5 19.5t81.5 68.5t34 122v127q-31 -50 -85 -88.5t-127 -38.5q-79 0 -131 52.5t-52 142.5v295h10v-295q0 -86 49 -135.5t124 -49.5q74 0 128.5 41t83.5 96v343h10v-490zM273 560h-13
l87 130h13z" />
    <glyph glyph-name="ycircumflex.ss01" 
d="M484 -10q0 -111 -68 -165.5t-161 -54.5q-98 0 -156 36v10q63 -36 156 -36q56 0 103.5 19.5t81.5 68.5t34 122v127q-31 -50 -85 -88.5t-127 -38.5q-79 0 -131 52.5t-52 142.5v295h10v-295q0 -86 49 -135.5t124 -49.5q74 0 128.5 41t83.5 96v343h10v-490zM286 680h8
l125 -120h-13l-116 111l-116 -111h-13z" />
    <glyph glyph-name="ydieresis.ss01" 
d="M484 -10q0 -111 -68 -165.5t-161 -54.5q-98 0 -156 36v10q63 -36 156 -36q56 0 103.5 19.5t81.5 68.5t34 122v127q-31 -50 -85 -88.5t-127 -38.5q-79 0 -131 52.5t-52 142.5v295h10v-295q0 -86 49 -135.5t124 -49.5q74 0 128.5 41t83.5 96v343h10v-490zM405 615
q0 -15 -15 -15q-6 0 -10.5 4.5t-4.5 10.5t4.5 10.5t10.5 4.5q15 0 15 -15zM205 615q0 -15 -15 -15q-6 0 -10.5 4.5t-4.5 10.5t4.5 10.5t10.5 4.5q15 0 15 -15z" />
    <glyph glyph-name="ygrave.ss01" 
d="M484 -10q0 -111 -68 -165.5t-161 -54.5q-98 0 -156 36v10q63 -36 156 -36q56 0 103.5 19.5t81.5 68.5t34 122v127q-31 -50 -85 -88.5t-127 -38.5q-79 0 -131 52.5t-52 142.5v295h10v-295q0 -86 49 -135.5t124 -49.5q74 0 128.5 41t83.5 96v343h10v-490zM315 560h-13
l-87 130h13z" />
    <glyph glyph-name="f_b" horiz-adv-x="950" 
d="M435 344q29 64 90 105t136 41q104 0 171 -67.5t67 -182.5t-67 -182.5t-171 -67.5q-75 0 -136 41t-90 105v-136h-10v655q-73 45 -163 45q-67 0 -107 -37.5t-40 -103.5v-79h206v-10h-206v-470h-10v470h-80v10h80v79q0 73 45 112t112 39q88 0 163 -44v34l10 5v-361zM435 164
q24 -71 85.5 -117.5t140.5 -46.5q100 0 164 65t64 175q0 111 -64 175.5t-164 64.5q-79 0 -140.5 -46.5t-85.5 -117.5v-152z" />
    <glyph glyph-name="f_f_b" horiz-adv-x="1260" 
d="M745 344q29 64 90 105t136 41q104 0 171 -67.5t67 -182.5t-67 -182.5t-171 -67.5q-75 0 -136 41t-90 105v-136h-10v655q-73 45 -163 45q-67 0 -107 -37.5t-40 -103.5v-79h206v-10h-206v-470h-10v470h-300v-470h-10v470h-80v10h80v59q0 74 46.5 112.5t120.5 38.5
q82 0 160 -56q38 76 140 76q88 0 163 -44v34l10 5v-361zM415 480v79q0 36 13 67q-75 54 -156 54q-74 0 -115.5 -37t-41.5 -104v-59h300zM745 164q24 -71 85.5 -117.5t140.5 -46.5q100 0 164 65t64 175q0 111 -64 175.5t-164 64.5q-79 0 -140.5 -46.5t-85.5 -117.5v-152z" />
    <glyph glyph-name="f_f_h" horiz-adv-x="1219" 
d="M745 363q31 50 85 88.5t127 38.5q79 0 131 -52.5t52 -142.5v-295h-10v295q0 86 -49 135.5t-124 49.5q-74 0 -128.5 -41t-83.5 -96v-343h-10v655q-73 45 -163 45q-67 0 -107 -37.5t-40 -103.5v-79h206v-10h-206v-470h-10v470h-300v-470h-10v470h-80v10h80v59
q0 74 46.5 112.5t120.5 38.5q82 0 160 -56q38 76 140 76q88 0 163 -44v34l10 5v-342zM415 480v79q0 36 13 67q-75 54 -156 54q-74 0 -115.5 -37t-41.5 -104v-59h300z" />
    <glyph glyph-name="f_f_j" horiz-adv-x="825" 
d="M735 -123q0 -57 -32 -82t-79 -25q-36 0 -67 11v10q31 -11 67 -11q44 0 72.5 22.5t28.5 74.5v593h-300v-470h-10v470h-300v-470h-10v470h-80v10h80v59q0 74 46.5 112.5t120.5 38.5q83 0 158 -55q19 36 57 55.5t85 19.5q84 0 159 -48v-11q-75 49 -159 49q-66 0 -106.5 -36
t-40.5 -95v-89h310v-603zM115 539v-59h300v89q0 31 11 58q-75 53 -154 53q-74 0 -115.5 -37t-41.5 -104z" />
    <glyph glyph-name="f_f_k" horiz-adv-x="1131" 
d="M1097 480l-204 -231l234 -249h-13l-231 245h-138v-245h-10v655q-73 45 -163 45q-67 0 -107 -37.5t-40 -103.5v-79h206v-10h-206v-470h-10v470h-300v-470h-10v470h-80v10h80v59q0 74 46.5 112.5t120.5 38.5q82 0 160 -56q38 76 140 76q88 0 163 -44v34l10 5v-450h140
l199 225h13zM415 480v79q0 36 13 67q-75 54 -156 54q-74 0 -115.5 -37t-41.5 -104v-59h300z" />
    <glyph glyph-name="f_h" horiz-adv-x="909" 
d="M435 363q31 50 85 88.5t127 38.5q79 0 131 -52.5t52 -142.5v-295h-10v295q0 86 -49 135.5t-124 49.5q-74 0 -128.5 -41t-83.5 -96v-343h-10v655q-73 45 -163 45q-67 0 -107 -37.5t-40 -103.5v-79h206v-10h-206v-470h-10v470h-80v10h80v79q0 73 45 112t112 39
q88 0 163 -44v34l10 5v-342z" />
    <glyph glyph-name="f_i" horiz-adv-x="515" 
d="M115 480h310v-480h-10v470h-300v-470h-10v470h-80v10h80v79q0 73 45 112t112 39q84 0 159 -48v-11q-75 49 -159 49q-67 0 -107 -37.5t-40 -103.5v-79z" />
    <glyph glyph-name="f_j" horiz-adv-x="515" 
d="M115 480h310v-603q0 -57 -32 -82t-79 -25q-36 0 -67 11v10q31 -11 67 -11q44 0 72.5 22.5t28.5 74.5v593h-300v-470h-10v470h-80v10h80v79q0 73 45 112t112 39q84 0 159 -48v-11q-75 49 -159 49q-67 0 -107 -37.5t-40 -103.5v-79z" />
    <glyph glyph-name="f_k" horiz-adv-x="821" 
d="M787 480l-204 -231l234 -249h-13l-231 245h-138v-245h-10v655q-73 45 -163 45q-67 0 -107 -37.5t-40 -103.5v-79h206v-10h-206v-470h-10v470h-80v10h80v79q0 73 45 112t112 39q88 0 163 -44v34l10 5v-450h140l199 225h13z" />
    <glyph glyph-name="f_l" horiz-adv-x="525" 
d="M425 666v34l10 5v-705h-10v655q-73 45 -163 45q-67 0 -107 -37.5t-40 -103.5v-79h206v-10h-206v-470h-10v470h-80v10h80v79q0 73 45 112t112 39q88 0 163 -44z" />
    <glyph glyph-name="uni0414.loclBGR" horiz-adv-x="796" 
d="M38 -180h-10v190h71l292 690h14l292 -690h71v-190h-10v180h-720v-180zM398 691l-288 -681h576z" />
    <glyph glyph-name="uni041B.loclBGR" horiz-adv-x="668" 
d="M329 700h10l310 -700h-11l-304 688l-304 -688h-11z" />
    <glyph glyph-name="uni0424.loclBGR" horiz-adv-x="878" 
d="M444 -110h-10v100q-170 1 -275 102.5t-105 257.5t105 257.5t275 102.5v100h10v-100q170 -1 275 -102.5t105 -257.5t-105 -257.5t-275 -102.5v-100zM64 350q0 -152 102 -250.5t268 -99.5v700q-166 -1 -268 -99.5t-102 -250.5zM444 700v-700q166 1 268 99.5t102 250.5
t-102 250.5t-268 99.5z" />
    <glyph glyph-name="uni0432.loclBGR" horiz-adv-x="573" 
d="M481 553q0 -121 -141 -167q77 -4 130.5 -58.5t53.5 -136.5q0 -88 -60.5 -144.5t-158.5 -56.5q-107 0 -169.5 70t-62.5 209v96q-1 168 59 256.5t177 88.5q76 0 124 -44.5t48 -112.5zM471 553q0 64 -45 105.5t-117 41.5q-227 0 -226 -335v-19l211 38q177 38 177 169z
M83 269q0 -136 60.5 -202.5t161.5 -66.5q90 0 149.5 52t59.5 139q0 89 -66 143.5t-157 38.5l-208 -37v-67z" />
    <glyph glyph-name="uni0433.loclBGR" horiz-adv-x="462" 
d="M412 39q-31 -22 -82.5 -35.5t-99.5 -13.5q-80 0 -132.5 30.5t-52.5 88.5q0 54 36 84t87.5 41t103.5 21t88 37t36 76q0 56 -46 84t-113 28q-85 0 -171 -42v10q84 42 171 42q70 0 119.5 -30.5t49.5 -91.5q0 -52 -36 -80.5t-87.5 -39t-103.5 -21t-88 -39t-36 -79.5
q0 -53 49 -81t126 -28q47 0 97.5 13.5t84.5 35.5v-10z" />
    <glyph glyph-name="uni0434.loclBGR" horiz-adv-x="611" 
d="M51 240q0 115 67 182.5t171 67.5q75 0 136 -41t90 -105v136h10v-480q0 -114 -72 -172t-177 -58q-99 0 -186 46v10q92 -46 186 -46q101 0 170 55.5t69 164.5v136q-29 -64 -90 -105t-136 -41q-104 0 -171 67.5t-67 182.5zM515 316q-24 71 -85.5 117.5t-140.5 46.5
q-100 0 -164 -64.5t-64 -175.5q0 -110 64 -175t164 -65q79 0 140.5 46.5t85.5 117.5v152z" />
    <glyph glyph-name="uni0436.loclBGR" horiz-adv-x="696" 
d="M24 0h-13l224 249l-194 231h13l190 -225h99v445h10v-445h99l190 225h13l-194 -231l224 -249h-13l-221 245h-98v-245h-10v245h-98z" />
    <glyph glyph-name="uni0438.loclBGR" 
d="M474 480h10v-480h-10v117q-31 -50 -85 -88.5t-127 -38.5q-79 0 -131 52.5t-52 142.5v295h10v-295q0 -86 49 -135.5t124 -49.5q74 0 128.5 41t83.5 96v343z" />
    <glyph glyph-name="uni0439.loclBGR" 
d="M410 606q-46 -41 -120 -41t-120 41v13q48 -44 120 -44t120 44v-13zM474 480h10v-480h-10v117q-31 -50 -85 -88.5t-127 -38.5q-79 0 -131 52.5t-52 142.5v295h10v-295q0 -86 49 -135.5t124 -49.5q74 0 128.5 41t83.5 96v343z" />
    <glyph glyph-name="uni043A.loclBGR" horiz-adv-x="488" 
d="M478 0h-13l-231 245h-138v-245h-10v700h10v-445h140l199 225h13l-204 -231z" />
    <glyph glyph-name="uni043B.loclBGR" horiz-adv-x="518" 
d="M494 0h-11l-224 469l-224 -469h-11l229 480h12z" />
    <glyph glyph-name="uni043F.loclBGR" 
d="M96 363q31 50 85 88.5t127 38.5q79 0 131 -52.5t52 -142.5v-295h-10v295q0 86 -49 135.5t-124 49.5q-74 0 -128.5 -41t-83.5 -96v-343h-10v480h10v-117z" />
    <glyph glyph-name="uni0442.loclBGR" horiz-adv-x="894" 
d="M96 0h-10v480h10v-111q30 48 81 84.5t116 36.5q59 0 101.5 -32t57.5 -85q31 47 81 82t114 35q73 0 120 -48.5t47 -124.5v-317h-10v315q0 71 -43 118t-114 47q-62 0 -111.5 -35.5t-79.5 -85.5q4 -17 4 -42v-317h-10v315q0 71 -43 118t-114 47q-65 0 -116.5 -39.5
t-80.5 -91.5v-349z" />
    <glyph glyph-name="uni0446.loclBGR" horiz-adv-x="591" 
d="M484 82q0 -72 75 -72h12v-150h-10v140h-2q-85 0 -85 82v35q-31 -50 -85 -88.5t-127 -38.5q-79 0 -131 52.5t-52 142.5v295h10v-295q0 -86 49 -135.5t124 -49.5q74 0 128.5 41t83.5 96v343h10v-398z" />
    <glyph glyph-name="uni0448.loclBGR" horiz-adv-x="894" 
d="M798 480h10v-480h-10v111q-30 -48 -81 -84.5t-116 -36.5q-59 0 -101.5 32t-57.5 85q-31 -47 -81 -82t-114 -35q-73 0 -120 48.5t-47 124.5v317h10v-315q0 -71 43 -118t114 -47q62 0 111.5 35.5t79.5 85.5q-4 17 -4 42v317h10v-315q0 -71 43 -118t114 -47q65 0 116.5 39.5
t80.5 91.5v349z" />
    <glyph glyph-name="uni0449.loclBGR" horiz-adv-x="915" 
d="M808 82q0 -72 75 -72h12v-150h-10v140h-2q-85 0 -85 82v29q-30 -48 -81 -84.5t-116 -36.5q-59 0 -101.5 32t-57.5 85q-31 -47 -81 -82t-114 -35q-73 0 -120 48.5t-47 124.5v317h10v-315q0 -71 43 -118t114 -47q62 0 111.5 35.5t79.5 85.5q-4 17 -4 42v317h10v-315
q0 -71 43 -118t114 -47q65 0 116.5 39.5t80.5 91.5v349h10v-398z" />
    <glyph glyph-name="uni044E.loclBGR" horiz-adv-x="792" 
d="M741 240q0 -115 -71.5 -182.5t-173.5 -67.5q-101 0 -172.5 66t-72.5 179h-155v-235h-10v700h10v-455h155q1 113 72.5 179t172.5 66q102 0 173.5 -67.5t71.5 -182.5zM261 240q0 -110 68.5 -175t166.5 -65t166.5 65t68.5 175t-68.5 175t-166.5 65t-166.5 -65t-68.5 -175z
" />
    <glyph glyph-name="uni0430.ss01" horiz-adv-x="611" 
d="M515 136q-28 -65 -87 -105.5t-134 -40.5q-105 0 -174 68t-69 182t69 182t174 68q75 0 134 -40.5t87 -105.5v136h10v-480h-10v136zM61 240q0 -110 66 -175t167 -65q79 0 138.5 46t82.5 118v152q-23 72 -82.5 118t-138.5 46q-101 0 -167 -65t-66 -175z" />
    <glyph glyph-name="uni0437.ss01" horiz-adv-x="447" 
d="M369 333q0 -123 -140 -167q77 -4 130 -58.5t53 -136.5q0 -89 -62.5 -145t-166.5 -56t-169 44v10q66 -44 169 -44q97 0 158 51.5t61 139.5q0 90 -67.5 146t-160.5 35l-52 -12v10l60 14q91 20 134 60.5t43 108.5q0 64 -45 105.5t-117 41.5q-92 0 -162 -43v10q72 43 162 43
q76 0 124 -44.5t48 -112.5z" />
    <glyph glyph-name="uni0443.ss01" 
d="M484 -10q0 -111 -68 -165.5t-161 -54.5q-98 0 -156 36v10q63 -36 156 -36q56 0 103.5 19.5t81.5 68.5t34 122v127q-31 -50 -85 -88.5t-127 -38.5q-79 0 -131 52.5t-52 142.5v295h10v-295q0 -86 49 -135.5t124 -49.5q74 0 128.5 41t83.5 96v343h10v-490z" />
    <glyph glyph-name="zero.osf" horiz-adv-x="664" 
d="M608 260q0 -109 -73.5 -189.5t-202.5 -80.5t-202.5 80.5t-73.5 189.5q0 110 73.5 190t202.5 80t202.5 -80t73.5 -190zM66 260q0 -105 71 -182.5t195 -77.5t195 77.5t71 182.5t-71 182.5t-195 77.5t-195 -77.5t-71 -182.5z" />
    <glyph glyph-name="one.osf" horiz-adv-x="400" 
d="M224 520h5v-510h146v-10h-316v10h160v497l-160 -60v10z" />
    <glyph glyph-name="two.osf" horiz-adv-x="519" 
d="M462 0h-407v10q0 17 3 32t7 27t13.5 24t16 20t21.5 18.5t23 16t27.5 15.5t28 14t31.5 14.5t31 14.5q12 6 42 18.5t44 19.5t37 21.5t33.5 28t19.5 34.5t9 46q0 64 -51 105t-126 41q-95 0 -195 -55v10q93 55 195 55q79 0 133 -43.5t54 -112.5q0 -27 -9 -49.5t-20.5 -37
t-34.5 -29.5t-38 -22t-46 -20t-43 -19q-8 -4 -34 -15.5t-34 -15.5t-29 -15t-28.5 -17t-22.5 -17.5t-21 -21.5t-14 -23.5t-10.5 -28.5t-2.5 -33h397v-10z" />
    <glyph glyph-name="three.osf" horiz-adv-x="541" 
d="M459 352q0 -56 -35 -101t-100 -58q71 -12 117.5 -56t46.5 -120q0 -86 -64 -136.5t-159 -50.5q-129 0 -207 44v10q84 -44 207 -44q90 0 151.5 48t61.5 129q0 84 -59 127t-141 43h-86v10h86q82 0 126.5 46t44.5 109q0 75 -52 121.5t-140 46.5q-89 0 -187 -46v10
q92 46 187 46q93 0 147.5 -49.5t54.5 -128.5z" />
    <glyph glyph-name="four.osf" horiz-adv-x="595" 
d="M408 520h11v-495h144v-10h-144v-175h-10v175h-389v8zM409 25v479l-375 -479h375z" />
    <glyph glyph-name="five.osf" horiz-adv-x="526" 
d="M97 520h350v-10h-340l-21 -318q81 29 169 29q96 0 161.5 -49t65.5 -145q0 -87 -61.5 -142t-164.5 -55q-115 0 -197 46v10q89 -46 197 -46q99 0 157.5 52t58.5 135q0 91 -62.5 137.5t-154.5 46.5q-93 0 -179 -33z" />
    <glyph glyph-name="six.osf" horiz-adv-x="571" 
d="M73 280q42 57 107 91.5t130 34.5q86 0 148 -53.5t62 -152.5q0 -96 -60.5 -153t-143.5 -57q-121 0 -187.5 87.5t-66.5 238.5q0 188 79.5 281t194.5 93q77 0 138 -36v-10q-63 36 -138 36q-111 0 -187.5 -90.5t-76.5 -273.5q0 -24 1 -36zM74 264q11 -124 73.5 -194
t168.5 -70q79 0 136.5 54.5t57.5 145.5q0 95 -58.5 145.5t-141.5 50.5q-66 0 -131.5 -36t-104.5 -96z" />
    <glyph glyph-name="seven.osf" horiz-adv-x="458" 
d="M30 520h420v-6l-321 -674h-11l319 670h-407v10z" />
    <glyph glyph-name="eight.osf" horiz-adv-x="609" 
d="M85 530q0 64 60 112t160 48q99 0 159.5 -52t60.5 -118q0 -114 -125 -196q71 -26 110.5 -63.5t39.5 -100.5q0 -69 -66 -119.5t-179 -50.5q-115 0 -180 53.5t-65 136.5q0 63 37.5 115.5t104.5 86.5q-117 50 -117 148zM304 346q-15 5 -43.5 15t-47.5 16q-66 -31 -104.5 -83
t-38.5 -114q0 -78 62 -129t173 -51q109 0 172 47.5t63 112.5q0 20 -4 37.5t-13.5 31.5t-18.5 25.5t-26.5 22t-29 17t-34.5 15t-35 13t-38 12.5t-37 12zM515 520q0 62 -58 111t-152 49q-95 0 -152.5 -45t-57.5 -105q0 -25 7 -46t23 -37.5t28.5 -27.5t39 -22.5t37 -16
t40.5 -14t33 -10.5q64 -21 86 -28q126 79 126 192z" />
    <glyph glyph-name="nine.osf" horiz-adv-x="557" 
d="M43 320q0 96 60.5 153t143.5 57q121 0 187.5 -87.5t66.5 -238.5q0 -188 -79.5 -281t-194.5 -93q-77 0 -138 36v10q63 -36 138 -36q111 0 187.5 90.5t76.5 273.5q0 24 -1 36q-42 -57 -107 -91.5t-130 -34.5q-86 0 -148 53.5t-62 152.5zM53 320q0 -95 58.5 -145.5
t141.5 -50.5q66 0 131.5 36t104.5 96q-11 124 -73.5 194t-168.5 70q-79 0 -136.5 -54.5t-57.5 -145.5z" />
    <glyph glyph-name="zero.sinf" horiz-adv-x="429" 
d="M389 104q0 -96 -44.5 -153t-129.5 -57q-86 0 -130.5 57t-44.5 153t44.5 153t130.5 57q85 0 129.5 -57t44.5 -153zM50 104q0 -92 42 -146t123 -54t122.5 54t41.5 146t-41.5 146t-122.5 54t-123 -54t-42 -146z" />
    <glyph glyph-name="one.sinf" horiz-adv-x="241" 
d="M138 308h7v-398h81v-10h-198v10h107v386l-96 -36v10z" />
    <glyph glyph-name="two.sinf" horiz-adv-x="336" 
d="M46 278q55 36 121 36q57 0 92.5 -26.5t35.5 -71.5q0 -25 -8.5 -45.5t-29 -38.5t-36 -28t-45.5 -28q-70 -42 -91 -62q-42 -42 -43 -104h259v-10h-270v8q0 29 9.5 53.5t18.5 39t34.5 34t34.5 25.5t42 25q32 19 44.5 27.5t33.5 26t29 36t8 41.5q0 40 -32.5 64t-85.5 24
q-63 0 -121 -36v10z" />
    <glyph glyph-name="three.sinf" horiz-adv-x="353" 
d="M297 207q0 -34 -21.5 -60.5t-63.5 -34.5q45 -7 73.5 -33.5t28.5 -71.5q0 -53 -37 -83t-98 -30q-87 0 -142 26v10q59 -26 142 -26q57 0 91 27t34 76q0 50 -36 74.5t-92 24.5h-59v10h58q56 0 84 26.5t28 64.5q0 41 -32 69t-87 28q-64 0 -124 -26v10q55 26 125 26
q59 0 93.5 -31t34.5 -76z" />
    <glyph glyph-name="four.sinf" horiz-adv-x="386" 
d="M262 308h11v-295h91v-9h-91v-104h-10v104h-244v8zM263 13v280l-230 -280h230z" />
    <glyph glyph-name="five.sinf" horiz-adv-x="346" 
d="M63 308h230v-10h-220l-12 -184q51 17 104 17q64 0 106 -29.5t42 -88.5q0 -53 -39 -86t-104 -33q-76 0 -130 27v10q57 -27 130 -27q60 0 96.5 30t36.5 79q0 55 -39 81.5t-101 26.5q-56 0 -113 -19z" />
    <glyph glyph-name="six.sinf" horiz-adv-x="367" 
d="M51 72q65 73 152 73q56 0 94.5 -32t38.5 -92q0 -59 -38.5 -93t-96.5 -34q-77 0 -118.5 52.5t-41.5 143.5q0 224 177 224q47 0 85 -22v-10q-39 22 -85 22q-167 0 -167 -214v-18zM52 60q7 -74 44.5 -115t103.5 -41q55 0 90.5 31t35.5 85q0 56 -35.5 85.5t-88.5 29.5
q-41 0 -81 -20t-69 -55z" />
    <glyph glyph-name="seven.sinf" horiz-adv-x="293" 
d="M105 -100h-11l174 398h-251v10h263v-8z" />
    <glyph glyph-name="eight.sinf" horiz-adv-x="391" 
d="M54 217q0 40 37.5 68.5t104.5 28.5q66 0 104 -31t38 -72q0 -78 -73 -116q88 -32 88 -98q0 -42 -41 -72.5t-116 -30.5q-76 0 -116.5 32t-40.5 82q0 39 22 71t62 50q-69 29 -69 88zM196 105q-46 13 -63 20q-39 -17 -61.5 -48t-22.5 -68q0 -46 38 -75.5t109 -29.5
q70 0 108.5 27.5t38.5 65.5q0 20 -9 36t-20.5 25.5t-34.5 19.5t-38.5 14.5t-44.5 12.5zM328 210q0 37 -35.5 65.5t-96.5 28.5q-62 0 -97 -25.5t-35 -61.5q0 -17 5 -30.5t18 -24t21 -16.5t30 -13.5t27.5 -9t29.5 -8.5q9 -2 29 -7.5t30 -8.5q34 16 54 45t20 66z" />
    <glyph glyph-name="nine.sinf" horiz-adv-x="367" 
d="M31 187q0 59 38.5 93t97.5 34q77 0 118 -52.5t41 -143.5q0 -224 -177 -224q-46 0 -84 22v10q38 -22 84 -22q167 0 167 214v18q-65 -73 -152 -73q-56 0 -94.5 32t-38.5 92zM41 188q0 -56 35.5 -85.5t88.5 -29.5q41 0 81 20t69 55q-7 74 -44.5 115t-103.5 41
q-55 0 -90.5 -31t-35.5 -85z" />
    <glyph glyph-name="zero.sups" horiz-adv-x="429" 
d="M389 580q0 -96 -44.5 -153t-129.5 -57q-86 0 -130.5 57t-44.5 153t44.5 153t130.5 57q85 0 129.5 -57t44.5 -153zM50 580q0 -92 42 -146t123 -54t122.5 54t41.5 146t-41.5 146t-122.5 54t-123 -54t-42 -146z" />
    <glyph glyph-name="one.sups" horiz-adv-x="241" 
d="M138 780h7v-398h81v-10h-198v10h107v386l-96 -36v10z" />
    <glyph glyph-name="two.sups" horiz-adv-x="338" 
d="M46 754q55 36 121 36q57 0 92.5 -26.5t35.5 -71.5q0 -25 -8.5 -45.5t-29 -38.5t-36 -28t-45.5 -28q-70 -42 -91 -62q-42 -42 -43 -104h259v-10h-270v8q0 29 9.5 53.5t18.5 39t34.5 34t34.5 25.5t42 25q32 19 44.5 27.5t33.5 26t29 36t8 41.5q0 40 -32.5 64t-85.5 24
q-63 0 -121 -36v10z" />
    <glyph glyph-name="three.sups" horiz-adv-x="353" 
d="M297 683q0 -34 -21.5 -60.5t-63.5 -34.5q45 -7 73.5 -33.5t28.5 -71.5q0 -53 -37 -83t-98 -30q-87 0 -142 26v10q59 -26 142 -26q57 0 91 27t34 76q0 50 -36 74.5t-92 24.5h-59v10h58q56 0 84 26.5t28 64.5q0 41 -32 69t-87 28q-64 0 -124 -26v10q55 26 125 26
q59 0 93.5 -31t34.5 -76z" />
    <glyph glyph-name="four.sups" horiz-adv-x="386" 
d="M262 780h11v-295h91v-9h-91v-104h-10v104h-244v8zM263 485v280l-230 -280h230z" />
    <glyph glyph-name="five.sups" horiz-adv-x="346" 
d="M63 780h230v-10h-220l-12 -184q51 17 104 17q64 0 106 -29.5t42 -88.5q0 -53 -39 -86t-104 -33q-76 0 -130 27v10q57 -27 130 -27q60 0 96.5 30t36.5 79q0 55 -39 81.5t-101 26.5q-56 0 -113 -19z" />
    <glyph glyph-name="six.sups" horiz-adv-x="367" 
d="M51 548q65 73 152 73q56 0 94.5 -32t38.5 -92q0 -59 -38.5 -93t-96.5 -34q-77 0 -118.5 52.5t-41.5 143.5q0 224 177 224q47 0 85 -22v-10q-39 22 -85 22q-167 0 -167 -214v-18zM52 536q7 -74 44.5 -115t103.5 -41q55 0 90.5 31t35.5 85q0 56 -35.5 85.5t-88.5 29.5
q-41 0 -81 -20t-69 -55z" />
    <glyph glyph-name="seven.sups" horiz-adv-x="293" 
d="M105 372h-11l174 398h-251v10h263v-8z" />
    <glyph glyph-name="eight.sups" horiz-adv-x="391" 
d="M54 693q0 40 37.5 68.5t104.5 28.5q66 0 104 -31t38 -72q0 -78 -73 -116q88 -32 88 -98q0 -42 -41 -72.5t-116 -30.5q-76 0 -116.5 32t-40.5 82q0 39 22 71t62 50q-69 29 -69 88zM196 581q-46 13 -63 20q-39 -17 -61.5 -48t-22.5 -68q0 -46 38 -75.5t109 -29.5
q70 0 108.5 27.5t38.5 65.5q0 20 -9 36t-20.5 25.5t-34.5 19.5t-38.5 14.5t-44.5 12.5zM328 686q0 37 -35.5 65.5t-96.5 28.5q-62 0 -97 -25.5t-35 -61.5q0 -17 5 -30.5t18 -24t21 -16.5t30 -13.5t27.5 -9t29.5 -8.5q10 -3 29.5 -8t29.5 -8q34 16 54 45t20 66z" />
    <glyph glyph-name="nine.sups" horiz-adv-x="367" 
d="M31 663q0 59 38.5 93t97.5 34q77 0 118 -52.5t41 -143.5q0 -224 -177 -224q-46 0 -84 22v10q38 -22 84 -22q167 0 167 214v18q-65 -73 -152 -73q-56 0 -94.5 32t-38.5 92zM41 664q0 -56 35.5 -85.5t88.5 -29.5q41 0 81 20t69 55q-7 74 -44.5 115t-103.5 41
q-55 0 -90.5 -31t-35.5 -85z" />
    <glyph glyph-name="zero.tf" horiz-adv-x="610" 
d="M575 340q0 -158 -71 -254t-199 -96t-199 96t-71 254t71 254t199 96t199 -96t71 -254zM45 340q0 -154 68 -247t192 -93t192 93t68 247t-68 247t-192 93t-192 -93t-68 -247z" />
    <glyph glyph-name="one.tf" horiz-adv-x="610" 
d="M328 680h5v-670h226v-10h-480v10h244v657l-217 -81v10z" />
    <glyph glyph-name="two.tf" horiz-adv-x="610" 
d="M88 630q90 60 210 60q100 0 161 -43.5t61 -117.5q0 -42 -15.5 -76t-49.5 -63t-63 -47.5t-82 -46.5q-44 -24 -68 -38t-59 -41.5t-53 -53.5t-32 -66t-15 -87h455v-10h-465v10q0 48 14.5 89t33.5 68.5t54.5 55.5t61 43t69.5 39q41 22 64.5 36t54 36t46.5 42.5t27.5 49
t11.5 60.5q0 68 -57.5 109.5t-154.5 41.5q-114 0 -210 -60v10z" />
    <glyph glyph-name="three.tf" horiz-adv-x="610" 
d="M517 512q0 -57 -36.5 -101.5t-108.5 -57.5q78 -11 126 -55t48 -121q0 -88 -63 -137.5t-170 -49.5q-147 0 -237 44v10q96 -44 237 -44q103 0 163 47t60 130q0 86 -63.5 128t-166.5 42h-96v10h96q102 0 151.5 45.5t49.5 109.5q0 71 -56 119.5t-156 48.5q-109 0 -207 -43v10
q92 43 207 43q104 0 163 -51.5t59 -126.5z" />
    <glyph glyph-name="four.tf" horiz-adv-x="610" 
d="M428 680h11v-495h146v-10h-146v-175h-10v175h-409v8zM429 185v480l-394 -480h394z" />
    <glyph glyph-name="five.tf" horiz-adv-x="610" 
d="M118 680h390v-10h-380l-21 -318q89 29 184 29q110 0 181 -48.5t71 -145.5q0 -87 -65.5 -142t-175.5 -55q-132 0 -222 46v10q97 -46 222 -46q106 0 168.5 51.5t62.5 135.5q0 92 -67.5 138t-174.5 46q-100 0 -194 -33z" />
    <glyph glyph-name="six.tf" horiz-adv-x="610" 
d="M79 279q49 59 117.5 93t139.5 34q93 0 156.5 -53t63.5 -153q0 -97 -63.5 -153.5t-160.5 -56.5q-127 0 -195.5 87.5t-68.5 238.5q0 374 294 374q77 0 138 -36v-10q-63 36 -138 36q-284 0 -284 -364q0 -25 1 -37zM80 264q11 -124 75.5 -194t176.5 -70q93 0 153.5 53.5
t60.5 146.5q0 95 -60.5 145.5t-149.5 50.5q-72 0 -140.5 -35.5t-115.5 -96.5z" />
    <glyph glyph-name="seven.tf" horiz-adv-x="610" 
d="M75 680h490v-6l-351 -674h-11l349 670h-477v10z" />
    <glyph glyph-name="eight.tf" horiz-adv-x="610" 
d="M70 530q0 65 62.5 112.5t172.5 47.5q109 0 172 -52t63 -118t-33.5 -116.5t-91.5 -79.5q71 -26 110.5 -63.5t39.5 -100.5q0 -70 -68.5 -120t-191.5 -50q-125 0 -192.5 53.5t-67.5 136.5q0 67 37.5 120.5t105.5 82.5q-118 48 -118 147zM304 346q-72 20 -105 32
q-67 -26 -105.5 -79t-38.5 -119q0 -79 64 -129.5t186 -50.5q119 0 184.5 47.5t65.5 112.5q0 92 -102 138q-40 19 -149 48zM530 520q0 62 -60.5 111t-164.5 49q-105 0 -165 -44.5t-60 -105.5q0 -52 38.5 -89t70 -49t98.5 -31q11 -3 16 -5q42 -12 99 -28q59 28 93.5 78
t34.5 114z" />
    <glyph glyph-name="nine.tf" horiz-adv-x="610" 
d="M54 480q0 97 63.5 153.5t160.5 56.5q127 0 195.5 -87.5t68.5 -238.5q0 -374 -294 -374q-77 0 -138 36v10q63 -36 138 -36q284 0 284 364q0 25 -1 37q-49 -59 -117.5 -93t-139.5 -34q-93 0 -156.5 53t-63.5 153zM64 480q0 -95 60.5 -145.5t149.5 -50.5q72 0 140.5 35.5
t115.5 96.5q-11 124 -75.5 194t-176.5 70q-93 0 -153.5 -53.5t-60.5 -146.5z" />
    <glyph glyph-name="zero.tosf" horiz-adv-x="610" 
d="M580 260q0 -109 -73.5 -189.5t-201.5 -80.5t-201.5 80.5t-73.5 189.5q0 110 73.5 190t201.5 80t201.5 -80t73.5 -190zM40 260q0 -105 70.5 -182.5t194.5 -77.5t194.5 77.5t70.5 182.5t-70.5 182.5t-194.5 77.5t-194.5 -77.5t-70.5 -182.5z" />
    <glyph glyph-name="one.tosf" horiz-adv-x="610" 
d="M327 520h5v-510h226v-10h-480v10h244v497l-217 -81v10z" />
    <glyph glyph-name="two.tosf" horiz-adv-x="610" 
d="M538 0h-465v10q0 140 232 206q43 12 69.5 21t55.5 22.5t44.5 28.5t25.5 36.5t10 49.5q0 65 -56 105.5t-151 40.5q-119 0 -215 -60v10q90 60 215 60q99 0 158 -42.5t59 -113.5q0 -30 -10.5 -53.5t-26.5 -39t-46.5 -30t-56.5 -23t-71 -21.5q-226 -64 -226 -197h455v-10z
" />
    <glyph glyph-name="three.tosf" horiz-adv-x="610" 
d="M515 352q0 -57 -36.5 -101.5t-108.5 -57.5q78 -11 126 -55t48 -121q0 -88 -63 -137.5t-170 -49.5q-147 0 -237 44v10q96 -44 237 -44q103 0 163 47t60 130q0 86 -63.5 128t-166.5 42h-96v10h96q102 0 151.5 45.5t49.5 109.5q0 71 -56 119.5t-156 48.5q-109 0 -207 -43v10
q92 43 207 43q104 0 163 -51.5t59 -126.5z" />
    <glyph glyph-name="four.tosf" horiz-adv-x="610" 
d="M427 520h11v-495h141v-10h-141v-175h-10v175h-409v8zM428 25v480l-394 -480h394z" />
    <glyph glyph-name="five.tosf" horiz-adv-x="610" 
d="M119 520h390v-10h-380l-21 -318q89 29 179 29q114 0 185.5 -48.5t71.5 -145.5q0 -88 -64.5 -142.5t-181.5 -54.5q-127 0 -217 46v10q97 -46 217 -46q112 0 174 51t62 136q0 92 -68.5 138t-178.5 46q-95 0 -189 -33z" />
    <glyph glyph-name="six.tosf" horiz-adv-x="610" 
d="M79 279q49 59 117.5 93t139.5 34q93 0 156.5 -53t63.5 -153q0 -97 -63.5 -153.5t-160.5 -56.5q-127 0 -195.5 87.5t-68.5 238.5q0 374 294 374q77 0 138 -36v-10q-63 36 -138 36q-284 0 -284 -364q0 -25 1 -37zM80 264q11 -124 75.5 -194t176.5 -70q93 0 153.5 53.5
t60.5 146.5q0 95 -60.5 145.5t-149.5 50.5q-72 0 -140.5 -35.5t-115.5 -96.5z" />
    <glyph glyph-name="seven.tosf" horiz-adv-x="610" 
d="M72 520h490v-6l-351 -674h-11l349 670h-477v10z" />
    <glyph glyph-name="eight.tosf" horiz-adv-x="610" 
d="M70 530q0 65 62.5 112.5t172.5 47.5q109 0 172 -52t63 -118t-33.5 -116.5t-91.5 -79.5q71 -26 110.5 -63.5t39.5 -100.5q0 -70 -68.5 -120t-191.5 -50q-125 0 -192.5 53.5t-67.5 136.5q0 67 37.5 120.5t105.5 82.5q-118 48 -118 147zM304 346q-72 20 -105 32
q-67 -26 -105.5 -79t-38.5 -119q0 -79 64 -129.5t186 -50.5q119 0 184.5 47.5t65.5 112.5q0 92 -102 138q-40 19 -149 48zM530 520q0 62 -60.5 111t-164.5 49q-105 0 -165 -44.5t-60 -105.5q0 -52 38.5 -89t70 -49t98.5 -31q11 -3 16 -5q42 -12 99 -28q59 28 93.5 78
t34.5 114z" />
    <glyph glyph-name="nine.tosf" horiz-adv-x="610" 
d="M53 320q0 97 63.5 153.5t160.5 56.5q127 0 195.5 -87.5t68.5 -238.5q0 -374 -294 -374q-77 0 -138 36v10q63 -36 138 -36q284 0 284 364q0 25 -1 37q-49 -59 -117.5 -93t-139.5 -34q-93 0 -156.5 53t-63.5 153zM63 320q0 -95 60.5 -145.5t149.5 -50.5q72 0 140.5 35.5
t115.5 96.5q-11 124 -75.5 194t-176.5 70q-93 0 -153.5 -53.5t-60.5 -146.5z" />
    <glyph glyph-name="zero.dnom" horiz-adv-x="429" 
d="M389 204q0 -96 -44.5 -153t-129.5 -57q-86 0 -130.5 57t-44.5 153t44.5 153t130.5 57q85 0 129.5 -57t44.5 -153zM50 204q0 -92 42 -146t123 -54t122.5 54t41.5 146t-41.5 146t-122.5 54t-123 -54t-42 -146z" />
    <glyph glyph-name="one.dnom" horiz-adv-x="241" 
d="M138 408h7v-398h81v-10h-198v10h107v386l-96 -36v10z" />
    <glyph glyph-name="two.dnom" horiz-adv-x="336" 
d="M46 378q55 36 121 36q57 0 92.5 -26.5t35.5 -71.5q0 -25 -8.5 -45.5t-29 -38.5t-36 -28t-45.5 -28q-70 -42 -91 -62q-42 -42 -43 -104h259v-10h-270v8q0 29 9.5 53.5t18.5 39t34.5 34t34.5 25.5t42 25q32 19 44.5 27.5t33.5 26t29 36t8 41.5q0 40 -32.5 64t-85.5 24
q-63 0 -121 -36v10z" />
    <glyph glyph-name="three.dnom" horiz-adv-x="353" 
d="M297 307q0 -34 -21.5 -60.5t-63.5 -34.5q45 -7 73.5 -33.5t28.5 -71.5q0 -53 -37 -83t-98 -30q-87 0 -142 26v10q59 -26 142 -26q57 0 91 27t34 76q0 50 -36 74.5t-92 24.5h-59v10h58q56 0 84 26.5t28 64.5q0 41 -32 69t-87 28q-64 0 -124 -26v10q55 26 125 26
q59 0 93.5 -31t34.5 -76z" />
    <glyph glyph-name="four.dnom" horiz-adv-x="386" 
d="M262 408h11v-295h91v-9h-91v-104h-10v104h-244v8zM263 113v280l-230 -280h230z" />
    <glyph glyph-name="five.dnom" horiz-adv-x="346" 
d="M63 408h230v-10h-220l-12 -184q51 17 104 17q64 0 106 -29.5t42 -88.5q0 -53 -39 -86t-104 -33q-76 0 -130 27v10q57 -27 130 -27q60 0 96.5 30t36.5 79q0 55 -39 81.5t-101 26.5q-56 0 -113 -19z" />
    <glyph glyph-name="six.dnom" horiz-adv-x="367" 
d="M51 172q65 73 152 73q56 0 94.5 -32t38.5 -92q0 -59 -38.5 -93t-96.5 -34q-77 0 -118.5 52.5t-41.5 143.5q0 224 177 224q47 0 85 -22v-10q-39 22 -85 22q-167 0 -167 -214v-18zM52 160q7 -74 44.5 -115t103.5 -41q55 0 90.5 31t35.5 85q0 56 -35.5 85.5t-88.5 29.5
q-41 0 -81 -20t-69 -55z" />
    <glyph glyph-name="seven.dnom" horiz-adv-x="293" 
d="M105 0h-11l174 398h-251v10h263v-8z" />
    <glyph glyph-name="eight.dnom" horiz-adv-x="391" 
d="M54 317q0 40 37.5 68.5t104.5 28.5q66 0 104 -31t38 -72q0 -78 -73 -116q88 -32 88 -98q0 -42 -41 -72.5t-116 -30.5q-76 0 -116.5 32t-40.5 82q0 39 22 71t62 50q-69 29 -69 88zM196 205q-46 13 -63 20q-39 -17 -61.5 -48t-22.5 -68q0 -46 38 -75.5t109 -29.5
q70 0 108.5 27.5t38.5 65.5q0 20 -9 36t-20.5 25.5t-34.5 19.5t-38.5 14.5t-44.5 12.5zM328 310q0 37 -35.5 65.5t-96.5 28.5q-62 0 -97 -25.5t-35 -61.5q0 -17 5 -30.5t18 -24t21 -16.5t30 -13.5t27.5 -9t29.5 -8.5q9 -3 29 -8.5t30 -7.5q34 16 54 45t20 66z" />
    <glyph glyph-name="nine.dnom" horiz-adv-x="367" 
d="M31 287q0 59 38.5 93t97.5 34q77 0 118 -52.5t41 -143.5q0 -224 -177 -224q-46 0 -84 22v10q38 -22 84 -22q167 0 167 214v18q-65 -73 -152 -73q-56 0 -94.5 32t-38.5 92zM41 288q0 -56 35.5 -85.5t88.5 -29.5q41 0 81 20t69 55q-7 74 -44.5 115t-103.5 41
q-55 0 -90.5 -31t-35.5 -85z" />
    <glyph glyph-name="zero.numr" horiz-adv-x="429" 
d="M389 480q0 -96 -44.5 -153t-129.5 -57q-86 0 -130.5 57t-44.5 153t44.5 153t130.5 57q85 0 129.5 -57t44.5 -153zM50 480q0 -92 42 -146t123 -54t122.5 54t41.5 146t-41.5 146t-122.5 54t-123 -54t-42 -146z" />
    <glyph glyph-name="one.numr" horiz-adv-x="241" 
d="M138 680h7v-398h81v-10h-198v10h107v386l-96 -36v10z" />
    <glyph glyph-name="two.numr" horiz-adv-x="338" 
d="M46 654q55 36 121 36q57 0 92.5 -26.5t35.5 -71.5q0 -25 -8.5 -45.5t-29 -38.5t-36 -28t-45.5 -28q-70 -42 -91 -62q-42 -42 -43 -104h259v-10h-270v8q0 29 9.5 53.5t18.5 39t34.5 34t34.5 25.5t42 25q32 19 44.5 27.5t33.5 26t29 36t8 41.5q0 40 -32.5 64t-85.5 24
q-63 0 -121 -36v10z" />
    <glyph glyph-name="three.numr" horiz-adv-x="353" 
d="M297 583q0 -34 -21.5 -60.5t-63.5 -34.5q45 -7 73.5 -33.5t28.5 -71.5q0 -53 -37 -83t-98 -30q-87 0 -142 26v10q59 -26 142 -26q57 0 91 27t34 76q0 50 -36 74.5t-92 24.5h-59v10h58q56 0 84 26.5t28 64.5q0 41 -32 69t-87 28q-64 0 -124 -26v10q55 26 125 26
q59 0 93.5 -31t34.5 -76z" />
    <glyph glyph-name="four.numr" horiz-adv-x="386" 
d="M262 680h11v-295h91v-9h-91v-104h-10v104h-244v8zM263 385v280l-230 -280h230z" />
    <glyph glyph-name="five.numr" horiz-adv-x="346" 
d="M63 680h230v-10h-220l-12 -184q51 17 104 17q64 0 106 -29.5t42 -88.5q0 -53 -39 -86t-104 -33q-76 0 -130 27v10q57 -27 130 -27q60 0 96.5 30t36.5 79q0 55 -39 81.5t-101 26.5q-56 0 -113 -19z" />
    <glyph glyph-name="six.numr" horiz-adv-x="367" 
d="M51 448q65 73 152 73q56 0 94.5 -32t38.5 -92q0 -59 -38.5 -93t-96.5 -34q-77 0 -118.5 52.5t-41.5 143.5q0 224 177 224q47 0 85 -22v-10q-39 22 -85 22q-167 0 -167 -214v-18zM52 436q7 -74 44.5 -115t103.5 -41q55 0 90.5 31t35.5 85q0 56 -35.5 85.5t-88.5 29.5
q-41 0 -81 -20t-69 -55z" />
    <glyph glyph-name="seven.numr" horiz-adv-x="293" 
d="M105 272h-11l174 398h-251v10h263v-8z" />
    <glyph glyph-name="eight.numr" horiz-adv-x="391" 
d="M54 593q0 40 37.5 68.5t104.5 28.5q66 0 104 -31t38 -72q0 -78 -73 -116q88 -32 88 -98q0 -42 -41 -72.5t-116 -30.5q-76 0 -116.5 32t-40.5 82q0 39 22 71t62 50q-69 29 -69 88zM196 481q-46 13 -63 20q-39 -17 -61.5 -48t-22.5 -68q0 -46 38 -75.5t109 -29.5
q70 0 108.5 27.5t38.5 65.5q0 20 -9 36t-20.5 25.5t-34.5 19.5t-38.5 14.5t-44.5 12.5zM328 586q0 37 -35.5 65.5t-96.5 28.5q-62 0 -97 -25.5t-35 -61.5q0 -17 5 -30.5t18 -24t21 -16.5t30 -13.5t27.5 -9t29.5 -8.5q10 -2 29.5 -7.5t29.5 -8.5q34 16 54 45t20 66z" />
    <glyph glyph-name="nine.numr" horiz-adv-x="367" 
d="M31 563q0 59 38.5 93t97.5 34q77 0 118 -52.5t41 -143.5q0 -224 -177 -224q-46 0 -84 22v10q38 -22 84 -22q167 0 167 214v18q-65 -73 -152 -73q-56 0 -94.5 32t-38.5 92zM41 564q0 -56 35.5 -85.5t88.5 -29.5q41 0 81 20t69 55q-7 74 -44.5 115t-103.5 41
q-55 0 -90.5 -31t-35.5 -85z" />
    <glyph glyph-name="emdash.case" horiz-adv-x="754" 
d="M677 345h-600v10h600v-10z" />
    <glyph glyph-name="endash.case" horiz-adv-x="574" 
d="M497 345h-420v10h420v-10z" />
    <glyph glyph-name="hyphen.case" horiz-adv-x="494" 
d="M77 355h340v-10h-340v10z" />
    <glyph glyph-name="guillemotleft.case" horiz-adv-x="411" 
d="M332 182h-12l-117 165v6l117 165h12l-119 -168zM192 182h-12l-117 165v6l117 165h12l-119 -168z" />
    <glyph glyph-name="guillemotright.case" horiz-adv-x="411" 
d="M231 182h-12l119 168l-119 168h12l117 -165v-6zM91 182h-12l119 168l-119 168h12l117 -165v-6z" />
    <glyph glyph-name="guilsinglleft.case" horiz-adv-x="271" 
d="M192 182h-12l-117 165v6l117 165h12l-119 -168z" />
    <glyph glyph-name="guilsinglright.case" horiz-adv-x="271" 
d="M91 182h-12l119 168l-119 168h12l117 -165v-6z" />
    <glyph glyph-name="cent.tf" horiz-adv-x="610" 
d="M357 0q84 3 148 38v-10q-65 -36 -148 -38v-110h-10v110q-100 0 -171.5 63t-71.5 182q0 121 71.5 185.5t171.5 69.5v110h10v-110h4q82 0 139 -39v-10q-58 39 -139 39h-4v-480zM347 480q-97 -5 -165 -67t-68 -178q0 -114 68 -174.5t165 -60.5v480z" />
    <glyph glyph-name="currency.tf" horiz-adv-x="610" 
d="M177 211l-85 -85l-7 7l85 85q-56 53 -56 132t56 132l-85 85l7 7l85 -85q54 46 128 46t128 -46l85 85l7 -7l-85 -85q56 -53 56 -132t-56 -132l85 -85l-7 -7l-85 85q-54 -46 -128 -46t-128 46zM124 350q0 -77 54 -126t127 -49t127 49t54 126t-53.5 126t-127.5 49
t-127.5 -48.5t-53.5 -126.5z" />
    <glyph glyph-name="dollar.tf" horiz-adv-x="610" 
d="M321 -130h-10v120q-127 2 -227 58v10q108 -58 235 -58q61 0 108 14.5t78 50t31 89.5q0 49 -25 84.5t-64.5 55t-87 34t-95.5 29.5t-87.5 34t-64.5 54t-25 84q0 82 63.5 121.5t158.5 39.5v120h10v-120q107 -3 185 -47v-10q-84 47 -195 47q-91 0 -151.5 -37t-60.5 -114
q0 -47 25 -80t64.5 -51.5t87.5 -33t95.5 -30t87 -36t64.5 -57t25 -87.5q0 -83 -63.5 -123.5t-161.5 -40.5v-120z" />
    <glyph glyph-name="Euro.tf" horiz-adv-x="610" 
d="M101 260q24 -124 122.5 -192t219.5 -68q69 0 133 23v-11q-64 -22 -133 -22q-80 0 -152 28.5t-128 91.5t-72 150h-86v10h84q-4 38 -4 60q0 40 8 80h-88v10h90q29 126 127.5 198t214.5 72q72 0 134 -22v-10q-64 22 -134 22q-113 0 -208 -69t-124 -191h380v-10h-382
q-8 -40 -8 -80q0 -28 5 -60h385v-10h-384z" />
    <glyph glyph-name="sterling.tf" horiz-adv-x="610" 
d="M556 0h-520v10h50q30 0 47.5 22.5t17.5 58.5v244h-80v10h80v121q0 112 62.5 167.5t151.5 55.5q82 0 137 -39v-10q-61 39 -137 39q-87 0 -145.5 -52.5t-58.5 -160.5v-121h265v-10h-265v-244q0 -60 -40 -81h435v-10z" />
    <glyph glyph-name="yen.tf" horiz-adv-x="610" 
d="M561 680h12l-258 -383h190v-10h-195v-107h195v-10h-195v-170h-10v170h-195v10h195v107h-195v10h190l-258 383h12l256 -380z" />
    </font>
</defs>
</svg>
