<?xml version="1.0" standalone="no"?>
<!DOCTYPE svg PUBLIC "-//W3C//DTD SVG 1.1//EN" "http://www.w3.org/Graphics/SVG/1.1/DTD/svg11.dtd" >
<svg xmlns="http://www.w3.org/2000/svg" xmlns:xlink="http://www.w3.org/1999/xlink" version="1.1">
<metadata>
Created by FontForge 20170731 at Fri Mar 13 16:23:27 2015
 By Aleksey,,,
Copyright (c) 2015 by Fontfabric LLC. All rights reserved.
</metadata>
<defs>
<font id="MullerHairlineItalic" horiz-adv-x="610" >
  <font-face 
    font-family="Muller Hairline Italic"
    font-weight="250"
    font-style="italic"
    font-stretch="normal"
    units-per-em="1000"
    panose-1="0 0 0 0 0 0 0 0 0 0"
    ascent="780"
    descent="-220"
    x-height="480"
    cap-height="700"
    bbox="-203 -230 1206.15 920"
    underline-thickness="50"
    underline-position="-275"
    slope="-9"
    unicode-range="U+0020-25CA"
  />
<missing-glyph horiz-adv-x="276" 
 />
    <glyph glyph-name="f_f" unicode="ff" horiz-adv-x="654" 
d="M739 687q-36 23 -106 23q-61 0 -105.5 -32t-55.5 -99l-16 -99h221l-1 -10h-221l-75 -470h-10l75 470h-300l-75 -470h-10l75 470h-80l1 10h80l10 59q11 74 64 112.5t125 38.5q81 0 147 -51q22 41 62.5 61t86.5 20q71 0 109 -24zM146 480h300l16 99q4 29 15 52
q-65 49 -140 49q-74 0 -122 -37.5t-59 -103.5z" />
    <glyph glyph-name="f_f_i" unicode="ffi" horiz-adv-x="826" 
d="M70 0h-10l75 470h-80l1 10h80l10 59q11 74 64 112.5t125 38.5q84 0 152 -56q51 76 152 76q85 0 152 -48l-2 -10q-65 48 -148 48q-68 0 -115 -38t-57 -103l-13 -79h310l-76 -480h-10l74 470h-299l-75 -470h-10l75 470h-300zM156 539l-10 -59h300l13 79q6 38 24 68
q-70 53 -146 53q-74 0 -122 -37.5t-59 -103.5z" />
    <glyph glyph-name="f_f_l" unicode="ffl" horiz-adv-x="836" 
d="M796 666l5 34l11 5l-112 -705h-10l104 656q-64 44 -154 44q-67 0 -114 -38t-57 -103l-13 -79h206l-1 -10h-206l-75 -470h-10l75 470h-300l-75 -470h-10l75 470h-80l1 10h80l10 59q11 74 64 112.5t125 38.5q84 0 152 -56q25 37 66 56.5t86 19.5q89 0 157 -44zM446 480
l13 79q6 38 24 67q-69 54 -146 54q-74 0 -122 -37.5t-59 -103.5l-10 -59h300z" />
    <glyph glyph-name=".notdef" horiz-adv-x="276" 
 />
    <glyph glyph-name=".null" horiz-adv-x="0" 
 />
    <glyph glyph-name="nonmarkingreturn" horiz-adv-x="333" 
 />
    <glyph glyph-name="space" unicode=" " horiz-adv-x="276" 
 />
    <glyph glyph-name="exclam" unicode="!" horiz-adv-x="185" 
d="M78 160h-10l86 540h10zM65 9q-4 -14 -17 -14q-7 0 -10.5 4.5t-2.5 11.5q1 5 6 9.5t10 4.5q16 0 14 -16z" />
    <glyph glyph-name="quotedbl" unicode="&#x22;" horiz-adv-x="226" 
d="M200 580h-8l19 120h12zM120 580h-8l19 120h12z" />
    <glyph glyph-name="numbersign" unicode="#" horiz-adv-x="646" 
d="M57 0h-11l77 195h-96l2 10h98l107 271h-112l1 10h115l77 195h11l-77 -195h278l77 195h11l-77 -195h95l-1 -10h-97l-107 -271h111l-2 -10h-114l-77 -195h-11l77 195h-278zM246 476l-107 -271h277l107 271h-277z" />
    <glyph glyph-name="dollar" unicode="$" horiz-adv-x="568" 
d="M232 -130h-10l18 120q-131 5 -216 58l1 10q100 -58 225 -58q93 0 161.5 37.5t80.5 117.5q7 47 -12.5 81t-56 54t-82 36t-90.5 32t-81.5 36t-55.5 54.5t-11 81.5q13 77 87 118.5t162 41.5l18 120h10l-18 -120q101 -3 176 -47l-2 -10q-83 47 -186 47q-52 0 -100.5 -15
t-88.5 -50.5t-48 -86.5q-9 -52 18.5 -88t74.5 -54t101.5 -38t101.5 -39.5t74.5 -59.5t18.5 -96q-13 -83 -85.5 -123.5t-166.5 -39.5z" />
    <glyph glyph-name="percent" unicode="%" horiz-adv-x="868" 
d="M180 -60h-12l539 820h12zM369 566q-10 -65 -57 -100.5t-106 -35.5q-58 0 -96 38.5t-27 105.5q10 65 57.5 100.5t106.5 35.5q58 0 95.5 -38.5t26.5 -105.5zM92 572q-9 -60 25.5 -96t87.5 -36q57 0 101 33t54 95q9 60 -25.5 96t-86.5 36q-57 0 -101.5 -33t-54.5 -95z
M805 126q-11 -65 -58 -100.5t-105 -35.5t-96.5 38.5t-27.5 105.5q10 65 57 100.5t107 35.5q57 0 95 -38.5t28 -105.5zM528 132q-10 -60 24.5 -96t87.5 -36q57 0 101 33t54 95q9 60 -25.5 96t-86.5 36q-57 0 -101.5 -33t-53.5 -95z" />
    <glyph glyph-name="ampersand" unicode="&#x26;" horiz-adv-x="671" 
d="M507 109l106 -109h-13l-100 102q-112 -112 -269 -112q-102 0 -153.5 48.5t-40.5 121.5q10 65 62.5 114t139.5 98q-88 98 -75 178q10 65 69.5 112.5t148.5 47.5q72 0 113 -37t32 -95q-3 -18 -12 -35t-26.5 -33.5t-33 -29t-44 -28.5t-46 -25.5t-52.5 -27.5t-51 -26l-7 -4
q7 -7 20 -21t19 -20l206 -212q80 84 98 194h10q-18 -112 -101 -201zM383 700q-86 0 -142.5 -45t-66.5 -107q-12 -75 74 -171q2 0 4.5 1.5t3.5 2.5q11 6 51 26t53.5 27t44.5 24.5t44 28.5t31 27.5t26 32.5t11 33q8 53 -29.5 86.5t-104.5 33.5zM47 158q-10 -67 38.5 -112.5
t144.5 -45.5q155 0 264 109l-206 212q-4 5 -18.5 19.5t-23.5 24.5q-86 -47 -137.5 -95.5t-61.5 -111.5z" />
    <glyph glyph-name="quotesingle" unicode="'" horiz-adv-x="146" 
d="M120 580h-8l19 120h12z" />
    <glyph glyph-name="parenleft" unicode="(" horiz-adv-x="237" 
d="M283 808h13q-85 -96 -145 -217.5t-79 -241.5q-19 -119 2.5 -240t76.5 -217h-12q-54 97 -75 218.5t-2 240.5q18 118 77.5 239t143.5 218z" />
    <glyph glyph-name="parenright" unicode=")" horiz-adv-x="236" 
d="M104 808h12q54 -97 75 -218.5t2 -240.5q-18 -117 -77.5 -238.5t-143.5 -218.5h-13q85 96 145 217.5t79 241.5q19 119 -2.5 240t-76.5 217z" />
    <glyph glyph-name="asterisk" unicode="*" horiz-adv-x="419" 
d="M249 546l-107 -117l-7 6l106 118l-130 47l5 9l129 -47l22 138h10l-22 -138l145 47l2 -10l-145 -46l68 -118l-9 -6z" />
    <glyph glyph-name="plus" unicode="+" horiz-adv-x="541" 
d="M286 355h205l-1 -10h-205l-33 -205h-10l33 205h-205l1 10h205l33 205h10z" />
    <glyph glyph-name="comma" unicode="," horiz-adv-x="146" 
d="M-22 -140h-10l82 210h10z" />
    <glyph glyph-name="hyphen" unicode="-" horiz-adv-x="487" 
d="M66 246h340l-1 -10h-340z" />
    <glyph glyph-name="period" unicode="." horiz-adv-x="142" 
d="M48 9q-4 -14 -17 -14q-7 0 -10.5 4.5t-2.5 11.5q1 5 6 9.5t10 4.5q16 0 14 -16z" />
    <glyph glyph-name="slash" unicode="/" horiz-adv-x="400" 
d="M1 -57h-10l426 814h10z" />
    <glyph glyph-name="zero" unicode="0" horiz-adv-x="705" 
d="M70 346q26 159 114 251.5t230 92.5q143 0 202 -97.5t34 -258.5q-26 -158 -114.5 -251t-229.5 -93q-143 0 -202 97.5t-34 258.5zM640 336q25 155 -31.5 249.5t-193.5 94.5q-139 0 -224.5 -90t-110.5 -246q-25 -155 31.5 -249.5t193.5 -94.5q139 0 224.5 90t110.5 246z" />
    <glyph glyph-name="one" unicode="1" horiz-adv-x="390" 
d="M285 680h5l-106 -670h146l-2 -10h-316l2 10h160l104 657l-170 -60l2 10z" />
    <glyph glyph-name="two" unicode="2" horiz-adv-x="551" 
d="M130 631q100 59 208 59q92 0 146 -44.5t42 -117.5q-7 -41 -27 -75t-58.5 -63.5t-67 -47t-83.5 -46.5q-112 -60 -148 -87q-102 -77 -125 -199h437l-2 -10h-447l2 10q5 35 18 66t26.5 53.5t38 46.5t41.5 38t50.5 34t50 29t53.5 28q53 28 82 45.5t66 45.5t57 61t26 73
q10 67 -39 108.5t-138 41.5q-105 0 -211 -60z" />
    <glyph glyph-name="three" unicode="3" horiz-adv-x="590" 
d="M537 511q-9 -57 -52 -101.5t-118 -57.5q75 -11 116.5 -56t29.5 -120q-14 -88 -84.5 -137t-176.5 -49q-140 0 -221 44l1 10q90 -44 219 -44q103 0 170.5 47t81.5 131q14 82 -42 125.5t-151 43.5h-96l2 10h96q95 0 150 46t65 110q11 69 -37 118t-137 49q-111 0 -215 -43
l2 11q100 42 212 42q95 0 146 -52.5t39 -126.5z" />
    <glyph glyph-name="four" unicode="4" horiz-adv-x="637" 
d="M502 680h11l-79 -495h151l-1 -10h-151l-28 -175h-10l28 175h-409l1 8zM424 185l77 480l-470 -480h393z" />
    <glyph glyph-name="five" unicode="5" horiz-adv-x="578" 
d="M169 680h380l-2 -10h-370l-70 -318q93 29 181 29q107 0 170 -49t48 -146q-14 -86 -87 -141t-179 -55q-129 0 -211 46l1 10q90 -46 209 -46q103 0 173 52t84 136q14 91 -45 137t-162 46q-96 0 -195 -33z" />
    <glyph glyph-name="six" unicode="6" horiz-adv-x="601" 
d="M551 644q-56 36 -131 36q-285 0 -343 -365q-1 -6 -2.5 -18t-2.5 -18q59 59 132 93t144 34q59 0 104.5 -21.5t70.5 -69.5t14 -116q-15 -96 -87.5 -152.5t-168.5 -56.5q-128 0 -183 87.5t-31 239.5q60 373 352 373q78 0 134 -36zM527 201q15 95 -37 145t-141 50
q-72 0 -146.5 -35.5t-131.5 -96.5q-8 -124 44.5 -194t164.5 -70q94 0 163 54t84 147z" />
    <glyph glyph-name="seven" unicode="7" horiz-adv-x="505" 
d="M99 680h445l-1 -6l-433 -674h-12l431 670h-432z" />
    <glyph glyph-name="eight" unicode="8" horiz-adv-x="640" 
d="M560 159q-10 -68 -84.5 -118.5t-190.5 -50.5q-128 0 -191 58t-50 143q19 122 175 192q-110 50 -95 148q11 65 79 112t180 47q110 0 164.5 -55t43.5 -126q-17 -105 -154 -186q66 -25 99.5 -63t23.5 -101zM54 189q-12 -79 47.5 -134t182.5 -55q113 0 184 47.5t82 113.5
q7 42 -7.5 73t-48.5 51t-69 32.5t-86 26.5q-6 1 -9 2q-70 20 -100 32q-74 -31 -120 -79.5t-56 -109.5zM330 355q72 -20 96 -28q138 78 155 184q11 66 -41 117.5t-156 51.5q-109 0 -174.5 -44t-75.5 -107q-6 -39 5.5 -68t49 -50t56 -28.5t70.5 -22.5q3 -1 5 -2t5 -1.5t5 -1.5
z" />
    <glyph glyph-name="nine" unicode="9" horiz-adv-x="600" 
d="M79 481q15 96 87.5 152.5t168.5 56.5q127 0 182.5 -87.5t31.5 -239.5q-60 -373 -352 -373q-78 0 -134 36l2 10q56 -36 131 -36q285 0 343 365q1 6 2.5 18t2.5 18q-59 -59 -132 -93t-144 -34q-94 0 -149.5 53t-39.5 154zM89 479q-15 -95 37 -145t141 -50q72 0 146.5 35.5
t131.5 96.5q8 124 -44.5 194t-164.5 70q-94 0 -163 -54t-84 -147z" />
    <glyph glyph-name="colon" unicode=":" horiz-adv-x="177" 
d="M123 409q-2 -14 -16 -14q-16 0 -14 16q1 5 6 9.5t10 4.5q16 0 14 -16zM60 9q-4 -14 -17 -14q-7 0 -10.5 4.5t-2.5 11.5q1 5 6 9.5t10 4.5q16 0 14 -16z" />
    <glyph glyph-name="semicolon" unicode=";" horiz-adv-x="97" 
d="M-50 -140h-10l82 210h10zM92 454q-2 -14 -16 -14q-16 0 -14 16q1 5 6.5 9.5t10.5 4.5q15 0 13 -16z" />
    <glyph glyph-name="less" unicode="&#x3c;" horiz-adv-x="488" 
d="M386 192l-2 -11l-325 164l2 11l376 163l-1 -12l-365 -157z" />
    <glyph glyph-name="equal" unicode="=" horiz-adv-x="538" 
d="M480 435h-380l2 10h380zM452 255h-380l1 10h380z" />
    <glyph glyph-name="greater" unicode="&#x3e;" horiz-adv-x="486" 
d="M444 344l-377 -163l2 12l365 157l-315 158l1 11l326 -164z" />
    <glyph glyph-name="question" unicode="?" horiz-adv-x="490" 
d="M222 182h-10q6 38 33 77t62.5 72.5t71 67.5t63 74t33.5 80q11 67 -37 107t-140 40q-99 0 -202 -57l2 11q98 56 200 56q95 0 146.5 -43t39.5 -116q-6 -40 -33.5 -81t-63 -75.5t-70.5 -68t-62 -71t-33 -73.5zM205 9q-4 -14 -17 -14q-7 0 -10.5 4.5t-2.5 11.5q1 5 6 9.5
t10 4.5q16 0 14 -16z" />
    <glyph glyph-name="at" unicode="@" horiz-adv-x="1060" 
d="M47 246q14 91 60 174t115.5 148t169 103.5t212.5 38.5q107 0 191 -41t130.5 -105.5t66 -140.5t7.5 -150q-20 -129 -78 -196t-134 -67q-62 0 -92 35.5t-19 103.5q-33 -51 -85.5 -83t-113.5 -32q-84 0 -131 56t-32 149q15 92 78.5 147.5t146.5 55.5q62 0 105.5 -32.5
t59.5 -85.5l17 109h10l-47 -292q-8 -57 18.5 -89t83.5 -32q73 0 128.5 64.5t74.5 190.5q12 72 -7 145.5t-64 136.5t-127 103t-187 40q-111 0 -208.5 -37.5t-166 -101.5t-113.5 -145.5t-59 -171.5q-17 -107 9.5 -196t85.5 -147t142 -89.5t180 -31.5q127 0 231 36l-2 -10
q-103 -36 -228 -36q-99 0 -184.5 32.5t-146 91.5t-87.5 150.5t-10 201.5zM700 301q-10 57 -53 94t-107 37q-81 0 -141.5 -53t-74.5 -142q-14 -88 29.5 -140.5t122.5 -52.5q64 0 119.5 37t84.5 94z" />
    <glyph glyph-name="A" unicode="A" horiz-adv-x="704" 
d="M639 0h-11l-70 227h-431l-142 -227h-12l437 700h14zM408 678l-275 -441h423l-136 441q-4 10 -4 13q-1 -2 -4 -6.5t-4 -6.5z" />
    <glyph glyph-name="B" unicode="B" horiz-adv-x="670" 
d="M173 700h243q106 0 162.5 -43t42.5 -132q-11 -71 -59.5 -109.5t-118.5 -47.5q33 -5 60 -15t52 -30t36.5 -55t4.5 -82q-8 -48 -31.5 -83.5t-53 -54.5t-70 -30.5t-74 -14.5t-74.5 -3h-231zM586 188q7 43 -4.5 76t-32 51.5t-50.5 29.5t-55.5 14.5t-52.5 3.5h-261l-56 -353
h221q40 0 72 3t71 14t67.5 29t51 52t29.5 80zM612 527q13 83 -40.5 123t-157.5 40h-233l-50 -317h273q77 0 136 38t72 116z" />
    <glyph glyph-name="C" unicode="C" horiz-adv-x="651" 
d="M64 351q14 88 56.5 158.5t101.5 113.5t125 65t132 22q106 0 183 -49l-2 -10q-74 49 -181 49q-51 0 -103 -13t-101.5 -41.5t-90 -69t-70 -99t-40.5 -128.5q-13 -84 6.5 -152t62.5 -110t101 -64.5t123 -22.5q105 0 203 50l-2 -10q-92 -50 -200 -50q-67 0 -126.5 23
t-105 66.5t-66 114t-6.5 157.5z" />
    <glyph glyph-name="D" unicode="D" horiz-adv-x="728" 
d="M173 700h187q185 0 265.5 -96.5t55.5 -254.5q-24 -157 -133.5 -253t-294.5 -96h-191zM672 351q24 153 -53.5 246t-256.5 93h-181l-107 -680h181q179 0 286 93.5t131 247.5z" />
    <glyph glyph-name="E" unicode="E" horiz-adv-x="632" 
d="M173 700h451l-2 -10h-441l-52 -333h411l-2 -10h-411l-53 -337h447l-2 -10h-457z" />
    <glyph glyph-name="F" unicode="F" horiz-adv-x="598" 
d="M173 700h452l-2 -10h-442l-53 -339h413l-2 -10h-413l-54 -341h-10z" />
    <glyph glyph-name="G" unicode="G" horiz-adv-x="712" 
d="M68 361q14 92 57.5 161.5t104.5 109t126.5 59t134.5 19.5q111 0 193 -46l-1 -10q-78 46 -192 46q-68 0 -132.5 -19t-123.5 -58t-101.5 -107t-56.5 -157t6 -159.5t66 -113t106.5 -64.5t129.5 -22q113 0 211 46l50 317h10l-52 -325q-104 -48 -218 -48q-71 0 -133.5 22.5
t-110 66.5t-68.5 117t-6 165z" />
    <glyph glyph-name="H" unicode="H" horiz-adv-x="766" 
d="M713 700h10l-111 -700h-10l55 347h-530l-55 -347h-10l111 700h10l-54 -343h530z" />
    <glyph glyph-name="I" unicode="I" horiz-adv-x="226" 
d="M173 700h10l-111 -700h-10z" />
    <glyph glyph-name="J" unicode="J" horiz-adv-x="527" 
d="M244 700h247l-82 -520q-15 -95 -76.5 -142.5t-160.5 -47.5q-108 0 -174 43l2 10q66 -43 171 -43q97 0 155.5 45t72.5 135l81 510h-238z" />
    <glyph glyph-name="K" unicode="K" horiz-adv-x="650" 
d="M668 700h12l-313 -342l232 -358h-13l-228 355h-230l-56 -355h-10l111 700h10l-53 -335h231z" />
    <glyph glyph-name="L" unicode="L" horiz-adv-x="569" 
d="M173 700h10l-109 -690h438l-2 -10h-448z" />
    <glyph glyph-name="M" unicode="M" horiz-adv-x="898" 
d="M849 700h6l-111 -700h-10l107 676l-399 -471h-9l-253 473l-108 -678h-10l111 700h6l260 -484z" />
    <glyph glyph-name="N" unicode="N" horiz-adv-x="766" 
d="M72 0h-10l111 700h7l425 -681q1 8 3.5 22.5t3.5 21.5l101 637h10l-111 -700h-7l-425 682q-1 -8 -3.5 -22t-3.5 -22z" />
    <glyph glyph-name="O" unicode="O" horiz-adv-x="826" 
d="M782 349q-10 -66 -44 -129.5t-86 -115t-127 -83t-159 -31.5q-87 0 -152.5 32t-100 84.5t-47.5 115.5t-3 129t44 129.5t86 115t127 83t159 31.5q87 0 152.5 -32t100 -84.5t47.5 -115.5t3 -129zM73 349q-10 -64 2.5 -125t46.5 -111.5t97 -81.5t147 -31q110 0 200.5 54
t141 132t64.5 165q10 64 -2.5 125t-46.5 111.5t-97 81.5t-147 31q-110 0 -200.5 -54t-141 -132t-64.5 -165z" />
    <glyph glyph-name="P" unicode="P" horiz-adv-x="652" 
d="M173 700h207q62 0 111 -10.5t88 -34t55.5 -67t6.5 -104.5q-35 -214 -324 -214h-202l-43 -270h-10zM631 486q17 111 -52 157.5t-196 46.5h-202l-65 -410h202q281 0 313 206z" />
    <glyph glyph-name="Q" unicode="Q" horiz-adv-x="826" 
d="M721 -50l-8 -7l-105 125q-110 -78 -242 -78q-87 0 -152.5 32t-100 84.5t-47.5 115.5t-3 129t44 129.5t86 115t127 83t159 31.5q87 0 152.5 -32t100 -84.5t47.5 -115.5t3 -129q-12 -77 -55.5 -150t-110.5 -125zM73 349q-10 -64 2.5 -125t46.5 -111.5t97 -81.5t147 -31
q130 0 236 76l-144 170l8 7l144 -171q66 50 108 122t54 147q10 64 -2.5 125t-46.5 111.5t-97 81.5t-147 31q-110 0 -200.5 -54t-141 -132t-64.5 -165z" />
    <glyph glyph-name="R" unicode="R" horiz-adv-x="678" 
d="M72 0h-10l111 700h256q45 0 85 -11t73 -33.5t49 -63.5t7 -94q-16 -99 -92 -148t-172 -52l228 -298h-12l-228 298h-248zM181 690l-60 -382h250q93 0 170 47t92 145q8 51 -6.5 89t-46 59t-69 31.5t-80.5 10.5h-250z" />
    <glyph glyph-name="S" unicode="S" horiz-adv-x="562" 
d="M101 550q13 80 86 120t161 40q109 0 188 -47l-1 -10q-77 47 -187 47q-54 0 -102.5 -14t-87 -50t-47.5 -88q-7 -47 12 -81t55 -54.5t81.5 -37t90.5 -34t81 -39.5t55 -60t11 -89q-13 -83 -83.5 -123.5t-167.5 -39.5q-134 0 -227 58l1 10q100 -58 225 -58q60 0 109.5 14
t87 50t45.5 90q7 50 -12 86.5t-55 57.5t-81 38l-90 34t-81.5 38t-55.5 57t-11 85z" />
    <glyph glyph-name="T" unicode="T" horiz-adv-x="588" 
d="M79 700h560l-2 -10h-275l-109 -690h-10l109 690h-275z" />
    <glyph glyph-name="U" unicode="U" horiz-adv-x="748" 
d="M704 700h10l-73 -463q-39 -247 -313 -247q-61 0 -107.5 13t-80 41.5t-47 77t-2.5 115.5l73 463h10l-73 -463q-37 -237 226 -237q267 0 304 237z" />
    <glyph glyph-name="V" unicode="V" horiz-adv-x="674" 
d="M295 0h-9l-199 700h11l194 -687l413 687h12z" />
    <glyph glyph-name="W" unicode="W" horiz-adv-x="975" 
d="M1001 700h11l-336 -700h-10l-115 674l-333 -674h-10l-114 700h10l111 -684l333 674h10l115 -673z" />
    <glyph glyph-name="X" unicode="X" horiz-adv-x="595" 
d="M-20 0h-13l336 360l-210 340h11l206 -333l311 333h13l-319 -342l221 -358h-11l-217 351z" />
    <glyph glyph-name="Y" unicode="Y" horiz-adv-x="616" 
d="M267 0h-10l46 289l-210 411h11l205 -400l332 400h13l-341 -411z" />
    <glyph glyph-name="Z" unicode="Z" horiz-adv-x="559" 
d="M487 0h-514l1 8l603 682h-473l2 10h487l-1 -8l-603 -682h500z" />
    <glyph glyph-name="bracketleft" unicode="[" horiz-adv-x="222" 
d="M143 -110h-126l145 920h126l-1 -10h-116l-143 -900h116z" />
    <glyph glyph-name="backslash" unicode="\" horiz-adv-x="393" 
d="M296 -57h-10l-168 814h10z" />
    <glyph glyph-name="bracketright" unicode="]" horiz-adv-x="221" 
d="M79 -110h-126l1 10h116l143 900h-116l1 10h126z" />
    <glyph glyph-name="asciicircum" unicode="^" horiz-adv-x="477" 
d="M96 410h-12l217 290h10l125 -290h-11l-120 280z" />
    <glyph glyph-name="underscore" unicode="_" horiz-adv-x="421" 
d="M355 -121h-420l2 10h420z" />
    <glyph glyph-name="grave" unicode="`" horiz-adv-x="160" 
d="M233 780h-11l-67 130h11z" />
    <glyph glyph-name="a" unicode="a" horiz-adv-x="611" 
d="M491 134q-39 -63 -105.5 -103.5t-141.5 -40.5q-104 0 -161 70.5t-39 185.5q18 113 96.5 178.5t180.5 65.5q73 0 129 -42t74 -106l22 138h10l-76 -480h-10zM54 244q-18 -110 36 -177t153 -67q80 0 149 45.5t103 114.5l25 157q-12 70 -67.5 116.5t-131.5 46.5
q-98 0 -174 -63t-93 -173z" />
    <glyph glyph-name="b" unicode="b" horiz-adv-x="611" 
d="M151 700h10l-56 -356q39 64 107 105t141 41q97 0 157 -71t42 -185t-94.5 -179t-181.5 -65q-76 0 -130.5 42t-72.5 110l-23 -142h-10zM542 236q17 109 -39.5 176.5t-149.5 67.5q-79 0 -148 -46.5t-105 -117.5l-24 -152q13 -71 66.5 -117.5t132.5 -46.5q102 0 175.5 62.5
t91.5 173.5z" />
    <glyph glyph-name="c" unicode="c" horiz-adv-x="493" 
d="M41 241q10 63 41 112.5t73.5 78.5t89 43.5t92.5 14.5q82 0 134 -39l-2 -10q-49 39 -132 39q-99 0 -182.5 -61.5t-103.5 -179.5q-18 -114 41.5 -176.5t157.5 -62.5q92 0 160 39l-1 -11q-69 -38 -158 -38q-103 0 -165.5 64.5t-44.5 186.5z" />
    <glyph glyph-name="d" unicode="d" horiz-adv-x="611" 
d="M581 700h10l-111 -700h-10l22 136q-40 -64 -107 -105t-141 -41q-101 0 -159.5 70.5t-40.5 185.5q18 113 95.5 178.5t181.5 65.5q76 0 130.5 -42t72.5 -110zM520 316q-12 71 -66 117.5t-133 46.5q-101 0 -175 -62.5t-92 -173.5q-18 -109 37.5 -176.5t151.5 -67.5
q80 0 149 46.5t104 117.5z" />
    <glyph glyph-name="e" unicode="e" horiz-adv-x="542" 
d="M43 241q18 114 94.5 181.5t172.5 67.5q60 0 103.5 -25.5t60.5 -64t22 -84t-10 -85.5h-434q-16 -114 48 -172.5t164 -58.5q91 0 162 38l-2 -11q-68 -37 -159 -37q-106 0 -174 63.5t-48 187.5zM478 241q13 39 7.5 81t-22.5 77.5t-57 58t-96 22.5q-92 0 -165 -63.5
t-92 -175.5h425z" />
    <glyph glyph-name="f" unicode="f" horiz-adv-x="344" 
d="M150 569q23 141 170 141q61 0 109 -24l-2 -10q-43 24 -107 24q-139 0 -160 -131l-14 -89h221l-1 -10h-221l-75 -470h-10l75 470h-80l1 10h80z" />
    <glyph glyph-name="g" unicode="g" horiz-adv-x="612" 
d="M480 0q-19 -119 -98 -174.5t-186 -55.5q-98 0 -170 46l2 10q72 -46 167 -46q103 0 180 53t95 167l22 136q-40 -64 -107 -105t-141 -41q-105 0 -161.5 70t-38.5 186q18 113 95.5 178.5t181.5 65.5q75 0 129.5 -42t73.5 -110l22 142h10zM54 244q-18 -110 35.5 -177
t153.5 -67q80 0 149 46.5t104 117.5l24 152q-12 71 -66 117.5t-133 46.5q-100 0 -175 -63t-92 -173z" />
    <glyph glyph-name="h" unicode="h" horiz-adv-x="571" 
d="M151 700h10l-54 -337q39 50 99 88.5t133 38.5q78 0 122.5 -52.5t30.5 -142.5l-47 -295h-10l47 295q14 86 -27 135.5t-116 49.5q-73 0 -135.5 -41.5t-99.5 -95.5l-54 -343h-10z" />
    <glyph glyph-name="i" unicode="i" horiz-adv-x="190" 
d="M54 0h-10l76 480h10zM158 610q-2 -11 -13 -11q-12 0 -11 13q2 11 13 11q12 0 11 -13z" />
    <glyph glyph-name="j" unicode="j" horiz-adv-x="190" 
d="M35 -123q-17 -107 -127 -107q-37 0 -67 11l2 10q30 -11 64 -11q102 0 118 97l95 603h10zM158 610q-2 -11 -13 -11q-12 0 -11 13q2 11 13 11q12 0 11 -13z" />
    <glyph glyph-name="k" unicode="k" horiz-adv-x="481" 
d="M465 480h13l-241 -232l194 -248h-12l-192 245h-138l-39 -245h-10l111 700h10l-71 -445h141z" />
    <glyph glyph-name="l" unicode="l" horiz-adv-x="190" 
d="M160 730h10l-116 -730h-10z" />
    <glyph glyph-name="m" unicode="m" horiz-adv-x="894" 
d="M465 372q38 47 94 82.5t119 35.5q72 0 112 -49t28 -124l-50 -317h-10l50 315q11 71 -24 118t-106 47q-63 0 -118 -35.5t-94 -85.5q1 -17 -2 -42l-50 -317h-10l50 315q11 71 -24 118t-106 47q-65 0 -123 -39.5t-96 -91.5l-55 -349h-10l76 480h10l-18 -113q38 48 95 85.5
t121 37.5q58 0 96 -32t45 -86z" />
    <glyph glyph-name="n" unicode="n" horiz-adv-x="571" 
d="M107 363q39 50 99 88.5t133 38.5q78 0 122.5 -52.5t30.5 -142.5l-47 -295h-10l47 295q14 86 -27 135.5t-116 49.5q-73 0 -135.5 -41.5t-99.5 -95.5l-54 -343h-10l76 480h10z" />
    <glyph glyph-name="o" unicode="o" horiz-adv-x="591" 
d="M533 234q-18 -113 -99.5 -178.5t-183.5 -65.5q-98 0 -161.5 70.5t-45.5 185.5q18 113 100 178.5t184 65.5q98 0 161 -70.5t45 -185.5zM53 244q-17 -109 42.5 -176.5t153.5 -67.5q99 0 178 63t96 173q17 109 -42.5 176.5t-153.5 67.5q-99 0 -178 -63t-96 -173z" />
    <glyph glyph-name="p" unicode="p" horiz-adv-x="611" 
d="M104 343q40 65 107.5 106t141.5 41q99 0 158 -71t41 -185t-94.5 -179t-181.5 -65q-76 0 -130.5 41.5t-73.5 108.5l-57 -360h-10l111 700h10zM542 236q18 109 -37.5 176.5t-151.5 67.5q-78 0 -148 -46.5t-105 -117.5l-24 -152q13 -71 66.5 -117.5t132.5 -46.5
q101 0 175 62.5t92 173.5z" />
    <glyph glyph-name="q" unicode="q" horiz-adv-x="611" 
d="M44 246q18 113 96.5 178.5t180.5 65.5q73 0 129 -42t74 -106l22 138h10l-111 -700h-10l56 354q-39 -63 -105.5 -103.5t-141.5 -40.5q-104 0 -161 70.5t-39 185.5zM520 317q-12 70 -67.5 116.5t-131.5 46.5q-98 0 -174 -63t-93 -173q-18 -110 36 -177t153 -67
q80 0 149 45.5t103 114.5z" />
    <glyph glyph-name="r" unicode="r" horiz-adv-x="332" 
d="M100 317q36 73 101.5 123t148.5 50l-2 -10q-87 0 -155.5 -59.5t-97.5 -137.5l-45 -283h-10l76 480h10z" />
    <glyph glyph-name="s" unicode="s" horiz-adv-x="453" 
d="M64 373q10 59 63.5 88t123.5 29q95 0 155 -42l-1 -10q-59 42 -154 42q-66 0 -117.5 -27.5t-59.5 -81.5q-7 -47 24.5 -74.5t81 -40.5t98.5 -26t80.5 -42.5t24.5 -78.5q-9 -59 -63.5 -89t-128.5 -30q-48 0 -98 13.5t-78 35.5l2 10q30 -22 78.5 -35.5t94.5 -13.5
q71 0 122.5 27.5t60.5 82.5q7 46 -24.5 73.5t-81 40t-99 26t-81 43.5t-23.5 80z" />
    <glyph glyph-name="t" unicode="t" horiz-adv-x="343" 
d="M153 640l11 5l-26 -165h220l-1 -10h-220l-55 -342q-10 -61 18 -94.5t88 -33.5q62 0 107 24l-1 -10q-42 -24 -105 -24q-64 0 -95.5 36t-21.5 102l55 342h-90l1 10h90z" />
    <glyph glyph-name="u" unicode="u" horiz-adv-x="571" 
d="M505 480h10l-76 -480h-10l19 118q-37 -49 -98.5 -88.5t-132.5 -39.5q-79 0 -123.5 52.5t-30.5 142.5l47 295h10l-47 -295q-13 -86 28 -135.5t115 -49.5q72 0 135.5 42t99.5 97z" />
    <glyph glyph-name="v" unicode="v" horiz-adv-x="517" 
d="M512 480h11l-305 -480h-12l-152 480h10l149 -469z" />
    <glyph glyph-name="w" unicode="w" horiz-adv-x="795" 
d="M786 480h11l-266 -480h-8l-98 458l-246 -458h-8l-113 480h10l109 -463l244 453h11l97 -454z" />
    <glyph glyph-name="x" unicode="x" horiz-adv-x="480" 
d="M-14 0h-14l255 247l-167 233h12l162 -226l234 226h14l-242 -234l176 -246h-12l-171 239z" />
    <glyph glyph-name="y" unicode="y" horiz-adv-x="528" 
d="M234 9l287 471h12l-349 -572q-48 -77 -86 -107.5t-84 -30.5q-24 0 -48 6l1 10q26 -6 46 -6q45 0 82.5 31t80.5 103l51 84l-178 482h11z" />
    <glyph glyph-name="z" unicode="z" horiz-adv-x="432" 
d="M70 480h354l-1 -6l-425 -464h362l-2 -10h-378l1 6l426 464h-338z" />
    <glyph glyph-name="braceleft" unicode="{" horiz-adv-x="242" 
d="M144 -100l-1 -10q-49 -6 -65 15t-8 70l42 265q8 50 -16.5 77.5t-61.5 27.5l1 10q37 0 70.5 27.5t41.5 77.5l42 265q8 50 31 72t68 13l-1 -10q-41 9 -61 -10.5t-27 -64.5l-42 -265q-7 -45 -33.5 -73.5t-60.5 -37.5q30 -9 48 -36.5t11 -72.5l-42 -265q-7 -45 6.5 -63.5
t57.5 -11.5z" />
    <glyph glyph-name="bar" unicode="|" horiz-adv-x="169" 
d="M28 -100h-10l144 910h10z" />
    <glyph glyph-name="braceright" unicode="}" horiz-adv-x="241" 
d="M72 -25q-8 -50 -31 -71.5t-68 -13.5l1 10q41 -8 61 11t27 64l42 265q7 46 33.5 74t61.5 36q-31 9 -49 37t-11 73l42 265q7 45 -6 64t-58 11l1 10q48 7 64.5 -14.5t8.5 -70.5l-42 -265q-8 -50 16.5 -77.5t61.5 -27.5l-1 -10q-37 0 -70.5 -27.5t-41.5 -77.5z" />
    <glyph glyph-name="asciitilde" unicode="~" horiz-adv-x="573" 
d="M507 361q-5 -32 -28 -53t-59 -21q-38 0 -127 37t-125 37q-33 0 -53 -18t-25 -46h-10q5 33 28.5 53.5t59.5 20.5q38 0 127 -37t124 -37q32 0 53 18t25 46h10z" />
    <glyph glyph-name="exclamdown" unicode="&#xa1;" horiz-adv-x="171" 
d="M9 -215h-10l86 540h10zM128 474q-2 -14 -16 -14q-7 0 -10.5 4.5t-2.5 11.5q1 5 6 9.5t10 4.5q17 0 13 -16z" />
    <glyph glyph-name="cent" unicode="&#xa2;" horiz-adv-x="512" 
d="M474 441q-49 39 -132 39h-3l-76 -480q87 2 152 39l-1 -11q-66 -36 -153 -38l-17 -110h-10l17 110q-101 2 -162 66.5t-43 184.5q12 80 59.5 138t105 83t120.5 28l17 110h10l-16 -110q82 0 134 -39zM56 239q-18 -113 40.5 -175.5t156.5 -63.5l76 480q-96 -4 -175 -65.5
t-98 -175.5z" />
    <glyph glyph-name="sterling" unicode="&#xa3;" 
d="M514 0h-520l2 10h30q85 0 101 101l35 224h-80l2 10h80l19 121q18 116 88 169.5t160 53.5q78 0 132 -39l-2 -10q-55 39 -129 39q-41 0 -77.5 -11t-70.5 -34.5t-58 -66.5t-33 -101l-19 -121h265l-2 -10h-265l-35 -224q-13 -81 -65 -101h444z" />
    <glyph glyph-name="currency" unicode="&#xa4;" horiz-adv-x="572" 
d="M146 211l-76 -65l-6 7l76 65q-48 53 -35 133q12 78 77 132l-55 64l8 7l55 -65q60 46 134 46q73 0 122 -46l75 65l6 -7l-76 -65q48 -53 35 -133q-12 -79 -76 -132l54 -64l-8 -7l-54 65q-61 -46 -135 -46q-73 0 -121 46zM115 349q-12 -76 34 -125t118 -49q74 0 135.5 49
t73.5 127q12 76 -33.5 125t-118.5 49q-75 0 -135.5 -48.5t-73.5 -127.5z" />
    <glyph glyph-name="yen" unicode="&#xa5;" horiz-adv-x="616" 
d="M624 680h11l-318 -382h190l-2 -10h-195l-17 -108h195l-2 -10h-195l-27 -170h-10l27 170h-195l2 10h195l17 108h-195l2 10h189l-197 382h11l196 -382z" />
    <glyph glyph-name="brokenbar" unicode="&#xa6;" horiz-adv-x="189" 
d="M129 470h-10l53 340h10zM38 -100h-10l54 340h10z" />
    <glyph glyph-name="section" unicode="&#xa7;" horiz-adv-x="482" 
d="M382 79q-8 -51 -61.5 -82t-122.5 -31q-94 0 -161 43l1 11q68 -44 159 -44q68 0 118 29t57 76q5 30 -4 52t-33.5 36.5t-45 22t-58.5 18.5q-37 10 -51 14.5t-42.5 17t-40 24.5t-20 33.5t-4.5 48.5q8 49 47.5 83t84.5 49q-95 36 -83 115q9 52 59 83.5t116 31.5q83 0 148 -39
l-1 -10q-66 39 -147 39q-63 0 -110 -29t-55 -78q-4 -25 4.5 -44.5t19.5 -30.5t39 -22.5t42.5 -15.5t51.5 -14q75 -20 113.5 -49t29.5 -86q-15 -89 -142 -129q106 -37 92 -123zM233 220q28 -8 41 -12q134 37 148 125q4 28 -4 49t-30.5 35t-43.5 21.5t-57 17.5q-41 11 -66 19
q-45 -12 -87.5 -45t-50.5 -84q-4 -24 4 -43t18 -30t37.5 -23t41 -16t49.5 -14z" />
    <glyph glyph-name="dieresis" unicode="&#xa8;" horiz-adv-x="270" 
d="M361 834q-2 -14 -16 -14q-7 0 -10.5 4.5t-2.5 11.5q1 5 6 9.5t10 4.5q17 0 13 -16zM161 834q-2 -14 -16 -14q-7 0 -10.5 4.5t-2.5 11.5q1 5 6 9.5t10 4.5q17 0 13 -16z" />
    <glyph glyph-name="copyright" unicode="&#xa9;" horiz-adv-x="856" 
d="M807 344q-11 -69 -42 -128t-74 -100t-95 -70t-106 -42.5t-107 -13.5q-67 0 -128.5 24t-108.5 68.5t-69.5 116t-8.5 157.5q11 69 42 128t74 100t95 70t106 42.5t107 13.5q67 0 128.5 -24t108.5 -68.5t69.5 -116t8.5 -157.5zM554 184q-66 -34 -134 -34q-79 0 -129.5 52
t-35.5 146q16 100 86.5 151t150.5 51q69 0 115 -35l-2 -10q-46 35 -112 35q-49 0 -95 -18.5t-84.5 -64t-48.5 -111.5q-13 -87 33.5 -136.5t120.5 -49.5q72 0 137 34zM78 354q-13 -83 8.5 -152t67 -112t104.5 -66.5t123 -23.5q66 0 132 22t125.5 63t102.5 109t56 152
q13 83 -8.5 152t-67 112t-104.5 66.5t-123 23.5q-66 0 -132 -22t-125.5 -63t-102.5 -109t-56 -152z" />
    <glyph glyph-name="guillemotleft" unicode="&#xab;" horiz-adv-x="397" 
d="M289 72h-11l-92 165l1 6l143 165h12l-146 -169zM149 72h-11l-92 165l1 6l143 165h12l-146 -169z" />
    <glyph glyph-name="logicalnot" unicode="&#xac;" horiz-adv-x="574" 
d="M501 310h-10l26 160h-410l1 10h420z" />
    <glyph glyph-name="registered" unicode="&#xae;" horiz-adv-x="856" 
d="M807 344q-11 -69 -42 -128t-74 -100t-95 -70t-106 -42.5t-107 -13.5q-67 0 -128.5 24t-108.5 68.5t-69.5 116t-8.5 157.5q11 69 42 128t74 100t95 70t106 42.5t107 13.5q67 0 128.5 -24t108.5 -68.5t69.5 -116t8.5 -157.5zM78 354q-13 -83 8.5 -152t67 -112t104.5 -66.5
t123 -23.5q66 0 132 22t125.5 63t102.5 109t56 152q13 83 -8.5 152t-67 112t-104.5 66.5t-123 23.5q-66 0 -132 -22t-125.5 -63t-102.5 -109t-56 -152zM290 148h-10l62 395h146q21 0 42 -5t43.5 -17t33.5 -38t5 -62q-15 -89 -111 -106l91 -167h-11l-90 165q-15 -2 -40 -2
h-136zM351 533l-34 -212h136q133 0 149 102q5 33 -4.5 56t-30 34t-40 15.5t-40.5 4.5h-136z" />
    <glyph glyph-name="macron" unicode="&#xaf;" horiz-adv-x="280" 
d="M130 828h240l-1 -10h-240z" />
    <glyph glyph-name="degree" unicode="&#xb0;" horiz-adv-x="386" 
d="M378 578q-10 -62 -57.5 -99t-103.5 -37q-58 0 -94.5 39.5t-26.5 102.5q10 62 57.5 99t103.5 37q57 0 94 -39.5t27 -102.5zM106 582q-9 -58 24.5 -94t85.5 -36q54 0 98.5 34.5t53.5 93.5q9 57 -24.5 93.5t-84.5 36.5q-54 0 -99 -34.5t-54 -93.5z" />
    <glyph glyph-name="plusminus" unicode="&#xb1;" horiz-adv-x="590" 
d="M349 560l-33 -205h205l-1 -10h-205l-33 -205h-10l33 205h-205l1 10h205l33 205h10zM465 0h-420l2 10h420z" />
    <glyph glyph-name="acute" unicode="&#xb4;" horiz-adv-x="160" 
d="M145 780h-12l107 130h12z" />
    <glyph glyph-name="paragraph" unicode="&#xb6;" horiz-adv-x="577" 
d="M178 -220h-10l83 520q-99 0 -147.5 53t-33.5 148q15 94 80 146.5t164 52.5h240l-146 -920h-10l144 910h-220z" />
    <glyph glyph-name="periodcentered" unicode="&#xb7;" horiz-adv-x="178" 
d="M96 238q-2 -14 -16 -14q-16 0 -14 16q1 5 6 9.5t10 4.5q16 0 14 -16z" />
    <glyph glyph-name="cedilla" unicode="&#xb8;" horiz-adv-x="209" 
d="M74 0h10l-42 -104q29 7 57 5t46.5 -18.5t14.5 -43.5q-4 -30 -33 -49.5t-81 -19.5q-58 0 -100 23l2 10q41 -23 97 -23q50 0 76 17t29 44q5 35 -35.5 47t-87.5 -5z" />
    <glyph glyph-name="guillemotright" unicode="&#xbb;" horiz-adv-x="396" 
d="M191 72h-13l147 169l-93 167h11l92 -165l-1 -6zM51 72h-13l147 169l-93 167h11l92 -165l-1 -6z" />
    <glyph glyph-name="onequarter" unicode="&#xbc;" horiz-adv-x="937" 
d="M816 408h11l-47 -295h91l-1 -9h-91l-17 -104h-10l17 104h-244l1 8zM770 113l44 279l-274 -279h230zM172 -10h-13l569 720h13zM229 680h7l-63 -398h81l-2 -10h-198l2 10h107l61 386l-102 -36l2 10z" />
    <glyph glyph-name="onehalf" unicode="&#xbd;" horiz-adv-x="881" 
d="M167 -10h-13l569 720h13zM598 379q62 35 126 35q55 0 87.5 -27t25.5 -72q-4 -25 -15.5 -45t-34.5 -37.5t-40.5 -28t-51.5 -28.5q-33 -18 -44.5 -24t-37.5 -23.5t-37 -31.5t-23 -37t-17 -50h259l-2 -10h-270l1 8q6 35 20.5 62.5t42.5 49.5t46.5 33.5t56.5 31.5
q35 19 51 28t38.5 26t33 35.5t14.5 42.5q7 39 -22.5 63t-80.5 24q-65 0 -128 -36zM224 680h7l-63 -398h81l-2 -10h-198l2 10h107l61 386l-102 -36l2 10z" />
    <glyph glyph-name="threequarters" unicode="&#xbe;" horiz-adv-x="983" 
d="M248 -10h-13l569 720h13zM862 408h11l-47 -295h91l-1 -9h-91l-17 -104h-10l17 104h-244l1 8zM816 113l44 279l-274 -279h230zM371 582q-6 -34 -31.5 -60.5t-68.5 -34.5q43 -6 67.5 -32.5t17.5 -72.5q-8 -53 -51 -82.5t-111 -29.5q-77 0 -129 26l2 10q54 -26 127 -26
q64 0 104.5 27t47.5 77q8 49 -24 73.5t-88 24.5h-59l1 10h58q56 0 88.5 27t38.5 65q6 40 -22 68t-81 28q-65 0 -129 -26l2 11q59 25 128 25q56 0 87.5 -31.5t24.5 -76.5z" />
    <glyph glyph-name="questiondown" unicode="&#xbf;" horiz-adv-x="477" 
d="M369 -168q-98 -57 -201 -57q-96 0 -147 43t-39 116q6 40 33.5 81t63 75.5t71 68t62.5 71t32 73.5h10q-6 -38 -33 -77t-62.5 -73t-71 -67.5t-63 -74t-33.5 -79.5q-11 -67 37 -107t140 -40q99 0 202 57zM291 474q-1 -5 -6 -9.5t-10 -4.5q-17 0 -13 16q2 14 16 14
q7 0 10.5 -4.5t2.5 -11.5z" />
    <glyph glyph-name="Agrave" unicode="&#xc0;" horiz-adv-x="704" 
d="M639 0h-11l-70 227h-431l-142 -227h-12l437 700h14zM408 678l-275 -441h423l-136 441q-4 10 -4 13q-1 -2 -4 -6.5t-4 -6.5zM449 780h-11l-67 130h11z" />
    <glyph glyph-name="Aacute" unicode="&#xc1;" horiz-adv-x="704" 
d="M639 0h-11l-70 227h-431l-142 -227h-12l437 700h14zM408 678l-275 -441h423l-136 441q-4 10 -4 13q-1 -2 -4 -6.5t-4 -6.5zM419 780h-12l107 130h12z" />
    <glyph glyph-name="Acircumflex" unicode="&#xc2;" horiz-adv-x="704" 
d="M639 0h-11l-70 227h-431l-142 -227h-12l437 700h14zM408 678l-275 -441h423l-136 441q-4 10 -4 13q-1 -2 -4 -6.5t-4 -6.5zM446 900h8l106 -120h-12l-98 111l-133 -111h-14z" />
    <glyph glyph-name="Atilde" unicode="&#xc3;" horiz-adv-x="704" 
d="M639 0h-11l-70 227h-431l-142 -227h-12l437 700h14zM408 678l-275 -441h423l-136 441q-4 10 -4 13q-1 -2 -4 -6.5t-4 -6.5zM578 859q-1 -28 -17 -46t-43 -18t-83 30t-80 30q-22 0 -36 -15t-15 -40h-10q0 27 17 46t43 19t83 -30t81 -30q47 0 50 54h10z" />
    <glyph glyph-name="Adieresis" unicode="&#xc4;" horiz-adv-x="704" 
d="M639 0h-11l-70 227h-431l-142 -227h-12l437 700h14zM408 678l-275 -441h423l-136 441q-4 10 -4 13q-1 -2 -4 -6.5t-4 -6.5zM553 834q-2 -14 -16 -14q-7 0 -10.5 4.5t-2.5 11.5q1 5 6 9.5t10 4.5q17 0 13 -16zM353 834q-2 -14 -16 -14q-7 0 -10.5 4.5t-2.5 11.5q1 5 6 9.5
t10 4.5q17 0 13 -16z" />
    <glyph glyph-name="Aring" unicode="&#xc5;" horiz-adv-x="704" 
d="M639 0h-11l-70 227h-431l-142 -227h-12l437 700h14zM408 678l-275 -441h423l-136 441q-4 10 -4 13q-1 -2 -4 -6.5t-4 -6.5zM515 835q-5 -32 -31 -53t-56 -21q-32 0 -52 21.5t-14 54.5q5 32 31 53t56 21q32 0 52 -21.5t14 -54.5zM371 835q-4 -28 13 -46t43 -18q28 0 51 18
t28 48q4 28 -13 46t-43 18q-28 0 -51 -18t-28 -48z" />
    <glyph glyph-name="AE" unicode="&#xc6;" horiz-adv-x="997" 
d="M992 700l-2 -10h-411l-52 -333h381l-2 -10h-381l-53 -337h417l-2 -10h-426l36 227h-335l-200 -227h-13l617 700h426zM171 237h327l72 453z" />
    <glyph glyph-name="Ccedilla" unicode="&#xc7;" horiz-adv-x="651" 
d="M660 651q-74 49 -181 49q-51 0 -103 -13t-101.5 -41.5t-90 -69t-70 -99t-40.5 -128.5q-13 -84 6.5 -152t62.5 -110t101 -64.5t123 -22.5q105 0 203 50l-2 -10q-92 -50 -199 -50l-38 -94q29 7 57 5t46.5 -18.5t14.5 -43.5q-4 -30 -33 -49.5t-81 -19.5q-58 0 -100 23l2 10
q41 -23 97 -23q50 0 76 17t29 44q5 35 -35.5 47t-87.5 -5l43 107q-66 2 -124 25.5t-101.5 67t-63 113t-6.5 155.5q14 88 56.5 158.5t101.5 113.5t125 65t132 22q106 0 183 -49z" />
    <glyph glyph-name="Egrave" unicode="&#xc8;" horiz-adv-x="632" 
d="M173 700h451l-2 -10h-441l-52 -333h411l-2 -10h-411l-53 -337h447l-2 -10h-457zM430 780h-11l-67 130h11z" />
    <glyph glyph-name="Eacute" unicode="&#xc9;" horiz-adv-x="632" 
d="M173 700h451l-2 -10h-441l-52 -333h411l-2 -10h-411l-53 -337h447l-2 -10h-457zM400 780h-12l107 130h12z" />
    <glyph glyph-name="Ecircumflex" unicode="&#xca;" horiz-adv-x="632" 
d="M173 700h451l-2 -10h-441l-52 -333h411l-2 -10h-411l-53 -337h447l-2 -10h-457zM427 900h8l106 -120h-12l-98 111l-133 -111h-14z" />
    <glyph glyph-name="Edieresis" unicode="&#xcb;" horiz-adv-x="632" 
d="M173 700h451l-2 -10h-441l-52 -333h411l-2 -10h-411l-53 -337h447l-2 -10h-457zM534 834q-2 -14 -16 -14q-7 0 -10.5 4.5t-2.5 11.5q1 5 6 9.5t10 4.5q17 0 13 -16zM334 834q-2 -14 -16 -14q-7 0 -10.5 4.5t-2.5 11.5q1 5 6 9.5t10 4.5q17 0 13 -16z" />
    <glyph glyph-name="Igrave" unicode="&#xcc;" horiz-adv-x="226" 
d="M173 700h10l-111 -700h-10zM208 780h-11l-67 130h11z" />
    <glyph glyph-name="Iacute" unicode="&#xcd;" horiz-adv-x="226" 
d="M173 700h10l-111 -700h-10zM178 780h-12l107 130h12z" />
    <glyph glyph-name="Icircumflex" unicode="&#xce;" horiz-adv-x="226" 
d="M173 700h10l-111 -700h-10zM205 900h8l106 -120h-12l-98 111l-133 -111h-14z" />
    <glyph glyph-name="Idieresis" unicode="&#xcf;" horiz-adv-x="226" 
d="M173 700h10l-111 -700h-10zM312 834q-2 -14 -16 -14q-7 0 -10.5 4.5t-2.5 11.5q1 5 6 9.5t10 4.5q17 0 13 -16zM112 834q-2 -14 -16 -14q-7 0 -10.5 4.5t-2.5 11.5q1 5 6 9.5t10 4.5q17 0 13 -16z" />
    <glyph glyph-name="Eth" unicode="&#xd0;" horiz-adv-x="728" 
d="M173 700h187q185 0 265.5 -96.5t55.5 -254.5q-24 -157 -133.5 -253t-294.5 -96h-191l55 345h-59l1 10h59zM255 10q179 0 286 93.5t131 247.5q24 153 -53.5 246t-256.5 93h-181l-53 -335h271l-1 -10h-271l-53 -335h181z" />
    <glyph glyph-name="Ntilde" unicode="&#xd1;" horiz-adv-x="766" 
d="M72 0h-10l111 700h7l425 -681q1 8 3.5 22.5t3.5 21.5l101 637h10l-111 -700h-7l-425 682q-1 -8 -3.5 -22t-3.5 -22zM609 859q-1 -28 -17 -46t-43 -18t-83 30t-80 30q-22 0 -36 -15t-15 -40h-10q0 27 17 46t43 19t83 -30t81 -30q47 0 50 54h10z" />
    <glyph glyph-name="Ograve" unicode="&#xd2;" horiz-adv-x="826" 
d="M782 349q-10 -66 -44 -129.5t-86 -115t-127 -83t-159 -31.5q-87 0 -152.5 32t-100 84.5t-47.5 115.5t-3 129t44 129.5t86 115t127 83t159 31.5q87 0 152.5 -32t100 -84.5t47.5 -115.5t3 -129zM73 349q-10 -64 2.5 -125t46.5 -111.5t97 -81.5t147 -31q110 0 200.5 54
t141 132t64.5 165q10 64 -2.5 125t-46.5 111.5t-97 81.5t-147 31q-110 0 -200.5 -54t-141 -132t-64.5 -165zM510 780h-11l-67 130h11z" />
    <glyph glyph-name="Oacute" unicode="&#xd3;" horiz-adv-x="826" 
d="M782 349q-10 -66 -44 -129.5t-86 -115t-127 -83t-159 -31.5q-87 0 -152.5 32t-100 84.5t-47.5 115.5t-3 129t44 129.5t86 115t127 83t159 31.5q87 0 152.5 -32t100 -84.5t47.5 -115.5t3 -129zM73 349q-10 -64 2.5 -125t46.5 -111.5t97 -81.5t147 -31q110 0 200.5 54
t141 132t64.5 165q10 64 -2.5 125t-46.5 111.5t-97 81.5t-147 31q-110 0 -200.5 -54t-141 -132t-64.5 -165zM480 780h-12l107 130h12z" />
    <glyph glyph-name="Ocircumflex" unicode="&#xd4;" horiz-adv-x="826" 
d="M782 349q-10 -66 -44 -129.5t-86 -115t-127 -83t-159 -31.5q-87 0 -152.5 32t-100 84.5t-47.5 115.5t-3 129t44 129.5t86 115t127 83t159 31.5q87 0 152.5 -32t100 -84.5t47.5 -115.5t3 -129zM73 349q-10 -64 2.5 -125t46.5 -111.5t97 -81.5t147 -31q110 0 200.5 54
t141 132t64.5 165q10 64 -2.5 125t-46.5 111.5t-97 81.5t-147 31q-110 0 -200.5 -54t-141 -132t-64.5 -165zM507 900h8l106 -120h-12l-98 111l-133 -111h-14z" />
    <glyph glyph-name="Otilde" unicode="&#xd5;" horiz-adv-x="826" 
d="M782 349q-10 -66 -44 -129.5t-86 -115t-127 -83t-159 -31.5q-87 0 -152.5 32t-100 84.5t-47.5 115.5t-3 129t44 129.5t86 115t127 83t159 31.5q87 0 152.5 -32t100 -84.5t47.5 -115.5t3 -129zM73 349q-10 -64 2.5 -125t46.5 -111.5t97 -81.5t147 -31q110 0 200.5 54
t141 132t64.5 165q10 64 -2.5 125t-46.5 111.5t-97 81.5t-147 31q-110 0 -200.5 -54t-141 -132t-64.5 -165zM639 859q-1 -28 -17 -46t-43 -18t-83 30t-80 30q-22 0 -36 -15t-15 -40h-10q0 27 17 46t43 19t83 -30t81 -30q47 0 50 54h10z" />
    <glyph glyph-name="Odieresis" unicode="&#xd6;" horiz-adv-x="826" 
d="M782 349q-10 -66 -44 -129.5t-86 -115t-127 -83t-159 -31.5q-87 0 -152.5 32t-100 84.5t-47.5 115.5t-3 129t44 129.5t86 115t127 83t159 31.5q87 0 152.5 -32t100 -84.5t47.5 -115.5t3 -129zM73 349q-10 -64 2.5 -125t46.5 -111.5t97 -81.5t147 -31q110 0 200.5 54
t141 132t64.5 165q10 64 -2.5 125t-46.5 111.5t-97 81.5t-147 31q-110 0 -200.5 -54t-141 -132t-64.5 -165zM614 834q-2 -14 -16 -14q-7 0 -10.5 4.5t-2.5 11.5q1 5 6 9.5t10 4.5q17 0 13 -16zM414 834q-2 -14 -16 -14q-7 0 -10.5 4.5t-2.5 11.5q1 5 6 9.5t10 4.5
q17 0 13 -16z" />
    <glyph glyph-name="multiply" unicode="&#xd7;" horiz-adv-x="438" 
d="M227 343l-158 -137l-6 8l158 136l-115 136l7 7l115 -136l159 137l6 -8l-159 -137l115 -136l-7 -7z" />
    <glyph glyph-name="Oslash" unicode="&#xd8;" horiz-adv-x="826" 
d="M76 -48h-12l94 106q-60 52 -84 130.5t-11 162.5q10 66 44 129.5t86 115t127 83t159 31.5q121 0 201 -62l89 100h12l-94 -106q60 -52 84 -130.5t11 -162.5q-10 -66 -44 -129.5t-86 -115t-127 -83t-159 -31.5q-121 0 -201 62zM73 349q-13 -82 10 -158t82 -125l508 574
q-76 60 -194 60q-110 0 -200.5 -54t-141 -132t-64.5 -165zM172 60q76 -60 194 -60q110 0 200.5 54t141 132t64.5 165q13 82 -10 158t-82 125z" />
    <glyph glyph-name="Ugrave" unicode="&#xd9;" horiz-adv-x="748" 
d="M704 700h10l-73 -463q-39 -247 -313 -247q-61 0 -107.5 13t-80 41.5t-47 77t-2.5 115.5l73 463h10l-73 -463q-37 -237 226 -237q267 0 304 237zM469 780h-11l-67 130h11z" />
    <glyph glyph-name="Uacute" unicode="&#xda;" horiz-adv-x="748" 
d="M704 700h10l-73 -463q-39 -247 -313 -247q-61 0 -107.5 13t-80 41.5t-47 77t-2.5 115.5l73 463h10l-73 -463q-37 -237 226 -237q267 0 304 237zM439 780h-12l107 130h12z" />
    <glyph glyph-name="Ucircumflex" unicode="&#xdb;" horiz-adv-x="748" 
d="M704 700h10l-73 -463q-39 -247 -313 -247q-61 0 -107.5 13t-80 41.5t-47 77t-2.5 115.5l73 463h10l-73 -463q-37 -237 226 -237q267 0 304 237zM466 900h8l106 -120h-12l-98 111l-133 -111h-14z" />
    <glyph glyph-name="Udieresis" unicode="&#xdc;" horiz-adv-x="748" 
d="M704 700h10l-73 -463q-39 -247 -313 -247q-61 0 -107.5 13t-80 41.5t-47 77t-2.5 115.5l73 463h10l-73 -463q-37 -237 226 -237q267 0 304 237zM573 834q-2 -14 -16 -14q-7 0 -10.5 4.5t-2.5 11.5q1 5 6 9.5t10 4.5q17 0 13 -16zM373 834q-2 -14 -16 -14q-7 0 -10.5 4.5
t-2.5 11.5q1 5 6 9.5t10 4.5q17 0 13 -16z" />
    <glyph glyph-name="Yacute" unicode="&#xdd;" horiz-adv-x="616" 
d="M267 0h-10l46 289l-210 411h11l205 -400l332 400h13l-341 -411zM375 780h-12l107 130h12z" />
    <glyph glyph-name="Thorn" unicode="&#xde;" horiz-adv-x="647" 
d="M162 565h197q63 0 111.5 -10.5t87 -34t55 -67t6.5 -104.5q-33 -214 -323 -214h-202l-22 -135h-10l111 700h10zM95 145h202q280 0 313 206q17 111 -52 157.5t-196 46.5h-202z" />
    <glyph glyph-name="germandbls" unicode="&#xdf;" horiz-adv-x="586" 
d="M524 150q-13 -78 -78 -119t-149 -41q-78 0 -130 34l2 10q54 -34 127 -34q82 0 144 38.5t74 113.5q6 34 -5.5 65.5t-31.5 55t-40.5 45t-33.5 43t-10 41.5q3 21 19 41.5t33.5 34.5t34.5 38.5t21 53.5q8 48 -33 89t-112 41q-88 0 -150 -52.5t-76 -141.5l-80 -506h-10l80 506
q15 95 80.5 149.5t155.5 54.5q74 0 119 -44t36 -98q-6 -38 -31 -66.5t-49 -51.5t-28 -49q-3 -22 17.5 -50t46.5 -53t45 -65t12 -83z" />
    <glyph glyph-name="agrave" unicode="&#xe0;" horiz-adv-x="611" 
d="M491 134q-39 -63 -105.5 -103.5t-141.5 -40.5q-104 0 -161 70.5t-39 185.5q18 113 96.5 178.5t180.5 65.5q73 0 129 -42t74 -106l22 138h10l-76 -480h-10zM54 244q-18 -110 36 -177t153 -67q80 0 149 45.5t103 114.5l25 157q-12 70 -67.5 116.5t-131.5 46.5
q-98 0 -174 -63t-93 -173zM367 560h-11l-67 130h11z" />
    <glyph glyph-name="aacute" unicode="&#xe1;" horiz-adv-x="611" 
d="M491 134q-39 -63 -105.5 -103.5t-141.5 -40.5q-104 0 -161 70.5t-39 185.5q18 113 96.5 178.5t180.5 65.5q73 0 129 -42t74 -106l22 138h10l-76 -480h-10zM54 244q-18 -110 36 -177t153 -67q80 0 149 45.5t103 114.5l25 157q-12 70 -67.5 116.5t-131.5 46.5
q-98 0 -174 -63t-93 -173zM337 560h-12l107 130h12z" />
    <glyph glyph-name="acircumflex" unicode="&#xe2;" horiz-adv-x="611" 
d="M491 134q-39 -63 -105.5 -103.5t-141.5 -40.5q-104 0 -161 70.5t-39 185.5q18 113 96.5 178.5t180.5 65.5q73 0 129 -42t74 -106l22 138h10l-76 -480h-10zM54 244q-18 -110 36 -177t153 -67q80 0 149 45.5t103 114.5l25 157q-12 70 -67.5 116.5t-131.5 46.5
q-98 0 -174 -63t-93 -173zM364 680h8l106 -120h-12l-98 111l-133 -111h-14z" />
    <glyph glyph-name="atilde" unicode="&#xe3;" horiz-adv-x="611" 
d="M491 134q-39 -63 -105.5 -103.5t-141.5 -40.5q-104 0 -161 70.5t-39 185.5q18 113 96.5 178.5t180.5 65.5q73 0 129 -42t74 -106l22 138h10l-76 -480h-10zM54 244q-18 -110 36 -177t153 -67q80 0 149 45.5t103 114.5l25 157q-12 70 -67.5 116.5t-131.5 46.5
q-98 0 -174 -63t-93 -173zM496 639q-1 -28 -17 -46t-43 -18t-83 30t-80 30q-22 0 -36 -15t-15 -40h-10q0 27 17 46t43 19t83 -30t81 -30q47 0 50 54h10z" />
    <glyph glyph-name="adieresis" unicode="&#xe4;" horiz-adv-x="611" 
d="M491 134q-39 -63 -105.5 -103.5t-141.5 -40.5q-104 0 -161 70.5t-39 185.5q18 113 96.5 178.5t180.5 65.5q73 0 129 -42t74 -106l22 138h10l-76 -480h-10zM54 244q-18 -110 36 -177t153 -67q80 0 149 45.5t103 114.5l25 157q-12 70 -67.5 116.5t-131.5 46.5
q-98 0 -174 -63t-93 -173zM471 614q-2 -14 -16 -14q-7 0 -10.5 4.5t-2.5 11.5q1 5 6 9.5t10 4.5q17 0 13 -16zM271 614q-2 -14 -16 -14q-7 0 -10.5 4.5t-2.5 11.5q1 5 6 9.5t10 4.5q17 0 13 -16z" />
    <glyph glyph-name="aring" unicode="&#xe5;" horiz-adv-x="611" 
d="M491 134q-39 -63 -105.5 -103.5t-141.5 -40.5q-104 0 -161 70.5t-39 185.5q18 113 96.5 178.5t180.5 65.5q73 0 129 -42t74 -106l22 138h10l-76 -480h-10zM54 244q-18 -110 36 -177t153 -67q80 0 149 45.5t103 114.5l25 157q-12 70 -67.5 116.5t-131.5 46.5
q-98 0 -174 -63t-93 -173zM433 615q-5 -32 -31 -53t-56 -21q-32 0 -52 21.5t-14 54.5q5 32 31 53t56 21q32 0 52 -21.5t14 -54.5zM289 615q-4 -28 13 -46t43 -18q28 0 51 18t28 48q4 28 -13 46t-43 18q-28 0 -51 -18t-28 -48z" />
    <glyph glyph-name="ae" unicode="&#xe6;" horiz-adv-x="1007" 
d="M491 132q-40 -62 -105.5 -102t-141.5 -40q-102 0 -160 70.5t-40 185.5q18 113 96.5 178.5t180.5 65.5q73 0 129 -42t74 -106l22 138h10l-25 -160q34 80 102.5 125t146.5 45q50 0 87.5 -16.5t57.5 -43.5t29.5 -61.5t8 -69.5t-11.5 -68h-433q-16 -114 48 -172.5t164 -58.5
q91 0 162 38l-2 -11q-68 -37 -159 -37q-86 0 -150 43t-75 128l-26 -161h-10zM55 244q-18 -110 36 -177t153 -67q80 0 149 45.5t103 114.5l25 157q-12 69 -68.5 116t-130.5 47q-99 0 -174.5 -63t-92.5 -173zM780 480q-98 0 -172.5 -68t-88.5 -171h424q13 39 9 81t-19.5 77.5
t-55 58t-97.5 22.5z" />
    <glyph glyph-name="ccedilla" unicode="&#xe7;" horiz-adv-x="493" 
d="M470 441q-49 39 -132 39q-99 0 -182.5 -61.5t-103.5 -179.5q-18 -114 41.5 -176.5t157.5 -62.5q92 0 160 39l-1 -11q-68 -38 -156 -38l-38 -94q29 7 57 5t46.5 -18.5t14.5 -43.5q-4 -30 -33 -49.5t-81 -19.5q-58 0 -100 23l2 10q41 -23 97 -23q50 0 76 17t29 44
q5 35 -35.5 47t-87.5 -5l43 107q-100 2 -160 67t-42 184q10 63 41 112.5t73.5 78.5t89 43.5t92.5 14.5q82 0 134 -39z" />
    <glyph glyph-name="egrave" unicode="&#xe8;" horiz-adv-x="542" 
d="M43 241q18 114 94.5 181.5t172.5 67.5q60 0 103.5 -25.5t60.5 -64t22 -84t-10 -85.5h-434q-16 -114 48 -172.5t164 -58.5q91 0 162 38l-2 -11q-68 -37 -159 -37q-106 0 -174 63.5t-48 187.5zM478 241q13 39 7.5 81t-22.5 77.5t-57 58t-96 22.5q-92 0 -165 -63.5
t-92 -175.5h425zM347 560h-11l-67 130h11z" />
    <glyph glyph-name="eacute" unicode="&#xe9;" horiz-adv-x="542" 
d="M43 241q18 114 94.5 181.5t172.5 67.5q60 0 103.5 -25.5t60.5 -64t22 -84t-10 -85.5h-434q-16 -114 48 -172.5t164 -58.5q91 0 162 38l-2 -11q-68 -37 -159 -37q-106 0 -174 63.5t-48 187.5zM478 241q13 39 7.5 81t-22.5 77.5t-57 58t-96 22.5q-92 0 -165 -63.5
t-92 -175.5h425zM317 560h-12l107 130h12z" />
    <glyph glyph-name="ecircumflex" unicode="&#xea;" horiz-adv-x="542" 
d="M43 241q18 114 94.5 181.5t172.5 67.5q60 0 103.5 -25.5t60.5 -64t22 -84t-10 -85.5h-434q-16 -114 48 -172.5t164 -58.5q91 0 162 38l-2 -11q-68 -37 -159 -37q-106 0 -174 63.5t-48 187.5zM478 241q13 39 7.5 81t-22.5 77.5t-57 58t-96 22.5q-92 0 -165 -63.5
t-92 -175.5h425zM344 680h8l106 -120h-12l-98 111l-133 -111h-14z" />
    <glyph glyph-name="edieresis" unicode="&#xeb;" horiz-adv-x="542" 
d="M43 241q18 114 94.5 181.5t172.5 67.5q60 0 103.5 -25.5t60.5 -64t22 -84t-10 -85.5h-434q-16 -114 48 -172.5t164 -58.5q91 0 162 38l-2 -11q-68 -37 -159 -37q-106 0 -174 63.5t-48 187.5zM478 241q13 39 7.5 81t-22.5 77.5t-57 58t-96 22.5q-92 0 -165 -63.5
t-92 -175.5h425zM451 614q-2 -14 -16 -14q-7 0 -10.5 4.5t-2.5 11.5q1 5 6 9.5t10 4.5q17 0 13 -16zM251 614q-2 -14 -16 -14q-7 0 -10.5 4.5t-2.5 11.5q1 5 6 9.5t10 4.5q17 0 13 -16z" />
    <glyph glyph-name="igrave" unicode="&#xec;" horiz-adv-x="191" 
d="M148 560h-10l-47 130h10zM55 0h-10l76 480h10z" />
    <glyph glyph-name="iacute" unicode="&#xed;" horiz-adv-x="191" 
d="M54 0h-10l76 480h10zM127 560h-12l107 130h12z" />
    <glyph glyph-name="icircumflex" unicode="&#xee;" horiz-adv-x="192" 
d="M55 0h-10l76 480h10zM36 560h-14l133 120h8l96 -120h-12l-88 111z" />
    <glyph glyph-name="idieresis" unicode="&#xef;" horiz-adv-x="192" 
d="M55 0h-10l76 480h10zM92 614q-2 -14 -16 -14q-7 0 -10.5 4.5t-2.5 11.5q1 5 6 9.5t10 4.5q17 0 13 -16zM232 614q-2 -14 -16 -14q-7 0 -10.5 4.5t-2.5 11.5q1 5 6 9.5t10 4.5q17 0 13 -16z" />
    <glyph glyph-name="eth" unicode="&#xf0;" horiz-adv-x="596" 
d="M531 264q-20 -123 -98.5 -198.5t-188.5 -75.5q-104 0 -162.5 65t-41.5 171q15 98 93.5 161t174.5 63q87 0 149 -54t59 -156q4 15 5 26q14 71 6.5 129.5t-23.5 101t-46 75.5t-61.5 54t-69.5 35l-146 -126l-6 7l141 122q-68 26 -153 26l2 10q82 0 161 -28l97 84l6 -7
l-94 -81q39 -15 71 -36.5t61.5 -55.5t46 -77.5t23.5 -103t-6 -131.5zM51 224q-16 -101 39 -162.5t153 -61.5q91 0 160 53.5t102 145.5q16 117 -44 179t-152 62q-93 0 -168 -60.5t-90 -155.5z" />
    <glyph glyph-name="ntilde" unicode="&#xf1;" horiz-adv-x="571" 
d="M107 363q39 50 99 88.5t133 38.5q78 0 122.5 -52.5t30.5 -142.5l-47 -295h-10l47 295q14 86 -27 135.5t-116 49.5q-73 0 -135.5 -41.5t-99.5 -95.5l-54 -343h-10l76 480h10zM467 639q-1 -28 -17 -46t-43 -18t-83 30t-80 30q-22 0 -36 -15t-15 -40h-10q0 27 17 46t43 19
t83 -30t81 -30q47 0 50 54h10z" />
    <glyph glyph-name="ograve" unicode="&#xf2;" horiz-adv-x="591" 
d="M533 234q-18 -113 -99.5 -178.5t-183.5 -65.5q-98 0 -161.5 70.5t-45.5 185.5q18 113 100 178.5t184 65.5q98 0 161 -70.5t45 -185.5zM53 244q-17 -109 42.5 -176.5t153.5 -67.5q99 0 178 63t96 173q17 109 -42.5 176.5t-153.5 67.5q-99 0 -178 -63t-96 -173zM359 550
h-11l-67 130h11z" />
    <glyph glyph-name="oacute" unicode="&#xf3;" horiz-adv-x="591" 
d="M533 234q-18 -113 -99.5 -178.5t-183.5 -65.5q-98 0 -161.5 70.5t-45.5 185.5q18 113 100 178.5t184 65.5q98 0 161 -70.5t45 -185.5zM53 244q-17 -109 42.5 -176.5t153.5 -67.5q99 0 178 63t96 173q17 109 -42.5 176.5t-153.5 67.5q-99 0 -178 -63t-96 -173zM329 550
h-12l107 130h12z" />
    <glyph glyph-name="ocircumflex" unicode="&#xf4;" horiz-adv-x="591" 
d="M533 234q-18 -113 -99.5 -178.5t-183.5 -65.5q-98 0 -161.5 70.5t-45.5 185.5q18 113 100 178.5t184 65.5q98 0 161 -70.5t45 -185.5zM53 244q-17 -109 42.5 -176.5t153.5 -67.5q99 0 178 63t96 173q17 109 -42.5 176.5t-153.5 67.5q-99 0 -178 -63t-96 -173zM356 670h8
l106 -120h-12l-98 111l-133 -111h-14z" />
    <glyph glyph-name="otilde" unicode="&#xf5;" horiz-adv-x="591" 
d="M533 234q-18 -113 -99.5 -178.5t-183.5 -65.5q-98 0 -161.5 70.5t-45.5 185.5q18 113 100 178.5t184 65.5q98 0 161 -70.5t45 -185.5zM53 244q-17 -109 42.5 -176.5t153.5 -67.5q99 0 178 63t96 173q17 109 -42.5 176.5t-153.5 67.5q-99 0 -178 -63t-96 -173zM488 629
q-1 -28 -17 -46t-43 -18t-83 30t-80 30q-22 0 -36 -15t-15 -40h-10q0 27 17 46t43 19t83 -30t81 -30q47 0 50 54h10z" />
    <glyph glyph-name="odieresis" unicode="&#xf6;" horiz-adv-x="591" 
d="M533 234q-18 -113 -99.5 -178.5t-183.5 -65.5q-98 0 -161.5 70.5t-45.5 185.5q18 113 100 178.5t184 65.5q98 0 161 -70.5t45 -185.5zM53 244q-17 -109 42.5 -176.5t153.5 -67.5q99 0 178 63t96 173q17 109 -42.5 176.5t-153.5 67.5q-99 0 -178 -63t-96 -173zM463 604
q-2 -14 -16 -14q-7 0 -10.5 4.5t-2.5 11.5q1 5 6 9.5t10 4.5q17 0 13 -16zM263 604q-2 -14 -16 -14q-7 0 -10.5 4.5t-2.5 11.5q1 5 6 9.5t10 4.5q17 0 13 -16z" />
    <glyph glyph-name="divide" unicode="&#xf7;" horiz-adv-x="648" 
d="M573 345h-480l1 10h480zM313 124q-2 -14 -16 -14q-16 0 -14 16q1 5 6 9.5t10 4.5q16 0 14 -16zM384 571q-4 -14 -17 -14q-7 0 -10.5 4.5t-2.5 11.5q1 5 6 9.5t10 4.5q16 0 14 -16z" />
    <glyph glyph-name="oslash" unicode="&#xf8;" horiz-adv-x="591" 
d="M530 543l-74 -94q45 -34 66.5 -89t10.5 -126q-18 -113 -99.5 -178.5t-183.5 -65.5q-70 0 -126 39l-68 -86h-11l72 91q-44 34 -64.5 88.5t-9.5 123.5q18 113 100 178.5t184 65.5q69 0 122 -36l70 89h11zM327 480q-99 0 -178 -63t-96 -173q-20 -132 70 -202l319 404
q-51 34 -115 34zM249 0q99 0 178 63t96 173q11 68 -9.5 121t-63.5 84l-320 -405q53 -36 119 -36z" />
    <glyph glyph-name="ugrave" unicode="&#xf9;" horiz-adv-x="571" 
d="M505 480h10l-76 -480h-10l19 118q-37 -49 -98.5 -88.5t-132.5 -39.5q-79 0 -123.5 52.5t-30.5 142.5l47 295h10l-47 -295q-13 -86 28 -135.5t115 -49.5q72 0 135.5 42t99.5 97zM343 560h-11l-67 130h11z" />
    <glyph glyph-name="uacute" unicode="&#xfa;" horiz-adv-x="571" 
d="M505 480h10l-76 -480h-10l19 118q-37 -49 -98.5 -88.5t-132.5 -39.5q-79 0 -123.5 52.5t-30.5 142.5l47 295h10l-47 -295q-13 -86 28 -135.5t115 -49.5q72 0 135.5 42t99.5 97zM313 560h-12l107 130h12z" />
    <glyph glyph-name="ucircumflex" unicode="&#xfb;" horiz-adv-x="571" 
d="M505 480h10l-76 -480h-10l19 118q-37 -49 -98.5 -88.5t-132.5 -39.5q-79 0 -123.5 52.5t-30.5 142.5l47 295h10l-47 -295q-13 -86 28 -135.5t115 -49.5q72 0 135.5 42t99.5 97zM340 680h8l106 -120h-12l-98 111l-133 -111h-14z" />
    <glyph glyph-name="udieresis" unicode="&#xfc;" horiz-adv-x="571" 
d="M505 480h10l-76 -480h-10l19 118q-37 -49 -98.5 -88.5t-132.5 -39.5q-79 0 -123.5 52.5t-30.5 142.5l47 295h10l-47 -295q-13 -86 28 -135.5t115 -49.5q72 0 135.5 42t99.5 97zM447 614q-2 -14 -16 -14q-7 0 -10.5 4.5t-2.5 11.5q1 5 6 9.5t10 4.5q17 0 13 -16zM247 614
q-2 -14 -16 -14q-7 0 -10.5 4.5t-2.5 11.5q1 5 6 9.5t10 4.5q17 0 13 -16z" />
    <glyph glyph-name="yacute" unicode="&#xfd;" horiz-adv-x="528" 
d="M234 9l287 471h12l-349 -572q-48 -77 -86 -107.5t-84 -30.5q-24 0 -48 6l1 10q26 -6 46 -6q45 0 82.5 31t80.5 103l51 84l-178 482h11zM285 560h-12l107 130h12z" />
    <glyph glyph-name="thorn" unicode="&#xfe;" horiz-adv-x="611" 
d="M15 -220h-10l146 920h10l-57 -357q40 65 107.5 106t141.5 41q99 0 158 -71t41 -185t-94.5 -179t-181.5 -65q-76 0 -130.5 41.5t-73.5 108.5zM76 164q13 -71 66.5 -117.5t132.5 -46.5q101 0 175 62.5t92 173.5q18 109 -37.5 176.5t-151.5 67.5q-78 0 -148 -46.5
t-105 -117.5z" />
    <glyph glyph-name="ydieresis" unicode="&#xff;" horiz-adv-x="528" 
d="M234 9l287 471h12l-349 -572q-48 -77 -86 -107.5t-84 -30.5q-24 0 -48 6l1 10q26 -6 46 -6q45 0 82.5 31t80.5 103l51 84l-178 482h11zM419 614q-2 -14 -16 -14q-7 0 -10.5 4.5t-2.5 11.5q1 5 6 9.5t10 4.5q17 0 13 -16zM219 614q-2 -14 -16 -14q-7 0 -10.5 4.5
t-2.5 11.5q1 5 6 9.5t10 4.5q17 0 13 -16z" />
    <glyph glyph-name="Amacron" unicode="&#x100;" horiz-adv-x="704" 
d="M639 0h-11l-70 227h-431l-142 -227h-12l437 700h14zM408 678l-275 -441h423l-136 441q-4 10 -4 13q-1 -2 -4 -6.5t-4 -6.5zM318 828h240l-1 -10h-240z" />
    <glyph glyph-name="amacron" unicode="&#x101;" horiz-adv-x="611" 
d="M491 134q-39 -63 -105.5 -103.5t-141.5 -40.5q-104 0 -161 70.5t-39 185.5q18 113 96.5 178.5t180.5 65.5q73 0 129 -42t74 -106l22 138h10l-76 -480h-10zM54 244q-18 -110 36 -177t153 -67q80 0 149 45.5t103 114.5l25 157q-12 70 -67.5 116.5t-131.5 46.5
q-98 0 -174 -63t-93 -173zM236 608h240l-1 -10h-240z" />
    <glyph glyph-name="Abreve" unicode="&#x102;" horiz-adv-x="704" 
d="M639 0h-11l-70 227h-431l-142 -227h-12l437 700h14zM408 678l-275 -441h423l-136 441q-4 10 -4 13q-1 -2 -4 -6.5t-4 -6.5zM554 826q-53 -41 -123 -41q-77 0 -117 41l2 13q41 -44 113 -44t127 44z" />
    <glyph glyph-name="abreve" unicode="&#x103;" horiz-adv-x="611" 
d="M491 134q-39 -63 -105.5 -103.5t-141.5 -40.5q-104 0 -161 70.5t-39 185.5q18 113 96.5 178.5t180.5 65.5q73 0 129 -42t74 -106l22 138h10l-76 -480h-10zM54 244q-18 -110 36 -177t153 -67q80 0 149 45.5t103 114.5l25 157q-12 70 -67.5 116.5t-131.5 46.5
q-98 0 -174 -63t-93 -173zM472 606q-53 -41 -123 -41q-77 0 -117 41l2 13q41 -44 113 -44t127 44z" />
    <glyph glyph-name="Aogonek" unicode="&#x104;" horiz-adv-x="704" 
d="M639 0q-142 -89 -153 -156q-5 -30 11.5 -47t50.5 -17q30 0 57 10l-2 -11q-25 -9 -54 -9q-40 0 -59.5 20.5t-13.5 55.5q10 69 151 157l-69 224h-431l-142 -227h-12l437 700h14zM408 678l-275 -441h423l-136 441q-4 10 -4 13q-1 -2 -4 -6.5t-4 -6.5z" />
    <glyph glyph-name="aogonek" unicode="&#x105;" horiz-adv-x="611" 
d="M556 480l-76 -480q-132 -89 -143 -156q-4 -29 10.5 -46.5t41.5 -17.5t55 9l-1 -11q-29 -8 -53 -8q-32 0 -50.5 21t-12.5 55q11 72 144 160l20 128q-39 -63 -105.5 -103.5t-141.5 -40.5q-104 0 -161 70.5t-39 185.5q18 113 96.5 178.5t180.5 65.5q73 0 129 -42t74 -106
l22 138h10zM54 244q-18 -110 36 -177t153 -67q80 0 149 45.5t103 114.5l25 157q-12 70 -67.5 116.5t-131.5 46.5q-98 0 -174 -63t-93 -173z" />
    <glyph glyph-name="Cacute" unicode="&#x106;" horiz-adv-x="651" 
d="M64 351q14 88 56.5 158.5t101.5 113.5t125 65t132 22q106 0 183 -49l-2 -10q-74 49 -181 49q-51 0 -103 -13t-101.5 -41.5t-90 -69t-70 -99t-40.5 -128.5q-13 -84 6.5 -152t62.5 -110t101 -64.5t123 -22.5q105 0 203 50l-2 -10q-92 -50 -200 -50q-67 0 -126.5 23
t-105 66.5t-66 114t-6.5 157.5zM478 780h-12l107 130h12z" />
    <glyph glyph-name="cacute" unicode="&#x107;" horiz-adv-x="493" 
d="M41 241q10 63 41 112.5t73.5 78.5t89 43.5t92.5 14.5q82 0 134 -39l-2 -10q-49 39 -132 39q-99 0 -182.5 -61.5t-103.5 -179.5q-18 -114 41.5 -176.5t157.5 -62.5q92 0 160 39l-1 -11q-69 -38 -158 -38q-103 0 -165.5 64.5t-44.5 186.5zM327 560h-12l107 130h12z" />
    <glyph glyph-name="Cdotaccent" unicode="&#x10a;" horiz-adv-x="651" 
d="M64 351q14 88 56.5 158.5t101.5 113.5t125 65t132 22q106 0 183 -49l-2 -10q-74 49 -181 49q-51 0 -103 -13t-101.5 -41.5t-90 -69t-70 -99t-40.5 -128.5q-13 -84 6.5 -152t62.5 -110t101 -64.5t123 -22.5q105 0 203 50l-2 -10q-92 -50 -200 -50q-67 0 -126.5 23
t-105 66.5t-66 114t-6.5 157.5zM514 814q-4 -19 -22 -19q-9 0 -14 6t-4 15q4 19 22 19q9 0 14 -6t4 -15z" />
    <glyph glyph-name="cdotaccent" unicode="&#x10b;" horiz-adv-x="493" 
d="M41 241q10 63 41 112.5t73.5 78.5t89 43.5t92.5 14.5q82 0 134 -39l-2 -10q-49 39 -132 39q-99 0 -182.5 -61.5t-103.5 -179.5q-18 -114 41.5 -176.5t157.5 -62.5q92 0 160 39l-1 -11q-69 -38 -158 -38q-103 0 -165.5 64.5t-44.5 186.5zM363 594q-4 -19 -22 -19
q-9 0 -14 6t-4 15q4 19 22 19q9 0 14 -6t4 -15z" />
    <glyph glyph-name="Ccaron" unicode="&#x10c;" horiz-adv-x="651" 
d="M64 351q14 88 56.5 158.5t101.5 113.5t125 65t132 22q106 0 183 -49l-2 -10q-74 49 -181 49q-51 0 -103 -13t-101.5 -41.5t-90 -69t-70 -99t-40.5 -128.5q-13 -84 6.5 -152t62.5 -110t101 -64.5t123 -22.5q105 0 203 50l-2 -10q-92 -50 -200 -50q-67 0 -126.5 23
t-105 66.5t-66 114t-6.5 157.5zM636 890l-144 -120h-8l-106 120h12l99 -111l133 111h14z" />
    <glyph glyph-name="ccaron" unicode="&#x10d;" horiz-adv-x="493" 
d="M41 241q10 63 41 112.5t73.5 78.5t89 43.5t92.5 14.5q82 0 134 -39l-2 -10q-49 39 -132 39q-99 0 -182.5 -61.5t-103.5 -179.5q-18 -114 41.5 -176.5t157.5 -62.5q92 0 160 39l-1 -11q-69 -38 -158 -38q-103 0 -165.5 64.5t-44.5 186.5zM485 670l-144 -120h-8l-106 120
h12l99 -111l133 111h14z" />
    <glyph glyph-name="Dcaron" unicode="&#x10e;" horiz-adv-x="728" 
d="M173 700h187q185 0 265.5 -96.5t55.5 -254.5q-24 -157 -133.5 -253t-294.5 -96h-191zM672 351q24 153 -53.5 246t-256.5 93h-181l-107 -680h181q179 0 286 93.5t131 247.5zM550 890l-144 -120h-8l-106 120h12l99 -111l133 111h14z" />
    <glyph glyph-name="dcaron" unicode="&#x10f;" horiz-adv-x="611" 
d="M678 700h9l-43 -149h-8zM581 700h10l-111 -700h-10l22 136q-40 -64 -107 -105t-141 -41q-101 0 -159.5 70.5t-40.5 185.5q18 113 95.5 178.5t181.5 65.5q76 0 130.5 -42t72.5 -110zM520 316q-12 71 -66 117.5t-133 46.5q-101 0 -175 -62.5t-92 -173.5
q-18 -109 37.5 -176.5t151.5 -67.5q80 0 149 46.5t104 117.5z" />
    <glyph glyph-name="Dcroat" unicode="&#x110;" horiz-adv-x="728" 
d="M173 700h187q185 0 265.5 -96.5t55.5 -254.5q-24 -157 -133.5 -253t-294.5 -96h-191l55 345h-59l1 10h59zM255 10q179 0 286 93.5t131 247.5q24 153 -53.5 246t-256.5 93h-181l-53 -335h271l-1 -10h-271l-53 -335h181z" />
    <glyph glyph-name="dcroat" unicode="&#x111;" horiz-adv-x="612" 
d="M576 608h101l-1 -10h-101l-95 -598h-10l22 136q-40 -64 -107 -105t-141 -41q-101 0 -159.5 70.5t-40.5 185.5q18 113 95.5 178.5t181.5 65.5q76 0 130.5 -42t72.5 -110l41 260h-189l1 10h190l14 92h10zM243 0q80 0 149 46.5t104 117.5l24 152q-12 71 -66 117.5t-133 46.5
q-101 0 -175 -62.5t-92 -173.5q-18 -109 37.5 -176.5t151.5 -67.5z" />
    <glyph glyph-name="Emacron" unicode="&#x112;" horiz-adv-x="632" 
d="M173 700h451l-2 -10h-441l-52 -333h411l-2 -10h-411l-53 -337h447l-2 -10h-457zM299 828h240l-1 -10h-240z" />
    <glyph glyph-name="emacron" unicode="&#x113;" horiz-adv-x="542" 
d="M43 241q18 114 94.5 181.5t172.5 67.5q60 0 103.5 -25.5t60.5 -64t22 -84t-10 -85.5h-434q-16 -114 48 -172.5t164 -58.5q91 0 162 38l-2 -11q-68 -37 -159 -37q-106 0 -174 63.5t-48 187.5zM478 241q13 39 7.5 81t-22.5 77.5t-57 58t-96 22.5q-92 0 -165 -63.5
t-92 -175.5h425zM216 608h240l-1 -10h-240z" />
    <glyph glyph-name="Edotaccent" unicode="&#x116;" horiz-adv-x="632" 
d="M173 700h451l-2 -10h-441l-52 -333h411l-2 -10h-411l-53 -337h447l-2 -10h-457zM436 814q-4 -19 -22 -19q-9 0 -14 6t-4 15q4 19 22 19q9 0 14 -6t4 -15z" />
    <glyph glyph-name="edotaccent" unicode="&#x117;" horiz-adv-x="542" 
d="M43 241q18 114 94.5 181.5t172.5 67.5q60 0 103.5 -25.5t60.5 -64t22 -84t-10 -85.5h-434q-16 -114 48 -172.5t164 -58.5q91 0 162 38l-2 -11q-68 -37 -159 -37q-106 0 -174 63.5t-48 187.5zM478 241q13 39 7.5 81t-22.5 77.5t-57 58t-96 22.5q-92 0 -165 -63.5
t-92 -175.5h425zM353 594q-4 -19 -22 -19q-9 0 -14 6t-4 15q4 19 22 19q9 0 14 -6t4 -15z" />
    <glyph glyph-name="Eogonek" unicode="&#x118;" horiz-adv-x="632" 
d="M490 -208l-1 -11q-30 -11 -60 -11q-39 0 -59 20.5t-14 55.5q11 67 145 154h-439l111 700h451l-2 -10h-441l-52 -333h411l-2 -10h-411l-53 -337h447l-2 -10q-142 -89 -153 -156q-5 -30 11.5 -47t50.5 -17q30 0 62 12z" />
    <glyph glyph-name="eogonek" unicode="&#x119;" horiz-adv-x="542" 
d="M374 -211q-38 -19 -78 -19t-59.5 20.5t-13.5 55.5q10 70 160 163q-59 -19 -118 -19q-106 0 -174 63.5t-48 187.5q18 114 94.5 181.5t172.5 67.5q60 0 103.5 -25.5t60.5 -64t22 -84t-10 -85.5h-434q-16 -114 48 -172.5t164 -58.5q91 0 162 38l-2 -11q-93 -60 -139 -101.5
t-52 -81.5q-5 -30 11.5 -47t50.5 -17q39 0 80 19zM310 480q-92 0 -165 -63.5t-92 -175.5h425q13 39 7.5 81t-22.5 77.5t-57 58t-96 22.5z" />
    <glyph glyph-name="Ecaron" unicode="&#x11a;" horiz-adv-x="632" 
d="M173 700h451l-2 -10h-441l-52 -333h411l-2 -10h-411l-53 -337h447l-2 -10h-457zM558 890l-144 -120h-8l-106 120h12l99 -111l133 111h14z" />
    <glyph glyph-name="ecaron" unicode="&#x11b;" horiz-adv-x="542" 
d="M43 241q18 114 94.5 181.5t172.5 67.5q60 0 103.5 -25.5t60.5 -64t22 -84t-10 -85.5h-434q-16 -114 48 -172.5t164 -58.5q91 0 162 38l-2 -11q-68 -37 -159 -37q-106 0 -174 63.5t-48 187.5zM478 241q13 39 7.5 81t-22.5 77.5t-57 58t-96 22.5q-92 0 -165 -63.5
t-92 -175.5h425zM475 670l-144 -120h-8l-106 120h12l99 -111l133 111h14z" />
    <glyph glyph-name="Gbreve" unicode="&#x11e;" horiz-adv-x="712" 
d="M68 361q14 92 57.5 161.5t104.5 109t126.5 59t134.5 19.5q111 0 193 -46l-1 -10q-78 46 -192 46q-68 0 -132.5 -19t-123.5 -58t-101.5 -107t-56.5 -157t6 -159.5t66 -113t106.5 -64.5t129.5 -22q113 0 211 46l50 317h10l-52 -325q-104 -48 -218 -48q-71 0 -133.5 22.5
t-110 66.5t-68.5 117t-6 165zM622 826q-53 -41 -123 -41q-77 0 -117 41l2 13q41 -44 113 -44t127 44z" />
    <glyph glyph-name="gbreve" unicode="&#x11f;" horiz-adv-x="612" 
d="M480 0q-19 -119 -98 -174.5t-186 -55.5q-98 0 -170 46l2 10q72 -46 167 -46q103 0 180 53t95 167l22 136q-40 -64 -107 -105t-141 -41q-105 0 -161.5 70t-38.5 186q18 113 95.5 178.5t181.5 65.5q75 0 129.5 -42t73.5 -110l22 142h10zM54 244q-18 -110 35.5 -177
t153.5 -67q80 0 149 46.5t104 117.5l24 152q-12 71 -66 117.5t-133 46.5q-100 0 -175 -63t-92 -173zM467 606q-53 -41 -123 -41q-77 0 -117 41l2 13q41 -44 113 -44t127 44z" />
    <glyph glyph-name="Gdotaccent" unicode="&#x120;" horiz-adv-x="712" 
d="M68 361q14 92 57.5 161.5t104.5 109t126.5 59t134.5 19.5q111 0 193 -46l-1 -10q-78 46 -192 46q-68 0 -132.5 -19t-123.5 -58t-101.5 -107t-56.5 -157t6 -159.5t66 -113t106.5 -64.5t129.5 -22q113 0 211 46l50 317h10l-52 -325q-104 -48 -218 -48q-71 0 -133.5 22.5
t-110 66.5t-68.5 117t-6 165zM523 814q-4 -19 -22 -19q-9 0 -14 6t-4 15q4 19 22 19q9 0 14 -6t4 -15z" />
    <glyph glyph-name="gdotaccent" unicode="&#x121;" horiz-adv-x="612" 
d="M480 0q-19 -119 -98 -174.5t-186 -55.5q-98 0 -170 46l2 10q72 -46 167 -46q103 0 180 53t95 167l22 136q-40 -64 -107 -105t-141 -41q-105 0 -161.5 70t-38.5 186q18 113 95.5 178.5t181.5 65.5q75 0 129.5 -42t73.5 -110l22 142h10zM54 244q-18 -110 35.5 -177
t153.5 -67q80 0 149 46.5t104 117.5l24 152q-12 71 -66 117.5t-133 46.5q-100 0 -175 -63t-92 -173zM368 594q-4 -19 -22 -19q-9 0 -14 6t-4 15q4 19 22 19q9 0 14 -6t4 -15z" />
    <glyph glyph-name="Gcommaaccent" unicode="&#x122;" horiz-adv-x="712" 
d="M68 361q14 92 57.5 161.5t104.5 109t126.5 59t134.5 19.5q111 0 193 -46l-1 -10q-78 46 -192 46q-68 0 -132.5 -19t-123.5 -58t-101.5 -107t-56.5 -157t6 -159.5t66 -113t106.5 -64.5t129.5 -22q113 0 211 46l50 317h10l-52 -325q-104 -48 -218 -48q-71 0 -133.5 22.5
t-110 66.5t-68.5 117t-6 165zM340 -220h-10l44 160h10z" />
    <glyph glyph-name="gcommaaccent" unicode="&#x123;" horiz-adv-x="612" 
d="M324 551h-12l45 149h9zM480 0q-19 -119 -98 -174.5t-186 -55.5q-98 0 -170 46l2 10q72 -46 167 -46q103 0 180 53t95 167l22 136q-40 -64 -107 -105t-141 -41q-105 0 -161.5 70t-38.5 186q18 113 95.5 178.5t181.5 65.5q75 0 129.5 -42t73.5 -110l22 142h10zM54 244
q-18 -110 35.5 -177t153.5 -67q80 0 149 46.5t104 117.5l24 152q-12 71 -66 117.5t-133 46.5q-100 0 -175 -63t-92 -173z" />
    <glyph glyph-name="Hbar" unicode="&#x126;" horiz-adv-x="766" 
d="M73 0h-10l83 525h-80l2 10h80l26 165h10l-26 -165h530l26 165h10l-26 -165h80l-2 -10h-80l-83 -525h-10l55 347h-530zM156 525l-26 -168h530l26 168h-530z" />
    <glyph glyph-name="hbar" unicode="&#x127;" horiz-adv-x="571" 
d="M107 363q39 50 99 88.5t133 38.5q78 0 122.5 -52.5t30.5 -142.5l-47 -295h-10l47 295q14 86 -27 135.5t-116 49.5q-73 0 -135.5 -41.5t-99.5 -95.5l-54 -343h-10l95 598h-59l1 10h59l15 92h10l-15 -92h231l-1 -10h-231z" />
    <glyph glyph-name="Imacron" unicode="&#x12a;" horiz-adv-x="226" 
d="M173 700h10l-111 -700h-10zM77 828h240l-1 -10h-240z" />
    <glyph glyph-name="imacron" unicode="&#x12b;" horiz-adv-x="192" 
d="M255 598h-220l1 10h220zM55 0h-10l76 480h10z" />
    <glyph glyph-name="Iogonek" unicode="&#x12e;" horiz-adv-x="227" 
d="M73 0q-84 -92 -94 -156q-5 -30 12 -47t51 -17q39 0 80 19l-1 -10q-38 -19 -78 -19t-59.5 20.5t-13.5 55.5q9 57 94 160l110 694h10z" />
    <glyph glyph-name="iogonek" unicode="&#x12f;" horiz-adv-x="190" 
d="M134 612q2 11 13 11q12 0 11 -13q-2 -11 -13 -11q-12 0 -11 13zM130 480l-76 -480q-84 -92 -94 -156q-5 -30 12 -47t51 -17q39 0 80 19l-1 -10q-38 -19 -78 -19t-59.5 20.5t-13.5 55.5q10 64 93 156l76 478h10z" />
    <glyph glyph-name="Idotaccent" unicode="&#x130;" horiz-adv-x="226" 
d="M173 700h10l-111 -700h-10zM214 814q-4 -19 -22 -19q-9 0 -14 6t-4 15q4 19 22 19q9 0 14 -6t4 -15z" />
    <glyph glyph-name="dotlessi" unicode="&#x131;" horiz-adv-x="190" 
d="M54 0h-10l76 480h10z" />
    <glyph glyph-name="IJ" unicode="&#x132;" horiz-adv-x="753" 
d="M173 700h10l-111 -700h-10zM470 700h247l-82 -520q-15 -95 -76.5 -142.5t-160.5 -47.5q-108 0 -174 43l2 10q66 -43 171 -43q97 0 155.5 45t72.5 135l81 510h-238z" />
    <glyph glyph-name="ij" unicode="&#x133;" horiz-adv-x="380" 
d="M54 0h-10l76 480h10zM158 610q-2 -11 -13 -11q-12 0 -11 13q2 11 13 11q12 0 11 -13zM225 -123q-17 -107 -127 -107q-37 0 -67 11l2 10q30 -11 64 -11q102 0 118 97l95 603h10zM348 610q-2 -11 -13 -11q-12 0 -11 13q2 11 13 11q12 0 11 -13z" />
    <glyph glyph-name="Kcommaaccent" unicode="&#x136;" horiz-adv-x="650" 
d="M668 700h12l-313 -342l232 -358h-13l-228 355h-230l-56 -355h-10l111 700h10l-53 -335h231zM263 -210h-10l44 160h10z" />
    <glyph glyph-name="kcommaaccent" unicode="&#x137;" horiz-adv-x="481" 
d="M465 480h13l-241 -232l194 -248h-12l-192 245h-138l-39 -245h-10l111 700h10l-71 -445h141zM175 -210h-10l44 160h10z" />
    <glyph glyph-name="Lacute" unicode="&#x139;" horiz-adv-x="569" 
d="M173 700h10l-109 -690h438l-2 -10h-448zM197 780h-12l107 130h12z" />
    <glyph glyph-name="lacute" unicode="&#x13a;" horiz-adv-x="190" 
d="M160 730h10l-116 -730h-10zM174 790h-12l107 130h12z" />
    <glyph glyph-name="Lcommaaccent" unicode="&#x13b;" horiz-adv-x="569" 
d="M173 700h10l-109 -690h438l-2 -10h-448zM245 -210h-10l44 160h10z" />
    <glyph glyph-name="lcommaaccent" unicode="&#x13c;" horiz-adv-x="190" 
d="M160 730h10l-116 -730h-10zM-7 -210h-10l44 160h10z" />
    <glyph glyph-name="Lcaron" unicode="&#x13d;" horiz-adv-x="569" 
d="M451 700h9l-43 -149h-8zM173 700h10l-109 -690h438l-2 -10h-448z" />
    <glyph glyph-name="lcaron" unicode="&#x13e;" horiz-adv-x="191" 
d="M257 730h9l-43 -149h-8zM160 730h10l-116 -730h-10z" />
    <glyph glyph-name="Ldot" unicode="&#x13f;" horiz-adv-x="578" 
d="M372 329q-2 -14 -16 -14q-16 0 -14 16q1 5 6 9.5t10 4.5q16 0 14 -16zM173 700h10l-109 -690h438l-2 -10h-448z" />
    <glyph glyph-name="ldot" unicode="&#x140;" horiz-adv-x="226" 
d="M160 730h10l-116 -730h-10zM232 349q-2 -14 -16 -14q-16 0 -14 16q1 5 6 9.5t10 4.5q16 0 14 -16z" />
    <glyph glyph-name="Lslash" unicode="&#x141;" horiz-adv-x="573" 
d="M514 0h-448l47 296l-107 -44l2 10l107 44l62 394h10l-62 -389l268 111l-2 -10l-267 -111l-46 -291h438z" />
    <glyph glyph-name="lslash" unicode="&#x142;" horiz-adv-x="209" 
d="M169 730h10l-56 -350l97 40l-2 -10l-96 -40l-59 -370h-10l58 365l-96 -40l1 10l97 40z" />
    <glyph glyph-name="Nacute" unicode="&#x143;" horiz-adv-x="766" 
d="M72 0h-10l111 700h7l425 -681q1 8 3.5 22.5t3.5 21.5l101 637h10l-111 -700h-7l-425 682q-1 -8 -3.5 -22t-3.5 -22zM450 780h-12l107 130h12z" />
    <glyph glyph-name="nacute" unicode="&#x144;" horiz-adv-x="571" 
d="M107 363q39 50 99 88.5t133 38.5q78 0 122.5 -52.5t30.5 -142.5l-47 -295h-10l47 295q14 86 -27 135.5t-116 49.5q-73 0 -135.5 -41.5t-99.5 -95.5l-54 -343h-10l76 480h10zM308 560h-12l107 130h12z" />
    <glyph glyph-name="Ncommaaccent" unicode="&#x145;" horiz-adv-x="766" 
d="M72 0h-10l111 700h7l425 -681q1 8 3.5 22.5t3.5 21.5l101 637h10l-111 -700h-7l-425 682q-1 -8 -3.5 -22t-3.5 -22zM300 -210h-10l44 160h10z" />
    <glyph glyph-name="ncommaaccent" unicode="&#x146;" horiz-adv-x="571" 
d="M107 363q39 50 99 88.5t133 38.5q78 0 122.5 -52.5t30.5 -142.5l-47 -295h-10l47 295q14 86 -27 135.5t-116 49.5q-73 0 -135.5 -41.5t-99.5 -95.5l-54 -343h-10l76 480h10zM199 -210h-10l44 160h10z" />
    <glyph glyph-name="Ncaron" unicode="&#x147;" horiz-adv-x="766" 
d="M72 0h-10l111 700h7l425 -681q1 8 3.5 22.5t3.5 21.5l101 637h10l-111 -700h-7l-425 682q-1 -8 -3.5 -22t-3.5 -22zM608 890l-144 -120h-8l-106 120h12l99 -111l133 111h14z" />
    <glyph glyph-name="ncaron" unicode="&#x148;" horiz-adv-x="571" 
d="M107 363q39 50 99 88.5t133 38.5q78 0 122.5 -52.5t30.5 -142.5l-47 -295h-10l47 295q14 86 -27 135.5t-116 49.5q-73 0 -135.5 -41.5t-99.5 -95.5l-54 -343h-10l76 480h10zM466 670l-144 -120h-8l-106 120h12l99 -111l133 111h14z" />
    <glyph glyph-name="Eng" unicode="&#x14a;" horiz-adv-x="766" 
d="M593 -123q-17 -107 -127 -107q-37 0 -67 11l2 10q30 -11 64 -11q50 0 79.5 22t38.5 75l20 126l-423 679q-1 -8 -3.5 -22t-3.5 -22l-101 -638h-10l111 700h7l425 -681q1 8 3.5 22.5t3.5 21.5l101 637h10z" />
    <glyph glyph-name="eng" unicode="&#x14b;" horiz-adv-x="571" 
d="M426 -123q-17 -107 -127 -107q-37 0 -67 11l2 10q30 -11 64 -11q102 0 118 97l66 418q14 86 -27 135.5t-116 49.5q-73 0 -135.5 -41.5t-99.5 -95.5l-54 -343h-10l76 480h10l-19 -117q39 50 99 88.5t133 38.5q78 0 122.5 -52.5t30.5 -142.5z" />
    <glyph glyph-name="Omacron" unicode="&#x14c;" horiz-adv-x="826" 
d="M782 349q-10 -66 -44 -129.5t-86 -115t-127 -83t-159 -31.5q-87 0 -152.5 32t-100 84.5t-47.5 115.5t-3 129t44 129.5t86 115t127 83t159 31.5q87 0 152.5 -32t100 -84.5t47.5 -115.5t3 -129zM73 349q-10 -64 2.5 -125t46.5 -111.5t97 -81.5t147 -31q110 0 200.5 54
t141 132t64.5 165q10 64 -2.5 125t-46.5 111.5t-97 81.5t-147 31q-110 0 -200.5 -54t-141 -132t-64.5 -165zM379 828h240l-1 -10h-240z" />
    <glyph glyph-name="omacron" unicode="&#x14d;" horiz-adv-x="591" 
d="M533 234q-18 -113 -99.5 -178.5t-183.5 -65.5q-98 0 -161.5 70.5t-45.5 185.5q18 113 100 178.5t184 65.5q98 0 161 -70.5t45 -185.5zM53 244q-17 -109 42.5 -176.5t153.5 -67.5q99 0 178 63t96 173q17 109 -42.5 176.5t-153.5 67.5q-99 0 -178 -63t-96 -173zM228 598
h240l-1 -10h-240z" />
    <glyph glyph-name="Ohungarumlaut" unicode="&#x150;" horiz-adv-x="826" 
d="M782 349q-10 -66 -44 -129.5t-86 -115t-127 -83t-159 -31.5q-87 0 -152.5 32t-100 84.5t-47.5 115.5t-3 129t44 129.5t86 115t127 83t159 31.5q87 0 152.5 -32t100 -84.5t47.5 -115.5t3 -129zM73 349q-10 -64 2.5 -125t46.5 -111.5t97 -81.5t147 -31q110 0 200.5 54
t141 132t64.5 165q10 64 -2.5 125t-46.5 111.5t-97 81.5t-147 31q-110 0 -200.5 -54t-141 -132t-64.5 -165zM570 778h-12l100 140h12zM419 778h-12l100 140h12z" />
    <glyph glyph-name="ohungarumlaut" unicode="&#x151;" horiz-adv-x="591" 
d="M533 234q-18 -113 -99.5 -178.5t-183.5 -65.5q-98 0 -161.5 70.5t-45.5 185.5q18 113 100 178.5t184 65.5q98 0 161 -70.5t45 -185.5zM53 244q-17 -109 42.5 -176.5t153.5 -67.5q99 0 178 63t96 173q17 109 -42.5 176.5t-153.5 67.5q-99 0 -178 -63t-96 -173zM419 548
h-12l100 140h12zM268 548h-12l100 140h12z" />
    <glyph glyph-name="OE" unicode="&#x152;" horiz-adv-x="1026" 
d="M490 0q-49 -10 -124 -10q-87 0 -152.5 32t-100 84.5t-47.5 115.5t-3 129t44 129.5t86 115t127 83t159 31.5q73 0 122 -10h420l-2 -10h-411l-52 -333h381l-2 -10h-381l-53 -337h417l-2 -10h-426zM73 349q-10 -64 2.5 -125t46.5 -111.5t97 -81.5t147 -31q78 0 125 10
l108 681q-44 9 -120 9q-110 0 -200.5 -54t-141 -132t-64.5 -165z" />
    <glyph glyph-name="oe" unicode="&#x153;" horiz-adv-x="996" 
d="M507 182q-32 -92 -101.5 -142t-162.5 -50t-155.5 71.5t-44.5 185.5q18 113 99 178t178 65q83 0 141.5 -53.5t62.5 -144.5q28 93 95.5 145.5t148.5 52.5q60 0 102.5 -25.5t59 -64.5t20.5 -85.5t-11 -88.5h-419q-16 -110 47 -168t155 -58q86 0 157 38l-2 -11
q-68 -37 -154 -37q-54 0 -100 19t-80 64t-36 109zM53 245q-17 -109 41.5 -177t147.5 -68q104 0 177 62t91 175q17 110 -40 176.5t-150 66.5q-95 0 -172.5 -62.5t-94.5 -172.5zM768 480q-88 0 -158 -64t-89 -180h410q13 41 8 84.5t-20.5 79t-55 58t-95.5 22.5z" />
    <glyph glyph-name="Racute" unicode="&#x154;" horiz-adv-x="678" 
d="M72 0h-10l111 700h256q45 0 85 -11t73 -33.5t49 -63.5t7 -94q-16 -99 -92 -148t-172 -52l228 -298h-12l-228 298h-248zM181 690l-60 -382h250q93 0 170 47t92 145q8 51 -6.5 89t-46 59t-69 31.5t-80.5 10.5h-250zM400 780h-12l107 130h12z" />
    <glyph glyph-name="racute" unicode="&#x155;" horiz-adv-x="332" 
d="M100 317q36 73 101.5 123t148.5 50l-2 -10q-87 0 -155.5 -59.5t-97.5 -137.5l-45 -283h-10l76 480h10zM228 560h-12l107 130h12z" />
    <glyph glyph-name="Rcommaaccent" unicode="&#x156;" horiz-adv-x="678" 
d="M72 0h-10l111 700h256q45 0 85 -11t73 -33.5t49 -63.5t7 -94q-16 -99 -92 -148t-172 -52l228 -298h-12l-228 298h-248zM181 690l-60 -382h250q93 0 170 47t92 145q8 51 -6.5 89t-46 59t-69 31.5t-80.5 10.5h-250zM279 -210h-10l44 160h10z" />
    <glyph glyph-name="rcommaaccent" unicode="&#x157;" horiz-adv-x="332" 
d="M100 317q36 73 101.5 123t148.5 50l-2 -10q-87 0 -155.5 -59.5t-97.5 -137.5l-45 -283h-10l76 480h10zM-2 -210h-10l44 160h10z" />
    <glyph glyph-name="Rcaron" unicode="&#x158;" horiz-adv-x="678" 
d="M72 0h-10l111 700h256q45 0 85 -11t73 -33.5t49 -63.5t7 -94q-16 -99 -92 -148t-172 -52l228 -298h-12l-228 298h-248zM181 690l-60 -382h250q93 0 170 47t92 145q8 51 -6.5 89t-46 59t-69 31.5t-80.5 10.5h-250zM558 890l-144 -120h-8l-106 120h12l99 -111l133 111h14z
" />
    <glyph glyph-name="rcaron" unicode="&#x159;" horiz-adv-x="333" 
d="M101 317q36 73 101.5 123t148.5 50l-2 -10q-87 0 -155.5 -59.5t-97.5 -137.5l-45 -283h-10l76 480h10zM387 670l-144 -120h-8l-106 120h12l99 -111l133 111h14z" />
    <glyph glyph-name="Sacute" unicode="&#x15a;" horiz-adv-x="562" 
d="M101 550q13 80 86 120t161 40q109 0 188 -47l-1 -10q-77 47 -187 47q-54 0 -102.5 -14t-87 -50t-47.5 -88q-7 -47 12 -81t55 -54.5t81.5 -37t90.5 -34t81 -39.5t55 -60t11 -89q-13 -83 -83.5 -123.5t-167.5 -39.5q-134 0 -227 58l1 10q100 -58 225 -58q60 0 109.5 14
t87 50t45.5 90q7 50 -12 86.5t-55 57.5t-81 38l-90 34t-81.5 38t-55.5 57t-11 85zM329 780h-12l107 130h12z" />
    <glyph glyph-name="sacute" unicode="&#x15b;" horiz-adv-x="453" 
d="M64 373q10 59 63.5 88t123.5 29q95 0 155 -42l-1 -10q-59 42 -154 42q-66 0 -117.5 -27.5t-59.5 -81.5q-7 -47 24.5 -74.5t81 -40.5t98.5 -26t80.5 -42.5t24.5 -78.5q-9 -59 -63.5 -89t-128.5 -30q-48 0 -98 13.5t-78 35.5l2 10q30 -22 78.5 -35.5t94.5 -13.5
q71 0 122.5 27.5t60.5 82.5q7 46 -24.5 73.5t-81 40t-99 26t-81 43.5t-23.5 80zM251 560h-12l107 130h12z" />
    <glyph glyph-name="Scedilla" unicode="&#x15e;" horiz-adv-x="562" 
d="M334 -161q-4 -30 -33 -49.5t-81 -19.5q-58 0 -100 23l2 10q41 -23 97 -23q50 0 76 17t29 44q5 35 -35.5 47t-87.5 -5l43 107q-132 0 -225 58l1 10q100 -58 225 -58q60 0 109.5 14t87 50t45.5 90q7 50 -12 86.5t-55 57.5t-81 38l-90 34t-81.5 38t-55.5 57t-11 85
q13 80 86 120t161 40q109 0 188 -47l-1 -10q-77 47 -187 47q-54 0 -102.5 -14t-87 -50t-47.5 -88q-7 -47 12 -81t55 -54.5t81.5 -37t90.5 -34t81 -39.5t55 -60t11 -89q-13 -81 -81 -121.5t-162 -41.5l-38 -94q29 7 57 5t46.5 -18.5t14.5 -43.5z" />
    <glyph glyph-name="scedilla" unicode="&#x15f;" horiz-adv-x="453" 
d="M275 -161q-4 -30 -33 -49.5t-81 -19.5q-58 0 -100 23l2 10q41 -23 97 -23q50 0 76 17t29 44q5 35 -35.5 47t-87.5 -5l43 107q-47 1 -94.5 14.5t-75.5 34.5l2 10q30 -22 78.5 -35.5t94.5 -13.5q71 0 122.5 27.5t60.5 82.5q7 46 -24.5 73.5t-81 40t-99 26t-81 43.5
t-23.5 80q10 59 63.5 88t123.5 29q95 0 155 -42l-1 -10q-59 42 -154 42q-66 0 -117.5 -27.5t-59.5 -81.5q-7 -47 24.5 -74.5t81 -40.5t98.5 -26t80.5 -42.5t24.5 -78.5q-9 -58 -62 -88t-126 -31l-38 -94q29 7 57 5t46.5 -18.5t14.5 -43.5z" />
    <glyph glyph-name="Scaron" unicode="&#x160;" horiz-adv-x="562" 
d="M101 550q13 80 86 120t161 40q109 0 188 -47l-1 -10q-77 47 -187 47q-54 0 -102.5 -14t-87 -50t-47.5 -88q-7 -47 12 -81t55 -54.5t81.5 -37t90.5 -34t81 -39.5t55 -60t11 -89q-13 -83 -83.5 -123.5t-167.5 -39.5q-134 0 -227 58l1 10q100 -58 225 -58q60 0 109.5 14
t87 50t45.5 90q7 50 -12 86.5t-55 57.5t-81 38l-90 34t-81.5 38t-55.5 57t-11 85zM487 890l-144 -120h-8l-106 120h12l99 -111l133 111h14z" />
    <glyph glyph-name="scaron" unicode="&#x161;" horiz-adv-x="453" 
d="M64 373q10 59 63.5 88t123.5 29q95 0 155 -42l-1 -10q-59 42 -154 42q-66 0 -117.5 -27.5t-59.5 -81.5q-7 -47 24.5 -74.5t81 -40.5t98.5 -26t80.5 -42.5t24.5 -78.5q-9 -59 -63.5 -89t-128.5 -30q-48 0 -98 13.5t-78 35.5l2 10q30 -22 78.5 -35.5t94.5 -13.5
q71 0 122.5 27.5t60.5 82.5q7 46 -24.5 73.5t-81 40t-99 26t-81 43.5t-23.5 80zM409 670l-144 -120h-8l-106 120h12l99 -111l133 111h14z" />
    <glyph glyph-name="Tcommaaccent" unicode="&#x162;" horiz-adv-x="588" 
d="M79 700h560l-2 -10h-275l-109 -690h-10l109 690h-275zM202 -210h-10l44 160h10z" />
    <glyph glyph-name="tcommaaccent" unicode="&#x163;" horiz-adv-x="343" 
d="M153 640l11 5l-26 -165h220l-1 -10h-220l-55 -342q-10 -61 18 -94.5t88 -33.5q62 0 107 24l-1 -10q-42 -24 -105 -24q-64 0 -95.5 36t-21.5 102l55 342h-90l1 10h90zM143 -210h-10l44 160h10z" />
    <glyph glyph-name="Tcaron" unicode="&#x164;" horiz-adv-x="588" 
d="M79 700h560l-2 -10h-275l-109 -690h-10l109 690h-275zM520 890l-144 -120h-8l-106 120h12l99 -111l133 111h14z" />
    <glyph glyph-name="tcaron" unicode="&#x165;" horiz-adv-x="343" 
d="M298 714h9l-43 -149h-8zM153 640l11 5l-26 -165h220l-1 -10h-220l-55 -342q-10 -61 18 -94.5t88 -33.5q62 0 107 24l-1 -10q-42 -24 -105 -24q-64 0 -95.5 36t-21.5 102l55 342h-90l1 10h90z" />
    <glyph glyph-name="Tbar" unicode="&#x166;" horiz-adv-x="601" 
d="M259 0h-10l56 355h-145l2 10h145l51 325h-275l2 10h560l-2 -10h-275l-51 -325h145l-2 -10h-145z" />
    <glyph glyph-name="tbar" unicode="&#x167;" horiz-adv-x="343" 
d="M358 480l-1 -10h-220l-26 -162h170l-2 -10h-170l-27 -170q-10 -61 18 -94.5t88 -33.5q62 0 107 24l-1 -10q-42 -24 -105 -24q-64 0 -95.5 36t-21.5 102l27 170h-60l2 10h60l26 162h-90l1 10h90l25 160l11 5l-26 -165h220z" />
    <glyph glyph-name="Umacron" unicode="&#x16a;" horiz-adv-x="748" 
d="M704 700h10l-73 -463q-39 -247 -313 -247q-61 0 -107.5 13t-80 41.5t-47 77t-2.5 115.5l73 463h10l-73 -463q-37 -237 226 -237q267 0 304 237zM338 828h240l-1 -10h-240z" />
    <glyph glyph-name="umacron" unicode="&#x16b;" horiz-adv-x="571" 
d="M505 480h10l-76 -480h-10l19 118q-37 -49 -98.5 -88.5t-132.5 -39.5q-79 0 -123.5 52.5t-30.5 142.5l47 295h10l-47 -295q-13 -86 28 -135.5t115 -49.5q72 0 135.5 42t99.5 97zM212 608h240l-1 -10h-240z" />
    <glyph glyph-name="Uring" unicode="&#x16e;" horiz-adv-x="748" 
d="M704 700h10l-73 -463q-39 -247 -313 -247q-61 0 -107.5 13t-80 41.5t-47 77t-2.5 115.5l73 463h10l-73 -463q-37 -237 226 -237q267 0 304 237zM535 835q-5 -32 -31 -53t-56 -21q-32 0 -52 21.5t-14 54.5q5 32 31 53t56 21q32 0 52 -21.5t14 -54.5zM391 835
q-4 -28 13 -46t43 -18q28 0 51 18t28 48q4 28 -13 46t-43 18q-28 0 -51 -18t-28 -48z" />
    <glyph glyph-name="uring" unicode="&#x16f;" horiz-adv-x="571" 
d="M505 480h10l-76 -480h-10l19 118q-37 -49 -98.5 -88.5t-132.5 -39.5q-79 0 -123.5 52.5t-30.5 142.5l47 295h10l-47 -295q-13 -86 28 -135.5t115 -49.5q72 0 135.5 42t99.5 97zM409 615q-5 -32 -31 -53t-56 -21q-32 0 -52 21.5t-14 54.5q5 32 31 53t56 21q32 0 52 -21.5
t14 -54.5zM265 615q-4 -28 13 -46t43 -18q28 0 51 18t28 48q4 28 -13 46t-43 18q-28 0 -51 -18t-28 -48z" />
    <glyph glyph-name="Uhungarumlaut" unicode="&#x170;" horiz-adv-x="748" 
d="M704 700h10l-73 -463q-39 -247 -313 -247q-61 0 -107.5 13t-80 41.5t-47 77t-2.5 115.5l73 463h10l-73 -463q-37 -237 226 -237q267 0 304 237zM529 778h-12l100 140h12zM378 778h-12l100 140h12z" />
    <glyph glyph-name="uhungarumlaut" unicode="&#x171;" horiz-adv-x="571" 
d="M505 480h10l-76 -480h-10l19 118q-37 -49 -98.5 -88.5t-132.5 -39.5q-79 0 -123.5 52.5t-30.5 142.5l47 295h10l-47 -295q-13 -86 28 -135.5t115 -49.5q72 0 135.5 42t99.5 97zM403 558h-12l100 140h12zM252 558h-12l100 140h12z" />
    <glyph glyph-name="Uogonek" unicode="&#x172;" horiz-adv-x="748" 
d="M631 237l73 463h10l-73 -463q-20 -127 -106 -190q-149 -108 -164 -203q-4 -29 13 -46.5t49 -17.5q39 0 80 19l-1 -10q-38 -19 -78 -19q-38 0 -58.5 20.5t-14.5 55.5q12 82 125 173q-67 -29 -158 -29q-61 0 -107.5 13t-80 41.5t-47 77t-2.5 115.5l73 463h10l-73 -463
q-37 -237 226 -237q267 0 304 237z" />
    <glyph glyph-name="uogonek" unicode="&#x173;" horiz-adv-x="571" 
d="M515 480l-76 -480q-132 -89 -143 -156q-4 -29 10.5 -46.5t41.5 -17.5q26 0 53 9l-1 -11q-27 -8 -51 -8q-32 0 -50.5 21t-12.5 55q11 72 144 160l18 112q-37 -49 -98.5 -88.5t-132.5 -39.5q-79 0 -123.5 52.5t-30.5 142.5l47 295h10l-47 -295q-13 -86 28 -135.5t115 -49.5
q72 0 135.5 42t99.5 97l54 341h10z" />
    <glyph glyph-name="Wcircumflex" unicode="&#x174;" horiz-adv-x="975" 
d="M1001 700h11l-336 -700h-10l-115 674l-333 -674h-10l-114 700h10l111 -684l333 674h10l115 -673zM583 900h8l106 -120h-12l-98 111l-133 -111h-14z" />
    <glyph glyph-name="wcircumflex" unicode="&#x175;" horiz-adv-x="795" 
d="M786 480h11l-266 -480h-8l-98 458l-246 -458h-8l-113 480h10l109 -463l244 453h11l97 -454zM455 680h8l106 -120h-12l-98 111l-133 -111h-14z" />
    <glyph glyph-name="Ycircumflex" unicode="&#x176;" horiz-adv-x="616" 
d="M267 0h-10l46 289l-210 411h11l205 -400l332 400h13l-341 -411zM402 900h8l106 -120h-12l-98 111l-133 -111h-14z" />
    <glyph glyph-name="ycircumflex" unicode="&#x177;" horiz-adv-x="528" 
d="M234 9l287 471h12l-349 -572q-48 -77 -86 -107.5t-84 -30.5q-24 0 -48 6l1 10q26 -6 46 -6q45 0 82.5 31t80.5 103l51 84l-178 482h11zM312 680h8l106 -120h-12l-98 111l-133 -111h-14z" />
    <glyph glyph-name="Ydieresis" unicode="&#x178;" horiz-adv-x="616" 
d="M267 0h-10l46 289l-210 411h11l205 -400l332 400h13l-341 -411zM509 834q-2 -14 -16 -14q-7 0 -10.5 4.5t-2.5 11.5q1 5 6 9.5t10 4.5q17 0 13 -16zM309 834q-2 -14 -16 -14q-7 0 -10.5 4.5t-2.5 11.5q1 5 6 9.5t10 4.5q17 0 13 -16z" />
    <glyph glyph-name="Zacute" unicode="&#x179;" horiz-adv-x="559" 
d="M487 0h-514l1 8l603 682h-473l2 10h487l-1 -8l-603 -682h500zM358 780h-12l107 130h12z" />
    <glyph glyph-name="zacute" unicode="&#x17a;" horiz-adv-x="432" 
d="M70 480h354l-1 -6l-425 -464h362l-2 -10h-378l1 6l426 464h-338zM251 560h-12l107 130h12z" />
    <glyph glyph-name="Zdotaccent" unicode="&#x17b;" horiz-adv-x="559" 
d="M487 0h-514l1 8l603 682h-473l2 10h487l-1 -8l-603 -682h500zM394 814q-4 -19 -22 -19q-9 0 -14 6t-4 15q4 19 22 19q9 0 14 -6t4 -15z" />
    <glyph glyph-name="zdotaccent" unicode="&#x17c;" horiz-adv-x="432" 
d="M70 480h354l-1 -6l-425 -464h362l-2 -10h-378l1 6l426 464h-338zM287 594q-4 -19 -22 -19q-9 0 -14 6t-4 15q4 19 22 19q9 0 14 -6t4 -15z" />
    <glyph glyph-name="Zcaron" unicode="&#x17d;" horiz-adv-x="559" 
d="M487 0h-514l1 8l603 682h-473l2 10h487l-1 -8l-603 -682h500zM516 890l-144 -120h-8l-106 120h12l99 -111l133 111h14z" />
    <glyph glyph-name="zcaron" unicode="&#x17e;" horiz-adv-x="432" 
d="M70 480h354l-1 -6l-425 -464h362l-2 -10h-378l1 6l426 464h-338zM409 670l-144 -120h-8l-106 120h12l99 -111l133 111h14z" />
    <glyph glyph-name="Scommaaccent" unicode="&#x218;" horiz-adv-x="562" 
d="M101 550q13 80 86 120t161 40q109 0 188 -47l-1 -10q-77 47 -187 47q-54 0 -102.5 -14t-87 -50t-47.5 -88q-7 -47 12 -81t55 -54.5t81.5 -37t90.5 -34t81 -39.5t55 -60t11 -89q-13 -83 -83.5 -123.5t-167.5 -39.5q-134 0 -227 58l1 10q100 -58 225 -58q60 0 109.5 14
t87 50t45.5 90q7 50 -12 86.5t-55 57.5t-81 38l-90 34t-81.5 38t-55.5 57t-11 85zM224 -210h-10l44 160h10z" />
    <glyph glyph-name="scommaaccent" unicode="&#x219;" horiz-adv-x="453" 
d="M64 373q10 59 63.5 88t123.5 29q95 0 155 -42l-1 -10q-59 42 -154 42q-66 0 -117.5 -27.5t-59.5 -81.5q-7 -47 24.5 -74.5t81 -40.5t98.5 -26t80.5 -42.5t24.5 -78.5q-9 -59 -63.5 -89t-128.5 -30q-48 0 -98 13.5t-78 35.5l2 10q30 -22 78.5 -35.5t94.5 -13.5
q71 0 122.5 27.5t60.5 82.5q7 46 -24.5 73.5t-81 40t-99 26t-81 43.5t-23.5 80zM165 -210h-10l44 160h10z" />
    <glyph glyph-name="uni021A" unicode="&#x21a;" horiz-adv-x="588" 
d="M79 700h560l-2 -10h-275l-109 -690h-10l109 690h-275zM204 -210h-10l44 160h10z" />
    <glyph glyph-name="uni021B" unicode="&#x21b;" horiz-adv-x="343" 
d="M153 640l11 5l-26 -165h220l-1 -10h-220l-55 -342q-10 -61 18 -94.5t88 -33.5q62 0 107 24l-1 -10q-42 -24 -105 -24q-64 0 -95.5 36t-21.5 102l55 342h-90l1 10h90zM143 -210h-10l44 160h10z" />
    <glyph glyph-name="circumflex" unicode="&#x2c6;" horiz-adv-x="240" 
d="M237 900h8l106 -120h-12l-98 111l-133 -111h-14z" />
    <glyph glyph-name="caron" unicode="&#x2c7;" horiz-adv-x="240" 
d="M369 890l-144 -120h-8l-106 120h12l99 -111l133 111h14z" />
    <glyph glyph-name="breve" unicode="&#x2d8;" horiz-adv-x="310" 
d="M386 826q-53 -41 -123 -41q-77 0 -117 41l2 13q41 -44 113 -44t127 44z" />
    <glyph glyph-name="dotaccent" unicode="&#x2d9;" horiz-adv-x="80" 
d="M168 814q-4 -19 -22 -19q-9 0 -14 6t-4 15q4 19 22 19q9 0 14 -6t4 -15z" />
    <glyph glyph-name="ring" unicode="&#x2da;" horiz-adv-x="194" 
d="M285 835q-5 -32 -31 -53t-56 -21q-32 0 -52 21.5t-14 54.5q5 32 31 53t56 21q32 0 52 -21.5t14 -54.5zM141 835q-4 -28 13 -46t43 -18q28 0 51 18t28 48q4 28 -13 46t-43 18q-28 0 -51 -18t-28 -48z" />
    <glyph glyph-name="ogonek" unicode="&#x2db;" horiz-adv-x="200" 
d="M134 9l4 -9q-142 -89 -153 -156q-5 -30 11.5 -47t50.5 -17q40 0 80 20l-1 -11q-38 -19 -78 -19q-39 0 -59 20.5t-14 55.5q11 71 159 163z" />
    <glyph glyph-name="tilde" unicode="&#x2dc;" horiz-adv-x="297" 
d="M401 859q-1 -28 -17 -46t-43 -18t-83 30t-80 30q-22 0 -36 -15t-15 -40h-10q0 27 17 46t43 19t83 -30t81 -30q47 0 50 54h10z" />
    <glyph glyph-name="hungarumlaut" unicode="&#x2dd;" horiz-adv-x="280" 
d="M285 778h-12l100 140h12zM134 778h-12l100 140h12z" />
    <glyph glyph-name="uni0326" unicode="&#x326;" horiz-adv-x="70" 
d="M-23 -210h-10l44 160h10z" />
    <glyph glyph-name="uni0401" unicode="&#x401;" horiz-adv-x="632" 
d="M534 834q-2 -14 -16 -14q-7 0 -10.5 4.5t-2.5 11.5q1 5 6 9.5t10 4.5q17 0 13 -16zM334 834q-2 -14 -16 -14q-7 0 -10.5 4.5t-2.5 11.5q1 5 6 9.5t10 4.5q17 0 13 -16zM173 700h451l-2 -10h-441l-52 -333h411l-2 -10h-411l-53 -337h447l-2 -10h-457z" />
    <glyph glyph-name="uni0410" unicode="&#x410;" horiz-adv-x="705" 
d="M640 0h-11l-70 227h-431l-142 -227h-12l437 700h14zM409 678l-275 -441h423l-136 441q-3 10 -4 13q-1 -2 -4 -6.5t-4 -6.5z" />
    <glyph glyph-name="uni0411" unicode="&#x411;" horiz-adv-x="655" 
d="M134 390h197q52 0 90.5 -4t77 -16.5t61 -33.5t33 -57t2.5 -85q-10 -60 -38.5 -100t-74.5 -60t-94 -27t-114 -7h-212l111 700h451l-2 -10h-441zM74 10h202q63 0 109.5 7t91 25.5t72 57t36.5 96.5q7 46 -3 80t-31 53.5t-57 31.5t-73 15.5t-87 3.5h-202z" />
    <glyph glyph-name="uni0412" unicode="&#x412;" horiz-adv-x="670" 
d="M173 700h243q106 0 162.5 -43t42.5 -132q-11 -71 -59.5 -109.5t-118.5 -47.5q33 -5 60 -15t52 -30t36.5 -55t4.5 -82q-8 -48 -31.5 -83.5t-53 -54.5t-70 -30.5t-74 -14.5t-74.5 -3h-231zM586 188q7 43 -4.5 76t-32 51.5t-50.5 29.5t-55.5 14.5t-52.5 3.5h-261l-56 -353
h221q40 0 72 3t71 14t67.5 29t51 52t29.5 80zM612 527q13 83 -40.5 123t-157.5 40h-233l-50 -317h273q77 0 136 38t72 116z" />
    <glyph glyph-name="uni0413" unicode="&#x413;" horiz-adv-x="584" 
d="M72 0h-10l111 700h448l-2 -10h-438z" />
    <glyph glyph-name="uni0414" unicode="&#x414;" horiz-adv-x="738" 
d="M-47 -180h-10l30 190h68q89 124 152.5 310t93.5 380h400l-109 -690h85l-30 -190h-10l28 180h-670zM296 690q-32 -192 -94 -374.5t-149 -305.5h515l107 680h-379z" />
    <glyph glyph-name="uni0415" unicode="&#x415;" horiz-adv-x="632" 
d="M173 700h451l-2 -10h-441l-52 -333h411l-2 -10h-411l-53 -337h447l-2 -10h-457z" />
    <glyph glyph-name="uni0416" unicode="&#x416;" horiz-adv-x="921" 
d="M933 700h11l-270 -341l191 -359h-11l-188 355h-189l-56 -355h-10l56 355h-187l-300 -355h-13l305 359l-164 341h10l162 -335h189l53 335h10l-53 -335h188z" />
    <glyph glyph-name="uni0417" unicode="&#x417;" horiz-adv-x="603" 
d="M532 186q-11 -67 -59.5 -113.5t-108 -64.5t-125.5 -18q-143 0 -232 43l2 10q91 -43 229 -43q64 0 121.5 17.5t105 61.5t57.5 109q8 48 -10 83t-54.5 54t-78.5 27.5t-90 8.5h-126l2 10h126q105 0 175 44t82 118q12 80 -48 123.5t-157 43.5q-118 0 -225 -44l2 10
q101 44 223 44q100 0 163.5 -46.5t50.5 -132.5q-10 -69 -68.5 -113t-146.5 -52q43 -4 77.5 -15.5t63.5 -31.5t42.5 -54t6.5 -79z" />
    <glyph glyph-name="uni0418" unicode="&#x418;" horiz-adv-x="766" 
d="M723 700l-111 -700h-10l101 636q1 8 3.5 22.5t3.5 21.5l-641 -680h-7l111 700h10l-102 -641q-1 -7 -3 -19t-3 -19l641 679h7z" />
    <glyph glyph-name="uni0419" unicode="&#x419;" horiz-adv-x="766" 
d="M723 700l-111 -700h-10l101 636q1 8 3.5 22.5t3.5 21.5l-641 -680h-7l111 700h10l-102 -641q-1 -7 -3 -19t-3 -19l641 679h7zM587 826q-53 -41 -123 -41q-77 0 -117 41l2 13q41 -44 113 -44t127 44z" />
    <glyph glyph-name="uni041A" unicode="&#x41a;" horiz-adv-x="650" 
d="M668 700h12l-313 -342l232 -358h-13l-228 355h-230l-56 -355h-10l111 700h10l-53 -335h231z" />
    <glyph glyph-name="uni041B" unicode="&#x41b;" horiz-adv-x="730" 
d="M309 700h378l-111 -700h-10l109 690h-358q-21 -92 -36.5 -154t-37.5 -142t-41 -133t-44 -109t-49.5 -88t-55 -53t-63.5 -21q-24 0 -44 8l1 10q23 -8 42 -8q28 0 53.5 14t48.5 44.5t43 65.5t40 89.5t36 103t34.5 120.5t32 127t32.5 136z" />
    <glyph glyph-name="uni041C" unicode="&#x41c;" horiz-adv-x="898" 
d="M849 700h6l-111 -700h-10l107 676l-399 -471h-9l-253 473l-108 -678h-10l111 700h6l260 -484z" />
    <glyph glyph-name="uni041D" unicode="&#x41d;" horiz-adv-x="766" 
d="M713 700h10l-111 -700h-10l55 347h-530l-55 -347h-10l111 700h10l-54 -343h530z" />
    <glyph glyph-name="uni041E" unicode="&#x41e;" horiz-adv-x="826" 
d="M782 349q-10 -66 -44 -129.5t-86 -115t-127 -83t-159 -31.5q-87 0 -152.5 32t-100 84.5t-47.5 115.5t-3 129t44 129.5t86 115t127 83t159 31.5q87 0 152.5 -32t100 -84.5t47.5 -115.5t3 -129zM73 349q-10 -64 2.5 -125t46.5 -111.5t97 -81.5t147 -31q110 0 200.5 54
t141 132t64.5 165q10 64 -2.5 125t-46.5 111.5t-97 81.5t-147 31q-110 0 -200.5 -54t-141 -132t-64.5 -165z" />
    <glyph glyph-name="uni041F" unicode="&#x41f;" horiz-adv-x="746" 
d="M72 0h-10l111 700h530l-111 -700h-10l109 690h-510z" />
    <glyph glyph-name="uni0420" unicode="&#x420;" horiz-adv-x="649" 
d="M173 700h207q62 0 111 -10.5t88 -34t55.5 -67t6.5 -104.5q-35 -214 -324 -214h-202l-43 -270h-10zM631 486q17 111 -52 157.5t-196 46.5h-202l-65 -410h202q281 0 313 206z" />
    <glyph glyph-name="uni0421" unicode="&#x421;" horiz-adv-x="656" 
d="M64 351q14 88 56.5 158.5t101.5 113.5t125 65t132 22q106 0 183 -49l-2 -10q-74 49 -181 49q-51 0 -103 -13t-101.5 -41.5t-90 -69t-70 -99t-40.5 -128.5q-13 -84 6.5 -152t62.5 -110t101 -64.5t123 -22.5q105 0 203 50l-2 -10q-92 -50 -200 -50q-67 0 -126.5 23
t-105 66.5t-66 114t-6.5 157.5z" />
    <glyph glyph-name="uni0422" unicode="&#x422;" horiz-adv-x="588" 
d="M79 700h560l-2 -10h-275l-109 -690h-10l109 690h-275z" />
    <glyph glyph-name="uni0423" unicode="&#x423;" horiz-adv-x="614" 
d="M316 159q-65 -97 -117.5 -133t-111.5 -36q-37 0 -67 10l2 10q33 -10 64 -10q54 0 102.5 31t103.5 109l14 20l-232 540h11l227 -530l351 530h12z" />
    <glyph glyph-name="uni0424" unicode="&#x424;" horiz-adv-x="839" 
d="M373 -35h-10l15 95q-172 1 -264 79.5t-70 216.5q21 136 136 209.5t290 74.5l15 95h10l-15 -95q172 -1 263.5 -79t69.5 -216q-21 -137 -135.5 -210.5t-289.5 -74.5zM54 354q-21 -133 67 -208t259 -76l88 560q-172 -1 -282.5 -72t-131.5 -204zM478 630l-88 -560
q172 1 282 72.5t131 204.5t-66.5 207.5t-258.5 75.5z" />
    <glyph glyph-name="uni0425" unicode="&#x425;" horiz-adv-x="595" 
d="M-20 0h-13l336 360l-210 340h11l206 -333l311 333h13l-319 -342l221 -358h-11l-217 351z" />
    <glyph glyph-name="uni0426" unicode="&#x426;" horiz-adv-x="754" 
d="M649 -180h-10l29 180h-606l111 700h10l-109 -690h510l109 690h10l-109 -690h85z" />
    <glyph glyph-name="uni0427" unicode="&#x427;" horiz-adv-x="666" 
d="M512 0h-10l48 301q-126 -43 -244 -41q-124 2 -184 61t-42 173l33 206h10l-33 -206q-18 -111 39.5 -166.5t176.5 -57.5q117 -1 246 42l61 388h10z" />
    <glyph glyph-name="uni0428" unicode="&#x428;" horiz-adv-x="1066" 
d="M912 0h-850l111 700h10l-109 -690h410l109 690h10l-109 -690h410l109 690h10z" />
    <glyph glyph-name="uni0429" unicode="&#x429;" horiz-adv-x="1074" 
d="M969 -180h-10l28 180h-925l111 700h10l-109 -690h410l109 690h10l-109 -690h410l109 690h10l-109 -690h85z" />
    <glyph glyph-name="uni042A" unicode="&#x42a;" horiz-adv-x="738" 
d="M362 0h-212l109 690h-190l2 10h200l-43 -270h202q60 0 107.5 -10.5t86 -34t55.5 -67t7 -104.5q-33 -214 -324 -214zM227 420l-65 -410h202q280 0 312 206q9 58 -6 99t-52 63t-83 32t-106 10h-202z" />
    <glyph glyph-name="uni042B" unicode="&#x42b;" horiz-adv-x="817" 
d="M274 0h-212l111 700h10l-43 -270h202q60 0 107.5 -10.5t86 -34t55.5 -67t7 -104.5q-33 -214 -324 -214zM139 420l-65 -410h202q280 0 312 206q9 58 -6 99t-52 63t-83 32t-106 10h-202zM663 0h-10l111 700h10z" />
    <glyph glyph-name="uni042C" unicode="&#x42c;" horiz-adv-x="650" 
d="M274 0h-212l111 700h10l-43 -270h202q60 0 107.5 -10.5t86 -34t55.5 -67t7 -104.5q-33 -214 -324 -214zM139 420l-65 -410h202q280 0 312 206q9 58 -6 99t-52 63t-83 32t-106 10h-202z" />
    <glyph glyph-name="uni042D" unicode="&#x42d;" horiz-adv-x="660" 
d="M112 661q92 49 202 49q62 0 120.5 -24t104 -68t67.5 -115.5t8 -158.5q-28 -172 -146 -263t-267 -91q-111 0 -188 50l2 10q83 -50 185 -50q94 0 176.5 35.5t146 115.5t81.5 194h-420l1 10h420q11 82 -10.5 149.5t-65 109t-99.5 64t-116 22.5q-109 0 -204 -49z" />
    <glyph glyph-name="uni042E" unicode="&#x42e;" horiz-adv-x="1070" 
d="M1026 349q-10 -66 -44 -129.5t-86 -115t-127 -83t-159 -31.5q-86 0 -151 31.5t-100 83t-48.5 113.5t-4.5 127h-179l-55 -345h-10l111 700h10l-55 -345h180q11 66 45 128.5t86 113.5t126.5 82t157.5 31q87 0 152.5 -32t100 -84.5t47.5 -115.5t3 -129zM317 349
q-10 -64 2.5 -125t46.5 -111.5t97 -81.5t147 -31q110 0 200.5 54t141 132t64.5 165q10 64 -2.5 125t-46.5 111.5t-97 81.5t-147 31q-110 0 -200.5 -54t-141 -132t-64.5 -165z" />
    <glyph glyph-name="uni042F" unicode="&#x42f;" horiz-adv-x="674" 
d="M8 0h-13l269 282q-92 14 -137 67.5t-31 140.5q11 71 55 119.5t105 69.5t135 21h240l-111 -700h-10l44 278h-226q-28 0 -53 3zM106 488q-16 -100 47 -150t173 -50h230l63 402h-230q-109 0 -188 -50.5t-95 -151.5z" />
    <glyph glyph-name="uni0430" unicode="&#x430;" horiz-adv-x="611" 
d="M491 134q-39 -63 -105.5 -103.5t-141.5 -40.5q-104 0 -161 70.5t-39 185.5q18 113 96.5 178.5t180.5 65.5q73 0 129 -42t74 -106l22 138h10l-76 -480h-10zM54 244q-18 -110 36 -177t153 -67q80 0 149 45.5t103 114.5l25 157q-12 70 -67.5 116.5t-131.5 46.5
q-98 0 -174 -63t-93 -173z" />
    <glyph glyph-name="uni0431" unicode="&#x431;" horiz-adv-x="593" 
d="M531 218q-16 -105 -85.5 -166.5t-178.5 -61.5q-113 0 -172.5 83t-39.5 213q15 95 71.5 177.5t129.5 124.5q63 35 126 52.5t104.5 29.5t70.5 39l-1 -12q-29 -25 -71 -37t-102.5 -29t-119.5 -51q-68 -38 -118.5 -106t-75.5 -158q41 66 111 105t148 39q101 0 160 -69.5
t43 -172.5zM65 291q-19 -131 36.5 -211t164.5 -80q105 0 171.5 59t83.5 161q16 98 -40.5 164t-152.5 66q-78 0 -151 -42t-112 -117z" />
    <glyph glyph-name="uni0432" unicode="&#x432;" horiz-adv-x="539" 
d="M289 0h-249l76 480h235q65 0 100 -33t26 -89q-15 -94 -108 -113q107 -18 90 -123q-9 -61 -55.5 -91.5t-114.5 -30.5zM88 239l-36 -229h238q63 0 107 28t53 86q9 60 -24.5 87.5t-94.5 27.5h-243zM125 470l-35 -221h229q65 0 102.5 29.5t45.5 81.5q8 50 -23 80t-95 30h-224
z" />
    <glyph glyph-name="uni0433" unicode="&#x433;" horiz-adv-x="442" 
d="M50 0h-10l76 480h334l-1 -10h-324z" />
    <glyph glyph-name="uni0434" unicode="&#x434;" horiz-adv-x="595" 
d="M-33 -140h-10l24 150h60q67 108 107 214t64 256h315l-74 -470h68l-24 -150h-10l22 140h-520zM220 470q-23 -145 -62.5 -249.5t-105.5 -210.5h391l73 460h-296z" />
    <glyph glyph-name="uni0435" unicode="&#x435;" horiz-adv-x="540" 
d="M43 241q18 114 94.5 181.5t172.5 67.5q60 0 103.5 -25.5t60.5 -64t22 -84t-10 -85.5h-434q-16 -114 48 -172.5t164 -58.5q91 0 162 38l-2 -11q-68 -37 -159 -37q-106 0 -174 63.5t-48 187.5zM478 241q13 39 7.5 81t-22.5 77.5t-57 58t-96 22.5q-92 0 -165 -63.5
t-92 -175.5h425z" />
    <glyph glyph-name="uni0436" unicode="&#x436;" horiz-adv-x="696" 
d="M-21 0h-13l264 249l-158 231h11l154 -225h101l36 225h10l-36 -225h101l225 225h12l-230 -231l184 -249h-11l-181 245h-101l-39 -245h-10l39 245h-98z" />
    <glyph glyph-name="uni0437" unicode="&#x437;" horiz-adv-x="471" 
d="M391 124q-11 -69 -72.5 -101.5t-146.5 -32.5q-100 0 -170 34l2 10q70 -34 167 -34q82 0 141 30.5t69 95.5q8 51 -27.5 82t-81.5 31h-126l2 10h115q63 0 100 29.5t45 79.5q9 57 -39 89.5t-121 32.5q-88 0 -173 -33l2 11q84 32 171 32q77 0 128 -35.5t42 -98.5
q-7 -45 -37.5 -74.5t-79.5 -37.5q43 -9 70.5 -40.5t19.5 -79.5z" />
    <glyph glyph-name="uni0438" unicode="&#x438;" horiz-adv-x="582" 
d="M52 0h-12l76 480h10l-74 -466l462 466h12l-76 -480h-10l74 466z" />
    <glyph glyph-name="uni0439" unicode="&#x439;" horiz-adv-x="582" 
d="M463 606q-53 -41 -123 -41q-77 0 -117 41l2 13q41 -44 113 -44t127 44zM52 0h-12l76 480h10l-74 -466l462 466h12l-76 -480h-10l74 466z" />
    <glyph glyph-name="uni043A" unicode="&#x43a;" horiz-adv-x="486" 
d="M50 0h-10l76 480h10l-36 -225h141l235 225h12l-239 -230l193 -250h-11l-191 245h-141z" />
    <glyph glyph-name="uni043B" unicode="&#x43b;" horiz-adv-x="582" 
d="M226 470q-44 -236 -99.5 -355.5t-129.5 -119.5q-21 0 -37 6l2 10q14 -6 35 -6q70 0 123.5 119t97.5 356h308l-76 -480h-10l75 470h-289z" />
    <glyph glyph-name="uni043C" unicode="&#x43c;" horiz-adv-x="658" 
d="M50 0h-10l76 480h10l182 -319l283 319h11l-76 -480h-10l74 464l-281 -316h-5l-180 316z" />
    <glyph glyph-name="uni043D" unicode="&#x43d;" horiz-adv-x="572" 
d="M50 0h-10l76 480h10l-37 -235h380l37 235h10l-76 -480h-10l37 235h-380z" />
    <glyph glyph-name="uni043E" unicode="&#x43e;" horiz-adv-x="591" 
d="M533 234q-18 -113 -99.5 -178.5t-183.5 -65.5q-98 0 -161.5 70.5t-45.5 185.5q18 113 100 178.5t184 65.5q98 0 161 -70.5t45 -185.5zM53 244q-17 -109 42.5 -176.5t153.5 -67.5q99 0 178 63t96 173q17 109 -42.5 176.5t-153.5 67.5q-99 0 -178 -63t-96 -173z" />
    <glyph glyph-name="uni043F" unicode="&#x43f;" horiz-adv-x="572" 
d="M50 0h-10l76 480h400l-76 -480h-10l75 470h-380z" />
    <glyph glyph-name="uni0440" unicode="&#x440;" horiz-adv-x="611" 
d="M104 343q40 65 107.5 106t141.5 41q99 0 158 -71t41 -185t-94.5 -179t-181.5 -65q-76 0 -130.5 41.5t-73.5 108.5l-57 -360h-10l111 700h10zM542 236q18 109 -37.5 176.5t-151.5 67.5q-78 0 -148 -46.5t-105 -117.5l-24 -152q13 -71 66.5 -117.5t132.5 -46.5
q101 0 175 62.5t92 173.5z" />
    <glyph glyph-name="uni0441" unicode="&#x441;" horiz-adv-x="496" 
d="M41 241q10 63 41 112.5t73.5 78.5t89 43.5t92.5 14.5q82 0 134 -39l-2 -10q-49 39 -132 39q-99 0 -182.5 -61.5t-103.5 -179.5q-18 -114 41.5 -176.5t157.5 -62.5q92 0 160 39l-1 -11q-69 -38 -158 -38q-103 0 -165.5 64.5t-44.5 186.5z" />
    <glyph glyph-name="uni0442" unicode="&#x442;" horiz-adv-x="448" 
d="M182 0h-10l75 470h-205l1 10h420l-1 -10h-205z" />
    <glyph glyph-name="uni0443" unicode="&#x443;" horiz-adv-x="528" 
d="M234 9l287 471h12l-349 -572q-48 -77 -86 -107.5t-84 -30.5q-24 0 -48 6l1 10q26 -6 46 -6q45 0 82.5 31t80.5 103l51 84l-178 482h11z" />
    <glyph glyph-name="uni0444" unicode="&#x444;" horiz-adv-x="690" 
d="M269 -220h-10l33 210q-125 2 -196.5 70t-53.5 186q19 116 110 179t220 65l33 210h10l-33 -210q125 -2 197 -70t53 -186q-18 -116 -109.5 -179t-220.5 -65zM52 244q-18 -112 50.5 -177t191.5 -67l76 480q-125 -2 -212.5 -63t-105.5 -173zM380 480l-76 -480q125 2 213 63
t105 173q18 112 -50.5 177t-191.5 67z" />
    <glyph glyph-name="uni0445" unicode="&#x445;" horiz-adv-x="480" 
d="M-14 0h-14l255 247l-167 233h12l162 -226l234 226h14l-242 -234l176 -246h-12l-171 239z" />
    <glyph glyph-name="uni0446" unicode="&#x446;" horiz-adv-x="584" 
d="M486 -140h-10l22 140h-458l76 480h10l-74 -470h380l74 470h10l-74 -470h68z" />
    <glyph glyph-name="uni0447" unicode="&#x447;" horiz-adv-x="511" 
d="M379 0h-10l30 190q-84 -34 -178 -34q-89 0 -136.5 43t-33.5 128l24 153h10l-24 -153q-13 -80 30.5 -120.5t128.5 -40.5q92 0 181 34l44 280h10z" />
    <glyph glyph-name="uni0448" unicode="&#x448;" horiz-adv-x="802" 
d="M670 0h-630l76 480h10l-74 -470h300l74 470h10l-74 -470h300l74 470h10z" />
    <glyph glyph-name="uni0449" unicode="&#x449;" horiz-adv-x="814" 
d="M716 -140h-10l22 140h-688l76 480h10l-74 -470h300l74 470h10l-74 -470h300l74 470h10l-74 -470h68z" />
    <glyph glyph-name="uni044A" unicode="&#x44a;" horiz-adv-x="565" 
d="M306 0h-203l75 470h-140l1 10h150l-30 -188h193q78 0 121 -41.5t33 -105.5t-64.5 -104.5t-135.5 -40.5zM158 282l-43 -272h193q77 0 128 38.5t60 98.5q10 59 -29.5 97t-115.5 38h-193z" />
    <glyph glyph-name="uni044B" unicode="&#x44b;" horiz-adv-x="662" 
d="M243 0h-203l76 480h10l-30 -188h193q78 0 121 -41.5t33 -105.5t-64.5 -104.5t-135.5 -40.5zM95 282l-43 -272h193q77 0 128 38.5t60 98.5q10 59 -29.5 97t-115.5 38h-193zM530 0h-10l76 480h10z" />
    <glyph glyph-name="uni044C" unicode="&#x44c;" horiz-adv-x="502" 
d="M243 0h-203l76 480h10l-30 -188h193q78 0 121 -41.5t33 -105.5t-64.5 -104.5t-135.5 -40.5zM95 282l-43 -272h193q77 0 128 38.5t60 98.5q10 59 -29.5 97t-115.5 38h-193z" />
    <glyph glyph-name="uni044D" unicode="&#x44d;" horiz-adv-x="505" 
d="M446 234q-20 -123 -99 -183.5t-181 -60.5q-88 0 -158 43l2 10q71 -43 155 -43q99 0 176 58.5t95 176.5h-301l2 10h301q10 77 -20 132t-79.5 79t-109.5 24q-85 0 -157 -44l2 10q71 44 155 44q46 0 87.5 -15.5t75 -45.5t49 -80.5t5.5 -114.5z" />
    <glyph glyph-name="uni044E" unicode="&#x44e;" horiz-adv-x="791" 
d="M733 234q-18 -113 -99.5 -178.5t-183.5 -65.5q-95 0 -158.5 67.5t-50.5 178.5h-154l-37 -235h-10l76 480h10l-37 -235h154q17 108 97.5 175.5t186.5 68.5q98 0 161 -70.5t45 -185.5zM253 244q-17 -109 42.5 -176.5t153.5 -67.5q99 0 178 63t96 173q17 109 -42.5 176.5
t-153.5 67.5q-99 0 -178 -63t-96 -173z" />
    <glyph glyph-name="uni044F" unicode="&#x44f;" horiz-adv-x="536" 
d="M7 0h-13l182 202q-60 11 -89.5 47.5t-20.5 90.5q10 63 63.5 101.5t133.5 38.5h217l-76 -480h-10l31 198h-199q-14 0 -38 2zM76 338q-10 -58 29.5 -94t116.5 -36h205l42 262h-205q-77 0 -128 -36.5t-60 -95.5z" />
    <glyph glyph-name="uni0451" unicode="&#x451;" horiz-adv-x="540" 
d="M451 614q-2 -14 -16 -14q-7 0 -10.5 4.5t-2.5 11.5q1 5 6 9.5t10 4.5q17 0 13 -16zM251 614q-2 -14 -16 -14q-7 0 -10.5 4.5t-2.5 11.5q1 5 6 9.5t10 4.5q17 0 13 -16zM43 241q18 114 94.5 181.5t172.5 67.5q60 0 103.5 -25.5t60.5 -64t22 -84t-10 -85.5h-434
q-16 -114 48 -172.5t164 -58.5q91 0 162 38l-2 -11q-68 -37 -159 -37q-106 0 -174 63.5t-48 187.5zM478 241q13 39 7.5 81t-22.5 77.5t-57 58t-96 22.5q-92 0 -165 -63.5t-92 -175.5h425z" />
    <glyph glyph-name="Wgrave" unicode="&#x1e80;" horiz-adv-x="975" 
d="M1001 700h11l-336 -700h-10l-115 674l-333 -674h-10l-114 700h10l111 -684l333 674h10l115 -673zM586 780h-11l-67 130h11z" />
    <glyph glyph-name="wgrave" unicode="&#x1e81;" horiz-adv-x="795" 
d="M786 480h11l-266 -480h-8l-98 458l-246 -458h-8l-113 480h10l109 -463l244 453h11l97 -454zM458 560h-11l-67 130h11z" />
    <glyph glyph-name="Wacute" unicode="&#x1e82;" horiz-adv-x="975" 
d="M1001 700h11l-336 -700h-10l-115 674l-333 -674h-10l-114 700h10l111 -684l333 674h10l115 -673zM556 780h-12l107 130h12z" />
    <glyph glyph-name="wacute" unicode="&#x1e83;" horiz-adv-x="795" 
d="M786 480h11l-266 -480h-8l-98 458l-246 -458h-8l-113 480h10l109 -463l244 453h11l97 -454zM428 560h-12l107 130h12z" />
    <glyph glyph-name="Wdieresis" unicode="&#x1e84;" horiz-adv-x="975" 
d="M1001 700h11l-336 -700h-10l-115 674l-333 -674h-10l-114 700h10l111 -684l333 674h10l115 -673zM690 834q-2 -14 -16 -14q-7 0 -10.5 4.5t-2.5 11.5q1 5 6 9.5t10 4.5q17 0 13 -16zM490 834q-2 -14 -16 -14q-7 0 -10.5 4.5t-2.5 11.5q1 5 6 9.5t10 4.5q17 0 13 -16z" />
    <glyph glyph-name="wdieresis" unicode="&#x1e85;" horiz-adv-x="795" 
d="M786 480h11l-266 -480h-8l-98 458l-246 -458h-8l-113 480h10l109 -463l244 453h11l97 -454zM562 614q-2 -14 -16 -14q-7 0 -10.5 4.5t-2.5 11.5q1 5 6 9.5t10 4.5q17 0 13 -16zM362 614q-2 -14 -16 -14q-7 0 -10.5 4.5t-2.5 11.5q1 5 6 9.5t10 4.5q17 0 13 -16z" />
    <glyph glyph-name="Ygrave" unicode="&#x1ef2;" horiz-adv-x="616" 
d="M267 0h-10l46 289l-210 411h11l205 -400l332 400h13l-341 -411zM405 780h-11l-67 130h11z" />
    <glyph glyph-name="ygrave" unicode="&#x1ef3;" horiz-adv-x="528" 
d="M234 9l287 471h12l-349 -572q-48 -77 -86 -107.5t-84 -30.5q-24 0 -48 6l1 10q26 -6 46 -6q45 0 82.5 31t80.5 103l51 84l-178 482h11zM315 560h-11l-67 130h11z" />
    <glyph glyph-name="endash" unicode="&#x2013;" horiz-adv-x="567" 
d="M485 236h-420l1 10h420z" />
    <glyph glyph-name="emdash" unicode="&#x2014;" horiz-adv-x="747" 
d="M665 236h-600l1 10h600z" />
    <glyph glyph-name="quoteleft" unicode="&#x2018;" horiz-adv-x="175" 
d="M104 490h-10l82 210h10z" />
    <glyph glyph-name="quoteright" unicode="&#x2019;" horiz-adv-x="175" 
d="M104 490h-10l82 210h10z" />
    <glyph glyph-name="quotesinglbase" unicode="&#x201a;" horiz-adv-x="146" 
d="M-22 -140h-10l82 210h10z" />
    <glyph glyph-name="quotedblleft" unicode="&#x201c;" horiz-adv-x="295" 
d="M224 490h-10l82 210h10zM104 490h-10l82 210h10z" />
    <glyph glyph-name="quotedblright" unicode="&#x201d;" horiz-adv-x="295" 
d="M224 490h-10l82 210h10zM104 490h-10l82 210h10z" />
    <glyph glyph-name="quotedblbase" unicode="&#x201e;" horiz-adv-x="266" 
d="M98 -140h-10l82 210h10zM-22 -140h-10l82 210h10z" />
    <glyph glyph-name="dagger" unicode="&#x2020;" horiz-adv-x="475" 
d="M161 -220h-10l110 690h-195l1 10h195l35 220h10l-35 -220h195l-1 -10h-195z" />
    <glyph glyph-name="daggerdbl" unicode="&#x2021;" horiz-adv-x="509" 
d="M178 -220h-10l56 350h-195l1 10h195l53 330h-195l1 10h195l35 220h10l-35 -220h195l-1 -10h-195l-53 -330h195l-1 -10h-195z" />
    <glyph glyph-name="bullet" unicode="&#x2022;" horiz-adv-x="269" 
d="M113 351q1 12 11 20.5t22 8.5q13 0 20.5 -9t5.5 -22q-1 -12 -11.5 -20.5t-21.5 -8.5q-14 0 -21 9t-5 22z" />
    <glyph glyph-name="ellipsis" unicode="&#x2026;" horiz-adv-x="382" 
d="M288 9q-4 -14 -17 -14q-7 0 -10.5 4.5t-2.5 11.5q1 5 6 9.5t10 4.5q16 0 14 -16zM48 9q-4 -14 -17 -14q-7 0 -10.5 4.5t-2.5 11.5q1 5 6 9.5t10 4.5q16 0 14 -16zM168 9q-4 -14 -17 -14q-7 0 -10.5 4.5t-2.5 11.5q1 5 6 9.5t10 4.5q16 0 14 -16z" />
    <glyph glyph-name="perthousand" unicode="&#x2030;" horiz-adv-x="1229" 
d="M180 -60h-12l539 820h12zM369 566q-10 -65 -57 -100.5t-106 -35.5q-58 0 -96 38.5t-27 105.5q10 65 57.5 100.5t106.5 35.5q58 0 95.5 -38.5t26.5 -105.5zM92 572q-9 -60 25.5 -96t87.5 -36q57 0 101 33t54 95q9 60 -25.5 96t-86.5 36q-57 0 -101.5 -33t-54.5 -95z
M805 126q-11 -65 -58 -100.5t-105 -35.5t-96.5 38.5t-27.5 105.5q10 65 57 100.5t107 35.5q57 0 95 -38.5t28 -105.5zM528 132q-10 -60 24.5 -96t87.5 -36q57 0 101 33t54 95q9 60 -25.5 96t-86.5 36q-57 0 -101.5 -33t-53.5 -95zM1166 126q-11 -65 -58 -100.5t-105 -35.5
t-96.5 38.5t-27.5 105.5q10 65 57 100.5t107 35.5q57 0 95 -38.5t28 -105.5zM889 132q-10 -60 24.5 -96t87.5 -36q57 0 101 33t54 95q9 60 -25.5 96t-86.5 36q-57 0 -101.5 -33t-53.5 -95z" />
    <glyph glyph-name="guilsinglleft" unicode="&#x2039;" horiz-adv-x="257" 
d="M149 72h-11l-92 165l1 6l143 165h12l-146 -169z" />
    <glyph glyph-name="guilsinglright" unicode="&#x203a;" horiz-adv-x="256" 
d="M51 72h-13l147 169l-93 167h11l92 -165l-1 -6z" />
    <glyph glyph-name="fraction" unicode="&#x2044;" horiz-adv-x="160" 
d="M-190 -10h-13l569 720h13z" />
    <glyph glyph-name="Euro" unicode="&#x20ac;" horiz-adv-x="742" 
d="M713 631q-78 49 -186 49q-71 0 -141.5 -26.5t-134 -87.5t-91.5 -146h418l-2 -10h-419q-8 -25 -13 -56q-7 -40 -5 -84h415l-2 -10h-413q9 -122 91 -191t198 -69q120 0 203 50l-2 -10q-77 -50 -200 -50q-121 0 -206 71.5t-94 198.5h-87l2 10h85q-2 46 5 86q4 28 12 54h-80
l2 10h81q43 129 153 199.5t224 70.5q112 0 189 -49z" />
    <glyph glyph-name="trademark" unicode="&#x2122;" horiz-adv-x="647" 
d="M334 450h-10l40 250h11l92 -165l147 165h11l-40 -250h-10l38 235l-143 -160h-8l-90 160zM171 450h-10l38 240h-95l2 10h200l-2 -10h-95z" />
    <glyph glyph-name="oneeighth" unicode="&#x215b;" horiz-adv-x="914" 
d="M578 318q7 40 47 68t110 28q67 0 100 -32.5t26 -74.5q-12 -75 -91 -113q40 -17 59 -39.5t13 -58.5q-7 -42 -50.5 -72t-121.5 -30t-113 34t-27 85q12 78 103 116q-64 29 -55 89zM704 205q-42 12 -60 20q-43 -17 -70.5 -46t-33.5 -67q-7 -47 25 -77.5t105 -30.5
q74 0 114.5 27t47.5 67q4 24 -4.5 41.5t-31.5 30t-40 19t-52 16.5zM851 308q6 37 -23.5 66.5t-92.5 29.5q-66 0 -103.5 -25.5t-43.5 -62.5q-9 -58 68 -87q11 -3 46 -14q10 -3 29.5 -9t27.5 -8q80 35 92 110zM167 -10h-13l569 720h13zM224 680h7l-63 -398h81l-2 -10h-198
l2 10h107l61 386l-102 -36l2 10z" />
    <glyph glyph-name="threeeighths" unicode="&#x215c;" horiz-adv-x="971" 
d="M635 318q7 40 47 68t110 28q67 0 100 -32.5t26 -74.5q-12 -75 -91 -113q40 -17 59 -39.5t13 -58.5q-7 -42 -50.5 -72t-121.5 -30t-113 34t-27 85q12 78 103 116q-64 29 -55 89zM761 205q-42 12 -60 20q-43 -17 -70.5 -46t-33.5 -67q-7 -47 25 -77.5t105 -30.5
q74 0 114.5 27t47.5 67q4 24 -4.5 41.5t-31.5 30t-40 19t-52 16.5zM908 308q6 37 -23.5 66.5t-92.5 29.5q-66 0 -103.5 -25.5t-43.5 -62.5q-9 -58 68 -87q11 -3 46 -14q10 -3 29.5 -9t27.5 -8q80 35 92 110zM234 -10h-13l569 720h13zM366 582q-6 -34 -31.5 -60.5
t-68.5 -34.5q43 -6 67.5 -32.5t17.5 -72.5q-8 -53 -51 -82.5t-111 -29.5q-77 0 -129 26l2 10q54 -26 127 -26q64 0 104.5 27t47.5 77q8 49 -24 73.5t-88 24.5h-59l1 10h58q56 0 88.5 27t38.5 65q6 40 -22 68t-81 28q-65 0 -129 -26l2 11q59 25 128 25q56 0 87.5 -31.5
t24.5 -76.5z" />
    <glyph glyph-name="fiveeighths" unicode="&#x215d;" horiz-adv-x="962" 
d="M626 318q7 40 47 68t110 28q67 0 100 -32.5t26 -74.5q-12 -75 -91 -113q40 -17 59 -39.5t13 -58.5q-7 -42 -50.5 -72t-121.5 -30t-113 34t-27 85q12 78 103 116q-64 29 -55 89zM752 205q-42 12 -60 20q-43 -17 -70.5 -46t-33.5 -67q-7 -47 25 -77.5t105 -30.5
q74 0 114.5 27t47.5 67q4 24 -4.5 41.5t-31.5 30t-40.5 19t-51.5 16.5zM899 308q6 37 -23.5 66.5t-92.5 29.5q-66 0 -103.5 -25.5t-43.5 -62.5q-9 -58 68 -87q11 -3 46 -14q10 -3 29.5 -9t27.5 -8q80 35 92 110zM225 -10h-13l569 720h13zM143 680h230l-2 -10h-220l-41 -183
q56 16 106 16q61 0 100 -30t30 -89q-8 -52 -52 -85t-109 -33q-76 0 -127 27l2 10q52 -27 125 -27q61 0 102 30t49 80q8 54 -27.5 80.5t-94.5 26.5q-57 0 -117 -19z" />
    <glyph glyph-name="seveneighths" unicode="&#x215e;" horiz-adv-x="849" 
d="M109 -10h-13l569 720h13zM510 318q7 40 47 68t110 28q67 0 100 -32.5t26 -74.5q-12 -75 -91 -113q40 -17 59 -39.5t13 -58.5q-7 -42 -50.5 -72t-121.5 -30t-113 34t-27 85q12 78 103 116q-64 29 -55 89zM636 205q-42 12 -60 20q-43 -17 -70.5 -46t-33.5 -67
q-7 -47 25 -77.5t105 -30.5q74 0 114.5 27t47.5 67q4 24 -4.5 41.5t-31.5 30t-40 19t-52 16.5zM783 308q6 37 -23.5 66.5t-92.5 29.5q-66 0 -103.5 -25.5t-43.5 -62.5q-9 -58 68 -87q11 -3 46 -14q10 -3 29.5 -9t27.5 -8q80 35 92 110zM123 272h-12l238 398h-251l2 10h263
l-2 -8z" />
    <glyph glyph-name="partialdiff" unicode="&#x2202;" horiz-adv-x="595" 
d="M532 264q-20 -123 -98.5 -198.5t-188.5 -75.5q-107 0 -164 64.5t-40 171.5q15 98 93.5 161t174.5 63q87 0 149 -54t59 -156q4 15 5 26q32 198 -70.5 311t-287.5 113l2 10q188 0 293 -116.5t73 -319.5zM51 224q-16 -102 38 -163t155 -61q91 0 160 53.5t102 146.5
q16 117 -44 178.5t-152 61.5q-93 0 -168.5 -60.5t-90.5 -155.5z" />
    <glyph glyph-name="emptyset" unicode="&#x2205;" horiz-adv-x="824" 
d="M781 349q-10 -66 -44 -129.5t-86 -115t-127 -83t-159 -31.5q-139 0 -221 80l-71 -70h-14l78 77q-50 52 -68.5 124.5t-6.5 149.5q10 66 44 129.5t86 115t127 83t159 31.5q139 0 221 -80l71 70h14l-78 -77q50 -52 68.5 -124.5t6.5 -149.5zM72 349q-12 -74 6.5 -144.5
t65.5 -120.5l548 539q-80 77 -214 77q-110 0 -200.5 -54t-141 -132t-64.5 -165zM151 77q80 -77 214 -77q110 0 200.5 54t141 132t64.5 165q12 74 -6.5 144.5t-65.5 120.5z" />
    <glyph glyph-name="product" unicode="&#x220f;" horiz-adv-x="716" 
d="M72 -220h-10l144 910h-105l2 10h640l-2 -10h-105l-144 -910h-10l144 910h-410z" />
    <glyph glyph-name="summation" unicode="&#x2211;" horiz-adv-x="563" 
d="M459 0h-464l1 8l352 343l-243 341l1 8h458l-2 -10h-443l240 -337l-1 -6l-345 -337h448z" />
    <glyph glyph-name="minus" unicode="&#x2212;" horiz-adv-x="518" 
d="M446 345h-360l1 10h360z" />
    <glyph glyph-name="radical" unicode="&#x221a;" horiz-adv-x="714" 
d="M289 0h-11l-124 470h-92l1 10h99l123 -468l482 768h12z" />
    <glyph glyph-name="infinity" unicode="&#x221e;" horiz-adv-x="819" 
d="M421 368q30 39 47 58t45.5 45.5t58 38t63.5 11.5q67 0 106.5 -44.5t27.5 -119.5q-12 -74 -63.5 -118t-116.5 -44q-59 0 -99 42t-72 111q-29 -37 -46.5 -57.5t-46 -46.5t-58.5 -37.5t-65 -11.5q-67 0 -105 44.5t-26 119.5q12 74 63.5 118t116.5 44q60 0 99 -41.5
t71 -111.5zM414 359q-32 71 -68.5 111.5t-92.5 40.5q-63 0 -112 -41.5t-60 -112.5q-11 -69 25 -110.5t97 -41.5q33 0 62 11.5t57 37.5t45.5 46.5t46.5 58.5zM759 359q11 69 -25 110.5t-97 41.5q-44 0 -84.5 -24.5t-64.5 -52t-62 -77.5q31 -70 68.5 -111t92.5 -41
q63 0 112 41.5t60 112.5z" />
    <glyph glyph-name="integral" unicode="&#x222b;" horiz-adv-x="391" 
d="M251 673q10 60 50.5 88.5t87.5 28.5q39 0 62 -13l-1 -10q-29 13 -60 13q-46 0 -83 -27t-47 -86l-124 -780q-10 -60 -49 -88.5t-89 -28.5q-36 0 -62 13l1 10q28 -13 60 -13q49 0 85 27t45 86z" />
    <glyph glyph-name="approxequal" unicode="&#x2248;" horiz-adv-x="574" 
d="M524 461q-5 -32 -28.5 -53t-59.5 -21q-38 0 -126.5 37t-124.5 37q-33 0 -53 -18t-25 -46h-10q5 33 28.5 53.5t59.5 20.5q38 0 126.5 -37t124.5 -37q32 0 52.5 18t25.5 46h10zM502 321q-6 -32 -29 -53t-59 -21q-38 0 -126.5 37t-124.5 37q-33 0 -53 -18t-25 -46h-10
q5 33 28.5 53.5t59.5 20.5q39 0 127 -37t124 -37q32 0 52.5 18t25.5 46h10z" />
    <glyph glyph-name="notequal" unicode="&#x2260;" horiz-adv-x="538" 
d="M123 153h-12l83 102h-122l1 10h129l137 170h-239l2 10h246l82 102h12l-82 -102h122l-2 -10h-129l-137 -170h239l-1 -10h-246z" />
    <glyph glyph-name="lessequal" unicode="&#x2264;" horiz-adv-x="533" 
d="M427 192l-2 -11l-325 164l2 11l376 163l-1 -12l-365 -157zM396 0h-351l2 10h351z" />
    <glyph glyph-name="greaterequal" unicode="&#x2265;" horiz-adv-x="525" 
d="M456 344l-377 -163l2 12l365 157l-315 158l1 11l326 -164zM401 0h-351l2 10h351z" />
    <glyph glyph-name="lozenge" unicode="&#x25ca;" horiz-adv-x="536" 
d="M227 0h-12l-164 350l275 350h12l165 -350zM63 349l159 -339l270 341l-161 339z" />
    <glyph glyph-name="i.loclTRK" horiz-adv-x="190" 
d="M54 0h-10l76 480h10zM163 594q-4 -19 -22 -19q-9 0 -14 6t-4 15q4 19 22 19q9 0 14 -6t4 -15z" />
    <glyph glyph-name="a.ss01" horiz-adv-x="532" 
d="M401 62q-8 -52 46 -52q21 0 39 7l-2 -10q-19 -7 -37 -7q-28 0 -44.5 15t-11.5 47l9 56q-38 -59 -105 -93.5t-130 -34.5q-73 0 -116 36.5t-36 103.5q8 74 73 108.5t152 34.5q92 0 181 -33l10 61q13 83 -28 131t-136 48q-79 0 -163 -28l1 10q82 28 162 28q99 0 143.5 -51
t30.5 -138zM23 128q-6 -61 34 -94.5t107 -33.5q66 0 133 36.5t106 101.5l14 92q-90 33 -178 33q-85 0 -147 -32t-69 -103z" />
    <glyph glyph-name="aacute.ss01" horiz-adv-x="532" 
d="M401 62q-8 -52 46 -52q21 0 39 7l-2 -10q-19 -7 -37 -7q-28 0 -44.5 15t-11.5 47l9 56q-38 -59 -105 -93.5t-130 -34.5q-73 0 -116 36.5t-36 103.5q8 74 73 108.5t152 34.5q92 0 181 -33l10 61q13 83 -28 131t-136 48q-79 0 -163 -28l1 10q82 28 162 28q99 0 143.5 -51
t30.5 -138zM23 128q-6 -61 34 -94.5t107 -33.5q66 0 133 36.5t106 101.5l14 92q-90 33 -178 33q-85 0 -147 -32t-69 -103zM270 560h-12l107 130h12z" />
    <glyph glyph-name="abreve.ss01" horiz-adv-x="532" 
d="M401 62q-8 -52 46 -52q21 0 39 7l-2 -10q-19 -7 -37 -7q-28 0 -44.5 15t-11.5 47l9 56q-38 -59 -105 -93.5t-130 -34.5q-73 0 -116 36.5t-36 103.5q8 74 73 108.5t152 34.5q92 0 181 -33l10 61q13 83 -28 131t-136 48q-79 0 -163 -28l1 10q82 28 162 28q99 0 143.5 -51
t30.5 -138zM23 128q-6 -61 34 -94.5t107 -33.5q66 0 133 36.5t106 101.5l14 92q-90 33 -178 33q-85 0 -147 -32t-69 -103zM405 606q-53 -41 -123 -41q-77 0 -117 41l2 13q41 -44 113 -44t127 44z" />
    <glyph glyph-name="acircumflex.ss01" horiz-adv-x="532" 
d="M401 62q-8 -52 46 -52q21 0 39 7l-2 -10q-19 -7 -37 -7q-28 0 -44.5 15t-11.5 47l9 56q-38 -59 -105 -93.5t-130 -34.5q-73 0 -116 36.5t-36 103.5q8 74 73 108.5t152 34.5q92 0 181 -33l10 61q13 83 -28 131t-136 48q-79 0 -163 -28l1 10q82 28 162 28q99 0 143.5 -51
t30.5 -138zM23 128q-6 -61 34 -94.5t107 -33.5q66 0 133 36.5t106 101.5l14 92q-90 33 -178 33q-85 0 -147 -32t-69 -103zM297 680h8l106 -120h-12l-98 111l-133 -111h-14z" />
    <glyph glyph-name="adieresis.ss01" horiz-adv-x="532" 
d="M401 62q-8 -52 46 -52q21 0 39 7l-2 -10q-19 -7 -37 -7q-28 0 -44.5 15t-11.5 47l9 56q-38 -59 -105 -93.5t-130 -34.5q-73 0 -116 36.5t-36 103.5q8 74 73 108.5t152 34.5q92 0 181 -33l10 61q13 83 -28 131t-136 48q-79 0 -163 -28l1 10q82 28 162 28q99 0 143.5 -51
t30.5 -138zM23 128q-6 -61 34 -94.5t107 -33.5q66 0 133 36.5t106 101.5l14 92q-90 33 -178 33q-85 0 -147 -32t-69 -103zM404 614q-2 -14 -16 -14q-7 0 -10.5 4.5t-2.5 11.5q1 5 6 9.5t10 4.5q17 0 13 -16zM204 614q-2 -14 -16 -14q-7 0 -10.5 4.5t-2.5 11.5q1 5 6 9.5
t10 4.5q17 0 13 -16z" />
    <glyph glyph-name="agrave.ss01" horiz-adv-x="532" 
d="M401 62q-8 -52 46 -52q21 0 39 7l-2 -10q-19 -7 -37 -7q-28 0 -44.5 15t-11.5 47l9 56q-38 -59 -105 -93.5t-130 -34.5q-73 0 -116 36.5t-36 103.5q8 74 73 108.5t152 34.5q92 0 181 -33l10 61q13 83 -28 131t-136 48q-79 0 -163 -28l1 10q82 28 162 28q99 0 143.5 -51
t30.5 -138zM23 128q-6 -61 34 -94.5t107 -33.5q66 0 133 36.5t106 101.5l14 92q-90 33 -178 33q-85 0 -147 -32t-69 -103zM300 560h-11l-67 130h11z" />
    <glyph glyph-name="amacron.ss01" horiz-adv-x="532" 
d="M401 62q-8 -52 46 -52q21 0 39 7l-2 -10q-19 -7 -37 -7q-28 0 -44.5 15t-11.5 47l9 56q-38 -59 -105 -93.5t-130 -34.5q-73 0 -116 36.5t-36 103.5q8 74 73 108.5t152 34.5q92 0 181 -33l10 61q13 83 -28 131t-136 48q-79 0 -163 -28l1 10q82 28 162 28q99 0 143.5 -51
t30.5 -138zM23 128q-6 -61 34 -94.5t107 -33.5q66 0 133 36.5t106 101.5l14 92q-90 33 -178 33q-85 0 -147 -32t-69 -103zM169 608h240l-1 -10h-240z" />
    <glyph glyph-name="aogonek.ss01" horiz-adv-x="532" 
d="M486 17l-2 -10q-67 -46 -107 -85t-46 -78q-4 -29 10.5 -46.5t41.5 -17.5q26 0 53 9l-1 -11q-27 -8 -51 -8q-32 0 -50.5 21t-12.5 55q11 71 140 156q-6 -2 -14 -2q-28 0 -44.5 15t-11.5 47l9 56q-38 -59 -105 -93.5t-130 -34.5q-73 0 -116 36.5t-36 103.5q8 74 73 108.5
t152 34.5q92 0 181 -33l10 61q13 83 -28 131t-136 48q-79 0 -163 -28l1 10q82 28 162 28q99 0 143.5 -51t30.5 -138l-38 -239q-8 -52 46 -52q21 0 39 7zM23 128q-6 -61 34 -94.5t107 -33.5q66 0 133 36.5t106 101.5l14 92q-90 33 -178 33q-85 0 -147 -32t-69 -103z" />
    <glyph glyph-name="aring.ss01" horiz-adv-x="532" 
d="M401 62q-8 -52 46 -52q21 0 39 7l-2 -10q-19 -7 -37 -7q-28 0 -44.5 15t-11.5 47l9 56q-38 -59 -105 -93.5t-130 -34.5q-73 0 -116 36.5t-36 103.5q8 74 73 108.5t152 34.5q92 0 181 -33l10 61q13 83 -28 131t-136 48q-79 0 -163 -28l1 10q82 28 162 28q99 0 143.5 -51
t30.5 -138zM23 128q-6 -61 34 -94.5t107 -33.5q66 0 133 36.5t106 101.5l14 92q-90 33 -178 33q-85 0 -147 -32t-69 -103zM366 615q-5 -32 -31 -53t-56 -21q-32 0 -52 21.5t-14 54.5q5 32 31 53t56 21q32 0 52 -21.5t14 -54.5zM222 615q-4 -28 13 -46t43 -18q28 0 51 18
t28 48q4 28 -13 46t-43 18q-28 0 -51 -18t-28 -48z" />
    <glyph glyph-name="atilde.ss01" horiz-adv-x="532" 
d="M401 62q-8 -52 46 -52q21 0 39 7l-2 -10q-19 -7 -37 -7q-28 0 -44.5 15t-11.5 47l9 56q-38 -59 -105 -93.5t-130 -34.5q-73 0 -116 36.5t-36 103.5q8 74 73 108.5t152 34.5q92 0 181 -33l10 61q13 83 -28 131t-136 48q-79 0 -163 -28l1 10q82 28 162 28q99 0 143.5 -51
t30.5 -138zM23 128q-6 -61 34 -94.5t107 -33.5q66 0 133 36.5t106 101.5l14 92q-90 33 -178 33q-85 0 -147 -32t-69 -103zM429 639q-1 -28 -17 -46t-43 -18t-83 30t-80 30q-22 0 -36 -15t-15 -40h-10q0 27 17 46t43 19t83 -30t81 -30q47 0 50 54h10z" />
    <glyph glyph-name="ae.ss01" horiz-adv-x="899" 
d="M425 124q-109 -134 -259 -134q-67 0 -115 40t-37 106q8 51 44 83t80.5 43t100.5 11q95 0 182 -34l10 62q13 81 -27.5 130t-127.5 49q-89 0 -173 -28l1 10q82 28 172 28q86 0 130.5 -48t36.5 -128q29 84 92.5 130t145.5 46q54 0 94 -24.5t57 -62.5t21.5 -85t-11.5 -92
h-413q-8 -59 6.5 -104t45.5 -71t69 -38.5t81 -12.5q90 0 152 37l-2 -12q-65 -35 -149 -35q-72 0 -128 33t-79 101zM24 134q-10 -59 35 -96.5t106 -37.5q148 0 257 136q-9 40 -3 94q-90 33 -179 33q-196 0 -216 -129zM681 480q-95 0 -162.5 -63.5t-87.5 -180.5h404
q26 94 -15 169t-139 75z" />
    <glyph glyph-name="y.ss01" horiz-adv-x="572" 
d="M438 -10q-9 -59 -34.5 -102.5t-62.5 -68.5t-78.5 -37t-87.5 -12q-100 0 -152 36l2 10q57 -36 149 -36q96 0 166.5 51t87.5 159l20 130q-37 -51 -97 -90.5t-134 -39.5q-79 0 -123.5 52.5t-30.5 142.5l47 295h10l-47 -295q-13 -86 28 -135.5t115 -49.5q72 0 135.5 42
t99.5 97l54 341h10z" />
    <glyph glyph-name="yacute.ss01" horiz-adv-x="572" 
d="M438 -10q-9 -59 -34.5 -102.5t-62.5 -68.5t-78.5 -37t-87.5 -12q-100 0 -152 36l2 10q57 -36 149 -36q96 0 166.5 51t87.5 159l20 130q-37 -51 -97 -90.5t-134 -39.5q-79 0 -123.5 52.5t-30.5 142.5l47 295h10l-47 -295q-13 -86 28 -135.5t115 -49.5q72 0 135.5 42
t99.5 97l54 341h10zM314 560h-12l107 130h12z" />
    <glyph glyph-name="ycircumflex.ss01" horiz-adv-x="572" 
d="M438 -10q-9 -59 -34.5 -102.5t-62.5 -68.5t-78.5 -37t-87.5 -12q-100 0 -152 36l2 10q57 -36 149 -36q96 0 166.5 51t87.5 159l20 130q-37 -51 -97 -90.5t-134 -39.5q-79 0 -123.5 52.5t-30.5 142.5l47 295h10l-47 -295q-13 -86 28 -135.5t115 -49.5q72 0 135.5 42
t99.5 97l54 341h10zM341 680h8l106 -120h-12l-98 111l-133 -111h-14z" />
    <glyph glyph-name="ydieresis.ss01" horiz-adv-x="572" 
d="M438 -10q-9 -59 -34.5 -102.5t-62.5 -68.5t-78.5 -37t-87.5 -12q-100 0 -152 36l2 10q57 -36 149 -36q96 0 166.5 51t87.5 159l20 130q-37 -51 -97 -90.5t-134 -39.5q-79 0 -123.5 52.5t-30.5 142.5l47 295h10l-47 -295q-13 -86 28 -135.5t115 -49.5q72 0 135.5 42
t99.5 97l54 341h10zM448 614q-2 -14 -16 -14q-7 0 -10.5 4.5t-2.5 11.5q1 5 6 9.5t10 4.5q17 0 13 -16zM248 614q-2 -14 -16 -14q-7 0 -10.5 4.5t-2.5 11.5q1 5 6 9.5t10 4.5q17 0 13 -16z" />
    <glyph glyph-name="ygrave.ss01" horiz-adv-x="572" 
d="M438 -10q-9 -59 -34.5 -102.5t-62.5 -68.5t-78.5 -37t-87.5 -12q-100 0 -152 36l2 10q57 -36 149 -36q96 0 166.5 51t87.5 159l20 130q-37 -51 -97 -90.5t-134 -39.5q-79 0 -123.5 52.5t-30.5 142.5l47 295h10l-47 -295q-13 -86 28 -135.5t115 -49.5q72 0 135.5 42
t99.5 97l54 341h10zM344 560h-11l-67 130h11z" />
    <glyph glyph-name="f_b" horiz-adv-x="951" 
d="M445 344q39 64 107 105t141 41q97 0 157 -71t42 -185t-94.5 -179t-181.5 -65q-76 0 -130.5 42t-72.5 110l-23 -142h-10l104 656q-64 44 -154 44q-69 0 -114.5 -37.5t-56.5 -103.5l-13 -79h206l-1 -10h-206l-75 -470h-10l75 470h-80l1 10h80l13 79q11 74 61.5 112.5
t118.5 38.5q89 0 157 -44l5 34l11 5zM615 0q102 0 175.5 62.5t91.5 173.5q17 109 -39.5 176.5t-149.5 67.5q-79 0 -148 -46.5t-105 -117.5l-24 -152q13 -71 66.5 -117.5t132.5 -46.5z" />
    <glyph glyph-name="f_f_b" horiz-adv-x="1261" 
d="M755 344q39 64 107 105t141 41q97 0 157 -71t42 -185t-94.5 -179t-181.5 -65q-76 0 -130.5 42t-72.5 110l-23 -142h-10l104 656q-64 44 -154 44q-67 0 -114 -38t-57 -103l-13 -79h206l-1 -10h-206l-75 -470h-10l75 470h-300l-75 -470h-10l75 470h-80l1 10h80l10 59
q11 74 64 112.5t125 38.5q84 0 152 -56q25 37 66 56.5t86 19.5q89 0 157 -44l5 34l11 5zM446 480l13 79q6 38 24 67q-69 54 -146 54q-74 0 -122 -37.5t-59 -103.5l-10 -59h300zM925 0q102 0 175.5 62.5t91.5 173.5q17 109 -39.5 176.5t-149.5 67.5q-79 0 -148 -46.5
t-105 -117.5l-24 -152q13 -71 66.5 -117.5t132.5 -46.5z" />
    <glyph glyph-name="f_f_h" horiz-adv-x="1221" 
d="M757 363q39 50 99 88.5t133 38.5q78 0 122.5 -52.5t30.5 -142.5l-47 -295h-10l47 295q14 86 -27 135.5t-116 49.5q-73 0 -135.5 -41.5t-99.5 -95.5l-54 -343h-10l104 656q-64 44 -154 44q-67 0 -114 -38t-57 -103l-13 -79h206l-1 -10h-206l-75 -470h-10l75 470h-300
l-75 -470h-10l75 470h-80l1 10h80l10 59q11 74 64 112.5t125 38.5q84 0 152 -56q25 37 66 56.5t86 19.5q89 0 157 -44l5 34l11 5zM446 480l13 79q6 38 24 67q-69 54 -146 54q-74 0 -122 -37.5t-59 -103.5l-10 -59h300z" />
    <glyph glyph-name="f_f_j" horiz-adv-x="826" 
d="M671 -123q-17 -107 -127 -107q-37 0 -67 11l2 10q30 -11 64 -11q102 0 118 97l93 593h-299l-75 -470h-10l75 470h-300l-75 -470h-10l75 470h-80l1 10h80l10 59q11 74 64 112.5t125 38.5q84 0 152 -56q51 76 152 76q85 0 152 -48l-2 -10q-65 48 -148 48q-68 0 -115 -38
t-57 -103l-13 -79h310zM156 539l-10 -59h300l13 79q6 38 24 68q-70 53 -146 53q-74 0 -122 -37.5t-59 -103.5z" />
    <glyph glyph-name="f_f_k" horiz-adv-x="1131" 
d="M1115 480h13l-241 -232l194 -248h-12l-192 245h-138l-39 -245h-10l104 656q-64 44 -154 44q-67 0 -114 -38t-57 -103l-13 -79h206l-1 -10h-206l-75 -470h-10l75 470h-300l-75 -470h-10l75 470h-80l1 10h80l10 59q11 74 64 112.5t125 38.5q84 0 152 -56q25 37 66 56.5
t86 19.5q89 0 157 -44l5 34l11 5l-71 -450h140zM446 480l13 79q6 38 24 67q-69 54 -146 54q-74 0 -122 -37.5t-59 -103.5l-10 -59h300z" />
    <glyph glyph-name="f_h" horiz-adv-x="911" 
d="M447 363q39 50 99 88.5t133 38.5q78 0 122.5 -52.5t30.5 -142.5l-47 -295h-10l47 295q14 86 -27 135.5t-116 49.5q-73 0 -135.5 -41.5t-99.5 -95.5l-54 -343h-10l104 656q-64 44 -154 44q-69 0 -114.5 -37.5t-56.5 -103.5l-13 -79h206l-1 -10h-206l-75 -470h-10l75 470
h-80l1 10h80l13 79q11 74 61.5 112.5t118.5 38.5q89 0 157 -44l5 34l11 5z" />
    <glyph glyph-name="f_i" horiz-adv-x="516" 
d="M70 0h-10l75 470h-80l1 10h80l13 79q11 73 62.5 112t117.5 39q85 0 152 -48l-2 -10q-65 48 -148 48q-68 0 -115 -38t-57 -103l-13 -79h310l-76 -480h-10l74 470h-299z" />
    <glyph glyph-name="f_j" horiz-adv-x="516" 
d="M361 -123q-17 -107 -127 -107q-37 0 -67 11l2 10q30 -11 64 -11q102 0 118 97l93 593h-299l-75 -470h-10l75 470h-80l1 10h80l13 79q11 73 62.5 112t117.5 39q85 0 152 -48l-2 -10q-65 48 -148 48q-68 0 -115 -38t-57 -103l-13 -79h310z" />
    <glyph glyph-name="f_k" horiz-adv-x="821" 
d="M805 480h13l-241 -232l194 -248h-12l-192 245h-138l-39 -245h-10l104 656q-64 44 -154 44q-69 0 -114.5 -37.5t-56.5 -103.5l-13 -79h206l-1 -10h-206l-75 -470h-10l75 470h-80l1 10h80l13 79q11 74 61.5 112.5t118.5 38.5q89 0 157 -44l5 34l11 5l-71 -450h140z" />
    <glyph glyph-name="f_l" horiz-adv-x="526" 
d="M486 666l5 34l11 5l-112 -705h-10l104 656q-64 44 -154 44q-69 0 -114.5 -37.5t-56.5 -103.5l-13 -79h206l-1 -10h-206l-75 -470h-10l75 470h-80l1 10h80l13 79q11 74 61.5 112.5t118.5 38.5q89 0 157 -44z" />
    <glyph glyph-name="uni0414.loclBGR" horiz-adv-x="795" 
d="M-35 -180h-10l30 190h71l401 690h14l183 -690h71l-30 -190h-10l28 180h-720zM463 691l-395 -681h575z" />
    <glyph glyph-name="uni041B.loclBGR" horiz-adv-x="670" 
d="M-26 0l421 700h10l199 -700h-11l-194 688l-413 -688h-12z" />
    <glyph glyph-name="uni0424.loclBGR" horiz-adv-x="878" 
d="M380 -110h-10l16 100q-167 1 -257 105.5t-65 260.5q24 155 144.5 254t291.5 100l16 100h10l-16 -100q168 -1 258 -105.5t65 -260.5q-24 -155 -144.5 -254t-292.5 -100zM74 354q-24 -152 62.5 -252.5t251.5 -101.5l111 700q-167 -1 -284 -98t-141 -248zM509 700l-111 -700
q167 1 284 98t141 248q24 152 -62.5 252.5t-251.5 101.5z" />
    <glyph glyph-name="uni0432.loclBGR" horiz-adv-x="572" 
d="M375 710q74 0 116 -45t31 -114q-9 -61 -49.5 -101.5t-119.5 -63.5q77 -3 122.5 -58.5t32.5 -138.5q-14 -89 -79 -144t-162 -55q-106 0 -162.5 71t-35.5 208l15 96q26 168 100 256.5t191 88.5zM91 346l217 38q95 20 144.5 60.5t59.5 108.5q10 65 -29.5 106t-109.5 41
q-103 0 -177 -78.5t-102 -256.5zM269 0q89 0 152 51.5t77 139.5q14 90 -42.5 144.5t-154.5 37.5l-211 -37l-11 -67q-21 -135 33 -202t157 -67z" />
    <glyph glyph-name="uni0433.loclBGR" horiz-adv-x="458" 
d="M371 43q-34 -23 -88 -38t-102 -15q-80 0 -127 31.5t-38 93.5q6 43 36 70.5t70.5 38t88 21t88.5 20t71 35.5t37 68q9 56 -32.5 84t-108.5 28q-91 0 -178 -46l2 12q88 44 178 44q70 0 114.5 -30.5t34.5 -91.5q-8 -52 -49 -81t-94.5 -39.5t-107 -20.5t-93.5 -36.5t-47 -75.5
q-8 -57 36 -86t121 -29q47 0 99.5 15t90.5 40z" />
    <glyph glyph-name="uni0434.loclBGR" horiz-adv-x="612" 
d="M480 0q-19 -119 -98 -174.5t-186 -55.5q-98 0 -170 46l2 10q72 -46 167 -46q103 0 180 53t95 167l22 136q-40 -64 -107 -105t-141 -41q-105 0 -161.5 70t-38.5 186q18 113 95.5 178.5t181.5 65.5q75 0 129.5 -42t73.5 -110l22 142h10zM54 244q-18 -110 35.5 -177
t153.5 -67q80 0 149 46.5t104 117.5l24 152q-12 71 -66 117.5t-133 46.5q-100 0 -175 -63t-92 -173z" />
    <glyph glyph-name="uni0436.loclBGR" horiz-adv-x="696" 
d="M-21 0h-13l264 249l-158 231h11l154 -225h101l71 445h10l-71 -445h101l225 225h12l-230 -231l184 -249h-11l-181 245h-101l-39 -245h-10l39 245h-98z" />
    <glyph glyph-name="uni0438.loclBGR" horiz-adv-x="571" 
d="M505 480h10l-76 -480h-10l19 118q-37 -49 -98.5 -88.5t-132.5 -39.5q-79 0 -123.5 52.5t-30.5 142.5l47 295h10l-47 -295q-13 -86 28 -135.5t115 -49.5q72 0 135.5 42t99.5 97z" />
    <glyph glyph-name="uni0439.loclBGR" horiz-adv-x="571" 
d="M448 606q-53 -41 -123 -41q-77 0 -117 41l2 13q41 -44 113 -44t127 44zM505 480h10l-76 -480h-10l19 118q-37 -49 -98.5 -88.5t-132.5 -39.5q-79 0 -123.5 52.5t-30.5 142.5l47 295h10l-47 -295q-13 -86 28 -135.5t115 -49.5q72 0 135.5 42t99.5 97z" />
    <glyph glyph-name="uni043A.loclBGR" horiz-adv-x="486" 
d="M465 480h13l-241 -232l194 -248h-12l-192 245h-138l-39 -245h-10l111 700h10l-71 -445h141z" />
    <glyph glyph-name="uni043B.loclBGR" horiz-adv-x="517" 
d="M295 480l153 -480h-11l-149 469l-298 -469h-12l305 480h12z" />
    <glyph glyph-name="uni043F.loclBGR" horiz-adv-x="571" 
d="M107 363q39 50 99 88.5t133 38.5q78 0 122.5 -52.5t30.5 -142.5l-47 -295h-10l47 295q14 86 -27 135.5t-116 49.5q-73 0 -135.5 -41.5t-99.5 -95.5l-54 -343h-10l76 480h10z" />
    <glyph glyph-name="uni0442.loclBGR" horiz-adv-x="894" 
d="M465 372q38 47 94 82.5t119 35.5q72 0 112 -49t28 -124l-50 -317h-10l50 315q11 71 -24 118t-106 47q-63 0 -118 -35.5t-94 -85.5q1 -17 -2 -42l-50 -317h-10l50 315q11 71 -24 118t-106 47q-65 0 -123 -39.5t-96 -91.5l-55 -349h-10l76 480h10l-18 -113q38 48 95 85.5
t121 37.5q58 0 96 -32t45 -86z" />
    <glyph glyph-name="uni0446.loclBGR" horiz-adv-x="593" 
d="M452 82q-12 -72 64 -72h12l-24 -150h-10l22 140h-2q-85 0 -72 82l6 36q-37 -49 -98.5 -88.5t-132.5 -39.5q-79 0 -123.5 52.5t-30.5 142.5l47 295h10l-47 -295q-13 -86 28 -135.5t115 -49.5q72 0 135.5 42t99.5 97l54 341h10z" />
    <glyph glyph-name="uni0448.loclBGR" horiz-adv-x="894" 
d="M773 130l55 350h10l-76 -480h-10l18 111q-37 -47 -94 -84t-121 -37q-58 0 -96 32t-46 85q-38 -47 -93.5 -82t-118.5 -35q-74 0 -113.5 48.5t-27.5 124.5l50 317h10l-50 -315q-11 -71 24.5 -118t105.5 -47q63 0 118.5 35.5t93.5 85.5q-1 17 2 42l50 317h10l-50 -315
q-11 -71 24.5 -118t105.5 -47q66 0 124 39t95 91z" />
    <glyph glyph-name="uni0449.loclBGR" horiz-adv-x="916" 
d="M775 82q-12 -72 64 -72h12l-24 -150h-10l22 140h-2q-85 0 -72 82l5 29q-37 -47 -94 -84t-121 -37q-58 0 -96 32t-46 85q-38 -47 -93.5 -82t-118.5 -35q-74 0 -113.5 48.5t-27.5 124.5l50 317h10l-50 -315q-11 -71 24.5 -118t105.5 -47q63 0 118.5 35.5t93.5 85.5
q-1 17 2 42l50 317h10l-50 -315q-11 -71 24.5 -118t105.5 -47q66 0 124 39t95 91l55 350h10z" />
    <glyph glyph-name="uni044E.loclBGR" horiz-adv-x="791" 
d="M733 234q-18 -113 -99.5 -178.5t-183.5 -65.5q-95 0 -158.5 67.5t-50.5 178.5h-154l-37 -235h-10l111 699h10l-72 -454h154q17 108 97.5 175.5t186.5 68.5q98 0 161 -70.5t45 -185.5zM253 244q-17 -109 42.5 -176.5t153.5 -67.5q99 0 178 63t96 173q17 109 -42.5 176.5
t-153.5 67.5q-99 0 -178 -63t-96 -173z" />
    <glyph glyph-name="uni0430.ss01" horiz-adv-x="539" 
d="M401 62q-8 -52 46 -52q21 0 39 7l-2 -10q-19 -7 -37 -7q-28 0 -44.5 15t-11.5 47l9 56q-38 -59 -105 -93.5t-130 -34.5q-73 0 -116 36.5t-36 103.5q8 74 73 108.5t152 34.5q92 0 181 -33l10 61q13 83 -28 131t-136 48q-79 0 -163 -28l1 10q82 28 162 28q99 0 143.5 -51
t30.5 -138zM23 128q-6 -61 34 -94.5t107 -33.5q66 0 133 36.5t106 101.5l14 92q-90 33 -178 33q-85 0 -147 -32t-69 -103z" />
    <glyph glyph-name="uni0437.ss01" horiz-adv-x="441" 
d="M357 -39q-15 -88 -82 -139.5t-169 -51.5q-114 0 -172 44l2 10q59 -44 172 -44q92 0 158.5 48t80.5 133q15 90 -44 150.5t-152 40.5l-57 -12l1 10l62 14q186 39 204 171q8 62 -30.5 103.5t-111.5 41.5q-88 0 -165 -45l1 12q79 43 166 43q75 0 117 -45t33 -110
q-17 -124 -167 -169q75 -5 120.5 -65.5t32.5 -139.5z" />
    <glyph glyph-name="uni0443.ss01" horiz-adv-x="572" 
d="M438 -10q-9 -59 -34.5 -102.5t-62.5 -68.5t-78.5 -37t-87.5 -12q-100 0 -152 36l2 10q57 -36 149 -36q96 0 166.5 51t87.5 159l20 130q-37 -51 -97 -90.5t-134 -39.5q-79 0 -123.5 52.5t-30.5 142.5l47 295h10l-47 -295q-13 -86 28 -135.5t115 -49.5q72 0 135.5 42
t99.5 97l54 341h10z" />
    <glyph glyph-name="zero.osf" horiz-adv-x="664" 
d="M603 254q-17 -108 -101 -186t-212 -78q-69 0 -120.5 24t-79 63.5t-37.5 88t-2 100.5q18 109 102 186.5t212 77.5q87 0 146.5 -41t81 -103t10.5 -132zM61 264q-10 -68 8.5 -126t75 -98t144.5 -40q125 0 206.5 75t97.5 181q11 66 -10 125.5t-78 99t-140 39.5
q-125 0 -206 -75t-98 -181z" />
    <glyph glyph-name="one.osf" horiz-adv-x="395" 
d="M262 520h5l-80 -510h146l-2 -10h-316l2 10h160l78 497l-169 -60l2 10z" />
    <glyph glyph-name="two.osf" horiz-adv-x="513" 
d="M415 0h-407l2 10q8 50 44.5 89t66.5 55.5t104 48.5q11 5 17 8q9 4 45 18.5t48.5 20.5t39.5 21.5t39 28.5t24.5 34t16.5 45q11 62 -30.5 101.5t-123.5 39.5q-104 0 -204 -55l1 10q94 55 203 55q83 0 129 -42.5t35 -109.5q-4 -26 -17.5 -48t-25.5 -35.5t-40 -29.5
t-41 -22.5t-49.5 -21.5t-45.5 -19q-113 -49 -148 -73q-67 -47 -78 -119h397z" />
    <glyph glyph-name="three.osf" horiz-adv-x="541" 
d="M469 351q-9 -57 -52 -101.5t-118 -57.5q75 -11 116.5 -56t29.5 -120q-14 -87 -85 -136.5t-171 -49.5q-115 0 -196 44l1 10q90 -44 194 -44q97 0 165 47.5t82 130.5q14 82 -42 125.5t-151 43.5h-66l2 10h66q95 0 150 46t65 110q11 69 -35 118t-134 49q-93 0 -190 -43l2 11
q92 42 187 42q94 0 143 -52.5t37 -126.5z" />
    <glyph glyph-name="four.osf" horiz-adv-x="595" 
d="M449 520h11l-78 -495h144l-1 -10h-144l-28 -175h-10l28 175h-389l1 8zM372 25l76 479l-451 -479h375z" />
    <glyph glyph-name="five.osf" horiz-adv-x="530" 
d="M135 520h350l-1 -10h-341l-70 -318q85 29 167 29q93 0 155 -50t47 -146q-14 -86 -85 -140.5t-174 -54.5q-112 0 -188 46l2 10q81 -46 185 -46q99 0 167.5 51.5t82.5 135.5q14 90 -44 137t-146 47q-89 0 -182 -33z" />
    <glyph glyph-name="six.osf" horiz-adv-x="572" 
d="M530 644q-56 36 -131 36q-52 0 -101.5 -20.5t-94 -62.5t-78.5 -114.5t-49 -167.5q-1 -6 -2.5 -17.5t-2.5 -17.5q51 57 121.5 91.5t134.5 34.5q87 0 141 -53.5t38 -153.5q-15 -95 -84.5 -152t-151.5 -57q-121 0 -174.5 88t-29.5 239q16 97 50.5 171t80.5 117t97 64t104 21
q78 0 134 -36zM496 201q15 94 -35.5 144.5t-132.5 50.5q-66 0 -137.5 -36t-120.5 -96q-8 -124 43 -194t156 -70q80 0 146.5 54.5t80.5 146.5z" />
    <glyph glyph-name="seven.osf" horiz-adv-x="456" 
d="M59 520h420v-6l-428 -674h-11l425 670h-407z" />
    <glyph glyph-name="eight.osf" horiz-adv-x="609" 
d="M123 531q10 64 77.5 111.5t166.5 47.5t152 -52.5t42 -118.5q-17 -113 -156 -195q68 -25 101 -63t23 -102q-10 -68 -83.5 -118.5t-186.5 -50.5q-116 0 -172.5 54t-43.5 137q10 62 56 114.5t118 86.5q-110 50 -94 149zM314 346q-20 7 -47.5 17l-38.5 14q-72 -31 -119 -83
t-57 -115q-12 -78 41.5 -128.5t164.5 -50.5q110 0 181 48t81 113q6 39 -5.5 68t-40.5 48.5t-56.5 31t-70.5 26.5q-22 7 -33 11zM552 521q10 61 -40 110t-144 49q-96 0 -160.5 -45t-74.5 -106q-4 -25 -0.5 -45.5t17 -37t24 -27.5t35 -22.5t35 -16t38.5 -14t31 -10.5
q10 -3 37 -12.5t44 -15.5q139 79 158 193z" />
    <glyph glyph-name="nine.osf" horiz-adv-x="557" 
d="M49 321q15 95 84.5 152t151.5 57q121 0 174 -88t29 -239q-15 -97 -50 -171t-81 -117t-97 -64t-104 -21q-75 0 -133 36l1 10q62 -36 132 -36q52 0 101.5 20.5t94 62.5t78.5 114.5t49 167.5q2 12 4 34q-47 -57 -117.5 -91t-138.5 -34q-87 0 -140.5 53.5t-37.5 153.5z
M59 319q-15 -94 35.5 -144.5t132.5 -50.5q70 0 141.5 36t116.5 96q8 124 -43 194t-157 70q-80 0 -146 -54.5t-80 -146.5z" />
    <glyph glyph-name="zero.sinf" horiz-adv-x="431" 
d="M360 100q-15 -95 -67.5 -150.5t-138.5 -55.5q-85 0 -121.5 59t-20.5 155q15 95 67.5 150.5t139.5 55.5q84 0 120 -59t21 -155zM22 107q-14 -92 19 -147.5t113 -55.5q82 0 131.5 52.5t64.5 144.5q14 92 -18.5 147.5t-112.5 55.5q-82 0 -132 -52.5t-65 -144.5z" />
    <glyph glyph-name="one.sinf" horiz-adv-x="239" 
d="M142 308h7l-63 -398h81l-2 -10h-198l2 10h107l61 386l-102 -36l2 10z" />
    <glyph glyph-name="two.sinf" horiz-adv-x="335" 
d="M45 279q62 35 126 35q55 0 87.5 -27t25.5 -72q-4 -25 -15.5 -45t-34.5 -37.5t-40.5 -28t-51.5 -28.5q-33 -18 -44.5 -24t-37.5 -23.5t-37 -31.5t-23 -37t-17 -50h259l-2 -10h-270l1 8q6 35 20.5 62.5t42.5 49.5t46.5 33.5t56.5 31.5q35 19 51 28t38.5 26t33 35.5
t14.5 42.5q7 39 -22.5 63t-80.5 24q-65 0 -128 -36z" />
    <glyph glyph-name="three.sinf" horiz-adv-x="353" 
d="M284 206q-6 -34 -31.5 -60.5t-68.5 -34.5q43 -6 67.5 -32.5t17.5 -72.5q-8 -53 -51 -82.5t-111 -29.5q-77 0 -129 26l2 10q54 -26 127 -26q64 0 104.5 27t47.5 77q8 49 -24 73.5t-88 24.5h-59l1 10h58q56 0 88.5 27t38.5 65q6 40 -22 68t-81 28q-65 0 -129 -26l2 11
q59 25 128 25q56 0 87.5 -31.5t24.5 -76.5z" />
    <glyph glyph-name="four.sinf" horiz-adv-x="386" 
d="M265 308h11l-47 -295h91l-1 -9h-91l-17 -104h-10l17 104h-244l1 8zM219 13l44 279l-274 -279h230z" />
    <glyph glyph-name="five.sinf" horiz-adv-x="348" 
d="M67 308h230l-2 -10h-220l-41 -183q56 16 106 16q61 0 100 -30t30 -89q-8 -52 -52 -85t-109 -33q-76 0 -127 27l2 10q52 -27 125 -27q61 0 102 30t49 80q8 54 -27.5 80.5t-94.5 26.5q-57 0 -117 -19z" />
    <glyph glyph-name="six.sinf" horiz-adv-x="368" 
d="M302 282q-36 22 -81 22q-168 0 -202 -215q-2 -12 -2 -16q77 72 162 72q55 0 89.5 -32.5t24.5 -92.5q-10 -59 -52.5 -92.5t-101.5 -33.5q-78 0 -111.5 52.5t-18.5 144.5q36 223 212 223q47 0 82 -22zM283 21q9 55 -21.5 84.5t-83.5 29.5q-89 0 -162 -75q-5 -73 26 -114.5
t96 -41.5q56 0 96 31t49 86z" />
    <glyph glyph-name="seven.sinf" horiz-adv-x="291" 
d="M40 -100h-12l238 398h-251l2 10h263l-2 -8z" />
    <glyph glyph-name="eight.sinf" horiz-adv-x="392" 
d="M43 218q7 40 47 68t110 28q67 0 100 -32.5t26 -74.5q-12 -75 -91 -113q40 -17 59 -39.5t13 -58.5q-7 -42 -50.5 -72t-121.5 -30t-113 34t-27 85q12 78 103 116q-64 29 -55 89zM169 105q-42 12 -60 20q-43 -17 -70.5 -46t-33.5 -67q-7 -47 25 -77.5t105 -30.5
q74 0 114.5 27t47.5 67q4 24 -4.5 41.5t-31.5 30t-40 19t-52 16.5zM316 208q6 37 -23.5 66.5t-92.5 29.5q-66 0 -103.5 -25.5t-43.5 -62.5q-9 -58 68 -87q11 -3 46 -14q10 -3 29.5 -9t27.5 -8q80 35 92 110z" />
    <glyph glyph-name="nine.sinf" horiz-adv-x="368" 
d="M16 188q9 58 53 92t102 34q76 0 109.5 -53t19.5 -144q-36 -223 -212 -223q-48 0 -81 22l1 10q35 -22 80 -22q168 0 202 215q2 10 2 15q-78 -71 -162 -71q-55 0 -89.5 32.5t-24.5 92.5zM26 187q-9 -55 22 -84.5t83 -29.5q89 0 162 75q5 73 -26 114.5t-96 41.5
q-56 0 -96.5 -31t-48.5 -86z" />
    <glyph glyph-name="zero.sups" horiz-adv-x="430" 
d="M435 576q-15 -95 -67.5 -150.5t-138.5 -55.5q-85 0 -121.5 59t-20.5 155q15 95 67.5 150.5t139.5 55.5q84 0 120 -59t21 -155zM97 583q-14 -92 19 -147.5t113 -55.5q82 0 131.5 52.5t64.5 144.5q14 92 -18.5 147.5t-112.5 55.5q-82 0 -132 -52.5t-65 -144.5z" />
    <glyph glyph-name="one.sups" horiz-adv-x="239" 
d="M216 780h7l-63 -398h81l-2 -10h-198l2 10h107l61 386l-102 -36l2 10z" />
    <glyph glyph-name="two.sups" horiz-adv-x="336" 
d="M120 755q62 35 126 35q55 0 87.5 -27t25.5 -72q-4 -25 -15.5 -45t-34.5 -37.5t-40.5 -28t-51.5 -28.5q-33 -18 -44.5 -24t-37.5 -23.5t-37 -31.5t-23 -37t-17 -50h259l-2 -10h-270l1 8q6 35 20.5 62.5t42.5 49.5t46.5 33.5t56.5 31.5q35 19 51 28t38.5 26t33 35.5
t14.5 42.5q7 39 -22.5 63t-80.5 24q-65 0 -128 -36z" />
    <glyph glyph-name="three.sups" horiz-adv-x="353" 
d="M359 682q-6 -34 -31.5 -60.5t-68.5 -34.5q43 -6 67.5 -32.5t17.5 -72.5q-8 -53 -51 -82.5t-111 -29.5q-77 0 -129 26l2 10q54 -26 127 -26q64 0 104.5 27t47.5 77q8 49 -24 73.5t-88 24.5h-59l1 10h58q56 0 88.5 27t38.5 65q6 40 -22 68t-81 28q-65 0 -129 -26l2 11
q59 25 128 25q56 0 87.5 -31.5t24.5 -76.5z" />
    <glyph glyph-name="four.sups" horiz-adv-x="386" 
d="M340 780h11l-47 -295h91l-1 -9h-91l-17 -104h-10l17 104h-244l1 8zM294 485l44 279l-274 -279h230z" />
    <glyph glyph-name="five.sups" horiz-adv-x="348" 
d="M142 780h230l-2 -10h-220l-41 -183q56 16 106 16q61 0 100 -30t30 -89q-8 -52 -52 -85t-109 -33q-76 0 -127 27l2 10q52 -27 125 -27q61 0 102 30t49 80q8 54 -27.5 80.5t-94.5 26.5q-57 0 -117 -19z" />
    <glyph glyph-name="six.sups" horiz-adv-x="367" 
d="M377 758q-36 22 -81 22q-168 0 -202 -215q-2 -12 -2 -16q77 72 162 72q55 0 89.5 -32.5t24.5 -92.5q-10 -59 -52.5 -92.5t-101.5 -33.5q-78 0 -111.5 52.5t-18.5 144.5q36 223 212 223q47 0 82 -22zM358 497q9 55 -21.5 84.5t-83.5 29.5q-89 0 -162 -75q-5 -73 26 -114.5
t96 -41.5q56 0 96 31t49 86z" />
    <glyph glyph-name="seven.sups" horiz-adv-x="291" 
d="M115 372h-12l238 398h-251l2 10h263l-2 -8z" />
    <glyph glyph-name="eight.sups" horiz-adv-x="392" 
d="M118 694q7 40 47 68t110 28q67 0 100 -32.5t26 -74.5q-12 -75 -91 -113q40 -17 59 -39.5t13 -58.5q-7 -42 -50.5 -72t-121.5 -30t-113 34t-27 85q12 78 103 116q-64 29 -55 89zM244 581q-42 12 -60 20q-43 -17 -70.5 -46t-33.5 -67q-7 -47 25 -77.5t105 -30.5
q74 0 114.5 27t47.5 67q4 24 -4.5 41.5t-31.5 30t-40 19t-52 16.5zM391 684q6 37 -23.5 66.5t-92.5 29.5q-66 0 -103.5 -25.5t-43.5 -62.5q-9 -58 68 -87q11 -3 46 -14q10 -3 29.5 -9t27.5 -8q80 35 92 110z" />
    <glyph glyph-name="nine.sups" horiz-adv-x="368" 
d="M91 664q9 58 53 92t102 34q76 0 109.5 -53t19.5 -144q-36 -223 -212 -223q-48 0 -81 22l1 10q35 -22 80 -22q168 0 202 215q2 10 2 15q-78 -71 -162 -71q-55 0 -89.5 32.5t-24.5 92.5zM101 663q-9 -55 22 -84.5t83 -29.5q89 0 162 75q5 73 -26 114.5t-96 41.5
q-56 0 -96.5 -31t-48.5 -86z" />
    <glyph glyph-name="zero.tf" 
d="M43 346q25 157 111 250.5t214 93.5q130 0 185 -98t30 -258q-25 -157 -111 -250.5t-214 -93.5q-130 0 -185 98t-30 258zM573 336q25 154 -28 249t-177 95q-125 0 -207.5 -91t-107.5 -245t28 -249t177 -95q125 0 207.5 91t107.5 245z" />
    <glyph glyph-name="one.tf" 
d="M397 680h5l-106 -670h226l-2 -10h-480l2 10h244l104 657l-230 -81l2 10z" />
    <glyph glyph-name="two.tf" 
d="M150 631q100 59 218 59q99 0 154.5 -44t43.5 -118q-5 -32 -22 -61t-35.5 -49t-54 -43.5t-56 -35.5t-64.5 -35q-10 -5 -15 -8q-9 -5 -36.5 -19t-37.5 -19.5t-34.5 -20t-35 -22.5t-31 -23.5t-30.5 -27.5t-25 -30.5t-23 -36t-16 -40t-13 -47.5h457l-2 -10h-467l2 10
q9 57 34.5 102t68.5 79.5t78 55.5t91 50q11 5 16 8q119 62 161 97q69 57 80 128q11 68 -40 109t-147 41q-115 0 -221 -60z" />
    <glyph glyph-name="three.tf" 
d="M552 511q-9 -57 -52 -101.5t-118 -57.5q75 -11 116.5 -56t29.5 -120q-14 -88 -86 -137t-185 -49q-140 0 -221 44l1 10q90 -44 219 -44q110 0 179 46.5t83 131.5q14 82 -42 125.5t-151 43.5h-106l2 10h106q95 0 150 46t65 110q11 69 -38.5 118t-145.5 49q-111 0 -215 -43
l2 11q100 42 212 42q101 0 154 -52.5t41 -126.5z" />
    <glyph glyph-name="four.tf" 
d="M491 680h11l-79 -495h146l-1 -10h-146l-28 -175h-10l28 175h-409l1 8zM413 185l77 481l-471 -481h394z" />
    <glyph glyph-name="five.tf" 
d="M180 680h390l-2 -10h-380l-70 -318q93 29 186 29q110 0 174 -49t49 -146q-14 -87 -87.5 -141.5t-183.5 -54.5q-134 0 -216 46l1 10q90 -46 214 -46q107 0 177.5 52t84.5 136q14 91 -46 137t-166 46q-101 0 -200 -33z" />
    <glyph glyph-name="six.tf" 
d="M556 644q-56 36 -131 36q-285 0 -343 -365q-1 -6 -2.5 -18t-2.5 -18q59 59 132 93t144 34q59 0 104.5 -21.5t70.5 -69.5t14 -116q-15 -96 -87.5 -152.5t-168.5 -56.5q-128 0 -183 87.5t-31 239.5q60 373 352 373q78 0 134 -36zM532 201q15 95 -37 145t-141 50
q-72 0 -146.5 -35.5t-131.5 -96.5q-8 -124 44.5 -194t164.5 -70q94 0 163 54t84 147z" />
    <glyph glyph-name="seven.tf" 
d="M132 680h485l-1 -6l-433 -674h-12l431 670h-472z" />
    <glyph glyph-name="eight.tf" 
d="M545 159q-10 -68 -84.5 -118.5t-190.5 -50.5q-134 0 -194.5 57.5t-46.5 143.5q21 131 175 192q-110 50 -95 148q11 66 77.5 112.5t181.5 46.5q109 0 164.5 -54t44.5 -122q-18 -117 -156 -190q69 -26 101.5 -63.5t22.5 -101.5zM39 189q-12 -81 44.5 -135t185.5 -54
q113 0 184 47.5t82 113.5q7 42 -7.5 73t-48.5 51t-69 32.5t-86 26.5q-6 1 -9 2q-70 20 -100 32q-73 -27 -119.5 -75.5t-56.5 -113.5zM315 355q75 -21 94 -27q139 69 158 188q10 62 -42.5 113t-155.5 51q-112 0 -176 -44t-74 -107q-6 -39 5.5 -68t49 -50t56 -28.5t70.5 -22.5
q3 -1 5 -2t5 -1.5t5 -1.5z" />
    <glyph glyph-name="nine.tf" 
d="M84 481q15 96 87.5 152.5t168.5 56.5q127 0 182.5 -87.5t31.5 -239.5q-60 -373 -352 -373q-78 0 -134 36l2 10q56 -36 131 -36q285 0 343 365q1 6 2.5 18t2.5 18q-59 -59 -132 -93t-144 -34q-94 0 -149.5 53t-39.5 154zM94 479q-15 -95 37 -145t141 -50q72 0 146.5 35.5
t131.5 96.5q8 124 -44.5 194t-164.5 70q-94 0 -163 -54t-84 -147z" />
    <glyph glyph-name="zero.tosf" 
d="M575 257q-17 -109 -102 -188t-215 -79q-127 0 -188.5 80.5t-44.5 190.5q18 109 104.5 189t212.5 80t188.5 -82t44.5 -191zM35 259q-10 -66 10 -124t75.5 -96.5t137.5 -38.5q127 0 209 77t98 184q17 103 -43 181t-180 78q-123 0 -206.5 -77.5t-100.5 -183.5z" />
    <glyph glyph-name="one.tosf" 
d="M370 520h5l-80 -510h226l-2 -10h-480l2 10h244l78 497l-229 -81l1 10z" />
    <glyph glyph-name="two.tosf" 
d="M494 0h-465l2 10q21 138 263 206q110 31 165.5 65.5t65.5 93.5q11 64 -39.5 104.5t-143.5 40.5q-119 0 -225 -60l2 11q100 59 223 59q98 0 151 -43t42 -114q-10 -63 -66.5 -98t-169.5 -68q-49 -14 -87.5 -29.5t-77 -39t-63 -56t-30.5 -72.5h455z" />
    <glyph glyph-name="three.tosf" 
d="M525 351q-9 -57 -52 -101.5t-118 -57.5q75 -11 116.5 -56t29.5 -120q-14 -88 -85 -137t-181 -49q-145 0 -226 44l1 10q90 -44 224 -44q107 0 175 47t82 131q14 82 -42 125.5t-151 43.5h-106l2 10h106q95 0 150 46t65 110q11 69 -37.5 118t-141.5 49q-116 0 -220 -43l2 11
q100 42 217 42q98 0 150 -52.5t40 -126.5z" />
    <glyph glyph-name="four.tosf" 
d="M469 520h11l-79 -495h141l-1 -10h-141l-28 -175h-10l28 175h-409l1 8zM391 25l77 480l-470 -480h393z" />
    <glyph glyph-name="five.tosf" 
d="M155 520h390l-2 -10h-380l-70 -318q93 29 181 29q113 0 178 -48.5t50 -146.5q-14 -87 -88.5 -141.5t-187.5 -54.5q-129 0 -211 46l1 10q90 -46 209 -46q110 0 181.5 51.5t85.5 136.5q14 92 -47 137.5t-170 45.5q-96 0 -195 -33z" />
    <glyph glyph-name="six.tosf" 
d="M556 644q-56 36 -131 36q-285 0 -343 -365q-1 -6 -2.5 -18t-2.5 -18q59 59 132 93t144 34q59 0 104.5 -21.5t70.5 -69.5t14 -116q-15 -96 -87.5 -152.5t-168.5 -56.5q-128 0 -183 87.5t-31 239.5q60 373 352 373q78 0 134 -36zM532 201q15 95 -37 145t-141 50
q-72 0 -146.5 -35.5t-131.5 -96.5q-8 -124 44.5 -194t164.5 -70q94 0 163 54t84 147z" />
    <glyph glyph-name="seven.tosf" 
d="M102 520h490v-6l-458 -674h-12l455 670h-476z" />
    <glyph glyph-name="eight.tosf" 
d="M545 159q-10 -68 -84.5 -118.5t-190.5 -50.5q-134 0 -194.5 57.5t-46.5 143.5q21 131 175 192q-110 50 -95 148q11 66 77.5 112.5t181.5 46.5q109 0 164.5 -54t44.5 -122q-18 -117 -156 -190q69 -26 101.5 -63.5t22.5 -101.5zM39 189q-12 -81 44.5 -135t185.5 -54
q113 0 184 47.5t82 113.5q7 42 -7.5 73t-48.5 51t-69 32.5t-86 26.5q-6 1 -9 2q-70 20 -100 32q-73 -27 -119.5 -75.5t-56.5 -113.5zM315 355q75 -21 94 -27q139 69 158 188q10 62 -42.5 113t-155.5 51q-112 0 -176 -44t-74 -107q-6 -39 5.5 -68t49 -50t56 -28.5t70.5 -22.5
q3 -1 5 -2t5 -1.5t5 -1.5z" />
    <glyph glyph-name="nine.tosf" 
d="M58 321q15 96 87.5 152.5t168.5 56.5q127 0 182.5 -87.5t31.5 -239.5q-60 -373 -352 -373q-78 0 -134 36l2 10q56 -36 131 -36q285 0 343 365q1 6 2.5 18t2.5 18q-59 -59 -132 -93t-144 -34q-94 0 -149.5 53t-39.5 154zM68 319q-15 -95 37 -145t141 -50q72 0 146.5 35.5
t131.5 96.5q8 124 -44.5 194t-164.5 70q-94 0 -163 -54t-84 -147z" />
    <glyph glyph-name="zero.dnom" horiz-adv-x="430" 
d="M375 200q-15 -95 -67.5 -150.5t-138.5 -55.5q-85 0 -121.5 59t-20.5 155q15 95 67.5 150.5t139.5 55.5q84 0 120 -59t21 -155zM37 207q-14 -92 19 -147.5t113 -55.5q82 0 131.5 52.5t64.5 144.5q14 92 -18.5 147.5t-112.5 55.5q-82 0 -132 -52.5t-65 -144.5z" />
    <glyph glyph-name="one.dnom" horiz-adv-x="239" 
d="M157 408h7l-63 -398h81l-2 -10h-198l2 10h107l61 386l-102 -36l2 10z" />
    <glyph glyph-name="two.dnom" horiz-adv-x="334" 
d="M60 379q62 35 126 35q55 0 87.5 -27t25.5 -72q-4 -25 -15.5 -45t-34.5 -37.5t-40.5 -28t-51.5 -28.5q-33 -18 -44.5 -24t-37.5 -23.5t-37 -31.5t-23 -37t-17 -50h259l-2 -10h-270l1 8q6 35 20.5 62.5t42.5 49.5t46.5 33.5t56.5 31.5q35 19 51 28t38.5 26t33 35.5
t14.5 42.5q7 39 -22.5 63t-80.5 24q-65 0 -128 -36z" />
    <glyph glyph-name="three.dnom" horiz-adv-x="353" 
d="M300 306q-6 -34 -31.5 -60.5t-68.5 -34.5q43 -6 67.5 -32.5t17.5 -72.5q-8 -53 -51 -82.5t-111 -29.5q-77 0 -129 26l2 10q54 -26 127 -26q64 0 104.5 27t47.5 77q8 49 -24 73.5t-88 24.5h-59l1 10h58q56 0 88.5 27t38.5 65q6 40 -22 68t-81 28q-65 0 -129 -26l2 11
q59 25 128 25q56 0 87.5 -31.5t24.5 -76.5z" />
    <glyph glyph-name="four.dnom" horiz-adv-x="386" 
d="M281 408h11l-47 -295h91l-1 -9h-91l-17 -104h-10l17 104h-244l1 8zM235 113l44 279l-274 -279h230z" />
    <glyph glyph-name="five.dnom" horiz-adv-x="348" 
d="M83 408h230l-2 -10h-220l-41 -183q56 16 106 16q61 0 100 -30t30 -89q-8 -52 -52 -85t-109 -33q-76 0 -127 27l2 10q52 -27 125 -27q61 0 102 30t49 80q8 54 -27.5 80.5t-94.5 26.5q-57 0 -117 -19z" />
    <glyph glyph-name="six.dnom" horiz-adv-x="368" 
d="M318 382q-36 22 -81 22q-168 0 -202 -215q-2 -12 -2 -16q77 72 162 72q55 0 89.5 -32.5t24.5 -92.5q-10 -59 -52.5 -92.5t-101.5 -33.5q-78 0 -111.5 52.5t-18.5 144.5q36 223 212 223q47 0 82 -22zM299 121q9 55 -21.5 84.5t-83.5 29.5q-89 0 -162 -75q-5 -73 26 -114.5
t96 -41.5q56 0 96 31t49 86z" />
    <glyph glyph-name="seven.dnom" horiz-adv-x="291" 
d="M56 0h-12l238 398h-251l2 10h263l-2 -8z" />
    <glyph glyph-name="eight.dnom" horiz-adv-x="392" 
d="M59 318q7 40 47 68t110 28q67 0 100 -32.5t26 -74.5q-12 -75 -91 -113q40 -17 59 -39.5t13 -58.5q-7 -42 -50.5 -72t-121.5 -30t-113 34t-27 85q12 78 103 116q-64 29 -55 89zM185 205q-42 12 -60 20q-43 -17 -70.5 -46t-33.5 -67q-7 -47 25 -77.5t105 -30.5
q74 0 114.5 27t47.5 67q4 24 -4.5 41.5t-31.5 30t-40.5 19t-51.5 16.5zM332 308q6 37 -23.5 66.5t-92.5 29.5q-66 0 -103.5 -25.5t-43.5 -62.5q-9 -58 68 -87q11 -3 46 -14q10 -3 29.5 -9t27.5 -8q80 35 92 110z" />
    <glyph glyph-name="nine.dnom" horiz-adv-x="367" 
d="M31 288q9 58 53 92t102 34q76 0 109.5 -53t19.5 -144q-36 -223 -212 -223q-48 0 -81 22l1 10q35 -22 80 -22q168 0 202 215q2 10 2 15q-78 -71 -162 -71q-55 0 -89.5 32.5t-24.5 92.5zM41 287q-9 -55 22 -84.5t83 -29.5q89 0 162 75q5 73 -26 114.5t-96 41.5
q-56 0 -96.5 -31t-48.5 -86z" />
    <glyph glyph-name="zero.numr" horiz-adv-x="430" 
d="M419 476q-15 -95 -67.5 -150.5t-138.5 -55.5q-85 0 -121.5 59t-20.5 155q15 95 67.5 150.5t139.5 55.5q84 0 120 -59t21 -155zM81 483q-14 -92 19 -147.5t113 -55.5q82 0 131.5 52.5t64.5 144.5q14 92 -18.5 147.5t-112.5 55.5q-82 0 -132 -52.5t-65 -144.5z" />
    <glyph glyph-name="one.numr" horiz-adv-x="238" 
d="M200 680h7l-63 -398h81l-2 -10h-198l2 10h107l61 386l-102 -36l2 10z" />
    <glyph glyph-name="two.numr" horiz-adv-x="336" 
d="M104 655q62 35 126 35q55 0 87.5 -27t25.5 -72q-4 -25 -15.5 -45t-34.5 -37.5t-40.5 -28t-51.5 -28.5q-33 -18 -44.5 -24t-37.5 -23.5t-37 -31.5t-23 -37t-17 -50h259l-2 -10h-270l1 8q6 35 20.5 62.5t42.5 49.5t46.5 33.5t56.5 31.5q35 19 51 28t38.5 26t33 35.5
t14.5 42.5q7 39 -22.5 63t-80.5 24q-65 0 -128 -36z" />
    <glyph glyph-name="three.numr" horiz-adv-x="353" 
d="M344 582q-6 -34 -31.5 -60.5t-68.5 -34.5q43 -6 67.5 -32.5t17.5 -72.5q-8 -53 -51 -82.5t-111 -29.5q-77 0 -129 26l2 10q54 -26 127 -26q64 0 104.5 27t47.5 77q8 49 -24 73.5t-88 24.5h-59l1 10h58q56 0 88.5 27t38.5 65q6 40 -22 68t-81 28q-65 0 -129 -26l2 11
q59 25 128 25q56 0 87.5 -31.5t24.5 -76.5z" />
    <glyph glyph-name="four.numr" horiz-adv-x="386" 
d="M324 680h11l-47 -295h91l-1 -9h-91l-17 -104h-10l17 104h-244l1 8zM278 385l44 279l-274 -279h230z" />
    <glyph glyph-name="five.numr" horiz-adv-x="348" 
d="M126 680h230l-2 -10h-220l-41 -183q56 16 106 16q61 0 100 -30t30 -89q-8 -52 -52 -85t-109 -33q-76 0 -127 27l2 10q52 -27 125 -27q61 0 102 30t49 80q8 54 -27.5 80.5t-94.5 26.5q-57 0 -117 -19z" />
    <glyph glyph-name="six.numr" horiz-adv-x="367" 
d="M361 658q-36 22 -81 22q-168 0 -202 -215q-2 -12 -2 -16q77 72 162 72q55 0 89.5 -32.5t24.5 -92.5q-10 -59 -52.5 -92.5t-101.5 -33.5q-78 0 -111.5 52.5t-18.5 144.5q36 223 212 223q47 0 82 -22zM342 397q9 55 -21.5 84.5t-83.5 29.5q-89 0 -162 -75q-5 -73 26 -114.5
t96 -41.5q56 0 96 31t49 86z" />
    <glyph glyph-name="seven.numr" horiz-adv-x="291" 
d="M99 272h-12l238 398h-251l2 10h263l-2 -8z" />
    <glyph glyph-name="eight.numr" horiz-adv-x="392" 
d="M102 594q7 40 47 68t110 28q67 0 100 -32.5t26 -74.5q-12 -75 -91 -113q40 -17 59 -39.5t13 -58.5q-7 -42 -50.5 -72t-121.5 -30t-113 34t-27 85q12 78 103 116q-64 29 -55 89zM228 481q-42 12 -60 20q-43 -17 -70.5 -46t-33.5 -67q-7 -47 25 -77.5t105 -30.5
q74 0 114.5 27t47.5 67q4 24 -4.5 41.5t-31.5 30t-40 19t-52 16.5zM375 584q6 37 -23.5 66.5t-92.5 29.5q-66 0 -103.5 -25.5t-43.5 -62.5q-9 -58 68 -87q11 -3 46 -14q10 -3 29.5 -9t27.5 -8q80 35 92 110z" />
    <glyph glyph-name="nine.numr" horiz-adv-x="368" 
d="M75 564q9 58 53 92t102 34q76 0 109.5 -53t19.5 -144q-36 -223 -212 -223q-48 0 -81 22l1 10q35 -22 80 -22q168 0 202 215q2 10 2 15q-78 -71 -162 -71q-55 0 -89.5 32.5t-24.5 92.5zM85 563q-9 -55 22 -84.5t83 -29.5q89 0 162 75q5 73 -26 114.5t-96 41.5
q-56 0 -96.5 -31t-48.5 -86z" />
    <glyph glyph-name="emdash.case" horiz-adv-x="758" 
d="M686 345h-600l1 10h600z" />
    <glyph glyph-name="endash.case" horiz-adv-x="578" 
d="M506 345h-420l1 10h420z" />
    <glyph glyph-name="hyphen.case" horiz-adv-x="498" 
d="M87 355h340l-1 -10h-340z" />
    <glyph glyph-name="guillemotleft.case" horiz-adv-x="413" 
d="M315 182h-11l-92 165l1 6l143 165h12l-146 -169zM175 182h-11l-92 165l1 6l143 165h12l-146 -169z" />
    <glyph glyph-name="guillemotright.case" horiz-adv-x="413" 
d="M215 182h-13l147 169l-93 167h11l92 -165l-1 -6zM75 182h-13l147 169l-93 167h11l92 -165l-1 -6z" />
    <glyph glyph-name="guilsinglleft.case" horiz-adv-x="273" 
d="M175 182h-11l-92 165l1 6l143 165h12l-146 -169z" />
    <glyph glyph-name="guilsinglright.case" horiz-adv-x="273" 
d="M75 182h-13l147 169l-93 167h11l92 -165l-1 -6z" />
    <glyph glyph-name="cent.tf" 
d="M523 441q-49 39 -132 39h-4l-76 -480q89 2 153 39l-1 -11q-67 -36 -154 -38l-17 -110h-10l17 110q-100 2 -161 67t-43 184q12 80 59.5 138t105 83t119.5 28l17 110h10l-17 -110h2q82 0 134 -39zM105 239q-18 -113 40 -175.5t156 -63.5l76 480q-96 -5 -174.5 -66
t-97.5 -175z" />
    <glyph glyph-name="currency.tf" 
d="M165 211l-76 -65l-6 7l76 65q-48 53 -35 133q12 78 77 132l-55 64l8 7l55 -65q60 46 134 46q73 0 122 -46l75 65l6 -7l-76 -65q48 -53 35 -133q-12 -79 -76 -132l54 -64l-8 -7l-54 65q-61 -46 -135 -46q-73 0 -121 46zM134 349q-12 -76 34 -125t118 -49q74 0 135.5 49
t73.5 127q12 76 -33.5 125t-118.5 49q-75 0 -135.5 -48.5t-73.5 -127.5z" />
    <glyph glyph-name="dollar.tf" 
d="M254 -130h-10l18 120q-132 5 -217 58l1 10q100 -58 225 -58q93 0 161.5 37.5t80.5 117.5q7 47 -12.5 81t-56 54t-82 36t-90.5 32t-81.5 36t-55.5 54.5t-11 81.5q13 77 88 118.5t161 41.5l18 120h10l-18 -120q99 -3 176 -47l-2 -10q-83 47 -186 47q-52 0 -100.5 -15
t-88.5 -50.5t-48 -86.5q-9 -52 18.5 -88t74.5 -54t101.5 -38t101.5 -39.5t74.5 -59.5t18.5 -96q-13 -82 -85 -123t-166 -40z" />
    <glyph glyph-name="Euro.tf" 
d="M632 658q-57 22 -129 22q-78 0 -152 -27t-138 -87.5t-95 -145.5h386l-2 -10h-387q-9 -28 -16 -66q-6 -42 -5 -74h386l-2 -10h-383q7 -122 92.5 -191t206.5 -69q75 0 138 23l-2 -11q-61 -22 -135 -22q-126 0 -215 71.5t-96 198.5h-86l2 10h84q-1 33 5 76q6 36 15 64h-82
l2 10h83q31 88 97 151t142 91t156 28q73 0 132 -22z" />
    <glyph glyph-name="sterling.tf" 
d="M514 0h-520l2 10h30q85 0 101 101l35 224h-80l2 10h80l19 121q18 116 88 169.5t160 53.5q78 0 132 -39l-2 -10q-55 39 -129 39q-41 0 -77.5 -11t-70.5 -34.5t-58 -66.5t-33 -101l-19 -121h265l-2 -10h-265l-35 -224q-13 -81 -65 -101h444z" />
    <glyph glyph-name="yen.tf" 
d="M621 680h11l-318 -382h190l-2 -10h-195l-17 -108h195l-2 -10h-195l-27 -170h-10l27 170h-195l2 10h195l17 108h-195l2 10h189l-197 382h11l196 -382z" />
    </font>
</defs>
</svg>
