<?xml version="1.0" encoding="utf-8"?>
<svg version="1.1" id="Слой_1" xmlns="http://www.w3.org/2000/svg" xmlns:xlink="http://www.w3.org/1999/xlink" x="0px" y="0px"
	 viewBox="0 0 99.9 12" style="enable-background:new 0 0 99.9 12;" xml:space="preserve" width="100px" height="12px">
<style type="text/css">
	.st0{fill:none;}
	.st1{fill:#0E0F0F;}
</style>
<path class="st0" d="M18.1,2.4c-0.8,0-1.5,0.3-1.9,0.9C15.7,4,15.4,4.9,15.4,6c0,1.1,0.2,2,0.7,2.7c0.5,0.6,1.1,1,1.9,1
	c0.8,0,1.5-0.3,1.9-1C20.5,8,20.7,7.1,20.7,6c0-1.1-0.2-2-0.7-2.6C19.5,2.8,18.9,2.4,18.1,2.4z"/>
<path class="st0" d="M48.6,2.4c-0.8,0-1.5,0.3-1.9,0.9C46.2,4,46,4.9,46,6c0,1.1,0.2,2,0.7,2.7c0.5,0.6,1.1,1,1.9,1
	c0.8,0,1.5-0.3,1.9-1C51,8,51.3,7.1,51.3,6c0-1.1-0.2-2-0.7-2.6C50.1,2.8,49.5,2.4,48.6,2.4z"/>
<path class="st1" d="M5.6,2.5c0.6,0,1.1,0.2,1.4,0.5c0.4,0.3,0.6,0.8,0.7,1.4h2.9C10.5,3,9.9,1.9,9,1.2C8.1,0.4,6.9,0,5.5,0
	c-1.6,0-2.9,0.5-4,1.6C0.5,2.7,0,4.2,0,6c0,1.8,0.5,3.3,1.5,4.4c1,1.1,2.3,1.7,4,1.7c1.5,0,2.7-0.4,3.6-1.2c0.9-0.8,1.4-1.9,1.5-3.3
	H7.7c-0.2,1.3-0.9,2-2.1,2c-0.8,0-1.5-0.3-1.9-0.9C3.2,8,3,7.1,3,6c0-1.1,0.2-2,0.7-2.6C4.1,2.8,4.8,2.5,5.6,2.5z"/>
<path class="st1" d="M18.1,0c-1.7,0-3,0.5-4,1.6c-1,1.1-1.6,2.6-1.6,4.4S13,9.3,14,10.4c1,1.1,2.4,1.7,4,1.7c1.7,0,3-0.6,4.1-1.7
	c1.1-1.1,1.6-2.6,1.6-4.4c0-1.8-0.5-3.3-1.6-4.4C21.1,0.5,19.7,0,18.1,0z M20,8.6c-0.5,0.6-1.1,1-1.9,1c-0.8,0-1.5-0.3-1.9-1
	C15.7,8,15.4,7.1,15.4,6c0-1.1,0.2-2,0.7-2.6c0.5-0.6,1.1-0.9,1.9-0.9c0.8,0,1.5,0.3,1.9,0.9C20.5,4,20.7,4.9,20.7,6
	C20.7,7.1,20.5,8,20,8.6z"/>
<path class="st1" d="M48.6,0c-1.7,0-3,0.5-4,1.6C43.5,2.7,43,4.2,43,6s0.5,3.3,1.6,4.4c1,1.1,2.4,1.7,4,1.7c1.7,0,3-0.6,4.1-1.7
	c1.1-1.1,1.6-2.6,1.6-4.4s-0.5-3.3-1.6-4.4C51.7,0.5,50.3,0,48.6,0z M50.6,8.6c-0.5,0.6-1.1,1-1.9,1c-0.8,0-1.5-0.3-1.9-1
	C46.2,8,46,7.1,46,6c0-1.1,0.2-2,0.7-2.6c0.5-0.6,1.1-0.9,1.9-0.9c0.8,0,1.5,0.3,1.9,0.9C51,4,51.3,4.9,51.3,6
	C51.3,7.1,51,8,50.6,8.6z"/>
<polygon class="st1" points="64,6.9 60,0.3 57.1,0.3 57.1,11.7 60,11.7 60,5.1 64,11.7 67,11.7 67,0.3 64,0.3 "/>
<path class="st1" d="M75.9,7.7H78c-0.1,0.6-0.4,1.1-0.8,1.4c-0.4,0.3-0.9,0.5-1.5,0.5c-0.9,0-1.6-0.3-2-0.9S72.9,7.2,72.9,6
	c0-1.1,0.2-2,0.7-2.6c0.5-0.6,1.1-0.9,1.9-0.9c0.5,0,1,0.1,1.3,0.4c0.4,0.3,0.6,0.6,0.8,1.1l2.9-0.2c-0.2-1.2-0.8-2.1-1.7-2.8
	c-0.9-0.7-2-1-3.4-1c-1.6,0-2.9,0.5-4,1.6c-1,1.1-1.5,2.5-1.5,4.4c0,1.8,0.5,3.3,1.5,4.3c1,1.1,2.3,1.7,3.8,1.7c0.8,0,1.4-0.1,2-0.4
	c0.6-0.3,1-0.6,1.3-1.1l0.3,1.2h2V5.4h-4.8V7.7z"/>
<rect x="83.9" y="0.3" class="st1" width="3" height="11.4"/>
<polygon class="st1" points="97,0.3 97,6.9 93,0.3 90,0.3 90,11.7 93,11.7 93,5.1 96.9,11.7 99.9,11.7 99.9,0.3 "/>
<polygon class="st1" points="40.2,0.3 33.9,0.3 33.9,2.9 34.9,2.9 34.9,11.7 37.9,11.7 37.9,2.9 40.2,2.9 40.2,2.9 41.2,2.9
	41.2,0.3 40.2,0.7 "/>
<polygon class="st1" points="24.5,0.3 24.5,2.9 27.8,2.9 27.8,11.7 30.8,11.7 30.8,2.9 30.8,2.9 30.8,0.3 "/>
</svg>
