<?xml version="1.0" encoding="utf-8"?>
<!-- Generator: Adobe Illustrator 21.1.0, SVG Export Plug-In . SVG Version: 6.00 Build 0)  -->
<svg version="1.1" id="Слой_1" xmlns="http://www.w3.org/2000/svg" xmlns:xlink="http://www.w3.org/1999/xlink" x="0px" y="0px"
	 viewBox="0 0 119.5 24.7" style="enable-background:new 0 0 119.5 24.7;" xml:space="preserve" width="120px" height="25px">
<style type="text/css">
	.st0{fill:none;}
</style>
<path class="st0" d="M88.3,6.5c-0.8-1.3-2.2-2.1-3.7-2.1l-3.9-0.1v8.6h3.9c1.5,0,2.9-0.8,3.7-2.1C89.1,9.4,89.1,7.8,88.3,6.5z"/>
<path class="st0" d="M63,6.3L63,6.3c-3.3-3.3-8.5-3.2-11.7,0c-3.2,3.4-3.2,8.8,0,12.2c3.2,3.2,8.4,3.2,11.6,0
	C66.1,15,66.1,9.7,63,6.3L63,6.3z"/>
<polygon class="st0" points="106.3,16.3 112.1,16.3 109.2,9.6 "/>
<path d="M57,0L57,0c-3.2,0-6.3,1.3-8.5,3.7c-4.6,4.9-4.6,12.5,0,17.4c2.2,2.3,5.2,3.5,8.4,3.6c3.2,0,6.2-1.2,8.4-3.4l0.2-0.2
	c4.7-4.9,4.7-12.6,0-17.5C63.3,1.2,60.2-0.1,57,0z M62.9,18.5c-3.2,3.2-8.4,3.2-11.6,0c-3.2-3.4-3.2-8.8,0-12.2
	c3.2-3.2,8.4-3.3,11.6-0.1L63,6.3h-0.1C66.1,9.7,66.1,15,62.9,18.5z"/>
<polygon points="0,24.1 3.7,24.1 3.7,14.2 9.9,14.2 9.9,10.6 3.7,10.6 3.7,4.3 13.9,4.3 13.9,0.6 0,0.6 "/>
<path d="M90.3,14.2c2.3-2.3,3-5.7,1.7-8.7c-1.2-3-4.1-4.9-7.4-4.9H77v23.5h3.7v-7.5h2.9l4.9,7.5l4.5,0L87.7,16
	C88.7,15.6,89.5,15,90.3,14.2z M84.6,12.9h-3.9V4.3l3.9,0.1c1.5,0,2.9,0.8,3.7,2.1c0.8,1.3,0.8,2.9,0,4.2
	C87.6,12.1,86.2,12.9,84.6,12.9z"/>
<polygon points="27.3,0.6 23.5,0.6 23.5,24.1 37.9,24.1 37.9,20.4 27.3,20.4 "/>
<path d="M109.2,0L99,24h4l1.9-4.3l8.7,0.1l1.9,4.2h4L109.2,0z M106.3,16.3l2.9-6.7l2.9,6.7L106.3,16.3z"/>
</svg>
