<?xml version="1.0" encoding="utf-8"?>
<!-- Generator: Adobe Illustrator 21.1.0, SVG Export Plug-In . SVG Version: 6.00 Build 0)  -->
<svg version="1.1" id="Слой_1" xmlns="http://www.w3.org/2000/svg" xmlns:xlink="http://www.w3.org/1999/xlink" x="0px" y="0px"
	 viewBox="0 0 400 500" style="enable-background:new 0 0 400 500;" xml:space="preserve">
<style type="text/css">
	.st0{fill:none;}
</style>
<g>
	<path class="st0" d="M99.7,244.9H110v-18.7h-7.7C102.3,234.4,101.6,240.1,99.7,244.9z"/>
	<path class="st0" d="M120.1,313.4c3.6,0,6-4.3,6-9.8s-2.4-9.8-6-9.8s-6,4.3-6,9.8S116.5,313.4,120.1,313.4z"/>
	<path class="st0" d="M39.2,245.4c2.9,0,5.5-1.9,5.5-8.9c0-6.7-2.6-8.9-5.5-8.9s-5.5,2.2-5.5,8.9C33.7,243.5,36.3,245.4,39.2,245.4z
		"/>
	<path class="st0" d="M66.6,230c0-2.6-2.2-4.1-5-4.1c-1,0-2.4,0.2-3.1,0.5v7.7h2.6C64.4,234.1,66.6,232.7,66.6,230z"/>
	<path class="st0" d="M218,80.8c-1.2,0-2.6,0.2-3.6,0.5v14.4c1,0.2,2.4,0.5,3.6,0.5c2.6,0,7.4-1.9,7.4-7.7
		C225.4,82.8,220.6,80.8,218,80.8z"/>
	<path class="st0" d="M67.5,240.6c0-3.1-2.2-4.6-6.5-4.6h-2.6v8.6c0.7,0.2,2.2,0.5,3.1,0.5C65.4,245.2,67.5,243.7,67.5,240.6z"/>
	<path class="st0" d="M129.9,226c-2.9,0-5,3.6-5,8.4H135C135,229.1,133.3,226,129.9,226z"/>
	<path class="st0" d="M152.7,226c-2.9,0-5,3.6-5,8.4h10.1C157.8,229.1,156.1,226,152.7,226z"/>
	<path class="st0" d="M56.2,33.7c0-5-3.4-7.4-8.6-7.4c-1.4,0-3.1,0.2-4.6,0.7v13.5c1.4,0.4,3.1,0.7,4.6,0.7
		C52.9,41.2,56.2,38.8,56.2,33.7z"/>
	<polygon class="st0" points="17.8,17.9 11.8,31.8 23.6,31.8 	"/>
	<path class="st0" d="M85.3,34.4c0-4.3-3.1-6.7-9.1-6.7h-4.6v12.8c1.4,0.4,3.1,0.7,4.6,0.7C81.9,41.2,85.3,38.8,85.3,34.4z"/>
	<path class="st0" d="M83.8,19.3c0-4.6-4.8-6.5-8.6-6.5c-1.2,0-2.6,0.2-3.6,0.5v12.5h4.6C80,25.8,83.8,23.6,83.8,19.3z"/>
	<polygon class="st0" points="82.4,440.8 82.4,423.8 69.9,440.8 	"/>
	<path class="st0" d="M137.8,13.1H126c0,13-1,21.4-3.8,27.8h15.6V13.1z"/>
	<path class="st0" d="M266.7,176.5c1.4,0.4,3.1,0.7,4.6,0.7c5.3,0,8.6-2.4,8.6-7.4s-3.4-7.4-8.6-7.4c-1.4,0-3.1,0.2-4.6,0.7V176.5z"
		/>
	<path class="st0" d="M261,293.5c-4.8,0.5-7,4.3-7,10.1c0,5.8,2.2,9.6,7,10.1V293.5z"/>
	<path class="st0" d="M272.2,303.6c0-5.8-2.2-9.6-7-10.1v20.2C270.1,313.2,272.2,309.3,272.2,303.6z"/>
	<path class="st0" d="M346.9,95.7c0-6.2-2.4-11.5-10.1-11.5v23C344.5,107.2,346.9,102,346.9,95.7z"/>
	<path class="st0" d="M322.4,95.7c0,6.2,2.4,11.5,10.1,11.5v-23C324.8,84.2,322.4,89.5,322.4,95.7z"/>
	<path class="st0" d="M189.2,376.1c0-3.6-2.2-5-5.3-5c-1,0-2.4,0.2-3.1,0.5v9.1c0.7,0.2,2.2,0.5,3.1,0.5
		C187,381.2,189.2,379.7,189.2,376.1z"/>
	<path class="st0" d="M222.1,376.1c0-3.6-2.2-5-5.8-5c-1,0-2.4,0.2-3.1,0.5v9.1c0.7,0.2,2.2,0.5,3.1,0.5
		C219.9,381.2,222.1,379.7,222.1,376.1z"/>
	<path class="st0" d="M157.8,109.9c6.2,0,10.1-5.8,10.1-14.9s-3.8-14.9-10.1-14.9s-10.1,5.8-10.1,14.9S151.5,109.9,157.8,109.9z"/>
	<path class="st0" d="M198.8,176.5c1.4,0.4,3.1,0.7,4.6,0.7c5.3,0,8.6-2.4,8.6-7.4s-3.4-7.4-8.6-7.4c-1.4,0-3.1,0.2-4.6,0.7V176.5z"
		/>
	<path class="st0" d="M10.6,240.6c0,3.1,2.2,4.6,4.6,4.6s3.6-1.4,4.6-2.9v-6.5h-1.4C13.5,235.8,10.6,237.7,10.6,240.6z"/>
	<path class="st0" d="M175.8,303.6c0-5.5-1.7-9.8-5.5-9.8c-2.6,0-4.1,1.4-5,2.9V312c1.4,0.7,3.1,1.4,4.6,1.4
		C174.1,313.4,175.8,309.1,175.8,303.6z"/>
	<path class="st0" d="M231.9,162.3c-1.4,0-3.1,0.2-4.6,0.7v13.5c1.4,0.4,3.1,0.7,4.6,0.7c4.6,0,7.9-2.4,7.9-7.4
		C239.8,164.7,236.5,162.3,231.9,162.3z"/>
	<path class="st0" d="M172.6,435.7c-2.8,1.4-5.3,3.4-5.3,7.9c0,4.3,3.1,6.2,6.5,6.2s6.5-1.9,6.5-5.8
		C180.3,440,176.8,437.8,172.6,435.7z"/>
	<path class="st0" d="M161.4,371.1c-1,0-2.4,0.2-3.1,0.5v9.1c0.7,0.2,2.2,0.5,3.1,0.5c3.6,0,5.8-1.4,5.8-5S165,371.1,161.4,371.1z"
		/>
	<path class="st0" d="M198.6,420.1c-4.6,0-6.2,4.3-6.2,8.9c0,5.5,1.4,8.9,6,8.9c2.9,0,4.6-1,6.2-2.4
		C204.6,424.4,202.9,420.1,198.6,420.1z"/>
	<path class="st0" d="M365.1,156.5c0,5.8,4.8,7.7,7.4,7.7c1.2,0,2.6-0.2,3.6-0.5v-14.4c-1-0.2-2.4-0.5-3.6-0.5
		C369.9,148.8,365.1,150.8,365.1,156.5z"/>
	<path class="st0" d="M128,432.1c-2.9,0-4.6,1-6.2,2.4c0,11,1.7,15.4,6,15.4c4.6,0,6.2-4.3,6.2-8.9C134,435.5,132.6,432.1,128,432.1
		z"/>
	<path class="st0" d="M179.1,425.9c0-4.6-2.9-5.8-5.3-5.8s-5.3,1.2-5.3,5.3c0,3.1,3.4,5.5,7,7.2
		C177.4,431.2,179.1,429.5,179.1,425.9z"/>
	<path class="st0" d="M270.3,361.7c-3.1,0-5.3,3.4-5.3,9.8s2.2,9.8,5.3,9.8s5.3-3.4,5.3-9.8S273.4,361.7,270.3,361.7z"/>
	<path class="st0" d="M288.1,366.8c0,3.4,2.2,4.8,5.5,4.8c1,0,2.4-0.2,3.1-0.5v-8.6c-0.7-0.2-2.2-0.5-3.1-0.5
		C290.2,362,288.1,363.4,288.1,366.8z"/>
	<path class="st0" d="M224.2,420.1c-5.3,0-6.7,4.8-6.7,14.9s1.4,14.9,6.7,14.9s6.7-4.8,6.7-14.9C231,424.9,229.5,420.1,224.2,420.1z
		"/>
	<path class="st0" d="M342.6,148.1c-4.8,0-8.6,5.3-8.6,14.9c0,9.6,3.8,14.9,8.6,14.9s8.6-5.3,8.6-14.9
		C351.2,153.4,347.4,148.1,342.6,148.1z"/>
	<path d="M11.1,33.7h13.4l1.2,3.1c2.1,5.5,6,6.2,8.2,6.2c0.7,0,1.4-0.1,1.9-0.2v-1c-2.6-0.2-3.8-1.4-5.3-5L20,11.2h-1.4L5.1,42.8
		h2.2L11.1,33.7z M17.8,17.9l5.8,13.9H11.8L17.8,17.9z"/>
	<path d="M38.7,16.9v25.9h9.6c5.5,0,12.7-1.4,12.7-9.1s-7.2-9.1-12.7-9.1H43V13.1h8.7c3.8,0,6,1.7,6,5.5h1V15c0-1.9-0.7-3.8-4.1-3.8
		H34.4v1h1C38.2,12.1,38.7,14,38.7,16.9z M43,27c1.4-0.4,3.1-0.7,4.6-0.7c5.3,0,8.6,2.4,8.6,7.4s-3.4,7.4-8.6,7.4
		c-1.4,0-3.1-0.2-4.6-0.7C43,40.4,43,27,43,27z"/>
	<path d="M67.3,16.9v25.9h9.6c6,0,13.2-1.4,13.2-8.6c0-3.8-1.7-6.7-7.9-7.7c4.3-1.4,6.2-4.1,6.2-7c0-7.4-7.9-8.4-13-8.4H63v1h1
		C66.8,12.1,67.3,14,67.3,16.9z M71.6,13.3c1-0.2,2.4-0.5,3.6-0.5c3.8,0,8.6,1.9,8.6,6.5c0,4.3-3.8,6.5-7.7,6.5h-4.6L71.6,13.3
		L71.6,13.3z M71.6,27.7h4.6c6,0,9.1,2.4,9.1,6.7s-3.4,6.7-9.1,6.7c-1.4,0-3.1-0.2-4.6-0.7V27.7z"/>
	<path d="M96.3,16.9v25.9h4.3V13.1h8.4c3.8,0,6,1.7,6,5.5h1V15c0-1.9-0.7-3.8-4.1-3.8H92v1h1C95.8,12.1,96.3,14,96.3,16.9z"/>
	<path d="M114.6,42.6v8.9h2.2c0.7-6.5,2.6-8.6,6-8.6h15.6c3.4,0,5.3,2.2,6,8.6h2.2v-8.9c0-1-0.7-1.7-1.7-1.7h-2.7V11.2h-24v1h0.7
		c2.9,0,3.4,1.9,3.4,4.8c0,9.1-1,17.3-4.1,24h-2C115.3,40.9,114.6,41.6,114.6,42.6z M126.1,13.1h11.8v27.8h-15.7
		C125.1,34.4,126.1,26,126.1,13.1z"/>
	<path d="M151.8,16.9v25.9h16.6c1.9,0,3.1-1,3.6-2.4l1.7-4.6l-1-0.2c-1.4,3.8-3.8,5.3-8.2,5.3h-8.4V27.5h13v-1.9h-13V13.1h8.9
		c3.8,0,6,1.7,6,5.5h1V15c0-1.9-0.7-3.8-4.1-3.8h-20.4v1h1C151.3,12.1,151.8,14,151.8,16.9z"/>
	<path d="M193,7.8c1.4,0,2.4-1,2.4-2.4S194.4,3,193,3s-2.4,1-2.4,2.4C190.6,6.8,191.6,7.8,193,7.8z"/>
	<path d="M184.4,7.8c1.4,0,2.4-1,2.4-2.4s-1-2.4-2.4-2.4S182,4,182,5.4S183,7.8,184.4,7.8z"/>
	<path d="M179.8,16.9v25.9h16.6c1.9,0,3.1-1,3.6-2.4l1.7-4.6l-1-0.2c-1.4,3.8-3.8,5.3-8.2,5.3h-8.3V27.5h13v-1.9h-13V13.1h8.9
		c3.8,0,6,1.7,6,5.5h1V15c0-1.9-0.7-3.8-4.1-3.8h-20.4v1h1C179.4,12.1,179.8,14,179.8,16.9z"/>
	<path d="M211,15.7l7.4,9.4l-9.1,11.5c-2.3,2.8-5.5,5-7.7,5.3v0.9c0.7,0.2,1.6,0.5,3.1,0.5c2.2,0,6-0.8,9.8-5.8l8.2-10.6v15.8h4.2
		V27l8.2,10.6c3.8,4.9,7.7,5.8,9.8,5.8c1.5,0,2.4-0.2,3.1-0.5V42c-2.2-0.3-5.4-2.5-7.7-5.3l-9.1-11.5l7.4-9.4
		c2.2-2.7,4.3-3.4,6.5-3.4v-1.2h-2.4c-3.4,0-5.6,2.4-7.7,5l-8.2,10.1V11.2h-4.2v15.1l-8.2-10.1c-2.1-2.6-4.3-5-7.7-5h-2.4v1.2
		C206.7,12.4,208.9,13,211,15.7z"/>
	<path d="M259.1,43.8c5.3,0,12.5-1.7,12.5-9.1c0-4.1-1.9-7-7.9-8.2c4.6-1.4,6.7-4.3,6.7-7.4c0-7.7-6.7-8.9-11.5-8.9
		c-3.4,0-7.4,1.2-9.1,3.4c-1.2,1.4-1.2,3.4-1.2,6.2h1c1.2-4.8,4.6-7.7,9.1-7.7c3.6,0,7.2,2.2,7.2,6.7c0,4.6-3.8,7-8.2,7h-4.6v1.9
		h4.6c6,0,9.1,2.6,9.1,7.2c0,4.3-3.4,7-8.4,7c-4.6,0-7.7-1.9-9.8-4.8l-1,0.7C250.5,42.4,254.3,43.8,259.1,43.8z"/>
	<path d="M277.9,16.9v25.9h4.3l15.4-27.4v27.4h4.3V11.2h-4.3l-15.4,27.3V16.9c0-4.8-1-5.8-4.3-5.8h-4.3v1h1
		C277.4,12.1,277.9,14,277.9,16.9z"/>
	<path d="M310,16.9v25.9h4.3l15.4-27.4v27.4h4.3V11.2h-4.3l-15.4,27.4V16.9c0-4.8-1-5.8-4.3-5.8h-4.3v1h1
		C309.5,12.1,310,14,310,16.9z"/>
	<path d="M322,9.2c3.1,0,5-1.7,6.2-4.3l-1-0.7c-1,1.2-2.6,2.2-5.3,2.2c-2.6,0-4.3-1-5.3-2.2l-1,0.7C317,7.6,318.9,9.2,322,9.2z"/>
	<path d="M9,84.9v25.9h4.3V95l10.1,10.6c4.6,4.8,7.7,5.8,10.3,5.8c1.5,0,2.4-0.2,3.1-0.5V110c-2.4-0.3-5.6-2.6-8.2-5.3l-11-11.5
		l9.4-9.4c2.6-2.6,4.3-3.4,7-3.4v-1.2h-2.4c-3.8,0-5.8,2.6-8.2,5L13.3,94.3v-9.4c0-4.8-1-5.8-4.3-5.8H4.6v1h1C8.5,80.1,9,82,9,84.9z
		"/>
	<path d="M37.3,109.6v1.2c0.7,0.2,1.9,0.5,2.9,0.5c5.3,0,8.2-4.8,8.2-24.5V81h11.5v29.8h4.3V79.2H40.4v1h0.5c2.9,0,3.4,1.9,3.4,4.8
		C44.2,104.6,41.8,109.4,37.3,109.6z"/>
	<path d="M99.7,79.2l-11.3,25l-11.5-25h-4.6v31.7h1.9V83.7l12.5,27.1h1l12-26.6v18.5c0,7.2,1.9,10.3,8.9,10.3v-1
		c-3.1,0-4.6-3.6-4.6-9.4V79.2H99.7z"/>
	<path d="M113.6,79.2h-4.3v1h1c2.9,0,3.4,1.9,3.4,4.8v25.9h4.3V95.5h14.4v9.6c0,4.8,1,5.8,4.3,5.8h4.3v-1h-1c-2.9,0-3.4-1.9-3.4-4.8
		V79.2h-4.3v14.4h-14.4V85C117.9,80.1,117,79.2,113.6,79.2z"/>
	<path d="M157.8,111.8c9.1,0,14.9-7.4,14.9-16.8s-5.8-16.8-14.9-16.8s-14.9,7.4-14.9,16.8C142.9,104.4,148.6,111.8,157.8,111.8z
		 M157.8,80.1c6.2,0,10.1,5.8,10.1,14.9s-3.8,14.9-10.1,14.9s-10.1-5.8-10.1-14.9S151.5,80.1,157.8,80.1z"/>
	<path d="M178.9,84.9v25.9h4.3V81.1h14.4v29.8h4.3V79.2h-27.4v1h1C178.4,80.1,178.9,82,178.9,84.9z"/>
	<path d="M218.2,79.2h-12.5v1h1c2.9,0,3.4,1.9,3.4,4.8v25.9h4.3v-13h5.3c2.6,0,10.6-1,10.6-9.1C230.2,80.1,222.3,79.2,218.2,79.2z
		 M218,96.2c-1.2,0-2.6-0.2-3.6-0.5V81.3c1-0.2,2.4-0.5,3.6-0.5c2.6,0,7.4,1.9,7.4,7.7C225.4,94.3,220.6,96.2,218,96.2z"/>
	<path d="M249.4,109.9c-8.2,0-11.5-7.2-11.5-14.4c0-11.5,5.3-15.4,11.5-15.4c5.3,0,8.6,2.9,9.8,9.1h1c0-2.9,0-5.8-1.2-7.2
		c-1.7-2.1-5.8-3.8-11-3.8c-8.2,0-14.9,7.7-14.9,17.3c0,9.1,5.8,16.3,14.9,16.3c5.8,0,10.1-1.9,13.2-7.9l-1-0.7
		C257.6,107.5,254.2,109.9,249.4,109.9z"/>
	<path d="M304.6,98.8l-6.4-14.4c-1.2-2.6-2.6-5.3-5.8-5.3h-3.8h-1.9h-20.5c-3.4,0-4.1,1.9-4.1,3.8v3.6h1c0-3.8,2.2-5.5,6-5.5h4.3
		v29.8h4.3V81.1h10.8v-0.7c2.7,0.8,3.6,2.8,4.6,5l8.9,19.7l-0.5,1.2c-1.2,2.9-4.3,3.6-7.2,3.6v1.4h2.4c3.8,0,6.3-1.9,7.6-5
		l11.9-27.1h-2.9L304.6,98.8z"/>
	<path d="M328.2,77.7v1h1c2.4,0,3.4,1,3.4,3.4v0.2c-10.1,0-14.9,5.3-14.9,13.4c0,8.2,4.8,13.4,14.9,13.4v3.1h4.3v-3.1
		c10.1,0,14.9-5.3,14.9-13.4c0-8.2-4.8-13.4-14.9-13.4V82c0-3.4-1-4.3-4.3-4.3H328.2z M332.5,107.2c-7.7,0-10.1-5.3-10.1-11.5
		s2.4-11.5,10.1-11.5V107.2z M336.8,84.2c7.7,0,10.1,5.3,10.1,11.5s-2.4,11.5-10.1,11.5V84.2z"/>
	<path d="M10.9,153.4l6.7,9.8l-12,15.6H8l10.8-13.9l5.8,8.6c1.6,2.4,3.6,5.3,6.7,5.3h5v-1c-3.1-0.2-5.3-2.9-7-5.3l-7.7-11.3
		L32.4,147H30l-9.6,12.5l-4.8-7.2C14,149.9,12,147,8.9,147H3.2v1C7.5,148.4,9.2,151,10.9,153.4z"/>
	<path d="M35.4,148.1h1c2.9,0,3.4,1.9,3.4,4.8v25.9H59c3.4,0,5.3,2.2,6,8.6h2.2v-8.9c0-1-0.7-1.7-1.7-1.7h-2.6V147h-4.3v29.8H44v-24
		c0-4.8-1-5.8-4.3-5.8h-4.3V148.1z"/>
	<path d="M67,147.2v1h0.5c2.9,0,3.4,1.9,3.4,4.8v3.8c0,8.6,5.3,10.1,11.8,10.1c1.9,0,4.8-0.2,6.5-1v13h4.3v-31.7h-4.3V164
		c-1.7,0.7-4.3,1-6.2,1c-4.8,0-7.2-1.4-7.2-7.7V153c0-4.8-1-5.8-4.3-5.8H67z"/>
	<path d="M105.9,152.9c0-4.8-1-5.8-4.3-5.8h-4.3v1h1c2.9,0,3.4,1.9,3.4,4.8v25.9h35.5v-31.7h-4.3v29.8h-11.3v-29.8h-4.4v29.8h-11.3
		V152.9z"/>
	<path d="M141,148.1h1c2.9,0,3.4,1.9,3.4,4.8v25.9h31.7c3.4,0,5.3,2.2,6,8.6h2.2v-8.9c0-1-0.7-1.7-1.7-1.7H181V147h-4.3v29.8h-11.5
		V147h-4.3v29.8h-11.3v-24c0-4.8-1-5.8-4.3-5.8H141L141,148.1L141,148.1z"/>
	<path d="M187.3,147.2c-1,0-1.7,0.7-1.7,1.7v7.4h1.4c0.2-5.5,1.9-7.2,6-7.2h1.4v29.8h9.6c5.5,0,12.7-1.4,12.7-9.1
		c0-7.7-7.2-9.1-12.7-9.1h-5.3v-13.4L187.3,147.2L187.3,147.2z M203.4,162.3c5.3,0,8.6,2.4,8.6,7.4s-3.4,7.4-8.6,7.4
		c-1.4,0-3.1-0.2-4.6-0.7V163C200.2,162.5,201.9,162.3,203.4,162.3z"/>
	<path d="M248.5,147.2v25.9c0,4.8,1,5.8,4.3,5.8h4.3v-1h-1c-2.9,0-3.4-1.9-3.4-4.8v-25.9H248.5z"/>
	<path d="M244.6,169.7c0-7.7-7.2-9.1-12-9.1h-5.3v-7.7c0-4.8-1-5.8-4.3-5.8h-4.3v1h1c2.9,0,3.4,1.9,3.4,4.8v25.9h9.6
		C237.4,178.8,244.6,177.4,244.6,169.7z M231.9,177.2c-1.4,0-3.1-0.2-4.6-0.7V163c1.4-0.4,3.1-0.7,4.6-0.7c4.6,0,7.9,2.4,7.9,7.4
		C239.8,174.8,236.5,177.2,231.9,177.2z"/>
	<path d="M262.4,147.2h-4.3v1h1c2.9,0,3.4,1.9,3.4,4.8v25.9h9.6c5.5,0,12.7-1.4,12.7-9.1c0-7.7-7.2-9.1-12.7-9.1h-5.3V153
		C266.7,148.1,265.8,147.2,262.4,147.2z M271.3,162.3c5.3,0,8.6,2.4,8.6,7.4s-3.4,7.4-8.6,7.4c-1.4,0-3.1-0.2-4.6-0.7V163
		C268.2,162.5,269.8,162.3,271.3,162.3z"/>
	<path d="M300.3,146.2c-5.3,0-9.3,1.7-11,3.8c-1.2,1.4-1.2,4.3-1.2,7.2h1c1.2-6.2,4.6-9.1,9.8-9.1c6,0,11,3.6,11.5,13.9h-15.9v1.9
		h15.9c-0.2,7-3.6,13.9-11.5,13.9c-4.8,0-8.2-2.4-10.8-6.7l-1,0.7c3.1,6,7.4,7.9,13.2,7.9c9.1,0,14.9-7.2,14.9-16.3
		C315.2,153.9,308.5,146.2,300.3,146.2z"/>
	<path d="M342.6,146.2c-7.3,0-12.7,6-13.4,15.4h-3.4V153c0-4.8-1-5.8-4.3-5.8h-4.3v1h1c2.9,0,3.4,1.9,3.4,4.8v25.9h4.3v-15.4h3.4
		c0.2,9.8,5.9,16.3,13.4,16.3c7.7,0,13.4-6.7,13.4-16.8C356,152.9,350.2,146.2,342.6,146.2z M342.6,177.9c-4.8,0-8.6-5.3-8.6-14.9
		c0-9.6,3.8-14.9,8.6-14.9s8.6,5.3,8.6,14.9C351.2,172.6,347.4,177.9,342.6,177.9z"/>
	<path d="M372.3,147.2c-4.1,0-12,1-12,9.6c0,5.7,3.8,7.9,7,8.6l-5,8.6c-1.2,2.2-2.9,3.6-5.3,3.8v0.9c0.7,0.2,1.9,0.5,2.9,0.5
		c2.8,0,4.8-1,6.6-4.3l5-9.1h4.7v13h4.3v-25.9c0-2.9,0.5-4.8,3.4-4.8h0.5v-1L372.3,147.2L372.3,147.2z M376.2,163.7
		c-1,0.2-2.4,0.5-3.6,0.5c-2.6,0-7.4-1.9-7.4-7.7s4.8-7.7,7.4-7.7c1.2,0,2.6,0.2,3.6,0.5V163.7z"/>
	<path d="M6.1,240.6c0,5.3,4.3,6.7,7,6.7c3.6,0,5.8-1.4,6.7-2.6H20l1.7,2.2h2.4v-13c0-8.6-4.1-10.1-8.4-10.1c-2.9,0-6,0.5-7.2,1.7
		s-1.2,2.6-1.2,4.3h2.2c0.7-3.1,2.6-4.1,5.3-4.1c2.9,0,5,1.4,5,8.2h-1.4C11.8,233.9,6.1,235.3,6.1,240.6z M19.8,242.3
		c-1,1.4-2.2,2.9-4.6,2.9s-4.6-1.4-4.6-4.6c0-2.9,2.9-4.8,7.7-4.8h1.4v6.5H19.8z"/>
	<path d="M29.1,233.9v1.9c0,8.2,4.3,11.5,10.1,11.5s10.1-3.4,10.1-10.8c0-7.4-4.3-10.8-9.1-10.8s-7.4,1.9-8.6,6.7h-0.2
		c0.5-7.9,2.6-10.1,6.7-11l8.4-1.9c1-0.2,1.4-1,1.4-2.2v-3.1h-1c-0.2,1.2-1.4,1.7-3.6,2.2l-7.2,1.7C31,219.2,29.1,222.1,29.1,233.9z
		 M39.2,227.6c2.9,0,5.5,2.2,5.5,8.9c0,7-2.6,8.9-5.5,8.9s-5.5-1.9-5.5-8.9C33.7,229.8,36.3,227.6,39.2,227.6z"/>
	<path d="M62,246.8c5.8,0,10.1-1.4,10.1-6.2c0-2.9-2.2-4.8-5.8-5.5c3.4-0.7,4.8-2.4,4.8-5c0-4.3-4.3-5.8-9.1-5.8H50.2v1h0.5
		c2.9,0,3.4,1.9,3.4,4.8v16.8H62V246.8z M58.4,226.4c0.7-0.2,2.2-0.5,3.1-0.5c2.9,0,5,1.4,5,4.1c0,2.6-2.2,4.1-5.5,4.1h-2.6V226.4z
		 M58.4,236H61c4.3,0,6.5,1.4,6.5,4.6s-2.2,4.6-6,4.6c-1,0-2.4-0.2-3.1-0.5C58.4,244.7,58.4,236,58.4,236z"/>
	<path d="M81.7,246.8v-20.6H87c2.9,0,5,1.7,5,4.8h1v-2.9c0-1.9-0.7-3.8-3.6-3.8H73.5v1H74c2.9,0,3.4,1.9,3.4,4.8v16.8h4.3V246.8z"/>
	<path d="M116,254.3h1.9v-7.7c0-1-0.7-1.7-1.7-1.7h-1.9v-20.6H95.1v1c2.9,0,3.4,1.9,3.4,4.8c0,4.3-0.7,10.1-2.9,14.9h-1.4
		c-1,0-1.7,0.7-1.7,1.7v7.7h1.9c0.5-5.3,1.9-7.4,5-7.4h11.5C114.1,246.8,115.5,249,116,254.3z M110,244.9H99.7
		c1.9-4.8,2.6-10.6,2.6-18.7h7.7C110,226.2,110,244.9,110,244.9z"/>
	<path d="M139,242.3l-1-0.7c-1.7,2.4-3.6,3.8-6.7,3.8c-4.1,0-6.5-3.8-6.5-9.1h14.4l0.1-1.9c0-6.7-3.1-10.6-9.6-10.6
		c-6,0-9.4,5.3-9.4,11.8s3.4,11.8,10.1,11.8C134,247.3,136.9,245.9,139,242.3z M129.9,226c3.4,0,5,3.1,5,8.4h-10.1
		C124.9,229.6,127,226,129.9,226z"/>
	<circle cx="156.6" cy="219" r="2.2"/>
	<circle cx="148.4" cy="219" r="2.2"/>
	<path d="M161.8,242.3l-1-0.7c-1.7,2.4-3.6,3.8-6.7,3.8c-4.1,0-6.5-3.8-6.5-9.1h14.3l0.1-1.9c0-6.7-3.1-10.6-9.6-10.6
		c-6,0-9.4,5.3-9.4,11.8s3.4,11.8,10.1,11.8C156.8,247.3,159.7,245.9,161.8,242.3z M152.7,226c3.4,0,5,3.1,5,8.4h-10.1
		C147.7,229.6,149.8,226,152.7,226z"/>
	<path d="M181.3,224.3H177v11.5l-5-8.4c-1.2-2-3.1-3.1-6.2-3.1h-1.2v1.2c1.9,0,3.6,0.7,4.6,2.2l4.6,7.4l-5,7
		c-1.7,2.4-3.4,3.6-5.5,3.9v0.9c0.5,0.2,1.4,0.5,2.4,0.5c2.4,0,4.6-1.2,6.5-3.8l5-7v10.3h4.3v-10.3l5,7c1.9,2.6,4.1,3.8,6.5,3.8
		c1,0,1.9-0.2,2.4-0.5V246c-2.2-0.3-3.8-1.5-5.5-3.9l-5-7l4.6-7.4c0.9-1.4,2.6-2.2,4.6-2.2v-1.2h-1.2c-3.1,0-5,1.2-6.2,3.1l-5,8.4
		v-11.5H181.3z"/>
	<path d="M203.1,245.4c-3.6,0-5.3-1.4-6.5-2.6l-1,0.7c1.7,2.2,4.1,3.8,8.4,3.8c5.3,0,9.6-1.4,9.6-6.5c0-2.9-2.2-4.8-5.5-5.5
		c2.9-0.7,4.8-2.4,4.8-5.3c0-4.8-4.3-6.2-8.6-6.2c-3.1,0-5.5,0.5-6.7,1.7s-1.2,2.6-1.2,5.3h1c0.2-3.1,2.9-5,6.2-5
		c2.6,0,4.8,1.4,4.8,4.3s-2.2,4.3-6,4.3h-2.6v1.9h2.6c4.6,0,6.7,1.4,6.7,4.6C209.1,244,207,245.4,203.1,245.4z"/>
	<path d="M238.2,246.8v-22.6h-4.3l-10.1,18.2V230c0-4.8-1-5.8-4.3-5.8h-4.1v1h0.7c2.9,0,3.4,1.9,3.4,4.8v16.8h4.3l10.1-18.2v18.2
		H238.2z"/>
	<path d="M249.9,217.8l-1,0.7c1.2,2.2,3.1,3.8,6.2,3.8s5-1.7,6.2-3.8l-1-0.7c-1.2,1.2-2.6,1.9-5.3,1.9
		C252.3,219.7,251.1,219,249.9,217.8z"/>
	<path d="M260.2,228.6v18.2h4.3v-22.6h-4.3l-10,18.3V230c0-4.8-1-5.8-4.3-5.8h-4.1v1h0.7c2.9,0,3.4,1.9,3.4,4.8v16.8h4.3
		L260.2,228.6z"/>
	<path d="M12.3,314.8v-10.3l5.5,7c2.2,2.7,4.6,3.8,7,3.8c1,0,1.9-0.2,2.4-0.5c0.7,0.2,1.9,0.5,2.6,0.5c4.6,0,6.5-3.8,6.5-15.4v-5.8
		H44v20.6h4.3v-22.6H28.8v1c2.9,0,3.4,1.9,3.4,4.8c0,11.5-1.4,15.4-5,15.6v0.3c-2.2-0.3-3.8-1.7-5.5-3.9l-5.5-7l5.3-7.4
		c1.2-1.7,2.9-2.2,4.3-2.2v-1.2h-1.2c-3.1,0-4.8,1.2-6.2,3.1l-6,8.4V298c0-4.8-1-5.8-4.3-5.8H3.7v1h1c2.9,0,3.4,1.9,3.4,4.8v16.8
		H12.3z"/>
	<path d="M81.9,315.8v-1c-2.2,0-3.6-3.6-3.6-7.2v-15.4H74L66.8,308l-7.2-15.8H55v22.6h1.9v-18l8.2,18h1l7.9-17.5v10.3
		C74,312.7,75.9,315.8,81.9,315.8z"/>
	<path d="M108.3,313.9h-0.7c-2.9,0-3.4-1.9-3.4-4.8v-16.8h-4.3v10.3h-9.6V298c0-4.8-1-5.8-4.3-5.8h-4.1v1h0.7c2.9,0,3.4,1.9,3.4,4.8
		v16.8h4.3v-10.3h9.6v4.6c0,4.8,1,5.8,4.3,5.8h4.1V313.9z"/>
	<path d="M120.1,315.3c6.7,0,10.6-5.3,10.6-11.8s-3.8-11.8-10.6-11.8s-10.6,5.3-10.6,11.8S113.4,315.3,120.1,315.3z M120.1,293.7
		c3.6,0,6,4.3,6,9.8s-2.4,9.8-6,9.8s-6-4.3-6-9.8S116.5,293.7,120.1,293.7z"/>
	<path d="M154.2,314.8v-22.6h-22.1v1h0.5c2.9,0,3.4,1.9,3.4,4.8v16.8h4.3v-20.6h9.6v20.6L154.2,314.8L154.2,314.8z"/>
	<path d="M165.2,324v-10.1c1.4,0.7,3.4,1.4,6,1.4c6.2,0,9.1-5.3,9.1-11.8s-2.9-11.8-8.6-11.8c-3.6,0-5.5,1.4-6.5,2.6H165
		c-0.5-1.4-1.7-2.2-4.1-2.2h-4.3v1h1c2.9,0,3.4,1.9,3.4,4.8V324H165.2z M165.2,296.6c1-1.4,2.4-2.9,5-2.9c3.8,0,5.5,4.3,5.5,9.8
		s-1.7,9.8-6,9.8c-1.4,0-3.1-0.7-4.6-1.4v-15.3H165.2z"/>
	<path d="M203.1,310.3l-1-0.7c-1.7,2.4-3.6,3.8-7,3.8c-4.8,0-7-4.3-7-9.8s2.2-9.8,7-9.8c3.4,0,6,1.9,6.2,6h1c0-3.6,0-5-1.2-6.2
		s-3.6-1.7-7-1.7c-7.2,0-10.6,5.3-10.6,11.8s3.4,11.8,10.6,11.8C198.1,315.3,201,313.9,203.1,310.3z"/>
	<path d="M229,323v1.4h1.4c3.4,0,5.5-1.2,7.4-6.5l9.6-25.7H245l-6.2,16.6l-5.3-13.2c-1-2.4-2.9-3.8-5.8-3.8h-4.1v0.5h-15.4
		c-2.9,0-3.6,1.9-3.6,3.8v2.9h1c0-3.1,2.2-4.8,5-4.8h2.4v20.6h4.3v-20.6h7.9V293c1.7,0.5,3.1,1.7,3.8,3.5l7.4,18.7l-1,2.6
		C234,322,231.9,323,229,323z"/>
	<path d="M265.3,324v-8.6c7.7-0.2,11.5-5.3,11.5-11.8s-3.8-11.5-11.5-11.8v-2.9c0-4.8-1-5.8-4.3-5.8h-4.1v1h0.7
		c2.9,0,3.4,1.9,3.4,4.8v2.9c-7.7,0.2-11.5,5.3-11.5,11.8s3.8,11.5,11.5,11.8v8.6H265.3z M265.2,293.5c4.8,0.5,7,4.3,7,10.1
		c0,5.8-2.2,9.6-7,10.1V293.5z M254,303.6c0-5.8,2.2-9.6,7-10.1v20.2C256.2,313.2,254,309.3,254,303.6z"/>
	<path d="M26.5,382.8v-1c-2.2-0.2-3.8-1.5-5.2-3.8l-4.2-7l7.7-10.8h-2.4l-6.2,8.9l-3-5c-1.4-2.4-3.3-3.8-5.4-3.8H3.7v1
		c1.9,0.2,3.6,1.5,4.9,3.8l4.2,7l-7.7,10.8h2.4l6.2-8.9l3,5c1.4,2.4,3.3,3.8,5.4,3.8H26.5z"/>
	<path d="M44.5,382.8c3.1,0,4.6,2.2,5,7.4h1.9v-7.7c0-1-0.7-1.7-1.7-1.7h-1.9v-20.6h-4.3v20.6h-9.6V366c0-4.8-1-5.8-4.3-5.8h-4.1v1
		h0.7c2.9,0,3.4,1.9,3.4,4.8v16.8H44.5z"/>
	<path d="M71.8,382.8v-22.6h-4.3v11.4c-1,0.4-2.6,0.9-4.6,0.9c-2.2,0-4.3-1.2-4.3-4.6V366c0-4.8-1-5.8-4.3-5.8h-4.1v1h0.5
		c2.9,0,3.4,1.9,3.4,4.8v1.4c0,5.8,4.6,7,8.6,7c2.2,0,3.8-0.5,4.8-0.9v9.3H71.8z"/>
	<path d="M107.4,382.8v-22.6h-4.3v20.6h-7.4v-20.6h-4.3v20.6H84V366c0-4.8-1-5.8-4.3-5.8h-4.1v1h0.6c2.9,0,3.4,1.9,3.4,4.8v16.8
		H107.4z"/>
	<path d="M139.5,382.8c3.1,0,4.6,2.2,5,7.4h1.9v-7.7c0-1-0.7-1.7-1.7-1.7h-1.9v-20.6h-4.3v20.6h-7.4v-20.6h-4.3v20.6h-7.4V366
		c0-4.8-1-5.8-4.3-5.8H111v1h0.7c2.9,0,3.4,1.9,3.4,4.8v16.8H139.5z"/>
	<path d="M171.7,376.1c0-5.3-4.3-6.7-9.8-6.7h-3.7v-9.1h-9.8c-1,0-1.7,0.7-1.7,1.7v6.5h1.2c0.2-4.3,2.2-6.2,5.5-6.2h0.5v20.6h7.9
		C167.4,382.8,171.7,381.4,171.7,376.1z M161.4,381.2c-1,0-2.4-0.2-3.1-0.5v-9.1c0.7-0.2,2.2-0.5,3.1-0.5c3.6,0,5.8,1.4,5.8,5
		S165,381.2,161.4,381.2z"/>
	<path d="M184.4,382.8c5,0,9.4-1.4,9.4-6.7s-4.3-6.7-9.4-6.7h-3.6V366c0-4.8-1-5.8-4.3-5.8h-4.1v1h0.7c2.9,0,3.4,1.9,3.4,4.8v16.8
		H184.4z M180.8,371.6c0.7-0.2,2.2-0.5,3.1-0.5c3.1,0,5.3,1.4,5.3,5s-2.2,5-5.3,5c-1,0-2.4-0.2-3.1-0.5V371.6z"/>
	<path d="M201.2,382.8h4.1v-1h-0.7c-2.9,0-3.4-1.9-3.4-4.8v-16.8h-4.3V377C196.9,381.9,197.8,382.8,201.2,382.8z"/>
	<path d="M216.8,382.8c5.5,0,9.8-1.4,9.8-6.7s-4.3-6.7-9.8-6.7h-3.6V366c0-4.8-1-5.8-4.3-5.8h-4.1v1h0.7c2.9,0,3.4,1.9,3.4,4.8v16.8
		H216.8z M213.2,371.6c0.7-0.2,2.2-0.5,3.1-0.5c3.6,0,5.8,1.4,5.8,5s-2.2,5-5.8,5c-1,0-2.4-0.2-3.1-0.5V371.6z"/>
	<path d="M237.4,359.8c-3.4,0-5.8,0.5-7,1.7s-1.2,2.6-1.2,6.2h1c0.2-4.1,2.9-6,6.2-6c4.6,0,6.7,4.1,7,9.1h-10.1v1.9h10.1
		c-0.2,5-2.5,8.6-7,8.6c-3.4,0-5.3-1.4-7-3.8l-1,0.7c2.2,3.6,5,5,8.9,5c7.2,0,10.6-5.3,10.6-11.8S244.6,359.8,237.4,359.8z"/>
	<path d="M270.3,359.8c-5.7,0-9.6,4.3-9.8,10.8h-2.9V366c0-4.8-1-5.8-4.3-5.8h-4.1v1h0.7c2.9,0,3.4,1.9,3.4,4.8v16.8h4.3v-10.3h2.9
		c0.2,6.5,4.1,10.8,9.8,10.8c6,0,9.8-4.8,9.8-11.8S276.3,359.8,270.3,359.8z M270.3,381.4c-3.1,0-5.3-3.4-5.3-9.8s2.2-9.8,5.3-9.8
		s5.3,3.4,5.3,9.8S273.4,381.4,270.3,381.4z"/>
	<path d="M283.5,366.8c0,3.6,2.6,5.8,5.5,6.2l-2.9,5c-1,1.7-2.4,3.6-4.6,3.8v1c0.7,0.2,1.7,0.5,2.6,0.5c2.7,0,4.4-1.4,5.9-4.3
		l2.9-5.8h3.7v9.6h4.3V366c0-2.9,0.5-4.8,3.4-4.8v-1H293C287.8,360.3,283.5,361.7,283.5,366.8z M296.7,362.4v8.6
		c-0.7,0.2-2.2,0.5-3.1,0.5c-3.4,0-5.5-1.4-5.5-4.8s2.2-4.8,5.5-4.8C294.6,362,296,362.2,296.7,362.4z"/>
	<polygon points="3.9,425.9 4.6,426.8 9.4,424 9.4,450.8 13.8,450.8 13.8,419.2 11.4,419.2 	"/>
	<path d="M33.7,448.9H22.9c8.9-8.4,17-13.4,17-21.6c0-7.7-5.8-9.1-9.6-9.1s-7.4,1.7-9.2,3.8c-1.2,1.4-1.2,3.8-1.2,6.2h1
		c1-5.3,4.1-8.2,7.9-8.2c3.4,0,6.2,2.4,6.2,7.2c0,7.2-5.5,11.3-15.6,21.1v2.4h17c3.4,0,4.1-1.9,4.1-3.8v-3.1h-1
		C39.7,447.2,37.5,448.9,33.7,448.9z"/>
	<path d="M55,432.6c-0.6,0-2.6,0-4.3,0.5l12.4-12v-1.9H48.3c-3.4,0-4.1,1.9-4.1,3.8v3.1h1c0-3.4,2.2-5,6-5h8.4l-12.5,12.5l1.2,1.7
		c2.2-0.5,2.9-0.7,5.8-0.7c2.9,0,6.2,2.4,6.2,7.4c0,5.5-3.4,7.9-7.2,7.9c-3.6,0-6.5-1.4-8.9-4.1l-0.7,1c2.6,3.1,5.5,5,10.3,5
		c4.1,0,11.3-1.4,11.3-9.8C65.1,434,57.9,432.6,55,432.6z"/>
	<path d="M86.7,419.2h-3.8l-15.8,21.6v1.9h15.4v8.2h4.3v-8.2h4.3v-1.9h-4.3L86.7,419.2L86.7,419.2z M82.4,440.8H69.9l12.5-17V440.8z
		"/>
	<path d="M103,432.6h-5.5l0.5-11.5h14.2v-1.9h-18l-0.5,13.7l1.7,1.9l6.7-0.2c4.3,0,7.2,2.4,7.2,7.4c0,5.5-3.4,7.9-7.2,7.9
		c-3.6,0-6.5-1.4-8.9-4.1l-0.7,1c2.6,3.1,5.5,5,10.3,5c4.1,0,11.3-1.4,11.3-9.8C114.1,434,107.4,432.6,103,432.6z"/>
	<path d="M129.4,430.2c-3.8,0-6,1-7.7,2.2c0-7.4,1.7-12.2,8.4-12.2c2.4,0,4.3,0.2,5.8,0.5l0.2-1c-1.9-0.7-3.8-1.4-7-1.4
		c-8.9,0-11.8,5.3-11.8,16.8s2.9,16.8,10.3,16.8c7.9,0,10.8-5.3,10.8-10.8C138.6,434.5,136.2,430.2,129.4,430.2z M127.8,449.9
		c-4.3,0-6-4.3-6-15.4c1.7-1.4,3.4-2.4,6.2-2.4c4.6,0,6,3.4,6,8.9C134,445.6,132.3,449.9,127.8,449.9z"/>
	<path d="M139.5,423v3.1h1c0-3.4,2.2-5,6-5h9.6l-12,29.8h4.3l12-29.8v-1.9h-16.8C140.2,419.2,139.5,421.1,139.5,423z"/>
	<path d="M177.7,433.8c3.1-1.5,6-4.1,6-7.9c0-5.8-4.6-7.7-9.8-7.7s-9.8,1.9-9.8,8.2c0,4.2,3.1,6.5,6.5,8.4c-3.8,1.7-7.7,4.1-7.7,8.9
		c0,5.8,5,8.2,11,8.2s11-2.4,11-8.6C184.9,438.3,181.3,435.9,177.7,433.8z M168.6,425.4c0-4.1,2.9-5.3,5.3-5.3s5.3,1.2,5.3,5.8
		c0,3.6-1.7,5.3-3.6,6.7C171.9,430.9,168.6,428.5,168.6,425.4z M173.8,449.9c-3.4,0-6.5-1.9-6.5-6.2c0-4.6,2.4-6.5,5.3-7.9
		c4.1,2.1,7.7,4.3,7.7,8.4C180.3,448,177.2,449.9,173.8,449.9z"/>
	<path d="M198.6,418.2c-7.9,0-10.8,5.3-10.8,10.8c0,6.5,2.4,10.8,9.1,10.8c3.8,0,6-1,7.7-2.2c0,7.4-1.7,12.2-8.4,12.2
		c-2.4,0-4.3-0.2-5.8-0.5l-0.2,1c1.9,0.7,3.8,1.4,7,1.4c8.9,0,11.8-5.3,11.8-16.8C208.9,423.5,206,418.2,198.6,418.2z M198.3,437.9
		c-4.6,0-6-3.4-6-8.9c0-4.6,1.7-8.9,6.2-8.9c4.3,0,6,4.3,6,15.4C202.9,436.9,201.2,437.9,198.3,437.9z"/>
	<path d="M224.2,418.2c-8.4,0-11.5,6.7-11.5,16.8c0,10.1,3.1,16.8,11.5,16.8s11.5-6.7,11.5-16.8
		C235.8,424.9,232.6,418.2,224.2,418.2z M224.2,449.9c-5.3,0-6.7-4.8-6.7-14.9s1.4-14.9,6.7-14.9s6.7,4.8,6.7,14.9
		C231,445.1,229.5,449.9,224.2,449.9z"/>
</g>
</svg>
