<?xml version="1.0" encoding="utf-8"?>
<!-- Generator: Adobe Illustrator 21.1.0, SVG Export Plug-In . SVG Version: 6.00 Build 0)  -->
<svg version="1.1" id="Слой_1" xmlns="http://www.w3.org/2000/svg" xmlns:xlink="http://www.w3.org/1999/xlink" x="0px" y="0px"
	 viewBox="0 0 500 160" style="enable-background:new 0 0 500 160;" xml:space="preserve">
<style type="text/css">
	.st0{enable-background:new    ;}
	.st1{fill:#180A0A;}
	.st2{fill:#432D2D;}
</style>
<g class="st0">
	<path class="st1" d="M39.6,52.1l0.1,3.4h-1.3l0.1-3.3l-0.1-7.6h1.4L39.6,52.1z M41.3,49.7c1.5,1.9,3.1,3.8,4.7,5.5v0.2
		c-0.3,0.1-0.8,0.2-1.3,0.3l-0.2-0.1c-1.8-2-3.4-4-4.7-5.8v-0.1l3.6-4.1l0.7-1h1.5L41.3,49.7z"/>
	<path class="st1" d="M53.5,52.1v3.4h-1.3l0.1-3.3v-3.6h-2l-0.1,0.6c-0.1,1.6-0.3,2.8-0.5,3.7s-0.5,1.5-0.8,1.9s-0.7,0.7-1.2,0.8
		h-0.3l-0.2-1c0.4-0.1,0.8-0.4,1-0.8c0.2-0.4,0.4-0.9,0.6-1.6c0.1-0.7,0.3-1.8,0.4-3.2l0.1-1.3l0,0h4.2V52.1z"/>
	<path class="st1" d="M61.1,48.1c0.4,0.4,0.6,0.9,0.6,1.5c0,0.2,0,0.9-0.1,2.1s-0.1,1.9-0.1,2.1c0,0.2,0,0.4,0.1,0.5
		s0.2,0.1,0.4,0.1s0.4,0,0.6-0.1l0.1,0.1l-0.1,0.8c-0.3,0.2-0.7,0.3-1,0.3c-0.4,0-0.6-0.2-0.8-0.4s-0.3-0.5-0.3-0.9h-0.1
		c-0.6,0.6-1.2,1-1.8,1.3c-0.8,0-1.4-0.2-1.8-0.6s-0.6-0.9-0.6-1.6c0-0.5,0.1-0.9,0.4-1.2c0.3-0.3,0.7-0.5,1.2-0.6l2.8-0.6v-1.1
		c0-0.4-0.1-0.8-0.3-1s-0.6-0.4-1-0.4s-0.8,0.1-1.2,0.3s-0.8,0.5-1.2,0.8l-0.1-0.1l-0.2-1c0.9-0.7,1.9-1.1,2.9-1.1
		C60.1,47.6,60.7,47.8,61.1,48.1z M58,52.5c-0.2,0.1-0.4,0.2-0.5,0.3s-0.2,0.3-0.2,0.5c0,0.4,0.1,0.7,0.3,0.9s0.6,0.3,0.9,0.3
		c0.6,0,1.3-0.4,1.9-1.2l0.1-1.4L58,52.5z"/>
	<path class="st1" d="M69,47.7c0.4,0.1,0.7,0.2,1,0.3l-0.2,1.2l-0.2,0.1c-0.6-0.4-1.2-0.6-1.8-0.6c-0.7,0-1.2,0.3-1.6,0.8
		s-0.6,1.2-0.6,2.1s0.2,1.6,0.6,2.2c0.4,0.5,0.9,0.8,1.6,0.8c0.3,0,0.6-0.1,1-0.2c0.3-0.1,0.6-0.2,0.9-0.4l0.2,0.1l-0.2,1.1
		c-0.7,0.3-1.4,0.4-2.1,0.4c-1,0-1.8-0.4-2.4-1.1c-0.6-0.7-0.9-1.7-0.9-2.9c0-1.3,0.3-2.3,0.9-3s1.5-1.1,2.5-1.1
		C68.3,47.6,68.6,47.6,69,47.7z"/>
	<path class="st1" d="M72.6,52.2l-0.1-4.5l1.3-0.1v5.9h0.1l3.5-5.9h1.3L78.6,52l0.1,3.4h-1.3l0.1-3.2v-2.7h-0.1l-3.6,6h-1.3
		L72.6,52.2z"/>
	<path class="st1" d="M87.1,52.1l0.1,3.4h-1.3l0.1-3.3v-0.1h-0.1c-0.5,0.4-1.1,0.7-1.8,0.9c-0.9,0-1.6-0.2-2-0.5
		c-0.4-0.4-0.6-0.9-0.6-1.7v-3.1h1.3v2.8c0,0.5,0.1,0.9,0.3,1.1c0.2,0.2,0.5,0.4,1,0.4c0.7,0,1.3-0.3,1.9-0.8v-3.4h1.3L87.1,52.1z"
		/>
	<path class="st1" d="M96.6,52.1l0.1,3.4h-1.3l0.1-3.3v-0.1h-3.8l0.1,3.4h-1.3l0.1-3.3l-0.1-4.5h1.3V51h3.7v-3.4h1.3L96.6,52.1z"/>
	<path class="st1" d="M99.9,52.2l-0.1-4.5l1.3-0.1v5.9h0.1l3.5-5.9h1.3l-0.1,4.4l0.1,3.4h-1.3l0.1-3.2v-2.7h-0.1l-3.6,6h-1.3
		L99.9,52.2z"/>
	<path class="st1" d="M109.4,52.2l-0.1-4.5l1.3-0.1v5.9h0.1l3.5-5.9h1.3l-0.1,4.4l0.1,3.5h-1.3l0.1-3.2v-2.8h-0.1l-3.6,6h-1.3
		L109.4,52.2z M114.8,45c-0.2,0.5-0.5,0.8-0.9,1.1s-0.9,0.4-1.5,0.4s-1.1-0.1-1.5-0.4c-0.4-0.2-0.7-0.6-0.9-1.1l0.7-0.5h0.2
		c0.1,0.4,0.3,0.7,0.5,0.8c0.2,0.2,0.6,0.3,1,0.3s0.8-0.1,1-0.3s0.4-0.5,0.6-0.8h0.2L114.8,45z"/>
	<path class="st1" d="M126.1,47.7c0.4,0.1,0.7,0.2,1,0.3l-0.2,1.2l-0.2,0.1c-0.6-0.4-1.2-0.6-1.8-0.6c-0.7,0-1.2,0.3-1.6,0.8
		s-0.6,1.2-0.6,2.1s0.2,1.6,0.6,2.2c0.4,0.5,0.9,0.8,1.6,0.8c0.3,0,0.6-0.1,1-0.2c0.3-0.1,0.6-0.2,0.9-0.4l0.2,0.1l-0.2,1.1
		c-0.7,0.3-1.4,0.4-2.1,0.4c-1,0-1.8-0.4-2.4-1.1c-0.6-0.7-0.9-1.7-0.9-2.9c0-1.3,0.3-2.3,0.9-3s1.5-1.1,2.5-1.1
		C125.3,47.6,125.7,47.6,126.1,47.7z"/>
	<path class="st1" d="M130,47.7h1.3l0.4,1.2l1.5,4.2h0.1l1.7-4.2l0.4-1.1h1.3l0.7,7.8h-0.9l-0.2-2.4l-0.3-3.5h-0.1l-2.1,5.1h-1
		l-1.9-5.1h-0.1l-0.4,3.3l-0.2,2.7h-1L130,47.7z"/>
	<path class="st1" d="M144.8,48.1c0.4,0.4,0.6,0.9,0.6,1.5c0,0.2,0,0.9-0.1,2.1s-0.1,1.9-0.1,2.1c0,0.2,0,0.4,0.1,0.5
		s0.2,0.1,0.4,0.1s0.4,0,0.6-0.1l0.2,0.2l-0.1,0.8c-0.3,0.2-0.7,0.3-1,0.3c-0.4,0-0.6-0.2-0.8-0.4s-0.3-0.5-0.3-0.9h-0.1
		c-0.6,0.6-1.2,1-1.8,1.3c-0.8,0-1.4-0.2-1.8-0.6s-0.6-0.9-0.6-1.6c0-0.5,0.1-0.9,0.4-1.2c0.3-0.3,0.7-0.5,1.2-0.6l2.8-0.6v-1.1
		c0-0.4-0.1-0.8-0.3-1s-0.6-0.4-1-0.4s-0.8,0.1-1.2,0.3s-0.8,0.5-1.2,0.8l-0.1-0.1l-0.2-1c0.9-0.7,1.9-1.1,2.9-1.1
		C143.8,47.6,144.4,47.8,144.8,48.1z M141.7,52.5c-0.2,0.1-0.4,0.2-0.5,0.3s-0.2,0.3-0.2,0.5c0,0.4,0.1,0.7,0.3,0.9s0.5,0.3,0.8,0.3
		c0.6,0,1.3-0.4,1.9-1.2l0.1-1.4L141.7,52.5z"/>
	<path class="st1" d="M148.8,52.2v-4.4l1.3-0.1v4.4v3.4h-1.3V52.2z M151.7,51.3c1,1.3,2.1,2.6,3.3,4v0.2c-0.2,0.1-0.5,0.1-0.7,0.2
		c-0.3,0-0.4,0.1-0.5,0.1l-0.1-0.1c-1.4-1.6-2.5-3-3.3-4.2v-0.1l2.5-2.9l0.4-0.7h1.5L151.7,51.3z"/>
	<path class="st1" d="M161.4,48.4l1.6,2.4l1.5-2.3l0.4-0.7h1.3l-2.4,3.8l2.6,3.9l-1.4,0.1l-0.4-0.8l-1.7-2.5l-1.6,2.5l-0.3,0.7h-1.3
		l2.5-4l-2.5-3.8l1.4-0.1L161.4,48.4z"/>
	<path class="st1" d="M172.6,48.1c0.4,0.4,0.6,0.9,0.6,1.5c0,0.2,0,0.9-0.1,2.1s-0.1,1.9-0.1,2.1c0,0.2,0,0.4,0.1,0.5
		s0.2,0.1,0.4,0.1s0.4,0,0.6-0.1l0.1,0.1l-0.1,0.8c-0.3,0.2-0.7,0.3-1,0.3c-0.4,0-0.6-0.2-0.8-0.4s-0.3-0.5-0.3-0.9h-0.1
		c-0.6,0.6-1.2,1-1.8,1.3c-0.8,0-1.4-0.2-1.8-0.6s-0.6-0.9-0.6-1.6c0-0.5,0.1-0.9,0.4-1.2c0.3-0.3,0.7-0.5,1.2-0.6l2.8-0.6v-1.1
		c0-0.4-0.1-0.8-0.3-1s-0.6-0.4-1-0.4s-0.8,0.1-1.2,0.3s-0.8,0.5-1.2,0.8l-0.1-0.1l-0.2-1c0.9-0.7,1.9-1.1,2.9-1.1
		C171.6,47.6,172.1,47.8,172.6,48.1z M169.5,52.5c-0.2,0.1-0.4,0.2-0.5,0.3s-0.2,0.3-0.2,0.5c0,0.4,0.1,0.7,0.3,0.9s0.5,0.3,0.8,0.3
		c0.6,0,1.3-0.4,1.9-1.2l0.1-1.4L169.5,52.5z"/>
	<path class="st1" d="M181.8,52.1l0.1,3.4h-1.4l0.1-3.3v-3.6h-2l-0.1,0.6c-0.1,1.6-0.3,2.8-0.5,3.7s-0.5,1.5-0.8,1.9
		s-0.7,0.7-1.2,0.8h-0.3l-0.2-1c0.4-0.1,0.8-0.4,1-0.8s0.4-0.9,0.6-1.6c0.1-0.7,0.3-1.8,0.4-3.2l0.1-1.3l0,0h4.3L181.8,52.1z"/>
	<path class="st1" d="M190.8,53.3c0,1.5-1.2,2.3-3.5,2.3c-0.7,0-1.4,0-2.2-0.1l0.1-3.3l-0.1-4.5h2.7c0.9,0,1.5,0.2,2,0.5
		s0.7,0.8,0.7,1.4c0,0.4-0.1,0.8-0.3,1.1s-0.6,0.6-1,0.7C190.2,51.7,190.8,52.3,190.8,53.3z M189,54.3c0.4-0.2,0.6-0.6,0.6-1.1
		c0-0.8-0.5-1.2-1.5-1.3h-1.8V52v2.6c0.4,0,0.7,0.1,1.1,0.1C188.1,54.7,188.6,54.6,189,54.3z M187.3,48.5c-0.5,0-0.8,0-1.1,0V51
		l1.6,0.1c0.5-0.1,0.8-0.2,1-0.5c0.2-0.2,0.3-0.6,0.3-0.9C189.2,48.9,188.6,48.5,187.3,48.5z"/>
	<path class="st1" d="M193.4,52.2l-0.1-4.5l1.3-0.1v5.9h0.1l3.5-5.9h1.3l-0.1,4.4l0.1,3.5h-1.3l0.1-3.2v-2.8h-0.1l-3.6,6h-1.3
		L193.4,52.2z"/>
	<path class="st1" d="M211,53.3c0,0.7-0.3,1.3-0.8,1.7c-0.6,0.4-1.3,0.6-2.2,0.6c-0.4,0-0.8-0.1-1.2-0.2c-0.4-0.1-0.7-0.2-1-0.4
		l0.2-1l0.1-0.1c0.3,0.2,0.6,0.3,0.9,0.5c0.3,0.1,0.7,0.2,1,0.2c0.5,0,1-0.1,1.3-0.4c0.3-0.2,0.5-0.6,0.5-1c0-0.3-0.1-0.6-0.3-0.8
		s-0.5-0.3-0.9-0.4h-1.7l-0.1-0.1l0.1-0.8h1.6c0.3-0.1,0.5-0.3,0.7-0.5s0.3-0.5,0.3-0.8s-0.1-0.6-0.4-0.8c-0.2-0.2-0.6-0.3-1.1-0.3
		c-0.7,0-1.3,0.2-2,0.6l-0.2-0.1l0.1-1.1c0.6-0.4,1.3-0.5,2.1-0.5s1.4,0.2,1.9,0.5s0.7,0.8,0.7,1.4c0,0.4-0.1,0.8-0.3,1.1
		s-0.5,0.6-0.9,0.8C210.4,51.7,211,52.3,211,53.3z"/>
	<path class="st1" d="M223.5,54.5v2.8l-0.9,0.1l-0.1-1.9h-5.6l-0.2,1.8l-0.9,0.1v-2.9h0.6c0.3-0.2,0.6-0.5,0.8-0.9s0.4-0.9,0.5-1.6
		c0.1-0.7,0.3-1.7,0.4-2.9l0.1-1.3h4.2v4.4v2.4h1.1V54.5z M221.2,52.2v-3.6h-2l-0.1,0.6c-0.1,1.6-0.3,2.8-0.6,3.5
		c-0.2,0.8-0.5,1.4-0.9,1.7h3.6V52.2z"/>
	<path class="st1" d="M231.4,48.6c0.6,0.7,0.9,1.7,0.9,2.9c0,1.3-0.3,2.3-0.9,3.1s-1.5,1.1-2.6,1.1s-1.9-0.3-2.5-1s-0.9-1.7-0.9-2.9
		c0-1.3,0.3-2.3,0.9-3.1c0.6-0.7,1.5-1.1,2.6-1.1S230.8,47.9,231.4,48.6z M227.3,49.3c-0.4,0.5-0.6,1.2-0.6,2.1
		c0,1.1,0.2,1.9,0.6,2.4s0.9,0.8,1.6,0.8c0.7,0,1.3-0.2,1.6-0.7c0.4-0.5,0.6-1.2,0.6-2.1c0-1.1-0.2-1.9-0.6-2.4
		c-0.4-0.6-0.9-0.8-1.6-0.8C228.2,48.5,227.6,48.8,227.3,49.3z"/>
	<path class="st1" d="M241.3,54.5v2.8l-0.9,0.1l-0.2-1.9h-5.6l-0.2,1.8l-0.9,0.1v-2.9h0.6c0.3-0.2,0.6-0.5,0.8-0.9s0.4-0.9,0.5-1.6
		c0.1-0.7,0.3-1.7,0.4-2.9l0.1-1.3h4.2v4.4v2.4h1.2V54.5z M239,52.2v-3.6h-2l-0.1,0.6c-0.1,1.6-0.3,2.8-0.6,3.5
		c-0.2,0.8-0.5,1.4-0.9,1.7h3.6V52.2z"/>
	<path class="st1" d="M248.2,48.1c0.4,0.4,0.6,0.9,0.6,1.5c0,0.2,0,0.9-0.1,2.1s-0.1,1.9-0.1,2.1c0,0.2,0,0.4,0.1,0.5
		s0.2,0.1,0.4,0.1s0.4,0,0.6-0.1l0.1,0.1l-0.1,0.8c-0.3,0.2-0.7,0.3-1,0.3c-0.4,0-0.6-0.2-0.8-0.4s-0.3-0.5-0.3-0.9h-0.1
		c-0.6,0.6-1.2,1-1.8,1.3c-0.8,0-1.4-0.2-1.8-0.6s-0.6-0.9-0.6-1.6c0-0.5,0.1-0.9,0.4-1.2c0.3-0.3,0.7-0.5,1.2-0.6l2.8-0.6v-1.1
		c0-0.4-0.1-0.8-0.3-1s-0.6-0.4-1-0.4s-0.8,0.1-1.2,0.3s-0.8,0.5-1.2,0.8l-0.1-0.1l-0.2-1c0.9-0.7,1.9-1.1,2.9-1.1
		C247.2,47.6,247.8,47.8,248.2,48.1z M245.1,52.5c-0.2,0.1-0.4,0.2-0.5,0.3s-0.2,0.3-0.2,0.5c0,0.4,0.1,0.7,0.3,0.9s0.5,0.3,0.8,0.3
		c0.6,0,1.3-0.4,1.9-1.2l0.1-1.4L245.1,52.5z"/>
	<path class="st1" d="M257.9,53.3c0,1.5-1.2,2.3-3.5,2.3c-0.7,0-1.4,0-2.2-0.1l0.1-3.3l-0.1-4.5h2.7c0.9,0,1.5,0.2,2,0.5
		s0.7,0.8,0.7,1.4c0,0.4-0.1,0.8-0.3,1.1c-0.2,0.3-0.6,0.6-1,0.7C257.3,51.7,257.9,52.3,257.9,53.3z M256.1,54.3
		c0.4-0.2,0.6-0.6,0.6-1.1c0-0.8-0.5-1.2-1.5-1.3h-1.8V52v2.6c0.4,0,0.7,0.1,1.1,0.1C255.2,54.7,255.7,54.6,256.1,54.3z M254.5,48.5
		c-0.5,0-0.8,0-1.1,0V51l1.6,0.1c0.5-0.1,0.8-0.2,1-0.5c0.2-0.2,0.3-0.6,0.3-0.9C256.3,48.9,255.7,48.5,254.5,48.5z"/>
	<path class="st1" d="M264.8,48.1c0.4,0.4,0.6,0.9,0.6,1.5c0,0.2,0,0.9-0.1,2.1s-0.1,1.9-0.1,2.1c0,0.2,0,0.4,0.1,0.5
		s0.2,0.1,0.4,0.1c0.2,0,0.4,0,0.6-0.1l0.2,0.2l-0.1,0.8c-0.3,0.2-0.7,0.3-1,0.3c-0.4,0-0.6-0.2-0.8-0.4c-0.2-0.2-0.3-0.5-0.3-0.9
		h-0.1c-0.6,0.6-1.2,1-1.8,1.3c-0.8,0-1.4-0.2-1.8-0.6s-0.6-0.9-0.6-1.6c0-0.5,0.1-0.9,0.4-1.2s0.7-0.5,1.2-0.6l2.8-0.6v-1.1
		c0-0.4-0.1-0.8-0.3-1c-0.2-0.2-0.6-0.4-1-0.4s-0.8,0.1-1.2,0.3c-0.4,0.2-0.8,0.5-1.2,0.8l-0.1-0.1l-0.2-1c0.9-0.7,1.9-1.1,2.9-1.1
		C263.8,47.6,264.4,47.8,264.8,48.1z M261.7,52.5c-0.2,0.1-0.4,0.2-0.5,0.3s-0.2,0.3-0.2,0.5c0,0.4,0.1,0.7,0.3,0.9s0.5,0.3,0.8,0.3
		c0.6,0,1.3-0.4,1.9-1.2l0.1-1.4L261.7,52.5z"/>
	<path class="st1" d="M275,52.1l0.1,3.4h-1.3l0.1-3.3v-0.1h-3.8l0.1,3.4h-1.3l0.1-3.3l-0.1-4.5h1.3V51h3.7v-3.4h1.3L275,52.1z"/>
	<path class="st1" d="M284.5,52.1l0.1,3.4h-1.3l0.1-3.3v-0.1h-3.8l0.1,3.4h-1.3l0.1-3.3l-0.1-4.5h1.3V51h3.7v-3.4h1.3L284.5,52.1z"
		/>
	<path class="st1" d="M292.9,52.1v3.4h-1.2v-2.9h-1.5c-0.5,0.8-1.1,1.8-1.8,2.9l-0.2,0.1c-0.5,0-0.8-0.1-1.1-0.2v-0.2
		c0.9-1,1.6-1.9,2.2-2.8c-0.6-0.2-1-0.5-1.3-0.8s-0.4-0.8-0.4-1.4c0-0.7,0.3-1.3,0.8-1.8s1.2-0.7,2-0.7h2.5V52.1z M289.2,49
		c-0.3,0.3-0.4,0.7-0.4,1.2c0,0.4,0.1,0.8,0.4,1.1s0.6,0.5,1.1,0.6l1.4-0.1v-3.2h-1.2C289.9,48.6,289.5,48.7,289.2,49z"/>
	<path class="st1" d="M296.6,47.7h1.3l0.4,1.2l1.5,4.2h0.1l1.7-4.2l0.4-1.1h1.3l0.7,7.8h-1.1l-0.2-2.4l-0.2-3.7h-0.1l-2.1,5.1h-1
		l-1.9-5.1h-0.1l-0.4,3.3l-0.2,2.7h-1L296.6,47.7z"/>
	<path class="st1" d="M316.3,53.3c0,1.5-1.2,2.3-3.5,2.3c-0.7,0-1.4,0-2.2-0.1l0.1-3.3l-0.1-4.5h2.7c0.9,0,1.5,0.2,2,0.5
		s0.7,0.8,0.7,1.4c0,0.4-0.1,0.8-0.3,1.1s-0.6,0.6-1,0.7C315.7,51.7,316.3,52.3,316.3,53.3z M314.5,54.3c0.4-0.2,0.6-0.6,0.6-1.1
		c0-0.8-0.5-1.2-1.5-1.3h-1.8V52v2.6c0.4,0,0.7,0.1,1.1,0.1C313.6,54.7,314.1,54.6,314.5,54.3z M312.9,48.5c-0.5,0-0.8,0-1.1,0V51
		l1.6,0.1c0.5-0.1,0.8-0.2,1-0.5c0.2-0.2,0.3-0.6,0.3-0.9C314.7,48.9,314.1,48.5,312.9,48.5z"/>
	<path class="st1" d="M318.9,52.2l-0.1-4.5l1.3-0.1v5.9h0.1l3.5-5.9h1.3l-0.1,4.4l0.1,3.4h-1.3l0.1-3.2v-2.7h-0.1l-3.6,6h-1.3
		L318.9,52.2z"/>
	<path class="st1" d="M333,47.8l-0.1,0.9h-1.4h-1v3.4v3.4h-1.3l0.1-3.3v-3.5h-1h-1.4l-0.1-0.1l0.1-0.9L333,47.8L333,47.8z"/>
	<path class="st1" d="M340,48.6c0.6,0.7,0.9,1.7,0.9,2.9c0,1.3-0.3,2.3-0.9,3.1s-1.5,1.1-2.6,1.1s-1.9-0.3-2.5-1S334,53,334,51.8
		c0-1.3,0.3-2.3,0.9-3.1c0.6-0.7,1.5-1.1,2.6-1.1S339.4,47.9,340,48.6z M335.8,49.3c-0.4,0.5-0.6,1.2-0.6,2.1c0,1.1,0.2,1.9,0.6,2.4
		s0.9,0.8,1.6,0.8s1.3-0.2,1.6-0.7c0.4-0.5,0.6-1.2,0.6-2.1c0-1.1-0.2-1.9-0.6-2.4c-0.4-0.6-0.9-0.8-1.6-0.8
		C336.8,48.5,336.2,48.8,335.8,49.3z"/>
	<path class="st1" d="M349.6,52.1l0.1,3.4h-1.3l0.1-3.3v-0.1h-3.8l0.1,3.4h-1.3l0.1-3.3l-0.1-4.5h1.3V51h3.7v-3.4h1.3L349.6,52.1z"
		/>
	<path class="st1" d="M358.1,52.1l0.1,3.4h-1.3l0.1-3.3v-0.1h-0.1c-0.5,0.4-1.1,0.7-1.8,0.9c-0.9,0-1.6-0.2-2-0.5
		c-0.4-0.4-0.6-0.9-0.6-1.7v-3.1h1.3v2.8c0,0.5,0.1,0.9,0.3,1.1c0.2,0.2,0.5,0.4,1,0.4c0.7,0,1.3-0.3,1.9-0.8v-3.4h1.3L358.1,52.1z"
		/>
	<path class="st1" d="M362,51.6L362,51.6c0,1,0.2,1.7,0.6,2.2s1,0.8,1.8,0.8c0.4,0,0.8-0.1,1.2-0.2c0.4-0.1,0.8-0.3,1.1-0.6l0.1,0.1
		l-0.2,1.2c-0.8,0.4-1.6,0.6-2.4,0.6c-1.1,0-2-0.4-2.6-1.1c-0.6-0.7-1-1.7-1-2.9s0.3-2.2,1-3c0.6-0.7,1.5-1.1,2.6-1.1
		c0.9,0,1.6,0.3,2.1,0.8s0.7,1.2,0.7,2.2c0,0.3,0,0.6-0.1,0.9l-0.2,0.2L362,51.6z M362.8,49.1c-0.4,0.4-0.6,0.9-0.8,1.6l3.8-0.1
		v-0.2c0-0.6-0.1-1-0.4-1.3s-0.7-0.5-1.2-0.5C363.7,48.5,363.2,48.7,362.8,49.1z"/>
	<path class="st1" d="M376.1,52.1l0.1,3.4h-1.3l0.1-3.3v-0.1h-3.8l0.1,3.4H370l0.1-3.3l-0.1-4.5h1.3V51h3.7v-3.4h1.3L376.1,52.1z"/>
	<path class="st1" d="M384.8,48.6c0.6,0.7,0.9,1.7,0.9,2.9c0,1.3-0.3,2.3-0.9,3.1s-1.5,1.1-2.6,1.1s-1.9-0.3-2.5-1s-0.9-1.7-0.9-2.9
		c0-1.3,0.3-2.3,0.9-3.1c0.6-0.7,1.5-1.1,2.6-1.1S384.2,47.9,384.8,48.6z M380.6,49.3c-0.4,0.5-0.6,1.2-0.6,2.1
		c0,1.1,0.2,1.9,0.6,2.4s0.9,0.8,1.6,0.8s1.3-0.2,1.6-0.7c0.4-0.5,0.6-1.2,0.6-2.1c0-1.1-0.2-1.9-0.6-2.4c-0.4-0.6-0.9-0.8-1.6-0.8
		C381.5,48.5,381,48.8,380.6,49.3z"/>
	<path class="st1" d="M388.4,44.6c0.1,0.1,0.2,0.3,0.2,0.5s-0.1,0.4-0.2,0.6c-0.1,0.1-0.3,0.2-0.5,0.2s-0.4-0.1-0.5-0.2
		c-0.1-0.1-0.2-0.3-0.2-0.6c0-0.2,0.1-0.4,0.2-0.6c0.1-0.1,0.3-0.2,0.6-0.2C388.1,44.4,388.3,44.5,388.4,44.6z M388.2,52.2l-0.1-4.4
		l1.3-0.1v4.4v3.4h-1.3L388.2,52.2z M390.3,44.6c0.1,0.1,0.2,0.3,0.2,0.5s-0.1,0.4-0.2,0.6c-0.1,0.1-0.3,0.2-0.5,0.2
		s-0.4-0.1-0.5-0.2c-0.1-0.1-0.2-0.3-0.2-0.6c0-0.2,0.1-0.4,0.2-0.6c0.1-0.1,0.3-0.2,0.6-0.2C390,44.4,390.1,44.5,390.3,44.6z"/>
	<path class="st1" d="M402.5,52.1v3.4h-1.3l0.1-3.3v-0.1h-3.8l0,3.4h-1.3l0.1-3.3l-0.1-4.5h1.3V51h3.7v-3.4h1.3V52.1z"/>
	<path class="st1" d="M411.2,48.6c0.6,0.7,0.9,1.7,0.9,2.9c0,1.3-0.3,2.3-0.9,3.1s-1.5,1.1-2.6,1.1s-1.9-0.3-2.5-1s-0.9-1.7-0.9-2.9
		c0-1.3,0.3-2.3,0.9-3.1c0.6-0.7,1.5-1.1,2.6-1.1C409.7,47.6,410.6,47.9,411.2,48.6z M407,49.3c-0.4,0.5-0.6,1.2-0.6,2.1
		c0,1.1,0.2,1.9,0.6,2.4s0.9,0.8,1.6,0.8s1.3-0.2,1.6-0.7c0.4-0.5,0.6-1.2,0.6-2.1c0-1.1-0.2-1.9-0.6-2.4c-0.4-0.6-0.9-0.8-1.6-0.8
		C407.9,48.5,407.4,48.8,407,49.3z"/>
	<path class="st1" d="M419.3,47.8l-0.1,0.9h-1.4h-1v3.4l0.1,3.4h-1.4l0.1-3.3v-3.5h-1h-1.4l-0.1-0.1l0.1-0.9L419.3,47.8L419.3,47.8z
		"/>
	<path class="st1" d="M421.3,52.2v-4.4l1.3-0.1v4.4v3.4h-1.3V52.2z M424.1,51.3c1,1.3,2.1,2.6,3.3,4v0.2c-0.2,0.1-0.5,0.1-0.7,0.2
		c-0.3,0-0.4,0.1-0.5,0.1l-0.1-0.1c-1.4-1.6-2.5-3-3.3-4.2v-0.1l2.5-2.9l0.4-0.7h1.5L424.1,51.3z"/>
	<path class="st1" d="M429.7,52.2l-0.1-4.5l1.3-0.1v5.9h0.1l3.5-5.9h1.3l-0.1,4.4l0.1,3.4h-1.3l0.1-3.2v-2.7h-0.1l-3.6,6h-1.3
		L429.7,52.2z"/>
</g>
<g class="st0">
	<path class="st1" d="M43.7,79.3c0,1.5-1.2,2.3-3.5,2.3c-0.7,0-1.4,0-2.2-0.1l0.1-3.3L38,73.7h2.7c0.9,0,1.5,0.2,2,0.5
		s0.7,0.8,0.7,1.4c0,0.4-0.1,0.8-0.3,1.1c-0.2,0.3-0.6,0.6-1,0.7C43.1,77.7,43.7,78.3,43.7,79.3z M41.9,80.3
		c0.4-0.2,0.6-0.6,0.6-1.1c0-0.8-0.5-1.2-1.5-1.3h-1.8V78v2.6c0.4,0,0.7,0.1,1.1,0.1C41,80.7,41.5,80.6,41.9,80.3z M40.2,74.5
		c-0.5,0-0.8,0-1.1,0V77l1.6,0.1c0.5-0.1,0.8-0.2,1-0.5c0.2-0.2,0.3-0.6,0.3-0.9C42.1,74.9,41.4,74.5,40.2,74.5z"/>
	<path class="st1" d="M50.6,74.1c0.4,0.4,0.6,0.9,0.6,1.5c0,0.2,0,0.9-0.1,2.1S51,79.6,51,79.8s0,0.4,0.1,0.5s0.2,0.1,0.4,0.1
		s0.4,0,0.6-0.1l0.1,0.1l-0.1,0.8c-0.3,0.2-0.7,0.3-1,0.3c-0.4,0-0.6-0.2-0.8-0.4c-0.2-0.2-0.3-0.5-0.3-0.9h-0.1
		c-0.6,0.6-1.2,1-1.8,1.3c-0.8,0-1.4-0.2-1.8-0.6c-0.4-0.4-0.6-0.9-0.6-1.6c0-0.5,0.1-0.9,0.4-1.2c0.3-0.3,0.7-0.5,1.2-0.6l2.8-0.6
		v-1.1c0-0.4-0.1-0.8-0.3-1s-0.6-0.4-1-0.4s-0.8,0.1-1.2,0.3c-0.4,0.2-0.8,0.5-1.2,0.8l-0.1-0.1l-0.2-1c0.9-0.7,1.9-1.1,2.9-1.1
		C49.6,73.6,50.2,73.8,50.6,74.1z M47.5,78.5c-0.2,0.1-0.4,0.2-0.5,0.3s-0.2,0.3-0.2,0.5c0,0.4,0.1,0.7,0.3,0.9
		c0.2,0.2,0.5,0.3,0.8,0.3c0.6,0,1.3-0.4,1.9-1.2l0.1-1.4L47.5,78.5z"/>
	<path class="st1" d="M60.8,78.1l0.1,3.4h-1.4l0.1-3.3v-0.1h-3.8l0.1,3.4h-1.4l0.1-3.3l-0.1-4.5h1.3V77h3.7v-3.4h1.3V78.1z"/>
	<path class="st1" d="M65.3,70.4c0.1,0.1,0.2,0.3,0.2,0.6c0,0.2-0.1,0.4-0.2,0.6c-0.1,0.1-0.3,0.2-0.6,0.2c-0.2,0-0.4-0.1-0.6-0.2
		c-0.1-0.1-0.2-0.3-0.2-0.6c0-0.2,0.1-0.4,0.2-0.6c0.1-0.1,0.3-0.2,0.6-0.2C65,70.2,65.1,70.3,65.3,70.4z M64.1,78.2L64,73.8
		l1.3-0.1v4.4v3.4H64L64.1,78.2z"/>
	<path class="st1" d="M73.8,78.1l0.1,3.4h-1.3l0.1-3.3v-3.6h-2l-0.2,0.7c-0.1,1.6-0.3,2.8-0.5,3.7c-0.2,0.9-0.5,1.5-0.8,1.9
		s-0.7,0.7-1.2,0.8h-0.3l-0.2-1c0.4-0.1,0.8-0.4,1-0.8s0.4-0.9,0.6-1.6c0.1-0.7,0.3-1.8,0.4-3.2l0.1-1.3l0,0h4.3L73.8,78.1z"/>
	<path class="st1" d="M78.3,70.4c0.1,0.1,0.2,0.3,0.2,0.6c0,0.2-0.1,0.4-0.2,0.6c-0.1,0.1-0.3,0.2-0.6,0.2c-0.2,0-0.4-0.1-0.6-0.2
		c-0.1-0.1-0.2-0.3-0.2-0.6c0-0.2,0.1-0.4,0.2-0.6c0.1-0.1,0.3-0.2,0.6-0.2C78,70.2,78.2,70.3,78.3,70.4z M77.1,78.2L77,73.8
		l1.3-0.1v4.4v3.4H77L77.1,78.2z"/>
	<path class="st1" d="M82.9,80.2c0.1,0.1,0.2,0.3,0.2,0.6c0,0.2-0.1,0.4-0.2,0.6c-0.1,0.1-0.3,0.2-0.6,0.2c-0.2,0-0.4-0.1-0.6-0.2
		c-0.1-0.1-0.2-0.3-0.2-0.6c0-0.2,0.1-0.4,0.2-0.6c0.1-0.1,0.3-0.2,0.6-0.2S82.8,80.1,82.9,80.2z"/>
	<path class="st1" d="M94.1,75.8l3.7,5.7h-1.6l-0.5-0.9l-2.5-3.7l-2.6,3.8l-0.4,0.8h-1.5l3.7-5.5l-3.6-5.4h1.7l0.5,0.9l2.3,3.5
		l2.3-3.5l0.4-0.9h1.5L94.1,75.8z"/>
	<path class="st1" d="M104.4,74.1c0.4,0.4,0.6,0.9,0.6,1.5c0,0.2,0,0.9-0.1,2.1s-0.1,1.9-0.1,2.1s0,0.4,0.1,0.5s0.2,0.1,0.4,0.1
		c0.2,0,0.4,0,0.6-0.1l0.1,0.1l-0.1,0.8c-0.3,0.2-0.7,0.3-1,0.3c-0.4,0-0.6-0.2-0.8-0.4c-0.2-0.2-0.3-0.5-0.3-0.9h-0.1
		c-0.6,0.6-1.2,1-1.8,1.3c-0.8,0-1.4-0.2-1.8-0.6s-0.6-0.9-0.6-1.6c0-0.5,0.1-0.9,0.4-1.2c0.3-0.3,0.7-0.5,1.2-0.6l2.8-0.6v-1.1
		c0-0.4-0.1-0.8-0.3-1c-0.2-0.2-0.6-0.4-1-0.4s-0.8,0.1-1.2,0.3c-0.4,0.2-0.8,0.5-1.2,0.8l-0.1-0.1l-0.2-1c0.9-0.7,1.9-1.1,2.9-1.1
		C103.4,73.6,103.9,73.8,104.4,74.1z M101.3,78.5c-0.2,0.1-0.4,0.2-0.5,0.3s-0.2,0.3-0.2,0.5c0,0.4,0.1,0.7,0.3,0.9s0.5,0.3,0.8,0.3
		c0.6,0,1.3-0.4,1.9-1.2l0.1-1.4L101.3,78.5z"/>
	<path class="st1" d="M113.6,78.1l0.1,3.4h-1.3l0.1-3.3v-3.6h-2l-0.1,0.6c-0.1,1.6-0.3,2.8-0.5,3.7c-0.2,0.9-0.5,1.5-0.8,1.9
		s-0.7,0.7-1.2,0.8h-0.3l-0.2-1c0.4-0.1,0.8-0.4,1-0.8s0.4-0.9,0.6-1.6c0.1-0.7,0.3-1.8,0.4-3.2l0.1-1.3l0,0h4.3L113.6,78.1z"/>
	<path class="st1" d="M122.6,79.3c0,1.5-1.2,2.3-3.5,2.3c-0.7,0-1.4,0-2.2-0.1l0.1-3.3l-0.1-4.5h2.7c0.9,0,1.5,0.2,2,0.5
		s0.7,0.8,0.7,1.4c0,0.4-0.1,0.8-0.3,1.1s-0.6,0.6-1,0.7C122,77.7,122.6,78.3,122.6,79.3z M120.8,80.3c0.4-0.2,0.6-0.6,0.6-1.1
		c0-0.8-0.5-1.2-1.5-1.3h-1.8V78v2.6c0.4,0,0.7,0.1,1.1,0.1C119.9,80.7,120.4,80.6,120.8,80.3z M119.2,74.5c-0.5,0-0.8,0-1.1,0V77
		l1.6,0.1c0.5-0.1,0.8-0.2,1-0.5c0.2-0.2,0.3-0.6,0.3-0.9C121,74.9,120.4,74.5,119.2,74.5z"/>
	<path class="st1" d="M129.5,74.1c0.4,0.4,0.6,0.9,0.6,1.5c0,0.2,0,0.9-0.1,2.1s-0.1,1.9-0.1,2.1s0,0.4,0.1,0.5s0.2,0.1,0.4,0.1
		s0.4,0,0.6-0.1l0.1,0.1l-0.1,0.8c-0.3,0.2-0.7,0.3-1,0.3c-0.4,0-0.6-0.2-0.8-0.4c-0.2-0.2-0.3-0.5-0.3-0.9h-0.1
		c-0.6,0.6-1.2,1-1.8,1.3c-0.8,0-1.4-0.2-1.8-0.6s-0.6-0.9-0.6-1.6c0-0.5,0.1-0.9,0.4-1.2c0.3-0.3,0.7-0.5,1.2-0.6l2.8-0.6v-1.1
		c0-0.4-0.1-0.8-0.3-1c-0.2-0.2-0.6-0.4-1-0.4s-0.8,0.1-1.2,0.3c-0.4,0.2-0.8,0.5-1.2,0.8l-0.1-0.1l-0.2-1c0.9-0.7,1.9-1.1,2.9-1.1
		C128.5,73.6,129.1,73.8,129.5,74.1z M126.4,78.5c-0.2,0.1-0.4,0.2-0.5,0.3s-0.2,0.3-0.2,0.5c0,0.4,0.1,0.7,0.3,0.9s0.5,0.3,0.8,0.3
		c0.6,0,1.3-0.4,1.9-1.2l0.1-1.4L126.4,78.5z"/>
	<path class="st1" d="M142.8,79.3c0,1.5-1.2,2.3-3.5,2.3c-0.7,0-1.4,0-2.2-0.1l0.1-3.3l-0.1-4.5h2.7c0.9,0,1.5,0.2,2,0.5
		s0.7,0.8,0.7,1.4c0,0.4-0.1,0.8-0.3,1.1s-0.6,0.6-1,0.7C142.2,77.7,142.8,78.3,142.8,79.3z M141,80.3c0.4-0.2,0.6-0.6,0.6-1.1
		c0-0.8-0.5-1.2-1.5-1.3h-1.8V78v2.6c0.4,0,0.7,0.1,1.1,0.1C140.1,80.7,140.6,80.6,141,80.3z M139.3,74.5c-0.5,0-0.8,0-1.1,0V77
		l1.6,0.1c0.5-0.1,0.8-0.2,1-0.5c0.2-0.2,0.3-0.6,0.3-0.9C141.2,74.9,140.6,74.5,139.3,74.5z"/>
	<path class="st1" d="M145.4,78.2l-0.1-4.5l1.3-0.1v5.9h0.1l3.5-5.9h1.3l-0.1,4.4l0.1,3.5h-1.3l0.1-3.2v-2.8h-0.1l-3.6,6h-1.3
		L145.4,78.2z"/>
	<path class="st1" d="M159.3,73.8l-0.1,0.9h-1.8H156v3.4l0.1,3.4h-1.3l0.1-3.3l-0.1-4.5L159.3,73.8L159.3,73.8z"/>
	<path class="st1" d="M166.1,74.6c0.6,0.7,0.9,1.7,0.9,2.9c0,1.3-0.3,2.3-0.9,3.1s-1.5,1.1-2.6,1.1s-1.9-0.3-2.5-1s-0.9-1.7-0.9-2.9
		c0-1.3,0.3-2.3,0.9-3.1c0.6-0.7,1.5-1.1,2.6-1.1C164.7,73.6,165.5,73.9,166.1,74.6z M161.9,75.3c-0.4,0.5-0.6,1.2-0.6,2.1
		c0,1.1,0.2,1.9,0.6,2.4s0.9,0.8,1.6,0.8c0.7,0,1.3-0.2,1.6-0.7c0.4-0.5,0.6-1.2,0.6-2.1c0-1.1-0.2-1.9-0.6-2.4
		c-0.4-0.6-0.9-0.8-1.6-0.8C162.9,74.5,162.3,74.8,161.9,75.3z"/>
	<path class="st1" d="M174.3,73.8l-0.1,0.9h-1.4h-1v3.4l0.1,3.4h-1.4l0.1-3.3v-3.5h-1h-1.4l-0.1-0.1l0.1-0.9L174.3,73.8L174.3,73.8z
		"/>
	<path class="st1" d="M181.3,74.6c0.6,0.7,0.9,1.7,0.9,2.9c0,1.3-0.3,2.3-0.9,3.1s-1.5,1.1-2.6,1.1s-1.9-0.3-2.5-1s-0.9-1.7-0.9-2.9
		c0-1.3,0.3-2.3,0.9-3.1c0.6-0.7,1.5-1.1,2.6-1.1C179.9,73.6,180.7,73.9,181.3,74.6z M177.1,75.3c-0.4,0.5-0.6,1.2-0.6,2.1
		c0,1.1,0.2,1.9,0.6,2.4s0.9,0.8,1.6,0.8c0.7,0,1.3-0.2,1.6-0.7c0.4-0.5,0.6-1.2,0.6-2.1c0-1.1-0.2-1.9-0.6-2.4
		c-0.4-0.6-0.9-0.8-1.6-0.8C178,74.5,177.5,74.8,177.1,75.3z"/>
	<path class="st1" d="M190.4,79.3c0,1.5-1.2,2.3-3.5,2.3c-0.7,0-1.4,0-2.2-0.1l0.1-3.3l-0.1-4.5h2.7c0.9,0,1.5,0.2,2,0.5
		s0.7,0.8,0.7,1.4c0,0.4-0.1,0.8-0.3,1.1s-0.6,0.6-1,0.7C189.9,77.7,190.4,78.3,190.4,79.3z M188.6,80.3c0.4-0.2,0.6-0.6,0.6-1.1
		c0-0.8-0.5-1.2-1.5-1.3h-1.8V78v2.6c0.4,0,0.7,0.1,1.1,0.1C187.7,80.7,188.3,80.6,188.6,80.3z M187,74.5c-0.5,0-0.8,0-1.1,0V77
		l1.6,0.1c0.5-0.1,0.8-0.2,1-0.5c0.2-0.2,0.3-0.6,0.3-0.9C188.8,74.9,188.2,74.5,187,74.5z"/>
	<path class="st1" d="M198.2,78.1l0.1,3.4H197l0.1-3.3v-3.6h-2l-0.1,0.6c-0.1,1.6-0.3,2.8-0.5,3.7c-0.2,0.9-0.5,1.5-0.8,1.9
		s-0.7,0.7-1.2,0.8h-0.3l-0.2-1c0.4-0.1,0.8-0.4,1-0.8s0.4-0.9,0.6-1.6c0.1-0.7,0.3-1.8,0.4-3.2l0.1-1.3l0,0h4.3L198.2,78.1z"/>
	<path class="st1" d="M202.1,77.6L202.1,77.6c0,1,0.2,1.7,0.6,2.2s1,0.8,1.8,0.8c0.4,0,0.8-0.1,1.2-0.2s0.8-0.3,1.1-0.6l0.1,0.1
		l-0.2,1.2c-0.8,0.4-1.6,0.6-2.4,0.6c-1.1,0-2-0.4-2.6-1.1s-1-1.7-1-2.9c0-1.2,0.3-2.2,1-3c0.6-0.7,1.5-1.1,2.6-1.1
		c0.9,0,1.6,0.3,2.1,0.8s0.7,1.2,0.7,2.2c0,0.3,0,0.6-0.1,0.9l-0.2,0.2L202.1,77.6z M203,75.1c-0.4,0.4-0.6,0.9-0.8,1.6l3.8-0.1
		v-0.2c0-0.6-0.1-1-0.4-1.3c-0.3-0.3-0.7-0.5-1.2-0.5C203.8,74.5,203.4,74.7,203,75.1z"/>
	<path class="st1" d="M216.3,78.1l0.1,3.4h-1.3l0.1-3.3v-0.1h-3.8l0.1,3.4h-1.3l0.1-3.3l-0.1-4.5h1.3V77h3.7v-3.4h1.3L216.3,78.1z"
		/>
	<path class="st1" d="M223.9,74.1c0.4,0.4,0.6,0.9,0.6,1.5c0,0.2,0,0.9-0.1,2.1s-0.1,1.9-0.1,2.1s0,0.4,0.1,0.5s0.2,0.1,0.4,0.1
		s0.4,0,0.6-0.1l0.1,0.1l-0.1,0.8c-0.3,0.2-0.7,0.3-1,0.3c-0.4,0-0.6-0.2-0.8-0.4c-0.2-0.2-0.3-0.5-0.3-0.9h-0.1
		c-0.6,0.6-1.2,1-1.8,1.3c-0.8,0-1.4-0.2-1.8-0.6S219,80,219,79.3c0-0.5,0.1-0.9,0.4-1.2c0.3-0.3,0.7-0.5,1.2-0.6l2.8-0.6v-1.1
		c0-0.4-0.1-0.8-0.3-1s-0.6-0.4-1-0.4s-0.8,0.1-1.2,0.3c-0.4,0.2-0.8,0.5-1.2,0.8l-0.1-0.1l-0.2-1c0.9-0.7,1.9-1.1,2.9-1.1
		C222.9,73.6,223.5,73.8,223.9,74.1z M220.8,78.5c-0.2,0.1-0.4,0.2-0.5,0.3s-0.2,0.3-0.2,0.5c0,0.4,0.1,0.7,0.3,0.9s0.5,0.3,0.8,0.3
		c0.6,0,1.3-0.4,1.9-1.2l0.1-1.4L220.8,78.5z"/>
	<path class="st1" d="M236.1,79.3c0,0.7-0.3,1.3-0.8,1.7c-0.6,0.4-1.3,0.6-2.2,0.6c-0.4,0-0.8-0.1-1.2-0.2s-0.7-0.2-1-0.4l0.2-1
		l0.1-0.1c0.3,0.2,0.6,0.3,0.9,0.5c0.3,0.1,0.7,0.2,1,0.2c0.5,0,1-0.1,1.3-0.4c0.3-0.2,0.5-0.6,0.5-1c0-0.3-0.1-0.6-0.3-0.8
		c-0.2-0.2-0.5-0.3-0.9-0.4H232l-0.1-0.1l0.1-0.8h1.6c0.3-0.1,0.5-0.3,0.7-0.5s0.3-0.5,0.3-0.8s-0.1-0.6-0.4-0.8
		c-0.2-0.2-0.6-0.3-1.1-0.3c-0.7,0-1.3,0.2-2,0.6l-0.2-0.1l0.1-1.1c0.6-0.4,1.3-0.5,2.1-0.5s1.4,0.2,1.9,0.5s0.7,0.8,0.7,1.4
		c0,0.4-0.1,0.8-0.3,1.1c-0.2,0.3-0.5,0.6-0.9,0.8C235.6,77.7,236.1,78.3,236.1,79.3z"/>
	<path class="st1" d="M247.4,74.6c0.6,0.7,0.9,1.7,0.9,2.9c0,1.3-0.3,2.3-0.9,3.1s-1.5,1.1-2.6,1.1s-1.9-0.3-2.5-1s-0.9-1.7-0.9-2.9
		c0-1.3,0.3-2.3,0.9-3.1c0.6-0.7,1.5-1.1,2.6-1.1S246.8,73.9,247.4,74.6z M243.3,75.3c-0.4,0.5-0.6,1.2-0.6,2.1
		c0,1.1,0.2,1.9,0.6,2.4s0.9,0.8,1.6,0.8c0.7,0,1.3-0.2,1.6-0.7c0.4-0.5,0.6-1.2,0.6-2.1c0-1.1-0.2-1.9-0.6-2.4
		c-0.4-0.6-0.9-0.8-1.6-0.8C244.2,74.5,243.6,74.8,243.3,75.3z"/>
	<path class="st1" d="M256.6,74.8c0.5,0.6,0.8,1.5,0.8,2.8s-0.3,2.3-0.9,3c-0.6,0.7-1.5,1-2.6,1c-1.2,0-2-0.4-2.5-1.2
		s-0.8-2.2-0.8-4c0-1.1,0.1-2,0.3-2.7s0.5-1.2,0.9-1.7c0.4-0.4,0.9-0.8,1.6-1l1.6-0.6c0.4-0.1,0.7-0.3,1-0.4
		c0.3-0.1,0.6-0.3,0.9-0.6l0.2,0.1l0.1,1.1c-0.5,0.3-1.1,0.6-1.9,0.9l-1.6,0.5c-0.6,0.2-1,0.5-1.3,1.1c-0.3,0.5-0.4,1.2-0.4,2.2v0.2
		h0.1c0.7-0.8,1.5-1.3,2.4-1.5C255.3,73.9,256.1,74.2,256.6,74.8z M255.6,80c0.4-0.5,0.5-1.2,0.5-2.1s-0.2-1.6-0.5-2.1
		s-0.8-0.7-1.4-0.7c-0.8,0-1.6,0.5-2.4,1.5c0,1.5,0.2,2.5,0.5,3.2c0.3,0.6,0.9,1,1.6,1C254.7,80.7,255.2,80.4,255.6,80z"/>
	<path class="st1" d="M263.8,73.7c0.4,0.1,0.7,0.2,1,0.3l-0.2,1.2l-0.2,0.1c-0.6-0.4-1.2-0.6-1.8-0.6c-0.7,0-1.2,0.3-1.6,0.8
		s-0.6,1.2-0.6,2.1s0.2,1.6,0.6,2.2c0.4,0.5,0.9,0.8,1.6,0.8c0.3,0,0.6-0.1,1-0.2c0.3-0.1,0.6-0.2,0.9-0.4l0.2,0.1l-0.2,1.1
		c-0.7,0.3-1.4,0.4-2.1,0.4c-1,0-1.8-0.4-2.4-1.1s-0.9-1.7-0.9-2.9c0-1.3,0.3-2.3,0.9-3s1.5-1.1,2.5-1.1
		C263.1,73.6,263.4,73.6,263.8,73.7z"/>
	<path class="st1" d="M267.8,73.7h1.3l0.4,1.2l1.5,4.2h0.1l1.7-4.2l0.4-1.1h1.3l0.7,7.8h-1.1l-0.2-2.4l-0.3-3.5h-0.1l-2.1,5.1h-1
		l-1.9-5.1h-0.1L268,79l-0.2,2.7h-1L267.8,73.7z"/>
	<path class="st1" d="M282.6,74.1c0.4,0.4,0.6,0.9,0.6,1.5c0,0.2,0,0.9-0.1,2.1s-0.1,1.9-0.1,2.1s0,0.4,0.1,0.5s0.2,0.1,0.4,0.1
		c0.2,0,0.4,0,0.6-0.1l0.1,0.1l-0.1,0.8c-0.3,0.2-0.7,0.3-1,0.3c-0.4,0-0.6-0.2-0.8-0.4c-0.2-0.2-0.3-0.5-0.3-0.9h-0.1
		c-0.6,0.6-1.2,1-1.8,1.3c-0.8,0-1.4-0.2-1.8-0.6s-0.6-0.9-0.6-1.6c0-0.5,0.1-0.9,0.4-1.2c0.3-0.3,0.7-0.5,1.2-0.6l2.8-0.6v-1.1
		c0-0.4-0.1-0.8-0.3-1c-0.2-0.2-0.6-0.4-1-0.4s-0.8,0.1-1.2,0.3c-0.4,0.2-0.8,0.5-1.2,0.8l-0.1-0.1l-0.2-1c0.9-0.7,1.9-1.1,2.9-1.1
		C281.6,73.6,282.2,73.8,282.6,74.1z M279.5,78.5c-0.2,0.1-0.4,0.2-0.5,0.3s-0.2,0.3-0.2,0.5c0,0.4,0.1,0.7,0.3,0.9s0.5,0.3,0.8,0.3
		c0.6,0,1.3-0.4,1.9-1.2l0.1-1.4L279.5,78.5z"/>
	<path class="st1" d="M286.3,81.6c-0.3,0-0.5-0.1-0.7-0.2v-0.2c1.2-1.3,2.2-2.7,3.2-4l-3-3.6h1.4l0.5,0.7l2.4,2.9v0.1
		c-0.8,1.2-1.9,2.6-3.2,4.2l-0.2,0.1C286.7,81.6,286.5,81.6,286.3,81.6z M290.2,78.2l-0.1-4.5h1.3l-0.1,4.4l0.2,3.4h-1.3V78.2z
		 M294.7,81.6c-1.4-1.7-2.5-3.1-3.2-4.2v-0.1l2.4-2.9l0.4-0.7h1.5l-3,3.6c1,1.4,2.1,2.7,3.2,4v0.2c-0.2,0.1-0.4,0.1-0.7,0.2
		c-0.3,0-0.4,0.1-0.5,0.1L294.7,81.6z"/>
	<path class="st1" d="M298.5,77.6L298.5,77.6c0,1,0.2,1.7,0.6,2.2s1,0.8,1.8,0.8c0.4,0,0.8-0.1,1.2-0.2c0.4-0.1,0.8-0.3,1.1-0.6
		l0.1,0.1l-0.2,1.2c-0.8,0.4-1.6,0.6-2.4,0.6c-1.1,0-2-0.4-2.6-1.1s-1-1.7-1-2.9c0-1.2,0.3-2.2,1-3c0.6-0.7,1.5-1.1,2.6-1.1
		c0.9,0,1.6,0.3,2.1,0.8s0.7,1.2,0.7,2.2c0,0.3,0,0.6-0.1,0.9l-0.2,0.2L298.5,77.6z M299.3,75.1c-0.4,0.4-0.6,0.9-0.8,1.6l3.8-0.1
		v-0.2c0-0.6-0.1-1-0.4-1.3s-0.7-0.5-1.2-0.5C300.2,74.5,299.7,74.7,299.3,75.1z"/>
	<path class="st1" d="M312.6,78.1l0.1,3.4h-1.3l0.1-3.3v-0.1h-3.8l0.1,3.4h-1.3l0.1-3.3l-0.1-4.5h1.3V77h3.7v-3.4h1.3L312.6,78.1z"
		/>
	<path class="st1" d="M321.3,74.6c0.6,0.7,0.9,1.7,0.9,2.9c0,1.3-0.3,2.3-0.9,3.1s-1.5,1.1-2.6,1.1s-1.9-0.3-2.5-1s-0.9-1.7-0.9-2.9
		c0-1.3,0.3-2.3,0.9-3.1c0.6-0.7,1.5-1.1,2.6-1.1S320.7,73.9,321.3,74.6z M317.1,75.3c-0.4,0.5-0.6,1.2-0.6,2.1
		c0,1.1,0.2,1.9,0.6,2.4s0.9,0.8,1.6,0.8s1.3-0.2,1.6-0.7c0.4-0.5,0.6-1.2,0.6-2.1c0-1.1-0.2-1.9-0.6-2.4c-0.4-0.6-0.9-0.8-1.6-0.8
		C318.1,74.5,317.5,74.8,317.1,75.3z"/>
	<path class="st1" d="M329.2,73.8l-0.1,0.9h-1.8h-1.4v3.4l0.1,3.4h-1.3l0.1-3.3l-0.1-4.5L329.2,73.8L329.2,73.8z"/>
	<path class="st1" d="M336.1,74.6c0.6,0.7,0.9,1.7,0.9,2.9c0,1.3-0.3,2.3-0.9,3.1s-1.5,1.1-2.6,1.1s-1.9-0.3-2.5-1s-0.9-1.7-0.9-2.9
		c0-1.3,0.3-2.3,0.9-3.1c0.6-0.7,1.5-1.1,2.6-1.1S335.5,73.9,336.1,74.6z M331.9,75.3c-0.4,0.5-0.6,1.2-0.6,2.1
		c0,1.1,0.2,1.9,0.6,2.4s0.9,0.8,1.6,0.8s1.3-0.2,1.6-0.7c0.4-0.5,0.6-1.2,0.6-2.1c0-1.1-0.2-1.9-0.6-2.4c-0.4-0.6-0.9-0.8-1.6-0.8
		C332.8,74.5,332.3,74.8,331.9,75.3z"/>
	<path class="st1" d="M347.9,78.1v3.4h-1.2v-2.9h-1.5c-0.5,0.8-1.1,1.8-1.8,2.9l-0.2,0.1c-0.5,0-0.8-0.1-1.1-0.2v-0.2
		c0.9-1,1.6-1.9,2.2-2.8c-0.6-0.2-1-0.5-1.3-0.8s-0.4-0.8-0.4-1.4c0-0.7,0.3-1.3,0.8-1.8s1.2-0.7,2-0.7h2.5V78.1z M344.3,75
		c-0.3,0.3-0.4,0.7-0.4,1.2c0,0.4,0.1,0.8,0.4,1.1s0.6,0.5,1.1,0.6l1.4-0.1v-3.2h-1.2C345,74.6,344.6,74.7,344.3,75z"/>
	<path class="st1" d="M357.8,80.5v2.8l-0.9,0.1l-0.2-1.9h-5.6l-0.2,1.8l-0.9,0.1v-2.9h0.6c0.3-0.2,0.6-0.5,0.8-0.9
		c0.2-0.4,0.4-0.9,0.5-1.6s0.3-1.7,0.4-2.9l0.1-1.3h4.2v4.4v2.4L357.8,80.5L357.8,80.5z M355.5,78.2v-3.6h-2l-0.1,0.6
		c-0.1,1.6-0.3,2.8-0.6,3.5c-0.2,0.8-0.5,1.4-0.9,1.7h3.6V78.2z"/>
	<path class="st1" d="M366.2,74.6c0.5,0.6,0.8,1.6,0.8,2.8c0,1.4-0.3,2.4-1,3.2s-1.6,1.1-2.8,1.1c-0.5,0-1-0.1-1.5-0.2v3.2h-1.2
		l0.1-6.4l-0.1-4.4l1.3-0.1v1.1h0.1c0.4-0.3,0.8-0.6,1.1-0.7c0.3-0.2,0.7-0.3,1.1-0.4C365,73.6,365.7,74,366.2,74.6z M365.1,79.9
		c0.4-0.5,0.6-1.3,0.6-2.2c0-0.9-0.2-1.7-0.5-2.2s-0.8-0.7-1.4-0.7c-0.4,0-0.7,0.1-1,0.3c-0.3,0.2-0.7,0.5-1.1,0.9v2.2v2.1
		c0.6,0.3,1.1,0.4,1.7,0.4C364.2,80.7,364.7,80.4,365.1,79.9z"/>
	<path class="st1" d="M373.9,74.1c0.4,0.4,0.6,0.9,0.6,1.5c0,0.2,0,0.9-0.1,2.1s-0.1,1.9-0.1,2.1s0,0.4,0.1,0.5s0.2,0.1,0.4,0.1
		c0.2,0,0.4,0,0.6-0.1l0.1,0.1l-0.1,0.8c-0.3,0.2-0.7,0.3-1,0.3c-0.4,0-0.6-0.2-0.8-0.4c-0.2-0.2-0.3-0.5-0.3-0.9h-0.1
		c-0.6,0.6-1.2,1-1.8,1.3c-0.8,0-1.4-0.2-1.8-0.6S369,80,369,79.3c0-0.5,0.1-0.9,0.4-1.2c0.3-0.3,0.7-0.5,1.2-0.6l2.8-0.6v-1.1
		c0-0.4-0.1-0.8-0.3-1c-0.2-0.2-0.6-0.4-1-0.4s-0.8,0.1-1.2,0.3c-0.4,0.2-0.8,0.5-1.2,0.8l-0.1-0.1l-0.2-1c0.9-0.7,1.9-1.1,2.9-1.1
		C372.9,73.6,373.5,73.8,373.9,74.1z M370.8,78.5c-0.2,0.1-0.4,0.2-0.5,0.3s-0.2,0.3-0.2,0.5c0,0.4,0.1,0.7,0.3,0.9s0.5,0.3,0.8,0.3
		c0.6,0,1.3-0.4,1.9-1.2l0.1-1.4L370.8,78.5z"/>
</g>
<g class="st0">
	<path class="st1" d="M41.7,99.7c0.4,0.1,0.7,0.2,1,0.3l-0.2,1.2l-0.2,0.1c-0.6-0.4-1.2-0.6-1.8-0.6c-0.7,0-1.2,0.3-1.6,0.8
		s-0.6,1.2-0.6,2.1s0.2,1.6,0.6,2.2c0.4,0.5,0.9,0.8,1.6,0.8c0.3,0,0.6-0.1,1-0.2c0.3-0.1,0.6-0.2,0.9-0.4l0.2,0.1l-0.2,1.1
		c-0.7,0.3-1.4,0.4-2.1,0.4c-1,0-1.8-0.4-2.4-1.1c-0.6-0.7-0.9-1.7-0.9-2.9c0-1.3,0.3-2.3,0.9-3c0.6-0.7,1.5-1.1,2.5-1.1
		C40.9,99.6,41.3,99.6,41.7,99.7z"/>
	<path class="st1" d="M50.6,100.6c0.6,0.7,0.9,1.7,0.9,2.9c0,1.3-0.3,2.3-0.9,3.1c-0.6,0.7-1.5,1.1-2.6,1.1s-1.9-0.3-2.5-1
		s-0.9-1.7-0.9-2.9c0-1.3,0.3-2.3,0.9-3.1s1.5-1.1,2.6-1.1C49.2,99.6,50,99.9,50.6,100.6z M46.4,101.3c-0.4,0.5-0.6,1.2-0.6,2.1
		c0,1.1,0.2,1.9,0.6,2.4c0.4,0.5,0.9,0.8,1.6,0.8c0.7,0,1.3-0.2,1.6-0.7c0.4-0.5,0.6-1.2,0.6-2.1c0-1.1-0.2-1.9-0.6-2.4
		c-0.4-0.6-0.9-0.8-1.6-0.8C47.4,100.5,46.8,100.8,46.4,101.3z"/>
	<path class="st1" d="M60.2,104.1l0.1,3.4H59l0.1-3.3v-0.1h-3.8l0.1,3.4h-1.3l0.1-3.3l-0.1-4.5h1.3v3.3h3.7v-3.4h1.3L60.2,104.1z"/>
	<path class="st1" d="M68.6,104.1v3.4h-1.2v-2.9h-1.5c-0.5,0.8-1.1,1.8-1.8,2.9l-0.2,0.1c-0.5,0-0.8-0.1-1.1-0.2v-0.2
		c0.9-1,1.6-1.9,2.2-2.8c-0.6-0.2-1-0.5-1.3-0.8c-0.3-0.3-0.4-0.8-0.4-1.4c0-0.7,0.3-1.3,0.8-1.8c0.5-0.5,1.2-0.7,2-0.7h2.5
		L68.6,104.1z M64.9,101c-0.3,0.3-0.4,0.7-0.4,1.2c0,0.4,0.1,0.8,0.4,1.1s0.6,0.5,1.1,0.6l1.4-0.1v-3.2h-1.2
		C65.6,100.6,65.2,100.7,64.9,101z"/>
	<path class="st1" d="M81,104.1v3.4h-9.2l0.1-3.3l-0.1-4.5H73l-0.1,4.4v2.4h2.8l0.1-2.3l-0.1-4.5h1.2l-0.1,4.4v2.4h2.8v-2.3v-4.5
		h1.2L81,104.1z"/>
	<path class="st1" d="M90.5,104.1l0.1,3.4h-1.3l0.1-3.3v-0.1h-3.8l0.1,3.4h-1.3l0.1-3.3l-0.1-4.5h1.3v3.3h3.7v-3.4h1.3L90.5,104.1z"
		/>
	<path class="st1" d="M93.8,104.2l-0.1-4.5l1.3-0.1v5.9h0.1l3.5-5.9h1.3l-0.1,4.4l0.1,3.4h-1.3l0.1-3.2v-2.7h-0.1l-3.6,6h-1.3
		L93.8,104.2z"/>
	<path class="st1" d="M103.2,104.2v-4.4l1.3-0.1v4.4v3.4h-1.3V104.2z M106.1,103.3c1,1.3,2.1,2.6,3.3,4v0.2
		c-0.2,0.1-0.5,0.1-0.7,0.2c-0.3,0-0.4,0.1-0.5,0.1l-0.1-0.1c-1.4-1.6-2.5-3-3.3-4.2v-0.1l2.5-2.9l0.4-0.7h1.5L106.1,103.3z"/>
	<path class="st1" d="M111.9,100.7l1.9,5.4h0.1l1.9-5.3l0.3-1.1h1.2l-2.8,7.5c-0.3,0.8-0.6,1.4-0.9,1.8s-0.7,0.8-1.2,1
		s-1.1,0.5-1.8,0.7h-0.1c-0.2-0.2-0.4-0.5-0.6-0.8v-0.2c0.9-0.2,1.5-0.4,2-0.7s0.9-0.8,1.3-1.6l-2.9-7.8l1.3-0.1L111.9,100.7z"/>
	<path class="st1" d="M119.7,107.2c0,0.7-0.5,1.5-1.6,2.3l-0.5-0.4V109c0.6-0.5,0.9-1,0.9-1.5c0-0.3-0.2-0.6-0.5-0.8v-0.2
		c0.3-0.2,0.6-0.4,0.9-0.4C119.5,106.3,119.7,106.7,119.7,107.2z"/>
	<path class="st1" d="M133.3,109.3l-0.9,0.1l-0.2-1.9h-6.1l0.1-3.3l-0.1-4.5h1.3l-0.1,4.4v2.4h3.4v-2.3l-0.1-4.5h1.3v4.4v2.4h1.2
		v2.8H133.3z"/>
	<path class="st1" d="M135.9,100.7l1.9,5.4h0.1l1.9-5.3l0.3-1.1h1.2l-2.8,7.5c-0.3,0.8-0.6,1.4-0.9,1.8c-0.3,0.4-0.7,0.8-1.2,1
		s-1.1,0.5-1.8,0.7h-0.1c-0.2-0.2-0.4-0.5-0.6-0.8v-0.2c0.9-0.2,1.5-0.4,2-0.7s0.9-0.8,1.3-1.6l-2.9-7.8l1.3-0.1L135.9,100.7z"/>
	<path class="st1" d="M143.5,104.2v-4.4l1.3-0.1v4.4v3.4h-1.3V104.2z M146.4,103.3c1,1.3,2.1,2.6,3.3,4v0.2
		c-0.2,0.1-0.5,0.1-0.7,0.2c-0.3,0-0.4,0.1-0.5,0.1l-0.1-0.1c-1.4-1.6-2.5-3-3.3-4.2v-0.1l2.5-2.9l0.4-0.7h1.5L146.4,103.3z"/>
	<path class="st1" d="M157.6,100.6c0.5,0.6,0.8,1.6,0.8,2.8c0,1.4-0.3,2.4-1,3.2s-1.6,1.1-2.8,1.1c-0.5,0-1-0.1-1.5-0.2v3.2h-1.3
		l0.1-6.4l-0.1-4.4l1.3-0.1v1.1h0.1c0.4-0.3,0.8-0.6,1.1-0.7c0.3-0.2,0.7-0.3,1.1-0.4C156.4,99.6,157.1,100,157.6,100.6z
		 M156.5,105.9c0.4-0.5,0.6-1.3,0.6-2.2c0-0.9-0.2-1.7-0.5-2.2s-0.8-0.7-1.4-0.7c-0.4,0-0.7,0.1-1,0.3c-0.3,0.2-0.7,0.5-1.1,0.9v2.2
		v2.1c0.6,0.3,1.1,0.4,1.7,0.4C155.5,106.7,156.1,106.4,156.5,105.9z"/>
	<path class="st1" d="M161.1,100.7l1.9,5.4h0.1l1.9-5.3l0.3-1.1h1.2l-2.8,7.5c-0.3,0.8-0.6,1.4-0.9,1.8c-0.3,0.4-0.7,0.8-1.2,1
		s-1.1,0.5-1.8,0.7h-0.1c-0.2-0.2-0.4-0.5-0.6-0.8v-0.2c0.9-0.2,1.5-0.4,2-0.7s0.9-0.8,1.3-1.6l-2.9-7.8l1.3-0.1L161.1,100.7z"/>
	<path class="st1" d="M168.9,107.2c0,0.7-0.5,1.5-1.6,2.3l-0.5-0.4V109c0.6-0.5,0.9-1,0.9-1.5c0-0.3-0.2-0.6-0.5-0.8v-0.2
		c0.3-0.2,0.6-0.4,0.9-0.4C168.7,106.3,168.9,106.7,168.9,107.2z"/>
	<path class="st1" d="M181.4,104.7v2.8h-1.3l0.1-2.6v-4.2h-3.5v4v2.8h-1.3l0.1-2.6l-0.1-5.2h6.1L181.4,104.7z"/>
	<path class="st1" d="M189,100.1c0.4,0.4,0.6,0.9,0.6,1.5c0,0.2,0,0.9-0.1,2.1s-0.1,1.9-0.1,2.1s0,0.4,0.1,0.5s0.2,0.1,0.4,0.1
		s0.4,0,0.6-0.1l0.1,0.1l-0.1,0.8c-0.3,0.2-0.7,0.3-1,0.3c-0.4,0-0.6-0.2-0.8-0.4c-0.2-0.2-0.3-0.5-0.3-0.9h-0.1
		c-0.6,0.6-1.2,1-1.8,1.3c-0.8,0-1.4-0.2-1.8-0.6s-0.6-0.9-0.6-1.6c0-0.5,0.1-0.9,0.4-1.2c0.3-0.3,0.7-0.5,1.2-0.6l2.8-0.6v-1.1
		c0-0.4-0.1-0.8-0.3-1s-0.6-0.4-1-0.4s-0.8,0.1-1.2,0.3c-0.4,0.2-0.8,0.5-1.2,0.8l-0.1-0.1l-0.2-1c0.9-0.7,1.9-1.1,2.9-1.1
		C188,99.6,188.6,99.8,189,100.1z M185.9,104.5c-0.2,0.1-0.4,0.2-0.5,0.3s-0.2,0.3-0.2,0.5c0,0.4,0.1,0.7,0.3,0.9s0.5,0.3,0.8,0.3
		c0.6,0,1.3-0.4,1.9-1.2l0.1-1.4L185.9,104.5z"/>
	<path class="st1" d="M197.7,99.8l-0.1,0.9h-1.4h-1v3.4l0.1,3.4H194l0.1-3.3v-3.5h-1h-1.4l-0.1-0.1l0.1-0.9h6.1L197.7,99.8z"/>
	<path class="st1" d="M204.7,100.6c0.6,0.7,0.9,1.7,0.9,2.9c0,1.3-0.3,2.3-0.9,3.1s-1.5,1.1-2.6,1.1s-1.9-0.3-2.5-1
		s-0.9-1.7-0.9-2.9c0-1.3,0.3-2.3,0.9-3.1c0.6-0.7,1.5-1.1,2.6-1.1S204.1,99.9,204.7,100.6z M200.5,101.3c-0.4,0.5-0.6,1.2-0.6,2.1
		c0,1.1,0.2,1.9,0.6,2.4s0.9,0.8,1.6,0.8c0.7,0,1.3-0.2,1.6-0.7c0.4-0.5,0.6-1.2,0.6-2.1c0-1.1-0.2-1.9-0.6-2.4
		c-0.4-0.6-0.9-0.8-1.6-0.8C201.4,100.5,200.9,100.8,200.5,101.3z"/>
	<path class="st1" d="M208.1,104.2v-4.4l1.3-0.1v4.4v3.4h-1.3V104.2z M211,103.3c1,1.3,2.1,2.6,3.3,4v0.2c-0.2,0.1-0.5,0.1-0.7,0.2
		c-0.3,0-0.4,0.1-0.5,0.1l-0.1-0.1c-1.4-1.6-2.5-3-3.3-4.2v-0.1l2.5-2.9l0.4-0.7h1.5L211,103.3z"/>
	<path class="st1" d="M216.5,104.2l-0.1-4.5l1.3-0.1v5.9h0.1l3.5-5.9h1.3l-0.1,4.4l0.1,3.4h-1.3l0.1-3.2v-2.7h-0.1l-3.6,6h-1.3
		L216.5,104.2z"/>
	<path class="st1" d="M227.5,107.2c0,0.7-0.5,1.5-1.6,2.3l-0.5-0.4V109c0.6-0.5,0.9-1,0.9-1.5c0-0.3-0.2-0.6-0.5-0.8v-0.2
		c0.3-0.2,0.6-0.4,0.9-0.4C227.3,106.3,227.5,106.7,227.5,107.2z"/>
	<path class="st1" d="M239,104.1l0.1,3.4h-1.3l0.1-3.3v-3.6h-2l-0.1,0.6c-0.1,1.6-0.3,2.8-0.5,3.7c-0.2,0.9-0.5,1.5-0.8,1.9
		s-0.7,0.7-1.2,0.8H233l-0.2-1c0.4-0.1,0.8-0.4,1-0.8s0.4-0.9,0.6-1.6c0.1-0.7,0.3-1.8,0.4-3.2l0.1-1.3l0,0h4.3L239,104.1z"/>
	<path class="st1" d="M246.6,100.1c0.4,0.4,0.6,0.9,0.6,1.5c0,0.2,0,0.9-0.1,2.1s-0.1,1.9-0.1,2.1s0,0.4,0.1,0.5s0.2,0.1,0.4,0.1
		s0.4,0,0.6-0.1l0.1,0.1l-0.1,0.8c-0.3,0.2-0.7,0.3-1,0.3c-0.4,0-0.6-0.2-0.8-0.4c-0.2-0.2-0.3-0.5-0.3-0.9h-0.1
		c-0.6,0.6-1.2,1-1.8,1.3c-0.8,0-1.4-0.2-1.8-0.6s-0.6-0.9-0.6-1.6c0-0.5,0.1-0.9,0.4-1.2c0.3-0.3,0.7-0.5,1.2-0.6l2.8-0.6v-1.1
		c0-0.4-0.1-0.8-0.3-1s-0.6-0.4-1-0.4s-0.8,0.1-1.2,0.3c-0.4,0.2-0.8,0.5-1.2,0.8l-0.1-0.1l-0.2-1c0.9-0.7,1.9-1.1,2.9-1.1
		C245.6,99.6,246.2,99.8,246.6,100.1z M243.5,104.5c-0.2,0.1-0.4,0.2-0.5,0.3s-0.2,0.3-0.2,0.5c0,0.4,0.1,0.7,0.3,0.9
		s0.5,0.3,0.8,0.3c0.6,0,1.3-0.4,1.9-1.2l0.1-1.4L243.5,104.5z"/>
	<path class="st1" d="M250.6,104.2v-4.4l1.3-0.1v4.4v3.4h-1.3V104.2z M253.5,103.3c1,1.3,2.1,2.6,3.3,4v0.2
		c-0.2,0.1-0.5,0.1-0.7,0.2c-0.3,0-0.4,0.1-0.5,0.1l-0.1-0.1c-1.4-1.6-2.5-3-3.3-4.2v-0.1l2.5-2.9l0.4-0.7h1.5L253.5,103.3z"/>
	<path class="st1" d="M264.7,100.6c0.5,0.6,0.8,1.6,0.8,2.8c0,1.4-0.3,2.4-1,3.2s-1.6,1.1-2.8,1.1c-0.5,0-1-0.1-1.5-0.2v3.2h-1.3
		l0.1-6.4l-0.1-4.4l1.3-0.1v1.1h0.1c0.4-0.3,0.8-0.6,1.1-0.7c0.3-0.2,0.7-0.3,1.1-0.4C263.5,99.6,264.2,100,264.7,100.6z
		 M263.6,105.9c0.4-0.5,0.6-1.3,0.6-2.2c0-0.9-0.2-1.7-0.5-2.2s-0.8-0.7-1.4-0.7c-0.4,0-0.7,0.1-1,0.3c-0.3,0.2-0.7,0.5-1.1,0.9v2.2
		v2.1c0.6,0.3,1.1,0.4,1.7,0.4C262.6,106.7,263.2,106.4,263.6,105.9z"/>
	<path class="st1" d="M268.1,104.2l-0.1-4.5l1.3-0.1v5.9h0.1l3.5-5.9h1.3l-0.1,4.4l0.1,3.4h-1.3l0.1-3.2v-2.7h-0.1l-3.6,6H268
		L268.1,104.2z"/>
	<path class="st1" d="M282.6,104.1l0.1,3.4h-1.3l0.1-3.3v-0.1h-0.1c-0.5,0.4-1.1,0.7-1.8,0.9c-0.9,0-1.6-0.2-2-0.5
		c-0.4-0.4-0.6-0.9-0.6-1.7v-3.1h1.3v2.8c0,0.5,0.1,0.9,0.3,1.1c0.2,0.2,0.5,0.4,1,0.4c0.7,0,1.3-0.3,1.9-0.8v-3.4h1.3L282.6,104.1z
		"/>
	<path class="st1" d="M292.1,104.1l0.1,3.4h-1.3l0.1-3.3v-0.1h-3.8l0.1,3.4H286l0.1-3.3l-0.1-4.5h1.3v3.3h3.7v-3.4h1.3L292.1,104.1z
		"/>
	<path class="st1" d="M300.8,100.6c0.6,0.7,0.9,1.7,0.9,2.9c0,1.3-0.3,2.3-0.9,3.1s-1.5,1.1-2.6,1.1s-1.9-0.3-2.5-1
		s-0.9-1.7-0.9-2.9c0-1.3,0.3-2.3,0.9-3.1c0.6-0.7,1.5-1.1,2.6-1.1S300.2,99.9,300.8,100.6z M296.6,101.3c-0.4,0.5-0.6,1.2-0.6,2.1
		c0,1.1,0.2,1.9,0.6,2.4s0.9,0.8,1.6,0.8s1.3-0.2,1.6-0.7c0.4-0.5,0.6-1.2,0.6-2.1c0-1.1-0.2-1.9-0.6-2.4c-0.4-0.6-0.9-0.8-1.6-0.8
		C297.5,100.5,297,100.8,296.6,101.3z"/>
	<path class="st1" d="M308.7,99.8l-0.1,0.9h-1.8h-1.3v3.4l0.1,3.4h-1.3l0.1-3.3l-0.1-4.5L308.7,99.8L308.7,99.8z"/>
	<path class="st1" d="M315.5,100.6c0.6,0.7,0.9,1.7,0.9,2.9c0,1.3-0.3,2.3-0.9,3.1s-1.5,1.1-2.6,1.1s-1.9-0.3-2.5-1
		s-0.9-1.7-0.9-2.9c0-1.3,0.3-2.3,0.9-3.1c0.6-0.7,1.5-1.1,2.6-1.1S315,99.9,315.5,100.6z M311.4,101.3c-0.4,0.5-0.6,1.2-0.6,2.1
		c0,1.1,0.2,1.9,0.6,2.4s0.9,0.8,1.6,0.8s1.3-0.2,1.6-0.7c0.4-0.5,0.6-1.2,0.6-2.1c0-1.1-0.2-1.9-0.6-2.4c-0.4-0.6-0.9-0.8-1.6-0.8
		C312.3,100.5,311.7,100.8,311.4,101.3z"/>
	<path class="st1" d="M322.5,104.2v-4.4l1.3-0.1v4.4v3.4h-1.3V104.2z M325.4,103.3c1,1.3,2.1,2.6,3.3,4v0.2
		c-0.2,0.1-0.5,0.1-0.7,0.2c-0.3,0-0.4,0.1-0.5,0.1l-0.1-0.1c-1.4-1.6-2.5-3-3.3-4.2v-0.1l2.5-2.9l0.4-0.7h1.5L325.4,103.3z"/>
	<path class="st1" d="M335.8,100.6c0.6,0.7,0.9,1.7,0.9,2.9c0,1.3-0.3,2.3-0.9,3.1s-1.5,1.1-2.6,1.1s-1.9-0.3-2.5-1
		s-0.9-1.7-0.9-2.9c0-1.3,0.3-2.3,0.9-3.1c0.6-0.7,1.5-1.1,2.6-1.1S335.3,99.9,335.8,100.6z M331.7,101.3c-0.4,0.5-0.6,1.2-0.6,2.1
		c0,1.1,0.2,1.9,0.6,2.4s0.9,0.8,1.6,0.8s1.3-0.2,1.6-0.7c0.4-0.5,0.6-1.2,0.6-2.1c0-1.1-0.2-1.9-0.6-2.4c-0.4-0.6-0.9-0.8-1.6-0.8
		C332.6,100.5,332,100.8,331.7,101.3z"/>
	<path class="st1" d="M345.1,100.6c0.5,0.6,0.8,1.6,0.8,2.8c0,1.4-0.3,2.4-1,3.2s-1.6,1.1-2.8,1.1c-0.5,0-1-0.1-1.5-0.2v3.2h-1.3
		l0.1-6.4l-0.1-4.4l1.3-0.1v1.1h0.1c0.4-0.3,0.8-0.6,1.1-0.7c0.3-0.2,0.7-0.3,1.1-0.4C343.9,99.6,344.6,100,345.1,100.6z M344,105.9
		c0.4-0.5,0.6-1.3,0.6-2.2c0-0.9-0.2-1.7-0.5-2.2s-0.8-0.7-1.4-0.7c-0.4,0-0.7,0.1-1,0.3c-0.3,0.2-0.7,0.5-1.1,0.9v2.2v2.1
		c0.6,0.3,1.1,0.4,1.7,0.4C343.1,106.7,343.6,106.4,344,105.9z"/>
	<path class="st1" d="M349.1,103.6L349.1,103.6c0,1,0.2,1.7,0.6,2.2s1,0.8,1.8,0.8c0.4,0,0.8-0.1,1.2-0.2c0.4-0.1,0.8-0.3,1.1-0.6
		l0.1,0.1l-0.2,1.2c-0.8,0.4-1.6,0.6-2.4,0.6c-1.1,0-2-0.4-2.6-1.1s-1-1.7-1-2.9c0-1.2,0.3-2.2,1-3c0.6-0.7,1.5-1.1,2.6-1.1
		c0.9,0,1.6,0.3,2.1,0.8s0.7,1.2,0.7,2.2c0,0.3,0,0.6-0.1,0.9l-0.2,0.2L349.1,103.6z M349.9,101.1c-0.4,0.4-0.6,0.9-0.8,1.6l3.8-0.1
		v-0.2c0-0.6-0.1-1-0.4-1.3s-0.7-0.5-1.2-0.5C350.8,100.5,350.3,100.7,349.9,101.1z"/>
	<path class="st1" d="M363.2,104.1l0.1,3.4H362l0.1-3.3v-0.1h-3.8l0.1,3.4h-1.3l0.1-3.3l-0.1-4.5h1.3v3.3h3.7v-3.4h1.3L363.2,104.1z
		"/>
	<path class="st1" d="M371.5,104.1v3.4h-1.2v-2.9h-1.5c-0.5,0.8-1.1,1.8-1.8,2.9l-0.2,0.1c-0.5,0-0.8-0.1-1.1-0.2v-0.2
		c0.9-1,1.6-1.9,2.2-2.8c-0.6-0.2-1-0.5-1.3-0.8s-0.4-0.8-0.4-1.4c0-0.7,0.3-1.3,0.8-1.8s1.2-0.7,2-0.7h2.5V104.1z M367.9,101
		c-0.3,0.3-0.4,0.7-0.4,1.2c0,0.4,0.1,0.8,0.4,1.1s0.6,0.5,1.1,0.6l1.4-0.1v-3.2h-1.2C368.6,100.6,368.2,100.7,367.9,101z"/>
	<path class="st1" d="M383.1,99.8l-0.1,0.9h-1.4h-1v3.4l0.1,3.4h-1.3l0.1-3.3v-3.5h-1h-1.4l-0.1-0.1l0.1-0.9h6.1L383.1,99.8z"/>
	<path class="st1" d="M389.3,100.1c0.4,0.4,0.6,0.9,0.6,1.5c0,0.2,0,0.9-0.1,2.1s-0.1,1.9-0.1,2.1s0,0.4,0.1,0.5s0.2,0.1,0.4,0.1
		c0.2,0,0.4,0,0.6-0.1l0.1,0.1l-0.1,0.8c-0.3,0.2-0.7,0.3-1,0.3c-0.4,0-0.6-0.2-0.8-0.4c-0.2-0.2-0.3-0.5-0.3-0.9h-0.1
		c-0.6,0.6-1.2,1-1.8,1.3c-0.8,0-1.4-0.2-1.8-0.6s-0.6-0.9-0.6-1.6c0-0.5,0.1-0.9,0.4-1.2c0.3-0.3,0.7-0.5,1.2-0.6l2.8-0.6v-1.1
		c0-0.4-0.1-0.8-0.3-1c-0.2-0.2-0.6-0.4-1-0.4s-0.8,0.1-1.2,0.3c-0.4,0.2-0.8,0.5-1.2,0.8l-0.1-0.1l-0.2-1c0.9-0.7,1.9-1.1,2.9-1.1
		C388.3,99.6,388.9,99.8,389.3,100.1z M386.2,104.5c-0.2,0.1-0.4,0.2-0.5,0.3s-0.2,0.3-0.2,0.5c0,0.4,0.1,0.7,0.3,0.9
		s0.5,0.3,0.8,0.3c0.6,0,1.3-0.4,1.9-1.2l0.1-1.4L386.2,104.5z"/>
	<path class="st1" d="M402.6,105.3c0,1.5-1.2,2.3-3.5,2.3c-0.7,0-1.4,0-2.2-0.1l0.1-3.3l-0.1-4.5h2.7c0.9,0,1.5,0.2,2,0.5
		s0.7,0.8,0.7,1.4c0,0.4-0.1,0.8-0.3,1.1s-0.6,0.6-1,0.7C402,103.7,402.6,104.3,402.6,105.3z M400.8,106.3c0.4-0.2,0.6-0.6,0.6-1.1
		c0-0.8-0.5-1.2-1.5-1.3h-1.8v0.1v2.6c0.4,0,0.7,0.1,1.1,0.1C399.8,106.7,400.4,106.6,400.8,106.3z M399.1,100.5c-0.5,0-0.8,0-1.1,0
		v2.5l1.6,0.1c0.5-0.1,0.8-0.2,1-0.5c0.2-0.2,0.3-0.6,0.3-0.9C400.9,100.9,400.3,100.5,399.1,100.5z"/>
	<path class="st1" d="M409.5,100.1c0.4,0.4,0.6,0.9,0.6,1.5c0,0.2,0,0.9-0.1,2.1s-0.1,1.9-0.1,2.1s0,0.4,0.1,0.5s0.2,0.1,0.4,0.1
		c0.2,0,0.4,0,0.6-0.1l0.1,0.1l-0.1,0.8c-0.3,0.2-0.7,0.3-1,0.3c-0.4,0-0.6-0.2-0.8-0.4c-0.2-0.2-0.3-0.5-0.3-0.9h-0.1
		c-0.6,0.6-1.2,1-1.8,1.3c-0.8,0-1.4-0.2-1.8-0.6s-0.6-0.9-0.6-1.6c0-0.5,0.1-0.9,0.4-1.2c0.3-0.3,0.7-0.5,1.2-0.6l2.8-0.6v-1.1
		c0-0.4-0.1-0.8-0.3-1c-0.2-0.2-0.6-0.4-1-0.4s-0.8,0.1-1.2,0.3c-0.4,0.2-0.8,0.5-1.2,0.8l-0.1-0.1l-0.2-1c0.9-0.7,1.9-1.1,2.9-1.1
		C408.5,99.6,409.1,99.8,409.5,100.1z M406.4,104.5c-0.2,0.1-0.4,0.2-0.5,0.3s-0.2,0.3-0.2,0.5c0,0.4,0.1,0.7,0.3,0.9
		s0.5,0.3,0.8,0.3c0.6,0,1.3-0.4,1.9-1.2l0.1-1.4L406.4,104.5z"/>
	<path class="st1" d="M419.7,104.1l0.1,3.4h-1.3l0.1-3.3v-0.1h-3.8l0.1,3.4h-1.3l0.1-3.3l-0.1-4.5h1.3v3.3h3.7v-3.4h1.3L419.7,104.1
		z"/>
	<path class="st1" d="M424.2,96.4c0.1,0.1,0.2,0.3,0.2,0.6c0,0.2-0.1,0.4-0.2,0.6c-0.1,0.1-0.3,0.2-0.6,0.2c-0.2,0-0.4-0.1-0.6-0.2
		c-0.1-0.1-0.2-0.3-0.2-0.6c0-0.2,0.1-0.4,0.2-0.6c0.1-0.1,0.3-0.2,0.6-0.2C423.8,96.2,424,96.3,424.2,96.4z M423,104.2l-0.1-4.4
		l1.3-0.1v4.4v3.4h-1.3L423,104.2z"/>
	<path class="st1" d="M432.7,104.1l0.1,3.4h-1.3l0.1-3.3v-3.6h-2l-0.1,0.6c-0.1,1.6-0.3,2.8-0.5,3.7c-0.2,0.9-0.5,1.5-0.8,1.9
		s-0.7,0.7-1.2,0.8h-0.3l-0.2-1c0.4-0.1,0.8-0.4,1-0.8s0.4-0.9,0.6-1.6c0.1-0.7,0.3-1.8,0.4-3.2l0.1-1.3l0,0h4.3L432.7,104.1z"/>
	<path class="st1" d="M437.2,96.4c0.1,0.1,0.2,0.3,0.2,0.6c0,0.2-0.1,0.4-0.2,0.6c-0.1,0.1-0.3,0.2-0.6,0.2c-0.2,0-0.4-0.1-0.6-0.2
		c-0.1-0.1-0.2-0.3-0.2-0.6c0-0.2,0.1-0.4,0.2-0.6c0.1-0.1,0.3-0.2,0.6-0.2C436.9,96.2,437.1,96.3,437.2,96.4z M436,104.2l-0.1-4.4
		l1.3-0.1v4.4v3.4h-1.3L436,104.2z"/>
	<path class="st1" d="M446.7,104.1l0.1,3.4h-1.3l0.1-3.3v-0.1h-3.8l0.1,3.4h-1.4l0.1-3.3l-0.1-4.5h1.3v3.3h3.7v-3.4h1.3L446.7,104.1
		z"/>
	<path class="st1" d="M450.2,100.7l1.9,5.4h0.1l1.9-5.3l0.3-1.1h1.2l-2.8,7.5c-0.3,0.8-0.6,1.4-0.9,1.8s-0.7,0.8-1.2,1
		s-1.1,0.5-1.8,0.7h-0.1c-0.2-0.2-0.4-0.5-0.6-0.8v-0.2c0.9-0.2,1.5-0.4,2-0.7s0.9-0.8,1.3-1.6l-2.9-7.8l1.3-0.1L450.2,100.7z"/>
	<path class="st1" d="M457.7,106.2c0.1,0.1,0.2,0.3,0.2,0.6c0,0.2-0.1,0.4-0.2,0.6c-0.1,0.1-0.3,0.2-0.6,0.2c-0.2,0-0.4-0.1-0.6-0.2
		c-0.1-0.1-0.2-0.3-0.2-0.6c0-0.2,0.1-0.4,0.2-0.6c0.1-0.1,0.3-0.2,0.6-0.2C457.4,106,457.6,106.1,457.7,106.2z"/>
</g>
<path class="st2" d="M492.5,152.5H1.5V1.5h491V152.5z M3.5,150.5h487V3.5H3.5V150.5z"/>
</svg>
