<?xml version="1.0" encoding="utf-8"?>
<!-- Generator: Adobe Illustrator 21.1.0, SVG Export Plug-In . SVG Version: 6.00 Build 0)  -->
<svg version="1.1" id="Слой_1" xmlns="http://www.w3.org/2000/svg" xmlns:xlink="http://www.w3.org/1999/xlink" x="0px" y="0px"
	 viewBox="0 0 543 690" style="enable-background:new 0 0 543 690;" xml:space="preserve">
<style type="text/css">
	.st0{fill:#546AAE;}
	.st1{fill:#6881B5;}
	.st2{fill:none;stroke:#5973B5;stroke-width:4.5474;}
	.st3{fill:none;stroke:#FF7350;stroke-width:5.3053;}
	.st4{fill:none;stroke:#5973B5;stroke-width:3.417;}
	.st5{fill:none;stroke:#FF7350;stroke-width:3.9865;}
	.st6{fill:#A0A5B1;}
	.st7{fill:#BFC3CA;stroke:#999BA0;stroke-width:1.8834;}
	.st8{fill:#767A86;}
	.st9{fill:none;stroke:#5973B5;stroke-width:6;}
	.st10{fill:#FF5250;}
	.st11{fill:#FF7350;}
	.st12{fill:none;stroke:#FF7350;stroke-width:7;}
	.st13{fill:#FAA600;}
	.st14{fill:#FAC73C;}
	.st15{fill:none;stroke:#5973B5;stroke-width:5.1495;}
	.st16{fill:none;stroke:#FF7350;stroke-width:6.0077;}
	.st17{fill:#BFC3CA;stroke:#999BA0;stroke-width:1.2782;}
</style>
<title>price</title>
<desc>Created with Sketch.</desc>
<g id="Group">
	<path id="Path" class="st0" d="M201.5,442c-0.2,3.7-1.1,15.3-9.7,24.8c-11.1,12.3-27.6,12.8-35.7,13c-29.7,0.9-52.2-16.7-61.7-24.4
		c-21.5-17.3-21.3-28.2-42-49C33.5,387.7,13.9,377,0.8,371.1c4.7-2.1,11.4-4.8,19.5-7.2c5.5-1.7,23.3-6.6,48-6.8
		c15.2-0.1,42.8,0,73.7,14c12.6,5.7,30.3,13.9,44.6,32.6C193,412,202.6,424.8,201.5,442z"/>
	<path id="Path_1_" class="st0" d="M188.2,440c3.2,1.9,13.1,7.9,25.8,6.4c16.5-2,26.3-15.2,31.2-21.7c17.8-23.8,16.4-52.3,15.6-64.6
		c-1.8-27.6-10.8-33.6-15.8-62.5c-4.6-26.2-1.9-48.3,0.8-62.5c-4.5,2.7-10.4,6.6-17.1,11.8c-4.5,3.6-18.8,15.2-33.2,35.4
		c-8.9,12.4-24.7,35-31.1,68.3c-2.6,13.6-6,32.8,1,55.2C168.6,415.8,173.6,430.9,188.2,440z"/>
	<path id="Path_2_" class="st1" d="M204.2,459.9c-3,2-13.3,8.7-27.2,8.9c-31.7,0.5-58.5-33.4-68.7-61.3c-6.6-17.9-6.7-34.1-6.8-61.4
		c-0.1-24.7,2.9-32.9,0.7-52c-2.5-21.9-9.7-39.1-15.3-50.1c7.2,3.1,17.5,7.6,29.6,13.7c25.1,12.7,46.2,23.4,67.2,42.4
		c13,11.8,28.6,26,38.8,50.4c3.9,9.2,13.2,32.4,7.9,61.3c-5.3,28.9-20,43.1-21,44C206.9,458.1,204.2,459.9,204.2,459.9z"/>
	<g id="Path_3_" transform="translate(213.157895, 150.717703)">
		<path class="st2" d="M15.6,309.6L15.6,309.6c-5.5-1.1-8.6-5.8-10.2-8.2c-5.8-8.7-4.7-18.6-4.1-22.9C2.4,269,5.7,267,8,257
			c2.2-9,1.7-16.8,1-21.9c1.5,1,3.6,2.5,5.8,4.5c1.5,1.3,6.2,5.7,10.9,13c1.7,2.6,4,6.5,6.1,11.6"/>
		<path class="st2" d="M27.8,314.8c3.6,3.5,8.6,3.9,11.2,4.1c10.4,0.9,18.6-4.8,22.1-7.3c7.9-5.6,8-9.4,15.7-16.3
			c6.9-6.2,14-9.5,18.7-11.3c-1.6-0.9-3.9-1.9-6.7-2.9c-1.9-0.7-8-2.8-16.6-3.3c-2-0.1-4.5-0.3-7.5-0.2"/>
		<path class="st3" d="M20.9,313.2c-1.1-0.5-5.1-2.4-7.7-6.4c-6-9.3-0.9-23.6,5.5-31.8c4.1-5.3,8.9-8.3,17-13.3
			c7.3-4.6,10.3-5.2,15.6-9.4c6.1-4.8,9.9-10.1,12.1-13.8c0.4,2.7,1,6.6,1.4,11.4c0.9,9.8,1.6,18.1-0.2,27.8
			c-1.1,6.1-2.5,13.3-7.8,20.8c-2,2.9-7.2,9.9-16.8,13.7C36,313.7,28.5,316.7,20.9,313.2z"/>
	</g>
	<g id="Path_4_" transform="translate(142.105263, 194.318182)">
		<path class="st4" d="M62.3,287.6L62.3,287.6c0.3,4.3-2.4,7.4-3.8,9c-5.1,5.9-12.5,7.2-15.7,7.7c-7.2,1.1-9.3-0.9-17-0.5
			c-7,0.3-12.5,2.3-16,3.8c0.4-1.3,1.1-3.1,2-5.1c0.6-1.3,2.9-5.7,7.2-10.6c1.6-1.7,3.8-4.3,7.1-6.8"/>
		<path class="st4" d="M63.5,277.7c1.8-3.3,1.1-7,0.7-8.9c-1.5-7.7-7.3-12.4-9.9-14.5c-5.7-4.5-8.5-3.9-15-8
			c-5.9-3.7-9.7-8.2-12.1-11.2c-0.3,1.3-0.6,3.2-0.8,5.4c-0.1,1.5-0.4,6.4,1,12.7c0.3,1.5,0.8,3.3,1.4,5.5"/>
		<path class="st5" d="M63.8,283c-0.2,0.9-0.6,4.1-3.1,6.9c-5.5,6.2-16.8,5.5-24.1,2.5c-4.6-1.9-7.8-4.7-13.1-9.5
			c-4.8-4.4-5.9-6.4-10-9.3c-4.7-3.4-9.4-5-12.5-5.9c1.9-0.9,4.6-2,7.9-3.3c6.9-2.6,12.8-4.8,20.1-5.6c4.6-0.4,10.1-1,16.7,1.3
			c2.5,0.9,8.7,3.2,13.3,9.3C61.1,271.9,64.7,276.8,63.8,283z"/>
	</g>
	<path id="Path_5_" class="st6" d="M176,689.3c-1.8-0.8,5.1-3.3,7.6-6.5c11.7-14.9,14.5-31.1,15-33.9c2.4-14.4,4.5-53.6-23.4-84.8
		c-3.9-4.4-24.7-26.8-55.7-31.5c-13.4-2-19.1,0.7-29.9-3.2c-18.9-6.9-29.6-25.6-35.5-40.4c0.2,6.4,0.6,15.6,1.6,26.6
		c2.7,28.4,4,42.6,10.5,54.1c13.1,23.1,38.2,32.3,42.8,33.9c17.3,6,23.1,1,39.6,8.9c6.9,3.3,21.7,10.4,28.3,25
		C187.1,660.2,177.9,690,176,689.3z"/>
	<path id="Path_6_" class="st7" d="M212.4,615.8c5.5-14.6,8.6-22.6,16.1-30.7c11.4-12.2,19.3-10.3,50.1-25.8
		c28.9-14.6,34.3-22.6,36.3-25.8c7.3-12.1-2.1-30.4-3.1-39c2.5,6.6,23.8,35.4,26.7,47.9c7.5,32.1,5.5,45.3-7.5,66.2
		c-16.3,26.1-55.4,30.9-60.6,31.5c-19.6,2.2-31-3.3-46.8,4.8c-12.1,6.2-19.3,16.5-23.4,24.2C202.3,646.1,207.7,628.1,212.4,615.8z"
		/>
	<path id="Path_7_" class="st8" d="M176.9,670.6c0.2-6.9-0.4-22.7-11.1-35.9c-17-21-47-19.9-50.2-19.8c-22.7,1.1-33.5,14.2-66,13.6
		c-3.2-0.1-5.9-0.2-7.5-0.4c2.4,2.5,5.9,5.8,10.4,9.3c5.3,4.2,20.9,15.8,36.2,19.8c28.2,7.1,42-15.4,65-7.5
		C165.2,653.8,172.6,663.3,176.9,670.6z"/>
	<path id="Path_8_" class="st7" d="M102.1,609.7c-3.1-1.1-7.1-2.8-11.5-5.2c0,0-8.6-4.7-15.9-11.5c-12.3-11.3-24.1-35.6-28-63
		c-1.4-9.7-2.4-23.8,0-40.9c-6.4,6.1-16.7,17.9-22.6,35.5c-2.6,7.9-12.8,38.6,4.3,63C43,608.4,72.6,617.4,102.1,609.7z"/>
	<path id="Path_9_" class="st8" d="M201.7,591c1-3.5,7.1-25.5-5.8-44.8c-12.8-19.2-39-27.9-64.3-20.2c10.1,3.6,27.6,11.2,44.1,27.5
		C189.9,567.3,197.6,581.8,201.7,591z"/>
	<path id="Path_10_" class="st9" d="M210.5,458.6c0.9-0.5,19.2,17.7,23.9,43c3.3,17.4,0.1,43-19.4,75.7c-8,13.4-7.9,28.7-7.5,41.6"
		/>
	<path id="Path_11_" class="st9" d="M209.1,480.1c2.4,1.9,5.8,5,9.2,9.2c2.7,3.3,8.7,11,11.3,22.6c0.8,3.6,1.6,8.9,1.1,15.6"/>
	<path id="Path_12_" class="st9" d="M232.8,466.6c-0.7,2.2-1.7,6-1.1,10.8c0.4,3.2,1.3,5.8,2.2,7.5"/>
</g>
<g id="Group_1_">
	<path id="Path_13_" class="st10" d="M360.1,469c0.4,3,1.7,12.2,9.1,19.3c9.5,9.2,22.8,8.7,29.3,8.5c23.8-1,40.8-16.3,48.1-23
		c16.3-15,15.5-23.7,30.9-41.5c13.9-16.1,29.1-25.7,39.2-31.1c-3.9-1.5-9.4-3.2-16-4.7c-4.5-1-18.9-4-38.8-2.8
		c-12.2,0.8-34.2,2.4-58.2,15.2c-9.8,5.3-23.5,12.8-33.9,28.5C365.2,444.6,358.3,455.4,360.1,469z"/>
	<path id="Path_14_" class="st10" d="M367.6,466.9c-2.4,1.7-10.1,7.1-20.3,6.5c-13.2-0.7-21.9-10.7-26.2-15.7
		c-15.6-18-16-40.9-16-50.8c-0.1-22.1,6.8-27.5,9.2-50.9c2.2-21.2-1.1-38.8-4-49.9c3.7,1.9,8.7,4.7,14.3,8.5
		c3.8,2.6,15.9,11.1,28.5,26.4c7.8,9.4,21.6,26.6,28.6,52.9c2.9,10.8,6.6,25.9,2.3,44.2C382,446.5,378.9,458.9,367.6,466.9z"/>
	<path id="Path_15_" class="st11" d="M355.9,483.7c2.5,1.4,11.1,6.2,22.2,5.7c25.4-1.3,44.9-29.9,51.6-52.8
		c4.3-14.7,3.4-27.7,2-49.5c-1.3-19.8-4.1-26.2-3.4-41.6c0.8-17.7,5.7-31.8,9.5-40.9c-5.6,2.9-13.6,7.1-22.9,12.6
		c-19.4,11.5-35.7,21.3-51.4,37.6c-9.7,10.2-21.4,22.4-28.3,42.4c-2.6,7.5-8.8,26.6-2.9,49.5C334.8,456.2,339.4,474.2,355.9,483.7z"
		/>
	<path id="Path_16_" class="st6" d="M357.4,632.7c6.6-7.9,16.5-22.3,19.4-42c5.1-35.1-15.7-64.2-27.5-80.7
		c-19.4-27.1-29.6-25.5-42.8-46c-10.7-16.6-20.6-43.6-14.5-88c-4.1,7.5-9.4,18.5-13.7,32.3c-5,15.7-13.6,43.2-7.3,73.5
		c8,38.3,36.9,65.6,46,74.3c13.7,13,24.1,18.3,32.3,34.7C357.2,606.3,358,621.8,357.4,632.7z"/>
	<path id="Path_17_" class="st8" d="M356.4,644.3c4.7-9.2,12.8-22.2,25.8-34.7c21.4-20.5,45.3-28.9,64.6-35.5
		c28.1-9.6,34.8-6.4,58.9-17c16.6-7.3,29.1-15.7,37.1-21.8c-2.7,8.8-7.3,20.8-15.3,33.9c-7.8,12.6-27.7,45.2-62.2,56.5
		c-29.1,9.5-41.7-4.7-81.5,7.3C371.9,636.6,362.5,641,356.4,644.3z"/>
	<path id="Path_18_" class="st6" d="M375.9,642.1c3.7-1.2,9.5-3,16.7-4.3c23-4.2,38.4,0.1,50.6,0.5c13.5,0.5,33.3-3,58.7-23.1
		c-0.8,5.3-2.9,14-8.6,22.6c-13.2,19.6-40.9,31.9-62.4,25.8c-13.4-3.7-18.2-12.8-41.4-18.8C383.7,643.3,379,642.5,375.9,642.1z"/>
	<path id="Path_19_" class="st9" d="M350.1,489.2c-6.7,17.7-6.1,31-4.3,39.8c4,19.2,15.3,26.1,21.5,47.4c4.3,14.9,3.7,28.2,2.4,37.2
		"/>
	<path id="Path_20_" class="st12" d="M351.7,631.3c0.6-4.5,1.1-12.4-1.6-21.5c-4.4-14.7-14.3-22.7-16.1-24.2
		c-11.9-9.5-24.9-10.2-29.1-10.2c2.5,2.5,6,6.2,9.7,11.3c7.3,10,9,16.6,12.9,23.1C331.3,616.2,338.2,624.3,351.7,631.3z"/>
	<path id="Path_21_" class="st12" d="M385.6,595.3c3.7-2.6,9.8-6.6,17.8-10.8c10.8-5.7,15.2-6.7,19.9-11.3c3.6-3.5,8.1-9.8,9.7-21.5
		c-3.7,1.2-9.2,3.3-15.6,6.5c-11.5,5.7-20,9.9-25.8,18.8C389.5,580.1,386.4,586.1,385.6,595.3z"/>
</g>
<g id="Group_2_">
	<path id="Path_22_" class="st9" d="M227.7,239.5c2.4,7.5,4.8,15.1,7.3,22.6"/>
	<g id="Path_23_">
		<path class="st13" d="M280.8,214.7c0.1,3.8,0.5,15.7,8.8,25.8c10.9,13.1,27.8,14.3,36.1,14.9c30.4,2.2,54.2-14.9,64.4-22.4
			c22.8-16.8,23-28,45.2-48.4c20-18.5,40.6-28.5,54.3-34.1c-4.8-2.4-11.5-5.4-19.7-8.2c-5.6-1.9-23.6-7.8-48.9-9
			c-15.6-0.8-43.9-1.8-76.2,11.2c-13.2,5.3-31.7,13-47.1,31.5C290.7,184.3,280.5,197,280.8,214.7z"/>
		<path class="st13" d="M290.6,213c-3.3,1.9-13.8,7.5-26.8,5.4c-16.8-2.7-26.4-16.7-31.1-23.6c-17.2-25.1-14.5-54.3-13.2-66.9
			c3-28.2,12.5-34.1,18.9-63.5c5.8-26.6,4-49.5,1.9-64.1c4.5,2.9,10.4,7.2,17.1,12.8c4.5,3.8,18.6,16.4,32.5,37.6
			c8.6,13.1,23.8,36.9,28.9,71.4c2.1,14,4.8,33.9-3.3,56.6C311.8,189.1,306,204.4,290.6,213z"/>
		<path class="st14" d="M278,232.7c3,2.2,13.3,9.5,27.5,10.3c32.4,1.9,61.4-31.8,73.1-59.9c7.5-18.1,8.3-34.7,9.6-62.7
			c1.1-25.3-1.6-33.9,1.5-53.3c3.5-22.4,11.6-39.7,17.8-50.7c-7.5,2.8-18.3,7.1-31,12.8c-26.3,11.9-48.4,22-70.7,40.6
			c-13.9,11.6-30.4,25.5-41.9,50c-4.4,9.3-15,32.7-10.7,62.5C255.1,194.9,258.4,218.4,278,232.7z"/>
		<g transform="translate(76.973684, 143.181818)">
			<path class="st15" d="M143.5,94.1L143.5,94.1c-4.1,4.9-10.5,5.4-13.7,5.7c-11.7,1-21-5.5-25-8.3c-8.9-6.4-9-10.7-17.7-18.5
				C79.2,65.9,71.2,62.1,66,60.1c1.8-0.9,4.4-2.2,7.6-3.3c2.2-0.8,9-3.1,18.8-3.7c3.5-0.2,8.6-0.5,14.7,0.3"/>
			<path class="st15" d="M155.3,84.7c5.4-1.7,8.6-6.4,10.2-8.9c6.5-9.8,5.3-21,4.7-25.9c-1.3-10.9-5-13.1-7.6-24.4
				c-2.4-10.3-1.8-19.1-1.1-24.8c-1.7,1.2-4,2.8-6.5,5.1c-1.7,1.5-7.1,6.5-12.4,14.7c-1.2,1.9-2.7,4.4-4.3,7.4"/>
			<path class="st16" d="M149.9,90.7c-1.1,0.9-5.1,3.8-10.6,4.1c-12.5,0.9-23.9-11.9-28.6-22.8c-3-6.9-3.4-13.3-4-24.2
				c-0.6-9.8,0.4-13.1-0.9-20.6c-1.5-8.6-4.7-15.3-7.2-19.5c2.9,1,7.1,2.6,12,4.8c10.2,4.5,18.8,8.2,27.6,15.3
				c5.4,4.4,11.9,9.7,16.5,19.1c1.7,3.6,6,12.5,4.5,24.1C158.6,75.9,157.5,85,149.9,90.7z"/>
		</g>
		<path class="st6" d="M187.8,262.8c-2.6-6.7-7.2-16.3-15.4-25.9c-13.4-15.8-29.3-23.4-42.3-29.3c-18.8-8.7-23.7-6.9-39.7-16
			c-11-6.2-19-13-24.2-17.8c1.2,6.3,3.6,15,8.2,24.7c4.5,9.4,15.9,33.4,39.1,43.7c19.5,8.7,29.2-0.3,56,10.9
			C177.6,256.3,183.8,260.1,187.8,262.8z"/>
		<path class="st7" d="M132.8,202.6c-6.4-1.3-16-4.3-25.6-11.4c-12.1-9-17.9-20.1-27.8-39.6c-3.7-7.3-8.5-17.6-13.2-30.6
			c7.4,3,17.9,8,28.9,16.5c8.1,6.2,19.6,15.3,28,31.4C126.6,175.5,131.6,186.9,132.8,202.6z"/>
		<path class="st17" d="M144.5,196.8c-3-3.2-7.3-8.6-10-16.1c-3.3-9.6-2.3-18.1-0.4-32.8c0.8-5.5,2-13.1,4.4-22.2
			c3,4.5,6.9,11.4,9.9,20.3c2.1,6.6,5.1,16.1,3.7,28.3C151.4,179.3,149.8,187.6,144.5,196.8z"/>
		<path class="st9" d="M271.3,234c-18.5,16.7-22.7,40-24.9,53.2"/>
	</g>
</g>
</svg>
