<?xml version="1.0" encoding="utf-8"?>
<!-- Generator: Adobe Illustrator 21.1.0, SVG Export Plug-In . SVG Version: 6.00 Build 0)  -->
<svg version="1.1" id="Слой_1" xmlns="http://www.w3.org/2000/svg" xmlns:xlink="http://www.w3.org/1999/xlink" x="0px" y="0px"
	 viewBox="0 0 941.8 380.3" style="enable-background:new 0 0 941.8 380.3;" xml:space="preserve" width="942px" height="380px">
<style type="text/css">
	.st0{fill:#391200;}
	.st1{opacity:0.52;enable-background:new    ;}
	.st2{fill:#DBFFFF;}
	.st3{fill:#3B4152;}
	.st4{fill:#6881B5;}
	.st5{fill:#FAC73C;}
	.st6{fill:#FAA600;}
	.st7{fill:#D90000;}
</style>
<g id="Group">
	<circle id="Oval" class="st0" cx="40.9" cy="52.2" r="4.1"/>

		<ellipse id="Oval_1_" transform="matrix(0.6276 -0.7786 0.7786 0.6276 -23.9312 41.6159)" class="st0" cx="31.5" cy="45.8" rx="4.5" ry="9"/>
	<path id="Path" class="st0" d="M35,47.2c-1.7-1.7-4.1-4.1-7.3-6.9c-6.1-5.5-9.5-8.5-14.9-11.7c-7.2-4.3-12.7-5.7-11.7-3.3
		c0.8,1.8,5.2,6.6,8.7,9.3c4.4,3.5,9.3,7.3,16.7,10.1C29.9,46,32.9,46.7,35,47.2z"/>
	<g class="st1">
		<path id="Path_2_" class="st2" d="M34.1,47.7c1.1,0.8,4.9-2.9,10.6-7.9C54.5,31,63,21.3,73.1,12.7c0.6-0.5,2.2-1.8,2.6-4
			c0.4-2.4-0.7-5.3-2.2-6.4c-7-4.6-32.4,25.6-38.5,40.4C34.4,44.1,33.2,47.1,34.1,47.7z"/>
		<path class="st3" d="M34.5,48.3c-0.2,0-0.4-0.1-0.6-0.2c-1.1-0.8-0.2-3.2,0.7-5.4l0-0.1C40.1,29.3,60.3,4.7,69.9,1.7
			c1.6-0.5,2.8-0.4,3.8,0.2c1.7,1.2,2.8,4.3,2.4,6.8c-0.3,1.6-1.2,3-2.7,4.2c-5.5,4.7-10.5,9.8-15.5,14.7
			c-4.1,4.2-8.4,8.4-12.9,12.5c-0.7,0.6-1.4,1.2-2,1.8C38.2,46.2,35.8,48.3,34.5,48.3z M71.7,2.2c-0.5,0-1,0.1-1.6,0.3
			c-9.4,2.9-29.3,27.2-34.8,40.4l0,0.1c-1.3,3.3-1.2,4.2-1,4.4l0,0c0.7,0.5,4.4-2.8,8-6.1c0.6-0.6,1.3-1.2,2-1.8
			c4.5-4,8.8-8.3,12.9-12.5c4.9-4.9,10-10,15.5-14.7c1.4-1.1,2.2-2.4,2.5-3.8c0.4-2.3-0.7-5.1-2-5.9C72.8,2.4,72.3,2.2,71.7,2.2z"/>
	</g>
	<g class="st1">
		<path id="Path_3_" class="st2" d="M33.3,48c1.1,0.5,3.6-3.5,7.3-9c6.6-9.7,11.7-19.9,18.5-29.5c0.4-0.5,1.5-2,1.3-4
			c-0.1-2.2-1.7-4.4-3.2-5c-7-2.5-22.2,28.9-24.2,43C32.8,44.8,32.4,47.6,33.3,48z"/>
		<path class="st3" d="M33.5,48.5c-0.1,0-0.2,0-0.4-0.1c-1.1-0.4-0.9-2.5-0.6-4.7l0-0.3C34.4,30.9,46.4,5.3,54,0.8
			c1.2-0.8,2.4-1,3.3-0.6c1.8,0.6,3.4,3.1,3.5,5.3c0.1,2-1,3.6-1.4,4.2c-3.6,5.2-6.9,10.6-10,15.8C46.8,30,44,34.7,41,39.2l-1.2,1.7
			C36.4,46.1,34.7,48.5,33.5,48.5z M56.4,0.8c-0.6,0-1.2,0.2-2,0.7c-7.4,4.5-19.2,29.7-21,42.1l0,0.3c-0.4,3-0.2,3.7,0.1,3.8l0,0
			c0.7,0.3,3.3-3.7,5.7-7.1l1.2-1.7c3-4.5,5.8-9.2,8.5-13.7c3.1-5.2,6.3-10.7,10-15.8c0.4-0.5,1.4-2,1.3-3.7c-0.1-2.1-1.6-4.1-3-4.6
			C56.9,0.8,56.6,0.8,56.4,0.8z"/>
	</g>
	<g class="st1">
		<path id="Path_4_" class="st2" d="M34,48.1c1.2,0.6-0.5,5.7-2.6,12.9c-3.7,12.7-9.3,25.2-12.6,38c-0.2,0.8-0.7,2.7-2.5,4
			c-2,1.5-4.8,1.5-6.4,0.5c-7.4-4.5,8.6-39.9,20-52.5C30.8,50,33,47.6,34,48.1z"/>
		<path class="st3" d="M12.6,104.7c-1.1,0-2.1-0.2-2.8-0.7c-1.1-0.6-1.7-1.8-2-3.6c-1.3-8.9,10-36.5,21.8-49.5
			c1.2-1.4,3.3-3.8,4.6-3.1c1.3,0.7,0.5,3.5-1.5,10.3c-0.3,1-0.6,2-0.9,3.1C30.1,67,28,72.8,25.9,78.5c-2.4,6.7-4.9,13.7-6.8,20.6
			l0,0.1c-0.2,0.8-0.8,2.8-2.6,4.1C15.3,104.3,13.9,104.7,12.6,104.7z M33.7,48.4c-0.5,0-1.9,1-3.4,2.9
			C20.4,62.2,7.1,90.3,8.6,100.3c0.2,1.5,0.7,2.5,1.6,3c1.4,0.8,4,0.8,5.9-0.5c1.6-1.1,2.1-2.9,2.3-3.7l0-0.1c1.8-7,4.4-14,6.8-20.7
			c2-5.7,4.2-11.5,5.8-17.3c0.3-1.1,0.6-2.1,0.9-3.1c1.3-4.4,2.7-9,1.9-9.4l0,0C33.8,48.5,33.7,48.4,33.7,48.4z"/>
	</g>
	<g class="st1">
		<path id="Path_5_" class="st2" d="M33.8,47.3c0.9,0.8-1.6,4.7-5,10.6c-5.9,10.1-13.3,19.8-19.1,30c-0.3,0.6-1.2,2.2-3,3
			c-2,0.8-4.4,0.1-5.5-1C-4,84.5,17,57.5,29.6,49C30.7,48.2,33.1,46.6,33.8,47.3z"/>
		<path class="st3" d="M4.9,91.5c-1.6,0-3.1-0.6-4-1.5c-0.7-0.7-1-1.9-0.9-3.4c0.9-9.1,18.5-30.7,29.4-38c2.6-1.8,4-2.3,4.7-1.7
			c1,0.9-0.3,3.2-3.6,8.8c-0.4,0.7-0.9,1.5-1.3,2.2c-2.8,4.7-5.9,9.4-8.9,13.9c-3.5,5.2-7.1,10.6-10.2,16.1
			c-0.8,1.5-1.9,2.6-3.2,3.1C6.3,91.4,5.6,91.5,4.9,91.5z M33.4,47.5c-0.3,0-1.3,0.2-3.5,1.8c-10.7,7.2-28.2,28.5-29,37.4
			c-0.1,1.2,0.1,2.2,0.7,2.7c1,1,3.3,1.7,5.1,0.9c1.1-0.5,2.1-1.4,2.8-2.8c3.1-5.5,6.7-10.9,10.2-16.1c3-4.5,6.1-9.2,8.9-13.8
			c0.5-0.8,0.9-1.5,1.3-2.2c2-3.4,4.3-7.3,3.8-7.8l0,0C33.6,47.6,33.5,47.5,33.4,47.5z"/>
	</g>
</g>
<g id="Group_1_" transform="translate(305.741627, 301.973684)">
	<path class="st0" d="M40.7,39.7l-0.9-0.8c1.7-1.8,3.8-3.3,6.1-4.5c2.6-1.3,5.4-2.1,8.3-2.3l0.1,1.2c-2.8,0.2-5.4,1-7.9,2.2
		C44.3,36.5,42.4,38,40.7,39.7z"/>
	<path class="st0" d="M37.8,37.9l-0.9-0.7c1.5-1.9,2.6-4,3.4-6.3c1.1-3.3,1.3-6.2,1.2-8.1l1.2-0.1c0.1,1.9,0,5-1.2,8.5
		C40.6,33.7,39.4,35.9,37.8,37.9z"/>
	<path id="Path_7_" class="st4" d="M32.1,46.3c-3.8,2.5-13.2-3.3-17.9-10.4c0,0-7.7-11.6-2.5-27.3c0.2-0.7,0.4-1.2,0.5-1.6
		c1.9-5.1,2.3-6.6,3.4-6.8c1-0.2,2.7,0.7,7.6,9.1c3.9,6.7,5.8,10,7.4,14.8C31.7,27.7,36.8,43.2,32.1,46.3z"/>
	<path id="Path_8_" class="st4" d="M30.7,47.7C29.2,52,37.1,59.8,45,62.6c0,0,13.1,4.7,27.1-4.1c0.6-0.4,1.1-0.7,1.4-0.9
		c4.5-3,5.8-3.8,5.8-4.9c-0.1-1-1.3-2.5-10.7-5.2c-7.4-2.2-11.1-3.2-16.1-3.6C48.8,43.5,32.5,42.3,30.7,47.7z"/>
	<path id="Path_9_" class="st4" d="M32.5,45.3c3.6-0.9,5.9,5,7.4,9.1c1.1,2.8,2.7,7.1,2.2,13.6c-0.3,2.9-0.9,5.4-1.4,7.2
		c-0.7,1.1-1.8,2.6-3.2,3c-3.1,1-5.5-3.4-6.6-5.7c-1.6-2.9-2-6.6-2.9-14c-0.6-5.4-0.6-7.7,0.9-10C29,48.2,30.6,45.8,32.5,45.3z"/>
	<path id="Path_10_" class="st4" d="M32.9,44.9c-0.1-3.7-6.4-4.3-10.8-4.7c-3-0.3-7.5-0.7-13.6,1.6c-2.7,1-5,2.3-6.6,3.3
		c-0.9,1-2,2.5-2,3.9c-0.2,3.3,4.8,4.4,7.2,4.8c3.2,0.7,6.9,0.1,14.3-1c5.3-0.8,7.6-1.5,9.4-3.5C31.1,49.1,33,47,32.9,44.9z"/>
	<circle id="Oval_2_" class="st0" cx="38" cy="39.4" r="3.2"/>

		<ellipse id="Oval_3_" transform="matrix(0.7047 -0.7095 0.7095 0.7047 -23.2073 36.5724)" class="st0" cx="32.3" cy="46.2" rx="6.9" ry="3.4"/>
	<path id="Path_11_" class="st0" d="M33.6,43.5c-1.5,1.1-3.5,2.9-5.9,5.1c-4.7,4.3-7.3,6.6-10.2,10.6c-3.9,5.2-0.8,6.2,1.2,5.7
		c1.4-0.4,0.8-0.4,3.2-2.9c3-3.1,6.4-6.6,9.1-12C32.3,47.4,33.1,45.2,33.6,43.5z"/>
</g>
<path class="st0" d="M901.1,57.4l-1.1-0.5c1.1-2.4,2.5-4.5,4.3-6.3c2-2.1,4.4-3.8,7-5l0.5,1.1c-2.5,1.2-4.8,2.8-6.7,4.8
	C903.5,53.1,902.1,55.1,901.1,57.4z"/>
<path class="st0" d="M897.8,56.8l-1.1-0.4c0.7-2.3,1.1-4.7,1-7.1c0-2.7-0.6-5.3-1.7-8l1.1-0.5c1.1,2.8,1.7,5.6,1.8,8.4
	C899,51.8,898.6,54.3,897.8,56.8z"/>
<path id="Path_14_" class="st5" d="M895.2,66.6c-2.7,3.6-13.6,1.4-20.4-3.7c0,0-11.2-8.2-11.7-24.8c0-0.8,0-1.3,0-1.7
	c0.1-5.4-0.1-6.9,0.9-7.5c0.9-0.5,2.8-0.3,10.3,6c5.9,5,8.9,7.4,11.9,11.4C888.6,49.2,898.6,62,895.2,66.6z"/>
<path id="Path_15_" class="st5" d="M894.4,68.4c0.1,4.5,10.1,9.1,18.6,9c0,0,13.9-0.1,24-13.1c0.4-0.6,0.8-1,1-1.3
	c3.2-4.4,4.1-5.5,3.7-6.6c-0.4-0.9-2.1-1.9-11.8-1.2c-7.7,0.5-11.6,0.8-16.4,2.2C910,58.2,894.3,62.7,894.4,68.4z"/>
<path id="Path_16_" class="st6" d="M895.4,65.5c3.1-2,7.2,2.7,10.1,6c2,2.3,5,5.8,6.6,12c0.8,2.9,1,5.4,1.1,7.3
	c-0.3,1.3-0.9,3-2,3.9c-2.6,2-6.3-1.3-8.1-3c-2.5-2.2-4.1-5.5-7.5-12.2c-2.4-4.8-3.2-7.1-2.6-9.7C893.1,69.4,893.7,66.6,895.4,65.5z
	"/>
<path id="Path_17_" class="st6" d="M895.6,65c-1.3-3.4-7.5-1.8-11.7-0.8c-2.9,0.8-7.3,1.9-12.3,6.1c-2.2,1.9-3.9,3.9-5,5.3
	c-0.5,1.2-1,3-0.6,4.4c1,3.1,6,2.4,8.5,2.1c3.3-0.4,6.6-2.3,13.1-5.9c4.7-2.6,6.6-4,7.6-6.5C895.3,69.5,896.4,66.9,895.6,65z"/>
<circle id="Oval_4_" class="st0" cx="898.5" cy="58.1" r="3.2"/>
<ellipse id="Oval_5_" transform="matrix(0.4197 -0.9077 0.9077 0.4197 459.4843 851.2465)" class="st0" cx="895.5" cy="66.3" rx="6.9" ry="3.4"/>
<path id="Path_18_" class="st0" d="M895.8,63.5c-1,1.6-2.3,3.9-3.8,6.7c-3,5.7-4.6,8.7-5.9,13.3c-1.8,6.2,1.5,6.1,3.1,5
	c1.2-0.9,0.6-0.6,2-3.8c1.8-3.9,3.7-8.3,4.4-14.4C895.9,67.5,895.9,65.1,895.8,63.5z"/>
<g id="Group_2_" transform="translate(732.595694, 190.011962)">

		<ellipse id="Oval_6_" transform="matrix(0.8068 -0.5909 0.5909 0.8068 -17.498 36.9012)" class="st0" cx="47.7" cy="45.2" rx="11.3" ry="16.7"/>
	<g class="st1">
		<path id="Path_20_" class="st2" d="M78.5,30.1c-0.8-3.9-8.8-5.4-11.8-5.9c-8.2-1.5-14.3,1.2-18.4,3c-4.2,1.8-5.5,3.4-6.1,5
			c-0.8,1.9-0.5,4.1,0.3,5.8c2.7,5.5,13.7,6.4,21.7,3.9C71,39.8,79.3,34.5,78.5,30.1z"/>
		<path class="st3" d="M55.4,43.7c-6,0-11.5-1.8-13.4-5.5c-1-1.9-1.1-4.3-0.3-6.2c0.8-2.1,2.7-3.6,6.4-5.3c4.1-1.8,10.3-4.5,18.7-3
			c3.1,0.6,11.4,2,12.2,6.4l0,0c0.9,4.9-8.1,10.4-14.6,12.3C61.5,43.2,58.4,43.7,55.4,43.7z M61.9,24.3c-5.7,0-10.2,2-13.4,3.4
			c-4.3,1.9-5.4,3.4-5.8,4.6c-0.6,1.6-0.5,3.7,0.3,5.3c2.6,5.1,13.2,6,21.1,3.6c7-2,14.5-7.3,13.8-11l0,0c-0.7-3.6-8.7-5-11.3-5.5
			C64.9,24.5,63.4,24.3,61.9,24.3z"/>
	</g>
	<g class="st1">
		<path id="Path_22_" class="st2" d="M41.8,36.7c3.5,1.9,2.4,10,2,13C42.6,58,38.1,63,35.2,66.3c-3.1,3.4-5,4.2-6.6,4.3
			c-2,0.1-4.1-0.8-5.4-2.1c-4.4-4.3-1.7-15,3-21.9C30.2,40.8,37.9,34.6,41.8,36.7z"/>
		<path class="st3" d="M28.3,71.1c-2,0-4-0.9-5.5-2.3c-4.5-4.4-2.1-15.3,3-22.6c3.8-5.7,11.8-12.5,16.2-10.1l0,0
			c3.9,2.2,2.7,10.8,2.3,13.6c-1.1,8.4-5.6,13.4-8.6,16.8c-3.4,3.8-5.4,4.4-7.1,4.5C28.5,71.1,28.4,71.1,28.3,71.1z M39.9,36.8
			c-3.7,0-9.7,4.9-13.2,10.1c-4.7,6.8-7.1,17.1-3.1,21.1c1.3,1.3,3.2,2,5,1.9c1.4-0.1,3.1-0.7,6.2-4.1c2.9-3.3,7.3-8.2,8.4-16.2
			c1-7.1,0.4-11.3-1.7-12.5l0,0C41,37,40.5,36.8,39.9,36.8z"/>
	</g>
	<g id="Path_21_">
		<path class="st7" d="M42.3,38.2c-0.7-1.2-6.7-12-1.6-23.3C44.9,5.6,54.9-0.3,64,0.4c2.5,0.2,7.6,0.6,9.6,4
			c3.8,6.4-5.1,19-13.7,25.7C53.4,35.4,46.5,37.4,42.3,38.2z"/>
		<path class="st7" d="M42.7,38.2c-1-1-9.9-9.6-22.1-7.6C10.6,32.1,2.3,40.2,0.6,49.3c-0.5,2.4-1.5,7.5,1.3,10.4
			C7,65,21.6,59.7,30.3,53.2C37.1,48.1,40.8,42,42.7,38.2z"/>
	</g>
	<circle id="Oval_7_" class="st0" cx="10.2" cy="53.4" r="4.4"/>
	<circle id="Oval_8_" class="st0" cx="16.6" cy="40.8" r="4.4"/>
	<circle id="Oval_9_" class="st0" cx="52" cy="13.7" r="4.4"/>
	<circle id="Oval_10_" class="st0" cx="65.8" cy="11.6" r="4.4"/>
	<circle id="Oval_11_" class="st0" cx="29.6" cy="43.1" r="4.4"/>
	<circle id="Oval_12_" class="st0" cx="50.3" cy="28.2" r="4.4"/>
	<path class="st0" d="M38.6,32.6c-1.5-2.8-2.5-5.9-3-9c-0.7-4.5-0.2-8.3,0.4-10.7l1.5,0.3c-0.5,2.3-1,5.9-0.4,10.2
		c0.5,3,1.4,5.8,2.8,8.5L38.6,32.6z"/>
	<path class="st0" d="M36.2,33.5C34.6,31,32.5,28.8,30,27c-2.7-2-5.8-3.5-9.2-4.4l0.4-1.4c3.5,0.9,6.8,2.5,9.7,4.6
		c2.6,1.9,4.8,4.2,6.6,6.9L36.2,33.5z"/>
</g>
</svg>
