<svg version="1.1" xmlns="http://www.w3.org/2000/svg" xmlns:xlink="http://www.w3.org/1999/xlink" x="0px" y="0px"
	 viewBox="0 0 50.2 36.3" style="enable-background:new 0 0 50.2 36.3;" xml:space="preserve">
<path fill="#6881B5" d="M41.6,21.6c1-0.3,2-0.4,3-0.2c1.9,0.2,7.9-5,4.7-18c0,0,0-4-4.6-3c0,0-15.4,10.5-18.1,16.9
	c-0.1-0.2-0.3-0.4-0.4-0.6c0-0.2,0.1-0.4,0.1-0.6c0-0.7-0.2-1.4-0.6-2c0.4-1.6,1.5-5.3,3.6-7.2C29.3,7,29.8,7,30.1,6.9
	s0.6-0.5,0.5-0.8s-0.5-0.3-0.9-0.1s-0.5,0.5-0.5,0.7c-0.6,0.2-1.9,1.5-3.8,7.2c-0.2-0.1-0.3-0.1-0.5,0c-1.9-5.8-3.4-7-3.8-7.2
	c0.1-0.2-0.2-0.5-0.5-0.7S19.8,5.7,19.6,6s0.1,0.6,0.5,0.8s0.8,0.1,0.9-0.1c2.1,2,3.2,5.6,3.5,7.2c-0.4,0.6-0.7,1.3-0.6,2
	c0,0.2,0,0.4,0.1,0.6c-0.2,0.2-0.3,0.4-0.5,0.6c-2.7-6.3-18-16.9-18-16.9C1-0.9,1,3.1,1,3.1c-3.3,13,2.7,18.2,4.6,18
	c1-0.1,2,0,3,0.3c-11,5.3-4.1,12.2-4.1,12.2c0.4,1.2,1.4,2.2,2.6,2.5c8.8,1.3,15.1-8.3,16.5-10.5c0.1,0.2,0.3,0.4,0.4,0.5
	c-0.1,1-0.2,1.9-0.2,2.9c0,3,0.5,5.5,1.2,5.5c0.7,0,1.2-2.4,1.2-5.4c0-0.9-0.1-1.9-0.2-2.8c0.2-0.2,0.4-0.4,0.5-0.6
	c1.3,2.2,7.6,11.9,16.4,10.7c1.2-0.3,2.2-1.3,2.6-2.5C45.5,33.7,52.6,26.8,41.6,21.6z"/>
</svg>
