<?xml version="1.0" encoding="utf-8"?>
<svg version="1.1" xmlns="http://www.w3.org/2000/svg" xmlns:xlink="http://www.w3.org/1999/xlink" x="0px" y="0px"
	 viewBox="0 0 219.7 44.4" enable-background="new 0 0 219.7 44.4" xml:space="preserve">
<path fill="none" d="M174.6,19.6c-1.8-1.7-4.1-2.5-6.9-2.5c-2.7,0-5,0.8-6.9,2.5c-1.8,1.7-2.9,3.8-3.2,6.5h20.2
	C177.5,23.5,176.5,21.3,174.6,19.6z"/>
<path fill="none" d="M211,19.6c-1.8-1.7-4.1-2.5-6.9-2.5c-2.7,0-5,0.8-6.9,2.5c-1.8,1.7-2.9,3.8-3.2,6.5h20.2
	C213.9,23.5,212.8,21.3,211,19.6z"/>
<path fill="none" d="M136,18.6c-1.6-0.9-3.4-1.4-5.4-1.4c-2,0-3.8,0.5-5.4,1.4c-1.6,0.9-2.9,2.2-3.8,3.9c-0.9,1.7-1.4,3.6-1.4,5.8
	s0.5,4.1,1.4,5.8c0.9,1.7,2.2,3,3.8,3.9c1.6,0.9,3.4,1.4,5.4,1.4c2,0,3.8-0.5,5.4-1.4s2.9-2.2,3.8-3.9s1.4-3.6,1.4-5.8
	s-0.5-4.1-1.4-5.8C138.9,20.9,137.6,19.6,136,18.6z M140,29.1l-3.9,6.8c-0.3,0.5-0.9,0.9-1.5,0.9l-7.8,0c-0.6,0-1.2-0.3-1.5-0.9
	l-3.9-6.8c-0.3-0.6-0.3-1.2,0-1.8l3.9-6.8c0.3-0.5,0.9-0.9,1.5-0.9l7.8,0c0.6,0,1.2,0.3,1.5,0.9l3.9,6.8
	C140.4,27.9,140.4,28.6,140,29.1z"/>
<path fill="#1A1919" d="M20.9,27.6c-1.6-0.5-3.6-1-6.1-1.4c-1.9-0.4-3.4-0.7-4.4-1c-1-0.3-1.9-0.7-2.6-1.3c-0.7-0.6-1.1-1.4-1.1-2.4
	c0-1.3,0.6-2.4,1.9-3.1c1.3-0.8,3.1-1.2,5.5-1.2c3.5,0,6.5,0.8,9.1,2.5l2.4-4.5c-1.3-0.9-3.1-1.6-5.2-2.1c-2.1-0.5-4.2-0.8-6.3-0.8
	c-4,0-7.2,0.9-9.6,2.6c-2.4,1.7-3.6,4-3.6,6.9c0,2.2,0.6,3.9,1.7,5.2s2.5,2.1,4.1,2.6c1.6,0.5,3.7,1,6.2,1.4
	c1.9,0.3,3.3,0.6,4.3,0.9c1,0.3,1.9,0.7,2.5,1.2c0.7,0.6,1,1.3,1,2.3c0,2.9-2.5,4.3-7.5,4.3c-2,0-4-0.3-6-0.9c-2-0.6-3.7-1.4-5-2.4
	L0,40.7c1.3,1.1,3.2,2,5.6,2.6c2.4,0.7,4.8,1,7.4,1c4.2,0,7.5-0.8,9.9-2.5s3.7-3.9,3.7-6.8c0-2.1-0.6-3.8-1.7-5
	C23.8,28.9,22.5,28.1,20.9,27.6z"/>
<path fill="#1A1919" d="M57.4,28.9c0,3.3-0.9,5.9-2.6,7.7c-1.7,1.8-4.1,2.7-7.1,2.7c-2.7,0-4.8-0.8-6.3-2.3
	c-1.5-1.6-2.2-3.9-2.2-6.9V12.6h-5.7v18.1c0,4.5,1.2,7.9,3.6,10.2c2.4,2.3,5.7,3.5,9.9,3.5c2.2,0,4.3-0.4,6.1-1.3
	c1.9-0.9,3.4-2.1,4.5-3.8v4.8h5.4V12.6h-5.7V28.9z"/>
<path fill="#1A1919" d="M90.7,12.3c-2.5,0-4.7,0.4-6.7,1.3c-2,0.9-3.5,2.1-4.7,3.7v-4.8h-5.5v31.5h5.7V27.9c0-3.4,0.9-5.9,2.7-7.7
	c1.8-1.8,4.2-2.7,7.3-2.7c2.7,0,4.8,0.8,6.3,2.3c1.5,1.5,2.2,3.8,2.2,6.9v17.5h5.7V25.9c0-4.5-1.2-7.9-3.5-10.2
	C97.9,13.4,94.7,12.3,90.7,12.3z"/>
<path fill="#1A1919" d="M139.3,14.3c-2.4-1.3-5.1-2-8.2-2c-2.3,0-4.3,0.4-6.2,1.3c-1.9,0.9-3.5,2.1-4.8,3.8V0h-5.7v44.1h5.5v-5
	c1.3,1.7,2.9,3.1,4.8,4c1.9,0.9,4.1,1.4,6.4,1.4c3,0,5.8-0.7,8.2-2c2.4-1.3,4.3-3.2,5.7-5.7c1.4-2.4,2-5.2,2-8.4s-0.7-6-2-8.4
	C143.6,17.5,141.7,15.7,139.3,14.3z M139.8,34.1c-0.9,1.7-2.2,3-3.8,3.9s-3.4,1.4-5.4,1.4c-2,0-3.8-0.5-5.4-1.4
	c-1.6-0.9-2.9-2.2-3.8-3.9c-0.9-1.7-1.4-3.6-1.4-5.8s0.5-4.1,1.4-5.8c0.9-1.7,2.2-3,3.8-3.9c1.6-0.9,3.4-1.4,5.4-1.4
	c2,0,3.8,0.5,5.4,1.4c1.6,0.9,2.9,2.2,3.8,3.9c0.9,1.7,1.4,3.6,1.4,5.8S140.7,32.4,139.8,34.1z"/>
<path fill="#1A1919" d="M175.8,14.3c-2.4-1.4-5-2-8-2c-3,0-5.7,0.7-8.1,2c-2.4,1.4-4.3,3.3-5.6,5.7c-1.4,2.5-2,5.2-2,8.3
	c0,3.1,0.7,5.9,2.1,8.3c1.4,2.5,3.4,4.4,6,5.7c2.6,1.4,5.5,2,8.8,2c2.6,0,5-0.4,7.1-1.3c2.1-0.9,3.9-2.1,5.3-3.8l-3.1-3.7
	c-2.3,2.5-5.3,3.8-9.1,3.8c-3.1,0-5.7-0.8-7.7-2.5c-2.1-1.7-3.3-3.9-3.7-6.7h25.5c0.1-0.7,0.1-1.3,0.1-1.7c0-3.2-0.7-6-2-8.4
	C180,17.6,178.2,15.7,175.8,14.3z M157.7,26.1c0.3-2.7,1.4-4.9,3.2-6.5c1.8-1.7,4.1-2.5,6.9-2.5c2.7,0,5,0.8,6.9,2.5
	c1.8,1.7,2.9,3.9,3.2,6.5H157.7z"/>
<path fill="#1A1919" d="M219.7,28.5c0-3.2-0.7-6-2-8.4c-1.3-2.5-3.2-4.4-5.5-5.7c-2.4-1.4-5-2-8-2c-3,0-5.7,0.7-8.1,2
	c-2.4,1.4-4.3,3.3-5.6,5.7c-1.4,2.5-2,5.2-2,8.3c0,3.1,0.7,5.9,2.1,8.3c1.4,2.5,3.4,4.4,6,5.7c2.6,1.4,5.5,2,8.8,2
	c2.6,0,5-0.4,7.1-1.3c2.1-0.9,3.9-2.1,5.3-3.8l-3.1-3.7c-2.3,2.5-5.3,3.8-9.1,3.8c-3.1,0-5.7-0.8-7.7-2.5c-2.1-1.7-3.3-3.9-3.7-6.7
	h25.5C219.6,29.5,219.7,28.9,219.7,28.5z M194,26.1c0.3-2.7,1.4-4.9,3.2-6.5c1.8-1.7,4.1-2.5,6.9-2.5c2.7,0,5,0.8,6.9,2.5
	c1.8,1.7,2.9,3.9,3.2,6.5H194z"/>
<path fill="#FF7350" d="M134.6,19.7l-7.8,0c-0.6,0-1.2,0.3-1.5,0.9l-3.9,6.8c-0.3,0.5-0.3,1.2,0,1.8l3.9,6.8
	c0.3,0.6,0.9,0.9,1.5,0.9l7.8,0c0.6,0,1.2-0.3,1.5-0.9l3.9-6.8c0.3-0.5,0.3-1.2,0-1.8l-3.9-6.8C135.9,20,135.3,19.7,134.6,19.7z"/>
</svg>
