<?xml version="1.0" encoding="utf-8"?>
<svg version="1.1" xmlns="http://www.w3.org/2000/svg" xmlns:xlink="http://www.w3.org/1999/xlink" x="0px" y="0px"
	 viewBox="0 0 9.6 17.8" style="enable-background:new 0 0 9.6 17.8;" xml:space="preserve">
<path d="M9.3,0L7,0C4.4,0,2.7,1.7,2.7,4.4v2H0.4C0.2,6.4,0,6.6,0,6.8v2.9c0,0.2,0.2,0.4,0.4,0.4h2.3v7.4
	c0,0.2,0.2,0.4,0.4,0.4h3c0.2,0,0.4-0.2,0.4-0.4v-7.4h2.7c0.2,0,0.4-0.2,0.4-0.4l0-2.9c0-0.1,0-0.2-0.1-0.3C9.3,6.4,9.2,6.4,9.2,6.4
	H6.4V4.7c0-0.8,0.2-1.2,1.3-1.2l1.6,0c0.2,0,0.4-0.2,0.4-0.4V0.4C9.6,0.2,9.5,0,9.3,0z"/>
</svg>
