<?xml version="1.0" encoding="utf-8"?>
<svg version="1.1" xmlns="http://www.w3.org/2000/svg" xmlns:xlink="http://www.w3.org/1999/xlink" x="0px" y="0px"
	 viewBox="0 0 18 18" style="enable-background:new 0 0 18 18;" xml:space="preserve">
<g>
	<path d="M4.2,5.6H0.8c-0.2,0-0.3,0.1-0.3,0.3v11.8c0,0.2,0.1,0.3,0.3,0.3h3.4c0.2,0,0.3-0.1,0.3-0.3V5.9
		C4.5,5.8,4.4,5.6,4.2,5.6z"/>
	<circle cx="2.3" cy="2.2" r="2.2"/>
	<path d="M13.4,5.6c-1.4,0-2.5,0.6-3.2,1.3V6.2c0-0.2-0.1-0.3-0.3-0.3H6.5C6.3,5.9,6.2,6,6.2,6.2v11.5
		c0,0.2,0.1,0.3,0.3,0.3h3.6c0.2,0,0.3-0.1,0.3-0.3V12c0-1.9,0.5-2.7,1.9-2.7c1.5,0,1.6,1.2,1.6,2.8v5.6c0,0.2,0.1,0.3,0.3,0.3h3.6
		c0.2,0,0.3-0.1,0.3-0.3v-6.3C18,8.5,17.5,5.6,13.4,5.6z"/>
</g>
</svg>
