<?xml version="1.0" encoding="utf-8"?>
<svg version="1.1" xmlns="http://www.w3.org/2000/svg" xmlns:xlink="http://www.w3.org/1999/xlink" x="0px" y="0px"
	 viewBox="0 0 20 14.4" style="enable-background:new 0 0 20 14.4;" xml:space="preserve">
<path d="M19.8,5.8l-6.2-5.6C13.4,0,13.1,0,12.9,0.1c-0.2,0.1-0.4,0.3-0.4,0.6v3.1h-1.9C4.6,3.7,0,8,0,13.7
	c0,0.3,0.2,0.5,0.5,0.6c0.1,0,0.1,0,0.2,0c0.2,0,0.4-0.1,0.5-0.3l0.2-0.3c1.9-3.1,5-5,7.9-5h3.2v3.1c0,0.2,0.1,0.5,0.4,0.6
	c0.2,0.1,0.5,0.1,0.7-0.1l6.2-5.6C19.9,6.6,20,6.4,20,6.2C20,6.1,19.9,5.9,19.8,5.8z"/>
</svg>
