<?xml version="1.0" encoding="utf-8"?>
<svg version="1.1" xmlns="http://www.w3.org/2000/svg" xmlns:xlink="http://www.w3.org/1999/xlink" x="0px" y="0px" viewBox="0 0 75.8 79" style="enable-background:new 0 0 75.8 79;" xml:space="preserve">
<g>
	<path d="M74.9,23.9L63.1,3.3c-1.1-2-3.2-3.2-5.5-3.2L33.9,0c0,0,0,0,0,0c-2.3,0-4.4,1.2-5.5,3.2l-12,20.5c-0.4,0.7-0.7,1.5-0.8,2.3
		H17v2h-1.4c0.1,0.7,0.4,1.4,0.7,2.1l11.8,20.6c1.1,2,3.2,3.2,5.5,3.2l11.5,0v-2l-11.5,0c-1.6,0-3-0.9-3.8-2.2L18.1,29.1
		c-0.8-1.4-0.8-3,0-4.4l12-20.5C30.8,2.8,32.3,2,33.8,2c0,0,0,0,0,0l23.7,0.1c1.6,0,3,0.9,3.8,2.2l11.8,20.6c0.8,1.4,0.8,3,0,4.4
		l-12,20.5C60.4,51.2,59,52,57.4,52c0,0,0,0,0,0l-10.2,0v2l10.2,0c0,0,0,0,0,0c2.3,0,4.4-1.2,5.5-3.2l12-20.5
		C76,28.4,76,25.9,74.9,23.9z"/>
	<polygon points="17,26 15.6,26 0,26 0,28 15.6,28 17,28 	"/>
	<path d="M47.2,33.9c3.4-0.5,6-3.4,6-6.9c0-3.9-3.1-7-7-7c-3.9,0-7,3.1-7,7c0,3.5,2.6,6.4,6,6.9v18v2V65h-6l7,14l7-14h-6V54v-2V33.9
		z"/>
</g>
</svg>
