<?xml version="1.0" encoding="utf-8"?>
<!-- Generator: Adobe Illustrator 21.1.0, SVG Export Plug-In . SVG Version: 6.00 Build 0)  -->
<svg version="1.1" id="Слой_1" xmlns="http://www.w3.org/2000/svg" xmlns:xlink="http://www.w3.org/1999/xlink" x="0px" y="0px"
	 viewBox="0 0 497 631" style="enable-background:new 0 0 497 631;" xml:space="preserve">
<style type="text/css">
	.st0{fill:none;}
	.st1{fill:#546AAE;}
	.st2{fill:#6881B5;}
	.st3{fill:#5973B5;}
	.st4{fill:#FAA600;}
	.st5{fill:#FAC73C;}
	.st6{fill:#FF7350;}
	.st7{fill:#767A86;}
	.st8{fill:#A0A5B1;}
	.st9{fill:#FF5250;}
	.st10{fill:#BFC3CA;}
	.st11{fill:#999BA0;}
</style>
<title>Group 4</title>
<desc>Created with Sketch.</desc>
<g>
	<path class="st0" d="M73.9,342.7c-0.4,0.5-0.8,1.1-1.1,1.6c6-1,11.9-1.1,17.6-0.4c4.8,0.6,7.9,1.5,10.7,2.4c3.3,1,6.2,1.9,11.2,1.9
		c2.4,0,7.3,0.1,12.5-1.6c0.4-1.5,0.8-3,1.3-4.6c-7.1-0.1-14.7-2.6-20.7-6.2c-4.6-2.8-7.8-6.1-11.7-10.9c-3.8,2.2-6.7,4.5-8.5,6
		C80.8,334.4,76.8,338.5,73.9,342.7z"/>
	<path class="st0" d="M141.2,328.3c0.4-0.8,0.6-1.5,0.8-2l0,0c2.2-6.9-1.2-13.3-3-16.8c-2.3-4.4-5.3-7.6-8-9.8
		c-4.1,0.9-7.9,1-10.5,1.1c-14.1,0.6-26.1-4.2-35-9.4c-2.7,0.5-5.5,1-8.4,1.6c-1.6,0.3-3,0.6-4.4,0.9c3.5,2.2,6.7,4.7,9.6,7.7
		c2.9,3,4.5,5.3,6.4,8c1.3,1.9,2.7,4,4.9,6.7l0.4,0.5c5.6,7,8.9,11.2,14.1,14.3c5.6,3.4,13,5.7,19.4,5.4c1.3-4.6,2.9-10,4.5-16.2
		C132.1,320.5,135.7,323.1,141.2,328.3z"/>
	<path class="st0" d="M425.7,463.9c3.9-2.9,7.5-4.5,11.2-6.1c4-1.8,8.2-3.6,13.2-7.3c4-3,7.6-6.5,10.9-10.6
		c-2.4-1.4-5.2-2.8-8.5-4.2l-0.2-0.1c-2.8-1.1-6.4-2.6-11-3.8c-2.8,6.4-5.3,11-9.4,15.5c-6.2,6.7-17.9,14.7-29.4,14.7
		c-0.4,0-0.7,0-1.1,0c0.7,0.4,1.4,0.7,2,0.9C411.9,466.8,420.7,465.2,425.7,463.9z"/>
	<path class="st0" d="M198.9,261c0.6,2.9,1.6,6,3.1,9.2c2.4,5,6.4,13.4,15.4,16.4l0,0c3.8,1.3,7.7,1.5,11.2,0.7
		c11.8-2.9,19.5-18.9,20.8-32.5c0.8-8.3-1.1-15.3-4.2-27c-1.2-4.4-2.2-7.6-3.2-10.4c-1.4-4.1-2.6-7.6-3.4-13.1
		c-0.8-5.3-1-10.8-0.5-16.3c-1.4,1.2-2.9,2.4-4.5,3.9l-0.3,0.3c-9.3,8.3-17.3,15.5-24,26c-0.6,1-1.3,2-2,3.1
		C207.8,231,207.2,246.6,198.9,261z"/>
	<path class="st0" d="M195.5,276.8l0.2,0.1c0.8,0.7,1.9,1.5,3,2.2c-1.3-2.2-2.3-4.3-3.1-5.9c-0.8-1.6-1.4-3.2-1.9-4.7
		c-0.9,1.1-1.8,2.3-2.9,3.5C192.1,273.8,193.7,275.3,195.5,276.8z"/>
	<path class="st0" d="M206,313.1c8.6-1.4,24.4-3.3,44.6-1.6c5.7,0.5,13.2,1.1,21.9,2.6c-0.7-21.1,2.1-39.3,6.2-58.5
		c-0.9,2.1-1.6,4-2.2,5.8c-1.6,4.5-3.2,8.8-7.6,14.8c-3.2,4.4-11.9,16-26.4,19.4c-2,0.5-5.1,1.2-8.6,1.2c-2.9,0-6-0.5-9.1-2
		c-0.2,0-0.4,0-0.6,0c-3,0-6.1-0.5-9.1-1.6c-0.4-0.1-0.8-0.3-1.2-0.5l-0.8,2C210.8,300.2,208.2,306.3,206,313.1z"/>
	<path class="st0" d="M199.3,314.4c2.5-8.2,5.6-15.5,8.2-21.8l1-2.3l1.4,0.6c-1.3-0.8-2.5-1.7-3.6-2.6c-6.6-0.6-11.6-4.6-14.2-6.6
		l-0.2-0.1c-2.1-1.6-3.8-3.4-5.4-5.3c-3.7,3-8.2,5.6-13.9,6.5c-5,4.5-10.2,6.6-12,7.3c-5.2,2.1-10.3,2.8-15.1,2.8
		c2.5,4,4.8,9.4,5,15.7l0,0.1c0.1,2.5,0.1,7.4-2.5,11.7c0.2,2.4-0.1,5-0.9,7.6c-0.2,0.5-0.4,1.1-0.6,1.6l3.5-4.8
		c1.6,1.1,3.6,2.3,5.7,3.6c5.1,3.1,11.5,6.9,16,12.1c9,10.4,16,22.8,20.5,36.2c-2.5-13-7.7-25.9-14.2-41.9
		c-7.2-17.6-14.2-32.7-19.2-41.3l5.2-3c5.3,9,12.2,23.9,19.6,42.1c4.6,11.3,8.5,21,11.4,30.4c-0.5-3.8-1-7.9-1.1-12.2
		c-0.2-7.6,0.5-14.7,1.8-21.4c-5.6-3.9-10.8-7.1-15.3-9.6C185.1,318,191.5,316,199.3,314.4z"/>
	<path class="st0" d="M264,272.7c3.9-5.3,5.2-9,6.8-13.3c1.3-3.6,2.8-7.7,6-13.3c1.9-3.2,3.9-6.3,6.2-9.2c0.3-1.1,0.5-2.3,0.8-3.4
		c0.5-2,0.9-3.9,1.4-5.7c-7.3,0.2-13.8,1.5-18.1,2.6c-3.2,0.8-7.9,2.1-13,4.2c1.9,7.6,2.9,13.8,2.2,20.9c-1,10.9-6.6,27.1-17.9,34.9
		c1-0.2,2-0.4,2.7-0.6C253.5,286.9,260.9,276.9,264,272.7z"/>
	<path class="st0" d="M145.9,308.8l0-0.1c-0.1-5.2-2-9.6-4.1-13.1c-1.6,1-3.2,1.8-4.9,2.5c2.7,2.7,5,5.7,6.7,9.1
		c0.6,1.2,1.5,2.8,2.2,4.7C146,310.6,145.9,309.6,145.9,308.8z"/>
	<path class="st0" d="M400.9,428c-6,4.3-11.8,6.5-15.1,7.5c-0.3,4,0.1,8.7,3,12.9c2,3,4.5,5.1,7.4,6.3c9.7,4.2,23.4-2.8,31.3-11.5
		c4.7-5.1,7.1-10.9,11.1-20.4l0.2-0.4c1.5-3.6,2.4-6.4,3.2-8.8c1.2-3.6,2.2-6.6,4.5-10.8c2.3-4.1,5-7.9,8.2-11.5
		c-1.6,0.1-3.3,0.2-5.1,0.3l-0.2,0c-1.4,0.1-2.8,0.2-4.1,0.3c-2.9,5.7-6.6,11.4-11.3,16.6C428.5,414.8,417.4,427.1,400.9,428z"/>
	<path class="st0" d="M222.2,439.7c1.1-2.3,1.8-4.6,2.3-6.7c-6.1,2.9-12,5.6-17.6,8.2l-0.4,0.2c-6.5,3-9.5,4.4-12.7,7.3
		c-2.7,2.5-5,5.6-6.7,9.1c0.4,0,0.8-0.1,1.3-0.1c8.8-0.9,14.1-1.5,19.3-4C214.4,450.4,219.3,445.7,222.2,439.7z"/>
	<path class="st0" d="M468,580.9c-0.9,2.7-1.9,5.3-3.2,7.8c-2.1,4.3-8.3,17.2-22.8,26.7c-2.4,1.6-5,3-7.6,4.3
		c12.8,0.9,24.6-3.7,30.3-12.7c4-6.2,5.5-15.5,3.8-23.6C468.4,582.5,468.2,581.7,468,580.9z"/>
	<path class="st1" d="M323.5,213.6c-3.4-0.2-6.5-0.8-9.4-1.6c9.6,10.9,24.2,11.9,31.4,12.3c26.8,1.7,47.6-13.5,56.6-20.2
		c20-15,20.1-24.8,39.5-43c17.5-16.4,35.6-25.4,47.6-30.4c-4.3-2-10.1-4.7-17.4-7.1c-5-1.7-20.8-6.7-43.2-7.6
		c-8-0.3-19.7-0.7-33.6,1.2c-0.9,17.7-2.2,29.9-7.6,43.1C377.3,185.2,352,215,323.5,213.6z"/>
	<path class="st1" d="M286.8,191.3c-6.8-11-8.6-23.3-9.7-30.8c-3.9-26.3,5.3-47,9-55.2c10-21.7,24.5-34,36.6-44.3
		c-3.7-6.8-7.3-12.4-10.1-16.6c-12.4-18.7-24.9-29.7-28.9-33c-5.8-5-11.1-8.7-15.1-11.2c2,12.8,3.7,33-1.3,56.5
		c-5.5,25.9-13.8,31.2-16.3,56c-1.1,11.1-3.3,36.8,12.1,58.8C267,177,274.4,187.7,286.8,191.3z"/>
	<path class="st2" d="M286.2,105.3c-3.8,8.2-13,28.9-9,55.2c1,7.6,2.9,19.8,9.7,30.8c3,4.9,7,9.5,12.4,13.4
		c1.9,1.4,7.3,5.1,14.9,7.3c2.8,0.8,6,1.4,9.4,1.6c28.6,1.5,53.9-28.4,64.1-53.2c5.4-13.2,6.7-25.4,7.6-43.1
		c0.2-3.8,0.3-7.9,0.5-12.2c0.9-22.3-1.6-29.8,1-47c3-19.8,10-35,15.4-44.8c-6.6,2.5-16.1,6.4-27.2,11.5
		c-23.1,10.7-42.5,19.7-62,36.2c0,0,0,0,0,0C310.7,71.3,296.2,83.6,286.2,105.3z"/>
	<path class="st3" d="M242.5,295.6c14.5-3.4,23.1-15,26.4-19.4c4.4-6,5.9-10.3,7.6-14.8c0.7-1.8,1.3-3.7,2.2-5.8
		c1.3-6.1,2.8-12.3,4.3-18.7c-2.3,2.9-4.3,6-6.2,9.2c-3.2,5.5-4.7,9.6-6,13.3c-1.5,4.3-2.9,8-6.8,13.3c-3.2,4.3-10.5,14.2-22.9,17.1
		c-0.8,0.2-1.7,0.4-2.7,0.6c-2.4,1.7-5.2,3-8.1,3.7c-1.8,0.4-3.6,0.7-5.5,0.7c3.1,1.5,6.3,2,9.1,2
		C237.4,296.8,240.5,296.1,242.5,295.6z"/>
	<path class="st3" d="M305.3,223.8l-1-0.2c0.1,0.2,0.3,0.4,0.4,0.7L305.3,223.8z"/>
	<path class="st3" d="M267.1,230.4c4.3-1.1,10.8-2.4,18.1-2.6c0.5-2.1,1-4.1,1.5-6c-6.9,0-14,1-21.2,2.8c-3.2,0.8-7.8,2-13,4.1
		c0.5,2.1,1,4,1.5,5.9C259.2,232.4,263.8,231.2,267.1,230.4z"/>
	<path class="st3" d="M207.4,292.5c-2.6,6.3-5.6,13.6-8.2,21.8c0.5-0.1,1.1-0.2,1.6-0.3c1.2-0.2,2.9-0.6,5.1-0.9
		c2.2-6.8,4.8-12.9,7-18.2l0.8-2c-1.4-0.6-2.8-1.2-4-2l-1.4-0.6L207.4,292.5z"/>
	<path class="st4" d="M197,211.9c-5.7-4.7-11.9-8.6-18.3-11.4c-0.8-0.3-1.6-0.7-2.4-1c2.9,7.3,4.6,14.9,5.3,22.6
		c0.4,4.5,0.3,8,0.1,11c2.7,9,3.9,18.5,2.6,27.2c1.3,3.7,3.3,7.9,6.5,11.7c1.1-1.2,2.1-2.4,2.9-3.5c-4.1-11.7-2.7-22-2.2-25.6
		c1.6-11.7,6.3-19.9,10.6-26.6c-1.8-1.7-3.5-3.1-4.9-4.3L197,211.9z"/>
	<path class="st4" d="M181.9,269.6c-1,2.5-2.3,4.9-3.9,7.1c-1.7,2.4-3.5,4.4-5.4,6c5.6-0.9,10.2-3.5,13.9-6.5
		C184.6,274.1,183.1,271.8,181.9,269.6z"/>
	<path class="st4" d="M207.3,221.2c-3.8,6-7.5,13-8.8,22.6c-0.4,2.7-1.3,9.2,0.4,17.1C207.2,246.6,207.8,231,207.3,221.2z"/>
	<path class="st4" d="M169,206.6c2.1,2.9,4,6.1,5.9,9.6c-1.2-7-3.4-13.8-6.6-20.4l-2.9-6l6.4,1.8c3.1,0.9,6.3,2,9.4,3.4
		c6.9,3.1,13.6,7.2,19.7,12.3l0.2,0.2c1.3,1.1,2.8,2.3,4.4,3.8c0.3-0.4,0.5-0.8,0.8-1.2c-2.4-16.2-8.4-22-12.1-41.8
		c-3.8-20-2-37.1-0.1-48c-3.4,2.1-8,5.1-13,9.2c-3.4,2.8-14.3,11.9-25.1,27.5c-3.9,5.6-9.5,13.8-14.4,24.7
		C153.8,190.3,162,196.8,169,206.6z"/>
	<path class="st4" d="M101.7,284.9c-0.1-1.5-0.2-2.9-0.3-4.1l0-0.5c-0.1-1.9-0.1-3.6,0-5.3c-9.5-7.9-15.1-16.4-17.9-20.7
		c-11-17-13.2-33-15.1-46.4c-6.6-0.5-12.2-0.4-16.5-0.3c-19,0.4-32.6,4.4-36.8,5.7c-6.2,1.9-11.3,4-14.9,5.7
		c10.1,4.4,25.3,12.4,39.9,26.6c16.1,15.7,16.1,24.1,32.8,37.1c1.6,1.3,3.6,2.9,6.1,4.6C86.6,285.8,93.6,284.6,101.7,284.9z"/>
	<path class="st4" d="M139.7,292.4c-8.6-1.2-16-4.4-20.8-6.6c-4.9-2.2-9.2-4.7-13-7.4c0,0.5,0,1.1,0,1.6l0,0.5
		c0.1,1.3,0.2,2.9,0.3,4.6c5.9,0.4,13.1,1.3,20.9,5.7c3.7,2,7,4.4,9.8,7.2c1.7-0.7,3.3-1.5,4.9-2.5
		C141.1,294.4,140.4,293.4,139.7,292.4z"/>
	<path class="st4" d="M120.5,300.9c2.6-0.1,6.4-0.3,10.5-1.1c-2.7-2.3-5.2-3.6-6.4-4.3c-7.6-4.3-14.5-4.8-20.5-5.2
		c-6.6-0.5-12.5,0.2-18.6,1.2C94.4,296.7,106.4,301.5,120.5,300.9z"/>
	<path class="st5" d="M181.7,233.1c-0.1,1.2-0.2,2.4-0.3,3.5c-0.4,4.6-0.8,8.5,0.5,15c0.4,1.9,1,5.1,2.3,8.8
		C185.6,251.7,184.4,242.2,181.7,233.1z"/>
	<path class="st5" d="M101.3,274.9c0.2-6,1.1-10.4,1.6-12.3c0.6-2.4,1.3-4.8,2.2-7.2l1.8-4.9l2.3,4.7c2.2,4.4,6.2,10.8,12.8,16.7
		c3.3,2.9,5.8,4.5,8.2,6c3.1,1.9,6.1,3.8,9.9,8c1.2,1.4,3.3,3.7,5.3,6.9c4.8,0,9.9-0.7,15.1-2.8c1.8-0.7,7-2.9,12-7.3
		c1.9-1.7,3.8-3.7,5.4-6c1.6-2.2,2.9-4.6,3.9-7.1c-3.8-6.8-5.1-13.5-5.8-16.8c-1.4-7.3-1-11.9-0.6-16.7c0.3-3.8,0.7-7.7,0.2-13.5
		c-0.2-2.1-0.5-4.3-0.8-6.4c-1.8-3.5-3.8-6.7-5.9-9.6c-7-9.8-15.1-16.3-27.4-24.9c-2.7-1.9-5.5-3.8-8.6-6
		c-15.6-10.8-22.1-12.4-33.2-22.1c-12.8-11.1-20.6-23.1-25.1-31.4c-1.2,5.9-2.7,14.4-4.1,24.7c-2.9,21.4-5.2,39.5-2.2,60.9
		c0,0,0,0,0,0c1.9,13.4,4.1,29.4,15.1,46.4C86.2,258.5,91.8,267,101.3,274.9z"/>
	<path class="st5" d="M139.7,292.4c-1.1-1.5-2.1-2.7-2.9-3.5c-3.3-3.7-5.9-5.3-8.9-7.1c-2.5-1.5-5.3-3.3-8.9-6.5
		c-4.3-3.9-8.2-8.4-11.2-13.4c-0.2,0.6-0.3,1.2-0.5,1.8c-0.5,2.1-1.6,7.4-1.5,14.7c3.8,2.7,8.1,5.3,13,7.4
		C123.7,288,131.1,291.3,139.7,292.4z"/>
	<path class="st3" d="M191.8,281.5l0.2,0.1c2.6,2,7.6,5.9,14.2,6.6c-3.3-2.8-5.7-6.1-7.5-9.1c-1.2-0.8-2.2-1.6-3-2.2l-0.2-0.1
		c-1.8-1.4-3.4-3-4.8-4.7c-3.1-3.8-5.1-8-6.5-11.7c-1.3-3.7-2-6.9-2.3-8.8c-1.3-6.5-0.9-10.4-0.5-15c0.1-1.1,0.2-2.3,0.3-3.5
		c0.2-3,0.3-6.5-0.1-11c-0.6-7.7-2.4-15.2-5.3-22.6c0.8,0.3,1.6,0.6,2.4,1c6.4,2.8,12.6,6.7,18.3,11.4l0.2,0.1
		c1.4,1.2,3.1,2.6,4.9,4.3c0.4-0.7,0.8-1.3,1.3-2c0.7-1.1,1.4-2.1,2.1-3.1c-1.6-1.5-3.1-2.7-4.4-3.8l-0.2-0.2
		c-6.2-5.1-12.8-9.2-19.7-12.3c-3.2-1.4-6.3-2.5-9.4-3.4l-6.4-1.8l2.9,6c3.2,6.6,5.4,13.4,6.6,20.4c0.4,2.1,0.7,4.3,0.8,6.4
		c0.5,5.8,0.2,9.7-0.2,13.5c-0.4,4.8-0.8,9.4,0.6,16.7c0.7,3.3,2,10,5.8,16.8c1.2,2.2,2.7,4.5,4.6,6.7
		C188,278.1,189.8,279.9,191.8,281.5z"/>
	<path class="st6" d="M203.4,214.4c-0.4,0.6-0.8,1.3-1.3,2c-4.2,6.6-9,14.9-10.6,26.6c-0.5,3.7-2,13.9,2.2,25.6
		c0.5,1.6,1.2,3.1,1.9,4.7c0.7,1.6,1.7,3.6,3.1,5.9c1.8,3,4.2,6.3,7.5,9.1c1.1,0.9,2.3,1.8,3.6,2.6c1.2,0.8,2.6,1.4,4,2
		c0.4,0.2,0.8,0.3,1.2,0.5c3,1,6.1,1.6,9.1,1.6c0.2,0,0.4,0,0.6,0c1.9,0,3.7-0.3,5.5-0.7c3-0.7,5.7-2,8.1-3.7
		c11.3-7.8,16.9-24,17.9-34.9c0.7-7.1-0.3-13.3-2.2-20.9c-0.5-1.9-1-3.8-1.5-5.9c-0.2-0.9-0.5-1.7-0.7-2.6c-1.2-4.7-2.4-8-3.3-10.9
		c-1.3-3.9-2.4-7-3.1-11.9c-1.1-7.4-0.8-15.1,0.8-22.9l2-9.3l-7.6,5.8c-2.5,2-6.6,5.2-11.8,9.8l-0.3,0.3
		c-8.4,7.5-15.8,14.1-22.3,23.1c-0.3,0.4-0.5,0.8-0.8,1.2C204.8,212.3,204.1,213.3,203.4,214.4z M233.3,192.2l0.3-0.3
		c1.6-1.4,3.1-2.7,4.5-3.9c-0.5,5.5-0.3,10.9,0.5,16.3c0.8,5.5,2,9,3.4,13.1c1,2.8,2,6,3.2,10.4c3.1,11.7,5,18.7,4.2,27
		c-1.3,13.5-9,29.5-20.8,32.5c-3.5,0.9-7.4,0.7-11.2-0.7l0,0c-9-3.1-12.9-11.4-15.4-16.4c-1.5-3.2-2.5-6.3-3.1-9.2
		c-1.7-7.9-0.8-14.5-0.4-17.1c1.3-9.7,5-16.6,8.8-22.6c0.7-1.1,1.3-2.1,2-3.1C216,207.6,224,200.5,233.3,192.2z"/>
	<path class="st3" d="M112.3,348.2c-5-0.1-7.9-0.9-11.2-1.9c-2.8-0.9-5.9-1.8-10.7-2.4c-5.7-0.7-11.6-0.6-17.6,0.4
		c0.4-0.5,0.7-1.1,1.1-1.6c3-4.2,6.9-8.3,11.3-11.8c1.8-1.5,4.7-3.7,8.5-6c-0.9-1.1-1.9-2.3-2.9-3.6c-3.4,2.1-6.2,4.2-8.5,6
		c-4.8,3.8-9,8.2-12.2,12.7c-1.5,2.1-2.8,4.2-4,6.4l-2.4,4.5l4.9-1.2c7.2-1.7,14.2-2.2,21-1.4c4.4,0.5,7.2,1.4,10,2.2
		c3.5,1.1,6.8,2.1,12.5,2.1c0.4,0,0.8,0,1.3,0c2.4,0,6-0.1,9.9-1.1c0.4-1.6,0.8-3.3,1.3-5.1C119.6,348.3,114.6,348.3,112.3,348.2z"
		/>
	<path class="st3" d="M150.5,308.7l0-0.1c-0.2-6.3-2.5-11.6-5-15.7c-2-3.2-4.1-5.6-5.3-6.9c-3.8-4.2-6.7-6.1-9.9-8
		c-2.4-1.5-5-3.1-8.2-6c-6.6-5.9-10.6-12.3-12.8-16.7l-2.3-4.7l-1.8,4.9c-0.9,2.4-1.6,4.8-2.2,7.2c-0.5,1.9-1.4,6.3-1.6,12.3
		c-0.1,1.7-0.1,3.4,0,5.3l0,0.5c0.1,1.2,0.1,2.6,0.3,4.1c0.9,0,1.8,0.1,2.8,0.1c0.6,0,1.2,0.1,1.8,0.1c-0.2-1.7-0.3-3.3-0.3-4.6
		l0-0.5c0-0.5,0-1.1,0-1.6c-0.1-7.2,1-12.6,1.5-14.7c0.2-0.6,0.3-1.2,0.5-1.8c3.1,5,6.9,9.6,11.2,13.4c3.6,3.2,6.4,4.9,8.9,6.5
		c3,1.8,5.5,3.4,8.9,7.1c0.8,0.9,1.8,2,2.9,3.5c0.7,0.9,1.4,1.9,2.1,3.1c2.1,3.5,4,7.9,4.1,13.1l0,0.1c0,0.8,0,1.9,0,3
		c1,2.4,1.9,5.4,2.1,8.6C150.6,316,150.5,311.1,150.5,308.7z"/>
	<path class="st6" d="M146.5,329.6c0.2-0.5,0.4-1.1,0.6-1.6c0.8-2.7,1.1-5.2,0.9-7.6c-0.2-3.2-1.1-6.2-2.1-8.6
		c-0.8-1.9-1.6-3.5-2.2-4.7c-1.8-3.4-4-6.4-6.7-9.1c-2.8-2.7-6-5.1-9.8-7.2c-7.8-4.4-15-5.2-20.9-5.7c-0.6,0-1.2-0.1-1.8-0.1
		c-1-0.1-1.9-0.1-2.8-0.1c-8-0.2-15.1,0.9-22.7,2.5c-0.9,0.2-1.9,0.4-2.9,0.6c-4.6,0.9-8.4,1.9-11.1,2.6l-7.4,2l6.8,3.1
		c5.4,2.4,10.2,5.8,14.3,9.9c2.6,2.6,4,4.7,5.8,7.3c1.3,1.9,2.8,4.1,5.1,7l0.4,0.5c0.3,0.4,0.6,0.7,0.9,1.1c1,1.3,2,2.5,2.9,3.6
		c3.9,4.8,7.1,8.1,11.7,10.9c6,3.7,13.6,6.1,20.7,6.2c0.5-1.7,1-3.4,1.5-5.3c-6.5,0.3-13.8-2-19.4-5.4c-5.2-3.2-8.5-7.4-14.1-14.3
		l-0.4-0.5c-2.2-2.7-3.6-4.8-4.9-6.7c-1.8-2.7-3.4-5-6.4-8c-2.9-2.9-6.1-5.5-9.6-7.7c1.3-0.3,2.8-0.6,4.4-0.9
		c2.9-0.6,5.6-1.1,8.4-1.6c6.1-1,12-1.7,18.6-1.2c6,0.4,12.9,0.9,20.5,5.2c1.2,0.7,3.7,2,6.4,4.3c2.7,2.3,5.7,5.4,8,9.8
		c1.8,3.5,5.2,9.9,3,16.8l0,0c-0.2,0.5-0.4,1.2-0.8,2c1.2,1.2,2.6,2.5,4,3.9C145.7,331.4,146.1,330.5,146.5,329.6
		C146.4,329.6,146.4,329.6,146.5,329.6L146.5,329.6z"/>
	<path class="st7" d="M98.2,446.5c-35.9,1.8-44.8,38-47.1,42.7c4.9-1.3,8.8-4.8,18-5.8c15.5-1.6,21.2-1.6,31.2-3.2
		c17.7-2.9,24.8-10.7,29.6-15.1c5.3-4.8,14-13.5,16.3-16.8C137.7,448.6,118.9,445.5,98.2,446.5z"/>
	<path class="st7" d="M141.2,328.3c-5.5-5.2-9.1-7.8-9.1-7.8c-1.7,6.2-3.2,11.5-4.5,16.2c-0.5,1.9-1.1,3.6-1.5,5.3
		c-0.5,1.6-0.9,3.2-1.3,4.6c-0.5,1.8-0.9,3.5-1.3,5.1c-1.1,4.6-1.7,8.3-1.6,11.6c1,30.6,21.3,47.3,27.9,59.2
		c12.9,23.4,10.8,22.7,10.8,22.7l9.5,4c0,0,8.1-14.8,9.6-20.5c0,0,11.1-28.9-1.7-52.2c-11.3-20.5-23.7-35.1-32.7-44.3
		C143.8,330.8,142.4,329.5,141.2,328.3z"/>
	<path class="st8" d="M126.7,441c11.4,0.3,20.8,1.2,27,1.9c-11.7-30.5-29-44.6-38.6-50.8c-14.6-9.5-32.7-13.1-68.2-20
		c-17.8-3.4-32.7-5.6-43.2-6.9c2.7,7.4,7.4,17.8,15.1,28.9c7.6,11,30.4,44,64.3,48.2C95.4,443.8,97.9,440.1,126.7,441z"/>
	<path class="st3" d="M196.7,369.2l5.1-0.8l-0.3-2c-0.8-5-1.6-10.2-1.7-15.9c-0.1-6,0.4-11.8,1.2-17.3c-1.8-1.4-3.7-2.7-5.4-3.9
		c-1.2,6.7-2,13.9-1.8,21.4c0.1,4.4,0.6,8.4,1.1,12.2c-2.9-9.4-6.8-19.1-11.4-30.4c-7.4-18.2-14.3-33.1-19.6-42.1l-5.2,3
		c5,8.6,12,23.7,19.2,41.3c6.5,16,11.7,28.9,14.2,41.9c-4.5-13.4-11.5-25.8-20.5-36.2c-4.5-5.2-10.9-9.1-16-12.1
		c-2.1-1.3-4.1-2.5-5.7-3.6l-3.5,4.8l0,0c0,0,0,0,0,0c1.8,1.3,3.9,2.5,6.1,3.9c5,3,10.7,6.4,14.6,10.9c10.5,12.1,18.1,27,22,43.1
		l4.5-1.1c0.2,2,0.3,4.1,0.3,6.1c0.4,31.7-15.8,55.5-22.8,64.3c-6.3,7.9-13.7,14.7-22,20.4l3.4,5c8.7-6,16.6-13.2,23.3-21.6
		c9.2-11.5,24.5-35.6,24.1-68.1C199.8,384.4,198.6,376.8,196.7,369.2z"/>
	<path class="st6" d="M228.5,442.7c3-6.1,3.6-11.8,3.6-15.5v-5.5l-5,2.3c-8.1,3.8-15.9,7.4-23.1,10.8l-0.4,0.2
		c-6.8,3.1-10.5,4.8-14.5,8.5c-4.9,4.5-8.4,10.3-10.6,17.1l-1.5,4.7l5-0.2c2-0.1,4.6-0.3,7.3-0.6c9.2-1,15.2-1.6,21.6-4.6
		C218.9,456,224.9,450.2,228.5,442.7z M188.4,457.7c-0.5,0-0.9,0.1-1.3,0.1c1.7-3.5,4-6.6,6.7-9.1c3.2-2.9,6.2-4.3,12.7-7.3l0.4-0.2
		c5.6-2.6,11.5-5.3,17.6-8.2c-0.4,2.1-1.1,4.3-2.3,6.7c-2.9,6-7.8,10.7-14.5,14C202.5,456.2,197.2,456.7,188.4,457.7z"/>
	<path class="st9" d="M400.9,428c16.5-0.9,27.5-13.2,33-19.3c4.7-5.3,8.4-10.9,11.3-16.6c-8.7,0.7-16.6,1.7-25,4.6
		c-1.8,9-5.4,17.4-11.4,24.2C406.4,423.7,403.6,426.1,400.9,428z"/>
	<path class="st9" d="M406.5,326.4c9.8,17.3,16.9,41.9,14.8,63.6c9-2.7,17.4-3.4,26.9-4.2c6.8-16.7,7.4-33,7.6-41.6
		c0.7-28.3-8-35.4-10.5-65.4c-2.3-27.1,2.4-49.6,6.5-63.8c-4.8,2.3-11.3,5.8-18.6,10.5c-5,3.2-20.6,13.8-37.1,33.1
		c-5.9,6.9-14.5,17-22.5,30.9C388.6,302.5,398.6,312.3,406.5,326.4z"/>
	<path class="st9" d="M286.2,378c-12.3-24.2-13.1-45.7-13.7-63.8c0-0.1,0-0.1,0-0.2c-8.7-1.5-16.2-2.2-21.9-2.6
		c-20.1-1.6-36,0.2-44.6,1.6c-2.2,0.4-3.9,0.7-5.1,0.9c-0.5,0.1-1.1,0.2-1.6,0.3c-7.8,1.7-14.2,3.6-19,5.3c4.4,2.5,9.6,5.7,15.3,9.6
		c1.8,1.2,3.6,2.5,5.4,3.9c9.2,7,19.2,15.9,28.7,27.3c19.3,23.1,18.1,34.2,38.5,53.9c9.1,8.8,30.5,28.8,60.9,30.6
		c7.6,0.4,22.3,1.3,34.2-7.2c-14.6-1.7-26.8-8.6-34.3-12.9C302.8,409.9,290.8,387.1,286.2,378z"/>
	<path class="st6" d="M283.8,233.5c-0.3,1.1-0.5,2.3-0.8,3.4c-1.5,6.4-3,12.6-4.3,18.7c-4.1,19.2-6.9,37.4-6.2,58.5
		c0,0.1,0,0.1,0,0.2c0.6,18.1,1.4,39.6,13.7,63.8c4.6,9.1,16.6,31.9,42.8,46.8c7.5,4.3,19.7,11.3,34.3,12.9c4.1,0.5,8.3,0.5,12.7,0
		c-1.1-2.4-1.7-4.7-2.1-6.1c-3.3-12.7,2.2-23.9,4.2-28.1c2.8-5.8,5.5-8.7,8.3-11.8c2.2-2.4,4.5-4.9,7.2-9.2
		c4.3-6.8,7.2-14.3,8.9-22.4l1.1-5.7l3.5,4.7c1.8,2.4,3.3,4.7,4.7,7.2c3.1,5.5,5.6,12,7.2,18.8c0.4,1.8,0.8,3.5,1.1,5.2
		c-1,0.3-2,0.6-3,1l-0.2,0.1c-0.6,0.2-1.2,0.4-1.8,0.7c-0.3-1.9-0.7-3.8-1.2-5.7c-1.5-6.3-3.8-12.3-6.7-17.4
		c-0.4-0.6-0.7-1.3-1.1-1.9c-1.9,6.5-4.6,12.7-8.1,18.3c-2.9,4.6-5.5,7.4-7.7,9.9c-2.7,2.9-5,5.5-7.5,10.6
		c-1.8,3.7-6.6,13.6-3.9,24.5c0.2,0.9,0.6,2.1,1,3.4c-0.3,3-0.4,6.5,0.4,10.1c0.6,2.7,1.7,5.4,3.4,8.1l0,0c1.7,2.5,3.6,4.5,5.8,6.1
		c1.3,1,2.7,1.8,4.2,2.4c2.5,1.1,5.1,1.6,7.7,1.7c0.4,0,0.7,0,1.1,0c11.5,0,23.2-8,29.4-14.7c4.2-4.5,6.6-9.1,9.4-15.5
		c0.7-1.5,1.3-3.1,2.1-4.8c0.2-0.6,0.5-1.2,0.8-1.8l0.2-0.4c1.6-3.8,2.5-6.7,3.4-9.2c1.1-3.4,2.1-6.1,4.1-9.8
		c3.2-5.8,7.4-10.9,12.6-15.4l6.4-5.5l-8.4,0.1c-3.6,0.1-8,0.2-13.2,0.6l-0.2,0c-0.3,0-0.5,0-0.8,0.1c-9.5,0.8-17.9,1.5-26.9,4.2
		c2.2-21.8-5-46.3-14.8-63.6c-7.9-14-17.9-23.8-33-37c-3.3-2.8-6.8-5.8-10.6-9.1c-19.3-16.4-27.7-19.5-41.2-33.9
		c-7-7.5-12.6-15-17.1-22.1c-0.1-0.2-0.3-0.4-0.4-0.7c-5.2-8.4-9-16.2-11.6-22.4c-1.7,5.3-3.7,12.3-5.9,20.6c-0.5,1.9-1,3.9-1.5,6
		C284.7,229.6,284.2,231.5,283.8,233.5z M445.3,392.1c1.4-0.1,2.7-0.2,4.1-0.3l0.2,0c1.8-0.1,3.5-0.3,5.1-0.3
		c-3.2,3.5-5.9,7.3-8.2,11.5c-2.3,4.2-3.3,7.3-4.5,10.8c-0.8,2.4-1.7,5.2-3.2,8.8l-0.2,0.4c-4,9.5-6.4,15.3-11.1,20.4
		c-7.9,8.7-21.6,15.7-31.3,11.5c-2.9-1.2-5.3-3.3-7.4-6.3c-2.8-4.2-3.3-8.9-3-12.9c3.3-1.1,9.2-3.3,15.1-7.5c2.7-1.9,5.5-4.3,8-7.2
		c6-6.8,9.6-15.2,11.4-24.2C428.7,393.8,436.6,392.8,445.3,392.1z"/>
	<path class="st3" d="M425.7,463.9c-5,1.3-13.8,2.8-22.3-0.9c-0.6-0.3-1.2-0.6-2-0.9c-2.6-0.1-5.2-0.6-7.7-1.7
		c-1.5-0.6-2.9-1.4-4.2-2.4c3,5.9,8.9,8.5,11.8,9.8c4.8,2.1,9.5,2.8,13.8,2.8c1.2,0,2.4-0.1,3.5-0.2c0.5-0.6,1.1-1.2,1.6-1.8
		C422.2,466.7,424,465.2,425.7,463.9z"/>
	<path class="st3" d="M452.3,435.6l0.2,0.1c3.3,1.4,6.1,2.8,8.5,4.2c1.1-1.3,2.1-2.7,3.1-4.2c-2.7-1.6-5.9-3.2-9.6-4.8l-0.2-0.1
		c-2.6-1.1-6.3-2.6-10.9-3.8c-0.7,1.7-1.4,3.3-2.1,4.8C445.9,433,449.6,434.5,452.3,435.6z"/>
	<path class="st3" d="M482.5,451.1l-0.7-0.7c0,0.2,0,0.5-0.1,0.7L482.5,451.1z"/>
	<path class="st3" d="M379.9,433.6c-0.5-1.3-0.8-2.4-1-3.4c-2.8-10.9,2-20.8,3.9-24.5c2.5-5.1,4.8-7.6,7.5-10.6
		c2.2-2.5,4.8-5.3,7.7-9.9c3.6-5.7,6.3-11.8,8.1-18.3c0.4,0.6,0.8,1.3,1.1,1.9c2.9,5.1,5.2,11.1,6.7,17.4c0.5,1.9,0.9,3.8,1.2,5.7
		c0.6-0.2,1.2-0.5,1.8-0.7l0.2-0.1c1-0.4,2-0.7,3-1c-0.3-1.7-0.7-3.4-1.1-5.2c-1.6-6.8-4.1-13.3-7.2-18.8c-1.4-2.5-2.9-4.8-4.7-7.2
		l-3.5-4.7l-1.1,5.7c-1.6,8.1-4.6,15.6-8.9,22.4c-2.7,4.3-5,6.8-7.2,9.2c-2.8,3.1-5.5,6-8.3,11.8c-2,4.2-7.5,15.3-4.2,28.1
		c0.4,1.5,1,3.7,2.1,6.1c1,2.1,2.4,4.2,4.3,6C379.5,440.1,379.6,436.6,379.9,433.6z"/>
	<path class="st7" d="M380.3,525c-4.8-30.5-29.6-46.9-40.4-54.1c-48.8-32.5-107.9-13.1-117.9-9.7c7.5,0.2,19.3,1.5,32.3,7.3
		c7.4,3.3,27.1,12.1,36.3,31.5c9,18.8,5.1,41.3,3.2,52.5c-0.9,5.4-3.2,16.4-1.5,30.2c0.8,6.2,2.1,11,4.7,15.8
		c3.6,6.5,17.8,18.6,20.8,20.9c7.4-0.7,25.9-11.7,44.4-29.1C364.8,588.1,386.1,561.5,380.3,525z"/>
	<path class="st10" d="M285.2,512.6c-9.1-26.2-34.4-42.9-71.4-46.9c0.6,0.5,1.2,0.9,1.8,1.4c4.5,3.3,9.5,7,14.3,14.5
		c7.4,11.7,10,21.4,12.5,30.8c2.2,8.4,4.3,16.3,9.8,24.9c6.8,10.7,17.1,19.6,30.6,26.4c0.1-0.5,0.3-1.1,0.4-1.6
		C285.9,551.7,291.3,530.3,285.2,512.6z"/>
	<path class="st11" d="M212.6,463.7c-0.9-0.1-1.5-0.2-1.8-0.2l-3.5-0.7l2.7,2.4c1.4,1.2,2.9,2.3,4.5,3.5c4.3,3.2,9.3,6.8,13.8,14
		c7.3,11.4,9.8,21,12.3,30.2c2.3,8.5,4.4,16.6,10,25.4c7.1,11.3,18.1,20.6,32.5,27.6l1.1,0.5l0.3-1.1c0.2-0.8,0.4-1.7,0.7-2.8
		c2.6-10.5,8.1-32.3,1.8-50.4C277.4,484.7,251.1,467.6,212.6,463.7z M282.9,563.6c-13.6-6.8-23.9-15.7-30.6-26.4
		c-5.4-8.6-7.5-16.5-9.8-24.9c-2.5-9.4-5.1-19.1-12.5-30.8c-4.8-7.5-9.8-11.2-14.3-14.5c-0.6-0.5-1.2-0.9-1.8-1.4
		c36.9,4.1,62.2,20.7,71.4,46.9c6.1,17.6,0.7,39-1.9,49.3C283.1,562.5,283,563.1,282.9,563.6z"/>
	<path class="st8" d="M453.3,586c11.6-16.6-0.8-21.3,20.2-61.8c5.2-10.2,19.6-22.6,22.6-27.8c-6.5,0.6-16.1,1.9-27.5,4.8
		c-14.2,3.7-41.8,13.1-64.8,42.6c-11.8,15.1-16.1,19.3-28,37.3c-15.2,23.1-35.7,36.6-50.9,44.4c11,3.1,32.4,7.6,58.1,2.4
		C391,626.4,430.7,618.4,453.3,586z"/>
	<path class="st10" d="M451.3,452c-5.2,3.9-9.5,5.7-13.6,7.5c-5.2,2.3-10.1,4.4-15.9,10.4c-9,9.2-12.3,19.4-17.9,36.3
		c-3.6,11-6.3,22.5-8,34.2c10-11,21.3-20.9,33.6-29.2c8.8-6,15.3-9.4,20.6-12c7.3-3.7,12.2-6.2,17.5-13.3c13.7-18,13-42.3,12.7-52.7
		c-0.2-7.5-1.2-14.8-2.9-21.8C471.9,429.6,463.1,443.2,451.3,452z"/>
	<path class="st11" d="M450.1,450.5c-5,3.7-9.2,5.6-13.2,7.3c-3.7,1.6-7.3,3.2-11.2,6.1c-1.7,1.3-3.5,2.8-5.3,4.7
		c-0.6,0.6-1.1,1.2-1.6,1.8c-8.1,9.1-11.4,19.2-16.7,35.3c-4,12-6.8,24.7-8.5,37.6l-0.4,3.1l2-2.3c10.4-11.9,22.3-22.4,35.3-31.2
		c8.7-6,15.2-9.3,20.4-11.9c7.6-3.9,12.6-6.4,18.2-13.8c8.6-11.2,11.7-24.7,12.7-36c0-0.2,0-0.5,0.1-0.7c0.6-7,0.4-13.1,0.3-17.2
		c-0.3-8.8-1.5-17.4-3.8-25.6l-0.9-3.3l-0.9,3.3c-3,11-7.1,20.3-12.4,28.1c-1,1.5-2,2.9-3.1,4.2C457.8,444,454.1,447.6,450.1,450.5z
		 M467.6,486c-5.4,7.1-10.2,9.5-17.5,13.3c-5.2,2.7-11.7,6-20.6,12c-12.3,8.4-23.6,18.2-33.6,29.2c1.7-11.7,4.4-23.2,8-34.2
		c5.5-16.9,8.9-27.1,17.9-36.3c5.9-6,10.8-8.1,15.9-10.4c4.1-1.8,8.4-3.7,13.6-7.5c11.9-8.8,20.6-22.5,26.1-40.5
		c1.7,7.1,2.7,14.4,2.9,21.8C480.5,443.7,481.3,468,467.6,486z"/>
	<path class="st3" d="M380.2,562.3l5.9,1.3c2-9,3.3-18.3,4.1-27.8c2.6-32-2.6-56.5-4.9-65.6c-1.6-6.3-5.7-16.8-11.9-31.2l-5.5,2.4
		c6.1,13.9,10.1,24.3,11.6,30.3c2.3,8.8,7.3,32.5,4.8,63.6C383.4,544.5,382.1,553.6,380.2,562.3z"/>
	<path class="st6" d="M470.6,569.5l0-0.2l-1.8-2.3l-5.3,0.1v3.2c-1,5.4-2.7,10.5-5,15.3c-1.8,3.8-7.5,15.5-20.3,23.9
		c-5.3,3.5-11.1,6-17.5,7.5l-1,0.2l-0.7,0.7c-1,1-1.4,2.6-0.8,4l0.9,2.2h1.8c5.5,1.8,11.1,2.6,16.5,2.6c14,0,26.6-5.7,33.2-16
		c5-7.8,6.9-18.9,4.8-28.8C474.6,577.5,472.9,573.4,470.6,569.5z M464.8,607c-5.7,8.9-17.5,13.6-30.3,12.7c2.7-1.2,5.2-2.7,7.6-4.3
		c14.5-9.5,20.7-22.4,22.8-26.7c1.2-2.5,2.3-5.1,3.2-7.8c0.2,0.8,0.4,1.6,0.6,2.5C470.3,591.5,468.8,600.7,464.8,607z"/>
</g>
</svg>
