<?xml version="1.0" standalone="no"?>
<!DOCTYPE svg PUBLIC "-//W3C//DTD SVG 1.1//EN" "http://www.w3.org/Graphics/SVG/1.1/DTD/svg11.dtd" >
<svg xmlns="http://www.w3.org/2000/svg" xmlns:xlink="http://www.w3.org/1999/xlink" version="1.1">
<metadata>
Created by FontForge 20170731 at Fri Mar 13 16:23:27 2015
 By Aleksey,,,
Copyright (c) 2015 by Fontfabric LLC. All rights reserved.
</metadata>
<defs>
<font id="MullerHeavyItalic" horiz-adv-x="625" >
  <font-face 
    font-family="Muller Heavy Italic"
    font-weight="900"
    font-style="italic"
    font-stretch="normal"
    units-per-em="1000"
    panose-1="0 0 0 0 0 0 0 0 0 0"
    ascent="780"
    descent="-220"
    x-height="480"
    cap-height="700"
    bbox="-219 -300 1432 1001"
    underline-thickness="50"
    underline-position="-275"
    slope="-9"
    unicode-range="U+0020-25CA"
  />
<missing-glyph horiz-adv-x="164" 
 />
    <glyph glyph-name="f_f" unicode="ff" horiz-adv-x="780" 
d="M817 534q-21 10 -47 10q-46 0 -53 -37l-5 -27h87l-30 -190h-87l-46 -290h-242l46 290h-118l-46 -290h-242l46 290h-60l30 190h60l6 37q15 91 88.5 142.5t175.5 51.5q93 0 164 -35q62 61 180 61q63 0 122 -19zM352 480h118l4 25q0 3 1 9.5t2 9.5q-20 9 -54 9
q-31 0 -49 -13.5t-21 -33.5z" />
    <glyph glyph-name="f_f_i" unicode="ffi" horiz-adv-x="1058" 
d="M276 0h-242l46 290h-60l30 190h60l6 37q15 91 88.5 142.5t175.5 51.5t177 -42q81 67 216 67q117 0 210 -38l-29 -179q-77 24 -138 24q-94 0 -103 -60l-1 -3h344l-76 -480h-242l46 290h-102l-46 -290h-242l46 290h-118zM353 486l-1 -6h118l3 19q1 4 2 13t2 12q-20 9 -54 9
q-31 0 -49 -13.5t-21 -33.5z" />
    <glyph glyph-name="f_f_l" unicode="ffl" horiz-adv-x="1074" 
d="M755 736q74 0 151 -23l206 17l-116 -730h-242l85 536q-21 6 -43 4q-32 0 -56 -16t-28 -43v-1h67l-30 -190h-67l-46 -290h-242l46 290h-118l-46 -290h-242l46 290h-60l30 190h60l6 37q15 91 88.5 142.5t175.5 51.5q100 0 176 -41q76 66 199 66zM470 480l3 19l4 25
q-20 9 -54 9q-31 0 -49 -13.5t-21 -33.5l-1 -6h118z" />
    <glyph glyph-name=".notdef" horiz-adv-x="164" 
 />
    <glyph glyph-name=".null" horiz-adv-x="0" 
 />
    <glyph glyph-name="nonmarkingreturn" horiz-adv-x="333" 
 />
    <glyph glyph-name="space" unicode=" " horiz-adv-x="164" 
 />
    <glyph glyph-name="exclam" unicode="!" horiz-adv-x="321" 
d="M254 286h-190l31 414h260zM258 91q-9 -54 -46.5 -81t-89.5 -27q-58 0 -92.5 37t-23.5 103q9 54 46 81t88 27q59 0 93.5 -37t24.5 -103z" />
    <glyph glyph-name="quotedbl" unicode="&#x22;" horiz-adv-x="516" 
d="M479 412h-172l46 288h210zM227 412h-172l46 288h210z" />
    <glyph glyph-name="numbersign" unicode="#" horiz-adv-x="748" 
d="M216 0h-206l45 115h-58l26 160h96l51 131h-77l26 160h115l45 115h206l-45 -115h64l45 115h206l-45 -115h57l-26 -160h-95l-51 -131h76l-26 -160h-114l-45 -115h-206l45 115h-64zM376 406l-51 -131h64l51 131h-64z" />
    <glyph glyph-name="dollar" unicode="$" horiz-adv-x="652" 
d="M350 -110h-180l16 100q-103 16 -183 64l35 224q106 -81 231 -81q74 0 77 20q2 12 -20.5 21.5t-57.5 17.5t-74.5 26t-72 41.5t-50 68.5t-8.5 105q12 79 76.5 129.5t156.5 64.5l16 99h180l-16 -102q93 -15 167 -54l-34 -216q-97 69 -219 69q-55 0 -58 -20q-1 -10 15.5 -18
t43.5 -16.5t60 -19t64.5 -28.5t56.5 -41.5t37 -62.5t5 -87q-28 -182 -249 -207z" />
    <glyph glyph-name="percent" unicode="%" horiz-adv-x="989" 
d="M307 -60h-144l539 820h144zM478 503q-14 -91 -78 -136.5t-152 -45.5q-93 0 -149 56t-40 158q14 91 77.5 136.5t152.5 45.5q93 0 149 -56t40 -158zM227 519q-7 -46 34 -46q43 0 50 46t-34 46q-43 0 -50 -46zM949 165q-14 -91 -77.5 -136.5t-151.5 -45.5q-95 0 -149.5 55.5
t-38.5 158.5q14 91 77.5 137t151.5 46q95 0 150 -56t38 -159zM698 182q-7 -46 34 -46q43 0 50 46t-34 46q-43 0 -50 -46z" />
    <glyph glyph-name="ampersand" unicode="&#x26;" horiz-adv-x="750" 
d="M555 359h196q-17 -128 -138 -237l99 -122h-218l-26 30q-112 -47 -228 -47q-124 0 -188 54t-49 147q17 109 173 190q-71 89 -59 162q12 81 90 131t180 50q122 0 187 -58t48 -144q-18 -95 -175 -186l61 -76q41 50 47 106zM380 567q-26 0 -42 -14t-18 -33q-4 -24 29 -69
q71 35 77 71q3 19 -10 32t-36 13zM228 188q-2 -17 12.5 -29t48.5 -12q32 0 70 11l-78 92q-50 -30 -53 -62z" />
    <glyph glyph-name="quotesingle" unicode="'" horiz-adv-x="264" 
d="M227 412h-172l46 288h210z" />
    <glyph glyph-name="parenleft" unicode="(" horiz-adv-x="360" 
d="M261 813h174q-67 -129 -110.5 -238t-63.5 -231q-34 -216 23 -458h-164q-58 104 -83 230t-5 250q19 116 80.5 236t148.5 211z" />
    <glyph glyph-name="parenright" unicode=")" horiz-adv-x="359" 
d="M94 814h165q58 -104 82.5 -230t4.5 -250q-19 -116 -80 -236t-148 -211h-175q67 126 110.5 236t63.5 233q36 226 -23 458z" />
    <glyph glyph-name="asterisk" unicode="*" horiz-adv-x="554" 
d="M294 361l-75 -118l-153 112l88 71l-109 23l107 194l87 -61l2 118h208l-40 -118l103 61l47 -194l-115 -23l68 -71l-181 -112z" />
    <glyph glyph-name="plus" unicode="+" horiz-adv-x="558" 
d="M399 446h159l-30 -190h-160l-25 -159h-190l25 159h-158l30 190h159l25 159h190z" />
    <glyph glyph-name="comma" unicode="," horiz-adv-x="294" 
d="M91 -143h-176l124 320h223z" />
    <glyph glyph-name="hyphen" unicode="-" horiz-adv-x="476" 
d="M45 330h398l-28 -180h-398z" />
    <glyph glyph-name="period" unicode="." horiz-adv-x="292" 
d="M244 91q-9 -54 -46.5 -81t-89.5 -27q-58 0 -92.5 37t-23.5 103q9 54 46 81t88 27q59 0 93.5 -37t24.5 -103z" />
    <glyph glyph-name="slash" unicode="/" horiz-adv-x="523" 
d="M132 -62h-172l451 824h172z" />
    <glyph glyph-name="zero" unicode="0" horiz-adv-x="703" 
d="M36 356q11 70 38 129.5t71 108t111 76t150 27.5t144 -30.5t92 -82.5t43 -119t-2 -141q-23 -148 -115.5 -244.5t-253.5 -96.5q-83 0 -144.5 30.5t-92.5 82.5t-43.5 119t2.5 141zM422 340q12 71 2 99t-42 28q-31 0 -52 -29t-33 -98q-12 -71 -2 -99t43 -28q31 0 51.5 29
t32.5 98z" />
    <glyph glyph-name="one" unicode="1" horiz-adv-x="522" 
d="M272 680h195l-74 -465h103l-34 -215h-473l34 215h114l35 220l-108 -41l35 220z" />
    <glyph glyph-name="two" unicode="2" horiz-adv-x="629" 
d="M106 629q130 68 265 68q55 0 102 -14t84.5 -42t55 -76.5t7.5 -111.5q-8 -54 -35 -89t-78 -68q-10 -7 -43 -26.5t-53 -33t-25 -20.5h195l-34 -215h-561l18 112q15 90 64.5 144t135.5 102q17 10 40.5 22t38 19.5t29 16t22.5 17t9 16.5q2 10 -6.5 16.5t-25.5 6.5
q-104 0 -244 -91z" />
    <glyph glyph-name="three" unicode="3" horiz-adv-x="605" 
d="M584 481q-7 -44 -39 -81t-91 -55q54 -11 87.5 -55.5t22.5 -115.5q-8 -53 -37 -91t-73.5 -59.5t-94 -31t-107.5 -9.5q-153 0 -260 49l34 212q100 -49 215 -49q79 0 83 32q2 10 -5 16.5t-22 6.5h-131l29 184h97q36 0 40 21q2 13 -10.5 20t-37.5 7q-111 0 -216 -59l34 215
q104 59 240 59q111 0 185 -55t57 -161z" />
    <glyph glyph-name="four" unicode="4" horiz-adv-x="690" 
d="M384 680h264l-64 -403h80l-32 -200h-80l-12 -77h-235l12 77h-332l34 212zM349 277l19 120l-112 -120h93z" />
    <glyph glyph-name="five" unicode="5" horiz-adv-x="607" 
d="M140 680h475l-34 -214h-254l-9 -43q26 3 46 3q33 0 64 -7t60 -24t49 -42t29 -64t1 -88q-8 -50 -32.5 -89t-57.5 -63t-77 -39t-87 -21t-91 -6q-136 0 -234 48l30 192q68 -35 164 -35q119 0 127 50q4 27 -26 38.5t-81 11.5q-66 0 -146 -16z" />
    <glyph glyph-name="six" unicode="6" horiz-adv-x="677" 
d="M305 407q62 33 140 33q44 0 83 -14.5t69 -41.5t43.5 -72t4.5 -102q-12 -79 -61 -132t-112.5 -74t-140.5 -21q-172 0 -247.5 99.5t-47.5 273.5q14 89 55 156.5t99.5 106.5t123 58.5t132.5 19.5q120 0 209 -51l-29 -183q-66 36 -140 36q-133 0 -181 -92zM332 171
q28 0 48 13.5t24 39.5q4 21 -8 33.5t-35 12.5q-41 0 -85 -27q5 -72 56 -72z" />
    <glyph glyph-name="seven" unicode="7" horiz-adv-x="598" 
d="M80 680h567l-27 -167l-316 -513h-292l287 465h-253z" />
    <glyph glyph-name="eight" unicode="8" horiz-adv-x="668" 
d="M627 178q-13 -85 -97 -140t-237 -55q-160 0 -229.5 62.5t-55.5 152.5q8 50 43 91t79 63q-62 58 -48 151q13 78 92.5 136t215.5 58q137 0 206.5 -65.5t54.5 -146.5q-8 -46 -33 -72.5t-72 -52.5q101 -57 81 -182zM261 217q-2 -19 13 -32t40 -13q51 0 60 30q7 25 -36 46
q-7 4 -21 11l-20 10q-33 -19 -36 -52zM349 437q6 -3 20 -8t17 -6q27 16 30 41q2 19 -10.5 31.5t-38.5 12.5q-21 0 -34.5 -8.5t-15.5 -21.5q-3 -23 32 -41z" />
    <glyph glyph-name="nine" unicode="9" horiz-adv-x="677" 
d="M48 470q12 79 61 132t112.5 74t140.5 21q166 0 244 -100.5t51 -272.5q-28 -173 -138.5 -257t-261.5 -84q-133 0 -221 50l30 185q67 -37 146 -37q71 0 113.5 20.5t66.5 73.5q-64 -35 -144 -35q-100 0 -159 59.5t-41 170.5zM359 509q-27 0 -46.5 -13t-23.5 -38
q-3 -22 10.5 -35t37.5 -13q45 0 83 24q-6 75 -61 75z" />
    <glyph glyph-name="colon" unicode=":" horiz-adv-x="296" 
d="M280 361q-8 -50 -43 -75.5t-84 -25.5q-55 0 -87 35.5t-23 97.5q9 51 43 76t82 25q56 0 89 -35.5t23 -97.5zM236 84q-8 -50 -43 -75.5t-84 -25.5q-55 0 -87 35.5t-22 97.5q8 50 42.5 75.5t82.5 25.5q56 0 88.5 -35.5t22.5 -97.5z" />
    <glyph glyph-name="semicolon" unicode=";" horiz-adv-x="312" 
d="M94 -143h-176l124 320h223zM301 354q-9 -54 -46 -81t-89 -27q-58 0 -92.5 37t-24.5 103q9 54 46 81t88 27q59 0 94 -37t24 -103z" />
    <glyph glyph-name="less" unicode="&#x3c;" horiz-adv-x="512" 
d="M467 305l-33 -206l-417 130l38 241l458 130l-33 -212l-250 -43z" />
    <glyph glyph-name="equal" unicode="=" 
d="M587 380h-520l29 180h520zM549 140h-520l29 180h520z" />
    <glyph glyph-name="greater" unicode="&#x3e;" horiz-adv-x="512" 
d="M475 229l-457 -130l34 213l251 43l-237 44l32 202l415 -130z" />
    <glyph glyph-name="question" unicode="?" horiz-adv-x="509" 
d="M326 269h-221q6 43 29.5 79t47.5 55t45.5 37.5t24.5 31.5q2 9 -5 15t-24 6q-34 0 -83.5 -15.5t-83.5 -33.5l37 233q93 40 200 40q49 0 91 -9.5t78.5 -31t53.5 -62.5t8 -98q-6 -35 -27.5 -68t-48.5 -58t-53.5 -46.5t-46 -41t-22.5 -33.5zM318 91q-9 -54 -46.5 -81
t-89.5 -27q-58 0 -92.5 37t-23.5 103q9 54 46 81t88 27q59 0 93.5 -37t24.5 -103z" />
    <glyph glyph-name="at" unicode="@" horiz-adv-x="1040" 
d="M16 256q14 90 59.5 172.5t116.5 147t172.5 103t217.5 38.5q115 0 205 -42t140 -108.5t70.5 -145t8.5 -156.5q-19 -124 -97 -190.5t-183 -66.5q-124 0 -170 82q-51 -56 -128 -56q-62 0 -103 36t-53.5 85t-4.5 100q11 70 60 128t127 58q76 0 119 -62l8 51h176l-36 -229
q-7 -43 26 -43q32 0 47 30.5t24 88.5q7 43 -2.5 86.5t-35.5 83.5t-79 65.5t-126 25.5q-145 0 -244 -84t-118 -210q-13 -79 6 -138t63 -93.5t102.5 -51t130.5 -16.5q122 0 226 30l-28 -179q-87 -32 -211 -32q-105 0 -198.5 31.5t-165.5 90.5t-106.5 155t-15.5 215zM558 282
q-10 17 -32 17q-29 0 -43.5 -19.5t-17.5 -42.5q-4 -22 5 -40t33 -18q23 0 41 15z" />
    <glyph glyph-name="A" unicode="A" horiz-adv-x="775" 
d="M735 0h-256l-10 80h-214l-36 -80h-272l362 700h286zM388 378l-53 -118h111l-15 117q-7 60 -7 100q-12 -47 -36 -99z" />
    <glyph glyph-name="B" unicode="B" horiz-adv-x="711" 
d="M107 700h371q117 0 179 -49t47 -144q-16 -98 -119 -139q56 -18 81 -65.5t15 -115.5q-17 -105 -97 -146t-213 -41h-375zM425 239q3 16 -6.5 28.5t-33.5 12.5h-78l-14 -90h71q25 0 41 13.5t20 35.5zM449 474q2 14 -7 26t-32 12h-66l-14 -84h60q24 0 40 13t19 33z" />
    <glyph glyph-name="C" unicode="C" horiz-adv-x="641" 
d="M28 361q14 93 58.5 164t106.5 111.5t129.5 60.5t138.5 20q117 0 206 -46l-35 -219q-53 35 -139 35q-74 0 -127.5 -33t-66.5 -105q-11 -62 28 -97t98 -35q101 0 181 42l-38 -239q-84 -37 -194 -37q-77 0 -144 22.5t-119 66.5t-75 118.5t-8 170.5z" />
    <glyph glyph-name="D" unicode="D" horiz-adv-x="742" 
d="M107 700h313q177 0 256.5 -100.5t53.5 -265.5q-24 -156 -125.5 -245t-283.5 -89h-325zM461 356q20 124 -74 124h-49l-41 -260h37q52 0 83.5 29.5t43.5 106.5z" />
    <glyph glyph-name="E" unicode="E" 
d="M107 700h550l-32 -200h-284l-9 -60h244l-28 -178h-244l-10 -60h290l-32 -202h-556z" />
    <glyph glyph-name="F" unicode="F" horiz-adv-x="599" 
d="M107 700h530l-36 -230h-264l-10 -60h235l-35 -220h-235l-30 -190h-266z" />
    <glyph glyph-name="G" unicode="G" horiz-adv-x="686" 
d="M29 366q12 74 43.5 134t74.5 100t97 67t108 38.5t109 11.5q133 0 232 -44l-35 -220q-63 34 -156 34q-181 0 -204 -143q-10 -60 14.5 -89t61.5 -29q13 0 22 3l27 166h248l-58 -369q-95 -43 -229 -43q-78 0 -147.5 24.5t-121.5 71t-76 121t-10 166.5z" />
    <glyph glyph-name="H" unicode="H" horiz-adv-x="752" 
d="M509 700h266l-111 -700h-266l37 235h-136l-37 -235h-266l111 700h266l-37 -235h136z" />
    <glyph glyph-name="I" unicode="I" horiz-adv-x="350" 
d="M107 700h266l-111 -700h-266z" />
    <glyph glyph-name="J" unicode="J" horiz-adv-x="520" 
d="M132 700h416l-70 -445q-43 -265 -317 -265q-122 0 -189 31l35 223q43 -14 98 -14q103 0 114 72l27 168h-150z" />
    <glyph glyph-name="K" unicode="K" horiz-adv-x="746" 
d="M531 700h301l-270 -351l150 -349h-278l-97 235h-38l-37 -235h-266l111 700h266l-37 -235h35z" />
    <glyph glyph-name="L" unicode="L" horiz-adv-x="602" 
d="M107 700h266l-74 -470h284l-37 -230h-550z" />
    <glyph glyph-name="M" unicode="M" horiz-adv-x="904" 
d="M682 700h245l-111 -700h-256l46 289l-108 -147h-134l-66 147l-46 -289h-256l111 700h221l134 -299z" />
    <glyph glyph-name="N" unicode="N" horiz-adv-x="762" 
d="M262 0h-266l111 700h189l186 -289q1 62 11 122l26 167h266l-111 -700h-189l-185 289q-1 -62 -11 -122z" />
    <glyph glyph-name="O" unicode="O" horiz-adv-x="800" 
d="M788 334q-24 -155 -136 -253t-292 -98q-182 0 -270 108.5t-62 274.5q24 155 135.5 253t291.5 98q182 0 270.5 -108.5t62.5 -274.5zM298 334q-10 -111 87 -111q54 0 90.5 37.5t42.5 105.5q10 111 -88 111q-54 0 -89.5 -37.5t-42.5 -105.5z" />
    <glyph glyph-name="P" unicode="P" horiz-adv-x="703" 
d="M107 700h322q67 0 121.5 -15.5t96 -48t58.5 -90.5t5 -135q-22 -141 -111.5 -199t-243.5 -58h-68l-25 -154h-266zM455 431q4 24 -11 39.5t-47 15.5h-58l-19 -118h46q79 0 89 63z" />
    <glyph glyph-name="Q" unicode="Q" horiz-adv-x="800" 
d="M745 74l-154 -122l-54 61q-82 -30 -177 -30q-182 0 -270 108.5t-62 274.5q24 155 135.5 253t291.5 98q182 0 270.5 -108.5t62.5 -274.5q-18 -119 -90 -206zM288 334q-4 -61 23.5 -91t75.5 -30h3l-45 52l125 111l50 -58q7 25 8 48q4 61 -23.5 91t-76.5 30q-56 0 -95.5 -40
t-44.5 -113z" />
    <glyph glyph-name="R" unicode="R" horiz-adv-x="742" 
d="M262 0h-266l111 700h342q58 0 108.5 -14.5t92.5 -44.5t61 -84.5t8 -127.5q-21 -137 -137 -197l127 -232h-280l-95 190h-42zM340 490l-17 -108h61q29 0 49 15.5t24 42.5q3 18 -8.5 34t-35.5 16h-73z" />
    <glyph glyph-name="S" unicode="S" horiz-adv-x="641" 
d="M62 517q14 95 102.5 147.5t202.5 52.5q157 0 275 -63l-34 -216q-101 64 -219 64q-55 0 -58 -20q-1 -10 15 -19t43 -18.5t59 -21.5t63.5 -31.5t56 -45t36 -65t4.5 -87.5q-32 -211 -328 -211q-167 0 -283 71l35 224q108 -76 231 -76q74 0 77 20q2 10 -14.5 19t-43.5 18
t-59.5 21t-64 31.5t-56 45.5t-36.5 67t-4 93z" />
    <glyph glyph-name="T" unicode="T" horiz-adv-x="647" 
d="M75 700h626l-36 -230h-180l-75 -470h-266l75 470h-180z" />
    <glyph glyph-name="U" unicode="U" horiz-adv-x="736" 
d="M499 700h266l-68 -432q-45 -285 -373 -285q-66 0 -122 16.5t-99.5 51t-63 94.5t-6.5 139l66 416h266l-67 -420q-8 -57 57 -57q68 0 80 73z" />
    <glyph glyph-name="V" unicode="V" horiz-adv-x="762" 
d="M471 0h-272l-141 700h268l44 -389l171 389h292z" />
    <glyph glyph-name="W" unicode="W" horiz-adv-x="1132" 
d="M901 700h297l-320 -700h-289l-25 291l-120 -291h-282l-98 700h276l26 -367l149 367h212l30 -367z" />
    <glyph glyph-name="X" unicode="X" horiz-adv-x="761" 
d="M247 0h-319l300 358l-175 342h301l58 -162l113 162h319l-286 -342l181 -358h-301l-66 167z" />
    <glyph glyph-name="Y" unicode="Y" horiz-adv-x="772" 
d="M470 0h-264l40 239l-188 461h281l61 -246l135 246h310l-335 -461z" />
    <glyph glyph-name="Z" unicode="Z" horiz-adv-x="661" 
d="M589 0h-609l26 165l273 305h-209l36 230h580l-26 -165l-272 -305h238z" />
    <glyph glyph-name="bracketleft" unicode="[" horiz-adv-x="405" 
d="M318 -110h-337l145 920h337l-32 -206h-98l-81 -508h98z" />
    <glyph glyph-name="backslash" unicode="\" horiz-adv-x="512" 
d="M442 -62h-164l-189 824h164z" />
    <glyph glyph-name="bracketright" unicode="]" horiz-adv-x="405" 
d="M298 -110h-337l32 206h98l81 508h-98l32 206h337z" />
    <glyph glyph-name="asciicircum" unicode="^" horiz-adv-x="693" 
d="M276 308h-251l280 392h214l157 -392h-233l-56 166z" />
    <glyph glyph-name="underscore" unicode="_" horiz-adv-x="537" 
d="M457 -216h-537l30 192h537z" />
    <glyph glyph-name="grave" unicode="`" horiz-adv-x="407" 
d="M456 745h-196l-103 176h222z" />
    <glyph glyph-name="a" unicode="a" 
d="M340 42q-53 -59 -150 -59q-103 0 -150 79t-29 194q16 105 77 173t162 68q49 0 88.5 -23t60.5 -59l10 65h213l-76 -480h-213zM256 237q-4 -30 7.5 -46t30.5 -17q21 0 40 16l16 100q-8 15 -30 15q-24 0 -42 -19t-22 -49z" />
    <glyph glyph-name="b" unicode="b" horiz-adv-x="626" 
d="M98 700h242l-39 -246q57 43 122 43q101 0 147.5 -79.5t28.5 -193.5q-17 -104 -77 -172.5t-155 -68.5q-100 0 -157 79l-10 -62h-213zM353 241q4 26 -5 45t-33 19q-21 0 -40 -16l-16 -101q10 -13 31 -13q23 0 40.5 19t22.5 47z" />
    <glyph glyph-name="c" unicode="c" horiz-adv-x="484" 
d="M7 240q10 86 61 146t118 85.5t142 25.5q82 0 153 -29l-29 -185q-39 18 -86 18q-101 0 -111 -62q-4 -29 18.5 -43.5t62.5 -14.5q56 0 108 21l-31 -197q-79 -22 -143 -22q-130 0 -204 68t-59 189z" />
    <glyph glyph-name="d" unicode="d" horiz-adv-x="624" 
d="M416 700h242l-111 -700h-213l8 52q-60 -69 -151 -69q-97 0 -146.5 80t-32.5 193q16 104 78 172.5t161 68.5q83 0 125 -51zM351 290q-8 15 -30 15q-24 0 -42 -19t-22 -49t7.5 -46t30.5 -17q21 0 40 16z" />
    <glyph glyph-name="e" unicode="e" horiz-adv-x="546" 
d="M11 261q9 61 40 108t73 74t87 40.5t88 13.5q63 0 110 -19t72.5 -50.5t37 -71.5t8 -81t-18.5 -81h-284q14 -50 118 -50q78 0 148 20l-25 -160q-72 -21 -171 -21q-55 0 -106.5 14.5t-97 44.5t-68 87t-11.5 132zM338 288q7 26 -4 42t-35 16q-29 0 -46.5 -18.5t-20.5 -39.5
h106z" />
    <glyph glyph-name="f" unicode="f" horiz-adv-x="420" 
d="M118 528q10 58 34.5 97.5t60.5 58.5t70.5 26t77.5 7q63 0 122 -19l-28 -173q-21 10 -47 10q-47 0 -53 -38l-3 -17h87l-30 -190h-87l-46 -290h-242l46 290h-60l30 190h60z" />
    <glyph glyph-name="g" unicode="g" 
d="M552 31q-12 -73 -43.5 -126.5t-77 -83.5t-95.5 -44t-105 -14q-143 0 -243 42l30 191q83 -37 161 -37q118 0 131 73l2 11q-46 -40 -117 -40q-104 0 -152 74.5t-30 188.5q16 102 80 166.5t160 64.5q48 0 86.5 -22t60.5 -55l10 60h213zM258 242q-4 -30 7.5 -46t30.5 -17
q21 0 40 16l16 100q-8 15 -30 15q-24 0 -42 -19t-22 -49z" />
    <glyph glyph-name="h" unicode="h" horiz-adv-x="596" 
d="M98 700h242l-37 -236q61 33 117 33q88 0 125.5 -56.5t26.5 -128.5l-50 -312h-242l44 277q3 18 -18 18q-16 0 -32 -11l-45 -284h-242z" />
    <glyph glyph-name="i" unicode="i" horiz-adv-x="307" 
d="M229 0h-242l76 480h242zM325 615q-8 -50 -43 -75.5t-83 -25.5q-54 0 -86 34t-23 95q9 50 44 75.5t83 25.5q54 0 86 -34t22 -95z" />
    <glyph glyph-name="j" unicode="j" horiz-adv-x="307" 
d="M220 -57q-14 -91 -77.5 -135.5t-146.5 -44.5q-76 0 -130 22l30 189q14 -6 37 -6q48 0 57 53l73 459h242zM325 615q-8 -50 -43 -75.5t-83 -25.5q-54 0 -86 34t-23 95q9 50 44 75.5t83 25.5q54 0 86 -34t22 -95z" />
    <glyph glyph-name="k" unicode="k" horiz-adv-x="624" 
d="M402 480h264l-186 -255l98 -225h-250l-48 147h-28l-23 -147h-242l111 700h242l-58 -363h27z" />
    <glyph glyph-name="l" unicode="l" horiz-adv-x="307" 
d="M103 730h242l-116 -730h-242z" />
    <glyph glyph-name="m" unicode="m" horiz-adv-x="863" 
d="M534 435q26 28 69.5 45t91.5 17q80 0 117.5 -56.5t22.5 -151.5l-46 -289h-238l44 280q3 16 -15 16q-15 0 -28 -11q0 -3 -1 -9.5t-2 -9.5l-42 -266h-238l44 280q3 16 -15 16q-15 0 -28 -11l-45 -285h-238l76 480h214l-7 -44q20 25 60 43t83 18q84 0 121 -62z" />
    <glyph glyph-name="n" unicode="n" horiz-adv-x="596" 
d="M270 443q68 54 150 54q88 0 125.5 -56.5t26.5 -128.5l-50 -312h-242l44 277q3 18 -18 18q-16 0 -32 -11l-45 -284h-242l76 480h213z" />
    <glyph glyph-name="o" unicode="o" horiz-adv-x="594" 
d="M568 224q-20 -121 -102.5 -181t-207.5 -60q-57 0 -106 17.5t-85 50t-52 86t-5 119.5q19 121 101 181t207 60q57 0 106.5 -17.5t85.5 -50t52.5 -86t5.5 -119.5zM235 232q-4 -52 41 -52q26 0 43 18t20 50q4 52 -42 52q-25 0 -42 -18t-20 -50z" />
    <glyph glyph-name="p" unicode="p" horiz-adv-x="626" 
d="M268 429q70 68 151 68q103 0 150.5 -79t29.5 -194q-17 -107 -75.5 -174t-159.5 -67q-76 0 -130 50l-40 -253h-242l111 700h213zM353 241q4 26 -5 45t-33 19q-21 0 -40 -16l-16 -101q10 -13 31 -13q23 0 40.5 19t22.5 47z" />
    <glyph glyph-name="q" unicode="q" 
d="M11 256q16 105 77 173t162 68q49 0 88.5 -23t60.5 -59l10 65h213l-111 -700h-242l38 239q-44 -36 -117 -36q-103 0 -150 79t-29 194zM350 290q-8 15 -30 15q-24 0 -42 -19t-22 -49t7.5 -46t30.5 -17q21 0 40 16z" />
    <glyph glyph-name="r" unicode="r" horiz-adv-x="429" 
d="M270 437q29 30 75.5 45t103.5 7l-35 -219q-32 16 -77.5 11.5t-66.5 -24.5l-41 -257h-242l76 480h214z" />
    <glyph glyph-name="s" unicode="s" horiz-adv-x="495" 
d="M30 358q16 139 244 139q109 0 195 -43l-27 -165q-61 47 -131 47q-34 0 -35 -15q-1 -10 20 -19t50 -19.5t57 -27t44.5 -49.5t8.5 -78q-24 -145 -266 -145q-105 0 -200 45l30 184q28 -26 70 -41t72 -18q47 -4 49 11q1 8 -13.5 16t-36 14.5t-46.5 19.5t-45.5 29.5t-32 46.5
t-7.5 68z" />
    <glyph glyph-name="t" unicode="t" horiz-adv-x="437" 
d="M128 604l252 56l-29 -180h89l-30 -190h-89l-12 -76q-3 -20 8 -27.5t30 -7.5q27 0 51 8l-29 -187q-64 -18 -132 -18q-37 0 -69 9.5t-61 31t-41.5 64t-3.5 101.5l16 102h-60l30 190h60z" />
    <glyph glyph-name="u" unicode="u" horiz-adv-x="595" 
d="M351 480h242l-76 -480h-213l6 38q-54 -55 -140 -55q-85 0 -129 55t-32 133l49 309h242l-43 -272q-5 -25 18 -25q17 0 31 12z" />
    <glyph glyph-name="v" unicode="v" horiz-adv-x="619" 
d="M390 480h260l-258 -480h-257l-106 480h245l16 -261z" />
    <glyph glyph-name="w" unicode="w" horiz-adv-x="852" 
d="M631 480h248l-223 -480h-225l-22 203l-85 -203h-220l-71 480h234l5 -246l98 246h158l18 -246z" />
    <glyph glyph-name="x" unicode="x" horiz-adv-x="585" 
d="M194 0h-253l194 239l-109 241h236l40 -107l70 107h252l-189 -241l114 -239h-253l-29 99z" />
    <glyph glyph-name="y" unicode="y" horiz-adv-x="626" 
d="M313 238l90 242h252l-248 -499q-109 -217 -308 -217q-71 0 -128 21l30 190q30 -10 64 -10q60 0 98 47l-139 468h239z" />
    <glyph glyph-name="z" unicode="z" horiz-adv-x="511" 
d="M69 480h434l-23 -143l-162 -147h153l-30 -190h-464l22 141l164 149h-124z" />
    <glyph glyph-name="braceleft" unicode="{" horiz-adv-x="428" 
d="M370 68l-28 -179q-149 -27 -228 31.5t-63 164.5l19 121q2 14 -1.5 23t-8 13.5t-17 7t-19.5 2.5h-24l32 201q21 -1 38 0t29.5 12.5t16.5 34.5l21 131q19 123 117 171t233 5l-28 -179q-80 28 -97 -84l-14 -92q-15 -96 -100 -103q31 -3 52 -35.5t13 -81.5l-15 -92
q-7 -43 8.5 -60t63.5 -12z" />
    <glyph glyph-name="bar" unicode="|" horiz-adv-x="328" 
d="M222 -100h-240l144 910h240z" />
    <glyph glyph-name="braceright" unicode="}" horiz-adv-x="427" 
d="M309 69q-19 -122 -112.5 -168t-237.5 -10l28 177q45 -9 66.5 11.5t30.5 76.5l14 90q16 98 100 105q-31 3 -52 35.5t-13 81.5l15 92q7 44 -8.5 60t-63.5 10l29 184q151 27 230 -30.5t61 -168.5l-20 -123q-3 -16 2 -26t15 -13t23.5 -4t27.5 0l-31 -198q-36 3 -57 -7
t-26 -44z" />
    <glyph glyph-name="asciitilde" unicode="~" horiz-adv-x="607" 
d="M594 442q5 -111 -42 -167t-123 -56q-44 0 -112.5 22.5t-78.5 22.5q-15 0 -20.5 -8t-6.5 -30h-181q-5 111 42 167t123 56q44 0 112.5 -22.5t78.5 -22.5q15 0 20.5 8t6.5 30h181z" />
    <glyph glyph-name="exclamdown" unicode="&#xa1;" horiz-adv-x="313" 
d="M205 -220h-260l101 414h190zM296 357q-9 -54 -46 -81t-89 -27q-58 0 -93 37t-24 103q9 54 46 81t88 27q59 0 93.5 -37t24.5 -103z" />
    <glyph glyph-name="cent" unicode="&#xa2;" horiz-adv-x="507" 
d="M489 468l-29 -185q-22 10 -49 15l-18 -113q30 6 59 17l-31 -197q-20 -6 -58 -14l-18 -111h-80l16 103h-3q-130 0 -204 68t-59 189q10 86 61 146t118 85.5t142 25.5q18 0 27 -1l16 104h80l-18 -116q19 -5 48 -16zM331 297q-60 -13 -68 -58q-7 -45 50 -55z" />
    <glyph glyph-name="sterling" unicode="&#xa3;" horiz-adv-x="612" 
d="M539 0h-555l33 207h25q53 0 60 43l3 16h-62l27 166h61l4 27q19 122 98.5 180t197.5 58q96 0 185 -38l-29 -187q-55 24 -115 24q-75 0 -83 -51l-2 -13h154l-26 -166h-154l-2 -12q-5 -33 -32 -47h245z" />
    <glyph glyph-name="currency" unicode="&#xa4;" horiz-adv-x="552" 
d="M164 164l-72 -62l-81 92l64 59q-19 56 -10 113q8 54 40 96l-44 46l101 92l51 -58q40 15 93 15q54 0 99 -21l74 65l81 -93l-67 -61q21 -55 11 -113q-9 -56 -39 -94l45 -46l-103 -92l-49 56q-40 -15 -95 -15q-53 0 -99 21zM251 350q-3 -13 4 -22.5t24 -9.5t27 9.5t13 22.5
t-4 22.5t-24 9.5t-27 -9.5t-13 -22.5z" />
    <glyph glyph-name="yen" unicode="&#xa5;" horiz-adv-x="782" 
d="M526 680h298l-234 -320h89l-17 -110h-147l-5 -30h147l-17 -110h-149l-18 -110h-264l18 110h-147l17 110h149l5 30h-149l17 110h91l-131 320h269l62 -236z" />
    <glyph glyph-name="brokenbar" unicode="&#xa6;" horiz-adv-x="334" 
d="M306 412h-240l63 398h240zM225 -100h-240l63 398h240z" />
    <glyph glyph-name="section" unicode="&#xa7;" horiz-adv-x="527" 
d="M468 108q-23 -145 -266 -145q-97 0 -200 48l26 166q33 -22 77 -34t73 -12q45 0 46 14q0 3 -1.5 6t-5.5 6t-8 5t-11.5 5t-13.5 5.5t-16.5 6t-18.5 6.5q-55 21 -85.5 55.5t-21.5 97.5q10 66 94 109q-69 51 -56 131q21 139 244 139q106 0 194 -44l-24 -150q-66 33 -133 33
q-32 0 -33 -16q0 -8 10.5 -13.5t38 -14t47.5 -17.5q98 -43 82 -147q-11 -69 -84 -121q59 -43 46 -119zM259 310q4 -2 19.5 -7.5t21.5 -8.5q21 10 25 26q6 24 -33 41q-7 3 -20 7.5t-17 6.5q-20 -7 -25 -26q-5 -24 29 -39z" />
    <glyph glyph-name="dieresis" unicode="&#xa8;" horiz-adv-x="489" 
d="M580 836q-4 -49 -35 -77t-77 -28t-74 28t-24 77t35 77t77 28t74 -28t24 -77zM342 836q-4 -49 -35 -77t-77 -28t-74 28t-24 77t35 77t77 28t74 -28t24 -77z" />
    <glyph glyph-name="copyright" unicode="&#xa9;" horiz-adv-x="819" 
d="M800 334q-28 -169 -150 -260t-279 -91q-77 0 -144 26t-114.5 74t-68.5 121.5t-6 161.5q14 86 55.5 154.5t100.5 110.5t128 64t144 22q78 0 145 -26t114.5 -74t68.5 -121.5t6 -161.5zM558 176q-60 -33 -148 -33q-41 0 -78.5 13t-68 38t-44.5 67.5t-5 96.5
q16 100 89.5 149.5t161.5 49.5q86 0 148 -31l-21 -135q-38 19 -87 19q-90 0 -96 -62q-3 -27 17 -43t51 -16q60 0 102 21zM119 350q-22 -133 53 -212.5t201 -79.5q134 0 228.5 75.5t117.5 216.5q22 133 -52.5 212.5t-201.5 79.5q-133 0 -228 -75.5t-118 -216.5z" />
    <glyph glyph-name="guillemotleft" unicode="&#xab;" horiz-adv-x="722" 
d="M660 26h-238l-108 193l7 48l165 187h246l-186 -214zM360 26h-238l-108 193l7 48l165 187h246l-186 -214z" />
    <glyph glyph-name="logicalnot" unicode="&#xac;" horiz-adv-x="577" 
d="M517 179h-200l18 110h-307l30 191h507z" />
    <glyph glyph-name="registered" unicode="&#xae;" horiz-adv-x="819" 
d="M800 334q-28 -169 -150 -260t-279 -91q-77 0 -144 26t-114.5 74t-68.5 121.5t-6 161.5q14 86 55.5 154.5t100.5 110.5t128 64t144 22q78 0 145 -26t114.5 -74t68.5 -121.5t6 -161.5zM119 350q-22 -133 53 -212.5t201 -79.5q134 0 228.5 75.5t117.5 216.5
q22 133 -52.5 212.5t-201.5 79.5q-133 0 -228 -75.5t-118 -216.5zM371 155h-149l61 390h188q74 0 119.5 -38.5t32.5 -119.5q-11 -72 -73 -105l69 -127h-157l-50 106h-7h-18zM414 428l-10 -60h31q39 0 45 33q3 27 -23 27h-43z" />
    <glyph glyph-name="macron" unicode="&#xaf;" horiz-adv-x="360" 
d="M113 905h380l-25 -157h-380z" />
    <glyph glyph-name="degree" unicode="&#xb0;" horiz-adv-x="454" 
d="M474 505q-15 -93 -76.5 -140t-156.5 -47t-150.5 58t-39.5 161q14 87 76.5 133.5t155.5 46.5q96 0 151 -57.5t40 -154.5zM217 518q-3 -19 7 -31t29 -12q43 0 50 43q3 19 -6 31t-28 12q-45 0 -52 -43z" />
    <glyph glyph-name="plusminus" unicode="&#xb1;" horiz-adv-x="584" 
d="M453 701l-22 -139h159l-30 -190h-159l-22 -139h-190l22 139h-159l30 190h159l22 139h190zM501 0h-508l30 190h508z" />
    <glyph glyph-name="acute" unicode="&#xb4;" horiz-adv-x="407" 
d="M345 745h-210l133 176h236z" />
    <glyph glyph-name="paragraph" unicode="&#xb6;" horiz-adv-x="868" 
d="M431 -220h-248l74 464q-109 0 -167 65t-40 177q17 102 88 158t185 56h553l-146 -920h-248l110 690h-51z" />
    <glyph glyph-name="periodcentered" unicode="&#xb7;" horiz-adv-x="297" 
d="M267 222q-9 -54 -46 -81t-89 -27q-58 0 -92.5 37t-24.5 103q9 54 46 81t88 27q59 0 94 -37t24 -103z" />
    <glyph glyph-name="cedilla" unicode="&#xb8;" horiz-adv-x="233" 
d="M16 0h132l-23 -44q41 0 69 -26.5t21 -67.5q-8 -53 -56 -76.5t-113 -23.5q-85 0 -141 22l19 122q40 -20 85 -20q56 0 59 22q2 12 -13 17.5t-36 4.5t-40 -5z" />
    <glyph glyph-name="guillemotright" unicode="&#xbb;" horiz-adv-x="722" 
d="M522 26h-247l187 214l-115 214h239l107 -193l-8 -48zM221 26h-247l187 214l-115 214h239l107 -193l-8 -48z" />
    <glyph glyph-name="onequarter" unicode="&#xbc;" horiz-adv-x="938" 
d="M728 408h159l-39 -242h48l-19 -120h-48l-7 -46h-141l7 46h-199l20 126zM707 166l12 72l-67 -72h55zM231 -17h-72l582 734h72zM197 680h118l-45 -279h62l-20 -129h-283l20 129h68l21 132l-65 -24l21 133z" />
    <glyph glyph-name="onehalf" unicode="&#xbd;" horiz-adv-x="907" 
d="M228 -17h-72l582 734h72zM572 378q74 40 153 40q70 0 118 -39t36 -114q-9 -57 -61 -92q-10 -7 -36.5 -21.5t-40.5 -24.5h115l-20 -127h-337l10 63q17 102 121 152q8 4 24.5 11.5t24.5 12t18.5 10t15 10.5t5.5 10q1 7 -4 10.5t-15 3.5q-64 0 -151 -55zM194 680h118
l-45 -279h62l-20 -129h-283l20 129h68l21 132l-65 -24l21 133z" />
    <glyph glyph-name="threequarters" unicode="&#xbe;" horiz-adv-x="986" 
d="M279 -17h-72l582 734h72zM776 408h159l-39 -242h48l-19 -120h-48l-7 -46h-141l7 46h-199l20 126zM755 166l12 72l-67 -72h55zM385 561q-10 -57 -78 -75q32 -8 52.5 -36.5t13.5 -72.5q-18 -108 -182 -108q-102 0 -160 30l20 125q62 -28 125 -28q49 0 52 19q1 6 -3 10
t-12 4h-79l18 111h55q26 0 28 13q3 15 -25 15q-70 0 -134 -32l20 129q67 32 139 32q66 0 113 -35t37 -101z" />
    <glyph glyph-name="questiondown" unicode="&#xbf;" horiz-adv-x="504" 
d="M397 -201q-85 -36 -199 -36q-49 0 -91 9.5t-79 31t-54 62.5t-8 98q7 42 38 80.5t64.5 62t63 52t32.5 52.5h221q-6 -42 -29.5 -77.5t-48 -55t-45.5 -39t-24 -32.5q-2 -10 5.5 -15t23.5 -5q85 0 167 43zM426 357q-9 -54 -46 -81t-89 -27q-58 0 -93 37t-24 103q9 54 46 81
t88 27q59 0 93.5 -37t24.5 -103z" />
    <glyph glyph-name="Agrave" unicode="&#xc0;" horiz-adv-x="775" 
d="M735 0h-256l-10 80h-214l-36 -80h-272l362 700h286zM388 378l-53 -118h111l-15 117q-7 60 -7 100q-12 -47 -36 -99zM570 745h-196l-103 176h222z" />
    <glyph glyph-name="Aacute" unicode="&#xc1;" horiz-adv-x="775" 
d="M735 0h-256l-10 80h-214l-36 -80h-272l362 700h286zM388 378l-53 -118h111l-15 117q-7 60 -7 100q-12 -47 -36 -99zM550 745h-210l133 176h236z" />
    <glyph glyph-name="Acircumflex" unicode="&#xc2;" horiz-adv-x="775" 
d="M735 0h-256l-10 80h-214l-36 -80h-272l362 700h286zM388 378l-53 -118h111l-15 117q-7 60 -7 100q-12 -47 -36 -99zM376 925h212l105 -180h-182l-38 64l-60 -64h-200z" />
    <glyph glyph-name="Atilde" unicode="&#xc3;" horiz-adv-x="775" 
d="M735 0h-256l-10 80h-214l-36 -80h-272l362 700h286zM388 378l-53 -118h111l-15 117q-7 60 -7 100q-12 -47 -36 -99zM700 929q11 -84 -28.5 -140t-108.5 -56q-38 0 -85 19.5t-63 19.5q-12 0 -19.5 -8.5t-4.5 -24.5h-149q-11 84 28.5 140t108.5 56q38 0 85 -19.5t63 -19.5
q12 0 19.5 8.5t4.5 24.5h149z" />
    <glyph glyph-name="Adieresis" unicode="&#xc4;" horiz-adv-x="775" 
d="M735 0h-256l-10 80h-214l-36 -80h-272l362 700h286zM388 378l-53 -118h111l-15 117q-7 60 -7 100q-12 -47 -36 -99zM693 836q-4 -49 -35 -77t-77 -28t-74 28t-24 77t35 77t77 28t74 -28t24 -77zM455 836q-4 -49 -35 -77t-77 -28t-74 28t-24 77t35 77t77 28t74 -28t24 -77
z" />
    <glyph glyph-name="Aring" unicode="&#xc5;" horiz-adv-x="775" 
d="M735 0h-256l-10 80h-214l-36 -80h-272l362 700h286zM388 378l-53 -118h111l-15 117q-7 60 -7 100q-12 -47 -36 -99zM628 851q-9 -59 -53 -89.5t-106 -30.5q-65 0 -106 41t-30 111q9 56 53.5 87t103.5 31q66 0 107.5 -41t30.5 -109zM448 866q-2 -14 5 -23.5t23 -9.5
q32 0 38 33t-28 33q-32 0 -38 -33z" />
    <glyph glyph-name="AE" unicode="&#xc6;" horiz-adv-x="1055" 
d="M1087 700l-32 -200h-254l-9 -60h214l-28 -178h-214l-10 -60h260l-32 -202h-516l13 80h-191l-56 -80h-291l528 700h618zM415 260h92l29 171z" />
    <glyph glyph-name="Ccedilla" unicode="&#xc7;" horiz-adv-x="641" 
d="M632 452q-53 35 -139 35q-74 0 -127.5 -33t-66.5 -105q-11 -62 28 -97t98 -35q101 0 181 42l-38 -239q-63 -28 -149 -35l-15 -29q41 0 69 -26.5t21 -67.5q-8 -53 -56 -76.5t-113 -23.5q-85 0 -141 22l19 122q40 -20 85 -20q56 0 59 22q2 12 -13 17.5t-36 4.5t-40 -5
l32 65q-135 23 -211 116.5t-51 254.5q14 93 58.5 164t106.5 111.5t129.5 60.5t138.5 20q117 0 206 -46z" />
    <glyph glyph-name="Egrave" unicode="&#xc8;" 
d="M107 700h550l-32 -200h-284l-9 -60h244l-28 -178h-244l-10 -60h290l-32 -202h-556zM509 745h-196l-103 176h222z" />
    <glyph glyph-name="Eacute" unicode="&#xc9;" 
d="M107 700h550l-32 -200h-284l-9 -60h244l-28 -178h-244l-10 -60h290l-32 -202h-556zM479 745h-210l133 176h236z" />
    <glyph glyph-name="Ecircumflex" unicode="&#xca;" 
d="M107 700h550l-32 -200h-284l-9 -60h244l-28 -178h-244l-10 -60h290l-32 -202h-556zM315 925h212l105 -180h-182l-38 64l-60 -64h-200z" />
    <glyph glyph-name="Edieresis" unicode="&#xcb;" 
d="M107 700h550l-32 -200h-284l-9 -60h244l-28 -178h-244l-10 -60h290l-32 -202h-556zM632 836q-4 -49 -35 -77t-77 -28t-74 28t-24 77t35 77t77 28t74 -28t24 -77zM394 836q-4 -49 -35 -77t-77 -28t-74 28t-24 77t35 77t77 28t74 -28t24 -77z" />
    <glyph glyph-name="Igrave" unicode="&#xcc;" horiz-adv-x="350" 
d="M107 700h266l-111 -700h-266zM360 745h-196l-103 176h222z" />
    <glyph glyph-name="Iacute" unicode="&#xcd;" horiz-adv-x="350" 
d="M107 700h266l-111 -700h-266zM330 745h-210l133 176h236z" />
    <glyph glyph-name="Icircumflex" unicode="&#xce;" horiz-adv-x="350" 
d="M107 700h266l-111 -700h-266zM166 925h212l105 -180h-182l-38 64l-60 -64h-200z" />
    <glyph glyph-name="Idieresis" unicode="&#xcf;" horiz-adv-x="350" 
d="M107 700h266l-111 -700h-266zM483 836q-4 -49 -35 -77t-77 -28t-74 28t-24 77t35 77t77 28t74 -28t24 -77zM245 836q-4 -49 -35 -77t-77 -28t-74 28t-24 77t35 77t77 28t74 -28t24 -77z" />
    <glyph glyph-name="Eth" unicode="&#xd0;" horiz-adv-x="752" 
d="M117 700h313q177 0 256.5 -100.5t53.5 -265.5q-24 -156 -125.5 -245t-283.5 -89h-325l44 278h-50l22 140h50zM344 220q52 0 83.5 29.5t43.5 106.5q20 124 -74 124h-49l-10 -62h82l-22 -140h-82l-9 -58h37z" />
    <glyph glyph-name="Ntilde" unicode="&#xd1;" horiz-adv-x="762" 
d="M262 0h-266l111 700h189l186 -289q1 62 11 122l26 167h266l-111 -700h-189l-185 289q-1 -62 -11 -122zM669 929q11 -84 -28.5 -140t-108.5 -56q-38 0 -85 19.5t-63 19.5q-12 0 -19.5 -8.5t-4.5 -24.5h-149q-11 84 28.5 140t108.5 56q38 0 85 -19.5t63 -19.5
q12 0 19.5 8.5t4.5 24.5h149z" />
    <glyph glyph-name="Ograve" unicode="&#xd2;" horiz-adv-x="800" 
d="M788 334q-24 -155 -136 -253t-292 -98q-182 0 -270 108.5t-62 274.5q24 155 135.5 253t291.5 98q182 0 270.5 -108.5t62.5 -274.5zM298 334q-10 -111 87 -111q54 0 90.5 37.5t42.5 105.5q10 111 -88 111q-54 0 -89.5 -37.5t-42.5 -105.5zM585 745h-196l-103 176h222z" />
    <glyph glyph-name="Oacute" unicode="&#xd3;" horiz-adv-x="800" 
d="M788 334q-24 -155 -136 -253t-292 -98q-182 0 -270 108.5t-62 274.5q24 155 135.5 253t291.5 98q182 0 270.5 -108.5t62.5 -274.5zM298 334q-10 -111 87 -111q54 0 90.5 37.5t42.5 105.5q10 111 -88 111q-54 0 -89.5 -37.5t-42.5 -105.5zM555 745h-210l133 176h236z" />
    <glyph glyph-name="Ocircumflex" unicode="&#xd4;" horiz-adv-x="800" 
d="M788 334q-24 -155 -136 -253t-292 -98q-182 0 -270 108.5t-62 274.5q24 155 135.5 253t291.5 98q182 0 270.5 -108.5t62.5 -274.5zM298 334q-10 -111 87 -111q54 0 90.5 37.5t42.5 105.5q10 111 -88 111q-54 0 -89.5 -37.5t-42.5 -105.5zM391 925h212l105 -180h-182
l-38 64l-60 -64h-200z" />
    <glyph glyph-name="Otilde" unicode="&#xd5;" horiz-adv-x="800" 
d="M788 334q-24 -155 -136 -253t-292 -98q-182 0 -270 108.5t-62 274.5q24 155 135.5 253t291.5 98q182 0 270.5 -108.5t62.5 -274.5zM298 334q-10 -111 87 -111q54 0 90.5 37.5t42.5 105.5q10 111 -88 111q-54 0 -89.5 -37.5t-42.5 -105.5zM715 929q11 -84 -28.5 -140
t-108.5 -56q-38 0 -85 19.5t-63 19.5q-12 0 -19.5 -8.5t-4.5 -24.5h-149q-11 84 28.5 140t108.5 56q38 0 85 -19.5t63 -19.5q12 0 19.5 8.5t4.5 24.5h149z" />
    <glyph glyph-name="Odieresis" unicode="&#xd6;" horiz-adv-x="800" 
d="M788 334q-24 -155 -136 -253t-292 -98q-182 0 -270 108.5t-62 274.5q24 155 135.5 253t291.5 98q182 0 270.5 -108.5t62.5 -274.5zM298 334q-10 -111 87 -111q54 0 90.5 37.5t42.5 105.5q10 111 -88 111q-54 0 -89.5 -37.5t-42.5 -105.5zM708 836q-4 -49 -35 -77t-77 -28
t-74 28t-24 77t35 77t77 28t74 -28t24 -77zM470 836q-4 -49 -35 -77t-77 -28t-74 28t-24 77t35 77t77 28t74 -28t24 -77z" />
    <glyph glyph-name="multiply" unicode="&#xd7;" horiz-adv-x="543" 
d="M266 224l-142 -121l-108 125l140 121l-101 121l139 125l103 -121l140 121l110 -125l-142 -121l103 -121l-141 -125z" />
    <glyph glyph-name="Oslash" unicode="&#xd8;" horiz-adv-x="800" 
d="M119 -48h-114l104 120q-53 52 -73.5 128.5t-6.5 165.5q24 155 135.5 253t291.5 98q105 0 183 -39l61 70h114l-105 -121q53 -52 73.5 -127.5t6.5 -165.5q-24 -155 -136 -253t-292 -98q-105 0 -181 39zM299 334q-3 -21 1 -44l161 184q-13 3 -30 3q-54 0 -89.5 -37.5
t-42.5 -105.5zM358 226q13 -3 28 -3q54 0 90.5 37.5t42.5 105.5q2 26 -1 43z" />
    <glyph glyph-name="Ugrave" unicode="&#xd9;" horiz-adv-x="736" 
d="M499 700h266l-68 -432q-45 -285 -373 -285q-66 0 -122 16.5t-99.5 51t-63 94.5t-6.5 139l66 416h266l-67 -420q-8 -57 57 -57q68 0 80 73zM542 745h-196l-103 176h222z" />
    <glyph glyph-name="Uacute" unicode="&#xda;" horiz-adv-x="736" 
d="M499 700h266l-68 -432q-45 -285 -373 -285q-66 0 -122 16.5t-99.5 51t-63 94.5t-6.5 139l66 416h266l-67 -420q-8 -57 57 -57q68 0 80 73zM512 745h-210l133 176h236z" />
    <glyph glyph-name="Ucircumflex" unicode="&#xdb;" horiz-adv-x="736" 
d="M499 700h266l-68 -432q-45 -285 -373 -285q-66 0 -122 16.5t-99.5 51t-63 94.5t-6.5 139l66 416h266l-67 -420q-8 -57 57 -57q68 0 80 73zM348 925h212l105 -180h-182l-38 64l-60 -64h-200z" />
    <glyph glyph-name="Udieresis" unicode="&#xdc;" horiz-adv-x="736" 
d="M499 700h266l-68 -432q-45 -285 -373 -285q-66 0 -122 16.5t-99.5 51t-63 94.5t-6.5 139l66 416h266l-67 -420q-8 -57 57 -57q68 0 80 73zM665 836q-4 -49 -35 -77t-77 -28t-74 28t-24 77t35 77t77 28t74 -28t24 -77zM427 836q-4 -49 -35 -77t-77 -28t-74 28t-24 77
t35 77t77 28t74 -28t24 -77z" />
    <glyph glyph-name="Yacute" unicode="&#xdd;" horiz-adv-x="772" 
d="M470 0h-264l40 239l-188 461h281l61 -246l135 246h310l-335 -461zM529 745h-210l133 176h236z" />
    <glyph glyph-name="Thorn" unicode="&#xde;" horiz-adv-x="704" 
d="M361 623h56q67 0 121.5 -15.5t96 -48t58.5 -90.5t5 -135q-22 -141 -112 -199t-244 -58h-68l-12 -77h-266l111 700h266zM308 291h46q79 0 89 63q4 24 -11 39.5t-47 15.5h-58z" />
    <glyph glyph-name="germandbls" unicode="&#xdf;" horiz-adv-x="645" 
d="M614 130q-6 -72 -60.5 -109.5t-129.5 -37.5q-67 0 -143 28l28 182q17 -6 37 -6q38 0 44 32q3 18 -15.5 47.5t-36 61.5t-11.5 58q4 18 27 52.5t27 52.5q2 11 -5.5 19t-20.5 8q-43 0 -52 -50l-74 -468h-242l75 475q18 117 95.5 179t208.5 63q64 0 115 -18t79 -47.5
t41.5 -63t9.5 -65.5q-4 -34 -42 -79t-42 -74q-3 -16 11.5 -42t33 -51.5t32.5 -65.5t10 -81z" />
    <glyph glyph-name="agrave" unicode="&#xe0;" 
d="M340 42q-53 -59 -150 -59q-103 0 -150 79t-29 194q16 105 77 173t162 68q49 0 88.5 -23t60.5 -59l10 65h213l-76 -480h-213zM256 237q-4 -30 7.5 -46t30.5 -17q21 0 40 16l16 100q-8 15 -30 15q-24 0 -42 -19t-22 -49zM449 535h-196l-103 176h222z" />
    <glyph glyph-name="aacute" unicode="&#xe1;" 
d="M340 42q-53 -59 -150 -59q-103 0 -150 79t-29 194q16 105 77 173t162 68q49 0 88.5 -23t60.5 -59l10 65h213l-76 -480h-213zM256 237q-4 -30 7.5 -46t30.5 -17q21 0 40 16l16 100q-8 15 -30 15q-24 0 -42 -19t-22 -49zM419 535h-210l133 176h236z" />
    <glyph glyph-name="acircumflex" unicode="&#xe2;" 
d="M340 42q-53 -59 -150 -59q-103 0 -150 79t-29 194q16 105 77 173t162 68q49 0 88.5 -23t60.5 -59l10 65h213l-76 -480h-213zM256 237q-4 -30 7.5 -46t30.5 -17q21 0 40 16l16 100q-8 15 -30 15q-24 0 -42 -19t-22 -49zM255 715h212l105 -180h-182l-38 64l-60 -64h-200z
" />
    <glyph glyph-name="atilde" unicode="&#xe3;" 
d="M340 42q-53 -59 -150 -59q-103 0 -150 79t-29 194q16 105 77 173t162 68q49 0 88.5 -23t60.5 -59l10 65h213l-76 -480h-213zM256 237q-4 -30 7.5 -46t30.5 -17q21 0 40 16l16 100q-8 15 -30 15q-24 0 -42 -19t-22 -49zM579 719q11 -84 -28.5 -140t-108.5 -56
q-38 0 -85 19.5t-63 19.5q-12 0 -19.5 -8.5t-4.5 -24.5h-149q-11 84 28.5 140t108.5 56q38 0 85 -19.5t63 -19.5q12 0 19.5 8.5t4.5 24.5h149z" />
    <glyph glyph-name="adieresis" unicode="&#xe4;" 
d="M340 42q-53 -59 -150 -59q-103 0 -150 79t-29 194q16 105 77 173t162 68q49 0 88.5 -23t60.5 -59l10 65h213l-76 -480h-213zM256 237q-4 -30 7.5 -46t30.5 -17q21 0 40 16l16 100q-8 15 -30 15q-24 0 -42 -19t-22 -49zM572 626q-4 -49 -35 -77t-77 -28t-74 28t-24 77
t35 77t77 28t74 -28t24 -77zM334 626q-4 -49 -35 -77t-77 -28t-74 28t-24 77t35 77t77 28t74 -28t24 -77z" />
    <glyph glyph-name="aring" unicode="&#xe5;" 
d="M340 42q-53 -59 -150 -59q-103 0 -150 79t-29 194q16 105 77 173t162 68q49 0 88.5 -23t60.5 -59l10 65h213l-76 -480h-213zM256 237q-4 -30 7.5 -46t30.5 -17q21 0 40 16l16 100q-8 15 -30 15q-24 0 -42 -19t-22 -49zM507 641q-9 -59 -53 -89.5t-106 -30.5
q-65 0 -106 41t-30 111q9 56 53.5 87t103.5 31q66 0 107.5 -41t30.5 -109zM327 656q-5 -33 28 -33t38 33t-28 33t-38 -33z" />
    <glyph glyph-name="ae" unicode="&#xe6;" horiz-adv-x="907" 
d="M340 42q-53 -59 -150 -59q-103 0 -150 79t-29 194q16 105 77 173t162 68q49 0 88.5 -23t60.5 -59l10 65h193l-9 -56q50 73 145 73q109 0 144.5 -87t-15.5 -217h-284q14 -48 107 -48q73 0 134 14l-25 -160q-58 -16 -116 -16q-102 0 -150 64l-7 -47h-193zM255 236
q-4 -30 7.5 -46t30.5 -17q21 0 40 16l16 100q-8 15 -30 15q-24 0 -42 -19t-22 -49zM658 345q-29 0 -46.5 -18.5t-20.5 -39.5h106q7 26 -4 42t-35 16z" />
    <glyph glyph-name="ccedilla" unicode="&#xe7;" horiz-adv-x="484" 
d="M452 283q-39 18 -86 18q-101 0 -111 -62q-4 -29 18.5 -43.5t62.5 -14.5q56 0 108 21l-31 -197q-58 -16 -107 -20l-15 -29q41 0 69 -26.5t21 -67.5q-8 -53 -56 -76.5t-113 -23.5q-85 0 -141 22l19 122q40 -20 85 -20q56 0 59 22q2 12 -13 17.5t-36 4.5t-40 -5l34 68
q-90 22 -137 85.5t-35 161.5q10 86 61 146t118 85.5t142 25.5q82 0 153 -29z" />
    <glyph glyph-name="egrave" unicode="&#xe8;" horiz-adv-x="546" 
d="M11 261q9 61 40 108t73 74t87 40.5t88 13.5q63 0 110 -19t72.5 -50.5t37 -71.5t8 -81t-18.5 -81h-284q14 -50 118 -50q78 0 148 20l-25 -160q-72 -21 -171 -21q-55 0 -106.5 14.5t-97 44.5t-68 87t-11.5 132zM338 288q7 26 -4 42t-35 16q-29 0 -46.5 -18.5t-20.5 -39.5
h106zM422 525h-196l-103 176h222z" />
    <glyph glyph-name="eacute" unicode="&#xe9;" horiz-adv-x="546" 
d="M11 261q9 61 40 108t73 74t87 40.5t88 13.5q63 0 110 -19t72.5 -50.5t37 -71.5t8 -81t-18.5 -81h-284q14 -50 118 -50q78 0 148 20l-25 -160q-72 -21 -171 -21q-55 0 -106.5 14.5t-97 44.5t-68 87t-11.5 132zM338 288q7 26 -4 42t-35 16q-29 0 -46.5 -18.5t-20.5 -39.5
h106zM392 525h-210l133 176h236z" />
    <glyph glyph-name="ecircumflex" unicode="&#xea;" horiz-adv-x="546" 
d="M11 261q9 61 40 108t73 74t87 40.5t88 13.5q63 0 110 -19t72.5 -50.5t37 -71.5t8 -81t-18.5 -81h-284q14 -50 118 -50q78 0 148 20l-25 -160q-72 -21 -171 -21q-55 0 -106.5 14.5t-97 44.5t-68 87t-11.5 132zM338 288q7 26 -4 42t-35 16q-29 0 -46.5 -18.5t-20.5 -39.5
h106zM228 705h212l105 -180h-182l-38 64l-60 -64h-200z" />
    <glyph glyph-name="edieresis" unicode="&#xeb;" horiz-adv-x="546" 
d="M11 261q9 61 40 108t73 74t87 40.5t88 13.5q63 0 110 -19t72.5 -50.5t37 -71.5t8 -81t-18.5 -81h-284q14 -50 118 -50q78 0 148 20l-25 -160q-72 -21 -171 -21q-55 0 -106.5 14.5t-97 44.5t-68 87t-11.5 132zM338 288q7 26 -4 42t-35 16q-29 0 -46.5 -18.5t-20.5 -39.5
h106zM545 616q-4 -49 -35 -77t-77 -28t-74 28t-24 77t35 77t77 28t74 -28t24 -77zM307 616q-4 -49 -35 -77t-77 -28t-74 28t-24 77t35 77t77 28t74 -28t24 -77z" />
    <glyph glyph-name="igrave" unicode="&#xec;" horiz-adv-x="307" 
d="M302 525h-206l-63 176h232zM229 0h-242l76 480h242z" />
    <glyph glyph-name="iacute" unicode="&#xed;" horiz-adv-x="308" 
d="M229 0h-242l76 480h242zM272 525h-210l133 176h236z" />
    <glyph glyph-name="icircumflex" unicode="&#xee;" horiz-adv-x="308" 
d="M229 0h-242l76 480h242zM165 525h-195l143 180h212l85 -180h-187l-18 64z" />
    <glyph glyph-name="idieresis" unicode="&#xef;" horiz-adv-x="308" 
d="M229 0h-242l76 480h242zM192 616q-4 -47 -33.5 -73.5t-73.5 -26.5t-70.5 26.5t-22.5 73.5t33.5 73.5t73.5 26.5t70.5 -26.5t22.5 -73.5zM410 616q-4 -47 -33.5 -73.5t-73.5 -26.5t-70.5 26.5t-22.5 73.5t33.5 73.5t73.5 26.5t70.5 -26.5t22.5 -73.5z" />
    <glyph glyph-name="eth" unicode="&#xf0;" horiz-adv-x="568" 
d="M547 281q-13 -82 -43 -142t-72 -93t-89 -48t-101 -15q-109 0 -182 65.5t-57 182.5q13 94 76.5 142t141.5 48q82 0 128 -49q4 21 1 45q-6 55 -54 84l-74 -66l-57 64l45 35q-40 11 -91 8l19 195q133 0 235 -55l77 66l56 -64l-60 -53q134 -137 101 -350zM214 208
q-4 -53 42 -53q48 0 54 53q4 53 -42 53q-48 0 -54 -53z" />
    <glyph glyph-name="ntilde" unicode="&#xf1;" horiz-adv-x="596" 
d="M270 443q68 54 150 54q88 0 125.5 -56.5t26.5 -128.5l-50 -312h-242l44 277q3 18 -18 18q-16 0 -32 -11l-45 -284h-242l76 480h213zM564 709q11 -84 -28.5 -140t-108.5 -56q-38 0 -85 19.5t-63 19.5q-12 0 -19.5 -8.5t-4.5 -24.5h-149q-11 84 28.5 140t108.5 56
q38 0 85 -19.5t63 -19.5q12 0 19.5 8.5t4.5 24.5h149z" />
    <glyph glyph-name="ograve" unicode="&#xf2;" horiz-adv-x="594" 
d="M568 224q-20 -121 -102.5 -181t-207.5 -60q-57 0 -106 17.5t-85 50t-52 86t-5 119.5q19 121 101 181t207 60q57 0 106.5 -17.5t85.5 -50t52.5 -86t5.5 -119.5zM235 232q-4 -52 41 -52q26 0 43 18t20 50q4 52 -42 52q-25 0 -42 -18t-20 -50zM433 525h-196l-103 176h222z
" />
    <glyph glyph-name="oacute" unicode="&#xf3;" horiz-adv-x="594" 
d="M568 224q-20 -121 -102.5 -181t-207.5 -60q-57 0 -106 17.5t-85 50t-52 86t-5 119.5q19 121 101 181t207 60q57 0 106.5 -17.5t85.5 -50t52.5 -86t5.5 -119.5zM235 232q-4 -52 41 -52q26 0 43 18t20 50q4 52 -42 52q-25 0 -42 -18t-20 -50zM403 525h-210l133 176h236z
" />
    <glyph glyph-name="ocircumflex" unicode="&#xf4;" horiz-adv-x="594" 
d="M568 224q-20 -121 -102.5 -181t-207.5 -60q-57 0 -106 17.5t-85 50t-52 86t-5 119.5q19 121 101 181t207 60q57 0 106.5 -17.5t85.5 -50t52.5 -86t5.5 -119.5zM235 232q-4 -52 41 -52q26 0 43 18t20 50q4 52 -42 52q-25 0 -42 -18t-20 -50zM239 705h212l105 -180h-182
l-38 64l-60 -64h-200z" />
    <glyph glyph-name="otilde" unicode="&#xf5;" horiz-adv-x="594" 
d="M568 224q-20 -121 -102.5 -181t-207.5 -60q-57 0 -106 17.5t-85 50t-52 86t-5 119.5q19 121 101 181t207 60q57 0 106.5 -17.5t85.5 -50t52.5 -86t5.5 -119.5zM235 232q-4 -52 41 -52q26 0 43 18t20 50q4 52 -42 52q-25 0 -42 -18t-20 -50zM563 709q11 -84 -28.5 -140
t-108.5 -56q-38 0 -85 19.5t-63 19.5q-12 0 -19.5 -8.5t-4.5 -24.5h-149q-11 84 28.5 140t108.5 56q38 0 85 -19.5t63 -19.5q12 0 19.5 8.5t4.5 24.5h149z" />
    <glyph glyph-name="odieresis" unicode="&#xf6;" horiz-adv-x="594" 
d="M568 224q-20 -121 -102.5 -181t-207.5 -60q-57 0 -106 17.5t-85 50t-52 86t-5 119.5q19 121 101 181t207 60q57 0 106.5 -17.5t85.5 -50t52.5 -86t5.5 -119.5zM235 232q-4 -52 41 -52q26 0 43 18t20 50q4 52 -42 52q-25 0 -42 -18t-20 -50zM556 616q-4 -49 -35 -77
t-77 -28t-74 28t-24 77t35 77t77 28t74 -28t24 -77zM318 616q-4 -49 -35 -77t-77 -28t-74 28t-24 77t35 77t77 28t74 -28t24 -77z" />
    <glyph glyph-name="divide" unicode="&#xf7;" horiz-adv-x="567" 
d="M538 261h-520l29 180h520zM381 91q-9 -54 -46.5 -81t-89.5 -27q-58 0 -92.5 37t-23.5 103q9 54 46 81t88 27q59 0 93.5 -37t24.5 -103zM458 579q-9 -54 -46 -81t-89 -27q-58 0 -93 37t-24 103q9 54 46 81t88 27q59 0 93.5 -37t24.5 -103z" />
    <glyph glyph-name="oslash" unicode="&#xf8;" horiz-adv-x="594" 
d="M557 543l-74 -92q109 -75 85 -227q-20 -121 -102.5 -181t-207.5 -60q-71 0 -129 26l-60 -74h-47l74 92q-110 75 -86 229q19 121 101 181t207 60q76 0 133 -28l59 74h47zM297 300q-25 0 -42 -18t-20 -50q-2 -17 3 -28l75 94q-10 2 -16 2zM276 180q26 0 43 18t20 50
q1 9 -1 22l-72 -89q3 -1 10 -1z" />
    <glyph glyph-name="ugrave" unicode="&#xf9;" horiz-adv-x="595" 
d="M351 480h242l-76 -480h-213l6 38q-54 -55 -140 -55q-85 0 -129 55t-32 133l49 309h242l-43 -272q-5 -25 18 -25q17 0 31 12zM438 525h-196l-103 176h222z" />
    <glyph glyph-name="uacute" unicode="&#xfa;" horiz-adv-x="595" 
d="M351 480h242l-76 -480h-213l6 38q-54 -55 -140 -55q-85 0 -129 55t-32 133l49 309h242l-43 -272q-5 -25 18 -25q17 0 31 12zM408 525h-210l133 176h236z" />
    <glyph glyph-name="ucircumflex" unicode="&#xfb;" horiz-adv-x="595" 
d="M351 480h242l-76 -480h-213l6 38q-54 -55 -140 -55q-85 0 -129 55t-32 133l49 309h242l-43 -272q-5 -25 18 -25q17 0 31 12zM244 705h212l105 -180h-182l-38 64l-60 -64h-200z" />
    <glyph glyph-name="udieresis" unicode="&#xfc;" horiz-adv-x="595" 
d="M351 480h242l-76 -480h-213l6 38q-54 -55 -140 -55q-85 0 -129 55t-32 133l49 309h242l-43 -272q-5 -25 18 -25q17 0 31 12zM561 616q-4 -49 -35 -77t-77 -28t-74 28t-24 77t35 77t77 28t74 -28t24 -77zM323 616q-4 -49 -35 -77t-77 -28t-74 28t-24 77t35 77t77 28
t74 -28t24 -77z" />
    <glyph glyph-name="yacute" unicode="&#xfd;" horiz-adv-x="626" 
d="M313 238l90 242h252l-248 -499q-109 -217 -308 -217q-71 0 -128 21l30 190q30 -10 64 -10q60 0 98 47l-139 468h239zM422 525h-210l133 176h236z" />
    <glyph glyph-name="thorn" unicode="&#xfe;" horiz-adv-x="626" 
d="M194 -220h-242l146 920h242l-39 -246q57 43 118 43q103 0 150.5 -79t29.5 -194q-17 -107 -75.5 -174t-159.5 -67q-76 0 -130 50zM259 188q10 -13 31 -13q23 0 40.5 19t22.5 47q4 26 -5 45t-33 19q-21 0 -40 -16z" />
    <glyph glyph-name="ydieresis" unicode="&#xff;" horiz-adv-x="626" 
d="M313 238l90 242h252l-248 -499q-109 -217 -308 -217q-71 0 -128 21l30 190q30 -10 64 -10q60 0 98 47l-139 468h239zM575 616q-4 -49 -35 -77t-77 -28t-74 28t-24 77t35 77t77 28t74 -28t24 -77zM337 616q-4 -49 -35 -77t-77 -28t-74 28t-24 77t35 77t77 28t74 -28
t24 -77z" />
    <glyph glyph-name="Amacron" unicode="&#x100;" horiz-adv-x="775" 
d="M735 0h-256l-10 80h-214l-36 -80h-272l362 700h286zM388 378l-53 -118h111l-15 117q-7 60 -7 100q-12 -47 -36 -99zM294 905h380l-25 -157h-380z" />
    <glyph glyph-name="amacron" unicode="&#x101;" 
d="M340 42q-53 -59 -150 -59q-103 0 -150 79t-29 194q16 105 77 173t162 68q49 0 88.5 -23t60.5 -59l10 65h213l-76 -480h-213zM256 237q-4 -30 7.5 -46t30.5 -17q21 0 40 16l16 100q-8 15 -30 15q-24 0 -42 -19t-22 -49zM173 695h380l-25 -157h-380z" />
    <glyph glyph-name="Abreve" unicode="&#x102;" horiz-adv-x="775" 
d="M735 0h-256l-10 80h-214l-36 -80h-272l362 700h286zM388 378l-53 -118h111l-15 117q-7 60 -7 100q-12 -47 -36 -99zM661 798q-86 -55 -192 -55q-119 0 -194 55l25 156q73 -49 180 -49q118 0 206 49z" />
    <glyph glyph-name="abreve" unicode="&#x103;" 
d="M340 42q-53 -59 -150 -59q-103 0 -150 79t-29 194q16 105 77 173t162 68q49 0 88.5 -23t60.5 -59l10 65h213l-76 -480h-213zM256 237q-4 -30 7.5 -46t30.5 -17q21 0 40 16l16 100q-8 15 -30 15q-24 0 -42 -19t-22 -49zM540 588q-86 -55 -192 -55q-119 0 -194 55l25 156
q73 -49 180 -49q118 0 206 49z" />
    <glyph glyph-name="Aogonek" unicode="&#x104;" horiz-adv-x="775" 
d="M595 700l140 -700q-52 -46 -52 -76q0 -17 17 -17q9 0 19 4l-22 -137q-36 -11 -81 -11q-57 0 -95 22.5t-38 69.5q0 36 23.5 75t65.5 70h-93l-10 80h-214l-36 -80h-272l362 700h286zM388 378l-53 -118h111l-15 117q-7 60 -7 100q-12 -47 -36 -99z" />
    <glyph glyph-name="aogonek" unicode="&#x105;" 
d="M399 415l10 65h213l-76 -480q-52 -46 -52 -76q0 -17 17 -17q9 0 19 4l-22 -137q-36 -11 -81 -11q-57 0 -95 22.5t-38 69.5q0 36 25.5 75t73.5 70h-60l7 42q-53 -59 -150 -59q-103 0 -150 79t-29 194q16 105 77 173t162 68q49 0 88.5 -23t60.5 -59zM294 174q21 0 40 16
l16 100q-8 15 -30 15q-24 0 -42 -19t-22 -49t7.5 -46t30.5 -17z" />
    <glyph glyph-name="Cacute" unicode="&#x106;" horiz-adv-x="641" 
d="M28 361q14 93 58.5 164t106.5 111.5t129.5 60.5t138.5 20q117 0 206 -46l-35 -219q-53 35 -139 35q-74 0 -127.5 -33t-66.5 -105q-11 -62 28 -97t98 -35q101 0 181 42l-38 -239q-84 -37 -194 -37q-77 0 -144 22.5t-119 66.5t-75 118.5t-8 170.5zM538 745h-210l133 176
h236z" />
    <glyph glyph-name="cacute" unicode="&#x107;" horiz-adv-x="484" 
d="M7 240q10 86 61 146t118 85.5t142 25.5q82 0 153 -29l-29 -185q-39 18 -86 18q-101 0 -111 -62q-4 -29 18.5 -43.5t62.5 -14.5q56 0 108 21l-31 -197q-79 -22 -143 -22q-130 0 -204 68t-59 189zM372 525h-210l133 176h236z" />
    <glyph glyph-name="Cdotaccent" unicode="&#x10a;" horiz-adv-x="641" 
d="M28 361q14 93 58.5 164t106.5 111.5t129.5 60.5t138.5 20q117 0 206 -46l-35 -219q-53 35 -139 35q-74 0 -127.5 -33t-66.5 -105q-11 -62 28 -97t98 -35q101 0 181 42l-38 -239q-84 -37 -194 -37q-77 0 -144 22.5t-119 66.5t-75 118.5t-8 170.5zM585 838
q-15 -95 -119 -95q-53 0 -84.5 33t-21.5 94q8 49 40.5 71.5t78.5 22.5q54 0 84.5 -32.5t21.5 -93.5z" />
    <glyph glyph-name="cdotaccent" unicode="&#x10b;" horiz-adv-x="484" 
d="M7 240q10 86 61 146t118 85.5t142 25.5q82 0 153 -29l-29 -185q-39 18 -86 18q-101 0 -111 -62q-4 -29 18.5 -43.5t62.5 -14.5q56 0 108 21l-31 -197q-79 -22 -143 -22q-130 0 -204 68t-59 189zM419 618q-15 -95 -119 -95q-53 0 -84.5 33t-21.5 94q8 49 40.5 71.5
t78.5 22.5q54 0 84.5 -32.5t21.5 -93.5z" />
    <glyph glyph-name="Ccaron" unicode="&#x10c;" horiz-adv-x="641" 
d="M28 361q14 93 58.5 164t106.5 111.5t129.5 60.5t138.5 20q117 0 206 -46l-35 -219q-53 35 -139 35q-74 0 -127.5 -33t-66.5 -105q-11 -62 28 -97t98 -35q101 0 181 42l-38 -239q-84 -37 -194 -37q-77 0 -144 22.5t-119 66.5t-75 118.5t-8 170.5zM729 925l-163 -180h-212
l-105 180h192l37 -64l61 64h190z" />
    <glyph glyph-name="ccaron" unicode="&#x10d;" horiz-adv-x="484" 
d="M7 240q10 86 61 146t118 85.5t142 25.5q82 0 153 -29l-29 -185q-39 18 -86 18q-101 0 -111 -62q-4 -29 18.5 -43.5t62.5 -14.5q56 0 108 21l-31 -197q-79 -22 -143 -22q-130 0 -204 68t-59 189zM563 705l-163 -180h-212l-105 180h192l37 -64l61 64h190z" />
    <glyph glyph-name="Dcaron" unicode="&#x10e;" horiz-adv-x="742" 
d="M107 700h313q177 0 256.5 -100.5t53.5 -265.5q-24 -156 -125.5 -245t-283.5 -89h-325zM461 356q20 124 -74 124h-49l-41 -260h37q52 0 83.5 29.5t43.5 106.5zM659 925l-163 -180h-212l-105 180h192l37 -64l61 64h190z" />
    <glyph glyph-name="dcaron" unicode="&#x10f;" horiz-adv-x="652" 
d="M703 700h189l-77 -219h-163zM416 700h242l-111 -700h-213l8 52q-60 -69 -151 -69q-97 0 -146.5 80t-32.5 193q16 104 78 172.5t161 68.5q83 0 125 -51zM351 290q-8 15 -30 15q-24 0 -42 -19t-22 -49t7.5 -46t30.5 -17q21 0 40 16z" />
    <glyph glyph-name="Dcroat" unicode="&#x110;" horiz-adv-x="752" 
d="M117 700h313q177 0 256.5 -100.5t53.5 -265.5q-24 -156 -125.5 -245t-283.5 -89h-325l44 278h-50l22 140h50zM344 220q52 0 83.5 29.5t43.5 106.5q20 124 -74 124h-49l-10 -62h82l-22 -140h-82l-9 -58h37z" />
    <glyph glyph-name="dcroat" unicode="&#x111;" 
d="M648 638h57l-16 -105h-57l-85 -533h-213l8 52q-60 -69 -151 -69q-97 0 -146.5 80t-32.5 193q16 104 78 172.5t161 68.5q83 0 125 -51l14 87h-131l16 105h131l10 62h242zM295 174q21 0 40 16l16 100q-8 15 -30 15q-24 0 -42 -19t-22 -49t7.5 -46t30.5 -17z" />
    <glyph glyph-name="Emacron" unicode="&#x112;" 
d="M107 700h550l-32 -200h-284l-9 -60h244l-28 -178h-244l-10 -60h290l-32 -202h-556zM233 905h380l-25 -157h-380z" />
    <glyph glyph-name="emacron" unicode="&#x113;" horiz-adv-x="546" 
d="M11 261q9 61 40 108t73 74t87 40.5t88 13.5q63 0 110 -19t72.5 -50.5t37 -71.5t8 -81t-18.5 -81h-284q14 -50 118 -50q78 0 148 20l-25 -160q-72 -21 -171 -21q-55 0 -106.5 14.5t-97 44.5t-68 87t-11.5 132zM338 288q7 26 -4 42t-35 16q-29 0 -46.5 -18.5t-20.5 -39.5
h106zM146 685h380l-25 -157h-380z" />
    <glyph glyph-name="Edotaccent" unicode="&#x116;" 
d="M107 700h550l-32 -200h-284l-9 -60h244l-28 -178h-244l-10 -60h290l-32 -202h-556zM526 838q-15 -95 -119 -95q-53 0 -84.5 33t-21.5 94q8 49 40.5 71.5t78.5 22.5q54 0 84.5 -32.5t21.5 -93.5z" />
    <glyph glyph-name="edotaccent" unicode="&#x117;" horiz-adv-x="546" 
d="M11 261q9 61 40 108t73 74t87 40.5t88 13.5q63 0 110 -19t72.5 -50.5t37 -71.5t8 -81t-18.5 -81h-284q14 -50 118 -50q78 0 148 20l-25 -160q-72 -21 -171 -21q-55 0 -106.5 14.5t-97 44.5t-68 87t-11.5 132zM338 288q7 26 -4 42t-35 16q-29 0 -46.5 -18.5t-20.5 -39.5
h106zM439 618q-15 -95 -119 -95q-53 0 -84.5 33t-21.5 94q8 49 40.5 71.5t78.5 22.5q54 0 84.5 -32.5t21.5 -93.5z" />
    <glyph glyph-name="Eogonek" unicode="&#x118;" 
d="M657 700l-32 -200h-284l-9 -60h244l-28 -178h-244l-10 -60h290l-32 -202q-52 -46 -52 -76q0 -17 17 -17q9 0 19 4l-22 -137q-36 -11 -81 -11q-57 0 -95 22.5t-38 69.5q0 36 25.5 75t73.5 70h-403l111 700h550z" />
    <glyph glyph-name="eogonek" unicode="&#x119;" horiz-adv-x="546" 
d="M408 -227q-36 -11 -81 -11q-57 0 -95 22.5t-38 69.5q0 68 77 130q-49 3 -87 14q-88 25 -138.5 89.5t-34.5 173.5q9 61 40 108t73 74t87 40.5t88 13.5q63 0 110 -19t72.5 -50.5t37 -71.5t8 -81t-18.5 -81h-284q14 -50 118 -50q78 0 148 20l-25 -160q-32 -20 -51.5 -43
t-19.5 -39t17 -16q9 0 19 4zM299 346q-29 0 -46.5 -18.5t-20.5 -39.5h106q7 26 -4 42t-35 16z" />
    <glyph glyph-name="Ecaron" unicode="&#x11a;" 
d="M107 700h550l-32 -200h-284l-9 -60h244l-28 -178h-244l-10 -60h290l-32 -202h-556zM670 925l-163 -180h-212l-105 180h192l37 -64l61 64h190z" />
    <glyph glyph-name="ecaron" unicode="&#x11b;" horiz-adv-x="546" 
d="M11 261q9 61 40 108t73 74t87 40.5t88 13.5q63 0 110 -19t72.5 -50.5t37 -71.5t8 -81t-18.5 -81h-284q14 -50 118 -50q78 0 148 20l-25 -160q-72 -21 -171 -21q-55 0 -106.5 14.5t-97 44.5t-68 87t-11.5 132zM338 288q7 26 -4 42t-35 16q-29 0 -46.5 -18.5t-20.5 -39.5
h106zM583 705l-163 -180h-212l-105 180h192l37 -64l61 64h190z" />
    <glyph glyph-name="Gbreve" unicode="&#x11e;" horiz-adv-x="686" 
d="M29 366q12 74 43.5 134t74.5 100t97 67t108 38.5t109 11.5q133 0 232 -44l-35 -220q-63 34 -156 34q-181 0 -204 -143q-10 -60 14.5 -89t61.5 -29q13 0 22 3l27 166h248l-58 -369q-95 -43 -229 -43q-78 0 -147.5 24.5t-121.5 71t-76 121t-10 166.5zM653 798
q-86 -55 -192 -55q-119 0 -194 55l25 156q73 -49 180 -49q118 0 206 49z" />
    <glyph glyph-name="gbreve" unicode="&#x11f;" 
d="M552 31q-12 -73 -43.5 -126.5t-77 -83.5t-95.5 -44t-105 -14q-143 0 -243 42l30 191q83 -37 161 -37q118 0 131 73l2 11q-46 -40 -117 -40q-104 0 -152 74.5t-30 188.5q16 102 80 166.5t160 64.5q48 0 86.5 -22t60.5 -55l10 60h213zM258 242q-4 -30 7.5 -46t30.5 -17
q21 0 40 16l16 100q-8 15 -30 15q-24 0 -42 -19t-22 -49zM533 578q-86 -55 -192 -55q-119 0 -194 55l25 156q73 -49 180 -49q118 0 206 49z" />
    <glyph glyph-name="Gdotaccent" unicode="&#x120;" horiz-adv-x="686" 
d="M29 366q12 74 43.5 134t74.5 100t97 67t108 38.5t109 11.5q133 0 232 -44l-35 -220q-63 34 -156 34q-181 0 -204 -143q-10 -60 14.5 -89t61.5 -29q13 0 22 3l27 166h248l-58 -369q-95 -43 -229 -43q-78 0 -147.5 24.5t-121.5 71t-76 121t-10 166.5zM579 838
q-15 -95 -119 -95q-53 0 -84.5 33t-21.5 94q8 49 40.5 71.5t78.5 22.5q54 0 84.5 -32.5t21.5 -93.5z" />
    <glyph glyph-name="gdotaccent" unicode="&#x121;" 
d="M552 31q-12 -73 -43.5 -126.5t-77 -83.5t-95.5 -44t-105 -14q-143 0 -243 42l30 191q83 -37 161 -37q118 0 131 73l2 11q-46 -40 -117 -40q-104 0 -152 74.5t-30 188.5q16 102 80 166.5t160 64.5q48 0 86.5 -22t60.5 -55l10 60h213zM258 242q-4 -30 7.5 -46t30.5 -17
q21 0 40 16l16 100q-8 15 -30 15q-24 0 -42 -19t-22 -49zM459 618q-15 -95 -119 -95q-53 0 -84.5 33t-21.5 94q8 49 40.5 71.5t78.5 22.5q54 0 84.5 -32.5t21.5 -93.5z" />
    <glyph glyph-name="Gcommaaccent" unicode="&#x122;" horiz-adv-x="686" 
d="M29 366q12 74 43.5 134t74.5 100t97 67t108 38.5t109 11.5q133 0 232 -44l-35 -220q-63 34 -156 34q-181 0 -204 -143q-10 -60 14.5 -89t61.5 -29q13 0 22 3l27 166h248l-58 -369q-95 -43 -229 -43q-78 0 -147.5 24.5t-121.5 71t-76 121t-10 166.5zM388 -300h-175l67 240
h212z" />
    <glyph glyph-name="gcommaaccent" unicode="&#x123;" 
d="M430 529h-200l87 219h174zM552 31q-12 -73 -43.5 -126.5t-77 -83.5t-95.5 -44t-105 -14q-143 0 -243 42l30 191q83 -37 161 -37q118 0 131 73l2 11q-46 -40 -117 -40q-104 0 -152 74.5t-30 188.5q16 102 80 166.5t160 64.5q48 0 86.5 -22t60.5 -55l10 60h213zM258 242
q-4 -30 7.5 -46t30.5 -17q21 0 40 16l16 100q-8 15 -30 15q-24 0 -42 -19t-22 -49z" />
    <glyph glyph-name="Hbar" unicode="&#x126;" horiz-adv-x="800" 
d="M285 0h-266l85 534h-66l16 102h66l10 64h265l-10 -64h137l10 64h266l-10 -64h66l-16 -102h-66l-85 -534h-266l37 235h-136zM369 534l-11 -69h137l11 69h-137z" />
    <glyph glyph-name="hbar" unicode="&#x127;" horiz-adv-x="595" 
d="M302 464q61 33 117 33q88 0 125.5 -56.5t26.5 -128.5l-50 -312h-242l44 277q3 18 -18 18q-15 0 -32 -11l-45 -284h-242l85 533h-60l16 105h60l10 62h242l-10 -62h128l-16 -105h-128z" />
    <glyph glyph-name="Imacron" unicode="&#x12a;" horiz-adv-x="350" 
d="M107 700h266l-111 -700h-266zM84 905h380l-25 -157h-380z" />
    <glyph glyph-name="imacron" unicode="&#x12b;" horiz-adv-x="307" 
d="M358 545h-320l24 150h320zM229 0h-242l76 480h242z" />
    <glyph glyph-name="Iogonek" unicode="&#x12e;" horiz-adv-x="350" 
d="M-4 0l111 700h266l-111 -700q-52 -46 -52 -76q0 -17 17 -17q9 0 19 4l-22 -137q-36 -11 -81 -11q-57 0 -95 22.5t-38 69.5q0 36 25.5 75t73.5 70h-113z" />
    <glyph glyph-name="iogonek" unicode="&#x12f;" horiz-adv-x="307" 
d="M84 643q9 50 44 75.5t83 25.5q54 0 86 -34t22 -95q-8 -50 -43 -75.5t-83 -25.5q-54 0 -86 34t-23 95zM76 0h-89l76 480h242l-76 -480q-52 -46 -52 -76q0 -17 17 -17q9 0 19 4l-22 -137q-36 -11 -81 -11q-57 0 -95 22.5t-38 69.5q0 36 25.5 75t73.5 70z" />
    <glyph glyph-name="Idotaccent" unicode="&#x130;" horiz-adv-x="350" 
d="M107 700h266l-111 -700h-266zM377 838q-15 -95 -119 -95q-53 0 -84.5 33t-21.5 94q8 49 40.5 71.5t78.5 22.5q54 0 84.5 -32.5t21.5 -93.5z" />
    <glyph glyph-name="dotlessi" unicode="&#x131;" horiz-adv-x="307" 
d="M229 0h-242l76 480h242z" />
    <glyph glyph-name="IJ" unicode="&#x132;" horiz-adv-x="870" 
d="M107 700h266l-111 -700h-266zM482 700h416l-70 -445q-43 -265 -317 -265q-122 0 -189 31l35 223q43 -14 98 -14q103 0 114 72l27 168h-150z" />
    <glyph glyph-name="ij" unicode="&#x133;" horiz-adv-x="614" 
d="M229 0h-242l76 480h242zM325 615q-8 -50 -43 -75.5t-83 -25.5q-54 0 -86 34t-23 95q9 50 44 75.5t83 25.5q54 0 86 -34t22 -95zM527 -57q-14 -91 -77.5 -135.5t-146.5 -44.5q-76 0 -130 22l30 189q14 -6 37 -6q48 0 57 53l73 459h242zM632 615q-8 -50 -43 -75.5
t-83 -25.5q-54 0 -86 34t-23 95q9 50 44 75.5t83 25.5q54 0 86 -34t22 -95z" />
    <glyph glyph-name="Kcommaaccent" unicode="&#x136;" horiz-adv-x="746" 
d="M531 700h301l-270 -351l150 -349h-278l-97 235h-38l-37 -235h-266l111 700h266l-37 -235h35zM350 -290h-175l67 240h212z" />
    <glyph glyph-name="kcommaaccent" unicode="&#x137;" horiz-adv-x="624" 
d="M402 480h264l-186 -255l98 -225h-250l-48 147h-28l-23 -147h-242l111 700h242l-58 -363h27zM284 -290h-175l67 240h212z" />
    <glyph glyph-name="Lacute" unicode="&#x139;" horiz-adv-x="602" 
d="M107 700h266l-74 -470h284l-37 -230h-550zM346 745h-210l133 176h236z" />
    <glyph glyph-name="lacute" unicode="&#x13a;" horiz-adv-x="307" 
d="M103 730h242l-116 -730h-242zM333 780h-210l133 176h236z" />
    <glyph glyph-name="Lcommaaccent" unicode="&#x13b;" horiz-adv-x="602" 
d="M107 700h266l-74 -470h284l-37 -230h-550zM282 -290h-175l67 240h212z" />
    <glyph glyph-name="lcommaaccent" unicode="&#x13c;" horiz-adv-x="307" 
d="M103 730h242l-116 -730h-242zM108 -290h-175l67 240h212z" />
    <glyph glyph-name="Lcaron" unicode="&#x13d;" horiz-adv-x="609" 
d="M459 700h189l-81 -249h-163zM107 700h266l-74 -470h284l-37 -230h-550z" />
    <glyph glyph-name="lcaron" unicode="&#x13e;" horiz-adv-x="335" 
d="M391 730h189l-82 -249h-163zM103 730h242l-116 -730h-242z" />
    <glyph glyph-name="Ldot" unicode="&#x13f;" horiz-adv-x="619" 
d="M602 407q-8 -48 -40.5 -71t-77.5 -23q-52 0 -82.5 33.5t-21.5 92.5q7 47 39.5 70.5t77.5 23.5q53 0 83.5 -33.5t21.5 -92.5zM107 700h266l-74 -470h284l-37 -230h-550z" />
    <glyph glyph-name="ldot" unicode="&#x140;" horiz-adv-x="556" 
d="M103 730h242l-116 -730h-242zM567 334q-9 -54 -46 -81t-89 -27q-58 0 -92.5 37t-24.5 103q9 54 46 81t88 27q59 0 94 -37t24 -103z" />
    <glyph glyph-name="Lslash" unicode="&#x141;" horiz-adv-x="661" 
d="M605 0h-550l33 206l-83 -26l32 214l85 27l44 279h266l-30 -189l116 39l-32 -214l-117 -38l-11 -68h284z" />
    <glyph glyph-name="lslash" unicode="&#x142;" horiz-adv-x="414" 
d="M156 730h242l-44 -275l71 25l-26 -178l-73 -24l-44 -278h-242l29 183l-71 -25l28 179l71 23z" />
    <glyph glyph-name="Nacute" unicode="&#x143;" horiz-adv-x="762" 
d="M262 0h-266l111 700h189l186 -289q1 62 11 122l26 167h266l-111 -700h-189l-185 289q-1 -62 -11 -122zM509 745h-210l133 176h236z" />
    <glyph glyph-name="nacute" unicode="&#x144;" horiz-adv-x="596" 
d="M270 443q68 54 150 54q88 0 125.5 -56.5t26.5 -128.5l-50 -312h-242l44 277q3 18 -18 18q-16 0 -32 -11l-45 -284h-242l76 480h213zM404 525h-210l133 176h236z" />
    <glyph glyph-name="Ncommaaccent" unicode="&#x145;" horiz-adv-x="762" 
d="M262 0h-266l111 700h189l186 -289q1 62 11 122l26 167h266l-111 -700h-189l-185 289q-1 -62 -11 -122zM377 -290h-175l67 240h212z" />
    <glyph glyph-name="ncommaaccent" unicode="&#x146;" horiz-adv-x="596" 
d="M270 443q68 54 150 54q88 0 125.5 -56.5t26.5 -128.5l-50 -312h-242l44 277q3 18 -18 18q-16 0 -32 -11l-45 -284h-242l76 480h213zM261 -290h-175l67 240h212z" />
    <glyph glyph-name="Ncaron" unicode="&#x147;" horiz-adv-x="762" 
d="M262 0h-266l111 700h189l186 -289q1 62 11 122l26 167h266l-111 -700h-189l-185 289q-1 -62 -11 -122zM700 925l-163 -180h-212l-105 180h192l37 -64l61 64h190z" />
    <glyph glyph-name="ncaron" unicode="&#x148;" horiz-adv-x="596" 
d="M270 443q68 54 150 54q88 0 125.5 -56.5t26.5 -128.5l-50 -312h-242l44 277q3 18 -18 18q-16 0 -32 -11l-45 -284h-242l76 480h213zM595 705l-163 -180h-212l-105 180h192l37 -64l61 64h190z" />
    <glyph glyph-name="Eng" unicode="&#x14a;" horiz-adv-x="762" 
d="M673 -8q-35 -224 -247 -224q-55 0 -107 12l31 192q13 -8 32 -8q40 0 47 47l10 61l-139 217q-1 -62 -11 -122l-27 -167h-266l111 700h189l186 -289q1 62 11 122l26 167h266z" />
    <glyph glyph-name="eng" unicode="&#x14b;" horiz-adv-x="596" 
d="M515 -47q-30 -190 -222 -190q-64 0 -104 22l28 175q10 -5 23 -5q33 0 40 45l44 277q3 18 -18 18q-16 0 -32 -11l-45 -284h-242l76 480h213l-6 -37q68 54 150 54q88 0 125.5 -56.5t26.5 -128.5z" />
    <glyph glyph-name="Omacron" unicode="&#x14c;" horiz-adv-x="800" 
d="M788 334q-24 -155 -136 -253t-292 -98q-182 0 -270 108.5t-62 274.5q24 155 135.5 253t291.5 98q182 0 270.5 -108.5t62.5 -274.5zM298 334q-10 -111 87 -111q54 0 90.5 37.5t42.5 105.5q10 111 -88 111q-54 0 -89.5 -37.5t-42.5 -105.5zM309 905h380l-25 -157h-380z" />
    <glyph glyph-name="omacron" unicode="&#x14d;" horiz-adv-x="594" 
d="M568 224q-20 -121 -102.5 -181t-207.5 -60q-57 0 -106 17.5t-85 50t-52 86t-5 119.5q19 121 101 181t207 60q57 0 106.5 -17.5t85.5 -50t52.5 -86t5.5 -119.5zM235 232q-4 -52 41 -52q26 0 43 18t20 50q4 52 -42 52q-25 0 -42 -18t-20 -50zM157 685h380l-25 -157h-380z
" />
    <glyph glyph-name="Ohungarumlaut" unicode="&#x150;" horiz-adv-x="800" 
d="M788 334q-24 -155 -136 -253t-292 -98q-182 0 -270 108.5t-62 274.5q24 155 135.5 253t291.5 98q182 0 270.5 -108.5t62.5 -274.5zM298 334q-10 -111 87 -111q54 0 90.5 37.5t42.5 105.5q10 111 -88 111q-54 0 -89.5 -37.5t-42.5 -105.5zM682 740h-189l122 177h204z
M447 740h-189l107 177h204z" />
    <glyph glyph-name="ohungarumlaut" unicode="&#x151;" horiz-adv-x="594" 
d="M568 224q-20 -121 -102.5 -181t-207.5 -60q-57 0 -106 17.5t-85 50t-52 86t-5 119.5q19 121 101 181t207 60q57 0 106.5 -17.5t85.5 -50t52.5 -86t5.5 -119.5zM235 232q-4 -52 41 -52q26 0 43 18t20 50q4 52 -42 52q-25 0 -42 -18t-20 -50zM530 520h-189l122 177h204z
M295 520h-189l107 177h204z" />
    <glyph glyph-name="OE" unicode="&#x152;" horiz-adv-x="1005" 
d="M430 0q-51 -17 -108 -17q-160 0 -239 109t-53 274q24 154 127.5 252.5t259.5 98.5q63 0 114 -17h505l-32 -200h-234l-9 -60h194l-28 -178h-194l-10 -60h240l-32 -202h-501zM298 344q-7 -58 18.5 -89.5t57.5 -31.5q53 0 91 26l33 210q-29 18 -66 18q-26 0 -52 -10t-51 -42
t-31 -81z" />
    <glyph glyph-name="oe" unicode="&#x153;" horiz-adv-x="892" 
d="M438 49q-76 -66 -199 -66q-113 0 -181 72t-47 202q19 120 99 180t199 60q101 0 162 -60q76 60 183 60q132 1 189 -88.5t10 -213.5h-284q14 -51 118 -51q78 0 148 20l-25 -160q-72 -21 -171 -21q-127 0 -201 66zM239 231q-2 -21 8 -36t31 -15q62 0 65 71q2 21 -8.5 35
t-31.5 14q-62 0 -64 -69zM645 347q-29 0 -46.5 -18.5t-20.5 -39.5h106q7 26 -4 42t-35 16z" />
    <glyph glyph-name="Racute" unicode="&#x154;" horiz-adv-x="742" 
d="M262 0h-266l111 700h342q58 0 108.5 -14.5t92.5 -44.5t61 -84.5t8 -127.5q-21 -137 -137 -197l127 -232h-280l-95 190h-42zM340 490l-17 -108h61q29 0 49 15.5t24 42.5q3 18 -8.5 34t-35.5 16h-73zM475 745h-210l133 176h236z" />
    <glyph glyph-name="racute" unicode="&#x155;" horiz-adv-x="429" 
d="M270 437q29 30 75.5 45t103.5 7l-35 -219q-32 16 -77.5 11.5t-66.5 -24.5l-41 -257h-242l76 480h214zM334 525h-210l133 176h236z" />
    <glyph glyph-name="Rcommaaccent" unicode="&#x156;" horiz-adv-x="742" 
d="M262 0h-266l111 700h342q58 0 108.5 -14.5t92.5 -44.5t61 -84.5t8 -127.5q-21 -137 -137 -197l127 -232h-280l-95 190h-42zM340 490l-17 -108h61q29 0 49 15.5t24 42.5q3 18 -8.5 34t-35.5 16h-73zM351 -290h-175l67 240h212z" />
    <glyph glyph-name="rcommaaccent" unicode="&#x157;" horiz-adv-x="429" 
d="M270 437q29 30 75.5 45t103.5 7l-35 -219q-32 16 -77.5 11.5t-66.5 -24.5l-41 -257h-242l76 480h214zM111 -290h-175l67 240h212z" />
    <glyph glyph-name="Rcaron" unicode="&#x158;" horiz-adv-x="742" 
d="M262 0h-266l111 700h342q58 0 108.5 -14.5t92.5 -44.5t61 -84.5t8 -127.5q-21 -137 -137 -197l127 -232h-280l-95 190h-42zM340 490l-17 -108h61q29 0 49 15.5t24 42.5q3 18 -8.5 34t-35.5 16h-73zM666 925l-163 -180h-212l-105 180h192l37 -64l61 64h190z" />
    <glyph glyph-name="rcaron" unicode="&#x159;" horiz-adv-x="429" 
d="M270 437q29 30 75.5 45t103.5 7l-35 -219q-32 16 -77.5 11.5t-66.5 -24.5l-41 -257h-242l76 480h214zM525 705l-163 -180h-212l-105 180h192l37 -64l61 64h190z" />
    <glyph glyph-name="Sacute" unicode="&#x15a;" horiz-adv-x="641" 
d="M62 517q14 95 102.5 147.5t202.5 52.5q157 0 275 -63l-34 -216q-101 64 -219 64q-55 0 -58 -20q-1 -10 15 -19t43 -18.5t59 -21.5t63.5 -31.5t56 -45t36 -65t4.5 -87.5q-32 -211 -328 -211q-167 0 -283 71l35 224q108 -76 231 -76q74 0 77 20q2 10 -14.5 19t-43.5 18
t-59.5 21t-64 31.5t-56 45.5t-36.5 67t-4 93zM442 745h-210l133 176h236z" />
    <glyph glyph-name="sacute" unicode="&#x15b;" horiz-adv-x="495" 
d="M30 358q16 139 244 139q109 0 195 -43l-27 -165q-61 47 -131 47q-34 0 -35 -15q-1 -10 20 -19t50 -19.5t57 -27t44.5 -49.5t8.5 -78q-24 -145 -266 -145q-105 0 -200 45l30 184q28 -26 70 -41t72 -18q47 -4 49 11q1 8 -13.5 16t-36 14.5t-46.5 19.5t-45.5 29.5t-32 46.5
t-7.5 68zM342 525h-210l133 176h236z" />
    <glyph glyph-name="Scedilla" unicode="&#x15e;" horiz-adv-x="641" 
d="M412 -138q-8 -53 -56 -76.5t-113 -23.5q-85 0 -141 22l19 122q40 -20 85 -20q56 0 59 22q2 12 -13 17.5t-36 4.5t-40 -5l31 62q-121 13 -210 67l35 224q108 -76 231 -76q74 0 77 20q2 10 -14.5 19t-43.5 18t-59.5 21t-64 31.5t-56 45.5t-36.5 67t-4 93q14 95 102.5 147.5
t202.5 52.5q157 0 275 -63l-34 -216q-101 64 -219 64q-55 0 -58 -20q-1 -10 15 -19t43 -18.5t59 -21.5t63.5 -31.5t56 -45t36 -65t4.5 -87.5q-29 -191 -271 -209l-15 -29q41 0 69 -26.5t21 -67.5z" />
    <glyph glyph-name="scedilla" unicode="&#x15f;" horiz-adv-x="495" 
d="M349 -138q-8 -53 -56 -76.5t-113 -23.5q-85 0 -141 22l19 122q40 -20 85 -20q56 0 59 22q2 12 -13 17.5t-36 4.5t-40 -5l30 60q-81 9 -153 43l30 184q28 -26 70 -41t72 -18q47 -4 49 11q1 8 -13.5 16t-36 14.5t-46.5 19.5t-45.5 29.5t-32 46.5t-7.5 68q16 139 244 139
q109 0 195 -43l-27 -165q-61 47 -131 47q-34 0 -35 -15q-1 -10 20 -19t50 -19.5t57 -27t44.5 -49.5t8.5 -78q-19 -118 -180 -140l-17 -32q41 0 69 -26.5t21 -67.5z" />
    <glyph glyph-name="Scaron" unicode="&#x160;" horiz-adv-x="641" 
d="M62 517q14 95 102.5 147.5t202.5 52.5q157 0 275 -63l-34 -216q-101 64 -219 64q-55 0 -58 -20q-1 -10 15 -19t43 -18.5t59 -21.5t63.5 -31.5t56 -45t36 -65t4.5 -87.5q-32 -211 -328 -211q-167 0 -283 71l35 224q108 -76 231 -76q74 0 77 20q2 10 -14.5 19t-43.5 18
t-59.5 21t-64 31.5t-56 45.5t-36.5 67t-4 93zM633 925l-163 -180h-212l-105 180h192l37 -64l61 64h190z" />
    <glyph glyph-name="scaron" unicode="&#x161;" horiz-adv-x="495" 
d="M30 358q16 139 244 139q109 0 195 -43l-27 -165q-61 47 -131 47q-34 0 -35 -15q-1 -10 20 -19t50 -19.5t57 -27t44.5 -49.5t8.5 -78q-24 -145 -266 -145q-105 0 -200 45l30 184q28 -26 70 -41t72 -18q47 -4 49 11q1 8 -13.5 16t-36 14.5t-46.5 19.5t-45.5 29.5t-32 46.5
t-7.5 68zM533 705l-163 -180h-212l-105 180h192l37 -64l61 64h190z" />
    <glyph glyph-name="Tcommaaccent" unicode="&#x162;" horiz-adv-x="647" 
d="M75 700h626l-36 -230h-180l-75 -470h-266l75 470h-180zM281 -290h-175l67 240h212z" />
    <glyph glyph-name="tcommaaccent" unicode="&#x163;" horiz-adv-x="437" 
d="M128 604l252 56l-29 -180h89l-30 -190h-89l-12 -76q-3 -20 8 -27.5t30 -7.5q27 0 51 8l-29 -187q-64 -18 -132 -18q-37 0 -69 9.5t-61 31t-41.5 64t-3.5 101.5l16 102h-60l30 190h60zM240 -290h-175l67 240h212z" />
    <glyph glyph-name="Tcaron" unicode="&#x164;" horiz-adv-x="647" 
d="M75 700h626l-36 -230h-180l-75 -470h-266l75 470h-180zM663 925l-163 -180h-212l-105 180h192l37 -64l61 64h190z" />
    <glyph glyph-name="tcaron" unicode="&#x165;" horiz-adv-x="437" 
d="M461 776h189l-82 -249h-163zM128 604l252 56l-29 -180h89l-30 -190h-89l-12 -76q-3 -20 8 -27.5t30 -7.5q27 0 51 8l-29 -187q-64 -18 -132 -18q-37 0 -69 9.5t-61 31t-41.5 64t-3.5 101.5l16 102h-60l30 190h60z" />
    <glyph glyph-name="Tbar" unicode="&#x166;" horiz-adv-x="657" 
d="M415 0h-266l35 217h-107l24 150h106l17 103h-180l36 230h626l-36 -230h-180l-17 -103h107l-23 -150h-107z" />
    <glyph glyph-name="tbar" unicode="&#x167;" horiz-adv-x="438" 
d="M441 480l-29 -180h-89l-5 -30h76l-9 -60h-76l-1 -6q-4 -25 40 -25q27 0 51 8l-29 -187q-64 -18 -132 -18q-37 0 -68.5 9.5t-60.5 31t-42 64t-4 101.5l3 22h-31l9 60h31l5 30h-60l29 180h60l20 124l252 56l-29 -180h89z" />
    <glyph glyph-name="Umacron" unicode="&#x16a;" horiz-adv-x="736" 
d="M499 700h266l-68 -432q-45 -285 -373 -285q-66 0 -122 16.5t-99.5 51t-63 94.5t-6.5 139l66 416h266l-67 -420q-8 -57 57 -57q68 0 80 73zM266 905h380l-25 -157h-380z" />
    <glyph glyph-name="umacron" unicode="&#x16b;" horiz-adv-x="595" 
d="M351 480h242l-76 -480h-213l6 38q-54 -55 -140 -55q-85 0 -129 55t-32 133l49 309h242l-43 -272q-5 -25 18 -25q17 0 31 12zM162 685h380l-25 -157h-380z" />
    <glyph glyph-name="Uring" unicode="&#x16e;" horiz-adv-x="736" 
d="M499 700h266l-68 -432q-45 -285 -373 -285q-66 0 -122 16.5t-99.5 51t-63 94.5t-6.5 139l66 416h266l-67 -420q-8 -57 57 -57q68 0 80 73zM600 851q-9 -59 -53 -89.5t-106 -30.5q-65 0 -106 41t-30 111q9 56 53.5 87t103.5 31q66 0 107.5 -41t30.5 -109zM420 866
q-2 -14 5 -23.5t23 -9.5q32 0 38 33t-28 33q-32 0 -38 -33z" />
    <glyph glyph-name="uring" unicode="&#x16f;" horiz-adv-x="595" 
d="M351 480h242l-76 -480h-213l6 38q-54 -55 -140 -55q-85 0 -129 55t-32 133l49 309h242l-43 -272q-5 -25 18 -25q17 0 31 12zM496 631q-9 -59 -53 -89.5t-106 -30.5q-65 0 -106 41t-30 111q9 56 53.5 87t103.5 31q66 0 107.5 -41t30.5 -109zM316 646q-2 -14 5 -23.5
t23 -9.5q32 0 38 33t-28 33q-32 0 -38 -33z" />
    <glyph glyph-name="Uhungarumlaut" unicode="&#x170;" horiz-adv-x="736" 
d="M499 700h266l-68 -432q-45 -285 -373 -285q-66 0 -122 16.5t-99.5 51t-63 94.5t-6.5 139l66 416h266l-67 -420q-8 -57 57 -57q68 0 80 73zM639 740h-189l122 177h204zM404 740h-189l107 177h204z" />
    <glyph glyph-name="uhungarumlaut" unicode="&#x171;" horiz-adv-x="596" 
d="M351 480h242l-76 -480h-213l6 38q-54 -55 -140 -55q-85 0 -129 55t-32 133l49 309h242l-43 -272q-5 -25 18 -25q17 0 31 12zM535 520h-189l122 177h204zM300 520h-189l107 177h204z" />
    <glyph glyph-name="Uogonek" unicode="&#x172;" horiz-adv-x="736" 
d="M435 296l64 404h266l-68 -432q-21 -136 -110 -209q-106 -87 -106 -135q0 -17 18 -17q9 0 19 4l-22 -137q-36 -11 -81 -11q-57 0 -95 22.5t-38 69.5q0 71 84 129q-14 -1 -42 -1q-66 0 -122 16.5t-99.5 51t-63 94.5t-6.5 139l66 416h266l-67 -420q-8 -57 57 -57q68 0 80 73
z" />
    <glyph glyph-name="uogonek" unicode="&#x173;" horiz-adv-x="595" 
d="M306 195l45 285h242l-76 -480q-52 -46 -52 -76q0 -17 17 -17q9 0 19 4l-22 -137q-36 -11 -81 -11q-57 0 -95 22.5t-38 69.5q0 36 25.5 75t73.5 70h-60l6 38q-54 -55 -140 -55q-85 0 -129 55t-32 133l49 309h242l-43 -272q-5 -25 18 -25q17 0 31 12z" />
    <glyph glyph-name="Wcircumflex" unicode="&#x174;" horiz-adv-x="1132" 
d="M901 700h297l-320 -700h-289l-25 291l-120 -291h-282l-98 700h276l26 -367l149 367h212l30 -367zM539 925h212l105 -180h-182l-38 64l-60 -64h-200z" />
    <glyph glyph-name="wcircumflex" unicode="&#x175;" horiz-adv-x="852" 
d="M631 480h248l-223 -480h-225l-22 203l-85 -203h-220l-71 480h234l5 -246l98 246h158l18 -246zM369 705h212l105 -180h-182l-38 64l-60 -64h-200z" />
    <glyph glyph-name="Ycircumflex" unicode="&#x176;" horiz-adv-x="772" 
d="M470 0h-264l40 239l-188 461h281l61 -246l135 246h310l-335 -461zM365 925h212l105 -180h-182l-38 64l-60 -64h-200z" />
    <glyph glyph-name="ycircumflex" unicode="&#x177;" horiz-adv-x="626" 
d="M313 238l90 242h252l-248 -499q-109 -217 -308 -217q-71 0 -128 21l30 190q30 -10 64 -10q60 0 98 47l-139 468h239zM258 705h212l105 -180h-182l-38 64l-60 -64h-200z" />
    <glyph glyph-name="Ydieresis" unicode="&#x178;" horiz-adv-x="772" 
d="M470 0h-264l40 239l-188 461h281l61 -246l135 246h310l-335 -461zM682 836q-4 -49 -35 -77t-77 -28t-74 28t-24 77t35 77t77 28t74 -28t24 -77zM444 836q-4 -49 -35 -77t-77 -28t-74 28t-24 77t35 77t77 28t74 -28t24 -77z" />
    <glyph glyph-name="Zacute" unicode="&#x179;" horiz-adv-x="661" 
d="M589 0h-609l26 165l273 305h-209l36 230h580l-26 -165l-272 -305h238zM474 745h-210l133 176h236z" />
    <glyph glyph-name="zacute" unicode="&#x17a;" horiz-adv-x="511" 
d="M69 480h434l-23 -143l-162 -147h153l-30 -190h-464l22 141l164 149h-124zM380 525h-210l133 176h236z" />
    <glyph glyph-name="Zdotaccent" unicode="&#x17b;" horiz-adv-x="661" 
d="M589 0h-609l26 165l273 305h-209l36 230h580l-26 -165l-272 -305h238zM521 838q-15 -95 -119 -95q-53 0 -84.5 33t-21.5 94q8 49 40.5 71.5t78.5 22.5q54 0 84.5 -32.5t21.5 -93.5z" />
    <glyph glyph-name="zdotaccent" unicode="&#x17c;" horiz-adv-x="511" 
d="M69 480h434l-23 -143l-162 -147h153l-30 -190h-464l22 141l164 149h-124zM427 618q-15 -95 -119 -95q-53 0 -84.5 33t-21.5 94q8 49 40.5 71.5t78.5 22.5q54 0 84.5 -32.5t21.5 -93.5z" />
    <glyph glyph-name="Zcaron" unicode="&#x17d;" horiz-adv-x="661" 
d="M589 0h-609l26 165l273 305h-209l36 230h580l-26 -165l-272 -305h238zM665 925l-163 -180h-212l-105 180h192l37 -64l61 64h190z" />
    <glyph glyph-name="zcaron" unicode="&#x17e;" horiz-adv-x="511" 
d="M69 480h434l-23 -143l-162 -147h153l-30 -190h-464l22 141l164 149h-124zM571 705l-163 -180h-212l-105 180h192l37 -64l61 64h190z" />
    <glyph glyph-name="Scommaaccent" unicode="&#x218;" horiz-adv-x="641" 
d="M62 517q14 95 102.5 147.5t202.5 52.5q157 0 275 -63l-34 -216q-101 64 -219 64q-55 0 -58 -20q-1 -10 15 -19t43 -18.5t59 -21.5t63.5 -31.5t56 -45t36 -65t4.5 -87.5q-32 -211 -328 -211q-167 0 -283 71l35 224q108 -76 231 -76q74 0 77 20q2 10 -14.5 19t-43.5 18
t-59.5 21t-64 31.5t-56 45.5t-36.5 67t-4 93zM301 -290h-175l67 240h212z" />
    <glyph glyph-name="scommaaccent" unicode="&#x219;" horiz-adv-x="495" 
d="M30 358q16 139 244 139q109 0 195 -43l-27 -165q-61 47 -131 47q-34 0 -35 -15q-1 -10 20 -19t50 -19.5t57 -27t44.5 -49.5t8.5 -78q-24 -145 -266 -145q-105 0 -200 45l30 184q28 -26 70 -41t72 -18q47 -4 49 11q1 8 -13.5 16t-36 14.5t-46.5 19.5t-45.5 29.5t-32 46.5
t-7.5 68zM220 -290h-175l67 240h212z" />
    <glyph glyph-name="uni021A" unicode="&#x21a;" horiz-adv-x="647" 
d="M75 700h626l-36 -230h-180l-75 -470h-266l75 470h-180zM281 -290h-175l67 240h212z" />
    <glyph glyph-name="uni021B" unicode="&#x21b;" horiz-adv-x="437" 
d="M128 604l252 56l-29 -180h89l-30 -190h-89l-12 -76q-3 -20 8 -27.5t30 -7.5q27 0 51 8l-29 -187q-64 -18 -132 -18q-37 0 -69 9.5t-61 31t-41.5 64t-3.5 101.5l16 102h-60l30 190h60zM240 -290h-175l67 240h212z" />
    <glyph glyph-name="circumflex" unicode="&#x2c6;" horiz-adv-x="440" 
d="M238 925h212l105 -180h-182l-38 64l-60 -64h-200z" />
    <glyph glyph-name="caron" unicode="&#x2c7;" horiz-adv-x="440" 
d="M588 925l-163 -180h-212l-105 180h192l37 -64l61 64h190z" />
    <glyph glyph-name="breve" unicode="&#x2d8;" horiz-adv-x="472" 
d="M526 798q-86 -55 -192 -55q-119 0 -194 55l25 156q73 -49 180 -49q118 0 206 49z" />
    <glyph glyph-name="dotaccent" unicode="&#x2d9;" horiz-adv-x="235" 
d="M346 838q-15 -95 -119 -95q-53 0 -84.5 33t-21.5 94q8 49 40.5 71.5t78.5 22.5q54 0 84.5 -32.5t21.5 -93.5z" />
    <glyph glyph-name="ring" unicode="&#x2da;" horiz-adv-x="290" 
d="M407 851q-9 -59 -53 -89.5t-106 -30.5q-65 0 -106 41t-30 111q9 56 53.5 87t103.5 31q66 0 107.5 -41t30.5 -109zM227 866q-5 -33 28 -33t38 33t-28 33t-38 -33z" />
    <glyph glyph-name="ogonek" unicode="&#x2db;" horiz-adv-x="242" 
d="M60 0h153q-52 -46 -52 -76q0 -17 17 -17q9 0 19 4l-22 -137q-36 -11 -81 -11q-57 0 -95 22.5t-38 69.5q0 36 25.5 75t73.5 70z" />
    <glyph glyph-name="tilde" unicode="&#x2dc;" horiz-adv-x="468" 
d="M574 929q11 -84 -28.5 -140t-108.5 -56q-38 0 -85 19.5t-63 19.5q-12 0 -19.5 -8.5t-4.5 -24.5h-149q-11 84 28.5 140t108.5 56q38 0 85 -19.5t63 -19.5q12 0 19.5 8.5t4.5 24.5h149z" />
    <glyph glyph-name="hungarumlaut" unicode="&#x2dd;" horiz-adv-x="539" 
d="M528 740h-189l122 177h204zM293 740h-189l107 177h204z" />
    <glyph glyph-name="uni0326" unicode="&#x326;" horiz-adv-x="313" 
d="M161 -290h-175l67 240h212z" />
    <glyph glyph-name="uni0401" unicode="&#x401;" 
d="M632 836q-4 -49 -35 -77t-77 -28t-74 28t-24 77t35 77t77 28t74 -28t24 -77zM394 836q-4 -49 -35 -77t-77 -28t-74 28t-24 77t35 77t77 28t74 -28t24 -77zM107 700h550l-32 -200h-284l-9 -60h244l-28 -178h-244l-10 -60h290l-32 -202h-556z" />
    <glyph glyph-name="uni0410" unicode="&#x410;" horiz-adv-x="775" 
d="M735 0h-256l-10 80h-214l-36 -80h-272l362 700h286zM388 378l-53 -118h111l-15 117q-7 60 -7 100q-12 -47 -36 -99z" />
    <glyph glyph-name="uni0411" unicode="&#x411;" horiz-adv-x="683" 
d="M333 446h86q51 0 94 -10.5t82 -35.5t56.5 -74.5t6.5 -118.5q-8 -52 -29.5 -90t-49 -60t-66 -35t-74 -17.5t-79.5 -4.5h-364l111 700h570l-32 -200h-304zM290 174h36q34 0 53 10t24 41q4 22 -10.5 34.5t-39.5 12.5h-48z" />
    <glyph glyph-name="uni0412" unicode="&#x412;" horiz-adv-x="708" 
d="M107 700h371q117 0 179 -49t47 -144q-16 -98 -119 -139q56 -18 81 -65.5t15 -115.5q-17 -105 -97 -146t-213 -41h-375zM425 239q3 16 -6.5 28.5t-33.5 12.5h-78l-14 -90h71q25 0 41 13.5t20 35.5zM449 474q2 14 -7 26t-32 12h-66l-14 -84h60q24 0 40 13t19 33z" />
    <glyph glyph-name="uni0413" unicode="&#x413;" horiz-adv-x="592" 
d="M262 0h-266l111 700h540l-36 -230h-274z" />
    <glyph glyph-name="uni0414" unicode="&#x414;" horiz-adv-x="865" 
d="M190 -129h-240l55 349h74q78 110 116.5 223.5t59.5 256.5h565l-76 -480h92l-55 -349h-240l20 129h-351zM469 480q-37 -160 -107 -260h122l41 260h-56z" />
    <glyph glyph-name="uni0415" unicode="&#x415;" 
d="M107 700h550l-32 -200h-284l-9 -60h244l-28 -178h-244l-10 -60h290l-32 -202h-556z" />
    <glyph glyph-name="uni0416" unicode="&#x416;" horiz-adv-x="1069" 
d="M849 700h296l-233 -385l103 -315h-273l-61 235h-24l-37 -235h-266l37 235h-22l-133 -235h-286l224 354l-119 346h273l74 -235h26l37 235h266l-37 -235h25z" />
    <glyph glyph-name="uni0417" unicode="&#x417;" horiz-adv-x="633" 
d="M598 177q-9 -57 -39 -96.5t-77 -60t-98 -29t-116 -8.5q-148 0 -281 50l35 221q94 -50 220 -50q99 0 103 37q3 24 -32 24h-169l28 174h137q40 0 44 24q2 14 -13.5 22.5t-46.5 8.5q-110 0 -229 -53l37 234q123 42 239 42q145 0 221.5 -56t59.5 -161q-15 -101 -128 -138
q127 -49 105 -185z" />
    <glyph glyph-name="uni0418" unicode="&#x418;" horiz-adv-x="752" 
d="M775 700l-111 -700h-266l23 143q13 78 28 122l-240 -265h-213l111 700h266l-23 -143q-13 -78 -28 -122l240 265h213z" />
    <glyph glyph-name="uni0419" unicode="&#x419;" horiz-adv-x="752" 
d="M775 700l-111 -700h-266l23 143q13 78 28 122l-240 -265h-213l111 700h266l-23 -143q-13 -78 -28 -122l240 265h213zM646 798q-86 -55 -192 -55q-119 0 -194 55l25 156q73 -49 180 -49q118 0 206 49z" />
    <glyph glyph-name="uni041A" unicode="&#x41a;" horiz-adv-x="746" 
d="M531 700h301l-270 -351l150 -349h-278l-97 235h-38l-37 -235h-266l111 700h266l-37 -235h35z" />
    <glyph glyph-name="uni041B" unicode="&#x41b;" horiz-adv-x="760" 
d="M200 700h583l-111 -700h-266l74 470h-64q-12 -62 -21 -102t-22.5 -91t-27 -84t-32.5 -70t-41.5 -59.5t-51 -42t-65 -28.5t-79.5 -9q-74 0 -123 23l36 225q27 -14 63 -5q19 5 35.5 23.5t30 53t23.5 66t19.5 83.5t14.5 83t13.5 88t11.5 76z" />
    <glyph glyph-name="uni041C" unicode="&#x41c;" horiz-adv-x="904" 
d="M682 700h245l-111 -700h-256l46 289l-108 -147h-134l-66 147l-46 -289h-256l111 700h221l134 -299z" />
    <glyph glyph-name="uni041D" unicode="&#x41d;" horiz-adv-x="752" 
d="M509 700h266l-111 -700h-266l37 235h-136l-37 -235h-266l111 700h266l-37 -235h136z" />
    <glyph glyph-name="uni041E" unicode="&#x41e;" horiz-adv-x="800" 
d="M788 334q-24 -155 -136 -253t-292 -98q-182 0 -270 108.5t-62 274.5q24 155 135.5 253t291.5 98q182 0 270.5 -108.5t62.5 -274.5zM298 334q-10 -111 87 -111q54 0 90.5 37.5t42.5 105.5q10 111 -88 111q-54 0 -89.5 -37.5t-42.5 -105.5z" />
    <glyph glyph-name="uni041F" unicode="&#x41f;" horiz-adv-x="761" 
d="M261 0h-265l111 700h677l-111 -700h-266l75 470h-146z" />
    <glyph glyph-name="uni0420" unicode="&#x420;" horiz-adv-x="705" 
d="M107 700h322q67 0 121.5 -15.5t96 -48t58.5 -90.5t5 -135q-22 -141 -111.5 -199t-243.5 -58h-68l-25 -154h-266zM455 431q4 24 -11 39.5t-47 15.5h-58l-19 -118h46q79 0 89 63z" />
    <glyph glyph-name="uni0421" unicode="&#x421;" horiz-adv-x="641" 
d="M28 361q14 93 58.5 164t106.5 111.5t129.5 60.5t138.5 20q117 0 206 -46l-35 -219q-53 35 -139 35q-74 0 -127.5 -33t-66.5 -105q-11 -62 28 -97t98 -35q101 0 181 42l-38 -239q-84 -37 -194 -37q-77 0 -144 22.5t-119 66.5t-75 118.5t-8 170.5z" />
    <glyph glyph-name="uni0422" unicode="&#x422;" horiz-adv-x="647" 
d="M75 700h626l-36 -230h-180l-75 -470h-266l75 470h-180z" />
    <glyph glyph-name="uni0423" unicode="&#x423;" horiz-adv-x="727" 
d="M462 154q-53 -87 -125 -129t-152 -42q-85 0 -147 25l33 207q29 -14 74 -14q54 0 80 28l18 19l-186 452h260l79 -246l124 246h278z" />
    <glyph glyph-name="uni0424" unicode="&#x424;" horiz-adv-x="898" 
d="M510 -52h-232l16 95q-140 13 -222 100t-60 223q20 129 118.5 205t260.5 89l15 92h232l-15 -92q140 -15 222 -102.5t60 -223.5q-20 -128 -120.5 -203.5t-259.5 -89.5zM267 346q-5 -36 9 -65t55 -36l32 205q-81 -14 -96 -104zM586 454l-33 -206q40 8 65 37t32 71
q5 36 -8.5 64t-55.5 34z" />
    <glyph glyph-name="uni0425" unicode="&#x425;" horiz-adv-x="760" 
d="M246 0h-319l300 358l-175 342h301l58 -162l113 162h319l-286 -342l181 -358h-301l-66 167z" />
    <glyph glyph-name="uni0426" unicode="&#x426;" horiz-adv-x="815" 
d="M728 -129h-230l20 129h-522l111 700h266l-74 -470h138l74 470h266l-74 -470h82z" />
    <glyph glyph-name="uni0427" unicode="&#x427;" horiz-adv-x="710" 
d="M622 0h-266l33 206q-52 -16 -119 -16q-111 0 -177 65t-48 179l42 266h266l-38 -241q-3 -23 10 -33t36 -10q37 0 63 15l43 269h266z" />
    <glyph glyph-name="uni0428" unicode="&#x428;" horiz-adv-x="1030" 
d="M942 0h-946l111 700h266l-74 -470h74l74 470h266l-74 -470h74l74 470h266z" />
    <glyph glyph-name="uni0429" unicode="&#x429;" horiz-adv-x="1091" 
d="M1004 -129h-230l20 129h-798l111 700h266l-74 -470h74l74 470h266l-74 -470h74l74 470h266l-74 -470h82z" />
    <glyph glyph-name="uni042A" unicode="&#x42a;" horiz-adv-x="796" 
d="M445 0h-334l75 470h-146l36 230h412l-29 -184h56q58 0 106.5 -13.5t90.5 -43t60 -85t6 -132.5q-38 -242 -333 -242zM425 302l-14 -88h46q59 0 67 46q2 16 -8.5 29t-32.5 13h-58z" />
    <glyph glyph-name="uni042B" unicode="&#x42b;" horiz-adv-x="1018" 
d="M330 0h-334l111 700h266l-29 -184h56q58 0 106.5 -13.5t90.5 -43t60 -85t6 -132.5q-38 -242 -333 -242zM310 302l-14 -88h46q59 0 67 46q2 16 -8.5 29t-32.5 13h-58zM930 0h-266l111 700h266z" />
    <glyph glyph-name="uni042C" unicode="&#x42c;" horiz-adv-x="681" 
d="M330 0h-334l111 700h266l-29 -184h56q58 0 106.5 -13.5t90.5 -43t60 -85t6 -132.5q-38 -242 -333 -242zM310 302l-14 -88h46q59 0 67 46q2 16 -8.5 29t-32.5 13h-58z" />
    <glyph glyph-name="uni042D" unicode="&#x42d;" horiz-adv-x="643" 
d="M92 679q92 38 203 38q58 0 111.5 -14t101 -43.5t79 -75t45 -109.5t-0.5 -146q-14 -91 -55 -159t-101 -108t-131 -59.5t-152 -19.5q-113 0 -203 45l32 204q59 -35 160 -35q120 0 170 59h-228l30 190h232q-28 61 -139 61q-98 0 -188 -44z" />
    <glyph glyph-name="uni042E" unicode="&#x42e;" horiz-adv-x="1124" 
d="M1113 334q-24 -155 -136 -253t-292 -98q-142 0 -225 68.5t-99 183.5h-62l-37 -235h-266l111 700h266l-37 -235h54q46 121 147.5 186.5t242.5 65.5q182 0 270.5 -108.5t62.5 -274.5zM623 334q-10 -111 87 -111q54 0 90.5 37.5t42.5 105.5q10 111 -88 111
q-54 0 -89.5 -37.5t-42.5 -105.5z" />
    <glyph glyph-name="uni042F" unicode="&#x42f;" horiz-adv-x="741" 
d="M244 0h-303l208 251q-101 72 -78 210q11 67 43 115.5t80 74.5t101 37.5t115 11.5h354l-111 -700h-266l30 190h-22zM331 437q-4 -19 9 -37t40 -18h68l17 108h-61q-30 0 -49.5 -14t-23.5 -39z" />
    <glyph glyph-name="uni0430" unicode="&#x430;" 
d="M340 42q-53 -59 -150 -59q-103 0 -150 79t-29 194q16 105 77 173t162 68q49 0 88.5 -23t60.5 -59l10 65h213l-76 -480h-213zM256 237q-4 -30 7.5 -46t30.5 -17q21 0 40 16l16 100q-8 15 -30 15q-24 0 -42 -19t-22 -49z" />
    <glyph glyph-name="uni0431" unicode="&#x431;" horiz-adv-x="579" 
d="M555 187q-17 -105 -96.5 -154.5t-187.5 -49.5q-44 0 -81.5 8.5t-73 31t-58.5 58t-33.5 93t-1.5 131.5q13 112 63 192t125 123q52 30 114 46t106 18.5t87.5 11t66.5 26.5l-27 -222q-19 -16 -53 -25.5t-80 -16t-66 -12.5q-32 -9 -61.5 -35t-38.5 -59q55 61 136 61
t129 -58.5t31 -167.5zM244 210q-3 -44 35 -44q21 0 35.5 14.5t17.5 41.5q3 44 -36 44q-21 0 -35 -15t-17 -41z" />
    <glyph glyph-name="uni0432" unicode="&#x432;" horiz-adv-x="563" 
d="M332 0h-345l76 480h320q43 0 75 -10t48 -25.5t26.5 -35t10 -38.5t-1.5 -36q-11 -66 -95 -100q95 -32 80 -127q-6 -41 -50 -74.5t-144 -33.5zM236 184l-8 -54h39q39 0 42 28q5 26 -25 26h-48zM262 348l-9 -54h34q41 0 45 28q2 10 -4.5 18t-22.5 8h-43z" />
    <glyph glyph-name="uni0433" unicode="&#x433;" horiz-adv-x="438" 
d="M229 0h-242l76 480h392l-30 -190h-150z" />
    <glyph glyph-name="uni0434" unicode="&#x434;" horiz-adv-x="683" 
d="M163 -121h-215l44 286h62q92 134 111 315h460l-51 -315h75l-44 -286h-215l19 121h-227zM340 313q-19 -96 -61 -148h85l26 148h-50z" />
    <glyph glyph-name="uni0435" unicode="&#x435;" horiz-adv-x="546" 
d="M11 261q9 61 40 108t73 74t87 40.5t88 13.5q63 0 110 -19t72.5 -50.5t37 -71.5t8 -81t-18.5 -81h-284q14 -50 118 -50q78 0 148 20l-25 -160q-72 -21 -171 -21q-55 0 -106.5 14.5t-97 44.5t-68 87t-11.5 132zM338 288q7 26 -4 42t-35 16q-29 0 -46.5 -18.5t-20.5 -39.5
h106z" />
    <glyph glyph-name="uni0436" unicode="&#x436;" horiz-adv-x="899" 
d="M205 0h-254l156 258l-60 222h236l34 -148h27l23 148h230l-23 -148h28l78 148h249l-152 -257l63 -223h-236l-33 142h-28l-22 -142h-230l22 142h-29z" />
    <glyph glyph-name="uni0437" unicode="&#x437;" horiz-adv-x="511" 
d="M468 117q-5 -28 -18 -49.5t-42 -42t-84.5 -31.5t-133.5 -11q-124 0 -212 40l23 147q66 -32 156 -32q65 0 69 25q2 9 -4 14t-20 5h-113l19 120h89q41 0 43 19q3 20 -42 20q-87 0 -163 -33l25 159q81 30 222 30q122 0 171.5 -48t39.5 -108q-11 -74 -94 -100
q40 -14 58 -47.5t11 -76.5z" />
    <glyph glyph-name="uni0438" unicode="&#x438;" horiz-adv-x="613" 
d="M166 0h-179l76 480h220l-25 -159l174 159h179l-76 -480h-220l25 159z" />
    <glyph glyph-name="uni0439" unicode="&#x439;" horiz-adv-x="613" 
d="M528 568q-70 -45 -172 -45q-41 0 -90.5 11.5t-83.5 33.5l23 146q68 -39 160 -39q105 0 186 39zM166 0h-179l76 480h220l-25 -159l174 159h179l-76 -480h-220l25 159z" />
    <glyph glyph-name="uni043A" unicode="&#x43a;" horiz-adv-x="624" 
d="M229 0h-242l76 480h242l-23 -143h27l93 143h264l-186 -255l98 -225h-250l-48 147h-28z" />
    <glyph glyph-name="uni043B" unicode="&#x43b;" horiz-adv-x="638" 
d="M329 290q-36 -161 -96.5 -233t-153.5 -72q-67 0 -118 24l30 189q18 -7 42 -7q35 0 53.5 58t45.5 209l1.5 7.5t1 7t1.5 7.5h500l-76 -480h-242l46 290h-35z" />
    <glyph glyph-name="uni043C" unicode="&#x43c;" horiz-adv-x="681" 
d="M197 0h-210l76 480h180l92 -192l156 192h188l-76 -480h-210l29 172l-77 -95h-72l-47 98z" />
    <glyph glyph-name="uni043D" unicode="&#x43d;" horiz-adv-x="606" 
d="M229 0h-242l76 480h242l-24 -150h57l24 150h242l-76 -480h-242l24 150h-57z" />
    <glyph glyph-name="uni043E" unicode="&#x43e;" horiz-adv-x="594" 
d="M568 224q-20 -121 -102.5 -181t-207.5 -60q-57 0 -106 17.5t-85 50t-52 86t-5 119.5q19 121 101 181t207 60q57 0 106.5 -17.5t85.5 -50t52.5 -86t5.5 -119.5zM235 232q-4 -52 41 -52q26 0 43 18t20 50q4 52 -42 52q-25 0 -42 -18t-20 -50z" />
    <glyph glyph-name="uni043F" unicode="&#x43f;" horiz-adv-x="600" 
d="M229 0h-242l76 480h535l-76 -480h-242l46 290h-51z" />
    <glyph glyph-name="uni0440" unicode="&#x440;" horiz-adv-x="626" 
d="M268 429q70 68 151 68q103 0 150.5 -79t29.5 -194q-17 -107 -75.5 -174t-159.5 -67q-76 0 -130 50l-40 -253h-242l111 700h213zM353 241q4 26 -5 45t-33 19q-21 0 -40 -16l-16 -101q10 -13 31 -13q23 0 40.5 19t22.5 47z" />
    <glyph glyph-name="uni0441" unicode="&#x441;" horiz-adv-x="484" 
d="M7 240q10 86 61 146t118 85.5t142 25.5q82 0 153 -29l-29 -185q-39 18 -86 18q-101 0 -111 -62q-4 -29 18.5 -43.5t62.5 -14.5q56 0 108 21l-31 -197q-79 -22 -143 -22q-130 0 -204 68t-59 189z" />
    <glyph glyph-name="uni0442" unicode="&#x442;" horiz-adv-x="490" 
d="M320 0h-242l46 290h-111l30 190h464l-30 -190h-111z" />
    <glyph glyph-name="uni0443" unicode="&#x443;" horiz-adv-x="626" 
d="M313 238l90 242h252l-248 -499q-109 -217 -308 -217q-71 0 -128 21l30 190q30 -10 64 -10q60 0 98 47l-139 468h239z" />
    <glyph glyph-name="uni0444" unicode="&#x444;" horiz-adv-x="827" 
d="M443 -220h-222l32 203q-120 7 -191.5 81.5t-52.5 191.5q17 107 105 169.5t220 69.5l33 205h222l-33 -203q122 -7 193 -81t53 -192q-18 -109 -103.5 -171.5t-223.5 -69.5zM234 237q-4 -26 9.5 -46.5t43.5 -25.5l23 144q-67 -10 -76 -72zM522 313l-22 -142q35 6 53 21
t24 50q4 26 -10 46t-45 25z" />
    <glyph glyph-name="uni0445" unicode="&#x445;" horiz-adv-x="585" 
d="M194 0h-253l194 239l-109 241h236l40 -107l70 107h252l-189 -241l114 -239h-253l-29 99z" />
    <glyph glyph-name="uni0446" unicode="&#x446;" horiz-adv-x="654" 
d="M568 -121h-205l19 121h-395l76 480h242l-46 -290h51l46 290h242l-46 -290h65z" />
    <glyph glyph-name="uni0447" unicode="&#x447;" horiz-adv-x="586" 
d="M508 0h-242l19 121q-43 -13 -98 -13q-74 0 -128 47.5t-40 135.5l30 189h242l-26 -166q-4 -19 19 -19q17 0 30 8l28 177h242z" />
    <glyph glyph-name="uni0448" unicode="&#x448;" horiz-adv-x="891" 
d="M813 0h-826l76 480h242l-46 -290h50l46 290h242l-46 -290h50l46 290h242z" />
    <glyph glyph-name="uni0449" unicode="&#x449;" horiz-adv-x="945" 
d="M859 -121h-205l19 121h-686l76 480h242l-46 -290h50l46 290h242l-46 -290h50l46 290h242l-46 -290h65z" />
    <glyph glyph-name="uni044A" unicode="&#x44a;" horiz-adv-x="677" 
d="M418 0h-342l48 302h-111l28 178h353l-17 -110h88q96 0 146 -57t36 -143q-12 -76 -70 -123t-159 -47zM355 232l-13 -84h30q42 0 49 46q2 14 -4.5 26t-21.5 12h-40z" />
    <glyph glyph-name="uni044B" unicode="&#x44b;" horiz-adv-x="889" 
d="M329 0h-342l76 480h242l-17 -110h88q96 0 146 -57t36 -143q-12 -76 -70 -123t-159 -47zM266 232l-13 -84h30q42 0 49 46q2 14 -4.5 26t-21.5 12h-40zM811 0h-242l76 480h242z" />
    <glyph glyph-name="uni044C" unicode="&#x44c;" horiz-adv-x="588" 
d="M329 0h-342l76 480h242l-17 -110h88q96 0 146 -57t36 -143q-12 -76 -70 -123t-159 -47zM266 232l-13 -84h30q42 0 49 46q2 14 -4.5 26t-21.5 12h-40z" />
    <glyph glyph-name="uni044D" unicode="&#x44d;" horiz-adv-x="503" 
d="M476 212q-12 -78 -60.5 -131.5t-109 -75.5t-128.5 -22q-109 0 -196 45l24 152q65 -35 139 -35q75 0 117 36h-167l20 118h166q-8 15 -34.5 26t-58.5 11q-91 0 -158 -38l26 163q84 36 167 36q56 0 105 -17t87 -50t55 -89.5t6 -128.5z" />
    <glyph glyph-name="uni044E" unicode="&#x44e;" horiz-adv-x="862" 
d="M836 224q-20 -121 -102.5 -181t-207.5 -60q-87 0 -153 43t-84 124h-38l-24 -150h-240l76 480h240l-24 -150h28q33 84 106.5 125.5t171.5 41.5q131 0 200.5 -75.5t50.5 -197.5zM503 232q-4 -52 41 -52q26 0 43 18t20 50q4 52 -42 52q-25 0 -42 -18t-20 -50z" />
    <glyph glyph-name="uni044F" unicode="&#x44f;" horiz-adv-x="591" 
d="M205 0h-248l128 161q-75 50 -57 154q10 66 65.5 115.5t152.5 49.5h343l-76 -480h-220l19 118h-15zM252 290q-2 -14 5.5 -24.5t26.5 -10.5h50l11 70h-42q-45 0 -51 -35z" />
    <glyph glyph-name="uni0451" unicode="&#x451;" horiz-adv-x="546" 
d="M545 616q-4 -49 -35 -77t-77 -28t-74 28t-24 77t35 77t77 28t74 -28t24 -77zM307 616q-4 -49 -35 -77t-77 -28t-74 28t-24 77t35 77t77 28t74 -28t24 -77zM11 261q9 61 40 108t73 74t87 40.5t88 13.5q63 0 110 -19t72.5 -50.5t37 -71.5t8 -81t-18.5 -81h-284
q14 -50 118 -50q78 0 148 20l-25 -160q-72 -21 -171 -21q-55 0 -106.5 14.5t-97 44.5t-68 87t-11.5 132zM338 288q7 26 -4 42t-35 16q-29 0 -46.5 -18.5t-20.5 -39.5h106z" />
    <glyph glyph-name="Wgrave" unicode="&#x1e80;" horiz-adv-x="1132" 
d="M901 700h297l-320 -700h-289l-25 291l-120 -291h-282l-98 700h276l26 -367l149 367h212l30 -367zM733 745h-196l-103 176h222z" />
    <glyph glyph-name="wgrave" unicode="&#x1e81;" horiz-adv-x="852" 
d="M631 480h248l-223 -480h-225l-22 203l-85 -203h-220l-71 480h234l5 -246l98 246h158l18 -246zM563 525h-196l-103 176h222z" />
    <glyph glyph-name="Wacute" unicode="&#x1e82;" horiz-adv-x="1132" 
d="M901 700h297l-320 -700h-289l-25 291l-120 -291h-282l-98 700h276l26 -367l149 367h212l30 -367zM703 745h-210l133 176h236z" />
    <glyph glyph-name="wacute" unicode="&#x1e83;" horiz-adv-x="852" 
d="M631 480h248l-223 -480h-225l-22 203l-85 -203h-220l-71 480h234l5 -246l98 246h158l18 -246zM533 525h-210l133 176h236z" />
    <glyph glyph-name="Wdieresis" unicode="&#x1e84;" horiz-adv-x="1132" 
d="M901 700h297l-320 -700h-289l-25 291l-120 -291h-282l-98 700h276l26 -367l149 367h212l30 -367zM856 836q-4 -49 -35 -77t-77 -28t-74 28t-24 77t35 77t77 28t74 -28t24 -77zM618 836q-4 -49 -35 -77t-77 -28t-74 28t-24 77t35 77t77 28t74 -28t24 -77z" />
    <glyph glyph-name="wdieresis" unicode="&#x1e85;" horiz-adv-x="852" 
d="M631 480h248l-223 -480h-225l-22 203l-85 -203h-220l-71 480h234l5 -246l98 246h158l18 -246zM686 616q-4 -49 -35 -77t-77 -28t-74 28t-24 77t35 77t77 28t74 -28t24 -77zM448 616q-4 -49 -35 -77t-77 -28t-74 28t-24 77t35 77t77 28t74 -28t24 -77z" />
    <glyph glyph-name="Ygrave" unicode="&#x1ef2;" horiz-adv-x="772" 
d="M470 0h-264l40 239l-188 461h281l61 -246l135 246h310l-335 -461zM559 745h-196l-103 176h222z" />
    <glyph glyph-name="ygrave" unicode="&#x1ef3;" horiz-adv-x="626" 
d="M313 238l90 242h252l-248 -499q-109 -217 -308 -217q-71 0 -128 21l30 190q30 -10 64 -10q60 0 98 47l-139 468h239zM452 525h-196l-103 176h222z" />
    <glyph glyph-name="endash" unicode="&#x2013;" horiz-adv-x="585" 
d="M524 150h-507l28 180h507z" />
    <glyph glyph-name="emdash" unicode="&#x2014;" horiz-adv-x="795" 
d="M734 150h-717l28 180h717z" />
    <glyph glyph-name="quoteleft" unicode="&#x2018;" horiz-adv-x="308" 
d="M242 380h-223l171 320h176z" />
    <glyph glyph-name="quoteright" unicode="&#x2019;" horiz-adv-x="305" 
d="M204 380h-176l124 320h223z" />
    <glyph glyph-name="quotesinglbase" unicode="&#x201a;" horiz-adv-x="294" 
d="M91 -143h-176l124 320h223z" />
    <glyph glyph-name="quotedblleft" unicode="&#x201c;" horiz-adv-x="558" 
d="M492 380h-223l171 320h176zM242 380h-223l171 320h176z" />
    <glyph glyph-name="quotedblright" unicode="&#x201d;" horiz-adv-x="555" 
d="M454 380h-176l124 320h223zM204 380h-176l124 320h223z" />
    <glyph glyph-name="quotedblbase" unicode="&#x201e;" horiz-adv-x="544" 
d="M341 -143h-176l124 320h223zM91 -143h-176l124 320h223z" />
    <glyph glyph-name="dagger" unicode="&#x2020;" horiz-adv-x="587" 
d="M346 -220h-266l74 467h-138l37 233h138l35 220h266l-35 -220h137l-37 -233h-137z" />
    <glyph glyph-name="daggerdbl" unicode="&#x2021;" horiz-adv-x="636" 
d="M371 -220h-266l26 161h-151l35 224h151l15 91h-151l35 224h151l35 220h266l-35 -220h151l-35 -224h-151l-15 -91h151l-35 -224h-151z" />
    <glyph glyph-name="bullet" unicode="&#x2022;" horiz-adv-x="460" 
d="M56 366q13 83 69 122.5t132 39.5q84 0 132 -49.5t33 -144.5q-13 -84 -68 -124t-132 -40q-83 0 -132 50.5t-34 145.5z" />
    <glyph glyph-name="ellipsis" unicode="&#x2026;" horiz-adv-x="932" 
d="M884 91q-9 -54 -46.5 -81t-89.5 -27q-58 0 -92.5 37t-23.5 103q9 54 46 81t88 27q59 0 93.5 -37t24.5 -103zM244 91q-9 -54 -46.5 -81t-89.5 -27q-58 0 -92.5 37t-23.5 103q9 54 46 81t88 27q59 0 93.5 -37t24.5 -103zM564 91q-9 -54 -46.5 -81t-89.5 -27q-58 0 -92.5 37
t-23.5 103q9 54 46 81t88 27q59 0 93.5 -37t24.5 -103z" />
    <glyph glyph-name="perthousand" unicode="&#x2030;" horiz-adv-x="1439" 
d="M307 -60h-144l539 820h144zM478 503q-14 -91 -78 -136.5t-152 -45.5q-93 0 -149 56t-40 158q14 91 77.5 136.5t152.5 45.5q93 0 149 -56t40 -158zM227 519q-7 -46 34 -46q43 0 50 46t-34 46q-43 0 -50 -46zM949 165q-14 -91 -77.5 -136.5t-151.5 -45.5q-95 0 -149.5 55.5
t-38.5 158.5q14 91 77.5 137t151.5 46q95 0 150 -56t38 -159zM698 182q-7 -46 34 -46q43 0 50 46t-34 46q-43 0 -50 -46zM1399 165q-14 -91 -77.5 -136.5t-151.5 -45.5q-95 0 -149.5 55.5t-38.5 158.5q14 91 77.5 137t151.5 46q95 0 150 -56t38 -159zM1148 182
q-7 -46 34 -46q43 0 50 46t-34 46q-43 0 -50 -46z" />
    <glyph glyph-name="guilsinglleft" unicode="&#x2039;" horiz-adv-x="422" 
d="M360 26h-238l-108 193l7 48l165 187h246l-186 -214z" />
    <glyph glyph-name="guilsinglright" unicode="&#x203a;" horiz-adv-x="421" 
d="M221 26h-247l187 214l-115 214h239l107 -193l-8 -48z" />
    <glyph glyph-name="fraction" unicode="&#x2044;" horiz-adv-x="200" 
d="M-147 -17h-72l582 734h72z" />
    <glyph glyph-name="Euro" unicode="&#x20ac;" horiz-adv-x="714" 
d="M728 655l-34 -211q-54 33 -144 33q-87 0 -135 -42h171l-13 -80h-204q-5 -15 -5 -30h205l-13 -80h-168q34 -38 101 -38q100 0 174 39l-36 -227q-86 -36 -195 -36q-136 0 -231 67t-109 195h-76l13 80h63q0 12 4 30h-63l13 80h70q24 69 68 121t99 82t113.5 44.5t119.5 14.5
q117 0 212 -42z" />
    <glyph glyph-name="trademark" unicode="&#x2122;" horiz-adv-x="731" 
d="M448 435h-127l42 265h128l45 -109l79 109h138l-42 -265h-127l18 112l-45 -62h-62l-28 68zM241 435h-131l24 149h-61l18 116h254l-18 -116h-62z" />
    <glyph glyph-name="oneeighth" unicode="&#x215b;" horiz-adv-x="943" 
d="M567 308q7 45 51.5 77.5t126.5 32.5t126 -41.5t35 -91.5q-5 -26 -19 -41t-43 -31q61 -35 48 -113q-7 -48 -56 -79t-139 -31q-95 0 -139 39.5t-35 95.5q9 57 71 90q-37 34 -27 93zM718 144q-4 1 -12.5 4t-12.5 5q-15 -8 -17 -24q-2 -11 7 -18.5t24 -7.5q31 0 34 18
q2 14 -23 23zM765 281q1 10 -6.5 17t-22.5 7q-27 0 -31 -20q-3 -16 21 -23q3 -1 12 -3t13 -3q12 12 14 25zM222 -17h-72l582 734h72zM198 680h118l-45 -279h62l-20 -129h-283l20 129h68l21 132l-65 -24l21 133z" />
    <glyph glyph-name="threeeighths" unicode="&#x215c;" horiz-adv-x="962" 
d="M586 308q7 45 51.5 77.5t126.5 32.5t126 -41.5t35 -91.5q-5 -26 -19 -41t-43 -31q61 -35 48 -113q-7 -48 -56 -79t-139 -31q-95 0 -139 39.5t-35 95.5q9 57 71 90q-37 34 -27 93zM737 144q-4 1 -12.5 4t-12.5 5q-15 -8 -17 -24q-2 -11 7 -18.5t24 -7.5q31 0 34 18
q2 14 -23 23zM784 281q1 10 -6.5 17t-22.5 7q-27 0 -31 -20q-3 -16 21 -23q3 -1 12 -3t13 -3q12 12 14 25zM241 -17h-72l582 734h72zM386 561q-10 -57 -78 -75q32 -8 52.5 -36.5t13.5 -72.5q-18 -108 -182 -108q-102 0 -160 30l20 125q62 -28 125 -28q49 0 52 19q1 6 -3 10
t-12 4h-79l18 111h55q26 0 28 13q3 15 -25 15q-70 0 -134 -32l20 129q67 32 139 32q66 0 113 -35t37 -101z" />
    <glyph glyph-name="fiveeighths" unicode="&#x215d;" horiz-adv-x="955" 
d="M579 308q7 45 51.5 77.5t126.5 32.5t126 -41.5t35 -91.5q-5 -26 -19 -41t-43 -31q61 -35 48 -113q-7 -48 -56 -79t-139 -31q-95 0 -139 39.5t-35 95.5q9 57 71 90q-37 34 -27 93zM730 144q-4 1 -12.5 4t-12.5 5q-15 -8 -17 -24q-2 -11 7 -18.5t24 -7.5q31 0 34 18
q2 14 -23 23zM777 281q1 10 -6.5 17t-22.5 7q-27 0 -31 -20q-3 -16 21 -23q3 -1 12 -3t13 -3q12 12 14 25zM234 -17h-72l582 734h72zM118 680h286l-21 -129h-154l-5 -25q9 1 25 1q33 0 63 -12.5t50 -46.5t12 -83q-20 -125 -201 -125q-84 0 -146 31l18 113q44 -20 104 -20
q68 0 73 30q4 30 -62 30q-40 0 -90 -11z" />
    <glyph glyph-name="seveneighths" unicode="&#x215e;" horiz-adv-x="902" 
d="M175 -17h-72l582 734h72zM525 308q7 45 51.5 77.5t126.5 32.5t126 -41.5t35 -91.5q-5 -26 -19 -41t-43 -31q61 -35 48 -113q-7 -48 -56 -79t-139 -31q-95 0 -139 39.5t-35 95.5q9 57 71 90q-37 34 -27 93zM676 144q-4 1 -12.5 4t-12.5 5q-15 -8 -17 -24q-2 -11 7 -18.5
t24 -7.5q31 0 34 18q2 14 -23 23zM723 281q1 10 -6.5 17t-22.5 7q-27 0 -31 -20q-3 -16 21 -23q3 -1 12 -3t13 -3q12 12 14 25zM224 270h-177l166 280h-146l21 130h336l-16 -100z" />
    <glyph glyph-name="partialdiff" unicode="&#x2202;" horiz-adv-x="573" 
d="M553 287q-50 -304 -323 -304q-112 0 -175.5 71t-46.5 181q17 104 78 155t137 51q69 0 127 -39q3 29 -12 50q-22 35 -78 48t-122 6l22 211q222 7 323.5 -113.5t69.5 -316.5zM230 219q-4 -22 6 -35t31 -13q45 0 53 48q4 22 -6 35t-31 13q-45 0 -53 -48z" />
    <glyph glyph-name="emptyset" unicode="&#x2205;" horiz-adv-x="788" 
d="M768 334q-24 -149 -140.5 -250t-271.5 -101q-115 0 -198 63l-47 -46h-125l110 109q-80 107 -57 257q24 149 140.5 250t271.5 101q115 0 199 -64l47 47h125l-111 -109q81 -110 57 -257zM156 350q-12 -86 31 -153l372 368q-52 33 -120 33q-104 0 -186.5 -72.5t-96.5 -175.5
zM249 135q52 -33 120 -33q104 0 186.5 72.5t96.5 175.5q12 86 -31 153z" />
    <glyph glyph-name="product" unicode="&#x220f;" horiz-adv-x="839" 
d="M286 -220h-265l110 690h-77l36 230h788l-36 -230h-77l-110 -690h-266l110 690h-103z" />
    <glyph glyph-name="summation" unicode="&#x2211;" horiz-adv-x="598" 
d="M518 0h-536l22 142l228 218l-161 208l22 132h525l-36 -230h-192l75 -97l-8 -52l-96 -91h194z" />
    <glyph glyph-name="minus" unicode="&#x2212;" horiz-adv-x="517" 
d="M469 256h-433l30 190h433z" />
    <glyph glyph-name="radical" unicode="&#x221a;" horiz-adv-x="827" 
d="M420 0h-212l-84 247h-117l37 233h258l50 -192l302 492h271z" />
    <glyph glyph-name="infinity" unicode="&#x221e;" horiz-adv-x="900" 
d="M473 493q105 97 213 97q94 0 153 -68.5t41 -179.5q-16 -101 -85 -158.5t-161 -57.5q-107 0 -186 97q-102 -97 -212 -97q-94 0 -153 68.5t-42 179.5q16 101 85.5 158.5t161.5 57.5q110 0 185 -97zM359 365q-23 37 -58 33q-16 -2 -30 -14t-18 -31q-4 -18 7 -28t27 -8
q35 4 72 48zM669 362q3 18 -7.5 28t-25.5 8q-34 -4 -73 -48q23 -37 59 -33q15 2 29.5 14t17.5 31z" />
    <glyph glyph-name="integral" unicode="&#x222b;" horiz-adv-x="518" 
d="M184 579q19 116 91.5 167t168.5 51q84 0 147 -26l-31 -195q-29 12 -62 12q-32 0 -54.5 -19.5t-27.5 -52.5l-85 -535q-34 -218 -262 -218q-86 0 -146 21l32 201q28 -10 51 -10q36 0 61.5 17.5t31.5 51.5z" />
    <glyph glyph-name="approxequal" unicode="&#x2248;" horiz-adv-x="624" 
d="M623 593q5 -111 -42 -167t-123 -56q-44 0 -112.5 22.5t-78.5 22.5q-15 0 -20.5 -8t-6.5 -30h-181q-5 111 42 167t123 56q44 0 112.5 -22.5t78.5 -22.5q15 0 20.5 8t6.5 30h181zM588 344q5 -111 -42 -167t-123 -56q-44 0 -112.5 22.5t-78.5 22.5q-15 0 -20.5 -8t-6.5 -30
h-181q-5 111 42 167t123 56q44 0 112.5 -22.5t78.5 -22.5q15 0 20.5 8t6.5 30h181z" />
    <glyph glyph-name="notequal" unicode="&#x2260;" 
d="M175 41h-124l67 99h-89l29 180h182l41 60h-214l29 180h307l68 99h124l-68 -99h89l-29 -180h-182l-41 -60h214l-29 -180h-307z" />
    <glyph glyph-name="lessequal" unicode="&#x2264;" horiz-adv-x="522" 
d="M493 393l-33 -204l-418 120l39 242l455 116l-33 -208l-260 -33zM430 0h-437l29 180h437z" />
    <glyph glyph-name="greaterequal" unicode="&#x2265;" horiz-adv-x="521" 
d="M487 311l-455 -114l33 208l250 32l-239 38l31 199l418 -121zM437 0h-437l29 180h437z" />
    <glyph glyph-name="lozenge" unicode="&#x25ca;" horiz-adv-x="639" 
d="M411 0h-272l-108 350l215 350h272l109 -350zM256 335l44 -141l104 169l-44 141z" />
    <glyph glyph-name="i.loclTRK" horiz-adv-x="307" 
d="M229 0h-242l76 480h242zM319 618q-15 -95 -119 -95q-53 0 -84.5 33t-21.5 94q8 49 40.5 71.5t78.5 22.5q54 0 84.5 -32.5t21.5 -93.5z" />
    <glyph glyph-name="a.ss01" horiz-adv-x="581" 
d="M519 160q-4 -20 20 -20q13 0 20 3l-22 -141q-47 -18 -113 -18q-88 0 -122 52q-64 -53 -163 -53q-71 0 -115.5 40.5t-34.5 110.5q10 74 73.5 108.5t148.5 34.5q65 0 103 -8l2 13q4 27 -19.5 36t-74.5 9q-73 0 -173 -36l28 178q99 28 188 28q72 0 123 -11.5t89.5 -38.5
t52.5 -76.5t3 -121.5zM273 181q-53 0 -60 -35q-2 -12 6 -22t25 -10q30 0 49 21l7 43q-12 3 -27 3z" />
    <glyph glyph-name="aacute.ss01" horiz-adv-x="581" 
d="M519 160q-4 -20 20 -20q13 0 20 3l-22 -141q-47 -18 -113 -18q-88 0 -122 52q-64 -53 -163 -53q-71 0 -115.5 40.5t-34.5 110.5q10 74 73.5 108.5t148.5 34.5q65 0 103 -8l2 13q4 27 -19.5 36t-74.5 9q-73 0 -173 -36l28 178q99 28 188 28q72 0 123 -11.5t89.5 -38.5
t52.5 -76.5t3 -121.5zM273 181q-53 0 -60 -35q-2 -12 6 -22t25 -10q30 0 49 21l7 43q-12 3 -27 3zM388 525h-210l133 176h236z" />
    <glyph glyph-name="abreve.ss01" horiz-adv-x="581" 
d="M519 160q-4 -20 20 -20q13 0 20 3l-22 -141q-47 -18 -113 -18q-88 0 -122 52q-64 -53 -163 -53q-71 0 -115.5 40.5t-34.5 110.5q10 74 73.5 108.5t148.5 34.5q65 0 103 -8l2 13q4 27 -19.5 36t-74.5 9q-73 0 -173 -36l28 178q99 28 188 28q72 0 123 -11.5t89.5 -38.5
t52.5 -76.5t3 -121.5zM273 181q-53 0 -60 -35q-2 -12 6 -22t25 -10q30 0 49 21l7 43q-12 3 -27 3zM509 578q-86 -55 -192 -55q-119 0 -194 55l25 156q73 -49 180 -49q118 0 206 49z" />
    <glyph glyph-name="acircumflex.ss01" horiz-adv-x="581" 
d="M519 160q-4 -20 20 -20q13 0 20 3l-22 -141q-47 -18 -113 -18q-88 0 -122 52q-64 -53 -163 -53q-71 0 -115.5 40.5t-34.5 110.5q10 74 73.5 108.5t148.5 34.5q65 0 103 -8l2 13q4 27 -19.5 36t-74.5 9q-73 0 -173 -36l28 178q99 28 188 28q72 0 123 -11.5t89.5 -38.5
t52.5 -76.5t3 -121.5zM273 181q-53 0 -60 -35q-2 -12 6 -22t25 -10q30 0 49 21l7 43q-12 3 -27 3zM224 705h212l105 -180h-182l-38 64l-60 -64h-200z" />
    <glyph glyph-name="adieresis.ss01" horiz-adv-x="581" 
d="M519 160q-4 -20 20 -20q13 0 20 3l-22 -141q-47 -18 -113 -18q-88 0 -122 52q-64 -53 -163 -53q-71 0 -115.5 40.5t-34.5 110.5q10 74 73.5 108.5t148.5 34.5q65 0 103 -8l2 13q4 27 -19.5 36t-74.5 9q-73 0 -173 -36l28 178q99 28 188 28q72 0 123 -11.5t89.5 -38.5
t52.5 -76.5t3 -121.5zM273 181q-53 0 -60 -35q-2 -12 6 -22t25 -10q30 0 49 21l7 43q-12 3 -27 3zM541 616q-4 -49 -35 -77t-77 -28t-74 28t-24 77t35 77t77 28t74 -28t24 -77zM303 616q-4 -49 -35 -77t-77 -28t-74 28t-24 77t35 77t77 28t74 -28t24 -77z" />
    <glyph glyph-name="agrave.ss01" horiz-adv-x="581" 
d="M519 160q-4 -20 20 -20q13 0 20 3l-22 -141q-47 -18 -113 -18q-88 0 -122 52q-64 -53 -163 -53q-71 0 -115.5 40.5t-34.5 110.5q10 74 73.5 108.5t148.5 34.5q65 0 103 -8l2 13q4 27 -19.5 36t-74.5 9q-73 0 -173 -36l28 178q99 28 188 28q72 0 123 -11.5t89.5 -38.5
t52.5 -76.5t3 -121.5zM273 181q-53 0 -60 -35q-2 -12 6 -22t25 -10q30 0 49 21l7 43q-12 3 -27 3zM418 525h-196l-103 176h222z" />
    <glyph glyph-name="amacron.ss01" horiz-adv-x="581" 
d="M519 160q-4 -20 20 -20q13 0 20 3l-22 -141q-47 -18 -113 -18q-88 0 -122 52q-64 -53 -163 -53q-71 0 -115.5 40.5t-34.5 110.5q10 74 73.5 108.5t148.5 34.5q65 0 103 -8l2 13q4 27 -19.5 36t-74.5 9q-73 0 -173 -36l28 178q99 28 188 28q72 0 123 -11.5t89.5 -38.5
t52.5 -76.5t3 -121.5zM273 181q-53 0 -60 -35q-2 -12 6 -22t25 -10q30 0 49 21l7 43q-12 3 -27 3zM142 685h380l-25 -157h-380z" />
    <glyph glyph-name="aogonek.ss01" horiz-adv-x="582" 
d="M519 160q-4 -20 20 -20q13 0 20 3l-22 -141q-52 -46 -52 -76q0 -17 17 -17q9 0 19 4l-22 -137q-36 -11 -81 -11q-57 0 -95 22.5t-38 69.5q0 72 83 134q-46 13 -66 45q-64 -53 -163 -53q-71 0 -115.5 40.5t-34.5 110.5q10 74 73.5 108.5t148.5 34.5q65 0 103 -8l2 13
q4 27 -19.5 36t-74.5 9q-73 0 -173 -36l28 178q99 28 188 28q72 0 123 -11.5t89.5 -38.5t52.5 -76.5t3 -121.5zM244 114q30 0 49 21l7 43q-12 3 -27 3q-53 0 -60 -35q-2 -12 6 -22t25 -10z" />
    <glyph glyph-name="aring.ss01" horiz-adv-x="581" 
d="M519 160q-4 -20 20 -20q13 0 20 3l-22 -141q-47 -18 -113 -18q-88 0 -122 52q-64 -53 -163 -53q-71 0 -115.5 40.5t-34.5 110.5q10 74 73.5 108.5t148.5 34.5q65 0 103 -8l2 13q4 27 -19.5 36t-74.5 9q-73 0 -173 -36l28 178q99 28 188 28q72 0 123 -11.5t89.5 -38.5
t52.5 -76.5t3 -121.5zM273 181q-53 0 -60 -35q-2 -12 6 -22t25 -10q30 0 49 21l7 43q-12 3 -27 3zM476 631q-9 -59 -53 -89.5t-106 -30.5q-65 0 -106 41t-30 111q9 56 53.5 87t103.5 31q66 0 107.5 -41t30.5 -109zM296 646q-2 -14 5 -23.5t23 -9.5q32 0 38 33t-28 33
q-32 0 -38 -33z" />
    <glyph glyph-name="atilde.ss01" horiz-adv-x="581" 
d="M519 160q-4 -20 20 -20q13 0 20 3l-22 -141q-47 -18 -113 -18q-88 0 -122 52q-64 -53 -163 -53q-71 0 -115.5 40.5t-34.5 110.5q10 74 73.5 108.5t148.5 34.5q65 0 103 -8l2 13q4 27 -19.5 36t-74.5 9q-73 0 -173 -36l28 178q99 28 188 28q72 0 123 -11.5t89.5 -38.5
t52.5 -76.5t3 -121.5zM273 181q-53 0 -60 -35q-2 -12 6 -22t25 -10q30 0 49 21l7 43q-12 3 -27 3zM548 709q11 -84 -28.5 -140t-108.5 -56q-38 0 -85 19.5t-63 19.5q-12 0 -19.5 -8.5t-4.5 -24.5h-149q-11 84 28.5 140t108.5 56q38 0 85 -19.5t63 -19.5q12 0 19.5 8.5
t4.5 24.5h149z" />
    <glyph glyph-name="ae.ss01" horiz-adv-x="824" 
d="M358 54q-90 -71 -213 -71q-72 0 -118.5 39.5t-36.5 111.5q7 50 42.5 84t79 46.5t92.5 12.5q65 0 103 -8l2 13q4 27 -18.5 36t-65.5 9q-77 0 -183 -36l28 178q99 28 198 28q110 0 157 -48q71 48 152 48q63 0 110 -19t72.5 -50.5t37 -71.5t8 -81t-18.5 -81h-284
q14 -50 118 -50q78 0 148 20l-25 -160q-72 -21 -171 -21q-143 0 -214 71zM215 147q-2 -15 7.5 -24t25.5 -9q34 0 64 27q-6 15 -6 37q-15 3 -34 3q-52 0 -57 -34zM577 346q-29 0 -46.5 -18.5t-20.5 -39.5h106q7 26 -4 42t-35 16z" />
    <glyph glyph-name="y.ss01" horiz-adv-x="595" 
d="M522 31q-22 -137 -112.5 -202.5t-208.5 -65.5q-128 0 -218 27l20 197q48 -28 146 -28q50 0 87.5 16.5t41.5 43.5l2 12q-50 -28 -107 -28q-85 0 -129 55t-32 133l46 289h242l-43 -272q-5 -25 18 -25q17 0 31 12l45 285h242z" />
    <glyph glyph-name="yacute.ss01" horiz-adv-x="595" 
d="M522 31q-22 -137 -112.5 -202.5t-208.5 -65.5q-128 0 -218 27l20 197q48 -28 146 -28q50 0 87.5 16.5t41.5 43.5l2 12q-50 -28 -107 -28q-85 0 -129 55t-32 133l46 289h242l-43 -272q-5 -25 18 -25q17 0 31 12l45 285h242zM410 525h-210l133 176h236z" />
    <glyph glyph-name="ycircumflex.ss01" horiz-adv-x="595" 
d="M522 31q-22 -137 -112.5 -202.5t-208.5 -65.5q-128 0 -218 27l20 197q48 -28 146 -28q50 0 87.5 16.5t41.5 43.5l2 12q-50 -28 -107 -28q-85 0 -129 55t-32 133l46 289h242l-43 -272q-5 -25 18 -25q17 0 31 12l45 285h242zM246 705h212l105 -180h-182l-38 64l-60 -64
h-200z" />
    <glyph glyph-name="ydieresis.ss01" horiz-adv-x="595" 
d="M522 31q-22 -137 -112.5 -202.5t-208.5 -65.5q-128 0 -218 27l20 197q48 -28 146 -28q50 0 87.5 16.5t41.5 43.5l2 12q-50 -28 -107 -28q-85 0 -129 55t-32 133l46 289h242l-43 -272q-5 -25 18 -25q17 0 31 12l45 285h242zM563 616q-4 -49 -35 -77t-77 -28t-74 28t-24 77
t35 77t77 28t74 -28t24 -77zM325 616q-4 -49 -35 -77t-77 -28t-74 28t-24 77t35 77t77 28t74 -28t24 -77z" />
    <glyph glyph-name="ygrave.ss01" horiz-adv-x="595" 
d="M522 31q-22 -137 -112.5 -202.5t-208.5 -65.5q-128 0 -218 27l20 197q48 -28 146 -28q50 0 87.5 16.5t41.5 43.5l2 12q-50 -28 -107 -28q-85 0 -129 55t-32 133l46 289h242l-43 -272q-5 -25 18 -25q17 0 31 12l45 285h242zM440 525h-196l-103 176h222z" />
    <glyph glyph-name="f_b" horiz-adv-x="1033" 
d="M708 454q57 43 122 43q101 0 147.5 -79.5t28.5 -193.5q-17 -104 -77 -172.5t-155 -68.5q-100 0 -157 79l-10 -62h-213l85 536q-21 6 -43 4q-32 0 -56 -16t-28 -43v-1h67l-30 -190h-67l-46 -290h-242l46 290h-60l30 190h60l7 44q16 104 93.5 158t184.5 54q74 0 151 -23
l206 17zM697 175q23 0 40.5 19t22.5 47q4 26 -5 45t-33 19q-21 0 -40 -16l-16 -101q10 -13 31 -13z" />
    <glyph glyph-name="f_f_b" horiz-adv-x="1393" 
d="M1068 454q57 43 122 43q101 0 147.5 -79.5t28.5 -193.5q-17 -104 -77 -172.5t-155 -68.5q-100 0 -157 79l-10 -62h-213l85 536q-21 6 -43 4q-32 0 -56 -16t-28 -43v-1h67l-30 -190h-67l-46 -290h-242l46 290h-118l-46 -290h-242l46 290h-60l30 190h60l6 37
q15 91 88.5 142.5t175.5 51.5q100 0 176 -41q76 66 199 66q74 0 151 -23l206 17zM470 480l3 19l4 25q-20 9 -54 9q-31 0 -49 -13.5t-21 -33.5l-1 -6h118zM1057 175q23 0 40.5 19t22.5 47q4 26 -5 45t-33 19q-21 0 -40 -16l-16 -101q10 -13 31 -13z" />
    <glyph glyph-name="f_f_h" horiz-adv-x="1363" 
d="M1070 464q61 33 117 33q88 0 125.5 -56.5t26.5 -128.5l-50 -312h-242l44 277q3 18 -18 18q-15 0 -32 -11l-45 -284h-242l85 536q-21 6 -43 4q-32 0 -56 -16t-28 -43v-1h67l-30 -190h-67l-46 -290h-242l46 290h-118l-46 -290h-242l46 290h-60l30 190h60l6 37
q15 91 88.5 142.5t175.5 51.5q100 0 176 -41q76 66 199 66q74 0 151 -23l206 17zM470 480l4 25l3 19q-20 9 -54 9q-31 0 -49 -13.5t-21 -33.5l-1 -6h118z" />
    <glyph glyph-name="f_f_j" horiz-adv-x="1058" 
d="M971 -57q-14 -91 -77.5 -135.5t-146.5 -44.5q-72 0 -119 26l31 195q12 -6 27 -6q48 0 57 53l41 259h-102l-46 -290h-242l46 290h-118l-46 -290h-242l46 290h-60l30 190h60l6 37q15 91 88.5 142.5t175.5 51.5t177 -42q81 67 216 67q117 0 210 -38l-29 -179q-77 24 -138 24
q-94 0 -103 -60l-1 -3h344zM353 486l-1 -6h118l3 19q0 3 1.5 12.5t2.5 12.5q-20 9 -54 9q-31 0 -49 -13.5t-21 -33.5z" />
    <glyph glyph-name="f_f_k" horiz-adv-x="1390" 
d="M1168 480h264l-186 -255l98 -225h-250l-48 147h-28l-23 -147h-242l85 536q-21 6 -42 4q-32 0 -56 -16t-28 -43v-1h67l-30 -190h-67l-46 -290h-242l46 290h-118l-46 -290h-242l46 290h-60l30 190h60l6 37q15 91 88.5 142.5t175.5 51.5q100 0 176 -41q76 66 199 66
q77 0 151 -23l205 17l-62 -393h26zM470 480l3 19l4 25q-20 9 -54 9q-31 0 -49 -13.5t-21 -33.5l-1 -6h118z" />
    <glyph glyph-name="f_h" horiz-adv-x="1003" 
d="M710 464q61 33 117 33q88 0 125.5 -56.5t26.5 -128.5l-50 -312h-242l44 277q3 18 -18 18q-15 0 -32 -11l-45 -284h-242l85 536q-21 6 -43 4q-32 0 -56 -16t-28 -43v-1h67l-30 -190h-67l-46 -290h-242l46 290h-60l30 190h60l7 44q16 104 93.5 158t184.5 54q74 0 151 -23
l206 17z" />
    <glyph glyph-name="f_i" horiz-adv-x="698" 
d="M276 0h-242l46 290h-60l30 190h60l7 44q18 108 100.5 160t195.5 52q117 0 210 -38l-29 -179q-77 24 -138 24q-94 0 -103 -60l-1 -3h344l-76 -480h-242l46 290h-102z" />
    <glyph glyph-name="f_j" horiz-adv-x="698" 
d="M611 -57q-14 -91 -77.5 -135.5t-146.5 -44.5q-72 0 -119 26l31 195q12 -6 27 -6q48 0 57 53l41 259h-102l-46 -290h-242l46 290h-60l30 190h60l7 44q18 108 100.5 160t195.5 52q117 0 210 -38l-29 -179q-77 24 -138 24q-94 0 -103 -60l-1 -3h344z" />
    <glyph glyph-name="f_k" horiz-adv-x="1031" 
d="M809 480h264l-186 -255l98 -225h-250l-48 147h-28l-23 -147h-242l85 536q-21 6 -43 4q-32 0 -56 -16t-28 -43v-1h67l-30 -190h-67l-46 -290h-242l46 290h-60l30 190h60l7 44q16 104 93.5 158t184.5 54q74 0 151 -23l206 17l-62 -393h26z" />
    <glyph glyph-name="f_l" horiz-adv-x="714" 
d="M395 736q74 0 151 -23l206 17l-116 -730h-242l85 536q-21 6 -43 4q-32 0 -56 -16t-28 -43v-1h67l-30 -190h-67l-46 -290h-242l46 290h-60l30 190h60l7 44q16 104 93.5 158t184.5 54z" />
    <glyph glyph-name="uni0414.loclBGR" horiz-adv-x="898" 
d="M197 -129h-240l55 349h85l272 480h286l120 -480h89l-55 -349h-240l20 129h-372zM484 428l-110 -208h152z" />
    <glyph glyph-name="uni041B.loclBGR" horiz-adv-x="762" 
d="M-53 0l363 700h272l140 -700h-272l-43 389l-172 -389h-288z" />
    <glyph glyph-name="uni0424.loclBGR" horiz-adv-x="909" 
d="M512 -90h-238l16 99q-145 19 -222 120t-56 237q20 127 122.5 217.5t264.5 109.5l16 97h238l-17 -99q149 -19 225 -119.5t54 -237.5q-20 -129 -120.5 -218.5t-266.5 -108.5zM272 349q-2 -24 -1.5 -49.5t15.5 -47.5t44 -28l39 248q-80 -19 -97 -123zM597 476l-39 -248
q80 17 97 123q6 42 -7 79t-51 46z" />
    <glyph glyph-name="uni0432.loclBGR" horiz-adv-x="618" 
d="M380 717q115 0 173.5 -58t45.5 -141q-14 -97 -102 -134q50 -20 76.5 -67.5t16.5 -109.5q-17 -107 -100.5 -165.5t-207.5 -58.5q-309 0 -256 333l7 46q54 355 347 355zM384 494q6 38 -28 38q-29 0 -49 -23.5t-33 -84.5l44 9q29 6 46 23.5t20 37.5zM298 173q25 0 42.5 15.5
t21.5 42.5t-14 38t-47 5l-52 -11q-5 -51 5.5 -70.5t43.5 -19.5z" />
    <glyph glyph-name="uni0433.loclBGR" horiz-adv-x="495" 
d="M420 15q-83 -32 -191 -32q-52 0 -95 9t-78.5 28.5t-52.5 55t-11 84.5q5 41 31.5 70t60 42t67 21t57 14.5t24.5 15.5q2 13 -32 13q-66 0 -146 -40l26 164q86 37 185 37q101 0 165.5 -41.5t51.5 -129.5q-6 -43 -32.5 -71.5t-59.5 -41t-65 -19.5t-55 -14t-25 -17
q-2 -13 32 -13t83.5 12t89.5 40z" />
    <glyph glyph-name="uni0434.loclBGR" 
d="M552 31q-12 -73 -43.5 -126.5t-77 -83.5t-95.5 -44t-105 -14q-143 0 -243 42l30 191q83 -37 161 -37q118 0 131 73l2 11q-46 -40 -117 -40q-104 0 -152 74.5t-30 188.5q16 102 80 166.5t160 64.5q48 0 86.5 -22t60.5 -55l10 60h213zM258 242q-4 -30 7.5 -46t30.5 -17
q21 0 40 16l16 100q-8 15 -30 15q-24 0 -42 -19t-22 -49z" />
    <glyph glyph-name="uni0436.loclBGR" horiz-adv-x="899" 
d="M205 0h-254l156 258l-60 222h236l34 -148h27l58 368h230l-58 -368h28l78 148h249l-152 -257l63 -223h-236l-33 142h-27l-23 -142h-230l23 142h-30z" />
    <glyph glyph-name="uni0438.loclBGR" horiz-adv-x="595" 
d="M351 480h242l-76 -480h-213l6 38q-54 -55 -140 -55q-85 0 -129 55t-32 133l49 309h242l-43 -272q-5 -25 18 -25q17 0 31 12z" />
    <glyph glyph-name="uni0439.loclBGR" horiz-adv-x="595" 
d="M513 568q-70 -45 -172 -45q-41 0 -90.5 11.5t-83.5 33.5l23 146q68 -39 160 -39q105 0 186 39zM351 480h242l-76 -480h-213l6 38q-54 -55 -140 -55q-85 0 -129 55t-32 133l49 309h242l-43 -272q-5 -25 18 -25q17 0 31 12z" />
    <glyph glyph-name="uni043A.loclBGR" horiz-adv-x="624" 
d="M402 480h264l-186 -255l98 -225h-250l-48 147h-28l-23 -147h-242l111 700h242l-58 -363h27z" />
    <glyph glyph-name="uni043B.loclBGR" horiz-adv-x="619" 
d="M468 480l106 -480h-244l-16 261l-100 -261h-261l258 480h257z" />
    <glyph glyph-name="uni043F.loclBGR" horiz-adv-x="596" 
d="M270 443q68 54 150 54q88 0 125.5 -56.5t26.5 -128.5l-50 -312h-242l44 277q3 18 -18 18q-16 0 -32 -11l-45 -284h-242l76 480h213z" />
    <glyph glyph-name="uni0442.loclBGR" horiz-adv-x="863" 
d="M534 435q26 28 69.5 45t91.5 17q80 0 117.5 -56.5t22.5 -151.5l-46 -289h-238l44 280q3 16 -15 16q-15 0 -28 -11q0 -3 -1 -9.5t-2 -9.5l-42 -266h-238l44 280q3 16 -15 16q-15 0 -28 -11l-45 -285h-238l76 480h214l-7 -44q20 25 60 43t83 18q84 0 121 -62z" />
    <glyph glyph-name="uni0446.loclBGR" horiz-adv-x="642" 
d="M543 160q-3 -19 19 -19h42l-41 -262h-195l18 113q-45 15 -64 49q-65 -58 -152 -58q-85 0 -129 55t-32 133l49 309h242l-43 -272q-5 -25 18 -25q17 0 31 12l45 285h242z" />
    <glyph glyph-name="uni0448.loclBGR" horiz-adv-x="866" 
d="M576 188l46 292h242l-76 -480h-214l6 36q-56 -53 -142 -53q-80 0 -119 56q-73 -56 -163 -56q-81 0 -120 56.5t-24 151.5l46 289h242l-45 -285q-3 -15 15 -15q13 0 23 8q2 10 4 22l43 270h242l-45 -285q-3 -15 15 -15q14 0 24 8z" />
    <glyph glyph-name="uni0449.loclBGR" horiz-adv-x="913" 
d="M814 160q-3 -19 19 -19h42l-41 -262h-195l18 113q-43 14 -63 46q-60 -55 -156 -55q-80 0 -119 55q-67 -55 -157 -55q-87 0 -126 56t-24 152l46 289h242l-45 -285q-3 -15 15 -15q13 0 23 8q1 1 1 3l46 289h242l-45 -285q-3 -15 15 -15q14 0 24 8l46 292h242z" />
    <glyph glyph-name="uni044E.loclBGR" horiz-adv-x="862" 
d="M836 224q-20 -121 -102.5 -181t-207.5 -60q-87 0 -153 43t-84 124h-38l-24 -150h-240l111 700h240l-59 -370h28q33 84 106.5 125.5t171.5 41.5q131 0 200.5 -75.5t50.5 -197.5zM503 232q-4 -52 41 -52q26 0 43 18t20 50q4 52 -42 52q-25 0 -42 -18t-20 -50z" />
    <glyph glyph-name="uni0430.ss01" horiz-adv-x="590" 
d="M519 160q-4 -20 20 -20q13 0 20 3l-22 -141q-47 -18 -113 -18q-88 0 -122 52q-64 -53 -163 -53q-71 0 -115.5 40.5t-34.5 110.5q10 74 73.5 108.5t148.5 34.5q65 0 103 -8l2 13q4 27 -19.5 36t-74.5 9q-73 0 -173 -36l28 178q99 28 188 28q72 0 123 -11.5t89.5 -38.5
t52.5 -76.5t3 -121.5zM273 181q-53 0 -60 -35q-2 -12 6 -22t25 -10q30 0 49 21l7 43q-12 3 -27 3z" />
    <glyph glyph-name="uni0437.ss01" horiz-adv-x="479" 
d="M431 -23q-12 -77 -62.5 -126.5t-115.5 -68.5t-145 -19q-115 0 -184 36l26 169q58 -31 135 -31q111 0 123 74q5 30 -14.5 45t-66.5 4l-54 -11l24 151l62 13q61 13 67 56q8 53 -73 53q-64 0 -139 -41l27 174q86 41 186 41q98 1 163 -52t50 -146q-15 -99 -105 -135
q50 -22 78 -72.5t18 -113.5z" />
    <glyph glyph-name="uni0443.ss01" horiz-adv-x="595" 
d="M522 31q-22 -137 -112.5 -202.5t-208.5 -65.5q-128 0 -218 27l20 197q48 -28 146 -28q50 0 87.5 16.5t41.5 43.5l2 12q-50 -28 -107 -28q-85 0 -129 55t-32 133l46 289h242l-43 -272q-5 -25 18 -25q17 0 31 12l45 285h242z" />
    <glyph glyph-name="zero.osf" horiz-adv-x="678" 
d="M648 244q-18 -112 -108 -186.5t-239 -74.5q-83 0 -144 23.5t-92.5 64.5t-43 93t-1.5 112q18 112 107.5 186.5t239.5 74.5q162 0 231 -83t50 -210zM281 251q-10 -58 36 -58q27 0 45.5 20t24.5 56q10 58 -35 58q-28 0 -47 -20t-24 -56z" />
    <glyph glyph-name="one.osf" horiz-adv-x="523" 
d="M244 520h195l-49 -315h103l-33 -205h-473l33 205h113l15 90l-108 -38l30 200z" />
    <glyph glyph-name="two.osf" horiz-adv-x="572" 
d="M491 1h-511l15 92q9 57 46 91t109 64q10 4 23.5 9.5t21.5 9t18 7.5t15.5 7t12 6.5t10.5 6t7.5 5.5t5 6.5t2.5 6.5q1 8 -5 12t-17 4q-72 0 -193 -71l36 227q120 53 242 53q97 0 165 -49.5t55 -131.5q-11 -63 -67 -103q-44 -31 -112 -47h154z" />
    <glyph glyph-name="three.osf" horiz-adv-x="566" 
d="M524 321q-7 -44 -39.5 -81t-91.5 -55q54 -11 87.5 -55.5t22.5 -115.5q-8 -52 -38.5 -91t-75.5 -60t-94 -30.5t-103 -9.5q-122 0 -230 42l32 203q78 -33 180 -33q82 0 87 32q2 11 -6.5 17t-27.5 6h-103l30 184h72q43 0 48 22q3 13 -9 19.5t-36 6.5q-88 0 -190 -37l34 212
q92 40 208 40q51 0 97 -12.5t82.5 -37.5t54.5 -68t9 -98z" />
    <glyph glyph-name="four.osf" horiz-adv-x="652" 
d="M332 520h264l-63 -403h70l-32 -200h-70l-12 -77h-225l12 77h-322l28 190zM308 117l22 130l-110 -130h88z" />
    <glyph glyph-name="five.osf" horiz-adv-x="568" 
d="M109 520h445l-33 -214h-219l-10 -43q12 2 37 2q92 -2 142.5 -63t35.5 -161q-35 -218 -345 -218q-107 0 -205 41l31 195q62 -31 144 -31q109 0 117 52q4 26 -21 37.5t-67 11.5q-63 0 -135 -17z" />
    <glyph glyph-name="six.osf" horiz-adv-x="651" 
d="M317 419q51 21 108 21q87 0 147 -60.5t43 -169.5q-18 -117 -101.5 -172t-202.5 -55q-159 0 -231.5 96t-45.5 267q14 89 54 158t95.5 110t117 62t125.5 21q109 0 210 -49l-30 -188q-62 39 -130 39q-110 0 -159 -80zM318 171q48 0 56 47q4 23 -7.5 37.5t-31.5 14.5
q-32 0 -63 -23q0 -76 46 -76z" />
    <glyph glyph-name="seven.osf" horiz-adv-x="564" 
d="M53 520h537l-23 -164l-309 -516h-292l278 465h-225z" />
    <glyph glyph-name="eight.osf" horiz-adv-x="638" 
d="M82 503q13 78 88.5 136t204.5 58q127 0 194 -65.5t52 -146.5q-8 -46 -33 -72.5t-72 -52.5q101 -57 81 -182q-13 -84 -94.5 -139.5t-224.5 -55.5q-150 0 -217 63t-53 152q8 50 43 91t79 63q-62 58 -48 151zM322 237q-13 6 -33 16q-26 -14 -31 -40q-3 -16 7.5 -29t34.5 -13
q42 0 48 30q4 23 -26 36zM395 471q3 14 -7.5 26t-30.5 12q-37 0 -42 -26q-5 -23 21 -38q5 -3 15.5 -6.5t14.5 -5.5q24 16 29 38z" />
    <glyph glyph-name="nine.osf" horiz-adv-x="641" 
d="M19 310q13 79 61 132t109.5 74t133.5 21q156 0 230.5 -96.5t47.5 -266.5q-28 -174 -134.5 -262.5t-247.5 -88.5q-122 0 -220 49l29 187q60 -38 140 -38q114 0 157 82q-57 -23 -115 -23q-44 0 -81.5 14t-65.5 41.5t-40.5 72.5t-3.5 102zM314 349q-20 0 -35 -13t-19 -36
t5.5 -36.5t28.5 -13.5q35 0 68 23q0 76 -48 76z" />
    <glyph glyph-name="zero.sinf" horiz-adv-x="428" 
d="M378 88q-14 -87 -67.5 -142.5t-148.5 -55.5q-97 0 -141.5 67t-29.5 163q14 87 67.5 142.5t148.5 55.5q97 0 141.5 -67t29.5 -163zM148 104q-7 -43 -1 -59.5t25 -16.5t31 17t19 59q7 43 1 59.5t-25 16.5t-31 -17t-19 -59z" />
    <glyph glyph-name="one.sinf" horiz-adv-x="320" 
d="M131 308h118l-45 -279h62l-20 -129h-283l20 129h68l21 132l-65 -24l21 133z" />
    <glyph glyph-name="two.sinf" horiz-adv-x="384" 
d="M33 278q74 40 153 40q70 0 118 -39t36 -114q-9 -57 -61 -92q-10 -7 -36.5 -21.5t-40.5 -24.5h115l-20 -127h-337l10 63q17 102 121 152q8 4 24.5 11.5t24.5 12t18.5 10t15 10.5t5.5 10q1 7 -4 10.5t-15 3.5q-64 0 -151 -55z" />
    <glyph glyph-name="three.sinf" horiz-adv-x="370" 
d="M319 182q-10 -57 -78 -75q32 -8 52.5 -36.5t13.5 -72.5q-18 -108 -182 -108q-102 0 -160 30l20 125q62 -28 125 -28q49 0 52 19q1 6 -3 10t-12 4h-79l18 111h55q26 0 28 13q3 15 -25 15q-70 0 -134 -32l20 129q67 32 139 32q66 0 113 -35t37 -101z" />
    <glyph glyph-name="four.sinf" horiz-adv-x="422" 
d="M199 308h159l-39 -242h48l-19 -120h-48l-7 -46h-141l7 46h-199l20 126zM178 66l12 72l-67 -72h55z" />
    <glyph glyph-name="five.sinf" horiz-adv-x="372" 
d="M53 310h286l-21 -129h-154l-5 -25q9 1 25 1q33 0 63 -12.5t50 -46.5t12 -83q-20 -125 -201 -125q-84 0 -146 31l18 113q44 -20 104 -20q68 0 73 30q4 30 -62 30q-41 0 -90 -11z" />
    <glyph glyph-name="six.sinf" horiz-adv-x="413" 
d="M162 151q32 13 70 13q55 0 94.5 -38.5t28.5 -105.5q-10 -68 -60.5 -99t-121.5 -31q-102 0 -150 62t-31 168q16 102 80.5 150t153.5 48q79 0 136 -33l-17 -106q-34 20 -80 20q-73 0 -103 -48zM172 3q34 0 40 30q2 13 -6 21t-23 8q-25 0 -50 -18q5 -41 39 -41z" />
    <glyph glyph-name="seven.sinf" horiz-adv-x="359" 
d="M153 -100h-177l166 280h-146l21 130h336l-16 -100z" />
    <glyph glyph-name="eight.sinf" horiz-adv-x="406" 
d="M19 212q7 45 51.5 77.5t126.5 32.5t126 -41.5t35 -91.5q-5 -26 -19 -41t-43 -31q61 -35 48 -113q-7 -48 -56 -79t-139 -31q-95 0 -139 39.5t-35 95.5q9 57 71 90q-37 34 -27 93zM170 48q-4 1 -12.5 4t-12.5 5q-15 -8 -17 -24q-2 -11 7 -18.5t24 -7.5q31 0 34 18
q2 14 -23 23zM217 185q1 10 -6.5 17t-22.5 7q-27 0 -31 -20q-3 -16 21 -23q3 -1 12 -3t13 -3q12 12 14 25z" />
    <glyph glyph-name="nine.sinf" horiz-adv-x="413" 
d="M0 188q10 68 60.5 99t121.5 31q102 0 150 -62t31 -168q-16 -102 -80.5 -150t-153.5 -48q-87 0 -137 29l17 109q41 -19 90 -19q69 0 98 50q-31 -15 -74 -15q-57 0 -95.5 38t-27.5 106zM182 205q-35 0 -40 -30q-2 -13 5.5 -21t19.5 -8q27 0 53 17q-4 42 -38 42z" />
    <glyph glyph-name="zero.sups" horiz-adv-x="427" 
d="M453 567q-14 -87 -67.5 -142.5t-148.5 -55.5q-97 0 -141.5 67t-29.5 163q14 87 67.5 142.5t148.5 55.5q97 0 141.5 -67t29.5 -163zM223 583q-7 -43 -1 -59.5t25 -16.5t31 17t19 59q7 43 1 59.5t-25 16.5t-31 -17t-19 -59z" />
    <glyph glyph-name="one.sups" horiz-adv-x="321" 
d="M206 780h118l-45 -279h62l-20 -129h-283l20 129h68l21 132l-65 -24l21 133z" />
    <glyph glyph-name="two.sups" horiz-adv-x="385" 
d="M109 757q74 40 153 40q70 0 118 -39t36 -114q-9 -57 -61 -92q-10 -7 -36.5 -21.5t-40.5 -24.5h115l-20 -127h-337l10 63q17 102 121 152q8 4 24.5 11.5t24.5 12t18.5 10t15 10.5t5.5 10q1 7 -4 10.5t-15 3.5q-64 0 -151 -55z" />
    <glyph glyph-name="three.sups" horiz-adv-x="370" 
d="M395 661q-10 -57 -78 -75q32 -8 52.5 -36.5t13.5 -72.5q-18 -108 -182 -108q-102 0 -160 30l20 125q62 -28 125 -28q49 0 52 19q1 6 -3 10t-12 4h-79l18 111h55q26 0 28 13q3 15 -25 15q-70 0 -134 -32l20 129q67 32 139 32q66 0 113 -35t37 -101z" />
    <glyph glyph-name="four.sups" horiz-adv-x="422" 
d="M274 780h159l-39 -242h48l-19 -120h-48l-7 -46h-141l7 46h-199l20 126zM253 538l12 72l-67 -72h55z" />
    <glyph glyph-name="five.sups" horiz-adv-x="371" 
d="M127 780h286l-21 -129h-154l-5 -25q9 1 25 1q33 0 63 -12.5t50 -46.5t12 -83q-20 -125 -201 -125q-84 0 -146 31l18 113q44 -20 104 -20q68 0 73 30q4 30 -62 30q-41 0 -90 -11z" />
    <glyph glyph-name="six.sups" horiz-adv-x="412" 
d="M237 630q32 13 70 13q55 0 94.5 -38.5t28.5 -105.5q-10 -68 -60.5 -99t-121.5 -31q-102 0 -150 62t-31 168q16 102 80.5 150t153.5 48q79 0 136 -33l-17 -106q-34 20 -80 20q-73 0 -103 -48zM247 482q34 0 40 30q2 13 -6 21t-23 8q-24 0 -50 -18q5 -41 39 -41z" />
    <glyph glyph-name="seven.sups" horiz-adv-x="359" 
d="M227 370h-177l166 280h-146l21 130h336l-16 -100z" />
    <glyph glyph-name="eight.sups" horiz-adv-x="407" 
d="M95 691q7 45 51.5 77.5t126.5 32.5t126 -41.5t35 -91.5q-5 -26 -19 -41t-43 -31q61 -35 48 -113q-7 -48 -56 -79t-139 -31q-95 0 -139 39.5t-35 95.5q9 57 71 90q-37 34 -27 93zM246 527q-4 1 -12.5 4t-12.5 5q-15 -8 -17 -24q-2 -11 7 -18.5t24 -7.5q31 0 34 18
q2 14 -23 23zM293 664q1 10 -6.5 17t-22.5 7q-27 0 -31 -20q-3 -16 21 -23q3 -1 12 -3t13 -3q12 12 14 25z" />
    <glyph glyph-name="nine.sups" horiz-adv-x="412" 
d="M75 667q10 68 60.5 99t121.5 31q102 0 150 -62t31 -168q-16 -102 -80.5 -150t-153.5 -48q-87 0 -137 29l17 109q41 -19 90 -19q69 0 98 50q-31 -15 -74 -15q-57 0 -95.5 38t-27.5 106zM257 684q-35 0 -40 -30q-2 -13 5.5 -21t19.5 -8q28 0 53 17q-4 42 -38 42z" />
    <glyph glyph-name="zero.tf" horiz-adv-x="670" 
d="M24 356q11 70 38 129.5t70.5 108t109.5 76t148 27.5t142 -30.5t90.5 -82.5t42.5 -119t-2 -141q-11 -70 -38 -129.5t-70.5 -108t-109 -76t-147.5 -27.5q-109 0 -177.5 53t-91 136t-5.5 184zM402 340q23 127 -36 127q-58 0 -81 -127t37 -127q57 0 80 127z" />
    <glyph glyph-name="one.tf" horiz-adv-x="670" 
d="M348 680h195l-74 -465h163l-34 -215h-603l34 215h183l36 220l-156 -57l33 220z" />
    <glyph glyph-name="two.tf" horiz-adv-x="670" 
d="M116 629q139 68 285 68q120 0 194 -62t57 -172q-14 -92 -100 -154q-31 -22 -88 -51t-68 -42h215l-34 -215h-581l18 112q15 90 64.5 144t135.5 102q25 14 67.5 33t64 32t23.5 26q2 10 -6.5 16.5t-25.5 6.5q-50 0 -123.5 -25t-136.5 -66z" />
    <glyph glyph-name="three.tf" horiz-adv-x="670" 
d="M627 481q-7 -44 -39 -81t-91 -55q54 -11 87.5 -55.5t22.5 -115.5q-11 -70 -60 -114t-113.5 -60.5t-148.5 -16.5q-163 0 -270 49l34 212q100 -49 225 -49q89 0 93 32q2 10 -5 16.5t-22 6.5h-151l29 184h117q36 0 40 21q5 27 -58 27q-121 0 -226 -59l34 215q104 59 250 59
q118 0 193.5 -54.5t58.5 -161.5z" />
    <glyph glyph-name="four.tf" horiz-adv-x="670" 
d="M374 680h264l-64 -403h80l-32 -200h-80l-12 -77h-235l12 77h-332l34 212zM339 277l19 120l-112 -120h93z" />
    <glyph glyph-name="five.tf" horiz-adv-x="670" 
d="M167 680h485l-34 -214h-264l-9 -43q25 3 56 3q33 0 64 -7t60 -24t49 -42t29 -64t1 -88q-8 -50 -32.5 -89t-57.5 -63t-77 -39t-87 -21t-91 -6q-146 0 -244 48l30 192q68 -35 174 -35q119 0 127 50q4 27 -26 38.5t-81 11.5q-76 0 -156 -16z" />
    <glyph glyph-name="six.tf" horiz-adv-x="670" 
d="M302 407q62 33 140 33q44 0 83 -14.5t69 -41.5t43.5 -72t4.5 -102q-12 -79 -61 -132t-112.5 -74t-140.5 -21q-172 0 -247.5 99.5t-47.5 273.5q14 89 53.5 156.5t96 106.5t119.5 58.5t131 19.5q124 0 219 -51l-29 -183q-66 36 -140 36q-133 0 -181 -92zM329 171
q28 0 48 13.5t24 39.5q4 21 -8 33.5t-35 12.5q-41 0 -85 -27q5 -72 56 -72z" />
    <glyph glyph-name="seven.tf" horiz-adv-x="670" 
d="M105 680h587l-27 -167l-316 -513h-292l287 465h-273z" />
    <glyph glyph-name="eight.tf" horiz-adv-x="670" 
d="M628 178q-13 -85 -97 -140t-237 -55q-160 0 -229.5 62.5t-55.5 152.5q8 50 43 91t79 63q-62 58 -48 151q13 78 92.5 136t215.5 58q137 0 206.5 -65.5t54.5 -146.5q-8 -46 -33 -72.5t-72 -52.5q101 -57 81 -182zM262 217q-2 -19 13 -32t40 -13q51 0 60 30q7 25 -36 46
q-7 4 -21 11l-20 10q-33 -19 -36 -52zM350 437q6 -3 20 -8t17 -6q27 16 30 41q2 19 -10.5 31.5t-38.5 12.5q-21 0 -34.5 -8.5t-15.5 -21.5q-3 -23 32 -41z" />
    <glyph glyph-name="nine.tf" horiz-adv-x="670" 
d="M45 470q12 79 61 132t112.5 74t140.5 21q166 0 244 -100.5t51 -272.5q-28 -173 -138.5 -257t-261.5 -84q-133 0 -221 50l30 185q67 -37 146 -37q71 0 113.5 20.5t66.5 73.5q-64 -35 -144 -35q-100 0 -159 59.5t-41 170.5zM356 509q-28 0 -47 -13t-23 -38q-3 -22 10.5 -35
t37.5 -13q45 0 83 24q-6 75 -61 75z" />
    <glyph glyph-name="zero.tosf" horiz-adv-x="670" 
d="M650 244q-18 -114 -106 -187.5t-247 -73.5q-82 0 -143 23.5t-94.5 64.5t-46 93t-2.5 112q18 115 105.5 188t246.5 73q161 0 233.5 -84t53.5 -209zM271 254q-5 -28 6.5 -44.5t35.5 -16.5q65 0 77 73q5 28 -6.5 44.5t-35.5 16.5q-66 0 -77 -73z" />
    <glyph glyph-name="one.tosf" horiz-adv-x="670" 
d="M320 520h195l-49 -315h163l-33 -205h-603l33 205h183l16 100l-156 -57l29 190z" />
    <glyph glyph-name="two.tosf" horiz-adv-x="670" 
d="M570 1h-571l15 92q10 60 50.5 95.5t132.5 66.5q23 8 49 15.5t41 11.5t29.5 9t21 10t7.5 11q1 9 -6.5 12.5t-25.5 3.5q-45 0 -117 -19.5t-126 -51.5l36 227q120 53 262 53q130 0 201.5 -48t58.5 -133q-11 -63 -67 -103q-44 -31 -112 -47h154z" />
    <glyph glyph-name="three.tosf" horiz-adv-x="670" 
d="M601 321q-7 -44 -39 -81t-91 -55q54 -11 87.5 -55.5t22.5 -115.5q-11 -70 -60 -114t-113.5 -60.5t-148.5 -16.5q-163 0 -270 49l34 212q100 -49 225 -49q89 0 93 32q2 10 -5 16.5t-22 6.5h-151l29 184h117q36 0 40 21q5 27 -58 27q-121 0 -226 -59l34 215q104 59 250 59
q118 0 193.5 -54.5t58.5 -161.5z" />
    <glyph glyph-name="four.tosf" horiz-adv-x="670" 
d="M349 520h264l-64 -403h80l-32 -200h-80l-12 -77h-235l12 77h-332l34 212zM314 117l19 120l-112 -120h93z" />
    <glyph glyph-name="five.tosf" horiz-adv-x="670" 
d="M141 520h485l-34 -214h-264l-9 -43q25 3 51 3q34 0 66 -7t62 -24t50 -42t29 -64t1 -88q-8 -50 -33.5 -89t-60 -63t-80 -39t-89.5 -21t-92 -6q-136 0 -234 48l30 192q68 -35 169 -35q124 0 132 50q4 27 -26.5 38.5t-85.5 11.5q-71 0 -151 -16z" />
    <glyph glyph-name="six.tosf" horiz-adv-x="670" 
d="M301 407q62 33 140 33q44 0 83 -14.5t69 -41.5t43.5 -72t4.5 -102q-12 -79 -61 -132t-112.5 -74t-140.5 -21q-172 0 -247.5 99.5t-47.5 273.5q14 89 55 156.5t99.5 106.5t123 58.5t132.5 19.5q120 0 209 -51l-29 -183q-66 36 -140 36q-133 0 -181 -92zM328 171
q28 0 48 13.5t24 39.5q4 21 -8 33.5t-35 12.5q-41 0 -85 -27q5 -72 56 -72z" />
    <glyph glyph-name="seven.tosf" horiz-adv-x="670" 
d="M79 520h587l-23 -164l-319 -516h-292l287 465h-274z" />
    <glyph glyph-name="eight.tosf" horiz-adv-x="670" 
d="M628 178q-13 -85 -97 -140t-237 -55q-160 0 -229.5 62.5t-55.5 152.5q8 50 43 91t79 63q-62 58 -48 151q13 78 92.5 136t215.5 58q137 0 206.5 -65.5t54.5 -146.5q-8 -46 -33 -72.5t-72 -52.5q101 -57 81 -182zM262 217q-2 -19 13 -32t40 -13q51 0 60 30q7 25 -36 46
q-7 4 -21 11l-20 10q-33 -19 -36 -52zM350 437q6 -3 20 -8t17 -6q27 16 30 41q2 19 -10.5 31.5t-38.5 12.5q-21 0 -34.5 -8.5t-15.5 -21.5q-3 -23 32 -41z" />
    <glyph glyph-name="nine.tosf" horiz-adv-x="670" 
d="M18 310q12 79 61 132t112.5 74t140.5 21q166 0 244 -100.5t51 -272.5q-28 -173 -138.5 -257t-261.5 -84q-133 0 -221 50l30 185q67 -37 146 -37q71 0 113.5 20.5t66.5 73.5q-64 -35 -144 -35q-100 0 -159 59.5t-41 170.5zM329 349q-27 0 -46.5 -13t-23.5 -38
q-3 -22 10.5 -35t37.5 -13q45 0 83 24q-6 75 -61 75z" />
    <glyph glyph-name="zero.dnom" horiz-adv-x="427" 
d="M393 188q-14 -87 -67.5 -142.5t-148.5 -55.5q-97 0 -141.5 67t-29.5 163q14 87 67.5 142.5t148.5 55.5q97 0 141.5 -67t29.5 -163zM163 204q-7 -43 -1 -59.5t25 -16.5t31 17t19 59q7 43 1 59.5t-25 16.5t-31 -17t-19 -59z" />
    <glyph glyph-name="one.dnom" horiz-adv-x="321" 
d="M147 408h118l-45 -279h62l-20 -129h-283l20 129h68l21 132l-65 -24l21 133z" />
    <glyph glyph-name="two.dnom" horiz-adv-x="385" 
d="M49 378q74 40 153 40q70 0 118 -39t36 -114q-9 -57 -61 -92q-10 -7 -36.5 -21.5t-40.5 -24.5h115l-20 -127h-337l10 63q17 102 121 152q8 4 24.5 11.5t24.5 12t18.5 10t15 10.5t5.5 10q1 7 -4 10.5t-15 3.5q-64 0 -151 -55z" />
    <glyph glyph-name="three.dnom" horiz-adv-x="370" 
d="M335 282q-10 -57 -78 -75q32 -8 52.5 -36.5t13.5 -72.5q-18 -108 -182 -108q-102 0 -160 30l20 125q62 -28 125 -28q49 0 52 19q1 6 -3 10t-12 4h-79l18 111h55q26 0 28 13q3 15 -25 15q-70 0 -134 -32l20 129q67 32 139 32q66 0 113 -35t37 -101z" />
    <glyph glyph-name="four.dnom" horiz-adv-x="422" 
d="M215 408h159l-39 -242h48l-19 -120h-48l-7 -46h-141l7 46h-199l20 126zM194 166l12 72l-67 -72h55z" />
    <glyph glyph-name="five.dnom" horiz-adv-x="372" 
d="M69 410h286l-21 -129h-154l-5 -25q9 1 25 1q33 0 63 -12.5t50 -46.5t12 -83q-20 -125 -201 -125q-84 0 -146 31l18 113q44 -20 104 -20q68 0 73 30q4 30 -62 30q-41 0 -90 -11z" />
    <glyph glyph-name="six.dnom" horiz-adv-x="412" 
d="M177 251q32 13 70 13q55 0 94.5 -38.5t28.5 -105.5q-10 -68 -60.5 -99t-121.5 -31q-102 0 -150 62t-31 168q16 102 80.5 150t153.5 48q79 0 136 -33l-17 -106q-34 20 -80 20q-73 0 -103 -48zM187 103q34 0 40 30q2 13 -6 21t-23 8q-24 0 -50 -18q5 -41 39 -41z" />
    <glyph glyph-name="seven.dnom" horiz-adv-x="359" 
d="M169 0h-177l166 280h-146l21 130h336l-16 -100z" />
    <glyph glyph-name="eight.dnom" horiz-adv-x="406" 
d="M34 308q7 45 51.5 77.5t126.5 32.5t126 -41.5t35 -91.5q-5 -26 -19 -41t-43 -31q61 -35 48 -113q-7 -48 -56 -79t-139 -31q-95 0 -139 39.5t-35 95.5q9 57 71 90q-37 34 -27 93zM185 144q-4 1 -12.5 4t-12.5 5q-15 -8 -17 -24q-2 -11 7 -18.5t24 -7.5q31 0 34 18
q2 14 -23 23zM232 281q1 10 -6.5 17t-22.5 7q-27 0 -31 -20q-3 -16 21 -23q3 -1 12 -3t13 -3q12 12 14 25z" />
    <glyph glyph-name="nine.dnom" horiz-adv-x="413" 
d="M16 288q10 68 60.5 99t121.5 31q102 0 150 -62t31 -168q-16 -102 -80.5 -150t-153.5 -48q-87 0 -137 29l17 109q41 -19 90 -19q69 0 98 50q-31 -15 -74 -15q-57 0 -95.5 38t-27.5 106zM198 305q-35 0 -40 -30q-2 -13 5.5 -21t19.5 -8q27 0 53 17q-4 42 -38 42z" />
    <glyph glyph-name="zero.numr" horiz-adv-x="428" 
d="M438 467q-14 -87 -67.5 -142.5t-148.5 -55.5q-97 0 -141.5 67t-29.5 163q14 87 67.5 142.5t148.5 55.5q97 0 141.5 -67t29.5 -163zM208 483q-7 -43 -1 -59.5t25 -16.5t31 17t19 59q7 43 1 59.5t-25 16.5t-31 -17t-19 -59z" />
    <glyph glyph-name="one.numr" horiz-adv-x="321" 
d="M190 680h118l-45 -279h62l-20 -129h-283l20 129h68l21 132l-65 -24l21 133z" />
    <glyph glyph-name="two.numr" horiz-adv-x="384" 
d="M93 657q74 40 153 40q70 0 118 -39t36 -114q-9 -57 -61 -92q-10 -7 -36.5 -21.5t-40.5 -24.5h115l-20 -127h-337l10 63q17 102 121 152q8 4 24.5 11.5t24.5 12t18.5 10t15 10.5t5.5 10q1 7 -4 10.5t-15 3.5q-64 0 -151 -55z" />
    <glyph glyph-name="three.numr" horiz-adv-x="370" 
d="M379 561q-10 -57 -78 -75q32 -8 52.5 -36.5t13.5 -72.5q-18 -108 -182 -108q-102 0 -160 30l20 125q62 -28 125 -28q49 0 52 19q1 6 -3 10t-12 4h-79l18 111h55q26 0 28 13q3 15 -25 15q-70 0 -134 -32l20 129q67 32 139 32q66 0 113 -35t37 -101z" />
    <glyph glyph-name="four.numr" horiz-adv-x="422" 
d="M258 680h159l-39 -242h48l-19 -120h-48l-7 -46h-141l7 46h-199l20 126zM237 438l12 72l-67 -72h55z" />
    <glyph glyph-name="five.numr" horiz-adv-x="371" 
d="M111 680h286l-21 -129h-154l-5 -25q9 1 25 1q33 0 63 -12.5t50 -46.5t12 -83q-20 -125 -201 -125q-84 0 -146 31l18 113q44 -20 104 -20q68 0 73 30q4 30 -62 30q-41 0 -90 -11z" />
    <glyph glyph-name="six.numr" horiz-adv-x="412" 
d="M222 530q32 13 70 13q55 0 94.5 -38.5t28.5 -105.5q-10 -68 -60.5 -99t-121.5 -31q-102 0 -150 62t-31 168q16 102 80.5 150t153.5 48q79 0 136 -33l-17 -106q-34 20 -80 20q-73 0 -103 -48zM232 382q34 0 40 30q2 13 -6 21t-23 8q-25 0 -50 -18q5 -41 39 -41z" />
    <glyph glyph-name="seven.numr" horiz-adv-x="359" 
d="M211 270h-177l166 280h-146l21 130h336l-16 -100z" />
    <glyph glyph-name="eight.numr" horiz-adv-x="407" 
d="M79 587q7 45 51.5 77.5t126.5 32.5t126 -41.5t35 -91.5q-5 -26 -19 -41t-43 -31q61 -35 48 -113q-7 -48 -56 -79t-139 -31q-95 0 -139 39.5t-35 95.5q9 57 71 90q-37 34 -27 93zM230 423q-4 1 -12.5 4t-12.5 5q-15 -8 -17 -24q-2 -11 7 -18.5t24 -7.5q31 0 34 18
q2 14 -23 23zM277 560q1 10 -6.5 17t-22.5 7q-27 0 -31 -20q-3 -16 21 -23q3 -1 12 -3t13 -3q12 12 14 25z" />
    <glyph glyph-name="nine.numr" horiz-adv-x="413" 
d="M60 567q10 68 60.5 99t121.5 31q102 0 150 -62t31 -168q-16 -102 -80.5 -150t-153.5 -48q-87 0 -137 29l17 109q41 -19 90 -19q69 0 98 50q-31 -15 -74 -15q-57 0 -95.5 38t-27.5 106zM242 584q-35 0 -40 -30q-2 -13 5.5 -21t19.5 -8q27 0 53 17q-4 42 -38 42z" />
    <glyph glyph-name="emdash.case" horiz-adv-x="801" 
d="M754 260h-717l28 180h717z" />
    <glyph glyph-name="endash.case" horiz-adv-x="591" 
d="M544 260h-507l28 180h507z" />
    <glyph glyph-name="hyphen.case" horiz-adv-x="482" 
d="M65 440h398l-28 -180h-398z" />
    <glyph glyph-name="guillemotleft.case" horiz-adv-x="735" 
d="M679 136h-238l-108 193l7 48l165 187h246l-186 -214zM379 136h-238l-108 193l7 48l165 187h246l-186 -214z" />
    <glyph glyph-name="guillemotright.case" horiz-adv-x="734" 
d="M550 136h-247l187 214l-115 214h239l107 -193l-8 -48zM249 136h-247l187 214l-115 214h239l107 -193l-8 -48z" />
    <glyph glyph-name="guilsinglleft.case" horiz-adv-x="435" 
d="M379 136h-238l-108 193l7 48l165 187h246l-186 -214z" />
    <glyph glyph-name="guilsinglright.case" horiz-adv-x="433" 
d="M249 136h-247l187 214l-115 214h239l107 -193l-8 -48z" />
    <glyph glyph-name="cent.tf" horiz-adv-x="670" 
d="M571 468l-29 -185q-21 10 -50 15l-18 -113q35 6 60 17l-31 -197q-18 -5 -59 -14l-18 -111h-80l16 103h-2q-130 0 -204 68t-59 189q10 86 61 146t118 85.5t142 25.5q17 0 26 -1l16 104h80l-18 -116q22 -5 49 -16zM412 297q-59 -13 -67 -58q-7 -45 49 -55z" />
    <glyph glyph-name="currency.tf" horiz-adv-x="670" 
d="M223 164l-72 -62l-81 92l64 59q-19 56 -10 113q8 54 40 96l-44 46l101 92l51 -58q40 15 93 15t99 -21l74 65l81 -93l-67 -61q21 -55 11 -113q-9 -56 -39 -94l45 -46l-103 -92l-49 56q-40 -15 -95 -15q-54 0 -99 21zM310 350q-3 -13 4 -22.5t24 -9.5t27 9.5t13 22.5
t-4 22.5t-24 9.5t-27 -9.5t-13 -22.5z" />
    <glyph glyph-name="dollar.tf" horiz-adv-x="670" 
d="M359 -110h-180l16 100q-103 16 -183 64l35 224q106 -81 231 -81q74 0 77 20q2 12 -20.5 21.5t-57.5 17.5t-74.5 26t-72 41.5t-50 68.5t-8.5 105q12 79 76.5 129.5t156.5 64.5l16 99h180l-16 -102q93 -15 167 -54l-34 -216q-97 69 -219 69q-55 0 -58 -20q-1 -10 15.5 -18
t43.5 -16.5t60 -19t64.5 -28.5t56.5 -41.5t37 -62.5t5 -87q-28 -182 -249 -207z" />
    <glyph glyph-name="Euro.tf" horiz-adv-x="670" 
d="M690 665l-33 -209q-49 21 -111 21q-90 0 -140 -42h181l-13 -80h-215q-5 -13 -5 -30h216l-13 -80h-180q35 -38 113 -38q82 0 137 23l-35 -222q-70 -25 -159 -25q-136 0 -235.5 66.5t-114.5 195.5h-76l13 80h63q2 20 4 30h-63l13 80h69q45 131 157.5 196.5t248.5 65.5
q97 0 178 -32z" />
    <glyph glyph-name="sterling.tf" horiz-adv-x="670" 
d="M584 0h-585l33 207h25q53 0 60 43l3 16h-62l27 166h61l4 27q19 122 100 180t206 58q102 0 195 -38l-29 -187q-62 24 -125 24q-85 0 -93 -51l-2 -13h154l-26 -166h-154l-2 -12q-5 -33 -32 -47h275z" />
    <glyph glyph-name="yen.tf" horiz-adv-x="670" 
d="M457 680h284l-220 -320h102l-17 -110h-146l-5 -30h146l-17 -110h-147l-18 -110h-266l18 110h-147l17 110h148l5 30h-148l17 110h106l-118 320h268l37 -196z" />
    </font>
</defs>
</svg>
