<?xml version="1.0" encoding="utf-8"?>
<!-- Generator: Adobe Illustrator 21.1.0, SVG Export Plug-In . SVG Version: 6.00 Build 0)  -->
<svg version="1.1" id="Слой_1" xmlns="http://www.w3.org/2000/svg" xmlns:xlink="http://www.w3.org/1999/xlink" x="0px" y="0px"
	 viewBox="0 0 120 160" style="enable-background:new 0 0 120 160;" xml:space="preserve">
<style type="text/css">
	.st0{enable-background:new    ;}
	.st1{fill:#180A0A;}
</style>
<g id="portfolio-item-fin" transform="translate(-638.000000, -1706.000000)">
	<g class="st0">
		<path class="st1" d="M641.7,1714l1.2,1.9l1.1-1.9l0.5-0.8h2.1l-2.4,4.1l2.5,4.2l-2.5,0.2l-0.4-1.1l-1.2-1.9l-1.2,2l-0.4,0.8h-2.1
			l2.4-4.2l-2.4-4.1l2.6-0.1L641.7,1714z"/>
	</g>
	<g class="st0">
		<path class="st1" d="M653.4,1713.6c0.5,0.4,0.7,0.9,0.7,1.6c0,0.2,0,0.9-0.1,2.2c-0.1,1.3-0.1,2-0.1,2.2c0,0.3,0,0.4,0.1,0.5
			s0.2,0.2,0.4,0.2s0.4,0,0.6-0.1l0.1,0.1l-0.1,0.8c-0.3,0.2-0.7,0.3-1,0.4c-0.4,0-0.7-0.2-0.9-0.4c-0.2-0.2-0.3-0.5-0.4-0.9h-0.1
			c-0.6,0.7-1.3,1.1-1.9,1.3c-0.8,0-1.4-0.2-1.9-0.6s-0.7-1-0.7-1.6c0-0.5,0.1-0.9,0.4-1.3c0.3-0.3,0.7-0.5,1.3-0.7l2.9-0.7v-1.2
			c0-0.5-0.1-0.8-0.4-1.1c-0.2-0.3-0.6-0.4-1.1-0.4c-0.4,0-0.8,0.1-1.2,0.3c-0.4,0.2-0.8,0.5-1.3,0.9l-0.1-0.1l-0.2-1
			c1-0.7,2-1.1,3.1-1.1C652.4,1713,653,1713.2,653.4,1713.6z M650,1718.2c-0.2,0.1-0.4,0.2-0.5,0.3c-0.1,0.1-0.2,0.3-0.2,0.6
			c0,0.4,0.1,0.7,0.3,0.9c0.2,0.2,0.5,0.3,0.9,0.3c0.7,0,1.3-0.4,2-1.3l0.1-1.5L650,1718.2z"/>
		<path class="st1" d="M663.5,1714.3c0.6,0.7,0.8,1.6,0.8,2.9c0,1.4-0.3,2.5-0.9,3.2c-0.6,0.7-1.5,1.1-2.7,1.1s-2.1-0.4-2.7-1.3
			c-0.6-0.9-0.8-2.3-0.8-4.3c0-1.2,0.1-2.1,0.3-2.8c0.2-0.7,0.5-1.3,0.9-1.8s1-0.8,1.7-1.1l1.7-0.6c0.4-0.1,0.7-0.3,1-0.4
			c0.3-0.2,0.6-0.4,0.9-0.6l0.2,0.1l0.1,1.2c-0.5,0.4-1.2,0.7-2,1l-1.7,0.5c-0.6,0.2-1.1,0.6-1.4,1.1c-0.3,0.6-0.4,1.3-0.4,2.3v0.2
			h0.1c0.7-0.8,1.5-1.4,2.5-1.6C662,1713.4,662.9,1713.7,663.5,1714.3z M662.4,1719.8c0.4-0.5,0.6-1.3,0.6-2.3s-0.2-1.7-0.5-2.2
			s-0.8-0.7-1.5-0.7c-0.9,0-1.7,0.5-2.5,1.6c0,1.6,0.2,2.7,0.5,3.4c0.3,0.7,0.9,1,1.7,1C661.5,1720.5,662,1720.3,662.4,1719.8z"/>
		<path class="st1" d="M673,1719.1c0,1.6-1.2,2.4-3.7,2.4c-0.7,0-1.5,0-2.4-0.1l0.1-3.5l-0.1-4.8h2.9c0.9,0,1.6,0.2,2.1,0.5
			s0.7,0.8,0.7,1.5c0,0.4-0.1,0.8-0.4,1.2s-0.6,0.6-1.1,0.8C672.4,1717.4,673,1718,673,1719.1z M671,1720.2c0.4-0.3,0.6-0.6,0.6-1.2
			c0-0.8-0.5-1.3-1.6-1.4h-1.9v0.1v2.7c0.4,0,0.8,0.1,1.2,0.1C670,1720.6,670.7,1720.4,671,1720.2z M669.4,1714c-0.5,0-0.9,0-1.1,0
			v2.7l1.7,0.1c0.5-0.1,0.8-0.3,1.1-0.5c0.2-0.3,0.4-0.6,0.4-1C671.2,1714.5,670.7,1714,669.4,1714z"/>
		<path class="st1" d="M680.4,1713.2l-0.1,1h-1.9H677v3.6l0.1,3.6h-1.4l0.1-3.5l-0.1-4.8L680.4,1713.2L680.4,1713.2z"/>
		<path class="st1" d="M688.4,1720.4v3l-1,0.1l-0.2-2h-6l-0.2,1.9l-1,0.1v-3.1h0.7c0.4-0.2,0.6-0.5,0.9-1s0.4-1,0.5-1.7
			s0.3-1.8,0.4-3.1l0.1-1.4h4.5v4.6v2.6H688.4z M685.9,1717.9v-3.8h-2.1l-0.1,0.7c-0.2,1.7-0.4,2.9-0.6,3.8s-0.6,1.4-1,1.8h3.8
			L685.9,1717.9z"/>
		<path class="st1" d="M691.5,1717.2L691.5,1717.2c0,1,0.2,1.8,0.7,2.4s1.1,0.8,1.9,0.8c0.4,0,0.8-0.1,1.3-0.2s0.8-0.3,1.2-0.6
			l0.1,0.1l-0.2,1.2c-0.8,0.4-1.7,0.6-2.5,0.6c-1.2,0-2.1-0.4-2.8-1.1s-1-1.8-1-3.1c0-1.3,0.3-2.4,1-3.1s1.6-1.2,2.7-1.2
			c1,0,1.7,0.3,2.2,0.8s0.8,1.3,0.8,2.3c0,0.3,0,0.6-0.1,0.9l-0.2,0.2L691.5,1717.2z M692.5,1714.6c-0.4,0.4-0.7,0.9-0.8,1.6l4-0.1
			v-0.3c0-0.6-0.1-1.1-0.4-1.4s-0.7-0.5-1.3-0.5C693.4,1714,692.9,1714.2,692.5,1714.6z"/>
	</g>
	<g class="st0">
		<path class="st1" d="M645,1745.5c0.5,0.4,0.8,1,0.8,1.7c0,0.2,0,0.9-0.1,2.1c0,0.3,0,0.7-0.1,1c0,0.4,0,0.7,0,0.9
			c0,0.2,0,0.3,0.1,0.4s0.2,0.1,0.3,0.1s0.3,0,0.5-0.1l0.2,0.1l-0.2,1.3c-0.4,0.3-0.8,0.4-1.3,0.4c-0.4,0-0.7-0.2-0.9-0.4
			c-0.2-0.2-0.4-0.5-0.5-0.9h-0.1c-0.6,0.6-1.2,1.1-1.9,1.3c-0.9,0-1.5-0.2-2-0.7c-0.5-0.4-0.7-1-0.7-1.8c0-0.6,0.2-1.1,0.5-1.4
			s0.8-0.6,1.4-0.7l2.8-0.5v-0.7c0-0.8-0.4-1.2-1.2-1.2c-0.4,0-0.8,0.1-1.2,0.3c-0.4,0.2-0.9,0.4-1.4,0.8l-0.2-0.1l-0.3-1.6
			c0.5-0.3,1.1-0.6,1.7-0.7c0.6-0.2,1.2-0.3,1.8-0.3C643.7,1744.9,644.4,1745.1,645,1745.5z M641.5,1750.1c-0.2,0-0.3,0.1-0.4,0.2
			c-0.1,0.1-0.1,0.3-0.1,0.5c0,0.3,0.1,0.6,0.3,0.7c0.2,0.2,0.4,0.3,0.7,0.3c0.5,0,1-0.3,1.5-0.8v-1.3L641.5,1750.1z"/>
	</g>
	<g class="st0">
		<path class="st1" d="M649.5,1749.2L649.5,1749.2c0,1,0.2,1.8,0.7,2.4c0.5,0.5,1.1,0.8,1.9,0.8c0.4,0,0.8-0.1,1.3-0.2
			c0.4-0.1,0.8-0.3,1.2-0.6l0.1,0.1l-0.2,1.2c-0.8,0.4-1.7,0.6-2.5,0.6c-1.2,0-2.1-0.4-2.8-1.1s-1-1.8-1-3.1c0-1.3,0.3-2.4,1-3.1
			s1.6-1.2,2.7-1.2c1,0,1.7,0.3,2.2,0.8s0.8,1.3,0.8,2.3c0,0.3,0,0.6-0.1,0.9l-0.2,0.2L649.5,1749.2z M650.9,1741.9
			c0.1,0.1,0.2,0.3,0.2,0.6c0,0.3-0.1,0.5-0.2,0.6c-0.1,0.2-0.3,0.2-0.6,0.2s-0.4-0.1-0.6-0.2c-0.1-0.1-0.2-0.3-0.2-0.6
			c0-0.2,0.1-0.4,0.2-0.6c0.1-0.1,0.3-0.2,0.6-0.2C650.5,1741.7,650.8,1741.7,650.9,1741.9z M650.5,1746.6c-0.4,0.4-0.7,0.9-0.8,1.6
			l4-0.1v-0.3c0-0.6-0.1-1.1-0.4-1.4c-0.3-0.3-0.7-0.5-1.3-0.5C651.4,1746,650.9,1746.2,650.5,1746.6z M653.8,1741.9
			c0.1,0.1,0.2,0.3,0.2,0.6c0,0.3-0.1,0.5-0.2,0.6c-0.1,0.2-0.3,0.2-0.6,0.2c-0.2,0-0.4-0.1-0.6-0.2c-0.1-0.1-0.2-0.3-0.2-0.6
			c0-0.2,0.1-0.4,0.2-0.6c0.1-0.1,0.3-0.2,0.6-0.2C653.5,1741.7,653.5,1741.7,653.8,1741.9z"/>
		<path class="st1" d="M657.4,1753.5c-0.3,0-0.5-0.1-0.7-0.2v-0.2c1.2-1.4,2.4-2.8,3.4-4.2l-3.2-3.8h1.5l0.5,0.7l2.6,3v0.1
			c-0.9,1.3-2,2.8-3.4,4.4l-0.2,0.1C657.8,1753.5,657.7,1753.5,657.4,1753.5z M661.5,1749.9l-0.1-4.8h1.4l-0.1,4.6l0.1,3.6h-1.4
			L661.5,1749.9z M666.4,1753.5c-1.5-1.8-2.6-3.3-3.4-4.4v-0.1l2.6-3l0.5-0.7h1.5l-3.2,3.8c1.1,1.5,2.2,2.9,3.4,4.2v0.2
			c-0.2,0.1-0.5,0.1-0.7,0.2c-0.3,0-0.4,0.1-0.5,0.1L666.4,1753.5z"/>
		<path class="st1" d="M675,1751.1c0,0.8-0.3,1.4-0.9,1.8c-0.6,0.4-1.4,0.7-2.4,0.7c-0.5,0-0.9-0.1-1.3-0.2
			c-0.4-0.1-0.8-0.3-1.1-0.5l0.3-1.1l0.1-0.1c0.3,0.2,0.6,0.4,0.9,0.5s0.7,0.2,1.1,0.2c0.6,0,1-0.1,1.4-0.4s0.5-0.6,0.5-1
			c0-0.3-0.1-0.6-0.3-0.9c-0.2-0.2-0.5-0.4-1-0.4h-1.8l-0.1-0.1l0.1-0.9h1.7c0.3-0.1,0.5-0.3,0.7-0.6s0.3-0.5,0.3-0.8
			c0-0.4-0.1-0.6-0.4-0.8c-0.3-0.2-0.6-0.3-1.1-0.3c-0.7,0-1.4,0.2-2.1,0.6l-0.2-0.1l0.1-1.1c0.7-0.4,1.4-0.6,2.2-0.6
			c0.9,0,1.5,0.2,2,0.5s0.7,0.9,0.7,1.5c0,0.4-0.1,0.8-0.3,1.2c-0.2,0.4-0.6,0.6-1,0.8C674.5,1749.4,675,1750,675,1751.1z"/>
		<path class="st1" d="M677.7,1749.9l-0.1-4.7l1.4-0.1v6.2h0.1l3.7-6.2h1.4l-0.1,4.6l0.1,3.6h-1.4l0.1-3.4v-2.9h-0.1l-3.8,6.3h-1.4
			L677.7,1749.9z"/>
		<path class="st1" d="M687.5,1749.9l-0.1-4.7l1.4-0.1v6.2h0.1l3.7-6.2h1.4l-0.1,4.6l0.1,3.6h-1.4l0.1-3.4v-2.9h-0.1l-3.8,6.3h-1.4
			L687.5,1749.9z M693.4,1742.3c-0.2,0.5-0.5,0.9-1,1.2c-0.5,0.3-1,0.4-1.6,0.4s-1.1-0.1-1.6-0.4c-0.4-0.3-0.8-0.7-1-1.2l0.7-0.5
			h0.2c0.1,0.4,0.3,0.7,0.6,0.9c0.3,0.2,0.6,0.3,1.1,0.3c0.4,0,0.8-0.1,1.1-0.3c0.3-0.2,0.5-0.5,0.6-0.9h0.2L693.4,1742.3z"/>
	</g>
	<g class="st0">
		<path class="st1" d="M646,1781.7l0.1,3.7h-2.4l0.1-3.5l-0.1-3.3h-1.5l-0.1,0.5c-0.2,1.7-0.4,3-0.7,3.9c-0.2,0.9-0.5,1.5-0.9,1.9
			c-0.3,0.4-0.8,0.6-1.4,0.7h-0.5l-0.3-1.8c0.4-0.1,0.8-0.4,1-0.7c0.2-0.3,0.4-0.8,0.6-1.5c0.2-0.7,0.3-1.6,0.4-2.9l0.2-1.6l0,0h5.5
			L646,1781.7z"/>
	</g>
	<g class="st0">
		<path class="st1" d="M649.5,1781.9v-4.7l1.4-0.1v4.7v3.6h-1.4V1781.9z M652.5,1780.9c1.1,1.4,2.2,2.8,3.5,4.2v0.2
			c-0.2,0.1-0.5,0.1-0.7,0.2s-0.4,0.1-0.5,0.1l-0.1-0.1c-1.5-1.7-2.6-3.2-3.5-4.4v-0.1l2.6-3l0.5-0.7h1.5L652.5,1780.9z"/>
		<path class="st1" d="M663.7,1781.8l0.1,3.6h-1.4l0.1-3.5v-3.8h-2.1l-0.1,0.7c-0.2,1.7-0.3,3-0.6,3.9s-0.5,1.6-0.8,2
			s-0.7,0.7-1.3,0.8h-0.4l-0.2-1.1c0.4-0.2,0.8-0.4,1.1-0.8s0.5-1,0.6-1.7s0.3-1.9,0.4-3.4l0.1-1.4l0,0h4.6L663.7,1781.8z"/>
		<path class="st1" d="M667.5,1777.2h1.4l0.5,1.3l1.6,4.4h0.1l1.8-4.5l0.4-1.2h1.4l0.8,8.2h-1.2l-0.2-2.6l-0.4-3.7h-0.1l-2.2,5.4h-1
			l-2.1-5.4h-0.1l-0.4,3.5l-0.2,2.8h-1.1L667.5,1777.2z"/>
		<path class="st1" d="M685.2,1781.8l0.1,3.6h-1.4l0.1-3.5v-0.1h-4l0.1,3.6h-1.4l0.1-3.5l-0.1-4.8h1.4v3.5h4v-3.6h1.4L685.2,1781.8z
			"/>
		<path class="st1" d="M694.2,1778.1c0.6,0.7,0.9,1.7,0.9,3.1s-0.3,2.5-1,3.2c-0.6,0.8-1.6,1.1-2.8,1.1c-1.1,0-2-0.4-2.6-1.1
			s-0.9-1.7-0.9-3.1s0.3-2.5,1-3.2c0.7-0.8,1.6-1.1,2.8-1.1S693.7,1777.4,694.2,1778.1z M689.9,1778.8c-0.4,0.5-0.6,1.3-0.6,2.3
			c0,1.2,0.2,2,0.6,2.6s1,0.9,1.7,0.9c0.8,0,1.3-0.3,1.7-0.8s0.6-1.3,0.6-2.3c0-1.1-0.2-2-0.6-2.6c-0.4-0.6-1-0.9-1.7-0.9
			S690.2,1778.3,689.9,1778.8z"/>
	</g>
	<g class="st0">
		<path class="st1" d="M646.7,1815c0,0.9-0.3,1.5-1,1.9s-1.7,0.6-3,0.6c-0.6,0-1.6,0-3-0.1l0.1-3.5l-0.1-4.9h3.7
			c1,0,1.7,0.2,2.2,0.5c0.5,0.4,0.8,0.9,0.8,1.6c0,0.4-0.1,0.8-0.4,1.1c-0.2,0.3-0.6,0.6-1,0.8C646,1813.4,646.7,1814,646.7,1815z
			 M644,1815.8c0.3-0.2,0.4-0.5,0.4-0.9c0-0.3-0.1-0.5-0.3-0.7s-0.4-0.3-0.8-0.4h-1.7l0.1,2.1c0.3,0,0.7,0.1,1.1,0.1
			C643.4,1816.1,643.8,1816,644,1815.8z M641.8,1810.4v2.1l1.4,0.1c0.7-0.2,1-0.6,1-1.2c0-0.4-0.1-0.6-0.4-0.8
			c-0.3-0.2-0.7-0.2-1.3-0.2C642.2,1810.4,642,1810.4,641.8,1810.4z"/>
	</g>
	<g class="st0">
		<path class="st1" d="M655.7,1814.5v2.9h-1.4l0.1-2.8v-4.4h-3.7v4.3v2.9h-1.4l0.1-2.8l-0.1-5.5h6.4L655.7,1814.5z"/>
		<path class="st1" d="M665.4,1810.1c0.6,0.7,0.8,1.7,0.8,2.9c0,1.4-0.3,2.6-1,3.3c-0.7,0.8-1.7,1.2-3,1.2c-0.5,0-1-0.1-1.6-0.2v3.3
			h-1.4l0.1-6.8l-0.1-4.7l1.4-0.1v1.2h0.1c0.4-0.3,0.8-0.6,1.1-0.8c0.3-0.2,0.7-0.3,1.1-0.4C664,1809.1,664.8,1809.4,665.4,1810.1z
			 M664.2,1815.7c0.4-0.6,0.6-1.3,0.6-2.4c0-1-0.2-1.8-0.5-2.3s-0.8-0.8-1.5-0.8c-0.4,0-0.7,0.1-1.1,0.3c-0.4,0.2-0.8,0.5-1.2,1v2.3
			v2.2c0.6,0.3,1.2,0.5,1.8,0.5C663.2,1816.5,663.8,1816.2,664.2,1815.7z"/>
		<path class="st1" d="M673,1809.1c0.4,0.1,0.8,0.2,1.1,0.4l-0.3,1.2l-0.2,0.1c-0.6-0.4-1.2-0.6-1.9-0.6s-1.3,0.3-1.7,0.8
			s-0.6,1.3-0.6,2.3s0.2,1.7,0.6,2.3c0.4,0.6,1,0.8,1.7,0.8c0.3,0,0.7-0.1,1-0.2c0.4-0.1,0.7-0.3,1-0.5l0.2,0.1l-0.2,1.2
			c-0.7,0.3-1.5,0.5-2.2,0.5c-1.1,0-2-0.4-2.6-1.1s-0.9-1.8-0.9-3.1c0-1.3,0.3-2.4,1-3.2c0.7-0.8,1.5-1.2,2.7-1.2
			C672.2,1809,672.5,1809.1,673,1809.1z"/>
		<path class="st1" d="M681.9,1809.2l-0.1,1h-1.5h-1v3.6l0.1,3.6H678l0.1-3.5v-3.7h-1h-1.5l-0.1-0.1l0.1-0.9H681.9L681.9,1809.2z"/>
		<path class="st1" d="M684.2,1810.2l2,5.7h0.1l2.1-5.6l0.3-1.1h1.3l-3,8c-0.3,0.8-0.6,1.5-1,1.9c-0.3,0.5-0.8,0.8-1.2,1.1
			c-0.5,0.3-1.1,0.5-1.9,0.7h-0.1c-0.3-0.3-0.4-0.5-0.6-0.8v-0.2c0.9-0.2,1.6-0.4,2.1-0.8c0.5-0.3,0.9-0.9,1.4-1.7l-3-8.2l1.4-0.1
			L684.2,1810.2z"/>
		<path class="st1" d="M699.5,1816.3c-0.7,0.7-1.7,1.2-3.1,1.3v3.2H695v-3.2c-1.4-0.1-2.4-0.5-3.1-1.2c-0.7-0.7-1.1-1.7-1.1-3
			s0.3-2.3,1-3s1.7-1.2,3.1-1.3v-3.1l1.4-0.1v3.2c1.4,0.1,2.4,0.5,3.1,1.2c0.7,0.7,1,1.7,1,3
			C700.5,1814.5,700.2,1815.5,699.5,1816.3z M693,1815.6c0.5,0.5,1.2,0.9,2.1,0.9v-2.6v-3.8c-1,0.1-1.7,0.4-2.1,0.9
			s-0.7,1.3-0.7,2.3C692.2,1814.3,692.5,1815.1,693,1815.6z M698.5,1815.6c0.5-0.6,0.7-1.3,0.7-2.3s-0.2-1.7-0.7-2.2
			s-1.2-0.8-2.1-0.9v3.7v2.8C697.5,1816.4,698.2,1816.1,698.5,1815.6z"/>
	</g>
	<g class="st0">
		<path class="st1" d="M645,1841.5c0.5,0.4,0.8,1,0.8,1.7c0,0.2,0,0.9-0.1,2.1c0,0.3,0,0.7-0.1,1c0,0.4,0,0.7,0,0.9
			c0,0.2,0,0.3,0.1,0.4s0.2,0.1,0.3,0.1s0.3,0,0.5-0.1l0.2,0.1l-0.2,1.3c-0.4,0.3-0.8,0.4-1.3,0.4c-0.4,0-0.7-0.2-0.9-0.4
			c-0.2-0.2-0.4-0.5-0.5-0.9h-0.1c-0.6,0.6-1.2,1.1-1.9,1.3c-0.9,0-1.5-0.2-2-0.7c-0.5-0.4-0.7-1-0.7-1.8c0-0.6,0.2-1.1,0.5-1.4
			s0.8-0.6,1.4-0.7l2.8-0.5v-0.7c0-0.8-0.4-1.2-1.2-1.2c-0.4,0-0.8,0.1-1.2,0.3c-0.4,0.2-0.9,0.4-1.4,0.8l-0.2-0.1l-0.3-1.6
			c0.5-0.3,1.1-0.6,1.7-0.7c0.6-0.2,1.2-0.3,1.8-0.3C643.7,1840.9,644.4,1841.1,645,1841.5z M641.5,1846.1c-0.2,0-0.3,0.1-0.4,0.2
			c-0.1,0.1-0.1,0.3-0.1,0.5c0,0.3,0.1,0.6,0.3,0.7c0.2,0.2,0.4,0.3,0.7,0.3c0.5,0,1-0.3,1.5-0.8v-1.3L641.5,1846.1z"/>
	</g>
	<g class="st0">
		<path class="st1" d="M649.9,1841.9l1.7,2.5l1.6-2.5l0.4-0.7h1.3l-2.6,4l2.8,4.1l-1.5,0.1l-0.4-0.8l-1.8-2.6l-1.7,2.7l-0.4,0.7H648
			l2.6-4.2l-2.6-4l1.5-0.1L649.9,1841.9z"/>
		<path class="st1" d="M665.2,1851.3l-1,0.1l-0.2-2h-6.4l0.1-3.5l-0.1-4.8h1.4l-0.1,4.6v2.5h3.6v-2.4l-0.1-4.8h1.4v4.6v2.6h1.3
			L665.2,1851.3L665.2,1851.3z"/>
		<path class="st1" d="M673.2,1845.8l0.1,3.6h-1.4l0.1-3.5v-0.1h-0.1c-0.5,0.4-1.2,0.8-1.9,1c-1,0-1.7-0.2-2.1-0.6s-0.6-1-0.7-1.8
			v-3.2h1.4v2.9c0,0.5,0.1,0.9,0.3,1.2c0.2,0.3,0.6,0.4,1.1,0.4c0.7,0,1.4-0.3,2.1-0.9v-3.6h1.4L673.2,1845.8z"/>
		<path class="st1" d="M686.4,1845.8v3.6h-9.8l0.1-3.5l-0.1-4.8h1.3l-0.1,4.6v2.6h3l0.1-2.4l-0.1-4.8h1.3l-0.1,4.6v2.6h3v-2.4v-4.8
			h1.3L686.4,1845.8z"/>
		<path class="st1" d="M701,1851.3l-1,0.1l-0.2-2h-10.1l0.1-3.5l-0.1-4.8h1.3l-0.1,4.6v2.6h3l0.1-2.4l-0.1-4.8h1.3l-0.1,4.6v2.6h3
			v-2.4v-4.8h1.3l-0.1,4.6v2.6h1.5v3L701,1851.3L701,1851.3z"/>
		<path class="st1" d="M709.2,1845c0.4,0.4,0.7,0.9,0.7,1.6c0,0.9-0.3,1.5-0.9,2c-0.6,0.5-1.5,0.7-2.6,0.7h-2.2l0.1-3.5v-3.7h-0.9
			h-1.3l-0.1-0.1l0.1-0.9h3.6l-0.1,3.3h1.9C708.2,1844.5,708.9,1844.7,709.2,1845z M708.2,1848c0.3-0.3,0.4-0.7,0.4-1.1
			c0-0.5-0.1-0.8-0.4-1.1s-0.7-0.4-1.2-0.4h-1.5v0.4v2.7h1.4C707.5,1848.4,707.9,1848.2,708.2,1848z"/>
		<path class="st1" d="M717,1845c0.4,0.4,0.6,0.9,0.6,1.6c0,0.9-0.3,1.5-0.9,2c-0.6,0.5-1.4,0.7-2.5,0.7h-2.3l0.1-3.5l-0.1-4.8h1.4
			v3.3h1.7C716,1844.5,716.7,1844.7,717,1845z M716,1848c0.3-0.3,0.4-0.7,0.4-1.1c0-0.5-0.1-0.8-0.4-1.1s-0.6-0.4-1.1-0.4h-1.4v0.4
			v2.7h1.3C715.2,1848.4,715.7,1848.2,716,1848z M720.2,1845.8v3.6h-1.4l0.1-3.5l-0.1-4.7l1.4-0.1V1845.8z"/>
		<path class="st1" d="M728.9,1845c0.5,0.4,0.7,0.9,0.7,1.6c0,0.9-0.3,1.5-0.9,2c-0.6,0.5-1.5,0.7-2.6,0.7h-2.4l0.1-3.5l-0.1-4.8
			h1.4v3.3h1.9C727.7,1844.5,728.4,1844.7,728.9,1845z M727.8,1848c0.3-0.3,0.5-0.7,0.5-1.1c0-0.5-0.2-0.8-0.5-1.1
			c-0.3-0.3-0.7-0.4-1.3-0.4H725v0.4v2.7h1.4C727,1848.4,727.5,1848.2,727.8,1848z"/>
		<path class="st1" d="M736.5,1842.1c0.6,0.7,1,1.8,1,3.1c0,1.3-0.3,2.4-1,3.2s-1.6,1.2-2.8,1.2c-0.4,0-0.9,0-1.3-0.1
			s-0.8-0.2-1.1-0.4l0.3-1.2l0.2-0.1c0.7,0.4,1.4,0.6,2,0.6c0.7,0,1.3-0.2,1.7-0.7s0.7-1.1,0.7-2h-1.6h-2.2l-0.1-0.1l0.1-1h2.3h1.5
			c-0.1-0.8-0.4-1.4-0.8-1.9s-1-0.7-1.7-0.7c-0.4,0-0.7,0.1-1.1,0.2c-0.4,0.1-0.7,0.2-1.1,0.4l-0.2-0.1l0.2-1.2
			c0.3-0.1,0.7-0.2,1.1-0.3c0.4-0.1,0.8-0.1,1.3-0.1C734.9,1841,735.8,1841.4,736.5,1842.1z"/>
		<path class="st1" d="M749,1842.1c0.6,0.7,0.9,1.7,0.9,3.1s-0.3,2.5-0.9,3.2c-0.6,0.8-1.5,1.1-2.6,1.1c-1,0-1.8-0.3-2.4-1
			s-0.9-1.6-1-2.8h-0.8h-0.8l0.1,3.6H740l0.1-3.5l-0.1-4.8h1.4v3.5h0.9h0.8c0.1-1.2,0.4-2.1,1-2.7s1.4-1,2.4-1
			C747.5,1841,748.4,1841.4,749,1842.1z M748,1847.7c0.4-0.5,0.5-1.3,0.5-2.4c0-2.2-0.7-3.3-2.1-3.3c-0.7,0-1.2,0.3-1.6,0.8
			c-0.4,0.5-0.5,1.3-0.5,2.4c0,2.2,0.7,3.3,2.1,3.3C747,1848.5,747.7,1848.3,748,1847.7z"/>
		<path class="st1" d="M757.5,1845.8v3.6h-1.3v-3h-1.6c-0.5,0.9-1.1,1.9-1.9,3l-0.2,0.1c-0.5,0-0.9-0.1-1.2-0.3v-0.2
			c0.9-1.1,1.7-2.1,2.3-3c-0.6-0.2-1-0.5-1.3-0.9s-0.4-0.9-0.4-1.5c0-0.8,0.3-1.4,0.8-1.9s1.3-0.7,2.2-0.7h2.7L757.5,1845.8z
			 M753.8,1842.5c-0.3,0.3-0.5,0.7-0.5,1.2s0.1,0.9,0.4,1.2c0.3,0.3,0.6,0.5,1.1,0.6l1.5-0.1v-3.3H755
			C754.5,1842.1,754,1842.2,753.8,1842.5z"/>
	</g>
</g>
</svg>
